<svg width="80" height="20" viewBox="0 0 80 20" fill="none" xmlns="http://www.w3.org/2000/svg">
<path d="M44.4001 10.0921C44.6309 10.1043 44.8573 10.0269 45.0321 9.87612C45.1145 9.79476 45.1785 9.69648 45.2193 9.58804C45.2597 9.47964 45.2765 9.36364 45.2681 9.24812C45.2741 9.13996 45.2581 9.03172 45.2209 8.92996C45.1837 8.8282 45.1265 8.73504 45.0521 8.65612C44.9665 8.57128 44.8645 8.5048 44.7525 8.4608C44.6405 8.41676 44.5205 8.39612 44.4001 8.40012H43.5001V10.0721L44.4001 10.0921ZM42.6201 7.62412H44.4401C44.9109 7.60012 45.3737 7.75436 45.7361 8.05612C45.8961 8.21556 46.0205 8.40704 46.1013 8.618C46.1817 8.82896 46.2169 9.05464 46.2041 9.28012C46.2121 9.49556 46.1769 9.71048 46.0997 9.91188C46.0229 10.1133 45.9061 10.297 45.7561 10.4521C45.4113 10.7433 44.9661 10.887 44.5161 10.8521H43.5281V12.6881H42.6481V7.62412H42.6201ZM48.2201 8.86812C47.9665 9.25136 47.8405 9.70496 47.8601 10.1641C47.8269 10.6247 47.9541 11.0826 48.2201 11.4601C48.3377 11.6136 48.4893 11.7379 48.6625 11.8235C48.8361 11.9091 49.0269 11.9536 49.2201 11.9536C49.4133 11.9536 49.6041 11.9091 49.7777 11.8235C49.9509 11.7379 50.1025 11.6136 50.2201 11.4601C50.4737 11.0769 50.5997 10.6233 50.5801 10.1641C50.6133 9.70352 50.4861 9.2456 50.2201 8.86812C50.1061 8.708 49.9549 8.57832 49.7789 8.49044C49.6033 8.40256 49.4085 8.35916 49.2121 8.36412C49.0153 8.35552 48.8193 8.39728 48.6429 8.48548C48.4665 8.57368 48.3153 8.70536 48.2041 8.86812H48.2201ZM50.8521 8.25612C51.2893 8.7942 51.5193 9.47112 51.5001 10.1641C51.5285 10.8585 51.2973 11.5386 50.8521 12.0721C50.6453 12.3004 50.3917 12.4814 50.1089 12.6029C49.8257 12.7244 49.5201 12.7834 49.2121 12.7761C48.9037 12.7876 48.5965 12.7303 48.3129 12.6086C48.0293 12.4868 47.7761 12.3036 47.5721 12.0721C47.1349 11.534 46.9053 10.8571 46.9241 10.1641C46.9037 9.46608 47.1449 8.78556 47.6001 8.25612C47.8073 8.0286 48.0609 7.84832 48.3437 7.72752C48.6269 7.60676 48.9325 7.54828 49.2401 7.55612C49.5473 7.54984 49.8525 7.609 50.1353 7.72972C50.4181 7.8504 50.6721 8.02984 50.8801 8.25612H50.8521ZM63.5001 7.66412V11.1561L65.8601 7.66412H66.7241V12.6841H65.8601V9.17212L63.5001 12.6801H62.6201V7.66012L63.5001 7.66412Z" fill="#CD1F45"/>
<path d="M69.8757 8.39978C69.5357 8.39978 68.7037 8.25578 68.7037 9.19978C68.7037 9.57578 68.8477 10.0838 69.9037 10.0838H71.1277V8.39978H69.8757ZM68.7597 12.6838H67.7157L69.0677 10.7558C68.7061 10.7115 68.3757 10.5298 68.1449 10.2482C67.9137 9.96662 67.8005 9.6069 67.8277 9.24378C67.8277 8.61578 68.0997 7.64378 69.5197 7.64378H71.9997V12.6838H71.1357V10.8478H69.9997L68.7597 12.6838ZM55.6717 11.1998C55.6261 11.2999 55.5725 11.3962 55.5117 11.4878C55.3989 11.6494 55.2477 11.7806 55.0717 11.8699C54.8961 11.9592 54.7009 12.0038 54.5037 11.9998C54.3069 12.0084 54.1109 11.9666 53.9345 11.8784C53.7581 11.7902 53.6069 11.6585 53.4957 11.4958C53.2421 11.1125 53.1161 10.6589 53.1357 10.1998C53.1025 9.73918 53.2297 9.28126 53.4957 8.90378C53.6097 8.74366 53.7613 8.61398 53.9369 8.5261C54.1125 8.43822 54.3073 8.39482 54.5037 8.39978C54.7009 8.39118 54.8965 8.43294 55.0729 8.52114C55.2493 8.60934 55.4005 8.74102 55.5117 8.90378C55.6077 9.04422 55.6853 9.19606 55.7437 9.35578H56.6797C56.5881 8.96398 56.4029 8.60026 56.1397 8.29578C55.9325 8.06826 55.6789 7.88798 55.3961 7.76718C55.1129 7.64642 54.8073 7.58794 54.4997 7.59578C54.1917 7.58386 53.8845 7.64046 53.6009 7.7615C53.3173 7.88258 53.0641 8.06506 52.8597 8.29578C52.4249 8.83526 52.1957 9.51118 52.2117 10.2038C52.1833 10.8981 52.4145 11.5782 52.8597 12.1118C53.0665 12.34 53.3201 12.5211 53.6029 12.6425C53.8861 12.764 54.1917 12.8231 54.4997 12.8158C54.8081 12.8272 55.1153 12.77 55.3989 12.6482C55.6825 12.5265 55.9357 12.3433 56.1397 12.1118C56.3685 11.8481 56.5353 11.5365 56.6277 11.1998H55.6717ZM60.7997 11.1998C60.7541 11.2999 60.7005 11.3962 60.6397 11.4878C60.5237 11.654 60.3677 11.7881 60.1857 11.8777C60.0037 11.9672 59.8021 12.0092 59.5997 11.9998C59.4029 12.0084 59.2069 11.9666 59.0305 11.8784C58.8541 11.7902 58.7029 11.6585 58.5917 11.4958C58.3381 11.1125 58.2121 10.6589 58.2317 10.1998C58.1985 9.73918 58.3257 9.28126 58.5917 8.90378C58.7057 8.74366 58.8573 8.61398 59.0329 8.5261C59.2085 8.43822 59.4033 8.39482 59.5997 8.39978C59.7969 8.39118 59.9925 8.43294 60.1689 8.52114C60.3453 8.60934 60.4965 8.74102 60.6077 8.90378C60.7037 9.04422 60.7813 9.19606 60.8397 9.35578H61.7757C61.6841 8.96398 61.4989 8.60026 61.2357 8.29578C61.0285 8.06826 60.7749 7.88798 60.4921 7.76718C60.2089 7.64642 59.9033 7.58794 59.5957 7.59578C59.2877 7.58386 58.9805 7.64046 58.6969 7.7615C58.4133 7.88258 58.1601 8.06506 57.9557 8.29578C57.5209 8.83526 57.2917 9.51118 57.3077 10.2038C57.2793 10.8981 57.5105 11.5782 57.9557 12.1118C58.1645 12.3377 58.4193 12.516 58.7029 12.6347C58.9865 12.7534 59.2925 12.8097 59.5997 12.7998C59.9081 12.8112 60.2153 12.754 60.4989 12.6322C60.7825 12.5105 61.0357 12.3273 61.2397 12.0958C61.4709 11.8379 61.6417 11.5319 61.7397 11.1998H60.7997ZM16.7397 9.69578V9.44378C16.5237 7.84378 15.0478 6.24378 13.7518 5.64378C12.9443 5.23738 12.0753 4.96706 11.1798 4.84378C10.5176 4.7737 9.87237 4.5911 9.27173 4.30378C9.21973 4.26778 9.16377 4.24778 9.10777 4.21578C9.05737 4.19054 9.00921 4.16111 8.96373 4.12778C8.67181 3.90395 8.40373 3.65061 8.16373 3.37178C8.01393 3.1992 7.88877 3.0067 7.79173 2.79978L7.71973 2.67578V9.76778H8.47577V4.74378C8.60617 4.86878 8.75125 4.97758 8.90777 5.06778C9.51981 5.34154 10.1699 5.52094 10.8357 5.59978C11.6352 5.72034 12.4196 5.9255 13.1757 6.21178C14.8317 6.96778 15.8597 8.73178 15.9757 9.72378V10.9838H9.10777V14.5118C9.33973 14.5118 9.50773 14.5118 9.73973 14.4758H9.79173V11.6758H16.7397V9.71178" fill="#CD1F45"/>
<path d="M21.9441 11.9278H23.2001C23.4305 11.9383 23.6563 11.8611 23.8321 11.7118C23.9009 11.6506 23.9557 11.5754 23.993 11.4912C24.0303 11.407 24.049 11.3158 24.0481 11.2238C24.0483 11.12 24.0276 11.0172 23.987 10.9216C23.9465 10.8261 23.8869 10.7397 23.8121 10.6678C23.6114 10.5173 23.3617 10.4474 23.1121 10.4718H21.9241L21.9441 11.9278ZM21.0601 12.6998V7.6438H24.5361V8.4718H21.9601V9.6958H23.0961C23.5765 9.63016 24.0641 9.74564 24.4641 10.0198C24.633 10.1654 24.7674 10.347 24.8573 10.5511C24.9473 10.7552 24.9906 10.9768 24.9841 11.1998C24.9901 11.4084 24.9515 11.616 24.8708 11.8084C24.7901 12.0009 24.6691 12.1739 24.5161 12.3158C24.1493 12.6064 23.6869 12.7492 23.2201 12.7158L21.0601 12.6998ZM27.9361 8.7758C27.893 8.62268 27.8636 8.46608 27.8481 8.3078C27.8342 8.4586 27.8101 8.60824 27.7761 8.7558L27.0761 11.1118H28.6241L27.9401 8.7718L27.9361 8.7758ZM29.1361 12.6838L28.8841 11.8838H26.8401L26.6041 12.6838H25.7241L27.3241 7.6438H28.4001L30.0561 12.6838H29.1361ZM30.9361 7.6438H31.8161V9.6958H34.0681V7.6438H34.9201V12.6998H34.0561V10.4678H31.8041V12.6998H30.9241L30.9361 7.6438Z" fill="#0F5C84"/>
<path d="M38.8239 7.66016H39.9039L37.6759 10.0002L40.0759 12.7002H38.9759L36.7999 10.3802V12.7042H35.9199V7.66016H36.7999V9.73216L38.7999 7.66016H38.8239Z" fill="#0F5C84"/>
<path d="M7.74 11.1998C7.06936 11.2284 6.40128 11.3005 5.74 11.4158C5.35832 11.4874 4.98052 11.5782 4.608 11.6878C4.43112 11.737 4.25744 11.7971 4.088 11.8678C4.016 11.6878 3.98 11.5238 3.928 11.3438V11.2718C3.86688 11.0084 3.82412 10.7411 3.8 10.4718H7.74V11.1998ZM7.74 14.8518H7.704C7.56 14.8158 7.416 14.7958 7.272 14.7598C6.94744 14.6753 6.63348 14.5546 6.336 14.3998C6.13968 14.3039 5.9534 14.1887 5.78 14.0558C5.33844 13.7487 4.95512 13.3653 4.648 12.9238C4.576 12.8158 4.52 12.7278 4.468 12.6358C4.504 12.6358 4.54 12.6358 4.576 12.5998C4.612 12.5638 4.628 12.5998 4.648 12.5998C5.01972 12.4775 5.39756 12.3747 5.78 12.2918C6.4334 12.1659 7.0952 12.0884 7.76 12.0598L7.74 14.8518ZM4.628 14.2398C4.37492 14.1471 4.1278 14.0389 3.888 13.9158L3.78 13.8798L3.168 13.5558C3.168 13.5558 3.116 13.5558 3.096 13.5198C3.11732 13.4915 3.1348 13.4606 3.148 13.4278L3.2 13.3558C3.31996 13.2368 3.45432 13.1333 3.6 13.0478H3.652C3.66376 13.0512 3.67624 13.0512 3.688 13.0478C3.724 13.0838 3.74 13.1398 3.776 13.1758L3.868 13.3198C4.08924 13.6398 4.33676 13.9409 4.608 14.2198C4.644 14.2558 4.68 14.3118 4.716 14.3478C4.68 14.2918 4.644 14.2758 4.628 14.2758V14.2398ZM2.592 12.7998L2.432 13.0158C2.3154 12.9226 2.207 12.8195 2.108 12.7078C1.44436 12.126 1.00444 11.3311 0.864 10.4598H2.936C2.9728 10.8798 3.04508 11.2959 3.152 11.7038C3.19284 11.8845 3.2532 12.0601 3.332 12.2278C3.332 12.2278 3.28 12.2638 3.26 12.2798L3.172 12.3318C2.9632 12.4676 2.76888 12.6244 2.592 12.7998ZM0.992 9.09177C1.10748 8.75733 1.27192 8.44193 1.48 8.15577C1.66252 7.90449 1.86732 7.67021 2.092 7.45577C2.13528 7.40809 2.18356 7.36517 2.236 7.32777C2.27352 7.28761 2.31508 7.25141 2.36 7.21977C2.58196 7.49109 2.85344 7.71777 3.16 7.88777H3.196C3.23636 7.91565 3.2792 7.93973 3.324 7.95977C3.272 8.10377 3.216 8.26777 3.164 8.42777V8.48377C3.128 8.61177 3.092 8.73577 3.056 8.88377C3.0032 9.14789 2.96712 9.41509 2.948 9.68377H0.864C0.88664 9.48113 0.93504 9.28217 1.008 9.09177H0.992ZM3.08 6.69177C3.11992 6.67421 3.15644 6.64985 3.188 6.61977C3.404 6.49177 3.62 6.38777 3.856 6.25977H3.908L4.484 5.99977C4.5404 5.98325 4.59424 5.95901 4.644 5.92777H4.696L4.624 5.99977C4.34672 6.27321 4.09872 6.57485 3.884 6.89977L3.776 7.05977C3.75076 7.11017 3.72132 7.15833 3.688 7.20377C3.5098 7.10157 3.34576 6.97653 3.2 6.83177C3.14656 6.78361 3.09828 6.72997 3.056 6.67177C3.056 6.70777 3.056 6.70777 3.056 6.67177L3.08 6.69177ZM16.432 12.2518H10.352V12.9718H14.508C14.345 13.1198 14.1698 13.2536 13.984 13.3718C12.3344 14.3841 10.4312 14.9071 8.496 14.8798V10.4798H15.48V9.69577H3.76C3.76 9.47977 3.812 9.29577 3.848 9.06777C3.86872 8.99749 3.8808 8.92497 3.884 8.85177C3.9304 8.66101 3.99056 8.47385 4.064 8.29177L4.172 8.32777C4.316 8.37977 4.46 8.41577 4.604 8.47177C4.97476 8.58809 5.35484 8.67237 5.74 8.72377H5.848C6.136 8.77577 6.46 8.83177 6.84 8.86777L7.74 8.91977V8.11177C7.46324 8.11065 7.18676 8.09329 6.912 8.05977C6.59772 8.03601 6.28512 7.99329 5.976 7.93177C5.90264 7.93009 5.82992 7.91797 5.76 7.89577C5.37544 7.82713 4.99692 7.72813 4.628 7.59977C4.576 7.59977 4.536 7.59977 4.484 7.56377C4.432 7.52777 4.448 7.56377 4.432 7.56377C4.47348 7.48257 4.52164 7.40497 4.576 7.33177C4.576 7.29577 4.612 7.27977 4.628 7.23977C4.9298 6.79265 5.31396 6.40713 5.76 6.10377C6.325 5.69213 6.97836 5.41821 7.668 5.30377H7.74V4.43977H7.688C7.66472 4.43153 7.63928 4.43153 7.616 4.43977C6.9986 4.47829 6.38492 4.56249 5.78 4.69177C5.39504 4.77113 5.01664 4.87941 4.648 5.01577C4.416 5.08777 4.18 5.17577 3.908 5.28777C3.708 5.37577 3.476 5.48777 3.208 5.62777C2.82856 5.82961 2.4672 6.06381 2.128 6.32777C1.64144 6.69489 1.21148 7.13153 0.852 7.62377C0.59404 7.98589 0.3868 8.38153 0.236 8.79977C0.0824001 9.20917 0.00248 9.64253 0 10.0798C0 11.4318 0.736 12.7438 2.072 13.7878C2.144 13.8398 2.232 13.8958 2.308 13.9518C2.384 14.0078 2.468 14.0598 2.544 14.1158L2.996 14.3838C3.048 14.4198 3.104 14.4398 3.156 14.4758C3.356 14.5838 3.556 14.6718 3.768 14.7638L3.856 14.7998C4.072 14.8918 4.308 14.9798 4.596 15.0878C4.97468 15.2131 5.352 15.3211 5.728 15.4118C6.62116 15.6084 7.53344 15.705 8.448 15.6998C10.5665 15.7429 12.6516 15.1675 14.448 14.0438C14.7575 13.8504 15.047 13.6267 15.312 13.3758C15.528 13.1798 16.176 12.5278 16.392 12.2598H16.448L16.432 12.2518Z" fill="#0F5C84"/>
</svg>
