<svg width="80" height="20" viewBox="0 0 80 20" fill="none" xmlns="http://www.w3.org/2000/svg">
<path d="M67.9639 9.64386C68.8676 9.64386 69.6002 8.9177 69.6002 8.02194C69.6002 7.12618 68.8676 6.40002 67.9639 6.40002C67.0602 6.40002 66.3276 7.12618 66.3276 8.02194C66.3276 8.9177 67.0602 9.64386 67.9639 9.64386Z" fill="#00F500"/>
<path d="M50.2564 11.8445C49.4249 11.8445 48.7704 11.1957 48.7704 10.3541C48.7704 9.51244 49.4249 8.86368 50.2564 8.86368C51.0878 8.86368 51.76 9.51244 51.76 10.3541C51.76 11.1957 51.0878 11.8445 50.2564 11.8445ZM51.76 8.81984H51.5831C51.2558 8.23244 50.6455 7.89929 49.9468 7.89929C48.797 7.89929 47.7267 8.96888 47.7267 10.3541C47.7267 11.7393 48.7704 12.7913 49.9468 12.7913C50.6455 12.7913 51.2558 12.4582 51.5831 11.8708H51.76V12.6686H52.786V8.01326H51.76V8.81984ZM2.52962 11.8445C1.69821 11.8445 1.04369 11.1957 1.04369 10.3541C1.04369 9.51244 1.69821 8.86368 2.52962 8.86368C3.36104 8.86368 4.03324 9.51244 4.03324 10.3541C4.03324 11.1957 3.36104 11.8445 2.52962 11.8445ZM4.03324 8.81984H3.85635C3.52909 8.23244 2.9188 7.89929 2.22005 7.89929C1.07023 7.89929 0 8.96888 0 10.3541C0 11.7393 1.04369 12.7913 2.22005 12.7913C2.9188 12.7913 3.52909 12.4582 3.85635 11.8708H4.03324V12.6686H5.05925V8.01326H4.03324V8.81984ZM57.6772 9.85436H55.2714V8.01326H54.2454V12.6774H55.2714V10.8275H57.6772V12.6774H58.7032V8.01326H57.6772V9.85436ZM62.3296 10.2927L64.7619 8.01326H63.3555L61.1709 10.1524V8.01326H60.1449V12.6774H61.1709V10.5294L63.3732 12.6774H64.8857L62.3296 10.2927ZM45.2856 11.7656H43.6316V10.5908H45.2856C45.7543 10.5908 45.9754 10.8363 45.9754 11.1782C45.9754 11.5201 45.7632 11.7656 45.2856 11.7656ZM45.4005 9.67902H43.6227V8.91628H46.6388V8.01326H42.5967V12.6774H45.4094C46.3735 12.6774 47.028 12.0461 47.028 11.187C47.028 10.3278 46.3558 9.67902 45.4005 9.67902ZM32.9293 11.8357C32.0802 11.8357 31.4522 11.187 31.4522 10.3541C31.4522 9.51244 32.0802 8.86368 32.9293 8.86368C33.7519 8.86368 34.4064 9.51244 34.4064 10.3541C34.4064 11.187 33.7696 11.8357 32.9293 11.8357ZM32.9293 7.89929C31.691 7.89929 30.6916 8.74094 30.4705 9.86313H29.6037V8.01326H28.5688V12.6774H29.5948V10.8187H30.4616C30.6739 11.9497 31.691 12.8001 32.9205 12.8001C34.3091 12.8001 35.4324 11.713 35.4324 10.3629C35.4413 8.98642 34.3091 7.89929 32.9293 7.89929ZM35.8127 8.97765H37.5375V12.6686H38.5635V8.97765H40.2882V8.01326H35.8127V8.97765ZM24.4737 8.01326L22.457 12.6774H23.545L25.1105 8.95135L26.676 12.6774H27.8082L25.7915 8.01326H24.4737ZM14.1429 8.85491C15.1512 8.85491 15.4342 9.62642 15.4342 9.62642H16.5222C16.5222 9.62642 16.0888 7.89929 14.1429 7.89929C12.7454 7.89929 11.6486 8.98642 11.6486 10.3541C11.6486 11.7305 12.7454 12.8089 14.1429 12.8089C16.0888 12.8089 16.5222 11.0818 16.5222 11.0818H15.4342C15.4342 11.0818 15.1512 11.8533 14.1429 11.8533C13.3203 11.8533 12.7012 11.2045 12.7012 10.3629C12.7012 9.52121 13.3203 8.85491 14.1429 8.85491ZM9.21632 11.7481H7.54464V10.5908H9.20747C9.67625 10.5908 9.89737 10.8363 9.89737 11.1782C9.89737 11.5201 9.69394 11.7481 9.21632 11.7481ZM9.34015 9.67902H7.54464V8.92505H10.5696V8.01326H6.51864V12.6774H9.34015C10.2954 12.6774 10.9587 12.0461 10.9587 11.187C10.9587 10.3278 10.2865 9.67902 9.34015 9.67902ZM19.6532 11.8357C18.7864 11.8357 18.1496 11.187 18.1496 10.3541C18.1496 9.51244 18.7864 8.86368 19.6532 8.86368C20.4935 8.86368 21.1568 9.51244 21.1568 10.3541C21.1568 11.187 20.5112 11.8357 19.6532 11.8357ZM19.6532 7.89929C18.2292 7.89929 17.1059 8.98642 17.1059 10.3541C17.1059 11.713 18.2292 12.7913 19.6532 12.7913C21.0684 12.7913 22.2094 11.7042 22.2094 10.3541C22.2094 8.98642 21.0419 7.89929 19.6532 7.89929Z" fill="#FF5000"/>
</svg>
