<svg width="80" height="20" viewBox="0 0 80 20" fill="none" xmlns="http://www.w3.org/2000/svg">
<path d="M11.5322 12.7396C11.3674 12.7396 11.2719 12.8385 11.2719 13.0174V14.4304H9.10328V13.0174C9.10328 12.8394 9.0078 12.7396 8.843 12.7396C8.68 12.7396 8.58272 12.8385 8.58272 13.0174V16.4241C8.58272 16.6021 8.68 16.7009 8.843 16.7009C9.0078 16.7009 9.10328 16.6021 9.10328 16.4241V14.9158H11.2719V16.4241C11.2719 16.6021 11.3674 16.7009 11.5322 16.7009C11.6952 16.7009 11.7907 16.6021 11.7907 16.4241V13.0174C11.7916 12.8385 11.6952 12.7396 11.5322 12.7396ZM14.2097 14.674L15.7182 13.1684C15.7894 13.0974 15.82 13.0399 15.82 12.9589C15.82 12.8403 15.738 12.7396 15.5975 12.7396C15.5246 12.7396 15.466 12.7648 15.4003 12.8295L13.926 14.301C13.8432 14.3837 13.7594 14.4295 13.6423 14.4295H13.3388V13.0165C13.3388 12.8385 13.2434 12.7387 13.0785 12.7387C12.9155 12.7387 12.8183 12.8376 12.8183 13.0165V16.4232C12.8183 16.6011 12.9155 16.7 13.0785 16.7C13.2434 16.7 13.3388 16.6011 13.3388 16.4232V14.9149H13.6072C13.7234 14.9149 13.8071 14.9616 13.89 15.0434L15.4552 16.6057C15.5246 16.674 15.5849 16.7 15.6624 16.7C15.8101 16.7 15.8956 16.5949 15.8956 16.4708C15.8956 16.3854 15.8632 16.3252 15.7884 16.2506L14.2097 14.674ZM17.4672 8.04934C17.233 8.1725 16.9124 8.26058 16.6053 8.26058C16.0992 8.26058 15.7822 8.04218 15.7822 7.66106C15.7822 7.3177 16.0532 7.05162 16.6017 7.05162C16.8908 7.05162 17.1466 7.09386 17.4672 7.18914V8.04934ZM16.6746 4.88626C16.2342 4.88626 15.8371 4.99862 15.5831 5.10198C15.3688 5.18918 15.2778 5.31322 15.2787 5.47862C15.2805 5.67366 15.4282 5.81658 15.6119 5.81658C15.7002 5.81658 15.7984 5.78242 15.9028 5.74106C16.0685 5.67454 16.3414 5.60266 16.6143 5.60266C17.2204 5.60266 17.4672 5.83098 17.4672 6.29746V6.61206C17.1186 6.51858 16.834 6.47726 16.508 6.47726C15.5156 6.47726 15.031 7.04174 15.031 7.66106C15.031 8.37746 15.5741 8.91678 16.536 8.91678C17.2834 8.91678 17.8526 8.66866 18.0805 8.51226C18.1894 8.43678 18.2282 8.36486 18.2282 8.21834V6.31454C18.2273 5.33478 17.6626 4.88626 16.6746 4.88626ZM26.1688 7.42466C25.9905 7.42826 25.8905 7.5343 25.823 7.65206C25.686 7.94598 25.397 8.15362 25.0016 8.15362C24.4432 8.15362 24.1145 7.81746 24.0686 7.32038C24.0443 7.0543 24.0443 6.7469 24.0686 6.48086C24.1145 5.98286 24.4477 5.6467 25.0016 5.6467C25.397 5.6467 25.6834 5.85074 25.823 6.15186C25.8932 6.26602 25.9905 6.37478 26.1688 6.37658C26.3975 6.37838 26.5515 6.23634 26.5515 6.01254C26.5515 5.89658 26.5074 5.78062 26.4372 5.6539C26.2075 5.22694 25.7086 4.88534 24.9908 4.88534C24.0218 4.88534 23.3697 5.4957 23.2886 6.3685C23.2607 6.65882 23.2607 7.1397 23.2886 7.43094C23.3733 8.30374 24.0218 8.91586 24.9908 8.91586C25.7086 8.91586 26.2075 8.5761 26.4398 8.14642C26.5101 8.01878 26.5524 7.90374 26.5524 7.78778C26.5515 7.56758 26.3966 7.41926 26.1688 7.42466ZM8.48008 8.20666L7.12196 6.85118L8.41072 5.5649C8.51068 5.46514 8.562 5.36626 8.562 5.2521C8.562 5.06242 8.42424 4.9213 8.22788 4.9213C8.11352 4.9213 8.02796 4.96266 7.9172 5.07322L6.60772 6.38018C6.53656 6.45206 6.46 6.49254 6.35824 6.49254H6.09076V5.33658C6.09076 5.0741 5.93768 4.9213 5.69632 4.9213C5.45676 4.9213 5.30456 5.0741 5.30456 5.33658V8.46462C5.30456 8.7271 5.45764 8.8817 5.69632 8.8817C5.93768 8.8817 6.09076 8.7271 6.09076 8.46462V7.2161H6.31412C6.41588 7.2161 6.49244 7.25658 6.5636 7.32846L7.96132 8.72262C8.0766 8.83766 8.16664 8.88262 8.28644 8.88262C8.49356 8.88262 8.63856 8.73518 8.63856 8.53474C8.63856 8.41518 8.58544 8.31094 8.48008 8.20666ZM21.7396 7.32126C21.6937 7.82014 21.383 8.15722 20.8138 8.15722C20.5193 8.15722 20.1492 8.06734 19.9663 7.93878V5.86422C20.1492 5.7339 20.5184 5.64398 20.8138 5.64398C21.383 5.64398 21.6946 5.98286 21.7396 6.48174C21.7621 6.73254 21.7639 7.04982 21.7396 7.32126ZM20.8381 4.88626C20.15 4.88626 19.5998 5.12894 19.3782 5.2593C19.1972 5.36626 19.1783 5.45074 19.1783 5.75186V9.76078C19.1783 10.0215 19.3305 10.1761 19.5701 10.1761C19.8114 10.1761 19.9654 10.0215 19.9654 9.76078V8.7145C20.2014 8.82866 20.5625 8.91678 20.9066 8.91678C21.8162 8.91678 22.4412 8.31182 22.5232 7.43902C22.5511 7.1451 22.5511 6.66062 22.5232 6.36398C22.443 5.48938 21.8171 4.88626 20.8381 4.88626ZM7.11836 15.9801C6.83016 16.1347 6.4384 16.2479 6.07544 16.2479C5.42612 16.2479 5.05956 15.9729 5.05956 15.4973C5.05956 15.0704 5.382 14.7513 6.07544 14.7513C6.41948 14.7513 6.7104 14.8016 7.11836 14.9221V15.9801ZM6.18712 12.7055C5.73324 12.7055 5.29104 12.8286 5.05148 12.9374C4.89028 13.0075 4.81732 13.0821 4.82092 13.2106C4.82544 13.3437 4.92808 13.4488 5.05508 13.4488C5.1172 13.4488 5.19196 13.4246 5.26492 13.3904C5.44864 13.3122 5.79536 13.2089 6.13488 13.2089C6.80676 13.2089 7.11836 13.4821 7.11836 14.0906V14.4529C6.69688 14.3306 6.39336 14.2884 6.02952 14.2884C5.04516 14.2884 4.54532 14.8538 4.54532 15.4929C4.54532 16.2434 5.11092 16.7369 6.007 16.7369C6.74732 16.7369 7.3138 16.4771 7.52272 16.3252C7.6074 16.265 7.63168 16.2165 7.63168 16.1014V14.0771C7.63168 13.1405 7.08864 12.7055 6.18712 12.7055ZM2.392 16.1553H0.9204V14.0727H2.392C3.162 14.0727 3.47904 14.4493 3.47904 15.1001C3.47904 15.7652 3.162 16.1553 2.392 16.1553ZM2.45864 13.5729H0.9204V11.9657H3.48352C3.65464 11.9657 3.7726 11.8704 3.7726 11.7068C3.7726 11.5504 3.65464 11.4533 3.48352 11.4533H0.85468C0.56016 11.4533 0.39176 11.6169 0.39176 11.9145V16.2039C0.39176 16.5014 0.55928 16.6659 0.85468 16.6659H2.45776C3.443 16.6659 4.014 16.0942 4.014 15.0955C4.014 14.1239 3.44392 13.5729 2.45864 13.5729ZM11.5016 6.37746H12.7912C13.401 6.37746 13.6729 6.68758 13.6729 7.22242C13.6729 7.76622 13.401 8.0907 12.7912 8.0907H11.5016V6.37746ZM11.307 8.84666H12.8759C13.8963 8.84666 14.5006 8.25518 14.5006 7.20534C14.5006 6.21478 13.8963 5.66106 12.8759 5.66106H11.5016V4.39546H13.8107C14.0629 4.39546 14.2268 4.24718 14.2268 4.00986C14.2268 3.78424 14.0629 3.63503 13.8107 3.63503H11.307C10.9108 3.63503 10.6938 3.84986 10.6938 4.24718V8.23542C10.6928 8.63274 10.9099 8.84666 11.307 8.84666ZM1.522 6.49434L2.24248 4.4431C2.2704 4.37122 2.29384 4.34602 2.34788 4.34602C2.401 4.34602 2.4244 4.37122 2.45052 4.4431L3.17464 6.49434H1.522ZM4.70116 8.5033C4.70116 8.43046 4.68852 8.35946 4.64712 8.24982L3.19352 4.28942C3.01792 3.80582 2.76216 3.59998 2.35508 3.59998C1.9498 3.59998 1.69224 3.80582 1.51752 4.28942L0.0540401 8.25162C0.00900015 8.37474 0 8.44846 0 8.50598C0 8.71182 0.16392 8.88262 0.39176 8.88262C0.5782 8.88262 0.71776 8.78914 0.79524 8.56082L1.26896 7.2143H3.4304L3.90772 8.56442C3.98336 8.78914 4.12296 8.88262 4.30668 8.88262C4.53812 8.88262 4.70116 8.71094 4.70116 8.5033Z" fill="#C69AF6"/>
<path d="M67.9511 9.80644C67.4139 8.44624 66.0875 7.70548 64.6519 7.96472L61.7015 8.496C61.2119 8.58416 60.8867 9.05288 60.9739 9.54268C61.0619 10.0325 61.5299 10.358 62.0191 10.2706L64.9691 9.73936C65.6711 9.61276 66.1047 10.0333 66.2763 10.4681C66.4483 10.9036 66.4183 11.5072 65.8203 11.8953L61.4903 14.7054C61.0875 14.9661 60.5979 14.9842 60.1787 14.7559C59.7591 14.5275 59.5075 14.1048 59.5075 13.6263V4.52092C59.5075 4.02284 59.1051 3.61891 58.6079 3.61891C58.1103 3.61891 57.7079 4.02284 57.7079 4.52092V13.6278C57.7079 14.7777 58.3099 15.792 59.3187 16.3414C59.7875 16.5961 60.2923 16.7234 60.7951 16.7234C61.3751 16.7234 61.9531 16.5554 62.4691 16.22L66.7991 13.41C68.0255 12.6142 68.4883 11.1666 67.9511 9.80644ZM52.7203 7.96548L49.7699 8.49676C49.2811 8.58492 48.9559 9.05364 49.0431 9.54344C49.1311 10.0333 49.5991 10.3588 50.0883 10.2714L53.0383 9.74012C53.7411 9.61352 54.1739 10.034 54.3463 10.4688C54.5179 10.9044 54.4883 11.508 53.8895 11.8961L49.5595 14.7061C49.1575 14.9668 48.6679 14.985 48.2479 14.7566C47.8283 14.5283 47.5775 14.1055 47.5775 13.627V6.70928C47.5775 5.5586 46.9755 4.54428 45.9667 3.99494C44.9579 3.44635 43.7803 3.49156 42.8163 4.11628L31.9247 11.184C30.699 11.979 30.2363 13.4266 30.7736 14.7868C31.31 16.1462 32.6357 16.8862 34.0727 16.6277L43.5823 14.9156C44.0715 14.8274 44.3971 14.3587 44.3091 13.8689C44.2211 13.3791 43.7531 13.0528 43.2639 13.141L33.7546 14.8531C33.0518 14.9797 32.6192 14.5592 32.4476 14.1244C32.2753 13.6888 32.3047 13.0852 32.9036 12.6964L43.7931 5.63016C44.1939 5.3702 44.6847 5.35136 45.1043 5.57968C45.5243 5.80876 45.7747 6.23152 45.7747 6.71004V13.6278C45.7747 14.7777 46.3767 15.792 47.3859 16.3414C47.8543 16.5961 48.3599 16.7234 48.8627 16.7234C49.4427 16.7234 50.0199 16.5554 50.5359 16.22L54.8667 13.41C56.0919 12.615 56.5543 11.1674 56.0179 9.8072C55.4831 8.44624 54.1559 7.707 52.7203 7.96548Z" fill="#009C32"/>
</svg>
