<svg width="80" height="20" viewBox="0 0 80 20" fill="none" xmlns="http://www.w3.org/2000/svg">
<path fill-rule="evenodd" clip-rule="evenodd" d="M7.20488 2.80005C3.23047 2.80005 0 6.02935 0 10.004C0 13.9704 3.23047 17.2 7.20488 17.2C11.1703 17.2 14.4 13.9704 14.4 10.004C14.4 6.02935 11.1703 2.80005 7.20488 2.80005ZM7.20488 16.8399C3.43047 16.8399 0.359961 13.7719 0.359961 10.004C0.359961 6.22817 3.4293 3.16021 7.20488 3.16021C10.9729 3.16021 14.04 6.22974 14.04 10.004C14.04 13.7711 10.9717 16.8399 7.20488 16.8399ZM28.3564 8.7313C28.3564 9.18911 27.9312 9.3395 27.6984 9.3395H27.0828V10.6711H27.6656C28.1568 10.6711 28.3809 10.9043 28.3809 11.2543C28.3809 11.5032 28.1984 11.8458 27.732 11.8458C27.4572 11.8458 27.1828 11.8297 26.7748 11.6536L26.7496 12.9458C26.883 13.0184 27.0096 13.0762 27.1365 13.1215C27.4297 13.2258 27.7258 13.2641 28.1148 13.2696C29.1641 13.2696 29.9797 12.6204 29.9797 11.4458C29.9797 10.4958 29.4133 10.0891 28.9893 9.95435V9.89653C29.4297 9.71255 29.8801 9.23911 29.8801 8.45591C29.8801 7.64849 29.3557 6.82388 28.1725 6.82388C27.9273 6.82114 27.6828 6.83794 27.441 6.87349C27.2645 6.89966 27.0893 6.9356 26.9164 6.98169L26.9328 8.33169C27.2412 8.18169 27.5572 8.1563 27.7232 8.1563C27.8656 8.1563 28.3564 8.19028 28.3564 8.7313ZM41.858 13.22C43.5643 13.22 44.1379 11.62 44.1379 10.0297C44.1379 8.43989 43.5643 6.84028 41.858 6.84028C40.1516 6.84028 39.5779 8.43989 39.5779 10.0297C39.5779 11.62 40.1516 13.2196 41.858 13.22ZM41.858 11.7118C41.3492 11.7118 41.0924 11.1211 41.0924 10.0297C41.0924 8.93833 41.3492 8.34731 41.858 8.34731C42.3664 8.34731 42.623 8.93833 42.623 10.0297C42.623 11.1211 42.3664 11.7118 41.858 11.7118ZM46.0537 6.93208H44.8301V13.1446H46.2697V9.35513L47.1346 10.4375L48 9.35513V13.1446H49.4412V6.93169H48.2262L47.1346 8.39771L46.0537 6.93208ZM50.4148 13.1446H52.1293C52.5037 13.1446 54.0609 12.986 54.0688 11.1032C54.0688 9.5231 52.8625 9.24731 52.0797 9.24731H51.8217V8.4231H53.7277V6.93208H50.4148V13.1446ZM51.8217 11.8954V10.4879H52.0297C52.118 10.4879 52.2771 10.4903 52.4127 10.5754C52.5447 10.6586 52.6545 10.8208 52.6545 11.1372C52.6545 11.7879 52.2041 11.8954 52.0297 11.8954H51.8217ZM59.2469 6.93208H60.6537V9.17231H61.6609V6.93208H63.0668V13.145H61.6609V10.6547H60.6537V13.145H59.2469V6.93208ZM64.0156 6.93208H65.4313L65.4229 9.16411H65.7305L66.5381 6.93208H68.0695L66.9705 9.88091L68.2281 13.145H66.5709L65.7561 10.6461H65.4229L65.4313 13.1446H64.0156V6.93208ZM55.8092 13.1528H54.3439L55.584 6.94067H57.3988L58.6307 13.1528H57.166L56.9908 12.0786H55.9844L55.8092 13.1528ZM56.7576 10.7125L56.4912 8.82192L56.2164 10.7125H56.7576ZM36.8465 13.1446H35.4064V6.93169H37.3301C38.6861 6.93169 39.1941 8.19731 39.1941 8.99653C39.1941 9.81372 38.7525 11.0965 37.3301 11.0965H36.8465V13.1446ZM37.1881 8.29771H36.8465L36.8469 9.72974H37.1881C37.3713 9.72974 37.7213 9.68013 37.7213 9.01372C37.7213 8.4977 37.5129 8.29771 37.1881 8.29771ZM30.6535 6.93208H34.5822V13.1442H33.142V8.43091H32.0939V13.1446H30.6535V6.93208ZM22.0393 13.1446H23.4953L23.6789 12.0696H24.6861L24.8605 13.1446H26.3164L25.0844 6.93169H23.2705L22.0393 13.1446ZM24.1777 8.80552L24.4529 10.7043H23.9029L24.1777 8.80552ZM22.2043 6.93208H19.2508V13.1442H20.7148V8.48013H22.2043V6.93208ZM9.24785 5.47739C8.1084 4.96919 5.98516 4.9188 4.2459 5.69341C4.46992 5.53325 4.70977 5.39731 4.96191 5.28677C5.50957 5.03169 6.39277 4.78442 7.49355 4.78442C7.54551 4.78442 7.59746 4.78481 7.64961 4.78599C8.59082 4.80278 9.70664 5.12778 10.3887 5.80239C10.457 5.8856 10.5084 5.9688 10.5441 6.04536C10.5691 6.09888 10.5865 6.14888 10.5967 6.1938C11.1379 6.4688 11.4539 6.72661 11.6283 7.02661C11.7039 7.18442 11.7287 7.35044 11.6947 7.54224C11.8723 7.64185 12.0262 7.77856 12.1459 7.94341C12.1842 8.00825 12.2182 8.077 12.2445 8.14614C12.2691 8.21021 12.2869 8.27427 12.2951 8.33521C12.3195 8.50044 12.3359 8.69185 12.1611 8.91724C12.3443 9.00903 12.4936 9.26606 12.5115 9.37544C12.6031 9.78208 12.3359 10.1821 11.9951 10.4911C11.5951 10.8403 10.7127 11.2567 9.99668 11.4403C8.5832 11.7981 7.3252 11.9485 6.32715 12.1321C6.77637 12.2399 7.38359 12.3821 8.3748 12.3821C10.4963 12.3821 12.3695 11.3817 12.3695 11.3817C12.3695 11.3817 12.3283 11.5075 12.2859 11.6243C10.9379 12.4399 8.79922 12.7809 7.88281 12.7391C6.95879 12.6969 6.17676 12.5559 5.41074 12.3223C5.17676 12.3883 4.94629 12.4661 4.72031 12.5559C5.88633 13.0887 6.76797 13.2059 7.75879 13.2801C8.77344 13.3559 10.4559 13.1133 11.8695 12.5985C11.8031 12.6657 11.7699 12.7649 11.7039 12.8231C11.2215 13.0782 10.3816 13.3333 9.6457 13.4848C9.27637 13.561 8.9332 13.6114 8.67441 13.6223C7.90801 13.6559 6.97598 13.6223 6.15996 13.4719C5.46074 13.3313 4.88555 13.1133 4.28672 12.8481C4.17949 12.9301 4.12949 13.0313 4.10352 13.1481C6.44395 14.3719 8.62344 14.3961 11.1135 13.6223L10.8879 13.8391C8.14922 14.9551 6.00996 14.5215 4.35273 13.7219L4.28281 13.6918C4.2459 13.6758 4.20937 13.6586 4.17949 13.6387C4.33789 13.9055 5.60195 14.8297 7.01719 14.9465C7.99199 15.0297 9.18184 14.8629 9.88906 14.5805L9.47305 14.7965C9.13145 14.9633 8.22441 15.3473 6.9584 15.2633C5.26914 15.1461 4.31992 14.3965 3.89512 14.0059C3.69551 13.8215 3.60469 13.6141 3.5459 13.3559C3.26895 13.2114 3.06602 13.0622 2.8998 12.8711C2.83613 12.7977 2.77773 12.7184 2.72266 12.6309C2.60586 12.4563 2.62988 12.2485 2.65469 12.0723L2.70664 11.9243C2.52227 11.7895 2.33105 11.6481 2.25625 11.5075C2.08867 11.2075 2.19023 10.9489 2.30625 10.7489C2.20586 10.6325 2.11387 10.5161 2.07402 10.3997C2.02344 10.2665 2.01562 10.1317 2.03066 9.98247C2.06465 9.73325 2.19785 9.50083 2.37266 9.30005C2.73828 8.87505 3.32227 8.54224 4.31152 8.21763C5.28633 7.89185 5.67793 7.84185 6.41035 7.67466C6.73594 7.59927 7.08574 7.54302 7.44121 7.4856C8.02148 7.39224 8.61699 7.29614 9.14824 7.11021C6.75918 6.69419 4.2791 7.07661 2.25625 8.46606L2.38906 8.07505C4.20352 6.89302 6.20996 6.1938 9.60586 6.78521C9.78906 6.67661 9.89707 6.56802 9.94785 6.352C9.09824 6.04419 8.1748 5.93599 6.98477 5.952C5.91875 5.98599 3.99512 6.38403 2.96465 6.99419L3.27949 6.602C3.99512 6.17583 5.86797 5.6188 7.27598 5.5938C8.26562 5.56919 8.77344 5.627 9.95586 5.9438C9.8541 5.75864 9.63809 5.65864 9.31973 5.5106L9.24785 5.47739ZM11.0623 7.21021C11.0299 6.977 10.7635 6.752 10.5299 6.602C10.4967 6.7188 10.373 6.86021 10.2891 6.952C10.5471 7.01919 10.8135 7.11763 11.0623 7.21021ZM9.92305 7.28442C9.75547 7.41802 9.56504 7.53403 9.28105 7.64341C9.53301 7.68755 9.75098 7.74653 9.96055 7.80903C10.1396 7.86216 10.3127 7.91763 10.4963 7.96763C10.5004 7.96958 10.5051 7.97036 10.5096 7.96997C10.5963 7.96997 10.8814 7.7063 10.9307 7.63403C10.6459 7.50903 10.2963 7.38364 9.92305 7.28442ZM11.7039 8.50864C11.8115 8.30044 11.7451 8.16724 11.5211 7.97544C11.4291 8.08481 11.3291 8.17544 11.2211 8.25864C11.3955 8.34185 11.5547 8.40083 11.7039 8.50864ZM7.95879 8.06802C6.85996 8.20122 5.64395 8.43325 4.60391 8.74185L4.54844 8.75864C4.03223 8.91567 2.08027 9.50786 2.67305 10.3243C2.6791 10.3243 3.04922 9.81372 4.44512 9.40786C5.35742 9.13989 6.29277 8.96958 7.24277 8.79653C8.09609 8.64106 8.96133 8.48325 9.83184 8.25083C9.11563 8.0602 8.71465 7.97544 7.95879 8.06802ZM9.14883 9.07544C8.55801 9.22505 7.12559 9.43325 5.58633 9.76606C5.10313 9.87427 3.7791 10.1821 3.12988 10.7321C3.21426 10.8016 3.28457 10.8461 3.35527 10.8852C3.43789 10.9309 3.52129 10.9692 3.62871 11.0321C3.89512 10.8567 4.26191 10.6903 4.80391 10.5481C5.74277 10.2989 6.45195 10.1915 7.30078 10.0508C8.1416 9.92349 9.73106 9.59067 10.6047 9.27427C10.8102 9.20474 11.0025 9.11802 11.1648 9.01724C11.2336 8.97466 11.2971 8.92974 11.3539 8.88247C11.2955 8.81685 10.7295 8.54224 10.7127 8.56763C10.3643 8.73364 9.86465 8.89966 9.14883 9.07544ZM7.1 10.75C6.46328 10.8555 5.8498 10.9571 5.20234 11.1161C4.91113 11.1899 4.61152 11.2821 4.33789 11.3981C4.61152 11.5399 4.91152 11.6653 5.21074 11.7821C5.80996 11.6071 6.09434 11.5321 6.9584 11.3907C7.2916 11.3313 8.30723 11.1485 9.03945 11C10.3643 10.7157 12.3035 10.0993 11.7875 9.30005C11.7617 9.32192 11.7359 9.34185 11.7102 9.36177C11.6775 9.38755 11.6451 9.41333 11.6127 9.44185C11.2211 9.73989 10.5967 9.98247 9.73984 10.2079C8.7457 10.477 7.9043 10.6165 7.1 10.75ZM3.10039 11.4387C3.12539 11.4196 3.1498 11.4004 3.17188 11.3817C3.06465 11.3262 2.98418 11.2778 2.90234 11.2262L2.78027 11.1481C2.75098 11.2149 2.76055 11.284 2.7916 11.3469C2.83125 11.427 2.90605 11.4973 2.98027 11.5399C3.01621 11.504 3.05898 11.4708 3.10039 11.4387ZM4.52793 12.0231C4.28672 11.9149 4.0291 11.8075 3.7791 11.6907C3.6627 11.7657 3.55508 11.8399 3.47148 11.9149C3.67109 12.0317 3.86309 12.1391 4.06309 12.2489C4.21016 12.1583 4.36582 12.0825 4.52793 12.0231ZM3.55508 12.7981C3.5791 12.7141 3.62148 12.6481 3.67988 12.5649C3.5375 12.4887 3.39629 12.4145 3.25508 12.3223C3.2459 12.4813 3.34668 12.6227 3.55508 12.7981Z" fill="#476BF0"/>
</svg>
