<svg width="80" height="20" viewBox="0 0 80 20" fill="none" xmlns="http://www.w3.org/2000/svg">
<path fill-rule="evenodd" clip-rule="evenodd" d="M4.55498 10.71C7.07616 10.71 9.11002 8.66553 9.11002 6.15497C9.11002 3.63384 7.06554 1.59998 4.55498 1.59998C2.03386 1.59998 0 3.63384 0 6.15497C0 8.66553 2.03386 10.71 4.55498 10.71ZM4.58602 14.3328C7.1072 14.3328 9.14106 13.7819 9.14106 13.104C9.14106 12.426 7.09658 11.8752 4.58602 11.8752C2.0649 11.8752 0.0310378 12.426 0.0310378 13.104C0.0310378 13.7819 2.07549 14.3328 4.58602 14.3328ZM9.14106 16.102C9.14106 16.5045 7.1072 16.8223 4.58602 16.8223C2.07549 16.8223 0.0310378 16.5045 0.0310378 16.102C0.0310378 15.6994 2.0649 15.3817 4.58602 15.3817C7.09658 15.371 9.14106 15.6994 9.14106 16.102ZM4.58602 18.3052C7.1072 18.3052 9.14106 18.2205 9.14106 18.1039C9.14106 17.9874 7.09658 17.8921 4.58602 17.9027C2.0649 17.9027 0.0310378 17.9874 0.0310378 18.1039C0.0310378 18.2099 2.07549 18.3052 4.58602 18.3052Z" fill="#F56E28"/>
<path fill-rule="evenodd" clip-rule="evenodd" d="M33.7698 2.96606C35.613 2.97666 36.9583 4.25841 36.9583 6.11219C36.9583 7.96597 35.613 9.24775 33.7592 9.25833H33.7275C31.8843 9.23712 30.539 7.96597 30.539 6.11219C30.539 4.25841 31.8737 2.98725 33.738 2.96606H33.7698ZM31.9266 6.11219C31.9266 7.29862 32.6787 8.02954 33.7486 8.02954C34.8185 8.02954 35.56 7.29862 35.5706 6.11219C35.56 4.92577 34.8185 4.19486 33.7486 4.19486C32.6681 4.19486 31.9266 4.92577 31.9266 6.11219ZM17.8379 9.1628H19.1514V3.07181H17.9121L15.0307 7.06537V3.07181H13.7172V9.1628H14.9672L17.8379 5.16923V9.1628ZM21.4394 3.07181H20.1153V9.1628H21.4394V6.7158H24.1195V9.1628H25.4542V3.07181H24.1195V5.47643H21.4394V3.07181ZM27.7424 9.1628H26.4183V3.07181H30.5389V4.27942H27.7424V9.1628ZM50.9095 4.3112H48.9602V3.07181H54.1932V4.3112H52.2439V9.1628H50.9095V4.3112ZM57.7208 3.07181H54.9981V9.15222H56.3329V7.33022H57.5934C58.9494 7.33022 60.0406 6.59929 60.0406 5.19042C60.0406 3.92985 59.1614 3.07181 57.7208 3.07181ZM58.695 5.20101C58.695 5.74124 58.3033 6.14379 57.6358 6.14379H56.3329V4.27942H57.6146C58.2822 4.27942 58.695 4.59721 58.695 5.20101ZM71.9999 9.1628L69.839 6.03786L71.9152 3.07181H70.3792L69.0763 4.93619L67.7947 3.07181H66.2163L68.2926 6.06965L66.1316 9.1628H67.6673L69.0552 7.1713L70.4215 9.1628H71.9999ZM65.9831 9.16274H64.6271L64.0658 7.76446H61.4916L60.9198 9.16274H59.5639L62.1592 3.02939H63.3878L65.9831 9.16274ZM62.7733 4.66071L61.9683 6.56746H63.5786L62.7733 4.66071ZM40.7402 8.02954C39.6701 8.02954 38.9181 7.29862 38.9181 6.11219C38.9181 4.92577 39.6596 4.19486 40.7402 4.19486C41.3016 4.19486 41.7676 4.35375 42.1597 4.69273L42.9858 3.86647C42.4244 3.32623 41.6721 2.97666 40.7614 2.96606H40.7294C38.8651 2.98725 37.5304 4.25841 37.5304 6.11219C37.5304 7.96597 38.8757 9.23712 40.719 9.25833H40.7506C41.6617 9.24775 42.4136 8.89818 42.975 8.35791L42.1489 7.53168C41.7568 7.87063 41.3016 8.02954 40.7402 8.02954ZM44.4795 6.11219C44.4795 7.29862 45.2313 8.02954 46.3014 8.02954C46.8628 8.02954 47.3287 7.87063 47.7208 7.53168L48.5469 8.35791C47.9856 8.89818 47.2337 9.24775 46.3225 9.25833H46.2906C44.4475 9.23712 43.1023 7.96597 43.1023 6.11219C43.1023 4.25841 44.4371 2.98725 46.2906 2.96606H46.3225C47.2337 2.97666 47.9856 3.32623 48.5469 3.86647L47.7208 4.69273C47.3287 4.35375 46.8628 4.19486 46.3014 4.19486C45.2209 4.19486 44.4795 4.92577 44.4795 6.11219ZM18.0179 12.9235H14.4905V14.6607H16.2807C17.7213 14.6607 18.4628 15.2857 18.4628 16.3874C18.4628 17.6586 17.5518 18.2306 16.0476 18.2306H13.7065V12.1926H18.0179V12.9235ZM14.501 15.3916V17.4891H16.1218C17.1175 17.4891 17.6683 17.1501 17.6683 16.3874C17.6683 15.72 17.1917 15.3916 16.1747 15.3916H14.501ZM22.0328 12.1714H21.4078L18.7702 18.22H19.5752L20.2426 16.6946H23.198L23.8654 18.22H24.6811L22.0328 12.1714ZM22.0752 14.0993L22.9014 16.0061H20.5286L21.3548 14.0993L21.715 13.1777L22.0752 14.0993ZM29.7126 15.5188H26.1216V18.22H25.3271V12.182H26.1216V14.7879H29.7126V12.182H30.4965V18.22H29.7126V15.5188ZM32.7211 12.182H31.9266V18.22H32.7211V15.9001L33.2295 15.434L35.952 18.22H37.0006L33.9711 15.0527L36.7888 12.182H35.7718L32.7211 15.2328V12.182Z" fill="#0047BB"/>
</svg>
