<svg width="80" height="20" viewBox="0 0 80 20" fill="none" xmlns="http://www.w3.org/2000/svg">
<path fill-rule="evenodd" clip-rule="evenodd" d="M10.5489 5.36906C9.97955 5.93393 9.26533 6.21648 8.4067 6.21648C7.55009 6.21648 6.83833 5.9364 6.27346 5.37377C5.70859 4.81114 5.42604 4.12226 5.42604 3.30937C5.42604 2.50119 5.71083 1.81232 6.28266 1.24744C6.85201 0.682572 7.56623 0.400024 8.42486 0.400024C9.28148 0.400024 9.99323 0.680106 10.5581 1.24273C11.123 1.80536 11.4055 2.49424 11.4055 3.30713C11.4055 4.11777 11.1207 4.80418 10.5489 5.36906ZM8.16676 5.05848C8.24995 5.06969 8.33606 5.0753 8.42486 5.0753C8.91865 5.0753 9.32274 4.90532 9.63735 4.56536C9.95421 4.22563 10.1105 3.8054 10.1105 3.30713C10.1105 3.07571 10.0751 2.86088 10.0044 2.66287C9.92439 2.43841 9.79903 2.23524 9.62816 2.05338C9.30682 1.71118 8.90026 1.53896 8.4067 1.53896C7.91291 1.53896 7.50882 1.70894 7.19421 2.04867C6.87735 2.38862 6.72105 2.80886 6.72105 3.30713C6.72105 3.80069 6.88184 4.21868 7.2034 4.56088C7.3985 4.76853 7.62476 4.91362 7.88286 4.99547C7.97346 5.02417 8.06809 5.04525 8.16676 5.05848ZM0 6.12005V0.494207H1.2376V2.71938H3.52019V0.494207H4.75779V6.12005H3.52019V3.86281H1.2376V6.12005H0ZM12.1242 0.494207V6.11557H14.797C15.4516 6.11557 15.966 5.98461 16.3402 5.72269C16.7145 5.461 16.9026 5.07754 16.9026 4.57456C16.9026 4.20949 16.8154 3.91797 16.6387 3.70202C16.5192 3.55649 16.3611 3.42845 16.1638 3.31969C16.1254 3.29861 16.0855 3.2782 16.0442 3.25847C15.9832 3.22954 15.9189 3.20196 15.8512 3.17617C16.3447 2.89833 16.5905 2.49424 16.5905 1.96391C16.5905 1.5735 16.4618 1.24969 16.2046 0.992478C16.166 0.953684 16.1254 0.917356 16.0828 0.883271C16.0566 0.862192 16.0294 0.84201 16.0014 0.822725C15.896 0.749846 15.7787 0.689075 15.65 0.640414C15.3915 0.542868 15.0863 0.494207 14.7351 0.494207H12.1242ZM14.4709 2.76984H13.3298V1.58045H14.5514C14.8131 1.58045 15.0129 1.6309 15.1531 1.72957C15.293 1.82824 15.3619 1.97063 15.3619 2.159C15.3619 2.56533 15.0656 2.76984 14.4709 2.76984ZM14.7995 5.03628H13.3298H13.3275V3.79845H14.758C15.3688 3.79845 15.6742 4.00296 15.6742 4.40929C15.6742 4.82728 15.3827 5.03628 14.7995 5.03628ZM22.3978 6.12229H21.1763V2.43459L18.717 6.12229H17.5527V0.49645H18.7744V4.18662L21.2474 0.49645H22.3978V6.12229ZM0 7.35317V12.979H1.24007V11.2591L1.88993 10.5841L3.635 12.9768H5.12062L2.72569 9.73891L5.015 7.35317H3.52019L1.2376 9.81246V7.35317H0ZM10.0024 12.228C9.43307 12.7929 8.71885 13.0754 7.86022 13.0754C7.0036 13.0754 6.29185 12.7954 5.72698 12.2327C5.16211 11.6701 4.87956 10.9812 4.87956 10.1683C4.87956 9.36016 5.16435 8.67128 5.73617 8.10641C6.30553 7.54154 7.01975 7.25899 7.87838 7.25899C8.73499 7.25899 9.44674 7.53907 10.0116 8.1017C10.5765 8.66433 10.859 9.35321 10.859 10.1661C10.859 10.9743 10.5742 11.6631 10.0024 12.228ZM6.65468 11.4198C6.97602 11.762 7.38257 11.9343 7.87614 11.9343C8.36992 11.9343 8.77401 11.7643 9.08863 11.4243C9.40548 11.0846 9.56156 10.6644 9.56156 10.1661C9.56156 9.67231 9.401 9.25454 9.07943 8.91234C8.75787 8.57015 8.35153 8.39793 7.85775 8.39793C7.36419 8.39793 6.95987 8.5679 6.64548 8.90763C6.3284 9.24759 6.17233 9.66782 6.17233 10.1661C6.17457 10.6597 6.33535 11.0776 6.65468 11.4198ZM12.8658 7.35317H11.5318V12.979H12.7443V9.33033L14.3149 11.7091H14.3469L15.9292 9.30724V12.979H17.1576V7.35317H15.8236L14.3447 9.73218L12.8658 7.35317ZM1.2376 15.3486V16.329H2.72345C3.03066 16.329 3.30424 16.3665 3.54396 16.4418C3.71865 16.4965 3.87517 16.5716 4.01375 16.6667C4.07295 16.7073 4.12879 16.7517 4.18149 16.7997C4.52817 17.1121 4.70039 17.5368 4.70039 18.0743C4.70039 18.6414 4.51449 19.0823 4.14695 19.3922C3.7774 19.7023 3.26298 19.8584 2.60393 19.8584H0V14.2325H4.31469V15.3486H1.2376ZM2.59697 17.3578H1.24007V18.7401H2.60617C3.18023 18.7401 3.46502 18.5013 3.46502 18.0259C3.46502 17.5805 3.17575 17.3578 2.59697 17.3578ZM7.29983 14.1913L4.88875 19.8561H6.14945L6.66387 18.5954H9.0449L9.55932 19.8561H10.8521L8.44101 14.1913H7.29983ZM8.59955 17.5025H7.10474L7.85326 15.6794L8.59955 17.5025ZM11.5318 19.8561V14.2303H12.7694V16.4555H15.052V14.2303H16.2896V19.8561H15.052V17.5989H12.7694V19.8561H11.5318ZM17.2794 14.2303V19.8539H18.5217V18.1339L19.1716 17.4587L20.9144 19.8539H22.4L20.0051 16.616L22.2944 14.2303H20.7996L18.517 16.6896V14.2303H17.2794Z" fill="#005BAA"/>
</svg>
