<svg width="80" height="20" viewBox="0 0 80 20" fill="none" xmlns="http://www.w3.org/2000/svg">
<g clip-path="url(#clip0_2739_11176)">
<path d="M0.63916 12.6673L2.05479 13.7767C2.40166 12.5001 3.38135 11.4892 4.6501 11.1126V8.55635C3.45166 8.19072 2.5001 7.25947 2.10479 6.06104L0.717285 6.90322C1.57979 7.55635 2.13447 8.58604 2.13447 9.75478C2.13447 10.9548 1.53916 12.0142 0.63916 12.6673Z" fill="#114B8D"/>
<path d="M12.0173 7.15947L10.6017 6.06104C10.2548 7.33916 9.2751 8.34854 8.00635 8.7251V11.2907C9.20479 11.6579 10.1657 12.5892 10.5517 13.7876L11.9392 12.936C11.0767 12.2813 10.522 11.2517 10.522 10.0829C10.522 8.87354 11.1173 7.80479 12.0173 7.15947Z" fill="#114B8D"/>
<path d="M9.08584 15.6L10.1858 14.1828C8.90771 13.8375 7.89834 12.8563 7.52178 11.5875H4.96709C4.5999 12.786 3.66865 13.7469 2.47021 14.1344L3.32178 15.5203C3.97646 14.6688 5.00615 14.1047 6.1749 14.1047C7.37334 14.1047 8.43271 14.6985 9.08584 15.6Z" fill="#E11D37"/>
<path d="M3.57021 4.21729L2.47021 5.63447C3.74834 5.98135 4.75771 6.9626 5.13428 8.22978H7.69053C8.05615 7.02197 8.9874 6.07041 10.1858 5.68447L9.34365 4.29697C8.69053 5.15947 7.6499 5.71416 6.49209 5.71416C5.28271 5.71416 4.22334 5.11885 3.57021 4.21729Z" fill="#E11D37"/>
<path d="M6.32363 11.3906L5.03613 9.91406H7.62051L6.32363 11.3906Z" fill="#E11D37"/>
<path d="M6.32363 8.4375L7.62051 9.91406H5.03613L6.32363 8.4375Z" fill="#114B8D"/>
<path d="M23.1686 15.3126H23.4857V7.98291C23.4857 7.51729 23.5154 7.15947 23.5654 6.93291C23.6139 6.70479 23.7139 6.51572 23.8623 6.36729C24.1201 6.1001 24.4857 5.96104 24.9514 5.96104V5.80322H21.742V5.96104C22.0107 5.98135 22.2186 6.01104 22.3857 6.07041C22.5545 6.12979 22.7029 6.22822 22.8326 6.36729C22.9701 6.51572 23.0701 6.70479 23.1295 6.93291C23.1795 7.15947 23.2092 7.50635 23.2092 7.99229V13.0251L17.5529 5.80322H14.8701V5.96104C15.1373 5.98135 15.3545 6.01104 15.5232 6.07041C15.692 6.12979 15.8311 6.22822 15.9592 6.36729C16.1076 6.51572 16.1967 6.70479 16.2561 6.93291C16.3154 7.15947 16.3357 7.50635 16.3357 7.98291V13.1235C16.3357 13.5985 16.3061 13.9454 16.2561 14.1829C16.2061 14.411 16.1076 14.6001 15.9592 14.7485C15.8311 14.8876 15.6811 14.9767 15.5139 15.0454C15.3451 15.1048 15.1373 15.1438 14.8701 15.1548V15.3126H18.0779V15.1548C17.8107 15.1438 17.5936 15.1048 17.4342 15.0454C17.267 14.986 17.1186 14.8876 16.9889 14.7485C16.8404 14.6001 16.742 14.411 16.692 14.1829C16.642 13.9563 16.6123 13.5985 16.6123 13.1235V7.06104L23.1686 15.3126Z" fill="#E11D37"/>
<path d="M33.8843 15.036C33.7749 14.9766 33.6671 14.8766 33.5483 14.7376C33.3999 14.5594 33.2202 14.2719 33.0124 13.886C32.8046 13.4907 32.4874 12.8766 32.0718 12.0235C31.8937 11.6469 31.7655 11.3907 31.6765 11.2516C31.5874 11.1032 31.4874 10.9844 31.3796 10.8844C31.2405 10.7563 31.0421 10.6376 30.7546 10.5188C31.0921 10.4485 31.3593 10.3704 31.5671 10.2798C31.7749 10.2016 31.953 10.0923 32.1218 9.96414C32.6671 9.5282 32.9437 8.94382 32.9437 8.22039C32.9437 7.73445 32.8155 7.30945 32.5671 6.93289C32.3202 6.5657 31.953 6.28914 31.4983 6.10007C31.0921 5.94226 30.5265 5.84226 29.8046 5.8032C29.6265 5.8032 29.2593 5.79382 28.6952 5.79382H25.3483V5.95164C25.6155 5.97195 25.8327 6.00164 25.9921 6.06101C26.1593 6.12039 26.3077 6.21882 26.4265 6.35789C26.5765 6.50632 26.6749 6.69382 26.7249 6.92195C26.7733 7.15007 26.803 7.49695 26.803 7.98289V13.1235C26.803 13.5985 26.7733 13.9563 26.7249 14.1829C26.6749 14.411 26.5765 14.6001 26.4265 14.7485C26.2983 14.8766 26.1593 14.9766 25.9921 15.036C25.8233 15.0954 25.6046 15.1344 25.3374 15.1548V15.3126H29.7843V15.1548C29.5171 15.1438 29.2999 15.1048 29.1312 15.036C28.9624 14.9766 28.8233 14.8766 28.6952 14.7485C28.5468 14.6001 28.4468 14.411 28.3983 14.1829C28.339 13.9563 28.3187 13.5985 28.3187 13.1235V10.6563H28.6562C28.864 10.6563 29.0421 10.6766 29.1796 10.7157C29.3187 10.7563 29.4577 10.8251 29.5858 10.9141C29.8343 11.1032 30.1015 11.4501 30.3983 11.9548C30.6952 12.4594 30.9921 13.0548 31.2796 13.7173L31.7655 14.8266C31.7952 14.8969 31.8733 15.0657 31.9937 15.3126H34.3108V15.1548C34.1421 15.1344 33.9937 15.0954 33.8843 15.036ZM29.8343 10.4001C29.5858 10.4688 29.1702 10.4985 28.5968 10.4985H28.328V6.01101H28.6155C29.1108 6.01101 29.4968 6.0407 29.764 6.10945C30.0327 6.16882 30.2702 6.2782 30.4577 6.43757C30.7062 6.64539 30.903 6.91257 31.0421 7.23914C31.1812 7.5657 31.2608 7.9032 31.2608 8.26882C31.2608 8.9532 31.0124 9.53757 30.5265 10.0032C30.3187 10.2016 30.0812 10.3407 29.8343 10.4001Z" fill="#E11D37"/>
<path d="M42.6783 11.6282C42.5111 11.2704 42.283 10.9642 41.9861 10.7267C41.7877 10.5673 41.5596 10.4485 41.3127 10.3595C41.0643 10.2704 40.7189 10.1907 40.2721 10.1126C40.5986 9.99385 40.8471 9.89385 41.0158 9.79541C41.183 9.69541 41.3424 9.57666 41.4705 9.43916C41.8471 9.05166 42.0361 8.54697 42.0361 7.94229C42.0361 7.56572 41.9564 7.22979 41.7877 6.92197C41.6189 6.6251 41.3924 6.37822 41.0846 6.18916C40.7377 5.98135 40.2924 5.85322 39.7674 5.8126C39.6283 5.80322 39.3221 5.80322 38.8564 5.80322H34.2814V5.96104C34.5486 5.98135 34.7564 6.01104 34.9252 6.07041C35.0924 6.12979 35.2408 6.22822 35.3611 6.36729C35.5096 6.51572 35.608 6.70479 35.658 6.93291C35.7064 7.15947 35.7361 7.50635 35.7361 7.99229V13.1235C35.7361 13.5985 35.7064 13.9563 35.658 14.1829C35.608 14.411 35.5096 14.6001 35.3611 14.7485C35.2314 14.8767 35.0924 14.9767 34.9252 15.036C34.7564 15.0954 34.5377 15.1345 34.2705 15.1548V15.3126H39.3611C40.0455 15.3126 40.5799 15.2735 40.9564 15.2032C41.3314 15.1345 41.6596 14.9954 41.9361 14.8079C42.233 14.5892 42.4705 14.3126 42.6393 13.9563C42.808 13.6095 42.8971 13.222 42.8971 12.797C42.9268 12.3813 42.8471 11.9845 42.6783 11.6282ZM37.2814 6.01104H37.9252C38.4205 6.01104 38.7971 6.04072 39.0346 6.09072C39.2814 6.1501 39.4908 6.24854 39.6877 6.40791C39.9064 6.58604 40.0846 6.83291 40.2127 7.1501C40.3424 7.46729 40.4111 7.80479 40.4111 8.16104C40.4111 8.49697 40.3518 8.80479 40.2236 9.07197C40.0939 9.3501 39.9158 9.57666 39.6783 9.75478C39.5502 9.84541 39.4111 9.91416 39.2627 9.96416C39.1143 10.0126 38.9158 10.0626 38.6689 10.1017C38.3814 10.1423 38.1143 10.161 37.8455 10.161H37.2814V6.01104ZM40.5893 14.4813C40.1533 14.8876 39.5596 15.0954 38.8174 15.0954C38.2424 15.0954 37.8361 14.936 37.5986 14.6298C37.4893 14.4813 37.4111 14.3017 37.3611 14.0845C37.3111 13.8673 37.2908 13.5892 37.2908 13.2423V10.3704H38.5393C39.4314 10.3704 40.0846 10.5376 40.5096 10.8845C40.7377 11.0735 40.9158 11.3407 41.0549 11.6876C41.1939 12.0345 41.2533 12.411 41.2533 12.8157C41.2424 13.5095 41.0252 14.0751 40.5893 14.4813Z" fill="#E11D37"/>
<path d="M73.4299 4L71.1127 4.2875V4.46562C71.3502 4.48594 71.5377 4.525 71.6658 4.58438C71.7955 4.65312 71.9049 4.75312 71.9939 4.91094C72.083 5.05 72.1424 5.2375 72.1721 5.45625C72.2018 5.68438 72.2111 6.07031 72.2111 6.61562V12.925C72.2111 13.4016 72.2018 13.7578 72.1721 14.0047C72.1424 14.2531 72.1018 14.4406 72.0424 14.5703C71.9533 14.7578 71.8455 14.8875 71.7064 14.9656C71.5674 15.0453 71.3393 15.1047 71.0127 15.1438V15.3125H74.5689V15.1438C74.1627 15.0656 73.8846 14.9563 73.7361 14.8172C73.608 14.7078 73.5283 14.5594 73.4783 14.3922C73.4393 14.2234 73.4189 13.9563 73.4189 13.5891L73.4096 12.975V12.3906L73.9049 11.8563L75.8564 14.0156L76.0236 14.2125C76.183 14.3813 76.2518 14.55 76.2518 14.6984C76.2518 14.8375 76.1924 14.9563 76.0643 15.0359C75.9752 15.0953 75.8158 15.125 75.5877 15.1438V15.3125H79.3611V15.1438C79.0346 15.1141 78.7768 15.0547 78.5689 14.9469C78.3908 14.8469 78.2424 14.7484 78.1143 14.6391C77.9846 14.5297 77.7768 14.3313 77.4893 14.0453L77.133 13.6687C77.0736 13.6188 76.9643 13.4906 76.7971 13.3109L74.7174 10.9734L75.5877 10.0328L75.9158 9.66562C76.3018 9.24062 76.6189 8.97344 76.8564 8.83438C77.0939 8.70469 77.4111 8.63594 77.8064 8.63594V8.46719H74.7064V8.64531C74.9846 8.66563 75.183 8.69531 75.2814 8.73438C75.5189 8.825 75.6377 8.98281 75.6377 9.21094C75.6377 9.37969 75.5877 9.5375 75.4893 9.70625C75.3799 9.875 75.183 10.1219 74.8846 10.4594L73.4189 12.0641V4" fill="#114B8D"/>
<path d="M55.197 11.6078C55.0282 11.2516 54.8001 10.9547 54.5032 10.7063C54.3063 10.5484 54.0876 10.4297 53.8407 10.3406C53.5923 10.25 53.2563 10.1719 52.811 10.1016C53.1376 9.98281 53.3845 9.88438 53.5532 9.78438C53.722 9.68594 53.8704 9.56719 54.0079 9.42812C54.3845 9.04219 54.5735 8.54688 54.5735 7.94219C54.5735 7.56562 54.4938 7.22969 54.3251 6.93281C54.1563 6.63438 53.9298 6.3875 53.6329 6.20938C53.286 6.00156 52.8501 5.88281 52.3251 5.83281C52.186 5.82344 51.8798 5.8125 51.4142 5.8125H46.8579V5.97188C47.1251 5.98125 47.3329 6.02031 47.5017 6.07969C47.6704 6.13906 47.8188 6.23906 47.9376 6.36719C48.086 6.51562 48.186 6.70469 48.2345 6.93281C48.2845 7.15938 48.3142 7.50625 48.3142 7.98281V13.0938C48.3142 13.5687 48.2845 13.9266 48.2345 14.1438C48.186 14.3719 48.086 14.5594 47.9376 14.7078C47.8095 14.8375 47.6704 14.9359 47.5017 14.9953C47.3438 15.0547 47.1251 15.0953 46.8579 15.1141V15.2734H51.9188C52.6017 15.2734 53.1376 15.2328 53.5142 15.1641C53.8892 15.0844 54.2173 14.9563 54.4845 14.7672C54.7813 14.5594 55.0188 14.2719 55.1876 13.9266C55.3548 13.5797 55.4345 13.1922 55.4345 12.7672C55.4438 12.3516 55.3548 11.9641 55.197 11.6078ZM49.8298 6.02031H50.4735C50.9688 6.02031 51.3345 6.04062 51.5829 6.1C51.8298 6.15938 52.0376 6.25781 52.2267 6.40781C52.4438 6.58594 52.622 6.83281 52.7501 7.14062C52.8798 7.45781 52.9485 7.79375 52.9485 8.14062C52.9485 8.47812 52.8798 8.775 52.761 9.05156C52.6313 9.32969 52.4532 9.55781 52.2157 9.725C52.0876 9.81562 51.9485 9.88438 51.8001 9.93438C51.6517 9.98281 51.4532 10.0328 51.2063 10.0625C50.9282 10.1016 50.6517 10.1125 50.3845 10.1125H49.8188V6.02031H49.8298ZM53.1173 14.4406C52.6813 14.8469 52.097 15.0547 51.3548 15.0547C50.7798 15.0547 50.3735 14.8969 50.136 14.5891C50.0267 14.4406 49.9485 14.2625 49.8985 14.0547C49.8485 13.8469 49.8298 13.5594 49.8298 13.2125V10.3594H51.0673C51.9485 10.3594 52.6017 10.5281 53.0188 10.875C53.2454 11.0625 53.4235 11.3203 53.5532 11.6672C53.6923 12.0141 53.7517 12.3812 53.7517 12.7859C53.761 13.4797 53.5532 14.0344 53.1173 14.4406Z" fill="#114B8D"/>
<path d="M62.9814 14.5204C62.8518 14.6985 62.7439 14.8172 62.6439 14.8766C62.5455 14.936 62.4174 14.9657 62.2486 14.9657C61.9018 14.9657 61.6846 14.7782 61.5846 14.3922C61.5455 14.2125 61.5158 13.8672 61.5158 13.361V10.3797C61.5158 10.0032 61.4955 9.72505 61.4564 9.56724C61.3674 9.25005 61.1486 8.99224 60.8018 8.79536C60.5643 8.6563 60.258 8.54692 59.9018 8.46724C59.5439 8.37817 59.1986 8.33911 58.8611 8.33911C58.5643 8.33911 58.2674 8.3688 57.9502 8.42817C57.6439 8.48755 57.3861 8.56724 57.1674 8.66567C56.7814 8.85474 56.5939 9.0813 56.5939 9.35942C56.5939 9.54692 56.6533 9.69536 56.7814 9.81567C56.9002 9.93442 57.0596 9.9938 57.2377 9.9938C57.5143 9.9938 57.7127 9.86411 57.8221 9.61724L58.0189 9.15161C58.108 8.95317 58.2377 8.79536 58.4064 8.68599C58.5846 8.57661 58.7721 8.51724 59.0002 8.51724C59.1783 8.51724 59.3564 8.5563 59.5252 8.63599C59.6939 8.71567 59.8314 8.82505 59.9408 8.96255C60.1783 9.25005 60.2971 9.71567 60.2971 10.3407C60.2971 10.6375 60.2674 10.8657 60.208 11.0329C60.1393 11.2016 60.0205 11.3407 59.8518 11.4688C59.7033 11.5782 59.5143 11.6766 59.2877 11.7563C59.0596 11.836 58.7221 11.9344 58.2471 12.0532C57.8518 12.1532 57.5439 12.261 57.3361 12.361C57.1283 12.4594 56.9408 12.5985 56.7814 12.7563C56.4939 13.0547 56.3564 13.4313 56.3564 13.8766C56.3564 14.3625 56.5236 14.7375 56.8814 15.025C57.2268 15.3125 57.6924 15.4516 58.2877 15.4516C58.7518 15.4516 59.158 15.3532 59.5049 15.1641C59.6939 15.0657 59.9611 14.8469 60.3174 14.5297C60.4955 14.8375 60.6643 15.0547 60.8314 15.1735C61.0893 15.3625 61.4064 15.461 61.783 15.461C62.4768 15.461 62.9221 15.1735 63.1096 14.6188L62.9814 14.5204ZM60.3174 12.6969C60.3174 13.3813 60.2377 13.8969 60.0689 14.2625C59.9502 14.5407 59.7721 14.7579 59.5439 14.9172C59.3174 15.0844 59.0689 15.1641 58.8018 15.1641C58.5049 15.1641 58.258 15.0547 58.0596 14.8172C57.8611 14.5891 57.7721 14.2922 57.7721 13.936C57.7721 13.5204 57.9002 13.1625 58.1486 12.8469C58.2768 12.6969 58.4064 12.5688 58.5549 12.4594C58.7033 12.3516 58.9799 12.1922 59.3658 11.9844C59.7127 11.7954 60.0299 11.5875 60.3268 11.35V12.6969H60.3174Z" fill="#114B8D"/>
<path d="M62.8421 8.62661V8.79536C63.0796 8.81411 63.2687 8.85474 63.3968 8.92349C63.5249 8.99224 63.6343 9.10161 63.7233 9.25005C63.8124 9.38911 63.8718 9.56724 63.9015 9.78442C63.9312 10.0125 63.9421 10.3891 63.9421 10.9438V12.925C63.9421 13.4016 63.9312 13.7579 63.9015 14.0047C63.8827 14.2532 63.8327 14.4407 63.7733 14.5594C63.6843 14.7485 63.5749 14.8766 63.4358 14.9563C63.2983 15.036 63.0702 15.0954 62.7437 15.1344V15.3032H66.2983V15.1344C65.8921 15.0657 65.6249 14.9469 65.4671 14.8079C65.3374 14.6985 65.2593 14.55 65.2187 14.3813C65.1796 14.2125 65.1593 13.9454 65.1593 13.5797L65.1499 12.9844V11.4094C65.1499 10.775 65.1796 10.3297 65.2296 10.0625C65.278 9.79536 65.3874 9.54692 65.5452 9.33911C65.6952 9.1313 65.903 8.97349 66.1593 8.85474C66.4171 8.73442 66.6952 8.67505 67.0015 8.67505C67.2796 8.67505 67.5358 8.72505 67.764 8.83442C67.9921 8.9438 68.1702 9.0813 68.289 9.27036C68.3983 9.43911 68.478 9.6563 68.5171 9.93442C68.5562 10.211 68.5765 10.6375 68.5765 11.2219V12.925C68.5765 13.3907 68.5671 13.7469 68.5374 13.9954C68.5171 14.2422 68.4671 14.4313 68.4077 14.5594C68.3187 14.7485 68.2093 14.8766 68.0718 14.9563C67.9327 15.036 67.7046 15.0954 67.378 15.1344V15.3032H70.9327V15.1344C70.528 15.0657 70.2499 14.9469 70.1015 14.8079C69.9827 14.6985 69.8937 14.55 69.8546 14.3813C69.814 14.2125 69.7843 13.9454 69.7843 13.5797V10.1719C69.7843 9.58755 69.5765 9.1313 69.1702 8.82505C68.7546 8.50786 68.1999 8.33911 67.5062 8.33911C66.5858 8.33911 65.803 8.67505 65.1296 9.33911V9.21099C65.1296 8.9438 65.0905 8.64536 65.0218 8.33911L62.8421 8.62661Z" fill="#114B8D"/>
</g>
<defs>
<clipPath id="clip0_2739_11176">
<rect width="80" height="11.6" fill="white" transform="translate(0 4)"/>
</clipPath>
</defs>
</svg>
