<svg width="80" height="20" viewBox="0 0 80 20" fill="none" xmlns="http://www.w3.org/2000/svg">
<path fill-rule="evenodd" clip-rule="evenodd" d="M0 10.187C0 6.55214 3.00436 3.60428 6.71184 3.59998V5.9802C4.34411 5.98342 2.42769 7.86589 2.42769 10.187C2.42769 12.5081 4.34955 14.3959 6.72165 14.3959C9.09376 14.3959 11.0135 12.5296 11.0135 10.1719L13.4422 10.1741C13.4422 13.8261 10.4346 16.7761 6.72165 16.7761C3.00872 16.7761 0 13.825 0 10.187ZM3.7553 10.1869C3.7553 8.57319 5.09178 7.26484 6.73675 7.26484C8.38176 7.26484 9.71933 8.57319 9.71933 10.1869C9.71933 11.8006 8.38282 13.1089 6.73675 13.1089C5.09067 13.1089 3.7553 11.8017 3.7553 10.1869ZM10.5129 4.81066C9.56992 4.81066 8.80466 5.55999 8.80466 6.48564C8.80466 7.4102 9.56886 8.16167 10.5129 8.16167C11.4569 8.16167 12.2222 7.41128 12.2222 6.48564C12.2222 5.55999 11.4558 4.81066 10.5129 4.81066Z" fill="white"/>
<path fill-rule="evenodd" clip-rule="evenodd" d="M46.4562 11.4554C46.1642 12.5757 45.3529 14.5119 42.8598 14.5119C41.095 14.5119 40.1269 13.6142 40.1269 11.8467C40.1269 11.5278 40.167 11.2124 40.212 10.8975C40.6916 7.96681 41.9878 5.18988 44.8318 5.16193C45.2101 5.15762 45.9797 5.11892 46.5021 4.99744L46.3121 6.1682C45.7859 6.30043 44.9517 6.36924 44.4646 6.37246C43.8607 6.37891 43.4429 6.60361 43.153 6.87667C42.923 7.09319 42.7596 7.35931 42.618 7.6389C42.9983 7.5228 43.4136 7.44969 43.8815 7.44969C46.2586 7.44969 46.9748 9.4677 46.4562 11.4543V11.4554ZM45.0762 11.0501C45.3353 9.99773 45.3443 8.39899 43.8815 8.39899C41.7992 8.39899 41.5321 11.5704 41.5321 12.051C41.5321 13.0917 42.1687 13.5475 42.8862 13.5475C44.3052 13.5475 44.8352 12.1177 45.0749 11.0501H45.0762ZM60.7781 10.4955L60.7774 10.4985L60.7771 10.4997L60.777 10.5001L60.7769 10.5006L60.7767 10.5014C60.495 11.7408 60.3136 12.5395 59.9933 14.1799L59.8998 14.2573L58.5556 14.296L58.4901 14.2057L59.032 11.9792L59.1901 11.2493C58.6121 11.2363 58.0345 11.2267 57.4569 11.2267C57.0056 11.2267 56.6622 11.232 56.3111 11.2417C56.1126 12.1179 55.9482 12.8877 55.694 14.1788L55.6001 14.2562L54.2541 14.2949L54.1887 14.2046L54.943 11.0084C55.2983 9.48074 55.3646 9.14532 55.5763 7.73481L55.6702 7.64451C56.2882 7.5671 56.4344 7.54022 57.0664 7.41122L57.1352 7.50152L56.9924 8.14334L56.7875 9.14209L56.5725 10.0881C57.0578 10.1 57.5428 10.1075 58.0311 10.1075C58.5062 10.1075 58.9811 10.096 59.4561 10.0871C59.6414 9.25927 59.7167 8.80774 59.879 7.73481L59.9717 7.64451C60.5917 7.5671 60.7371 7.54022 61.3712 7.41122L61.4366 7.50152C61.2181 8.4985 61.0049 9.49737 60.7781 10.4955ZM63.5676 10.2557L63.5655 10.2568L64.166 7.50456L64.1005 7.41425C63.466 7.54326 63.3224 7.57014 62.701 7.64755L62.6084 7.73786C62.3967 9.14839 62.3304 9.4838 61.9747 11.0115L61.2229 14.2077L61.2879 14.298L62.6356 14.2593L62.7269 14.1819C63.0542 12.5166 63.2327 11.7146 63.5238 10.4417C64.1513 11.6872 64.8099 12.9247 65.3585 14.2077L65.4644 14.2851L66.9306 14.2453L67.0088 14.1432L64.9616 10.3245L66.6799 8.77209C67.1152 8.39136 67.5662 8.02869 67.9999 7.64647L67.9617 7.53036H66.4423L66.2961 7.6067C65.4234 8.52098 64.5318 9.43613 63.5676 10.2557ZM54.4207 7.55406L54.4206 7.55376L54.4207 7.55298V7.55406ZM54.4206 7.55376L54.3553 7.44977L52.524 7.43795C51.3033 7.43795 49.5927 7.51428 48.3589 8.93125C47.8018 9.57844 47.2981 10.6944 47.2981 11.7189C47.2981 13.3401 48.4002 14.2754 49.7521 14.2754C50.4689 14.2754 51.131 14.0615 51.6893 13.6143L51.5966 14.1325L51.6616 14.2249L52.9077 14.198L53.0025 14.1067C53.2664 12.5607 53.3612 12.0694 53.8245 10.0708L54.4206 7.55376ZM51.8865 12.6155C51.7415 12.7295 51.5953 12.8617 51.4491 12.9499C51.1049 13.1584 50.6535 13.2498 50.2961 13.2498C49.0882 13.2498 48.7436 12.2511 48.7436 11.6286C48.7436 11.5652 48.7699 9.89018 50.1618 8.95811C50.9455 8.43884 51.8078 8.41304 52.2452 8.41304C52.4445 8.41304 52.6417 8.42486 52.8414 8.42486L51.8852 12.6155H51.8865ZM21.7205 10.677C21.4142 12.0058 20.9411 13.0379 19.9316 13.0379H19.9305C18.7958 13.0379 18.8611 11.9112 19.1468 10.677C19.4531 9.34715 19.9131 8.371 20.952 8.371C22.1707 8.371 21.9375 9.74172 21.7205 10.677ZM16.7027 10.7727C15.9516 14.028 18.0228 14.4753 19.4607 14.4753C21.7587 14.4753 23.4745 13.4572 24.109 10.705L24.1105 10.698C24.3244 9.71467 24.9236 6.96047 21.388 6.96047C17.844 6.96047 16.9829 9.55034 16.7027 10.7727ZM27.8846 14.3129C27.2185 14.3129 26.1262 14.3129 25.6673 14.3259L25.5888 14.2452C25.7164 13.8109 26.0281 12.6434 26.3552 11.2189C26.5572 10.343 26.7739 9.46899 26.9482 8.58709C26.3911 8.60001 25.5332 8.60001 25.1157 8.61395L25.0394 8.51934C25.1495 8.16674 25.3043 7.55715 25.4013 7.19164L25.5289 7.12176C25.8995 7.13466 27.3079 7.14864 28.4416 7.14864C29.813 7.14864 31.1473 7.12176 31.4275 7.10779L31.5223 7.17766C31.4205 7.49928 31.2422 8.15857 31.1501 8.49913L31.1484 8.5054L31.0176 8.58709C30.4693 8.57527 30.0528 8.57527 29.2626 8.57527C29.2432 8.6585 29.2123 8.78724 29.1701 8.96377L29.17 8.96419L29.1699 8.96436C29.062 9.4149 28.8797 10.1764 28.6237 11.2866C28.3555 12.4552 28.1342 13.5249 28.0067 14.2033L27.8857 14.3129H27.8846ZM35.5757 8.75047L35.5746 8.74941C35.9899 8.74941 36.4838 8.76339 36.7061 8.76339C36.6113 9.17084 36.3715 10.2696 36.1349 11.3006C35.821 12.6584 35.5539 13.7571 35.4318 14.2302L35.4928 14.3269C36.063 14.314 37.1574 14.314 37.7515 14.314L37.854 14.2312C37.9303 13.8377 38.2258 12.4412 38.5484 11.0436C38.9485 9.30845 39.3649 7.56037 39.463 7.19377L39.3998 7.10991C38.6487 7.12389 37.2414 7.16474 35.7882 7.16474C33.934 7.16474 33.1785 7.13679 32.4307 7.13679L32.3141 7.23247C32.2159 7.65283 31.914 9.1461 31.5641 10.6631C31.2163 12.1703 30.8533 13.6883 30.7105 14.2463L30.7879 14.3269C31.4845 14.314 32.3555 14.314 33.0335 14.314L33.1643 14.2312C33.2657 13.7302 33.5263 12.5358 33.8206 11.2608C34.0692 10.1761 34.3406 9.06331 34.4092 8.76445C34.6316 8.76445 35.1309 8.75047 35.5757 8.75047Z" fill="white"/>
</svg>
