<svg width="80" height="20" viewBox="0 0 80 20" fill="none" xmlns="http://www.w3.org/2000/svg">
<path d="M7.20765 10.1939C7.20765 12.2514 5.68332 13.6711 3.60383 13.6711C1.52343 13.6711 0 12.2514 0 10.1939C0 8.13625 1.52435 6.71661 3.60383 6.71661C5.68425 6.71661 7.20765 8.13625 7.20765 10.1939ZM21.2529 10.1939C21.2529 12.2514 19.7286 13.6711 17.6491 13.6711C15.5696 13.6711 14.0452 12.2514 14.0452 10.1939C14.0452 8.13625 15.5696 6.71661 17.6491 6.71661C19.7286 6.71661 21.2529 8.13625 21.2529 10.1939ZM28.5851 9.43232V13.445H26.8345V9.803C26.8345 8.75408 26.3399 8.32113 25.4961 8.32113C24.6103 8.32113 23.9718 8.81449 23.9718 10.235V13.445H22.2212V6.92164H23.9516V7.90925H23.9929C24.4253 7.16877 25.1673 6.7157 26.1145 6.7157C27.5344 6.71661 28.5851 7.49828 28.5851 9.43232ZM54.9739 6.92164V13.445H53.2232V10.8108H50.4219V13.445H48.6712V6.92164H50.4219V9.28768H53.2232V6.92164H54.9739ZM45.4384 6.92164V7.86807H45.3975C45.0888 7.20996 44.2643 6.7157 43.2145 6.7157C41.5051 6.7157 40.1043 7.95044 40.1043 10.1728C40.1043 12.4162 41.4638 13.6711 43.2145 13.6711C44.2853 13.6711 45.0474 13.1768 45.3975 12.5599H45.4384V13.445H47.1891V6.92164H45.4384ZM36.1716 6.86032C35.1007 6.86032 34.2772 7.35458 33.8448 8.13625H33.8035C33.8649 6.69556 34.3596 6.07865 36.0479 5.91389L38.6633 5.66676V4L35.7594 4.22608C32.9177 4.45216 32.0731 6.38711 32.0731 9.47349C32.0731 12.2103 33.6588 13.6711 35.7181 13.6711C37.7573 13.6711 39.322 12.2103 39.322 10.1728C39.322 8.13625 37.9011 6.86032 36.1716 6.86032ZM7.84615 6.92164V8.4035H11.2851L7.7637 12.0455V13.445H13.6128V11.9631H9.92657L13.4479 8.3001V6.92164H7.84615ZM43.6679 12.0867C42.6169 12.0867 41.9382 11.305 41.9382 10.214C41.9382 9.1028 42.6181 8.3001 43.6679 8.3001C44.7176 8.3001 45.4384 9.08174 45.4384 10.1929C45.4384 11.2839 44.7176 12.0867 43.6679 12.0867ZM1.83306 10.1939C1.83306 11.3252 2.53294 12.0666 3.60383 12.0666C4.67471 12.0666 5.37458 11.3261 5.37458 10.1939C5.37458 9.0616 4.67471 8.32113 3.60383 8.32113C2.53294 8.32113 1.83306 9.0616 1.83306 10.1939ZM15.8783 10.1939C15.8783 11.3252 16.5782 12.0666 17.6491 12.0666C18.7199 12.0666 19.4198 11.3261 19.4198 10.1939C19.4198 9.0616 18.7199 8.32113 17.6491 8.32113C16.5782 8.32113 15.8783 9.0616 15.8783 10.1939ZM35.6971 12.0867C34.6885 12.0867 33.9052 11.3252 33.9052 10.1939C33.9052 9.04146 34.6876 8.36233 35.6971 8.36233C36.7066 8.36233 37.4889 9.04146 37.4889 10.1939C37.4889 11.3252 36.7066 12.0867 35.6971 12.0867ZM60.5757 13.445L58.2079 10.3174V13.445H56.4572V6.92164H58.2079V9.6172L60.3909 6.92164H62.5537L59.876 9.88448L62.8 13.4441H60.5757V13.445Z" fill="#005BFF"/>
</svg>
