<svg width="80" height="20" viewBox="0 0 80 20" fill="none" xmlns="http://www.w3.org/2000/svg">
<path d="M16 14.976C16 16.92 14.92 18 12.976 18H3.024C1.08 18 0 16.92 0 14.976V5.024C0 3.08 1.08 2 3.024 2H12.98C14.92 2 16 3.08 16 5.024V14.976Z" fill="#FFE600"/>
<path fill-rule="evenodd" clip-rule="evenodd" d="M10.2875 9.22V7.69204L10.8393 7.13982V8.46384L11.3196 8.94369L13.2513 7.01194L13.7275 7.48768C13.7234 7.1279 13.6514 6.0839 12.7674 5.21589C11.8155 4.29607 10.7834 4.71178 10.4314 5.06375L8.50339 6.9918L8.99558 7.48398L7.99969 8.48768L7.00339 7.4918L7.49558 7.00002L5.56754 5.07198C5.21556 4.72 4.18349 4.30389 3.2316 5.2237C2.34755 6.09171 2.2756 7.13571 2.27148 7.49591L2.74764 7.01976L4.67938 8.95191L5.15964 8.47206V7.14805L5.71145 7.69986V9.22782L6.48736 10L2.66334 13.824L4.17568 15.3318L7.99969 11.5119L11.8233 15.336L13.3356 13.8277L9.51162 10L10.2875 9.22ZM18.6679 10.6682H21.5519V11.5761H19.748V12.5082H20.348C20.7517 12.5082 21.2719 12.5564 21.6638 12.9404C21.8319 13.1082 22.04 13.4161 22.04 13.912C22.04 14.0617 22.0215 14.2052 21.9857 14.3392C21.9257 14.5629 21.8167 14.7595 21.6638 14.912C21.5597 15.0161 21.4417 15.0958 21.3122 15.1563C21.2534 15.1834 21.1921 15.2068 21.1284 15.227C21.0971 15.2369 21.0655 15.2459 21.033 15.2541C20.7978 15.3138 20.5355 15.3323 20.2559 15.3323H18.6679V10.6682ZM20.172 14.4642C20.32 14.4642 20.584 14.4523 20.7517 14.3162C20.7842 14.2883 20.8397 14.2332 20.8804 14.1456C20.9101 14.0827 20.9318 14.0029 20.9318 13.9042C20.9318 13.8689 20.929 13.8355 20.924 13.8043C20.9187 13.771 20.9105 13.7402 20.9006 13.7114C20.885 13.6661 20.8644 13.6267 20.8414 13.5925C20.8196 13.5605 20.7953 13.5333 20.7711 13.5107C20.7604 13.5008 20.7497 13.4918 20.739 13.4836L20.7238 13.4721C20.556 13.352 20.2838 13.3483 20.172 13.3483H19.7439V14.4684H20.172V14.4642ZM25.9516 12.2122H24.9438V12.5642C24.7493 12.2998 24.4906 12.1846 24.262 12.1378C24.1522 12.1152 24.0494 12.1082 23.9635 12.1082C23.5318 12.1082 23.1518 12.264 22.8796 12.5362C22.5918 12.824 22.3957 13.2722 22.3957 13.7961C22.3957 14.2081 22.5235 14.616 22.8517 14.9642C23.1958 15.3281 23.5716 15.44 24.0198 15.44C24.1518 15.44 24.3184 15.4235 24.4857 15.352C24.6473 15.2829 24.8101 15.1624 24.9438 14.956V15.3323H25.9516V12.2122ZM23.4318 13.7681C23.4318 13.6139 23.4705 13.4889 23.5227 13.3902C23.5655 13.3101 23.6169 13.2471 23.6638 13.2003C23.7957 13.0683 23.9956 12.9762 24.2119 12.9803C24.3957 12.9803 24.6198 13.0481 24.7715 13.1962C24.7994 13.2225 24.8253 13.2513 24.8488 13.2821C24.8755 13.3179 24.899 13.3565 24.9191 13.3972C24.9742 13.5078 25.0038 13.6353 25.0038 13.7681C25.0038 14.0362 24.8915 14.2323 24.7596 14.3561C24.6938 14.4219 24.614 14.4758 24.5252 14.5132C24.436 14.551 24.3377 14.572 24.2357 14.572C23.9956 14.572 23.7797 14.4762 23.6395 14.3281C23.5515 14.2282 23.4318 14.0481 23.4318 13.7681ZM26.5597 12.2122H27.5675V13.2961H28.6958V12.2122H29.7036V15.3323H28.6958V14.1082H27.5675V15.3323H26.5597V12.2122ZM31.3155 12.2122H30.3077V15.3323H31.3155V13.9482L32.3796 15.3323H33.6798L32.2517 13.6604L33.5877 12.2122H32.3356L31.3155 13.4523V12.2122ZM20.3114 4.66819C20.7156 4.66819 21.1638 4.72412 21.5355 5.05224C21.9355 5.4001 21.9915 5.86433 21.9915 6.18423C21.9915 6.77222 21.7674 7.10035 21.5914 7.28415C21.2197 7.66038 20.7316 7.69615 20.4035 7.69615H19.7476V9.33226H18.6716V4.66819H20.3114ZM19.7435 6.81622H20.1276C20.1847 6.81622 20.2575 6.81499 20.3356 6.80388C20.461 6.7862 20.5996 6.74344 20.7078 6.64023C20.8036 6.54402 20.8837 6.38037 20.8837 6.18012C20.8837 6.09048 20.8693 6.00783 20.8434 5.93546C20.813 5.84994 20.7661 5.77798 20.7078 5.72412C20.5474 5.57239 20.3155 5.54813 20.1074 5.54813H19.7435V6.81622ZM25.6276 6.21219H24.6198V6.56416C24.4816 6.37625 24.311 6.26359 24.142 6.19739C23.9586 6.12543 23.7768 6.10816 23.6395 6.10816C23.2077 6.10816 22.8278 6.264 22.5556 6.5362C22.2678 6.82403 22.0716 7.27222 22.0716 7.79607C22.0716 8.06252 22.1251 8.32732 22.2517 8.57527C22.3208 8.71096 22.4117 8.8413 22.5277 8.96425C22.8718 9.32815 23.2476 9.43999 23.6958 9.43999C23.8274 9.43999 23.9927 9.42395 24.1592 9.35323C24.3216 9.28415 24.4853 9.16367 24.6198 8.95602V9.33226H25.6276V6.21219ZM23.1078 7.76811C23.1078 7.4881 23.2357 7.3043 23.3397 7.20027C23.4717 7.06828 23.6757 6.97617 23.8878 6.98028C23.9421 6.98028 23.9997 6.98645 24.0581 6.99838C24.0922 7.00537 24.1263 7.01441 24.1605 7.02592C24.2653 7.06129 24.3665 7.11721 24.4475 7.19615C24.5248 7.26935 24.5848 7.36104 24.6243 7.46425C24.6411 7.50824 24.6543 7.5543 24.6638 7.60158C24.6679 7.62214 24.6712 7.64311 24.6736 7.66449C24.6757 7.68135 24.6769 7.69862 24.6777 7.71589C24.679 7.73316 24.6798 7.75043 24.6798 7.76811C24.6798 8.0362 24.5675 8.23234 24.4355 8.35611C24.3665 8.42518 24.2822 8.48111 24.188 8.51893C24.1514 8.53374 24.1132 8.54566 24.0737 8.5543L24.0301 8.56293L23.9894 8.56787C23.9639 8.57074 23.938 8.57198 23.9117 8.57198C23.8068 8.57198 23.7065 8.55347 23.6148 8.52058C23.4972 8.47823 23.3944 8.41162 23.3155 8.32814C23.2275 8.22823 23.1078 8.04813 23.1078 7.76811ZM27.2435 6.21219V7.99632L28.5716 6.21219H29.5079V9.33226H28.4997V7.52017L27.1716 9.33226H26.2357V6.21219H27.2435ZM29.1399 4.95232C29.0556 5.20397 28.8878 5.42025 28.6917 5.54813C28.4277 5.72412 28.1037 5.74426 27.8718 5.74426C27.6399 5.74426 27.3196 5.72412 27.0519 5.54813C27.0289 5.53333 27.0063 5.5177 26.9841 5.50043C26.959 5.48111 26.9343 5.46013 26.9105 5.43752C26.885 5.41326 26.8603 5.38777 26.8365 5.36063C26.7365 5.2455 26.6547 5.10487 26.6037 4.95232L27.3036 4.68012C27.3315 4.81992 27.3998 4.93217 27.4837 5.00002C27.5758 5.07609 27.6917 5.1242 27.8677 5.1242C27.9109 5.1242 27.9503 5.12132 27.9869 5.11597L28.0079 5.11268L28.0285 5.10857L28.056 5.10158L28.0836 5.09336C28.1494 5.07157 28.2036 5.03949 28.2517 5.00002C28.3356 4.93217 28.4039 4.81992 28.4318 4.68012L29.1399 4.95232ZM31.7357 9.38036V10.8882H32.7517V9.38036H32.7916C33.4997 9.38036 33.8915 9.08801 34.0716 8.91203C34.1642 8.82115 34.2563 8.7052 34.3327 8.56087C34.3459 8.5362 34.3587 8.51071 34.3706 8.48439L34.392 8.43587C34.4187 8.37132 34.4421 8.30224 34.4614 8.22782C34.4853 8.13694 34.5026 8.03867 34.512 7.93217C34.5145 7.90216 34.5165 7.87173 34.5178 7.84048C34.519 7.81252 34.5194 7.78456 34.5194 7.75619C34.5194 7.55388 34.489 7.37584 34.4392 7.22041C34.3953 7.08226 34.3356 6.96219 34.2678 6.85898C34.2517 6.83431 34.2349 6.81046 34.2176 6.78744L34.2028 6.76811L34.1773 6.73645C34.1136 6.65874 34.0462 6.59336 33.9795 6.54032C33.6716 6.29607 33.2077 6.16408 32.7957 6.16408H32.7476V4.66819H31.7398V6.16408H31.6917C31.2756 6.16408 30.8155 6.29607 30.5075 6.54032C30.2476 6.74838 29.9676 7.14023 29.9676 7.75619C29.9676 8.32403 30.1917 8.69615 30.4158 8.91203C30.5955 9.08801 30.9878 9.38036 31.6954 9.38036H31.7357ZM31.5314 6.99755C31.6136 6.97946 31.6995 6.97206 31.7838 6.97617V8.56828C31.5276 8.57609 31.2875 8.48028 31.1555 8.33226C31.0355 8.20808 30.9516 8.00413 30.9516 7.7603C30.9516 7.51236 31.0355 7.31211 31.1555 7.19204C31.248 7.09706 31.3837 7.03004 31.5314 6.99755ZM33.3237 8.33637C33.1917 8.48028 32.9557 8.5802 32.6958 8.57239V6.98028C32.8578 6.96918 33.0239 7.00537 33.1601 7.07732C33.2217 7.11022 33.2776 7.1501 33.3237 7.19615C33.3784 7.25084 33.4257 7.3228 33.461 7.40791C33.503 7.5103 33.5277 7.63119 33.5277 7.764C33.5277 8.00824 33.4438 8.21219 33.3237 8.33637ZM36.584 10.8882V9.38036H36.5437C36.3159 9.38036 36.121 9.34994 35.9549 9.30306C35.864 9.27757 35.7822 9.24673 35.7086 9.21342C35.498 9.11803 35.3541 9.00043 35.2641 8.91203C35.2332 8.88242 35.2024 8.84994 35.1724 8.81416C35.1461 8.78333 35.1202 8.75002 35.0955 8.71466C35.0375 8.6316 34.9837 8.53579 34.9392 8.42642C34.8895 8.3043 34.8517 8.16532 34.8315 8.00824C34.8253 7.96096 34.8208 7.91162 34.8184 7.86104C34.8167 7.82691 34.8159 7.79196 34.8159 7.75619C34.8159 7.14023 35.0959 6.74838 35.3558 6.54032C35.6637 6.29607 36.1239 6.16408 36.54 6.16408H36.5881V4.66819H37.5959V6.16408H37.644C37.7719 6.16408 37.9047 6.17683 38.0363 6.2015C38.1029 6.21384 38.1691 6.22946 38.2345 6.24838C38.292 6.26482 38.3484 6.28374 38.4035 6.30471C38.5605 6.36515 38.7061 6.4441 38.8278 6.54032C39.0881 6.74838 39.3677 7.14023 39.3677 7.75619C39.3677 7.98234 39.3323 8.17642 39.2756 8.34254C39.2246 8.49138 39.1563 8.61762 39.0811 8.72329C39.0293 8.79566 38.9746 8.85816 38.9199 8.91203C38.8048 9.02469 38.6025 9.18505 38.2859 9.28579C38.2016 9.31252 38.1091 9.33513 38.0083 9.35158C37.8965 9.37009 37.7739 9.38036 37.6399 9.38036H37.6V10.8882H36.584ZM36.6321 6.97617C36.3961 6.96425 36.1477 7.04402 36.0038 7.19204C35.8837 7.31211 35.7999 7.51236 35.7999 7.7603C35.7999 8.00413 35.8837 8.20808 36.0038 8.33226C36.1358 8.48028 36.3759 8.57609 36.6321 8.56828V6.97617ZM37.5437 8.57239C37.804 8.5802 38.04 8.48028 38.172 8.33637C38.2357 8.27058 38.2892 8.18217 38.3253 8.07732C38.3574 7.98439 38.3759 7.87872 38.3759 7.764C38.3759 7.52017 38.292 7.31622 38.172 7.19615C38.0239 7.04813 37.7797 6.96425 37.5437 6.98028V8.57239ZM43.2156 6.21219H42.2077V6.56416C41.9195 6.17231 41.4915 6.10816 41.2275 6.10816C40.7957 6.10816 40.4158 6.264 40.1436 6.5362C39.8558 6.82403 39.6596 7.27222 39.6596 7.79607C39.6596 8.05841 39.7115 8.3191 39.8336 8.56375C39.9035 8.70356 39.9964 8.8376 40.1156 8.96425C40.4598 9.32815 40.8356 9.43999 41.2838 9.43999C41.5437 9.43999 41.9355 9.37625 42.2077 8.95602V9.33226H43.2156V6.21219ZM40.6958 7.76811C40.6958 7.63818 40.7234 7.52921 40.7633 7.43916C40.8093 7.33472 40.8718 7.25619 40.9277 7.20027C41.0597 7.06828 41.2637 6.97617 41.4758 6.98028C41.6596 6.98028 41.8837 7.04813 42.0355 7.19615C42.1835 7.33596 42.2678 7.54402 42.2678 7.76811C42.2678 8.0362 42.1555 8.23234 42.0235 8.35611C41.8915 8.4881 41.7036 8.57198 41.4997 8.57198C41.2596 8.57198 41.0437 8.47617 40.9035 8.32814C40.8611 8.28004 40.8114 8.21301 40.7711 8.12543C40.7279 8.03127 40.6958 7.91285 40.6958 7.76811ZM44.8315 6.21219V7.99632L46.1596 6.21219H47.0959V9.33226H46.0877V7.52017L44.7596 9.33226H43.8237V6.21219H44.8315ZM46.7279 4.95232C46.6888 5.0691 46.6317 5.17806 46.5622 5.27428C46.5137 5.34171 46.459 5.40257 46.3998 5.45561C46.3615 5.49015 46.3212 5.52099 46.2797 5.54813C46.2127 5.59254 46.142 5.62708 46.0696 5.65421C45.9865 5.68505 45.9018 5.70561 45.8188 5.71918C45.6897 5.74015 45.5651 5.74426 45.4598 5.74426C45.2279 5.74426 44.9076 5.72412 44.6399 5.54813C44.4438 5.42395 44.2756 5.20397 44.1917 4.95232L44.8915 4.68012C44.9195 4.81992 44.9878 4.93217 45.0716 5.00002C45.1177 5.03785 45.1695 5.06869 45.232 5.09007C45.2945 5.11186 45.3677 5.1242 45.4557 5.1242C45.6317 5.1242 45.7476 5.07609 45.8397 5.00002C45.8825 4.96548 45.9212 4.91943 45.9528 4.86392C45.9828 4.81046 46.0063 4.74879 46.0198 4.68012L46.7279 4.95232ZM48.1198 6.22C47.9516 6.28415 47.7357 6.39599 47.6037 6.48028L47.9956 7.15627C48.0959 7.07198 48.1999 7.00824 48.3319 6.95232C48.4639 6.89599 48.5836 6.86803 48.7439 6.86803C48.9117 6.86803 49.0116 6.90421 49.0597 6.92436C49.1321 6.95685 49.172 7.00166 49.1925 7.04443C49.2069 7.07527 49.2119 7.10487 49.2119 7.12831C49.2119 7.18834 49.1839 7.28004 49.0638 7.33596C49.0314 7.35117 48.9882 7.36227 48.9417 7.3705C48.8512 7.38694 48.7485 7.39229 48.6876 7.39229H48.3998V8.07609H48.7756C48.8878 8.07609 49.0556 8.09624 49.1399 8.13201C49.1794 8.14928 49.2123 8.17107 49.2369 8.19862C49.2694 8.23481 49.2879 8.28086 49.2879 8.34007C49.2879 8.38571 49.2789 8.44533 49.2374 8.50002C49.2164 8.52716 49.1876 8.55347 49.1477 8.57609C49.0478 8.63201 48.8957 8.65216 48.7838 8.65216C48.6777 8.65216 48.5618 8.6353 48.4573 8.60857C48.4002 8.59377 48.3467 8.57609 48.2999 8.55635C48.1757 8.50002 48.0276 8.4001 47.9158 8.3043L47.4878 8.96836C47.5272 9.00002 47.5922 9.05101 47.6786 9.10693C47.7188 9.13283 47.7633 9.15997 47.8118 9.1867C47.8825 9.22535 47.9619 9.26318 48.0478 9.29607C48.3278 9.4001 48.6198 9.43629 48.8998 9.43629C49.4199 9.43629 49.7838 9.36022 50.0478 9.10035C50.1514 8.99632 50.2201 8.8853 50.2624 8.77305C50.3031 8.66449 50.3196 8.5543 50.3196 8.44821C50.3196 8.42066 50.3188 8.39352 50.3163 8.36721C50.3147 8.35035 50.313 8.33349 50.3105 8.31704L50.3048 8.2825C50.2793 8.15257 50.2197 8.03744 50.1119 7.93217C50.0679 7.88818 49.9236 7.764 49.6917 7.70808C49.7156 7.69944 49.739 7.68875 49.762 7.67683C49.7813 7.66696 49.7999 7.65586 49.8184 7.64393L49.8422 7.6279C49.8587 7.61638 49.8747 7.60405 49.8903 7.5913C49.9133 7.5728 49.9351 7.55265 49.9557 7.53209C50.1078 7.37214 50.1436 7.19615 50.1436 7.00002C50.1436 6.9404 50.1391 6.8816 50.1284 6.82444C50.1226 6.79319 50.1148 6.76236 50.1049 6.73193C50.0704 6.62379 50.0096 6.52181 49.9117 6.42806C49.5959 6.12009 49.0239 6.10816 48.8558 6.10816C48.6156 6.10816 48.3558 6.13612 48.1198 6.22ZM53.9676 7.94821H51.6395C51.6395 8.00619 51.6473 8.07115 51.6625 8.13694C51.6913 8.26112 51.7468 8.38859 51.8278 8.47987C51.8677 8.52428 51.9121 8.55923 51.9586 8.58596C51.9911 8.60487 52.0248 8.62009 52.0585 8.63201C52.1584 8.66778 52.26 8.67601 52.3434 8.67601C52.3994 8.67601 52.4557 8.67189 52.51 8.66367C52.5992 8.64969 52.6827 8.62379 52.7476 8.5839C52.7596 8.57609 52.8796 8.50002 52.9635 8.32403L53.9158 8.42025C53.7756 8.86022 53.4956 9.09212 53.3155 9.20397C53.0157 9.38407 52.6798 9.43587 52.3278 9.43587C51.8595 9.43587 51.4475 9.35199 51.0836 8.9881C50.8118 8.71589 50.6156 8.30388 50.6156 7.78415C50.6156 7.33596 50.7756 6.87625 51.0918 6.55224C51.2789 6.36474 51.4902 6.2529 51.6979 6.18793C51.9072 6.12214 52.1128 6.10405 52.2875 6.10405C52.6358 6.10405 53.1395 6.16819 53.5276 6.57198C53.8998 6.96425 53.9676 7.45191 53.9676 7.84007V7.94821ZM53.0396 7.34788C53.0318 7.31992 52.9837 7.1242 52.8356 6.98398C52.7945 6.94574 52.7468 6.91203 52.6929 6.88448C52.658 6.86638 52.6206 6.85117 52.5803 6.83925C52.5137 6.8191 52.4401 6.808 52.3595 6.808C52.2727 6.808 52.1983 6.81951 52.1337 6.83842C52.0042 6.87666 51.9142 6.94533 51.8475 7.01194C51.7715 7.09624 51.6995 7.20808 51.6716 7.34788H53.0396ZM55.4314 6.21219H54.4236V9.33226H55.4314V8.10816H56.5597V9.33226H57.5675V6.21219H56.5597V7.29607H55.4314V6.21219Z" fill="white"/>
<path d="M10.2875 9.22V7.69204L10.8393 7.13982V8.46384L11.3196 8.94369L13.2513 7.01194L13.7275 7.48768C13.7234 7.1279 13.6514 6.0839 12.7674 5.21589C11.8155 4.29607 10.7834 4.71178 10.4314 5.06375L8.50339 6.9918L8.99558 7.48398L7.99969 8.48768L7.00339 7.4918L7.49558 7.00002L5.56754 5.07198C5.21556 4.72 4.18349 4.30389 3.2316 5.2237C2.34755 6.09171 2.2756 7.13571 2.27148 7.49591L2.74764 7.01976L4.67938 8.95191L5.15964 8.47206V7.14805L5.71145 7.69986V9.22782L6.48736 10L2.66334 13.824L4.17568 15.3318L7.99969 11.5119L11.8233 15.336L13.3356 13.8277L9.51162 10L10.2875 9.22Z" fill="#2B2D34"/>
</svg>
