<svg width="80" height="20" viewBox="0 0 80 20" fill="none" xmlns="http://www.w3.org/2000/svg">
<path fill-rule="evenodd" clip-rule="evenodd" d="M22.1605 9.57949C22.6214 9.57949 23.0449 9.61675 23.3688 9.74133C24.0539 10.0031 24.4899 10.5885 24.4899 11.4354C24.4899 12.2702 24.0291 12.9055 23.3439 13.167C23.02 13.2916 22.5841 13.3414 21.9986 13.3414H17.7881V7.41199H24.0041V8.78217H19.5943V9.57949H22.1605ZM22.0608 11.8466C22.2352 11.8466 22.3722 11.8341 22.4719 11.7968C22.6837 11.7221 22.7709 11.5351 22.7709 11.3607C22.7709 11.2949 22.7602 11.2342 22.7389 11.1803C22.7261 11.1481 22.7095 11.1183 22.6891 11.0911C22.6533 11.0436 22.6058 11.0042 22.5467 10.9746C22.5286 10.9656 22.5097 10.9575 22.49 10.9505C22.4584 10.9392 22.4248 10.9305 22.3893 10.9235C22.2942 10.9047 22.1848 10.8998 22.0608 10.8998H19.5943V11.8466H22.0608ZM26.9136 7.41199H29.5544L31.9836 13.3414H29.9531L29.6042 12.4819H26.8638L26.5275 13.3414H24.4845L26.9136 7.41199ZM28.1718 8.78217L27.3122 11.1739H29.1683L28.3087 8.78217H28.1718ZM34.3085 11.1366V13.3414H32.5023V7.41199H34.3085V9.57949H37.211V7.41199H39.0173V13.3414H37.211V11.1366H34.3085ZM41.8763 13.3414V11.0992H42.3745L44.5296 13.3414H46.9338L43.9316 10.2522L46.8216 7.41199H44.5546L42.3745 9.64188H41.8763V7.41199H40.07V13.3414H41.8763Z" fill="white"/>
<path d="M0 3.59998H14.4V10.8421C14.4 12.6987 13.4096 14.4143 11.8018 15.3427L7.20001 18L2.59819 15.3427C0.990408 14.4143 0 12.6987 0 10.8421V3.59998Z" fill="#FFDD2D"/>
<path fill-rule="evenodd" clip-rule="evenodd" d="M3.95215 7.41199V9.66445C4.26016 9.31663 4.82019 9.08122 5.46051 9.08122H6.15635V11.6997C6.15635 12.3963 5.96707 13.0061 5.68623 13.3415H8.71301C8.43276 13.0057 8.24392 12.3968 8.24392 11.701V9.08122H8.93979C9.58011 9.08122 10.1401 9.31663 10.4482 9.66445V7.41199H3.95215Z" fill="#333333"/>
</svg>
