<svg width="80" height="20" viewBox="0 0 80 20" fill="none" xmlns="http://www.w3.org/2000/svg">
<path fill-rule="evenodd" clip-rule="evenodd" d="M51.3817 8.19829C51.3046 7.70997 50.9496 7.43579 50.4961 7.27411C49.7176 6.99615 48.912 6.98102 48.0978 7.04673C47.3455 7.10724 46.6179 7.25568 45.9165 7.61495C45.7866 6.91437 45.6614 6.24263 45.5349 5.56332C46.1521 5.26456 46.7716 5.09816 47.4083 4.98612C48.7702 4.7474 50.1349 4.71005 51.4845 5.04238C52.9078 5.39314 53.9071 6.19394 54.1831 7.66695C54.2511 8.03095 54.2483 8.58167 54.2483 8.58167V11.8907C54.2483 12.0344 54.2664 12.3417 54.2754 12.485C54.3258 13.2498 54.3963 13.3245 55.2 13.4403V15.015C54.4067 15.2097 53.5921 15.3123 52.7855 14.9427C52.332 14.7351 52.1231 14.3508 52.0236 13.897C52.0108 13.8375 52.0046 13.7765 51.997 13.7033V13.7031V13.7017C51.9932 13.6638 51.9889 13.6225 51.9832 13.5765C51.0096 14.9375 49.6162 15.2717 48.0849 15.188C46.369 15.0944 45.0519 13.974 44.8092 12.6523C44.4147 10.5014 45.5306 8.89461 47.7575 8.57033C49.1656 8.36516 49.5691 8.45214 51.3893 9.0544C51.3893 8.96334 51.3931 8.87251 51.3964 8.78219C51.4041 8.58414 51.4117 8.38854 51.3817 8.19829ZM51.3336 10.9335C50.8663 10.621 50.3353 10.457 49.7799 10.3884C49.2027 10.317 48.6331 10.3544 48.1434 10.7222C47.6942 11.0597 47.5244 11.5958 47.689 12.1484C47.8151 12.5734 48.2605 12.9062 48.7854 12.9544C49.2912 13.0016 49.7818 12.927 50.2491 12.7336C51.0876 12.3862 51.4159 11.8378 51.3336 10.9335ZM15.9895 15.1998C14.5334 15.2083 13.2243 14.7966 12.1379 13.8639C10.933 12.8296 10.4571 11.4832 10.469 9.95729C10.4795 8.69135 10.8297 7.53979 11.7077 6.56692C12.4952 5.69474 13.4974 5.17569 14.6671 4.9398C16.1361 4.6434 17.5498 4.8098 18.8508 5.52267C20.4916 6.42227 21.302 7.83146 21.4019 9.62544C21.49 11.2034 21.0969 12.6249 19.8792 13.7589C18.7985 14.7654 17.4732 15.1847 15.9895 15.1998ZM16.0247 7.35117C14.7913 7.38048 13.9257 8.01724 13.595 9.06575C13.3918 9.71195 13.4046 10.353 13.6073 10.9992C13.9019 11.9375 14.5543 12.5138 15.5479 12.6641C16.5543 12.8159 17.419 12.4949 17.9691 11.6468C18.5948 10.681 18.6067 9.64955 18.1076 8.628C17.6802 7.75299 16.9188 7.36157 16.0247 7.35117ZM36.6414 10.9455H38.069L38.3021 10.9975L38.631 11.578L38.6361 11.5871C39.3225 12.7987 40.0085 14.0095 40.6829 15.2H43.7793C43.7469 15.1212 43.7191 15.0467 43.6928 14.9762C43.6404 14.836 43.5939 14.7114 43.5281 14.5987C42.9983 13.6932 42.465 12.7902 41.9317 11.8872L41.9281 11.8811L41.9256 11.877C41.6341 11.3834 41.3426 10.8898 41.0517 10.3957C41.0011 10.3108 40.9557 10.2226 40.9066 10.1273L40.9065 10.1271C40.8841 10.0835 40.8609 10.0385 40.8361 9.99156C42.8466 8.81874 43.2644 6.93682 43.2064 4.80011H40.4483C40.4483 5.63839 40.3091 6.13143 40.1455 6.71088V6.71093L40.1454 6.71131C40.1245 6.78525 40.1033 6.8606 40.0819 6.93824C39.8663 7.72155 39.3305 8.24485 38.5648 8.51005C38.1407 8.65684 37.6874 8.63051 37.2227 8.60352C37.0304 8.59235 36.8362 8.58108 36.6414 8.58191V4.80011H33.7862V15.1911L36.6414 15.2V10.9455ZM29.0583 4.80011H31.883V15.2H29.0307V11.865C28.8623 11.9036 28.6985 11.9454 28.5374 11.9864C28.1964 12.0733 27.8675 12.1571 27.5336 12.202C26.2388 12.376 25.0058 12.2176 23.9499 11.3303C23.1333 10.6439 22.6551 9.72353 22.5104 8.67929C22.4122 7.97112 22.4039 7.04124 22.3956 6.10712V6.10711C22.3917 5.66568 22.3877 5.22331 22.3743 4.80294L25.2209 4.80011V5.27283V7.63646C25.2209 8.74972 26.2083 9.62804 27.2833 9.64364C27.9471 9.65309 28.3345 9.49238 29.0245 9.05747L29.0583 4.80011ZM3.33103 15.2H6.18621V7.63646H9.51724V4.80011H0V7.63646H3.33103V15.2Z" fill="white"/>
</svg>
