<svg width="80" height="20" viewBox="0 0 80 20" fill="none" xmlns="http://www.w3.org/2000/svg">
<path d="M0 17.4512L7.52048 17.441L7.51536 9.99707C5.94796 12.9685 3.01228 14.8984 0 15.6387C0.0102 16.2004 0 17.4512 0 17.4512Z" fill="#008FB4"/>
<path d="M2.40479 13.7037C5.24347 12.2691 6.61174 9.64993 6.61174 9.64993C6.61174 9.64993 6.60155 8.78709 6.60155 8.77177C5.03927 8.22037 3.61991 7.41373 2.40991 6.20881C2.41499 8.25101 2.40479 13.7037 2.40479 13.7037ZM2.80815 2.43579C2.80815 2.43579 2.80815 4.71285 2.80303 5.27957C3.55355 5.97393 3.92627 6.29557 4.70231 6.79081L4.70739 3.7377C3.82415 3.25267 3.48207 2.9974 2.80815 2.43579Z" fill="#008FB4"/>
<path d="M13.9687 4.83538C13.9023 4.42694 13.6726 4.15634 13.2896 4.0287C13.1008 3.96743 12.8914 3.93169 12.6361 3.91638C12.483 3.90616 12.3247 3.91638 12.1766 3.93169H12.1154V3.04333L12.8404 3.04843L13.6419 3.16076L13.6726 2.43577H11.1964L11.2934 3.33945L11.3036 5.36126L11.1913 6.3211H11.3342C11.3342 6.3211 11.6712 6.31598 11.8346 6.3211C11.9214 6.3211 12.0082 6.32618 12.095 6.3313C12.2175 6.33642 12.34 6.34662 12.4626 6.34662H12.5494C13.014 6.33642 13.3713 6.21898 13.6368 5.99434C14.0402 5.64206 14.0198 5.16722 13.9687 4.83538ZM13.162 5.0345C13.162 5.1213 13.1569 5.19274 13.1467 5.25914C13.1161 5.44294 13.019 5.57058 12.8608 5.63694C12.6514 5.72886 12.4217 5.74926 12.1103 5.71354V4.55966C12.3911 4.52394 12.6668 4.51374 12.922 4.64134C13.0854 4.72814 13.162 4.85578 13.162 5.0345ZM16.4244 2.87994L16.307 2.40002L15.4901 2.41024L15.3982 2.834L14.4128 5.38678L13.984 6.30066L14.8366 6.31598L14.9847 5.6165L15.1889 5.08554H16.4142L16.695 5.76458L16.8431 6.31086H17.9459L17.5681 5.66246L16.4244 2.87994ZM16.1845 4.4933C16.0568 4.4933 15.9241 4.49842 15.7914 4.5035C15.6637 4.50862 15.531 4.50862 15.4084 4.5137C15.485 4.3299 15.5616 4.14102 15.6382 3.95722C15.6994 3.81937 15.7556 3.68152 15.8118 3.54367L16.1845 4.4933ZM24.333 6.31086L25.4563 6.30066L23.6693 4.27374L25.3491 2.42554L24.3637 2.43065L24.0676 2.8442C24.0676 2.8442 23.312 3.6764 22.9035 4.13078V3.12501L23.0209 2.43576H21.9896L22.0509 3.1148L22.0662 5.5093L21.9896 6.30574H23.0209L22.9086 5.51438V4.56478L24.333 6.31086ZM21.2798 5.14682C21.2798 4.88642 21.2901 3.14034 21.2901 3.14034L21.382 2.44598H20.3608L20.4426 3.11992C20.4426 3.11992 20.4425 3.63047 20.4476 3.9368H19.0028C18.9926 3.49773 18.9977 3.04844 19.11 2.60936L19.1508 2.45109H18.0889L18.1042 2.59404C18.1093 2.6451 18.1706 3.18118 18.1808 3.43136C18.1961 3.95212 18.191 4.48818 18.1859 4.99874V5.11618C18.1859 5.33574 18.1348 6.00966 18.1093 6.13218L18.0787 6.28026H19.1049L19.0896 6.1373C19.0794 6.04538 19.0692 5.95858 19.0589 5.8667C19.0334 5.66758 19.0079 5.47358 18.9977 5.28466C18.9874 5.09066 18.9874 4.89154 18.9926 4.69754V4.55966H20.463C20.463 4.6567 20.463 4.7537 20.4681 4.8507C20.4732 5.28978 20.4783 5.70842 20.366 6.12198L20.3251 6.28026H21.3973L21.3615 6.1271C21.2901 5.7697 21.2798 5.4123 21.2798 5.14682ZM34.146 8.22034L34.1764 8.06718H31.9864L32.0016 8.21014C32.078 8.86874 32.1344 9.48142 32.1752 10.0941C32.2008 10.5331 32.1956 10.9824 32.1904 11.4215C32.1904 11.5747 32.1852 11.7329 32.1852 11.8861H28.0908C28.0704 10.6863 28.0552 9.44566 28.3664 8.23054L28.4072 8.07226H26.1508L26.1712 8.21522C26.1712 8.23054 26.3396 9.69074 26.3652 10.3851C26.406 11.7227 26.3956 13.0859 26.3804 14.4031V14.7146C26.3752 15.2915 26.2476 17.0427 26.1864 17.3542L26.1556 17.5073H28.3308L28.3152 17.3644C28.29 17.1346 28.2592 16.91 28.2336 16.6853C28.1672 16.185 28.106 15.6693 28.0756 15.169C28.0448 14.6635 28.0552 14.1428 28.06 13.6424C28.06 13.4586 28.0652 13.2748 28.0652 13.091H32.2264C32.2264 13.4025 32.2264 13.719 32.2312 14.0253C32.2468 15.1741 32.262 16.2565 31.966 17.3491L31.92 17.5124H34.1816L34.1512 17.3593C33.9724 16.4301 33.9416 15.5059 33.9364 14.8065C33.9316 14.107 33.9364 11.0182 33.9672 10.1605C33.9928 9.34354 34.0488 8.71046 34.146 8.22034ZM20.7897 16.3586V13.0093C21.8364 13.04 23.8326 13.1983 23.853 13.1983L23.9909 13.2085L23.996 11.6768L20.7897 11.8606V9.22102C21.7444 9.21082 23.5365 9.20062 24.4657 9.4865L24.6086 9.53246L24.6291 9.38442C24.6954 8.89938 24.6495 8.22034 24.6444 8.19482L24.6342 8.07738H18.8496L18.8751 8.22546C19.0691 9.4661 19.0589 10.7221 19.0436 11.9372C19.0385 12.218 19.0385 12.4988 19.0385 12.7847C19.0538 14.5819 18.8598 17.3439 18.8547 17.3695L18.8445 17.5073L24.5984 17.5329L24.6036 17.4052C24.6138 17.0989 24.6393 16.2769 24.6546 16.1595L24.675 15.9859L24.5014 16.0216C23.3578 16.2514 22.2754 16.3535 20.7897 16.3586ZM15.8731 12.2231C15.8986 12.2078 15.9241 12.1874 15.9496 12.1721C16.4704 11.8198 17.0678 11.299 17.1035 10.4106C17.1546 9.1853 16.4857 8.31738 15.2655 8.03654C14.2138 7.7915 13.1314 7.83234 11.9571 8.15398L11.9418 8.1591C11.3751 8.31738 11.2781 8.36842 11.2934 8.50118C11.324 8.75134 11.3751 9.02702 11.421 9.29762C11.4568 9.49674 11.4925 9.69586 11.518 9.88986C11.5282 9.96134 11.5793 10.0175 11.6457 10.043C11.712 10.0635 11.7886 10.043 11.8346 9.99198L11.9061 9.91538C12.4574 9.33338 13.1774 9.06278 14.0912 9.0781C14.6733 9.0883 15.1583 9.4559 15.2706 9.97154C15.4238 10.6812 15.1634 11.299 14.6171 11.5441C14.3516 11.6615 14.0453 11.7483 13.6777 11.8147C13.3203 11.8759 12.6157 11.927 12.6055 11.927L12.4779 11.9372L12.5289 13.1421L12.6566 13.137C12.6617 13.137 13.2897 13.1166 13.8155 13.1166C14.0504 13.1166 14.8111 13.1676 15.1992 13.4025C15.5412 13.6067 15.7863 13.9437 15.8578 14.3011C15.9599 14.8371 16.0518 16.1135 14.658 16.4199C13.453 16.6853 12.4677 16.4199 11.7376 15.6336C11.6763 15.5672 11.6099 15.5009 11.5385 15.4192L11.4619 15.3375C11.4159 15.2864 11.3496 15.2711 11.2832 15.2915C11.2219 15.312 11.176 15.3681 11.1658 15.4345L11.13 15.7306C11.0943 16.0216 11.0636 16.2922 11.0177 16.5577C10.982 16.7875 11.0585 16.9406 11.2781 17.0581C12.0899 17.5023 12.9884 17.7269 13.9483 17.7269C14.1321 17.7269 14.3159 17.7167 14.5048 17.7013C15.2757 17.635 15.9854 17.3542 16.5521 16.8845C17.3792 16.2054 17.757 15.3834 17.6651 14.4389C17.5936 13.3514 16.981 12.606 15.8731 12.2231ZM43.4484 13.3974V12.8V12.2435C43.4432 10.9059 43.438 9.52226 43.678 8.22542L43.7036 8.07226H41.4468L41.4776 8.22542C41.554 8.62878 41.6204 9.05766 41.6716 9.49674C41.6868 9.63458 41.6716 9.70094 41.6 9.77754C40.8852 10.5433 40.1808 11.3245 39.5068 12.0801C38.8888 12.7694 38.2508 13.4791 37.5972 14.1836C37.6124 13.5914 37.6024 13.0042 37.5872 12.4273C37.5564 10.9824 37.5308 9.61414 37.8884 8.24075L37.9292 8.07738H35.6164L35.6672 8.24075C35.8816 8.94534 35.8816 9.63458 35.8868 10.3647V11.0692C35.892 12.2997 35.8972 13.5709 35.8816 14.8167C35.8816 15.0056 35.8868 15.1945 35.892 15.3783C35.9024 15.7255 35.9124 16.0778 35.8768 16.4249C35.8564 16.6343 35.8052 16.8385 35.754 17.0529C35.7288 17.1499 35.7084 17.2521 35.6876 17.3542L35.6572 17.5073H37.8832L37.8576 17.3593C37.8116 17.0529 37.776 16.7466 37.7452 16.4505C37.7248 16.2769 37.7096 16.1084 37.6892 15.9348C37.6788 15.8633 37.7148 15.7561 37.7556 15.7102C38.3888 15.0209 39.0168 14.3266 39.6192 13.6526C40.3032 12.8868 41.0128 12.1005 41.738 11.3194V12.6162C41.7328 13.0349 41.738 13.4586 41.7428 13.8671C41.748 14.5001 41.7584 15.1537 41.7276 15.7919C41.7124 16.1441 41.6512 16.4913 41.5896 16.8589C41.5592 17.0223 41.5336 17.1908 41.508 17.3542L41.4876 17.5022H43.7036L43.6728 17.3491C43.4432 16.1135 43.4484 14.735 43.4484 13.3974ZM49.146 9.32826C49.146 9.30782 49.146 9.2823 49.1512 9.25166L52 9.61926L51.8164 8.05698H44.694L44.5356 9.61926L47.5836 9.25166V15.2099L47.2876 17.5176H49.4472L49.1768 15.2507C49.1768 15.2047 49.1512 11.2786 49.146 9.32826Z" fill="#362F9A"/>
</svg>
