<svg width="68" height="64" viewBox="0 0 68 64" fill="none" xmlns="http://www.w3.org/2000/svg">
<g clip-path="url(#clip0_12012_94082)">
<path d="M68 0H0.5V67.5H68V0Z" fill="#EF3124"/>
<path d="M47.1519 47.2045H21.3486V52.5662H47.1519V47.2045Z" fill="white"/>
<mask id="mask0_12012_94082" style="mask-type:luminance" maskUnits="userSpaceOnUse" x="0" y="0" width="68" height="68">
<path d="M68 0H0.5V67.5H68V0Z" fill="white"/>
</mask>
<g mask="url(#mask0_12012_94082)">
<path d="M38.9651 17.2246C38.2299 15.03 37.3816 13.2969 34.4755 13.2969C31.5693 13.2969 30.6681 15.0227 29.8928 17.2246L21.9077 39.921H27.2019L29.0445 34.5247H39.2315L40.9409 39.921H46.5708L38.9615 17.2246H38.9651ZM30.5897 29.9675L34.2091 19.2113H34.3423L37.7611 29.9675H30.5897Z" fill="white"/>
</g>
</g>
<defs>
<clipPath id="clip0_12012_94082">
<rect x="0.5" width="67.5" height="67.5" rx="10" fill="white"/>
</clipPath>
</defs>
</svg>
