<svg width="68" height="64" viewBox="0 0 68 64" fill="none" xmlns="http://www.w3.org/2000/svg">
<g clip-path="url(#clip0_12012_70895)">
<path d="M38 0.498047C58.711 0.498047 75.5 17.2841 75.5 37.9914C75.5 58.6987 58.711 75.4847 38 75.4847C17.289 75.4847 0.5 58.6987 0.5 37.9914C0.5 17.2841 17.289 0.498047 38 0.498047Z" fill="#F0B90B"/>
<path d="M28.2953 33.9685L33.9731 28.311L35.1707 27.1136L38.0081 24.2767L47.6701 33.9685L53.2949 28.311L38.0081 13.0005L22.6704 28.311L28.2953 33.9685Z" fill="white"/>
<path d="M38.0168 32.3363L32.3687 37.9834L38.0168 43.6305L43.6649 37.9834L38.0168 32.3363Z" fill="white"/>
<path d="M47.6701 42.0337L38.0051 51.698L34.6106 48.3041L33.9863 47.6799L28.2953 42.0337L22.6704 47.6575L38.0081 62.9671L53.2949 47.6575L47.6701 42.0337Z" fill="white"/>
<path d="M18.6469 32.3509L12.9988 37.998L18.6469 43.6452L24.295 37.9981L18.6469 32.3509Z" fill="white"/>
<path d="M57.3517 32.3509L51.7036 37.998L57.3517 43.6452L62.9998 37.998L57.3517 32.3509Z" fill="white"/>
</g>
<defs>
<clipPath id="clip0_12012_70895">
<rect width="75" height="75" fill="white" transform="translate(0.5)"/>
</clipPath>
</defs>
</svg>
