<svg width="68" height="64" viewBox="0 0 68 64" fill="none" xmlns="http://www.w3.org/2000/svg">
<path d="M74.3936 46.5506C69.3897 66.6276 49.055 78.8874 28.9411 73.8804C8.86403 68.8611 -3.376 48.5264 1.62794 28.4494C6.63188 8.37236 26.9543 -3.88738 47.0191 1.1196C67.1452 6.06523 79.3853 26.4613 74.3936 46.5506Z" fill="#F7931A"/>
<path d="M55.7651 32.5664C56.4391 27.5664 52.6401 24.9561 47.4318 23.1914L49.0494 16.4266L44.9318 15.434L43.3632 22.0517C42.2725 21.7943 41.1695 21.5369 40.0789 21.3164L41.6475 14.6987L37.4808 13.7061L35.8632 20.4708C34.9808 20.2624 34.0862 20.1031 33.2039 19.8948L27.5298 18.5345L26.4882 22.9095C26.4882 22.9095 29.5642 23.5835 29.4539 23.6448C31.1205 24.0615 31.4392 25.1521 31.3779 25.9855L29.5519 33.6938C29.6622 33.7429 29.8093 33.7428 29.9686 33.8531C29.8093 33.8041 29.7112 33.8041 29.5519 33.7551L27.0519 44.5394C26.8436 45.0541 26.3166 45.7894 25.1769 45.5321C25.2259 45.5811 22.1499 44.7968 22.1499 44.7968L20.2014 49.5394L25.5691 50.7894C26.5617 51.0468 27.5544 51.2551 28.4857 51.5247L26.8681 58.3507L30.9857 59.3434L32.6034 52.5787C33.7553 52.885 34.846 53.1546 35.8877 53.412L34.27 60.1277L38.3877 61.1203L40.0053 54.2943C47.0396 55.5443 52.297 54.9684 54.4293 48.559C56.145 43.4487 54.27 40.5321 50.52 38.6081C53.2651 37.983 55.2504 36.2061 55.7651 32.5664ZM46.5004 45.8385C45.2994 50.9488 36.6597 48.2894 33.8901 47.6154L36.0225 38.5468C38.8411 39.2331 47.7504 40.4831 46.5004 45.8385ZM47.6401 32.5664C46.5494 37.1987 39.3558 34.9683 37.0151 34.3924L39.0004 26.1693C41.2921 26.733 48.7921 27.7257 47.6401 32.5664Z" fill="white"/>
</svg>
