<svg width="49" height="33" viewBox="0 0 49 33" fill="none" xmlns="http://www.w3.org/2000/svg">
<g clip-path="url(#clip0_12012_94528)">
<path d="M33.715 13.6329H18.3787V38.3822H33.715V13.6329Z" fill="#FF5F00"/>
<path d="M20.2016 26.0069C20.2021 23.6346 20.741 21.2933 21.7779 19.1581C22.8148 17.0229 24.3229 15.1492 26.1891 13.6773C23.8682 11.8582 21.0806 10.7268 18.145 10.4124C15.2095 10.098 12.2444 10.6134 9.5888 11.8995C6.93317 13.1856 4.69415 15.1906 3.12767 17.6853C1.56119 20.18 0.730469 23.0638 0.730469 26.0069C0.730469 28.95 1.56119 31.8337 3.12767 34.3284C4.69415 36.8232 6.93317 38.8282 9.5888 40.1143C12.2444 41.4004 15.2095 41.9157 18.145 41.6013C21.0806 41.287 23.8682 40.1556 26.1891 38.3365C24.3229 36.8646 22.8148 34.9909 21.7779 32.8557C20.741 30.7205 20.2021 28.3791 20.2016 26.0069Z" fill="#EB001B"/>
<path d="M51.2469 26.0056C51.249 28.9466 50.4207 31.8288 48.8568 34.3226C47.2928 36.8164 45.0564 38.8211 42.4032 40.1074C39.75 41.3937 36.7872 41.9096 33.8536 41.5962C30.9201 41.2829 28.1342 40.1528 25.8147 38.3353C27.6814 36.8638 29.1898 34.9901 30.2268 32.8548C31.2638 30.7195 31.8025 28.378 31.8025 26.0056C31.8025 23.6333 31.2638 21.2917 30.2268 19.1564C29.1898 17.0211 27.6814 15.1475 25.8147 13.676C28.1342 11.8584 30.9201 10.7284 33.8536 10.415C36.7872 10.1016 39.75 10.6176 42.4032 11.9039C45.0564 13.1901 47.2928 15.1948 48.8568 17.6886C50.4207 20.1824 51.249 23.0646 51.2469 26.0056Z" fill="#F79E1B"/>
</g>
<defs>
<clipPath id="clip0_12012_94528">
<rect width="51.5789" height="51.5789" fill="white"/>
</clipPath>
</defs>
</svg>
