<svg width="68" height="64" viewBox="0 0 68 64" fill="none" xmlns="http://www.w3.org/2000/svg">
<rect x="0.5" width="72" height="80" rx="10" fill="#303030"/>
<path d="M17.0498 15H57.2739V35.2864C57.2739 40.4702 54.4826 45.305 49.9967 47.8968L37.1369 55.3235L24.2772 47.8968C19.7913 45.305 17 40.4702 17 35.2864V15" fill="#FFDD2D"/>
<path fill-rule="evenodd" clip-rule="evenodd" d="M28.1152 25.6621V31.9923C28.9626 30.9954 30.5576 30.3474 32.352 30.3474H34.2959V37.6745C34.2959 39.6184 33.7476 41.313 32.9999 42.2601H41.4734C40.6759 41.313 40.1774 39.6184 40.1774 37.6745V30.3474H42.1213C43.9157 30.3474 45.4611 30.9954 46.3582 31.9923V25.6621H28.2149" fill="#333333"/>
</svg>
