<svg width="68" height="64" viewBox="0 0 68 64" fill="none" xmlns="http://www.w3.org/2000/svg">
<path d="M74.3909 46.5506C69.387 66.6276 49.0523 78.8874 28.9384 73.8804C8.86135 68.8611 -3.37869 48.5264 1.62525 28.4494C6.6292 8.37236 26.9516 -3.88738 47.0164 1.1196C67.1426 6.06523 79.3826 26.4613 74.3909 46.5506Z" fill="#FF060A"/>
<path d="M60.3565 32.4027C58.1592 30.3739 55.1197 27.2758 52.6442 25.0786L52.4977 24.9761C52.254 24.7803 51.9792 24.6269 51.6847 24.522C45.7156 23.4087 17.9353 18.2159 17.3933 18.2818C17.2414 18.3031 17.0963 18.3581 16.9685 18.4429L16.8293 18.5528C16.658 18.7268 16.5278 18.9371 16.4485 19.168L16.4119 19.2632V19.7833V19.8638C19.5393 28.5722 31.8877 57.0997 34.3193 63.7939C34.4658 64.248 34.7441 65.1122 35.2641 65.1562H35.3813C35.6596 65.1562 36.8461 63.5888 36.8461 63.5888C36.8461 63.5888 58.0567 37.8665 60.2026 35.1273C60.4804 34.7899 60.7257 34.4269 60.9351 34.0433C60.9885 33.7432 60.9633 33.4343 60.8619 33.1468C60.7605 32.8593 60.5864 32.6029 60.3565 32.4027ZM42.2879 35.3983L51.3405 27.8911L56.6505 32.7836L42.2879 35.3983ZM38.7723 34.9076L23.1867 22.1343L48.4035 26.7851L38.7723 34.9076ZM40.1786 38.2547L56.1304 35.6839L37.8934 57.6563L40.1786 38.2547ZM21.07 23.4087L37.4686 37.3245L35.0956 57.6709L21.07 23.4087Z" fill="white"/>
</svg>
