<svg width="52" height="32" viewBox="0 0 52 32" fill="none" xmlns="http://www.w3.org/2000/svg">
<path d="M48.8281 0.316406H2.75088C1.23161 0.316406 0 1.4931 0 2.94463V28.6356C0 30.0871 1.23161 31.2638 2.75088 31.2638H48.8281C50.3473 31.2638 51.5789 30.0871 51.5789 28.6356V2.94463C51.5789 1.4931 50.3473 0.316406 48.8281 0.316406Z" fill="white"/>
<path d="M19.1406 22.2725L21.4349 9.40979H25.1045L22.8086 22.2725H19.1406Z" fill="#0E4595"/>
<path d="M36.0577 9.69032C35.3306 9.42973 34.1915 9.15009 32.7688 9.15009C29.1429 9.15009 26.5887 10.8946 26.567 13.3949C26.5465 15.2432 28.3904 16.2742 29.7823 16.8895C31.2107 17.5199 31.6909 17.9221 31.6841 18.485C31.675 19.3472 30.5434 19.7411 29.4887 19.7411C28.0199 19.7411 27.2396 19.5462 26.0345 19.0659L25.5617 18.8614L25.0466 21.7409C25.9037 22.0999 27.4887 22.4111 29.1343 22.4272C32.9916 22.4272 35.4958 20.7026 35.5242 18.0326C35.5381 16.5694 34.5604 15.4559 32.4433 14.5379C31.1607 13.9429 30.3751 13.5458 30.3835 12.9433C30.3835 12.4086 31.0484 11.8369 32.4849 11.8369C33.6849 11.8191 34.5541 12.0691 35.2314 12.3297L35.5603 12.4781L36.0577 9.69032Z" fill="#0E4595"/>
<path d="M45.5038 9.40979H42.6683C41.7898 9.40979 41.1325 9.63884 40.7467 10.4765L35.2969 22.2642H39.1502C39.1502 22.2642 39.7803 20.6793 39.9228 20.3313C40.3439 20.3313 44.0872 20.3368 44.6224 20.3368C44.7322 20.7871 45.0689 22.2642 45.0689 22.2642H48.4739L45.5038 9.40979ZM41.0049 17.7154C41.3084 16.9744 42.467 14.1198 42.467 14.1198C42.4453 14.1541 42.7682 13.3751 42.9535 12.8922L43.2016 14.0012C43.2016 14.0012 43.9042 17.0715 44.0511 17.7154H41.0049V17.7154Z" fill="#0E4595"/>
<path d="M3.15088 9.40979L3.104 9.67749C4.55447 10.013 5.85001 10.4984 6.98425 11.1024L10.2403 22.252L14.1228 22.2477L19.8999 9.40979H16.0128L12.4202 18.1812L12.0374 16.3987C12.0197 16.3443 12.0005 16.2897 11.9808 16.2351L10.7315 10.4957C10.5094 9.68124 9.86509 9.43817 9.06809 9.40979H3.15088Z" fill="#0E4595"/>
</svg>
