<svg xmlns="http://www.w3.org/2000/svg" width="12" height="12" viewBox="0 0 12 12" fill="none">
  <path fill-rule="evenodd" clip-rule="evenodd" d="M0 6.00012C0 2.68641 2.68629 0.00012207 6 0.00012207C7.59132 0.00012207 9.11742 0.632264 10.2427 1.75748C11.3678 2.8827 12 4.40883 12 6.00012C12 9.3138 9.31368 12.0001 6 12.0001C2.68629 12.0001 0 9.3138 0 6.00012ZM5.226 8.22612L8.826 4.62612C9.06126 4.39085 9.06126 4.00939 8.826 3.77412C8.59074 3.53885 8.20926 3.53885 7.974 3.77412L4.8 6.95412L4.026 6.17412C3.8738 6.0219 3.65198 5.9625 3.44407 6.01818C3.23617 6.07392 3.07378 6.23628 3.01807 6.44418C2.96237 6.65208 3.0218 6.8739 3.174 7.02612L4.374 8.22612C4.48666 8.3397 4.64002 8.4036 4.8 8.4036C4.95996 8.4036 5.11332 8.3397 5.226 8.22612Z" fill="url(#paint0_radial_10207_12479)"/>
  <defs>
    <radialGradient id="paint0_radial_10207_12479" cx="0" cy="0" r="1" gradientTransform="matrix(-1.19445 31.822 -10.6326 -6.52173 7.19445 -14.2489)" gradientUnits="userSpaceOnUse">
      <stop stop-color="#43F45E"/>
      <stop offset="1" stop-color="#107A27"/>
    </radialGradient>
  </defs>
</svg>