<svg width="20" height="21" viewBox="0 0 20 21" fill="none" xmlns="http://www.w3.org/2000/svg">
<g id="Group">
<path id="Vector" d="M19.7012 13.0872C18.3654 18.4445 12.9384 21.7043 7.57992 20.3687C2.22387 19.033 -1.03665 13.6068 0.299444 8.25003C1.63472 2.89222 7.06113 -0.368424 12.418 0.967227C17.7762 2.30288 21.0365 7.72967 19.7007 13.0872H19.7012Z" fill="#F7931A"/>
<path id="Vector_2" d="M14.4105 9.24346C14.6093 7.91297 13.5962 7.19762 12.2107 6.72044L12.6602 4.91794L11.5626 4.64446L11.125 6.39943C10.8368 6.32746 10.5405 6.25984 10.2461 6.19248L10.6866 4.42583L9.58983 4.15234L9.14003 5.95431C8.90127 5.89999 8.66687 5.84621 8.43925 5.78972L8.44061 5.78402L6.92742 5.40625L6.63543 6.57814C6.63543 6.57814 7.44947 6.76471 7.43236 6.77612C7.87673 6.88693 7.9574 7.18105 7.94355 7.41434L7.43018 9.47567L6.7123 12.3523C6.65797 12.4873 6.51999 12.6899 6.20953 12.613C6.22039 12.629 5.41205 12.4139 5.41205 12.4139L4.86719 13.6703L6.29536 14.0263C6.561 14.0929 6.82122 14.1627 7.07735 14.2281L6.62321 16.0515L7.71919 16.325L8.16926 14.5214C8.46831 14.6026 8.75895 14.6776 9.04333 14.7482L8.59516 16.5434L9.6925 16.8169L10.1466 14.9972C12.0178 15.3514 13.4251 15.2085 14.0167 13.5166C14.4939 12.154 13.9933 11.3681 13.0087 10.8553C13.7258 10.6894 14.2658 10.2179 14.4097 9.24373L14.4105 9.24346ZM11.9032 12.7588C11.5637 14.1214 9.26986 13.3851 8.52563 13.2002L9.12808 10.785C9.87204 10.9707 12.2569 11.3382 11.9035 12.7591L11.9032 12.7588ZM12.2422 9.22391C11.9328 10.4634 10.0231 9.83362 9.4035 9.67936L9.94972 7.48876C10.5696 7.64275 12.5649 7.9309 12.2422 9.22391Z" fill="white"/>
</g>
</svg>
