<svg width="20" height="21" viewBox="0 0 20 21" fill="none" xmlns="http://www.w3.org/2000/svg">
<g id="Group">
<g id="Group_2">
<path id="Vector" d="M10 0.667969C15.5229 0.667969 20 5.14503 20 10.668C20 16.1909 15.5229 20.668 10 20.668C4.47706 20.668 0 16.1909 0 10.668C0 5.14503 4.47706 0.667969 10 0.667969Z" fill="#F0B90B"/>
<path id="Vector_2" d="M7.41402 9.59539L8.9281 8.08647L9.24748 7.76709L10.0041 7.01045L12.5806 9.59539L14.0806 8.08647L10.0041 4.00293L5.91406 8.08647L7.41402 9.59539Z" fill="white"/>
<path id="Vector_3" d="M10.0061 9.15694L8.5 10.6631L10.0061 12.1692L11.5123 10.6631L10.0061 9.15694Z" fill="white"/>
<path id="Vector_4" d="M12.5806 11.7471L10.0033 14.3247L9.09811 13.4195L8.93163 13.253L7.41402 11.7471L5.91406 13.247L10.0041 17.3303L14.0806 13.247L12.5806 11.7471Z" fill="white"/>
<path id="Vector_5" d="M4.83818 9.16182L3.33203 10.668L4.83818 12.1741L6.34433 10.668L4.83818 9.16182Z" fill="white"/>
<path id="Vector_6" d="M15.1624 9.16182L13.6562 10.668L15.1624 12.1741L16.6685 10.668L15.1624 9.16182Z" fill="white"/>
</g>
</g>
</svg>
