<svg width="16" height="16" viewBox="0 0 16 16" fill="none" xmlns="http://www.w3.org/2000/svg">
<path d="M15.7642 9.93055C14.6966 14.2136 10.3586 16.8291 6.06762 15.7609C1.78451 14.6901 -0.826698 10.3521 0.240809 6.06896C1.30832 1.78586 5.64376 -0.829552 9.92426 0.238605C14.2178 1.29367 16.829 5.64484 15.7642 9.93055Z" fill="#0033AD"/>
<path d="M8.06993 3.93385C8.12464 3.93696 8.17905 3.92378 8.22627 3.89597C8.27349 3.86816 8.3114 3.82697 8.3352 3.77762C8.35901 3.72826 8.36764 3.67295 8.36001 3.61868C8.35237 3.56442 8.32882 3.51364 8.29232 3.47276C8.25582 3.43188 8.20802 3.40275 8.15496 3.38905C8.1019 3.37535 8.04597 3.37769 7.99424 3.39578C7.94251 3.41387 7.89731 3.44689 7.86436 3.49067C7.8314 3.53445 7.81217 3.58703 7.8091 3.64174C7.80498 3.71506 7.83014 3.78701 7.87905 3.84178C7.92796 3.89656 7.99662 3.92967 8.06993 3.93385Z" fill="white"/>
<path d="M10.4796 4.07097C10.4365 4.07136 10.3942 4.05896 10.3582 4.03534C10.3099 4.0037 10.2762 3.9542 10.2644 3.8977C10.2526 3.84121 10.2637 3.78234 10.2953 3.73403C10.3189 3.69797 10.3526 3.6697 10.3923 3.65282C10.4319 3.63593 10.4757 3.63118 10.518 3.63917C10.5603 3.64717 10.5994 3.66754 10.6301 3.69771C10.6609 3.72788 10.682 3.7665 10.6908 3.80868C10.6996 3.85085 10.6957 3.8947 10.6796 3.93466C10.6635 3.97462 10.6359 4.0089 10.6003 4.03316C10.5647 4.05743 10.5227 4.07059 10.4796 4.07097Z" fill="white"/>
<path d="M5.79315 4.05821C5.83138 4.03858 5.86295 4.00808 5.88388 3.97055C5.90481 3.93301 5.91417 3.89013 5.91078 3.84729C5.90739 3.80445 5.8914 3.76357 5.86483 3.7298C5.83825 3.69603 5.80229 3.67087 5.76145 3.65749C5.72061 3.64412 5.67673 3.64312 5.63532 3.65464C5.59392 3.66615 5.55685 3.68965 5.52877 3.72218C5.5007 3.75472 5.48288 3.79483 5.47755 3.83747C5.47222 3.88012 5.47963 3.92338 5.49884 3.96182C5.51175 3.98755 5.52963 4.01047 5.55144 4.02926C5.57325 4.04805 5.59857 4.06234 5.62593 4.0713C5.65329 4.08026 5.68215 4.08371 5.71085 4.08147C5.73955 4.07922 5.76752 4.07132 5.79315 4.05821Z" fill="white"/>
<path d="M6.00552 8.45295C5.8866 8.3194 5.82555 8.14409 5.8358 7.96556L5.83396 7.96593C5.84151 7.83467 5.88732 7.70849 5.96575 7.60296C6.04417 7.49744 6.15178 7.41719 6.27529 7.37211C6.39881 7.32704 6.53281 7.31912 6.66077 7.34932C6.78873 7.37953 6.90505 7.44654 6.99536 7.54209C7.08568 7.63764 7.14604 7.75755 7.16899 7.887C7.19195 8.01646 7.1765 8.14981 7.12455 8.27059C7.0726 8.39137 6.98641 8.49429 6.87664 8.56665C6.76687 8.63902 6.63831 8.67766 6.50684 8.6778H6.47005C6.29153 8.66737 6.12445 8.5865 6.00552 8.45295Z" fill="white"/>
<path d="M3.20266 7.82469C3.23969 7.80285 3.28236 7.79247 3.32528 7.79488C3.35383 7.79643 3.38179 7.8036 3.40756 7.81599C3.43333 7.82838 3.4564 7.84574 3.47544 7.86707C3.49449 7.8884 3.50912 7.91329 3.51852 7.94029C3.52792 7.9673 3.53188 7.9959 3.53019 8.02444C3.52773 8.06736 3.51259 8.10858 3.4867 8.1429C3.46081 8.17722 3.42533 8.20309 3.38474 8.21725C3.34415 8.23141 3.30028 8.23322 3.25866 8.22245C3.21704 8.21168 3.17955 8.18882 3.15092 8.15675C3.1223 8.12468 3.10382 8.08484 3.09783 8.04227C3.09183 7.9997 3.09859 7.95631 3.11725 7.91759C3.13591 7.87886 3.16563 7.84653 3.20266 7.82469Z" fill="white"/>
<path d="M6.61752 5.11474C6.58479 5.17262 6.53563 5.2195 6.47627 5.24945C6.43682 5.26934 6.39384 5.28127 6.34979 5.28455C6.30573 5.28783 6.26146 5.2824 6.21951 5.26856C6.17755 5.25473 6.13873 5.23276 6.10527 5.20391C6.07181 5.17507 6.04436 5.13991 6.02449 5.10045C5.99459 5.04106 5.98297 4.97414 5.99109 4.90814C5.99921 4.84215 6.02672 4.78004 6.07014 4.72968C6.11356 4.67931 6.17093 4.64295 6.23501 4.62519C6.29909 4.60743 6.36699 4.60907 6.43014 4.62989C6.49329 4.65072 6.54885 4.6898 6.58979 4.7422C6.63073 4.79459 6.65521 4.85795 6.66015 4.92426C6.66509 4.99057 6.65025 5.05686 6.61752 5.11474Z" fill="white"/>
<path d="M4.17734 6.06873C4.22313 6.09884 4.27682 6.1147 4.33163 6.11428C4.38643 6.11387 4.43989 6.09721 4.48522 6.06641C4.53055 6.03562 4.56573 5.99206 4.58631 5.94126C4.60688 5.89047 4.61193 5.83471 4.6008 5.78104C4.58968 5.72737 4.56288 5.67821 4.52381 5.63978C4.48474 5.60135 4.43515 5.57537 4.38131 5.56512C4.32746 5.55488 4.2718 5.56085 4.22134 5.58225C4.17089 5.60366 4.12792 5.63955 4.09787 5.68539C4.05763 5.74677 4.04339 5.82162 4.05829 5.8935C4.07319 5.96537 4.11601 6.0284 4.17734 6.06873Z" fill="white"/>
<path d="M4.39702 7.71838C4.4543 7.68462 4.52031 7.6686 4.58669 7.67235C4.67575 7.67747 4.75914 7.71774 4.81854 7.78431C4.87793 7.85087 4.90847 7.93829 4.90345 8.02736C4.89963 8.09374 4.87622 8.1575 4.83618 8.21058C4.79613 8.26366 4.74125 8.30368 4.67847 8.32557C4.61569 8.34746 4.54782 8.35025 4.48346 8.33359C4.41909 8.31692 4.36111 8.28154 4.31684 8.23193C4.27258 8.18232 4.24402 8.12069 4.23476 8.05485C4.22551 7.98901 4.23599 7.9219 4.26487 7.86201C4.29375 7.80212 4.33974 7.75214 4.39702 7.71838Z" fill="white"/>
<path d="M4.21407 9.93303C4.16518 9.95774 4.12471 9.99639 4.09778 10.0441C4.07085 10.0918 4.05867 10.1464 4.06278 10.201C4.06688 10.2557 4.08709 10.3078 4.12085 10.351C4.15461 10.3941 4.2004 10.4263 4.25243 10.4434C4.30447 10.4605 4.36041 10.4618 4.41319 10.4472C4.46597 10.4325 4.51322 10.4025 4.54896 10.361C4.5847 10.3195 4.60733 10.2683 4.61399 10.2139C4.62065 10.1596 4.61104 10.1044 4.58637 10.0555C4.56998 10.023 4.54735 9.99408 4.51976 9.97033C4.49218 9.94658 4.46018 9.9285 4.42561 9.91713C4.39103 9.90575 4.35455 9.9013 4.31825 9.90403C4.28196 9.90675 4.24655 9.91661 4.21407 9.93303Z" fill="white"/>
<path d="M5.74168 7.04218C5.66339 7.04288 5.58666 7.02034 5.52118 6.97743C5.47766 6.94897 5.44017 6.91219 5.41088 6.86922C5.38158 6.82625 5.36105 6.77792 5.35046 6.72701C5.33987 6.67609 5.33942 6.62358 5.34914 6.57249C5.35887 6.5214 5.37858 6.47273 5.40714 6.42927C5.45007 6.3638 5.51144 6.31254 5.58351 6.28195C5.65557 6.25137 5.73509 6.24284 5.812 6.25744C5.88892 6.27204 5.95977 6.30913 6.01561 6.364C6.07145 6.41887 6.10977 6.48907 6.12571 6.56571C6.14166 6.64236 6.13452 6.72201 6.1052 6.7946C6.07588 6.86719 6.02569 6.92946 5.96099 6.97352C5.89628 7.01759 5.81996 7.04149 5.74168 7.04218Z" fill="white"/>
<path d="M9.66806 5.22297C9.72381 5.25933 9.78909 5.27835 9.85565 5.27762C9.92221 5.2769 9.98706 5.25645 10.042 5.21887C10.0969 5.18129 10.1395 5.12827 10.1643 5.06651C10.1891 5.00474 10.1951 4.937 10.1814 4.87186C10.1677 4.80672 10.135 4.74709 10.0875 4.70052C10.0399 4.65394 9.97964 4.62252 9.91422 4.61021C9.8488 4.5979 9.78121 4.60526 9.71997 4.63136C9.65874 4.65746 9.60662 4.70113 9.5702 4.75685C9.54595 4.79386 9.52925 4.83529 9.52104 4.87877C9.51283 4.92225 9.51329 4.96692 9.52238 5.01022C9.53147 5.05352 9.54902 5.0946 9.57402 5.13111C9.59902 5.16762 9.63098 5.19883 9.66806 5.22297Z" fill="white"/>
<path d="M9.72103 7.32468C9.63274 7.31961 9.54432 7.33197 9.46081 7.36107C9.3773 7.39017 9.30033 7.43544 9.23432 7.49428C9.10099 7.61312 9.02033 7.78006 9.01008 7.95837C8.99984 8.13669 9.06085 8.31176 9.17969 8.44509C9.29853 8.57842 9.46547 8.65908 9.64378 8.66933H9.68277C9.81267 8.66926 9.93977 8.63162 10.0488 8.56095C10.1577 8.49027 10.2439 8.38958 10.297 8.27101C10.35 8.15244 10.3676 8.02105 10.3477 7.8927C10.3278 7.76435 10.2711 7.6445 10.1846 7.54762C10.126 7.48155 10.0548 7.42781 9.97523 7.38953C9.89564 7.35125 9.80923 7.32921 9.72103 7.32468Z" fill="white"/>
<path d="M6.9456 7.20165C6.83927 7.1362 6.75332 7.04236 6.69743 6.9307C6.64603 6.82809 6.6217 6.71405 6.62675 6.5994C6.6318 6.48474 6.66606 6.37328 6.72628 6.27558C6.78649 6.17789 6.87067 6.09719 6.97083 6.04116C7.07099 5.98513 7.1838 5.95562 7.29856 5.95542C7.42315 5.95483 7.54544 5.98892 7.65174 6.0539C7.75804 6.11888 7.84415 6.21216 7.90043 6.32331C7.95243 6.42602 7.97723 6.54034 7.97248 6.65536C7.96773 6.77038 7.93358 6.88226 7.87329 6.98033C7.81301 7.0784 7.72859 7.15939 7.62811 7.21555C7.52762 7.27172 7.41442 7.3012 7.2993 7.30117C7.17443 7.30157 7.05194 7.2671 6.9456 7.20165Z" fill="white"/>
<path d="M11.9766 6.06797C12.0255 6.04329 12.0659 6.00467 12.0929 5.95699C12.1199 5.90931 12.1321 5.85471 12.128 5.80009C12.1239 5.74547 12.1038 5.69328 12.0701 5.65011C12.0363 5.60695 11.9906 5.57475 11.9386 5.55758C11.8866 5.54042 11.8306 5.53906 11.7778 5.55367C11.7251 5.56828 11.6778 5.59822 11.642 5.63969C11.6062 5.68116 11.5835 5.73231 11.5768 5.78667C11.5701 5.84102 11.5796 5.89615 11.6043 5.94509C11.6374 6.01072 11.6952 6.06053 11.765 6.08357C11.8348 6.10661 11.9109 6.101 11.9766 6.06797Z" fill="white"/>
<path d="M10.1028 6.44098C10.1413 6.37285 10.1992 6.31769 10.2692 6.28247C10.3156 6.25904 10.3662 6.24499 10.418 6.24113C10.4699 6.23727 10.522 6.24367 10.5714 6.25997C10.6207 6.27627 10.6664 6.30215 10.7058 6.33612C10.7451 6.37009 10.7774 6.4115 10.8008 6.45796C10.836 6.52788 10.8497 6.60668 10.8401 6.68439C10.8305 6.76209 10.7981 6.83521 10.747 6.89451C10.6959 6.9538 10.6283 6.99661 10.5529 7.01751C10.4774 7.03841 10.3975 7.03646 10.3231 7.01192C10.2488 6.98738 10.1834 6.94134 10.1352 6.87963C10.087 6.81792 10.0582 6.74331 10.0524 6.66523C10.0467 6.58715 10.0642 6.50911 10.1028 6.44098Z" fill="white"/>
<path d="M8.29024 5.62299C8.22282 5.66275 8.14513 5.68163 8.06698 5.67725C7.9621 5.67128 7.86389 5.62389 7.79394 5.54552C7.72398 5.46715 7.68802 5.36421 7.69394 5.25933C7.69843 5.18119 7.72598 5.10613 7.77311 5.04364C7.82024 4.98116 7.88484 4.93405 7.95874 4.90826C8.03265 4.88248 8.11253 4.87918 8.1883 4.89879C8.26408 4.9184 8.33234 4.96003 8.38446 5.01842C8.43658 5.07681 8.47022 5.14934 8.48113 5.22685C8.49204 5.30435 8.47973 5.38335 8.44575 5.45386C8.41177 5.52437 8.35765 5.58323 8.29024 5.62299Z" fill="white"/>
<path d="M5.92224 9.71823C5.99216 9.68298 6.05005 9.62779 6.0886 9.55964C6.12714 9.49148 6.14461 9.41343 6.13879 9.33534C6.13297 9.25726 6.10413 9.18266 6.05591 9.12097C6.00769 9.05928 5.94225 9.01328 5.86789 8.98878C5.79352 8.96428 5.71356 8.96239 5.63811 8.98334C5.56267 9.00429 5.49513 9.04715 5.44405 9.10649C5.39296 9.16582 5.36062 9.23898 5.35111 9.3167C5.34161 9.39442 5.35536 9.47321 5.39064 9.54311C5.43793 9.63682 5.5205 9.7079 5.62018 9.74074C5.71987 9.77358 5.82852 9.76548 5.92224 9.71823Z" fill="white"/>
<path d="M8.21485 6.67853C8.20268 6.52923 8.24065 6.38014 8.32275 6.25485C8.38412 6.16131 8.46781 6.08452 8.56627 6.03141C8.66473 5.97829 8.77486 5.95052 8.88673 5.9506C9.03653 5.95079 9.18198 6.00094 9.30007 6.09309C9.41816 6.18525 9.50214 6.31416 9.53872 6.45942C9.57531 6.60468 9.5624 6.75799 9.50205 6.89509C9.4417 7.03219 9.33735 7.14525 9.20551 7.21637C9.07368 7.28749 8.92189 7.31261 8.77417 7.28776C8.62645 7.2629 8.49124 7.1895 8.38994 7.07915C8.28863 6.96881 8.22702 6.82783 8.21485 6.67853Z" fill="white"/>
<path d="M9.49332 9.07032C9.43938 8.96336 9.35787 8.87273 9.25722 8.80778C9.15657 8.74283 9.0404 8.70591 8.92072 8.70083C8.80103 8.69575 8.68216 8.7227 8.57637 8.7789C8.47058 8.83509 8.38169 8.91849 8.31889 9.0205C8.25608 9.12251 8.22163 9.23943 8.21909 9.3592C8.21656 9.47896 8.24602 9.59724 8.30444 9.70181C8.36286 9.80639 8.44813 9.89349 8.55145 9.95412C8.65477 10.0147 8.77239 10.0467 8.89218 10.0467C8.99756 10.046 9.10134 10.0208 9.19532 9.97313C9.3543 9.89266 9.47492 9.75248 9.53077 9.58327C9.58662 9.41406 9.57315 9.22962 9.49332 9.07032Z" fill="white"/>
<path d="M10.4494 8.95832C10.5277 8.95768 10.6044 8.98027 10.6699 9.02324C10.7575 9.08098 10.8186 9.17109 10.8399 9.27384C10.8612 9.37658 10.841 9.48358 10.7835 9.5714C10.7406 9.63685 10.6792 9.68809 10.6071 9.71863C10.535 9.74918 10.4555 9.75767 10.3786 9.74302C10.3017 9.72837 10.2308 9.69124 10.175 9.63633C10.1192 9.58143 10.0809 9.5112 10.065 9.43454C10.0491 9.35788 10.0563 9.27823 10.0857 9.20565C10.1151 9.13308 10.1653 9.07084 10.23 9.02682C10.2948 8.98279 10.3711 8.95896 10.4494 8.95832Z" fill="white"/>
<path d="M11.959 8.0119C11.9627 7.94551 11.9467 7.87951 11.913 7.82223C11.8792 7.76494 11.8292 7.71896 11.7693 7.69008C11.7094 7.66119 11.6423 7.65072 11.5765 7.65997C11.5106 7.66922 11.449 7.69778 11.3994 7.74205C11.3498 7.78632 11.3144 7.8443 11.2978 7.90866C11.2811 7.97303 11.2839 8.04089 11.3058 8.10367C11.3277 8.16646 11.3677 8.22134 11.4208 8.26138C11.4738 8.30143 11.5376 8.32484 11.604 8.32865C11.693 8.33367 11.7805 8.30313 11.847 8.24374C11.9136 8.18435 11.9539 8.10096 11.959 8.0119Z" fill="white"/>
<path d="M12.7675 7.8021C12.8047 7.78027 12.8474 7.76994 12.8904 7.77241C12.9481 7.77583 13.002 7.80195 13.0404 7.84504C13.0788 7.88814 13.0986 7.94471 13.0954 8.00235C13.0929 8.04535 13.0777 8.08666 13.0518 8.12104C13.0258 8.15542 12.9903 8.18134 12.9496 8.19551C12.9089 8.20969 12.8649 8.21148 12.8232 8.20066C12.7815 8.18984 12.744 8.16691 12.7153 8.13475C12.6867 8.10259 12.6682 8.06265 12.6622 8.01999C12.6563 7.97733 12.6631 7.93386 12.6818 7.89508C12.7006 7.85629 12.7304 7.82394 12.7675 7.8021Z" fill="white"/>
<path d="M12.0135 9.93199C11.9676 9.90197 11.9139 9.88622 11.8592 9.88671C11.8044 9.88721 11.751 9.90394 11.7057 9.93478C11.6604 9.96562 11.6253 10.0092 11.6048 10.06C11.5843 10.1108 11.5793 10.1665 11.5905 10.2202C11.6016 10.2738 11.6284 10.3229 11.6675 10.3613C11.7066 10.3997 11.7561 10.4257 11.81 10.4359C11.8638 10.4461 11.9194 10.4401 11.9699 10.4188C12.0203 10.3974 12.0632 10.3615 12.0933 10.3157C12.1133 10.2853 12.127 10.2512 12.1338 10.2154C12.1406 10.1797 12.1403 10.1429 12.1329 10.1073C12.1255 10.0717 12.1111 10.0378 12.0906 10.0078C12.0701 9.97768 12.0439 9.95193 12.0135 9.93199Z" fill="white"/>
<path d="M5.71156 11.9296C5.75463 11.9293 5.79684 11.9417 5.83285 11.9653C5.85677 11.981 5.87736 12.0013 5.89345 12.0249C5.90954 12.0486 5.92081 12.0752 5.92662 12.1032C5.93243 12.1312 5.93266 12.1601 5.9273 12.1882C5.92194 12.2163 5.9111 12.2431 5.89539 12.267C5.87174 12.303 5.83795 12.3312 5.79829 12.348C5.75863 12.3648 5.71488 12.3694 5.67257 12.3613C5.63026 12.3533 5.5913 12.3328 5.5606 12.3026C5.5299 12.2724 5.50885 12.2338 5.50011 12.1916C5.49136 12.1494 5.49532 12.1056 5.51148 12.0657C5.52764 12.0258 5.55527 11.9915 5.59088 11.9673C5.6265 11.9431 5.66849 11.93 5.71156 11.9296Z" fill="white"/>
<path d="M10.3976 11.9425C10.3592 11.9619 10.3273 11.9923 10.3061 12.0298C10.2849 12.0673 10.2753 12.1102 10.2785 12.1532C10.2817 12.1961 10.2975 12.2372 10.3241 12.2711C10.3506 12.3051 10.3866 12.3304 10.4275 12.3439C10.4684 12.3573 10.5124 12.3584 10.5539 12.3469C10.5954 12.3353 10.6326 12.3118 10.6607 12.2791C10.6888 12.2465 10.7066 12.2062 10.7118 12.1635C10.7171 12.1207 10.7095 12.0774 10.6901 12.0389C10.6773 12.0133 10.6595 11.9906 10.6378 11.9719C10.6162 11.9532 10.591 11.939 10.5639 11.93C10.5367 11.9211 10.508 11.9176 10.4795 11.9197C10.451 11.9218 10.4232 11.9296 10.3976 11.9425Z" fill="white"/>
<path d="M7.97592 9.32099C7.9881 9.4703 7.95013 9.61942 7.86802 9.74472C7.80695 9.83846 7.72338 9.91542 7.62493 9.96856C7.52648 10.0217 7.41629 10.0494 7.30441 10.049C7.1546 10.0489 7.00911 9.99878 6.89096 9.90667C6.77281 9.81456 6.68876 9.68567 6.65212 9.54041C6.61547 9.39515 6.62832 9.24182 6.68863 9.10469C6.74894 8.96755 6.85327 8.85445 6.9851 8.78329C7.11693 8.71213 7.26873 8.68696 7.41647 8.71179C7.56421 8.73661 7.69944 8.81001 7.80078 8.92035C7.90211 9.03069 7.96374 9.17168 7.97592 9.32099Z" fill="white"/>
<path d="M6.52259 10.7781C6.46695 10.7417 6.40177 10.7227 6.33528 10.7233C6.26879 10.7239 6.20399 10.7443 6.14905 10.7817C6.09412 10.8192 6.05153 10.8721 6.02666 10.9338C6.00179 10.9954 5.99576 11.0631 6.00934 11.1282C6.02291 11.1933 6.05548 11.2529 6.10292 11.2995C6.15036 11.346 6.21055 11.3775 6.27588 11.3899C6.3412 11.4023 6.40874 11.395 6.46994 11.369C6.53114 11.3431 6.58326 11.2995 6.61972 11.2439C6.66855 11.1692 6.68574 11.0783 6.66753 10.9909C6.64932 10.9036 6.59719 10.8271 6.52259 10.7781Z" fill="white"/>
<path d="M7.9361 12.1047C7.98331 12.0769 8.0377 12.0637 8.09239 12.0668C8.12873 12.0689 8.1643 12.0781 8.19707 12.0939C8.22985 12.1098 8.25919 12.1319 8.28341 12.159C8.30763 12.1862 8.32627 12.2179 8.33825 12.2522C8.35023 12.2866 8.35532 12.323 8.35323 12.3593C8.35008 12.414 8.33079 12.4665 8.2978 12.5103C8.2648 12.554 8.21958 12.587 8.16785 12.605C8.11612 12.623 8.06021 12.6253 8.00717 12.6116C7.95414 12.5978 7.90638 12.5687 7.86991 12.5278C7.83345 12.4869 7.80993 12.4361 7.80232 12.3819C7.79472 12.3276 7.80337 12.2723 7.82718 12.223C7.85099 12.1737 7.8889 12.1325 7.9361 12.1047Z" fill="white"/>
<path d="M8.09528 10.3237C8.01706 10.319 7.93919 10.3375 7.87154 10.3771C7.80389 10.4166 7.74949 10.4753 7.71523 10.5458C7.68098 10.6163 7.66842 10.6954 7.67913 10.773C7.68984 10.8506 7.72335 10.9233 7.77541 10.9819C7.82748 11.0404 7.89575 11.0822 7.97158 11.102C8.04742 11.1217 8.1274 11.1185 8.20141 11.0927C8.27541 11.0669 8.3401 11.0198 8.38729 10.9572C8.43448 10.8947 8.46204 10.8195 8.46648 10.7413C8.47251 10.6367 8.43682 10.534 8.36723 10.4557C8.29764 10.3775 8.19983 10.33 8.09528 10.3237Z" fill="white"/>
<path d="M9.57325 10.8865C9.60587 10.8285 9.655 10.7814 9.7144 10.7512C9.75374 10.7312 9.79666 10.7191 9.84068 10.7156C9.88471 10.7121 9.92899 10.7174 9.97099 10.7311C10.013 10.7447 10.0519 10.7665 10.0854 10.7953C10.119 10.824 10.1465 10.859 10.1665 10.8984C10.1968 10.9577 10.2088 11.0247 10.201 11.0909C10.1932 11.157 10.166 11.2194 10.1227 11.27C10.0795 11.3207 10.0221 11.3574 9.95803 11.3754C9.89391 11.3935 9.82588 11.3921 9.76254 11.3715C9.6992 11.3509 9.64339 11.312 9.6022 11.2596C9.561 11.2073 9.53626 11.1439 9.53111 11.0775C9.52595 11.0111 9.54062 10.9446 9.57325 10.8865Z" fill="white"/>
</svg>
