<svg width="12" height="12" viewBox="0 0 12 12" fill="none" xmlns="http://www.w3.org/2000/svg">
<path d="M1.24211 11.7984C0.954195 11.8151 0.671046 11.7194 0.452366 11.5314C0.0210862 11.0976 0.0210862 10.3969 0.452366 9.96306L9.89598 0.519401C10.3446 0.0996596 11.0484 0.122993 11.4682 0.571562C11.8477 0.977201 11.8699 1.60068 11.52 2.03218L2.02071 11.5314C1.80485 11.7167 1.52624 11.8122 1.24211 11.7984Z" fill="#9E90CF"/>
<path d="M10.6746 11.7984C10.3828 11.7971 10.1032 11.6813 9.89598 11.4758L0.45233 2.03214C0.0527712 1.56555 0.107093 0.863356 0.573684 0.46376C0.990129 0.107132 1.6043 0.107132 2.02071 0.46376L11.52 9.90742C11.9684 10.3273 11.9916 11.0312 11.5718 11.4796C11.5551 11.4975 11.5378 11.5147 11.52 11.5314C11.2874 11.7337 10.9813 11.8304 10.6746 11.7984Z" fill="#9E90CF"/>
</svg>
