<svg width="87" height="89" viewBox="0 0 87 89" fill="none" xmlns="http://www.w3.org/2000/svg">
<g id="Group" filter="url(#filter0_d_489_116358)">
<path id="Vector" d="M62.7999 41.9492C62.6343 44.6 62.0379 47.0767 61.1018 49.2967C60.8036 50.0091 60.4723 50.7049 60.0995 51.3676C59.354 52.726 58.4677 53.9686 57.482 55.0537C57.482 55.0537 57.4571 55.0703 57.4406 55.0868C57.0098 55.559 56.5542 56.0063 56.0903 56.4205C56.0738 56.437 56.0572 56.4536 56.0406 56.4702C55.378 57.05 54.6738 57.5719 53.9366 58.0357C53.9118 58.0523 53.8952 58.0689 53.8704 58.0772C51.7167 59.4108 49.2896 60.1895 46.73 60.264H46.6803C46.5644 60.264 46.4484 60.264 46.3324 60.264C46.1502 60.264 45.9679 60.264 45.794 60.2557C45.7029 60.2557 45.6034 60.2474 45.504 60.2392C45.4212 60.2392 45.3301 60.2309 45.2473 60.2226C45.1479 60.2226 45.0568 60.206 44.9574 60.1977C44.8994 60.1977 44.8414 60.1812 44.7834 60.1812C43.9385 60.09 43.1018 59.9161 42.2983 59.6676C41.7765 59.5102 41.2546 59.3114 40.7493 59.096C34.9426 56.5447 30.5607 49.9842 30.2128 41.941C30.1548 40.5079 30.2128 39.0914 30.4116 37.7247C31.3642 30.8162 35.3485 24.9764 40.8404 22.4665C42.0664 21.8949 43.3752 21.5056 44.7254 21.3068C44.7751 21.3068 44.8165 21.2903 44.8662 21.2903C44.8994 21.2903 44.9325 21.2737 44.9574 21.2737C45.4958 21.2074 46.0508 21.166 46.6058 21.1577H46.7217C46.8211 21.1577 46.9288 21.1577 47.0282 21.1577C51.7167 21.2571 55.8667 23.7173 58.7328 27.5608C58.7908 27.6271 58.8321 27.6851 58.857 27.7265C58.8984 27.7762 58.915 27.8011 58.915 27.8011C61.6568 31.5866 63.1396 36.5898 62.8082 41.9327L62.7999 41.9492Z" fill="url(#paint0_linear_489_116358)"/>
<path id="Vector_2" d="M47.3451 60.2279L46.7155 60.2693H46.6658L43.3358 60.493H43.2613L41.7868 60.5924H41.762L40.7928 60.6586H40.7266V60.5924V60.2942V59.7889V59.1096L40.7846 37.291L40.8177 22.4801V21.453V20.7157V20.6743L43.079 20.8566L46.9972 21.1713V21.1879V21.4944V21.5855V21.9997V22.1985V22.2482L47.08 32.8427L47.2871 58.0411V59.2422L47.2954 59.3581V59.3996L47.3036 59.8634V60.0788V60.2196L47.3451 60.2279Z" fill="url(#paint1_linear_489_116358)"/>
<path id="Vector_3" d="M57.6747 41.9482C57.5504 44.6735 56.9706 47.2331 56.0429 49.5193C56.0429 49.5193 56.0429 49.5359 56.0429 49.5442C56.0097 49.627 55.9186 49.8672 55.7529 50.2234C55.6784 50.4056 55.5956 50.5796 55.5127 50.7453C54.7258 52.3854 53.7484 53.8764 52.6218 55.1604C52.4644 55.3426 52.307 55.5248 52.1413 55.6988C50.7332 57.1898 49.1179 58.3909 47.3535 59.2358C46.5252 59.6334 45.6719 59.9482 44.7856 60.1801C44.5454 60.2464 44.3052 60.3044 44.0567 60.3541C43.8496 60.3955 43.6508 60.4369 43.4354 60.4701C43.4105 60.4701 43.3857 60.4784 43.3609 60.4866C42.6402 60.6026 41.9112 60.6606 41.1657 60.6606C41.0498 60.6606 40.9338 60.6606 40.8178 60.6606H40.7516C39.2688 60.6192 37.8358 60.3293 36.469 59.8488C36.2868 59.7908 36.1045 59.7246 35.9306 59.6583C35.8974 59.65 35.856 59.6334 35.8229 59.6169C34.2656 58.9873 32.8077 58.101 31.4906 56.9827C31.4906 56.9744 31.4741 56.9662 31.4658 56.9662C30.4304 56.0881 29.4777 55.0775 28.6328 53.951C26.2389 50.7536 24.6485 46.6035 24.3586 41.9482C24.1432 38.4609 24.6899 35.0978 25.8496 32.124C25.8496 32.124 25.891 32.008 25.9821 31.8092C27.9453 26.9468 31.5404 23.1613 36.0051 21.5377C36.0134 21.5377 36.03 21.5377 36.0383 21.5212C36.3033 21.4218 36.5767 21.3306 36.8501 21.2561C36.9992 21.2147 37.14 21.1733 37.2808 21.1318C37.5376 21.0656 37.7944 21.0076 38.0511 20.9579C38.2002 20.9248 38.3577 20.8999 38.4985 20.8751C39.2688 20.7425 40.0558 20.668 40.8592 20.668C41.6627 20.668 42.3834 20.7342 43.1206 20.8502C43.7502 20.9496 44.3715 21.0904 44.9679 21.2809C45.001 21.2809 45.0175 21.2809 45.0424 21.2975C45.2743 21.3638 45.5063 21.4466 45.7382 21.5295C45.7465 21.5295 45.7631 21.5295 45.7796 21.546C46.2021 21.7034 46.6329 21.8774 47.047 22.0762C53.6904 25.2404 58.0889 33.1429 57.683 41.9399L57.6747 41.9482Z" fill="url(#paint2_linear_489_116358)"/>
<g id="Vector_4" style="mix-blend-mode:multiply" opacity="0.2">
<path d="M51.2976 26.5078C51.1651 27.3527 49.674 30.1856 47.1227 32.8529C45.4495 34.6007 43.3206 36.2823 40.8024 37.2929C39.7421 37.7236 38.6073 38.0301 37.3896 38.1792C34.4904 38.5354 32.1876 38.2786 30.4067 37.7485C27.0684 36.7379 25.5609 34.7084 25.6106 33.7972C25.6106 33.7972 26.7205 30.4673 29.1476 27.1705C30.8043 24.9174 33.0739 22.6725 35.9814 21.5543C35.9897 21.5543 36.0063 21.5543 36.0146 21.5377C36.2797 21.4383 36.553 21.3472 36.8264 21.2726C36.9175 21.2395 37.0252 21.2064 37.1246 21.1815C37.1743 21.1649 37.2157 21.1567 37.2571 21.1484C37.5139 21.0821 37.7707 21.0241 38.0275 20.9744C38.1766 20.9413 38.334 20.9164 38.4748 20.8916C39.2783 20.7673 40.0735 20.7094 40.8356 20.7259C42.1941 20.7425 43.4697 20.9579 44.6211 21.314C44.6542 21.314 44.6791 21.3306 44.7123 21.3389C45.5489 21.5957 46.3275 21.9187 47.0316 22.2749C47.3712 22.4406 47.686 22.6228 47.9842 22.8051C48.3156 23.0122 48.6717 23.2607 49.0445 23.534C50.5604 24.6937 51.3804 25.9031 51.281 26.5243L51.2976 26.5078Z" fill="#F42774"/>
</g>
<g id="Vector_5" style="mix-blend-mode:soft-light">
<path d="M26.2803 49.3371C27.0341 50.5299 37.8606 45.5184 42.9798 44.0108C48.1487 42.4949 56.1588 44.1019 56.8795 43.4889C57.6084 42.876 57.2108 33.789 54.3116 29.2745C51.3295 24.6275 51.3047 29.523 48.1486 31.7844C45.0258 34.0126 32.5178 37.8893 29.8422 37.5994C27.1583 37.3095 26.2389 36.0752 25.2449 36.216C24.2509 36.3651 22.5942 43.4972 26.2803 49.3371Z" fill="white"/>
</g>
<path id="Vector_6" d="M51.6845 41.9485C51.5023 48.6995 47.1286 54.0258 41.7444 54.4897C41.4876 54.5145 41.2225 54.5228 40.9574 54.5228C35.217 54.5228 30.3297 49.0226 30.0232 41.9485C29.7002 34.5431 34.4963 28.2725 40.742 28.2725C41.032 28.2725 41.3136 28.289 41.5953 28.3139C47.4351 28.8606 51.8668 34.891 51.6762 41.9485H51.6845Z" fill="url(#paint3_linear_489_116358)"/>
<path id="Vector_7" d="M51.6854 41.9476C51.5032 48.6986 47.1295 54.0249 41.7452 54.4888C36.361 54.0332 31.9128 48.7069 31.656 41.9476C31.3909 34.8818 35.7646 28.8514 41.5961 28.313C47.436 28.8597 51.8676 34.8901 51.6771 41.9476H51.6854Z" fill="#FF6B04"/>
<path id="Vector_8" d="M46.8479 45.0461C46.8479 45.0461 47.7591 49.3369 47.0882 50.7285C47.0219 50.8776 46.9308 50.9936 46.8231 51.0764C46.6906 51.1758 45.2741 51.2172 45.0753 51.2255C44.2304 51.2504 44.1061 50.5131 43.1038 49.8919C42.9133 49.7759 42.7394 49.6599 42.582 49.5523C42.1347 49.2623 41.8364 49.0387 41.8364 49.0387C41.8364 49.0387 40.4448 50.0824 39.1112 50.7285C38.7219 50.9108 38.3326 51.0681 37.9847 51.151C37.6782 51.2255 35.831 51.2752 35.7647 51.2255C34.6299 50.422 36.6344 45.2946 36.6759 45.0543V45.0461C36.6759 45.0461 32.1282 41.3351 32.3601 39.5872C32.6169 37.7649 38.1834 37.5744 38.1834 37.5744C38.1834 37.5744 38.6805 31.7345 40.1632 30.4423C40.3537 30.2766 41.3063 30.4423 41.4968 30.4423C42.0187 30.4423 42.5737 31.1547 43.0873 32.1238C44.2138 34.2692 45.0753 37.5661 45.0753 37.5661C45.0753 37.5661 45.7794 37.5909 46.6988 37.7069C47.7508 37.8311 49.0762 38.0797 49.9791 38.5352C50.5093 38.8086 50.8903 39.1482 50.9648 39.579C51.1719 40.7552 49.1922 42.8592 47.9248 44.0686C47.3118 44.6484 46.8562 45.0378 46.8562 45.0378L46.8479 45.0461Z" fill="url(#paint4_linear_489_116358)"/>
<path id="Vector_9" d="M48.747 41.7654C48.6973 41.8317 48.6476 41.9062 48.5896 41.9725C48.2169 42.453 47.7861 42.9334 47.3719 43.3641C47.1234 43.6209 46.8749 43.8611 46.6513 44.0765C46.0466 44.6564 45.5827 45.0374 45.5827 45.0374C45.5827 45.0374 45.8312 46.2136 45.9803 47.5224C46.1211 48.7235 46.1626 50.0489 45.8478 50.7199C45.7815 50.869 45.6904 50.9849 45.5827 51.0678C45.4502 51.1589 45.2845 51.2086 45.0857 51.2169C44.2408 51.2417 42.8657 50.5045 41.8552 49.8749C41.6646 49.759 41.4824 49.6513 41.3333 49.5436C40.8777 49.2454 40.5878 49.03 40.5878 49.03C40.5878 49.03 39.1962 50.0737 37.8708 50.7199C37.4815 50.9021 37.1004 51.0595 36.7525 51.1423C36.446 51.2169 36.1727 51.2417 35.949 51.1837C35.9408 51.1837 35.9324 51.1837 35.9242 51.1837C35.833 51.1589 35.7502 51.1258 35.6757 51.0761C34.955 50.5625 35.0296 48.3839 35.187 46.7935C35.2284 46.3462 35.2781 45.9569 35.3195 45.6504C35.3692 45.3273 35.4023 45.1037 35.4106 45.0622V45.054C35.4106 45.054 32.8096 42.95 31.6333 41.1524C31.6333 41.1524 31.6251 41.1359 31.6251 41.1276C31.3435 40.7051 31.1529 40.2992 31.0866 39.9431C31.0866 39.9431 31.0866 39.9403 31.0866 39.9348C31.0701 39.8188 31.0701 39.7028 31.0866 39.5952C31.1115 39.4129 31.1861 39.2472 31.3103 39.0981C31.7825 38.4935 32.9421 38.1207 34.0853 37.9053C35.5017 37.6237 36.9017 37.5823 36.9017 37.5823C36.9017 37.5823 37.0424 36.9527 37.2827 36.0581C37.8542 33.979 38.9891 30.4502 40.1819 30.4502C40.7037 30.4502 41.2587 31.1626 41.7806 32.1317C42.1202 32.7696 42.435 33.5151 42.7083 34.244C43.3627 35.9587 43.7935 37.5823 43.7935 37.5823C43.7935 37.5823 44.4976 37.6071 45.417 37.7231C46.469 37.8473 47.8027 38.0876 48.6973 38.5432C49.2357 38.8165 49.6085 39.1561 49.6831 39.5869C49.7825 40.1667 49.3682 40.9619 48.7635 41.7654H48.747Z" fill="url(#paint5_linear_489_116358)"/>
<path id="Vector_10" d="M25.1803 46.7372C24.6419 44.4095 29.8191 47.3501 26.4477 50.092C26.4477 50.092 25.611 48.5927 25.1803 46.7372Z" fill="white"/>
<g id="Vector_11" style="mix-blend-mode:soft-light">
<path d="M46.7148 21.1751C45.29 21.0342 53.7889 24.4802 55.7852 30.6513C57.707 36.5989 61.8404 34.702 61.8404 34.702C61.8404 34.702 58.5436 21.7052 46.7148 21.1751Z" fill="white"/>
</g>
<g id="Vector_12" style="mix-blend-mode:multiply" opacity="0.7">
<path d="M61.1043 49.3036C60.9635 49.8006 60.6072 50.5296 60.102 51.3745C59.3647 52.6087 58.3128 54.0666 57.1448 55.3506L57.1282 55.3671C56.7886 55.7399 56.4407 56.0961 56.0845 56.4274C56.0679 56.444 56.0514 56.4606 56.0348 56.4771C55.339 57.115 54.6266 57.6699 53.9308 58.0427C53.906 58.0593 53.8894 58.0758 53.8645 58.0841C51.57 59.2935 48.9938 59.8485 47.3454 60.0887C46.5999 60.1964 46.0449 60.2461 45.7881 60.2627C45.6804 60.2627 45.6225 60.271 45.6225 60.271C45.5728 60.2627 45.5314 60.2544 45.4982 60.2461C45.4402 60.2378 45.4071 60.2213 45.3823 60.213C45.2249 60.1053 46.0615 59.9562 47.3454 59.4012C49.5903 58.4403 53.235 56.2286 55.4963 50.7532C55.4963 50.7532 59.9777 48.4256 61.0298 48.6327C61.2037 48.6658 61.2285 48.906 61.1043 49.3036Z" fill="#DE376D"/>
</g>
<path id="Vector_13" d="M45.6997 21.5288C45.6997 21.5288 55.5405 23.9145 57.9261 36.3562C60.1378 47.8868 51.4815 56.5928 51.4815 56.5928C51.4815 56.5928 57.7687 48.6986 56.9155 37.5905C56.0043 25.6374 45.6914 21.5288 45.6914 21.5288H45.6997Z" fill="#FFE016"/>
<path id="Vector_14" d="M57.7225 36.5403C57.0681 35.4883 55.4198 41.1542 57.2918 42.2144C58.203 42.728 58.9816 38.5531 57.7225 36.5403Z" fill="white"/>
<g id="Vector_15" style="mix-blend-mode:soft-light" opacity="0.5">
<path d="M56.0277 49.5522C55.9946 49.6351 55.9035 49.8753 55.7378 50.2315C55.2656 51.2586 54.2384 53.2301 52.6066 55.1684C51.273 56.7589 49.5334 58.3244 47.3383 59.3599C46.5928 59.7078 45.7976 59.9977 44.9444 60.2048C44.7539 60.2462 44.5633 60.2959 44.3728 60.329C44.3728 60.329 44.3563 60.329 44.348 60.329C44.0498 60.387 43.7433 60.4367 43.4203 60.4699C43.3706 60.4782 43.3209 60.4864 43.2712 60.4864C43.2297 60.4864 43.1883 60.4947 43.1469 60.503C42.683 60.5444 42.2274 60.5776 41.7967 60.5858H41.7719C41.4157 60.5941 41.076 60.5858 40.7447 60.5858C38.856 60.5196 37.2407 60.1468 35.9237 59.6581C35.8905 59.6498 35.8492 59.6332 35.816 59.6167C33.215 58.6392 31.7405 57.2476 31.4837 56.9825C31.4837 56.9742 31.4672 56.966 31.4589 56.966C31.4506 56.9494 31.4423 56.9494 31.4423 56.9494C31.0779 56.6263 33.2398 58.2333 36.5035 59.1694C37.746 59.5256 39.2039 59.7906 40.753 59.7823C41.2582 59.7823 41.7801 59.7409 42.302 59.6747C42.4345 59.6581 42.5836 59.6332 42.7161 59.6084C44.4142 59.3185 45.955 58.7552 47.3383 58.0428C52.7143 55.243 55.7792 49.9996 56.036 49.5522H56.0277Z" fill="white"/>
</g>
<g id="Vector_16" style="mix-blend-mode:soft-light" opacity="0.5">
<path d="M48.747 41.7655C48.6973 41.8318 48.6476 41.9063 48.5896 41.9726C48.2169 42.453 47.7861 42.9335 47.3719 43.3642C45.7732 43.4222 44.1911 43.6045 42.8078 44.0103C40.828 44.5902 37.9702 45.7085 35.187 46.7853C35.2284 46.338 35.2781 45.9487 35.3195 45.6422C35.3692 45.3191 35.4023 45.0955 35.4106 45.0541V45.0458C35.4106 45.0458 32.8096 42.9418 31.6333 41.1443C31.6333 41.1443 31.6251 41.1277 31.6251 41.1194C31.3435 40.697 31.1529 40.2911 31.0866 39.9349C31.0866 39.9349 31.0866 39.9321 31.0866 39.9266C31.0701 39.8106 31.0701 39.6946 31.0866 39.587C31.1115 39.4047 31.1861 39.2391 31.3103 39.09C31.7825 38.4853 32.9421 38.1125 34.0853 37.8971C35.5017 37.6155 36.9017 37.5741 36.9017 37.5741C36.9017 37.5741 37.0424 36.9445 37.2827 36.0499C39.0967 35.5115 40.9937 34.882 42.7083 34.2358C43.3627 35.9505 43.7935 37.5741 43.7935 37.5741C43.7935 37.5741 44.4976 37.5989 45.417 37.7149C46.469 37.8392 47.8027 38.0794 48.6973 38.535C49.2357 38.8083 49.6085 39.1479 49.6831 39.5787C49.7825 40.1585 49.3682 40.9537 48.7635 41.7572L48.747 41.7655Z" fill="white"/>
</g>
<path id="Vector_17" d="M33.7422 51.2158C33.7422 51.2158 41.6115 57.3207 47.7909 51.5554C47.7909 51.5554 41.0316 58.6958 33.7422 51.2158Z" fill="#FFE016"/>
<g id="Vector_18" style="mix-blend-mode:multiply" opacity="0.5">
<path d="M30.332 37.7063C30.7711 39.9677 32.4609 32.6699 39.3693 30.3754C46.3854 28.0477 51.3307 38.1453 51.3307 38.1453C51.3307 38.1453 50.1958 28.23 40.4793 28.23C32.8833 28.23 30.332 37.7063 30.332 37.7063Z" fill="#D42F55"/>
</g>
<g id="Vector_19" style="mix-blend-mode:multiply" opacity="0.7">
<path d="M46.8459 45.0456H45.5703C45.5703 45.0456 47.9063 42.9416 49.1654 41.1607C50.4327 39.3632 50.8138 40.4814 50.8138 40.4814C50.8138 40.4814 49.4884 43.1653 46.8542 45.0456H46.8459Z" fill="#DE376D"/>
</g>
<path id="Vector_20" d="M44.7287 37.6386C44.7287 37.6386 43.801 38.293 44.7287 39.3947C45.6482 40.4881 48.1996 39.5438 48.4978 38.8231C48.796 38.1025 46.021 37.6138 44.737 37.6386H44.7287Z" fill="white"/>
<g id="Vector_21" style="mix-blend-mode:soft-light">
<path d="M48.611 58.8376C47.9732 59.2186 51.5268 59.2849 53.0013 58.5062C54.484 57.7193 56.6129 56.1371 56.9359 55.168C57.259 54.1905 55.2295 54.381 54.0035 54.6792C52.7776 54.9775 51.6096 57.0318 48.6193 58.8376H48.611Z" fill="white"/>
</g>
<g id="Group_2">
<path id="Vector_22" d="M57.3016 47.0727C56.1171 46.6834 54.4604 49.1768 55.3053 51.2393C56.1419 53.2771 60.0103 47.9508 57.3016 47.0727Z" fill="url(#paint6_linear_489_116358)"/>
<g id="Vector_23" style="mix-blend-mode:multiply" opacity="0.7">
<path d="M55.4457 48.8302C55.3381 50.3378 57.119 50.4289 57.7983 49.642C58.4858 48.855 58.4692 47.0741 57.1439 47.0327C55.8268 46.9995 55.4375 48.8219 55.4375 48.8219L55.4457 48.8302Z" fill="#DE376D"/>
</g>
<path id="Vector_24" d="M55.082 50.1305C55.4714 49.2276 56.5151 50.3376 57.1529 50.3873C57.7907 50.437 56.6891 51.9197 55.9518 51.7043C55.2146 51.489 55.082 50.1388 55.082 50.1388V50.1305Z" fill="#FF9500"/>
</g>
<g id="Group_3">
<path id="Vector_25" d="M53.347 47.7205C52.1542 47.3394 50.9531 49.1369 51.4584 50.3381C51.9554 51.5309 55.4262 48.3749 53.347 47.7205Z" fill="url(#paint7_linear_489_116358)"/>
<g id="Vector_26" style="mix-blend-mode:multiply" opacity="0.7">
<path d="M52.8248 47.6614C51.9964 47.9016 51.7231 49.1442 52.0461 49.5169C52.3692 49.8814 53.943 49.4341 54.001 48.5892C54.059 47.736 53.1478 47.5703 52.8165 47.6614H52.8248Z" fill="#DE376D"/>
</g>
<path id="Vector_27" d="M51.332 49.9149C51.5474 48.8132 51.9947 49.9149 52.6408 50.0391C53.2786 50.1634 51.3734 51.3893 51.332 49.9149Z" fill="#FF9500"/>
</g>
<g id="Group_4">
<path id="Vector_28" d="M33.0584 31.8535C32.0892 31.5222 31.2112 33.0215 31.6668 34.0403C32.1141 35.0509 34.7399 32.4251 33.0584 31.8535Z" fill="url(#paint8_linear_489_116358)"/>
<g id="Vector_29" style="mix-blend-mode:multiply" opacity="0.7">
<path d="M32.6336 31.8044C31.9875 31.9949 31.8218 33.0387 32.0952 33.3534C32.3685 33.6682 33.6028 33.3037 33.6111 32.5913C33.6193 31.879 32.8904 31.7299 32.6253 31.8044H32.6336Z" fill="#DE376D"/>
</g>
<path id="Vector_30" d="M31.5508 33.6762C31.675 32.7485 32.0809 33.6762 32.5945 33.7922C33.1081 33.8999 31.6419 34.9105 31.5508 33.6762Z" fill="#FF9500"/>
</g>
<g id="Vector_31" style="mix-blend-mode:multiply" opacity="0.8">
<path d="M58.8587 27.7498C58.8173 27.6918 58.7758 27.642 58.7344 27.584C58.7924 27.6503 58.8339 27.7084 58.8587 27.7498Z" fill="#D42F55"/>
</g>
<g id="Vector_32" style="mix-blend-mode:multiply" opacity="0.8">
<path d="M58.726 27.5842C58.3615 27.1203 57.4089 26.0352 55.8102 24.8921C55.8102 24.8921 55.8019 24.8921 55.7936 24.8838C53.8553 23.5005 50.9726 22.0426 47.0297 21.5041C46.98 21.4876 46.9137 21.4876 46.864 21.4793C46.2759 21.4047 45.6629 21.3468 45.0334 21.3136C44.9754 21.3136 44.9174 21.3136 44.8594 21.3136C44.7849 21.3136 44.702 21.3136 44.6275 21.3136C43.65 21.2722 42.6312 21.2971 41.5543 21.3882C41.3141 21.4047 41.0739 21.4296 40.8337 21.4627C35.2009 22.1171 31.465 24.7181 29.1457 27.17C27.2405 29.1746 26.2879 31.0964 25.9648 31.8254C27.928 26.963 31.523 23.1774 35.9878 21.5538C35.9961 21.5538 36.0127 21.5538 36.021 21.5373C36.2861 21.4379 36.5594 21.3468 36.8328 21.2722C36.9239 21.2391 37.0315 21.2059 37.1309 21.1811C37.1807 21.1645 37.2221 21.1562 37.2635 21.148C37.5203 21.0817 37.7771 21.0237 38.0339 20.974C38.183 20.9409 38.3403 20.916 38.4812 20.8912C39.2515 20.7586 40.0384 20.6841 40.8419 20.6841C41.6454 20.6841 42.3661 20.7503 43.1034 20.8663L47.0214 21.1811C51.7099 21.2888 55.8516 23.749 58.726 27.5925V27.5842Z" fill="#D42F55"/>
</g>
<g id="Vector_33" style="mix-blend-mode:multiply" opacity="0.8">
<path d="M57.4393 55.0933C57.0086 55.5655 56.553 56.0128 56.0891 56.427C56.0726 56.4435 56.056 56.4601 56.0394 56.4767C55.3436 57.1145 54.6312 57.6695 53.9354 58.0423C53.9105 58.0588 53.894 58.0754 53.8692 58.0837C51.7155 59.4173 49.2884 60.196 46.7288 60.2705H46.6791L43.3491 60.4942C42.6285 60.6101 41.8995 60.6681 41.154 60.6681C41.038 60.6681 40.9221 60.6681 40.8061 60.6681H40.7398C39.2571 60.6267 37.8241 60.3368 36.4573 59.8563C36.275 59.7983 36.0928 59.7321 35.9188 59.6658C35.8857 59.6575 35.8443 59.641 35.8112 59.6244C33.2102 58.6469 31.7357 57.2553 31.4789 56.9902C31.4789 56.982 31.4624 56.9737 31.4541 56.9737C30.4186 56.0956 29.466 55.085 28.6211 53.9585C28.7702 54.1076 31.9014 57.3464 36.4987 59.1771C37.7992 59.6989 39.2239 60.1048 40.7398 60.2954C41.7918 60.4362 42.9018 60.4693 44.0367 60.3699C44.1444 60.3616 44.2438 60.3533 44.3432 60.3368C44.3514 60.3368 44.368 60.3368 44.368 60.3368C44.6579 60.3119 44.9479 60.2788 45.2295 60.2374C45.2792 60.2374 45.3206 60.2291 45.3703 60.2208C46.0496 60.1297 46.7122 60.0054 47.3335 59.8729C52.6929 58.7298 56.0477 56.253 57.1163 55.3667L57.1329 55.3501C57.2737 55.2342 57.3731 55.143 57.431 55.0933H57.4393Z" fill="#D42F55"/>
</g>
<path id="Vector_34" d="M49.9015 22.0921C47.8389 22.001 52.1215 25.3972 53.8031 26.8551C55.468 28.2965 58.2679 27.2859 58.359 27.145C58.4501 27.0042 54.0764 22.2826 49.9098 22.0921H49.9015Z" fill="white"/>
</g>
<defs>
<filter id="filter0_d_489_116358" x="0" y="0.667969" width="86.8555" height="88" filterUnits="userSpaceOnUse" color-interpolation-filters="sRGB">
<feFlood flood-opacity="0" result="BackgroundImageFix"/>
<feColorMatrix in="SourceAlpha" type="matrix" values="0 0 0 0 0 0 0 0 0 0 0 0 0 0 0 0 0 0 127 0" result="hardAlpha"/>
<feOffset dy="4"/>
<feGaussianBlur stdDeviation="12"/>
<feComposite in2="hardAlpha" operator="out"/>
<feColorMatrix type="matrix" values="0 0 0 0 1 0 0 0 0 0.45 0 0 0 0 0.3125 0 0 0 0.5 0"/>
<feBlend mode="normal" in2="BackgroundImageFix" result="effect1_dropShadow_489_116358"/>
<feBlend mode="normal" in="SourceGraphic" in2="effect1_dropShadow_489_116358" result="shape"/>
</filter>
<linearGradient id="paint0_linear_489_116358" x1="46.5146" y1="60.2806" x2="46.5146" y2="21.1743" gradientUnits="userSpaceOnUse">
<stop offset="0.05" stop-color="#FF3F00"/>
<stop offset="0.72" stop-color="#FF6A03"/>
<stop offset="1" stop-color="#FFFF04"/>
</linearGradient>
<linearGradient id="paint1_linear_489_116358" x1="44.0482" y1="60.6669" x2="44.0482" y2="20.666" gradientUnits="userSpaceOnUse">
<stop offset="0.05" stop-color="#FF3F00"/>
<stop offset="0.72" stop-color="#FF6A03"/>
<stop offset="1" stop-color="#FFFF04"/>
</linearGradient>
<linearGradient id="paint2_linear_489_116358" x1="41.0001" y1="60.6689" x2="41.0001" y2="20.668" gradientUnits="userSpaceOnUse">
<stop stop-color="#FFA900"/>
<stop offset="1" stop-color="#FF9600"/>
</linearGradient>
<linearGradient id="paint3_linear_489_116358" x1="40.8497" y1="54.5228" x2="40.8497" y2="28.2725" gradientUnits="userSpaceOnUse">
<stop stop-color="#FF7C04"/>
<stop offset="1" stop-color="#D92000"/>
</linearGradient>
<linearGradient id="paint4_linear_489_116358" x1="45.5392" y1="51.5403" x2="38.1337" y2="31.1712" gradientUnits="userSpaceOnUse">
<stop stop-color="#EA5104"/>
<stop offset="1" stop-color="#D92000"/>
</linearGradient>
<linearGradient id="paint5_linear_489_116358" x1="44.6136" y1="51.4488" x2="37.3324" y2="31.4359" gradientUnits="userSpaceOnUse">
<stop stop-color="#FF9600"/>
<stop offset="1" stop-color="#FFA900"/>
</linearGradient>
<linearGradient id="paint6_linear_489_116358" x1="56.6638" y1="51.6949" x2="56.6638" y2="47.0313" gradientUnits="userSpaceOnUse">
<stop offset="0.04" stop-color="#EF6300"/>
<stop offset="1" stop-color="#E13E00"/>
</linearGradient>
<linearGradient id="paint7_linear_489_116358" x1="52.676" y1="50.6031" x2="52.676" y2="47.6625" gradientUnits="userSpaceOnUse">
<stop offset="0.04" stop-color="#EF6300"/>
<stop offset="1" stop-color="#E13E00"/>
</linearGradient>
<linearGradient id="paint8_linear_489_116358" x1="32.5947" y1="34.2531" x2="32.6205" y2="31.7848" gradientUnits="userSpaceOnUse">
<stop offset="0.04" stop-color="#EF6300"/>
<stop offset="1" stop-color="#E13E00"/>
</linearGradient>
</defs>
</svg>
