<svg width="12" height="12" viewBox="0 0 12 12" fill="none" xmlns="http://www.w3.org/2000/svg">
<g clip-path="url(#clip0_13010_3763)">
<path d="M3.6 0V1.33333H1.2V4H0V1C0 0.447715 0.447715 0 1 0H3.6ZM1 12C0.447716 12 0 11.5523 0 11V8H1.2V10.6667H3.6V12H1ZM12 11C12 11.5523 11.5523 12 11 12H8.4V10.6667H10.8V8H12V11ZM12 4H10.8V1.33333H8.4V0H11C11.5523 0 12 0.447715 12 1V4Z" fill="#9E90CF"/>
</g>
<defs>
<clipPath id="clip0_13010_3763">
<rect width="12" height="12" fill="white"/>
</clipPath>
</defs>
</svg>
