<svg width="84" height="73" viewBox="0 0 84 73" fill="none" xmlns="http://www.w3.org/2000/svg">
    <g filter="url(#filter0_d_489_114793)">
        <path
                d="M58.4904 29.2852H57.4763L21.7649 31.7044L20.9961 32.334L34.9678 36.8211C34.9678 36.8211 49.6487 36.4765 58.4837 29.2852H58.4904Z"
                fill="#404C29"/>
        <path
                d="M59.1513 24.9955C52.9409 31.2721 37.6237 32.7435 34.4953 32.3326C29.7828 31.7096 25.2626 29.2506 22.5319 27.5074C22.5319 27.5074 22.5186 27.5074 22.512 27.4942C21.5509 26.8844 20.8219 26.3674 20.4043 26.0559C20.2916 25.9764 20.1988 25.9035 20.1326 25.8571C20.0862 25.8239 20.0464 25.7908 20 25.751C20.1326 25.7776 20.2585 25.7974 20.3977 25.8173H20.4043C20.4043 25.8173 20.4242 25.8173 20.4441 25.824C26.9063 26.6922 41.342 20.9259 41.342 20.9259C43.9998 22.2117 48.3676 23.2192 52.119 23.9085C52.119 23.9085 52.1058 23.935 52.0925 23.9748C52.0726 24.0344 52.0594 24.1338 52.0925 24.2465C52.119 24.3857 52.2118 24.5514 52.4372 24.7171C52.6161 24.843 52.9144 24.843 53.2325 24.79C53.5904 24.7237 53.9748 24.5912 54.2466 24.4785C54.4057 24.4188 54.525 24.3658 54.5846 24.3327C57.2358 24.7635 59.1513 24.9888 59.1513 24.9888V24.9955Z"
                fill="url(#paint0_linear_489_114793)"/>
        <path
                d="M59.1521 24.9949L58.5754 28.3552C58.5754 28.3552 48.6468 36.2027 34.9137 35.6195L34.4961 32.3386C34.4961 32.3386 52.65 31.4041 59.1521 25.0015V24.9949Z"
                fill="url(#paint1_linear_489_114793)"/>
        <path
                d="M34.9727 36.8211C34.9727 36.8211 51.9601 33.4873 58.4886 29.2852L57.4812 39.1939C57.4812 39.1939 45.9419 42.7664 35.3107 43.6479L34.9727 36.8211Z"
                fill="url(#paint2_linear_489_114793)"/>
        <path
                d="M34.9101 35.6125C28.375 34.9763 20.7462 31.2248 20.7462 31.2248L20.5076 29.4618L20.0039 25.7435C20.0503 25.7833 20.09 25.8164 20.1364 25.8496C20.2226 25.9225 20.3154 25.9954 20.4082 26.0617C21.071 26.5654 21.7802 27.0426 22.5159 27.4933C22.5225 27.4933 22.5291 27.4999 22.5357 27.5066C27.7851 30.6747 34.4992 32.3317 34.4992 32.3317L34.9168 35.6125H34.9101Z"
                fill="url(#paint3_linear_489_114793)"/>
        <path
                d="M34.9717 36.8192C34.9717 36.8192 25.5335 33.2865 21 32.332L22.4714 41.293C22.4714 41.293 31.8897 43.6062 35.3097 43.6526L34.9717 36.8258V36.8192Z"
                fill="url(#paint4_linear_489_114793)"/>
        <path
                d="M33.7109 38.286L35.0697 38.75C35.0697 38.75 48.3719 36.0259 58.1747 32.4004C58.1747 32.4004 46.5625 37.199 35.0365 38.0805L33.7176 38.2926L33.7109 38.286Z"
                fill="#404C29"/>
        <path
                d="M43.355 27.7322C39.3716 29.25 34.1687 26.9302 36.515 25.7306C40.684 23.5897 47.4445 26.1746 43.355 27.7322Z"
                fill="url(#paint5_linear_489_114793)"/>
        <path
                d="M53.7048 26.8632C50.4372 26.2866 52.2997 25.2195 53.2276 24.7887C52.9094 24.8417 52.6112 24.8417 52.4322 24.7158C52.2069 24.5567 52.1141 24.391 52.0876 24.2452L43.3586 22.2833C41.9733 22.681 40.8134 22.8467 39.9385 22.8997C38.7588 22.966 38.096 22.8401 38.096 22.8401C36.1142 23.6089 25.9536 26.1408 25.9536 26.1408C29.1615 27.4001 24.9727 28.1424 24.9727 28.1424L31.415 30.8864C36.956 29.8326 37.7712 31.3504 37.7712 31.3504C45.1813 31.6552 54.1488 26.9295 54.1488 26.9295C53.9898 26.9096 53.844 26.8831 53.7048 26.8632ZM44.5516 28.1689C39.0239 30.2567 31.7729 27.0555 35.0206 25.3786C36.6577 24.5302 38.5798 24.2121 40.3694 24.2319C44.5516 24.285 48.0114 26.2137 45.4729 27.7381C45.2276 27.8839 44.9228 28.0298 44.5582 28.1689H44.5516Z"
                fill="#D8EC38"/>
        <path
                d="M43.355 27.7322C39.3716 29.25 34.1687 26.9302 36.515 25.7306C40.684 23.5897 47.4445 26.1746 43.355 27.7322Z"
                fill="url(#paint6_linear_489_114793)"/>
        <path
                d="M43.355 27.7322C39.3716 29.25 34.1687 26.9302 36.515 25.7306C40.684 23.5897 47.4445 26.1746 43.355 27.7322Z"
                fill="#D8EC38"/>
        <path
                d="M35.0703 38.7462C35.0703 38.7462 52.8796 35.7438 59.998 32.3967L58.2284 31.873L58.1753 32.3967C58.1753 32.3967 52.1572 35.4124 35.0703 38.7462Z"
                fill="url(#paint7_linear_489_114793)"/>
        <g styles="mix-blend-mode:multiply" opacity="0.3">
            <path
                    d="M35.6393 42.3877C35.0296 42.2949 37.124 38.4242 44.0303 36.4093C51.2018 34.3082 57.2531 33.1881 57.2531 33.1881C57.2531 33.1881 57.5779 36.1773 54.1313 38.7953C50.8439 41.2875 39.5631 42.9975 35.646 42.3877H35.6393Z"
                    fill="#91A674"/>
        </g>
        <g styles="mix-blend-mode:multiply" opacity="0.3">
            <path
                    d="M22.7049 39.6377C23.2948 40.8109 33.82 43.5747 34.569 43.6145C35.3179 43.6543 34.8606 39.7371 34.8805 39.0412C34.8937 38.3386 23.0297 36.3569 22.6188 36.1978C22.2079 36.0387 34.1713 38.0735 34.5954 37.8879C35.0263 37.6957 29.6046 35.2169 26.1846 34.1763C22.6983 33.1158 21.207 32.7844 21.207 32.7844C21.207 32.7844 21.9626 38.1531 22.7115 39.6377H22.7049Z"
                    fill="#9193BA"/>
        </g>
        <g styles="mix-blend-mode:multiply" opacity="0.5">
            <path
                    d="M21.1992 28.2354C21.4246 26.7176 33.1627 32.1062 34.0375 32.5635C34.7202 32.9148 34.9655 35.4798 33.9911 35.4201C33.0168 35.3538 22.7435 34.2536 21.1992 28.2421V28.2354Z"
                    fill="#9193BA"/>
        </g>
        <g styles="mix-blend-mode:multiply" opacity="0.3">
            <path
                    d="M37.3275 37.8524C37.0557 37.2227 53.957 32.0529 56.5021 30.7207C59.1069 29.3487 57.5029 32.3976 57.5029 32.3976C57.5029 32.3976 48.184 36.4207 37.3275 37.8524Z"
                    fill="#91A674"/>
        </g>
        <g styles="mix-blend-mode:multiply" opacity="0.3">
            <path
                    d="M35.5691 32.259C35.5691 32.259 40.8118 34.9632 45.6966 33.8497C50.6808 32.7164 55.6253 31.1389 56.7719 29.5946C57.9517 28.0105 58.7603 25.366 58.7603 25.366C58.7603 25.366 49.1763 32.3319 35.5625 32.2524L35.5691 32.259Z"
                    fill="#91A674"/>
        </g>
        <g styles="mix-blend-mode:multiply" opacity="0.5">
            <path
                    d="M30.5105 34.8157C30.5105 34.8157 34.5006 36.4395 35.117 36.5853C35.74 36.7311 41.0622 35.452 41.0622 35.452C41.0622 35.452 35.7002 36.4793 30.5039 34.8157H30.5105Z"
                    fill="#912774"/>
        </g>
        <g styles="mix-blend-mode:multiply" opacity="0.5">
            <path
                    d="M21.7627 31.7037C20.9938 32.3334 25.5804 33.5927 25.5804 33.5927L26.9457 33.7518L21.756 31.7037H21.7627Z"
                    fill="#912774"/>
        </g>
        <g styles="mix-blend-mode:multiply" opacity="0.5">
            <path
                    d="M20.0039 25.7435C20.1298 25.77 20.2624 25.7899 20.4016 25.8098V26.0484V26.0617L20.5076 29.4618L20.0039 25.7435Z"
                    fill="#9193BA"/>
        </g>
        <g styles="mix-blend-mode:multiply" opacity="0.5">
            <path
                    d="M41.3444 20.9259C41.3444 20.9259 40.8871 21.7677 32.8474 24.3724C25.5699 26.732 20.9635 25.9234 20.4531 25.824C26.9154 26.6922 41.351 20.9259 41.351 20.9259H41.3444Z"
                    fill="#9193BA"/>
        </g>
        <g styles="mix-blend-mode:multiply" opacity="0.5">
            <path
                    d="M57.506 25.7441C57.1481 26.0092 55.6369 26.4599 53.7015 26.8642C51.1564 27.3944 47.869 27.8518 45.463 27.7325C44.2037 27.6728 43.1896 27.4541 42.6461 26.9968C41.6188 26.1351 40.8234 25.1343 40.3595 24.2263C40.1209 23.7424 39.9684 23.2917 39.9353 22.9007C39.8756 22.2909 40.0944 21.8402 40.6578 21.6812C40.6578 21.6812 47.1598 22.8609 52.0976 23.9744C52.0777 24.0341 52.0645 24.1335 52.0976 24.2462C52.1241 24.3854 52.2169 24.5511 52.4423 24.7168C52.6212 24.8427 52.9194 24.8427 53.2376 24.7896C53.5955 24.7234 53.9799 24.5908 54.2517 24.4781C56.4124 25.0216 57.8573 25.4988 57.5192 25.7441H57.506Z"
                    fill="#91A674"/>
        </g>
        <g style="mix-blend-mode:multiply" opacity="0.5">
            <path
                    d="M57.4869 39.1907C57.4869 39.1907 54.332 39.7806 48.5325 41.1393C43.0711 42.4185 35.3164 43.6447 35.3164 43.6447C35.3164 43.6447 48.5922 42.1003 57.4869 39.1907Z"
                    fill="#912774"/>
        </g>
        <g style="mix-blend-mode:multiply" opacity="0.5">
            <path d="M22.4727 41.2935L35.311 43.653C35.311 43.653 29.1337 42.9571 22.4727 41.2935Z"
                  fill="#912774"/>
        </g>
        <g style="mix-blend-mode:multiply" opacity="0.5">
            <path
                    d="M35.4168 38.7492C35.4168 38.7492 51.6818 35.9588 54.9162 35.7136C58.1639 35.4683 58.0313 33.7517 58.0313 33.7517L58.1374 33.175C58.1374 33.175 51.4829 35.7069 35.4102 38.7492H35.4168Z"
                    fill="#655174"/>
        </g>
        <path
                d="M59.9994 32.3973V32.7817C59.9994 32.7817 51.1378 36.0758 40.0625 37.8189C40.0625 37.8189 52.8942 35.1611 59.9994 32.3906V32.3973Z"
                fill="url(#paint8_linear_489_114793)"/>
        <g style="mix-blend-mode:multiply" opacity="0.5">
            <path
                    d="M29.8477 24.6661C29.8477 24.6661 35.5941 29.816 41.9105 31.3736C41.9105 31.3736 42.222 35.9668 42.0099 42.7671C42.0099 42.7671 42.4474 33.0969 42.0895 30.903C41.7315 28.7092 33.8576 24.7192 29.8477 24.6661Z"
                    fill="#543404"/>
        </g>
        <path
                d="M39.8984 43.1061L42.7816 42.6554C42.7816 42.6554 42.2977 43.7689 41.4229 43.8418C40.548 43.9147 39.8984 43.1061 39.8984 43.1061Z"
                fill="#6B3381"/>
        <path
                d="M48.1532 42.2445C48.1334 42.3638 48.1135 42.4566 48.0936 42.5097C48.0472 42.6488 47.8948 42.7814 47.6562 42.9007C47.3314 43.0664 46.8542 43.2122 46.3041 43.3382C46.2974 43.3382 46.2842 43.3382 46.2775 43.3382C45.7274 43.4707 45.0978 43.5768 44.488 43.6629C44.0638 43.7292 43.6529 43.7822 43.2751 43.822C42.3869 43.9214 41.6778 43.9811 41.5054 43.9943C41.4789 43.9943 41.4657 43.9943 41.4657 43.9943C41.4657 43.9943 41.8832 43.7955 42.1218 41.88C42.3671 39.9579 42.599 31.726 42.1815 30.6655C40.7631 27.0798 30.0391 24.2099 30.0391 24.2099C30.0391 24.2099 30.5826 23.9514 31.4442 23.6532C32.4052 23.3218 33.7574 22.9373 35.2023 22.8313H35.2155C35.2884 22.8313 35.3746 22.818 35.4475 22.818C35.9114 22.7915 36.382 22.7981 36.846 22.8379C38.218 22.9638 40.1136 23.6068 42.2411 24.3756C45.2568 25.456 48.4647 26.8478 48.8425 27.9746C49.4589 29.7906 48.5443 40.1899 48.1599 42.2313L48.1532 42.2445Z"
                fill="url(#paint9_linear_489_114793)"/>
        <path
                d="M44.4801 43.6746C44.0559 43.7409 43.645 43.7939 43.2672 43.8337C44.2481 43.6149 44.268 30.3922 43.9631 29.2853C43.6649 28.1718 34.5117 23.7179 31.4297 23.6715L32.5564 23.4792C32.5564 23.4792 43.4196 27.3367 44.7717 28.9937C46.1172 30.6441 44.6723 43.4227 44.4867 43.6746H44.4801Z"
                fill="url(#paint10_linear_489_114793)"/>
        <path
                d="M47.6553 42.9048C47.3305 43.0705 46.8533 43.2164 46.3032 43.3423C46.2965 43.3423 46.2833 43.3423 46.2766 43.3423C46.2435 43.3423 46.2236 43.3423 46.2236 43.3423C47.2112 43.1766 47.2311 29.9008 46.9328 28.7873C46.628 27.6738 37.3621 23.0276 34.2734 22.9812L35.1947 22.8288H35.208L35.4002 22.7957C35.4002 22.7957 35.4135 22.7957 35.44 22.8089C36.1757 23.0807 46.4291 26.8984 47.7348 28.4957C49.014 30.0665 47.927 41.5527 47.6619 42.8916L47.6553 42.9048Z"
                fill="url(#paint11_linear_489_114793)"/>
        <path
                d="M29.8465 24.6653C29.8465 24.6653 38.887 25.9445 42.0883 30.9022C42.0883 30.9022 42.3998 40.7182 42.0087 42.7662C41.6177 44.8143 39.8944 43.1043 39.8944 43.1043L39.2449 43.2302C39.2449 43.2302 41.5448 44.8342 42.0021 43.6146C42.4661 42.3951 42.3667 32.4664 42.3468 30.8359C42.3269 29.2055 35.0627 24.7581 30.0188 24.2345L29.8398 24.6719L29.8465 24.6653Z"
                fill="#907A98"/>
        <g style="mix-blend-mode:multiply" opacity="0.5">
            <path
                    d="M42.3527 30.8349C42.2401 29.0255 48.3179 28.0379 48.8349 28.6079C49.3519 29.1779 48.7885 41.4728 47.9202 42.5134C47.211 43.3684 42.7703 43.8389 42.3527 43.607C41.7629 43.2822 42.6974 36.3891 42.3527 30.8283V30.8349Z"
                    fill="#925189"/>
        </g>
        <g style="mix-blend-mode:multiply" opacity="0.3">
            <path
                    d="M42.519 30.6819C42.0351 31.9147 44.905 32.14 46.7343 30.7614C48.5637 29.3894 49.18 28.6338 48.3449 28.4549C47.5032 28.2759 43.089 29.2436 42.5256 30.6752L42.519 30.6819Z"
                    fill="#925189"/>
        </g>
        <g style="mix-blend-mode:multiply" opacity="0.2">
            <path
                    d="M41.3005 24.0557C37.8142 22.9687 35.4878 24.228 35.4149 24.9969C35.342 25.7657 39.9285 27.7939 41.0619 28.8543C42.2019 29.9214 47.8158 27.6547 47.8489 27.3167C47.8821 26.9786 44.356 25.0101 41.2939 24.0557H41.3005Z"
                    fill="#D46BAA"/>
        </g>
        <g style="mix-blend-mode:multiply" opacity="0.8">
            <path
                    d="M48.1533 42.2485C48.1334 42.3678 48.1135 42.4606 48.0936 42.5136C47.7821 43.5012 42.0357 43.9652 41.4922 44.0116C41.9363 43.9453 45.3364 43.6139 46.9867 43.0638C47.8484 42.7788 48.1201 42.3016 48.1466 42.2485H48.1533Z"
                    fill="#925189"/>
        </g>
        <path
                d="M24.1953 28.4355C24.1953 28.4355 30.8962 31.2789 34.0246 31.8688C37.1596 32.4587 41.9185 31.4977 41.9185 31.4977C41.9185 31.4977 36.7487 32.5648 34.4952 32.3328C32.2417 32.1008 24.1953 28.4422 24.1953 28.4422V28.4355Z"
                fill="#C2E238"/>
        <path
                d="M33.0586 38.198C33.0586 38.198 34.5499 38.7812 35.0735 38.7481C35.5971 38.7216 39.5805 37.8202 39.5805 37.8202C39.5805 37.8202 35.2259 38.7216 33.0652 38.1914L33.0586 38.198Z"
                fill="#A7B138"/>
        <path
                d="M51.2148 34.8187C51.2148 34.8187 53.5479 34.2288 55.0657 33.9704C56.5835 33.7052 59.7781 32.3332 59.7781 32.3332C59.7781 32.3332 58.5984 31.982 58.4128 31.9289C58.2272 31.8759 58.1742 32.3995 58.1742 32.3995C58.1742 32.3995 53.4219 34.4078 51.2148 34.8187Z"
                fill="#C2D138"/>
        <path
                d="M21.7623 31.7037L20.2578 32.3997C20.2578 32.3997 24.9106 33.3011 28.2975 34.4676L21.6828 32.0616L21.769 31.7104L21.7623 31.7037Z"
                fill="#91A622"/>
        <path
                d="M20.2578 32.4004L20.45 33.0566C20.45 33.0566 30.2726 34.7997 34.9785 36.8279C34.9785 36.8279 26.5941 33.3548 20.2644 32.407L20.2578 32.4004Z"
                fill="url(#paint12_linear_489_114793)"/>
        <g style="mix-blend-mode:multiply" opacity="0.5">
            <path
                    d="M21.6758 35.7044C21.6758 35.7044 27.7867 37.1891 30.7494 37.4277C33.7121 37.6663 23.3195 35.4791 21.6758 35.7044Z"
                    fill="#9193BA"/>
        </g>
        <path
                d="M52.0938 23.9825C52.0938 23.9825 52.4915 25.0563 53.6912 24.7249C53.6912 24.7249 51.9215 25.3015 52.0938 23.9825Z"
                fill="url(#paint13_linear_489_114793)"/>
        <path
                d="M51.7524 29.1367C51.1294 29.1898 52.4683 28.2751 53.5619 28.4474C53.5619 28.4474 51.9977 29.1169 51.7524 29.1367Z"
                fill="#526800"/>
        <path d="M22.7305 27.6088C22.7305 27.6088 25.3021 27.7082 24.1952 28.4373L22.7305 27.6088Z"
              fill="#526800"/>
        <path
                d="M24.4731 27.0212C23.9694 27.4056 24.7647 27.3128 24.9636 27.1471C25.1624 26.9814 24.8244 26.7561 24.4731 27.0212Z"
                fill="#526800"/>
        <path
                d="M54.3281 34.604C54.3281 34.604 54.4209 34.1268 55.1964 33.8418C55.9719 33.5501 56.754 33.8418 56.754 33.8418C56.754 33.8418 55.3952 34.4582 54.3281 34.604Z"
                fill="#526100"/>
        <g style="mix-blend-mode:multiply" opacity="0.5">
            <path
                    d="M32.2091 32.0808C31.2878 31.9814 34.2306 34.6988 34.5553 34.9441C34.8801 35.1893 34.7012 33.3666 34.2107 32.7237C33.7202 32.0808 32.2091 32.0808 32.2091 32.0808Z"
                    fill="#9193BA"/>
        </g>
        <g style="mix-blend-mode:multiply" opacity="0.5">
            <path
                    d="M29.7102 37.5809C28.4376 37.4351 32.3282 40.6165 33.276 41.2926C34.2238 41.9686 34.8866 39.6753 34.7939 39.1981C34.7011 38.7143 31.4799 37.7797 29.7102 37.5809Z"
                    fill="#9193BA"/>
        </g>
        <g style="mix-blend-mode:multiply" opacity="0.5">
            <path
                    d="M59.1512 24.9949C59.1512 24.9949 58.0377 26.1017 57.0303 26.6651C56.0228 27.2219 57.8455 26.7579 58.2299 26.8374C58.6144 26.917 58.568 28.3552 58.568 28.3552C58.568 28.3552 59.0253 26.0885 59.1446 24.9949H59.1512Z"
                    fill="#9193BA"/>
        </g>
    </g>
    <defs>
        <filter id="filter0_d_489_114793" x="-4" y="0.925903" width="88" height="71.1464"
                filterUnits="userSpaceOnUse" color-interpolation-filters="sRGB">
            <feFlood flood-opacity="0" result="BackgroundImageFix"/>
            <feColorMatrix in="SourceAlpha" type="matrix" values="0 0 0 0 0 0 0 0 0 0 0 0 0 0 0 0 0 0 127 0"
                           result="hardAlpha"/>
            <feOffset dy="4"/>
            <feGaussianBlur stdDeviation="12"/>
            <feComposite in2="hardAlpha" operator="out"/>
            <feColorMatrix type="matrix" values="0 0 0 0 0.576042 0 0 0 0 1 0 0 0 0 0.3125 0 0 0 0.5 0"/>
            <feBlend mode="normal" in2="BackgroundImageFix" result="effect1_dropShadow_489_114793"/>
            <feBlend mode="normal" in="SourceGraphic" in2="effect1_dropShadow_489_114793" result="shape"/>
        </filter>
        <linearGradient id="paint0_linear_489_114793" x1="20.0066" y1="26.6591" x2="59.1513" y2="26.6591"
                        gradientUnits="userSpaceOnUse">
            <stop stop-color="#84A61D"/>
            <stop offset="1" stop-color="#B5CE45"/>
        </linearGradient>
        <linearGradient id="paint1_linear_489_114793" x1="34.4961" y1="30.3171" x2="59.1521" y2="30.3171"
                        gradientUnits="userSpaceOnUse">
            <stop stop-color="#848D04"/>
            <stop offset="1" stop-color="#829A45"/>
        </linearGradient>
        <linearGradient id="paint2_linear_489_114793" x1="34.9727" y1="36.4632" x2="58.4886" y2="36.4632"
                        gradientUnits="userSpaceOnUse">
            <stop stop-color="#848D04"/>
            <stop offset="1" stop-color="#829A45"/>
        </linearGradient>
        <linearGradient id="paint3_linear_489_114793" x1="20.0039" y1="30.6813" x2="34.9102" y2="30.6813"
                        gradientUnits="userSpaceOnUse">
            <stop stop-color="#427038"/>
            <stop offset="0.99" stop-color="#635C06"/>
        </linearGradient>
        <linearGradient id="paint4_linear_489_114793" x1="21" y1="37.9923" x2="35.3097" y2="37.9923"
                        gradientUnits="userSpaceOnUse">
            <stop stop-color="#427038"/>
            <stop offset="0.99" stop-color="#635C06"/>
        </linearGradient>
        <linearGradient id="paint5_linear_489_114793" x1="35.9251" y1="26.5723" x2="44.621" y2="26.5723"
                        gradientUnits="userSpaceOnUse">
            <stop stop-color="#D8EC38"/>
            <stop offset="0.99" stop-color="#FFF47C"/>
        </linearGradient>
        <linearGradient id="paint6_linear_489_114793" x1="35.9251" y1="26.5723" x2="44.621" y2="26.5723"
                        gradientUnits="userSpaceOnUse">
            <stop stop-color="#84A61D"/>
            <stop offset="1" stop-color="#B5CE45"/>
        </linearGradient>
        <linearGradient id="paint7_linear_489_114793" x1="35.0703" y1="35.3063" x2="59.998" y2="35.3063"
                        gradientUnits="userSpaceOnUse">
            <stop stop-color="#84A61D"/>
            <stop offset="1" stop-color="#B5CE45"/>
        </linearGradient>
        <linearGradient id="paint8_linear_489_114793" x1="40.0625" y1="35.1081" x2="59.9994" y2="35.1081"
                        gradientUnits="userSpaceOnUse">
            <stop stop-color="#848D04"/>
            <stop offset="1" stop-color="#829A45"/>
        </linearGradient>
        <linearGradient id="paint9_linear_489_114793" x1="39.5369" y1="44.0142" x2="39.5369" y2="22.8114"
                        gradientUnits="userSpaceOnUse">
            <stop stop-color="#F8E1F2"/>
            <stop offset="1" stop-color="white"/>
        </linearGradient>
        <linearGradient id="paint10_linear_489_114793" x1="38.3824" y1="43.8337" x2="38.3824" y2="23.4792"
                        gradientUnits="userSpaceOnUse">
            <stop stop-color="#DE0086"/>
            <stop offset="1" stop-color="#FF003B"/>
        </linearGradient>
        <linearGradient id="paint11_linear_489_114793" x1="41.2991" y1="43.3555" x2="41.2991" y2="22.8089"
                        gradientUnits="userSpaceOnUse">
            <stop stop-color="#DE0086"/>
            <stop offset="1" stop-color="#FF003B"/>
        </linearGradient>
        <linearGradient id="paint12_linear_489_114793" x1="20.2578" y1="34.6075" x2="34.9718" y2="34.6075"
                        gradientUnits="userSpaceOnUse">
            <stop stop-color="#427038"/>
            <stop offset="0.99" stop-color="#635C06"/>
        </linearGradient>
        <linearGradient id="paint13_linear_489_114793" x1="52.0872" y1="24.4134" x2="53.6912" y2="24.4134"
                        gradientUnits="userSpaceOnUse">
            <stop stop-color="#427038"/>
            <stop offset="0.99" stop-color="#635C06"/>
        </linearGradient>
    </defs>
</svg>