<svg width="32" height="41" viewBox="0 0 32 41" fill="none" xmlns="http://www.w3.org/2000/svg">
<path d="M31.1647 14.449C31.1647 14.449 31.0933 14.8495 30.9682 15.5569C30.4948 18.1863 29.2934 24.6687 28.025 29.9766C27.8955 30.5149 27.6945 31.0355 27.44 31.5382C27.4132 31.5916 27.3864 31.6405 27.3551 31.6939C27.2881 31.823 27.2167 31.952 27.1407 32.0766C25.3811 35.0175 21.7456 37.3533 19.1552 38.7325C17.5876 39.5689 16.3683 40.0761 16.145 40.1651V40.2007C16.145 40.2007 15.8413 40.0806 15.3322 39.8537C12.8758 38.7547 5.386 35.0308 4.12208 30.0033C2.42047 23.2272 0.803711 14.4802 0.803711 14.4802C0.803711 14.4624 0.808177 14.4446 0.812643 14.4268C1.46024 10.3469 3.65313 9.26577 3.65313 9.26577C3.76032 9.3681 8.07017 13.2967 9.41896 11.0009C10.2407 9.6128 10.2229 7.83314 10.0621 6.56958C10.0621 6.56513 10.0621 6.56068 10.0621 6.55178C10.0398 6.36937 10.013 6.19585 9.98169 6.04013C9.87451 5.4128 9.75392 5.01238 9.75392 5.01238L9.89684 4.91895L15.8815 1.01704V0.941406L22.0984 4.98124C22.0984 4.98124 22.0984 4.98124 22.0984 4.98568C22.0761 5.05687 21.9108 5.66195 21.8126 6.51619C21.6652 7.7842 21.6697 9.57276 22.5048 10.9653C23.8983 13.2833 28.2573 9.22573 28.2573 9.22573C28.2573 9.22573 30.4814 10.3202 31.1647 14.4446V14.449Z" fill="url(#paint0_linear_4060_56061)"/>
<path d="M27.328 17.6221C27.328 17.6221 25.9658 23.6507 24.9207 28.6471C24.0632 32.767 17.6275 35.8102 16.3367 36.3841C16.2385 36.4286 16.167 36.4598 16.1313 36.4731V36.4998C16.1313 36.4998 15.8097 36.3664 15.2961 36.1216C14.3538 35.6723 12.7504 34.8403 11.214 33.7236C10.7138 33.3587 10.2226 32.9627 9.75807 32.5401C8.54774 31.4278 7.54732 30.1153 7.23022 28.6693C6.47097 25.2257 5.78765 21.217 5.42589 19.0236C5.3455 18.5297 5.28297 18.1337 5.23831 17.8623C5.19811 17.5998 5.17578 17.4575 5.17578 17.4575C5.17578 17.4441 5.17578 17.4308 5.18471 17.4219C5.74299 14.6056 7.02478 14.9259 7.02478 14.9259C7.09623 14.9926 10.3789 16.6344 11.3659 15.0549C11.9599 14.1028 11.9644 12.8926 11.8661 12.0428C11.8661 12.0428 11.8661 12.0384 11.8661 12.0339C11.8482 11.9094 11.8348 11.7981 11.8125 11.6914C11.7455 11.2731 11.6651 11.0062 11.6651 11.0062L11.7634 10.9484L15.9437 8.36339V8.31445C15.9437 8.31445 16.1536 8.45683 16.4797 8.67483C17.5873 9.42229 19.999 11.0507 19.999 11.0551C19.9856 11.1041 19.8159 12.0829 19.8159 12.0829C19.7266 12.9327 19.7444 14.1428 20.3563 15.095C20.9414 16.007 22.567 15.6778 23.8756 15.2195C24.8716 14.8725 25.6755 14.4543 25.6755 14.4543C25.6755 14.4543 26.0551 14.5744 26.4839 15.2729C26.7786 15.7445 27.0957 16.492 27.3235 17.631L27.328 17.6221Z" fill="url(#paint1_linear_4060_56061)"/>
<path d="M15.4168 12.7489C15.2516 12.7088 15.1177 12.6866 15.0194 12.6866C15.1579 12.6599 15.2606 12.651 15.332 12.6643C15.3633 12.6688 15.3901 12.6999 15.4168 12.7533V12.7489Z" fill="url(#paint2_linear_4060_56061)"/>
<path d="M15.0243 12.6836C14.984 12.6881 14.9393 12.697 14.8945 12.7104C14.908 12.697 14.9214 12.6881 14.9348 12.6881C14.9617 12.6881 14.9885 12.6836 15.0243 12.6881V12.6836Z" fill="url(#paint3_linear_4060_56061)"/>
<path style="mix-blend-mode:multiply" opacity="0.4" d="M27.3275 17.6217C27.3275 17.6217 25.9653 23.6503 24.9202 28.6467C24.9023 28.7446 24.8755 28.8424 24.8487 28.9359C23.759 32.909 17.5957 35.8232 16.3362 36.3793L16.0504 35.8143L16.0146 35.7475L19.1812 26.8893L21.1507 23.9573L19.5251 19.1611L25.6705 14.4316C25.6705 14.4316 26.0501 14.5518 26.4789 15.2503C26.7737 15.7219 27.0908 16.4694 27.3185 17.6083L27.3275 17.6217Z" fill="url(#paint4_linear_4060_56061)"/>
<path style="mix-blend-mode:multiply" opacity="0.4" d="M19.1847 26.8973L16.0495 35.8178L15.9691 36.0492L15.2902 36.1204C13.2537 35.1505 8.03271 32.343 7.22433 28.668C6.2909 24.4369 5.46913 19.3426 5.23242 17.8566L5.86215 17.207L11.9897 24.695L19.1847 26.8928V26.8973Z" fill="url(#paint5_linear_4060_56061)"/>
<path style="mix-blend-mode:multiply" opacity="0.4" d="M26.4885 15.2641L19.5347 19.1749L16.6182 19.8067L11.8752 24.4605L16.2699 19.9046L16.4798 8.66602C17.5874 9.41347 19.9991 11.0419 19.9991 11.0463C19.9857 11.0953 19.816 12.0741 19.816 12.0741C19.7267 12.9239 19.7446 14.134 20.3564 15.0861C21.3747 16.6834 25.6756 14.4455 25.6756 14.4455C25.6756 14.4455 26.0553 14.5656 26.484 15.2641H26.4885Z" fill="url(#paint6_linear_4060_56061)"/>
<g style="mix-blend-mode:soft-light">
<path d="M11.9901 24.6957L19.1851 26.898L21.1547 23.966L19.6183 19.1387L16.5233 19.8683L11.9901 24.6957Z" fill="#DBF2FF"/>
</g>
<path d="M15.3859 21.0518C16.6231 19.9128 20.1737 21.1052 20.1737 21.1052L19.6199 19.1387L16.3774 19.8016L15.3859 21.0518Z" fill="white"/>
<path d="M17.9033 26.5147C18.7832 25.5982 19.7389 26.0876 19.7389 26.0876L19.1985 26.9373L17.9078 26.5147H17.9033Z" fill="white"/>
<path style="mix-blend-mode:multiply" opacity="0.4" d="M24.8499 28.939C23.7602 32.9121 17.5969 35.8263 16.3374 36.3824L16.0516 35.8174L19.1958 26.9369L21.1564 23.9648C21.1564 23.9648 23.7021 27.3062 24.8455 28.939H24.8499Z" fill="url(#paint7_linear_4060_56061)"/>
<path style="mix-blend-mode:multiply" opacity="0.4" d="M7.07695 28.2006C7.03229 28.0849 11.9897 24.6946 11.9897 24.6946L5.74157 16.9531L5.23242 17.8563L7.07248 28.2006H7.07695Z" fill="url(#paint8_linear_4060_56061)"/>
<path style="mix-blend-mode:multiply" opacity="0.4" d="M8.77554 27.2443C13.9563 25.2021 16.904 29.0284 16.0956 31.4443C15.323 33.7534 18.8334 29.0328 18.3198 27.6313C17.7927 26.1943 12.7281 24.9618 11.8081 25.162C10.8925 25.3623 8.77554 27.2443 8.77554 27.2443Z" fill="url(#paint9_linear_4060_56061)"/>
<path style="mix-blend-mode:multiply" opacity="0.4" d="M23.9621 16.8652C20.0364 18.8718 22.859 25.1807 22.4213 25.0606C21.9836 24.9404 20.0944 20.9451 20.0453 19.7705C19.9917 18.5737 23.9666 16.8652 23.9666 16.8652H23.9621Z" fill="url(#paint10_linear_4060_56061)"/>
<path style="mix-blend-mode:multiply" opacity="0.4" d="M19.1868 11.5215C16.7885 18.5333 20.3033 16.8649 20.0979 15.7126C19.888 14.538 19.1868 11.5215 19.1868 11.5215Z" fill="url(#paint11_linear_4060_56061)"/>
<path style="mix-blend-mode:multiply" opacity="0.4" d="M10.5268 26.0742C7.37819 28.766 8.85649 31.3732 8.85649 31.3732C8.85649 31.3732 7.50324 30.252 7.62829 28.7704C7.75781 27.2488 10.5268 26.0787 10.5268 26.0787V26.0742Z" fill="url(#paint12_linear_4060_56061)"/>
<path style="mix-blend-mode:multiply" opacity="0.4" d="M23.0664 25.8967C24.1026 27.3338 25.2012 25.7188 25.2012 25.7188C25.2012 25.7188 25.1834 28.1346 24.6251 27.9923C24.0668 27.8499 23.0664 25.8967 23.0664 25.8967Z" fill="url(#paint13_linear_4060_56061)"/>
<path d="M19.7003 19.5704C20.1915 18.6361 23.7689 15.9844 23.7689 15.9844L18.7713 19.5926L19.7047 19.5704H19.7003Z" fill="white"/>
<g style="mix-blend-mode:soft-light">
<path d="M12.7492 15.2539C8.50635 19.7698 11.1861 23.5649 11.7577 23.7829C12.3294 23.9965 15.8353 20.6196 15.7639 18.8399C15.6924 17.0024 12.7492 15.2539 12.7492 15.2539Z" fill="#DBF2FF"/>
</g>
<g style="mix-blend-mode:soft-light">
<path d="M14.3447 17.6211C12.9468 20.7711 15.3407 20.3351 15.4836 19.1738C15.631 17.9859 14.3447 17.6211 14.3447 17.6211Z" fill="#DBF2FF"/>
</g>
<path d="M22.0985 4.98124C22.0985 4.98124 22.0985 4.98569 22.0985 4.99014C22.027 5.51513 21.9332 6.02679 21.8126 6.52064C21.8126 6.52064 21.8126 6.52064 21.8126 6.52509C20.3745 12.5492 16.0424 16.3488 16.0424 16.3488C16.0424 16.3488 11.0134 12.0999 10.0666 6.57403C10.0666 6.56958 10.0666 6.56514 10.0666 6.56069C10.0354 6.39162 10.0086 6.2181 9.99069 6.04903C9.94603 5.67975 9.91477 5.30603 9.90137 4.9323L15.8816 1.01704V0.941406L22.0985 4.98124Z" fill="url(#paint14_linear_4060_56061)"/>
<path d="M10.4068 5.582C15.1142 11.2725 15.4893 1.96484 14.8239 1.96484C14.1584 1.96484 10.255 5.14154 10.255 5.14154L10.4068 5.582Z" fill="white"/>
<path style="mix-blend-mode:multiply" opacity="0.4" d="M2.76355 19.793C5.41199 21.3546 5.73802 24.1709 5.73802 24.1709C5.73802 24.1709 7.3905 30.4131 6.8233 30.5777C6.2561 30.7423 4.00961 29.0872 3.54066 26.4489C3.04938 23.6815 2.76355 19.793 2.76355 19.793Z" fill="url(#paint15_linear_4060_56061)"/>
<path style="mix-blend-mode:multiply" opacity="0.4" d="M5.96718 30.7772C8.85679 31.3734 13.7606 35.9472 13.9795 36.5344C14.1939 37.1173 13.7428 38.6789 13.7428 38.6789C13.7428 38.6789 9.83935 37.3531 7.51694 34.5991C5.06501 31.6893 5.06055 30.666 5.06055 30.666L5.96718 30.7728V30.7772Z" fill="url(#paint16_linear_4060_56061)"/>
<path style="mix-blend-mode:multiply" opacity="0.4" d="M27.3269 17.6215C27.3269 17.6215 25.9647 23.6501 24.9196 28.6465C24.0621 32.7664 17.6264 35.8096 16.3357 36.3835C16.2374 36.428 16.1659 36.4592 16.1302 36.4725V36.4992C16.1302 36.4992 15.8087 36.3657 15.295 36.121C14.3527 35.6717 12.7493 34.8397 11.213 33.7229L9.75699 32.5395C8.54666 31.4272 7.54624 30.1147 7.22914 28.6687C6.46989 25.2251 5.78656 21.2164 5.4248 19.0229L5.67044 19.1297C9.74806 22.8759 6.97457 26.9736 8.49306 30.2526C9.9267 33.3448 15.8444 34.9732 16.8582 34.8397C17.872 34.7062 23.9282 31.8721 24.6159 28.6198C25.3484 25.1628 23.9415 19.6592 24.7812 17.5547C25.6476 15.3746 25.5762 14.7073 25.5762 14.7073L23.678 15.4191L23.8746 15.2145C24.8705 14.8674 25.6744 14.4492 25.6744 14.4492C25.6744 14.4492 26.054 14.5693 26.4828 15.2679C26.7776 15.7395 27.0947 16.4869 27.3224 17.6259L27.3269 17.6215Z" fill="url(#paint17_linear_4060_56061)"/>
<path style="mix-blend-mode:multiply" opacity="0.4" d="M10.2884 21.7357C3.3256 22.3052 1.52126 15.8405 1.52126 15.8405C1.52126 15.8405 1.03892 7.4272 4.69224 10.813C8.16246 14.0297 10.2884 21.7312 10.2884 21.7312V21.7357Z" fill="url(#paint18_linear_4060_56061)"/>
<path d="M9.80695 19.6722C9.80695 19.6722 4.23764 20.2061 1.16044 15.2008C1.06219 15.0406 0.968399 14.8805 0.87461 14.7069L0.807617 14.4266C1.45521 10.3468 3.6481 9.26562 3.6481 9.26562L5.56856 12.518L9.79802 19.6722H9.80695Z" fill="url(#paint19_linear_4060_56061)"/>
<path style="mix-blend-mode:multiply" opacity="0.4" d="M9.80666 19.6713C9.80666 19.6713 4.23735 20.2052 1.16016 15.1999L1.25395 14.755C5.13951 17.9939 6.36324 15.0397 6.24712 14.3634C6.15333 13.8251 5.74691 12.9041 5.57273 12.5215L9.8022 19.6713H9.80666Z" fill="url(#paint20_linear_4060_56061)"/>
<path d="M2.64355 15.7477C4.17545 15.3072 4.47469 16.3439 4.47469 16.3439C4.47469 16.3439 3.88068 16.3973 3.35814 16.2371C2.83113 16.0814 2.64355 15.7477 2.64355 15.7477Z" fill="white"/>
<path style="mix-blend-mode:multiply" opacity="0.4" d="M16.2022 18.8047C11.7048 13.1943 10.3516 8.03774 10.3516 8.03774L15.644 11.5214L16.3273 11.557L18.5782 10.6449L21.785 6.99219C21.785 6.99219 20.5568 11.4814 19.6948 13.7015C18.8641 15.846 16.2022 18.8002 16.2022 18.8002V18.8047Z" fill="url(#paint21_linear_4060_56061)"/>
<path style="mix-blend-mode:multiply" opacity="0.4" d="M30.9687 15.552C30.4953 18.1814 29.2939 24.6638 28.0255 29.9717C27.896 30.51 27.695 31.0306 27.4404 31.5333C26.7035 30.9549 26.373 30.5323 25.1895 30.5056L28.4587 15.4185L31.0893 14.1816L30.9687 15.5564V15.552Z" fill="url(#paint22_linear_4060_56061)"/>
<path d="M4.49121 10.2305C10.4803 16.8997 9.53798 11.2226 9.53798 11.2226C9.53798 11.2226 9.03777 12.2014 7.61753 11.8233C6.19282 11.4451 4.49121 10.2305 4.49121 10.2305Z" fill="url(#paint23_linear_4060_56061)"/>
<path d="M17.7305 2.70312C20.8434 5.07452 19.5437 9.30121 19.642 9.26117C19.7358 9.22113 21.4151 7.48151 21.5267 7.0366C21.6384 6.59168 21.8304 5.03003 21.8304 5.03003L17.7349 2.70312H17.7305Z" fill="url(#paint24_linear_4060_56061)"/>
<path d="M22.4912 11.9351C23.773 15.4632 26.3231 11.2188 26.3231 11.2188C26.3231 11.2188 24.8448 11.9351 23.7908 11.9351H22.4912Z" fill="url(#paint25_linear_4060_56061)"/>
<path style="mix-blend-mode:multiply" opacity="0.4" d="M21.6816 21.8821C28.6443 22.4516 30.3638 16.0048 30.3638 16.0048C30.3638 16.0048 30.7434 7.61368 27.1348 10.9906C23.7092 14.1984 21.6816 21.8821 21.6816 21.8821Z" fill="url(#paint26_linear_4060_56061)"/>
<path d="M22.1366 19.8227C22.1366 19.8227 27.7059 20.3566 30.7161 15.3646C30.8099 15.2045 30.9037 15.0443 30.993 14.8752L31.0556 14.5949C30.3588 10.524 28.157 9.44727 28.157 9.44727L26.2768 12.6907L22.1366 19.8271V19.8227Z" fill="url(#paint27_linear_4060_56061)"/>
<path style="mix-blend-mode:multiply" opacity="0.4" d="M22.1374 19.8234C22.1374 19.8234 27.7067 20.3573 30.7169 15.3653L30.6142 14.9204C26.7733 18.155 25.5138 15.2052 25.621 14.5289C25.7059 13.9906 26.1034 13.0696 26.2731 12.6914L22.1329 19.8234H22.1374Z" fill="url(#paint28_linear_4060_56061)"/>
<path d="M29.2469 15.9117C27.7105 15.4713 27.4247 16.5079 27.4247 16.5079C27.4247 16.5079 28.0187 16.5613 28.5413 16.4056C29.0638 16.2499 29.2469 15.9162 29.2469 15.9162V15.9117Z" fill="white"/>
<path style="mix-blend-mode:multiply" opacity="0.4" d="M19.1552 38.7321C17.5875 39.5685 16.3683 40.0757 16.145 40.1647V40.2003C16.145 40.2003 15.8413 40.0802 15.3321 39.8533L14.5773 37.424L16.7613 33.5488C18.4852 35.5065 19.0212 37.4285 19.1552 38.7321Z" fill="url(#paint29_linear_4060_56061)"/>
<path d="M15.1398 39.8399C11.6919 38.2204 15.2201 33.8558 15.2201 33.8558L16.7565 33.5488C16.7565 33.5488 18.3375 36.8679 18.2437 38.127C18.1544 39.355 16.1402 40.2003 16.1402 40.2003L15.1353 39.8399H15.1398Z" fill="url(#paint30_linear_4060_56061)"/>
<path style="mix-blend-mode:multiply" opacity="0.4" d="M14.0545 37.5661C15.8454 36.7653 17.8909 37.8509 17.8909 37.8509C17.8909 37.8509 16.8682 40.4091 15.6757 39.8218C14.4698 39.2256 14.0545 37.5661 14.0545 37.5661Z" fill="url(#paint31_linear_4060_56061)"/>
<path style="mix-blend-mode:multiply" opacity="0.4" d="M15.957 11.5975L16.0464 16.3448C16.0464 16.3448 17.9802 14.4316 18.3554 13.3816C18.7395 12.3094 18.5787 10.6543 18.5787 10.6543L15.957 11.602V11.5975Z" fill="url(#paint32_linear_4060_56061)"/>
<path style="mix-blend-mode:multiply" opacity="0.4" d="M9.03871 32.7795C11.2182 34.35 11.0306 35.1598 10.4009 35.1598C9.77116 35.1598 7.81051 33.5625 8.23033 33.0153C8.65462 32.4636 9.03871 32.7795 9.03871 32.7795Z" fill="url(#paint33_linear_4060_56061)"/>
<path style="mix-blend-mode:multiply" opacity="0.4" d="M27.3554 31.6889C27.2884 31.818 27.2169 31.947 27.141 32.0716C26.0021 31.9915 23.769 32.0716 21.6074 33.5042C21.6074 33.5042 23.9968 30.4788 25.3277 30.6968C26.1049 30.8258 26.8641 31.3108 27.3554 31.6889Z" fill="url(#paint34_linear_4060_56061)"/>
<defs>
<linearGradient id="paint0_linear_4060_56061" x1="25.6963" y1="41.1817" x2="7.9995" y2="-0.347442" gradientUnits="userSpaceOnUse">
<stop stop-color="#F0E6DD"/>
<stop offset="1" stop-color="#96A5D8"/>
</linearGradient>
<linearGradient id="paint1_linear_4060_56061" x1="12.8397" y1="27.8062" x2="29.5709" y2="-9.17432" gradientUnits="userSpaceOnUse">
<stop stop-color="#3DFFFF"/>
<stop offset="0.32" stop-color="#4A9EFF"/>
<stop offset="1" stop-color="#6540FF"/>
</linearGradient>
<linearGradient id="paint2_linear_4060_56061" x1="15.2204" y1="12.7222" x2="15.2381" y2="12.6376" gradientUnits="userSpaceOnUse">
<stop stop-color="#54D9FF"/>
<stop offset="1" stop-color="#0063FF"/>
</linearGradient>
<linearGradient id="paint3_linear_4060_56061" x1="14.9527" y1="12.7239" x2="14.9617" y2="12.6702" gradientUnits="userSpaceOnUse">
<stop stop-color="#54D9FF"/>
<stop offset="1" stop-color="#0063FF"/>
</linearGradient>
<linearGradient id="paint4_linear_4060_56061" x1="12.2318" y1="11.9757" x2="26.0745" y2="33.011" gradientUnits="userSpaceOnUse">
<stop stop-color="white"/>
<stop offset="0.98" stop-color="#720090"/>
</linearGradient>
<linearGradient id="paint5_linear_4060_56061" x1="2.63758" y1="26.924" x2="41.484" y2="25.6552" gradientUnits="userSpaceOnUse">
<stop stop-color="white"/>
<stop offset="0.98" stop-color="#720090"/>
</linearGradient>
<linearGradient id="paint6_linear_4060_56061" x1="8.45855" y1="16.7457" x2="50.8958" y2="15.3604" gradientUnits="userSpaceOnUse">
<stop stop-color="white"/>
<stop offset="0.98" stop-color="#720090"/>
</linearGradient>
<linearGradient id="paint7_linear_4060_56061" x1="17.6817" y1="20.1519" x2="20.5194" y2="32.7833" gradientUnits="userSpaceOnUse">
<stop stop-color="white"/>
<stop offset="0.98" stop-color="#720090"/>
</linearGradient>
<linearGradient id="paint8_linear_4060_56061" x1="5.03144" y1="23.3955" x2="16.3485" y2="16.6527" gradientUnits="userSpaceOnUse">
<stop stop-color="white"/>
<stop offset="0.98" stop-color="#720090"/>
</linearGradient>
<linearGradient id="paint9_linear_4060_56061" x1="11.5133" y1="30.0116" x2="26.5967" y2="21.0227" gradientUnits="userSpaceOnUse">
<stop stop-color="white"/>
<stop offset="0.98" stop-color="#720090"/>
</linearGradient>
<linearGradient id="paint10_linear_4060_56061" x1="26.7311" y1="24.6023" x2="16.993" y2="14.559" gradientUnits="userSpaceOnUse">
<stop stop-color="white"/>
<stop offset="0.98" stop-color="#720090"/>
</linearGradient>
<linearGradient id="paint11_linear_4060_56061" x1="26.4175" y1="15.7927" x2="18.4618" y2="13.9776" gradientUnits="userSpaceOnUse">
<stop stop-color="white"/>
<stop offset="0.98" stop-color="#720090"/>
</linearGradient>
<linearGradient id="paint12_linear_4060_56061" x1="16.6366" y1="30.292" x2="7.69417" y2="28.2574" gradientUnits="userSpaceOnUse">
<stop stop-color="white"/>
<stop offset="0.98" stop-color="#720090"/>
</linearGradient>
<linearGradient id="paint13_linear_4060_56061" x1="31.9273" y1="28.4416" x2="22.9135" y2="26.3891" gradientUnits="userSpaceOnUse">
<stop stop-color="white"/>
<stop offset="0.98" stop-color="#720090"/>
</linearGradient>
<linearGradient id="paint14_linear_4060_56061" x1="20.0198" y1="-0.230451" x2="14.0069" y2="19.6732" gradientUnits="userSpaceOnUse">
<stop stop-color="#BCC9F9"/>
<stop offset="0.489872" stop-color="#E0BFEF"/>
<stop offset="1" stop-color="#F1D7D7"/>
</linearGradient>
<linearGradient id="paint15_linear_4060_56061" x1="5.26907" y1="18.476" x2="3.25236" y2="50.5465" gradientUnits="userSpaceOnUse">
<stop stop-color="white"/>
<stop offset="0.98" stop-color="#720090"/>
</linearGradient>
<linearGradient id="paint16_linear_4060_56061" x1="10.3976" y1="20.4597" x2="8.70004" y2="47.4357" gradientUnits="userSpaceOnUse">
<stop stop-color="white"/>
<stop offset="0.98" stop-color="#720090"/>
</linearGradient>
<linearGradient id="paint17_linear_4060_56061" x1="15.889" y1="13.5416" x2="16.7756" y2="22.3115" gradientUnits="userSpaceOnUse">
<stop stop-color="white"/>
<stop offset="0.98" stop-color="#720090"/>
</linearGradient>
<linearGradient id="paint18_linear_4060_56061" x1="3.70969" y1="6.67084" x2="5.47412" y2="16.4791" gradientUnits="userSpaceOnUse">
<stop stop-color="white"/>
<stop offset="0.98" stop-color="#720090"/>
</linearGradient>
<linearGradient id="paint19_linear_4060_56061" x1="8.27329" y1="8.47287" x2="4.49331" y2="22.1195" gradientUnits="userSpaceOnUse">
<stop stop-color="#BCC9F9"/>
<stop offset="0.489872" stop-color="#E0BFEF"/>
<stop offset="1" stop-color="#F1D7D7"/>
</linearGradient>
<linearGradient id="paint20_linear_4060_56061" x1="6.72947" y1="10.6395" x2="4.5483" y2="22.6195" gradientUnits="userSpaceOnUse">
<stop stop-color="white"/>
<stop offset="0.98" stop-color="#720090"/>
</linearGradient>
<linearGradient id="paint21_linear_4060_56061" x1="16.1621" y1="3.43287" x2="15.8341" y2="17.3855" gradientUnits="userSpaceOnUse">
<stop stop-color="white"/>
<stop offset="0.98" stop-color="#720090"/>
</linearGradient>
<linearGradient id="paint22_linear_4060_56061" x1="20.5848" y1="4.89182" x2="36.653" y2="42.3048" gradientUnits="userSpaceOnUse">
<stop stop-color="white"/>
<stop offset="0.98" stop-color="#720090"/>
</linearGradient>
<linearGradient id="paint23_linear_4060_56061" x1="8.7227" y1="9.98365" x2="8.04238" y2="14.4549" gradientUnits="userSpaceOnUse">
<stop stop-color="#9CAEEF"/>
<stop offset="1" stop-color="#E8CCCC"/>
</linearGradient>
<linearGradient id="paint24_linear_4060_56061" x1="21.1317" y1="2.20431" x2="18.0464" y2="10.2694" gradientUnits="userSpaceOnUse">
<stop stop-color="#BCC9F9"/>
<stop offset="0.489872" stop-color="#E0BFEF"/>
<stop offset="1" stop-color="#F1D7D7"/>
</linearGradient>
<linearGradient id="paint25_linear_4060_56061" x1="25.6701" y1="11.0577" x2="25.2822" y2="13.9922" gradientUnits="userSpaceOnUse">
<stop stop-color="#9CAEEF"/>
<stop offset="1" stop-color="#E8CCCC"/>
</linearGradient>
<linearGradient id="paint26_linear_4060_56061" x1="28.2111" y1="6.88402" x2="26.4555" y2="16.6478" gradientUnits="userSpaceOnUse">
<stop stop-color="white"/>
<stop offset="0.98" stop-color="#720090"/>
</linearGradient>
<linearGradient id="paint27_linear_4060_56061" x1="29.5356" y1="8.65687" x2="25.7475" y2="22.2511" gradientUnits="userSpaceOnUse">
<stop stop-color="#BCC9F9"/>
<stop offset="0.489872" stop-color="#E0BFEF"/>
<stop offset="1" stop-color="#F1D7D7"/>
</linearGradient>
<linearGradient id="paint28_linear_4060_56061" x1="25.1833" y1="10.8005" x2="27.3645" y2="22.7806" gradientUnits="userSpaceOnUse">
<stop stop-color="white"/>
<stop offset="0.98" stop-color="#720090"/>
</linearGradient>
<linearGradient id="paint29_linear_4060_56061" x1="11.4242" y1="29.0329" x2="15.3904" y2="35.5288" gradientUnits="userSpaceOnUse">
<stop stop-color="white"/>
<stop offset="0.98" stop-color="#720090"/>
</linearGradient>
<linearGradient id="paint30_linear_4060_56061" x1="17.4604" y1="33.0429" x2="14.574" y2="41.4258" gradientUnits="userSpaceOnUse">
<stop stop-color="#BCC9F9"/>
<stop offset="0.489872" stop-color="#E0BFEF"/>
<stop offset="1" stop-color="#F1D7D7"/>
</linearGradient>
<linearGradient id="paint31_linear_4060_56061" x1="14.5592" y1="34.4917" x2="17.8828" y2="42.238" gradientUnits="userSpaceOnUse">
<stop stop-color="white"/>
<stop offset="0.98" stop-color="#720090"/>
</linearGradient>
<linearGradient id="paint32_linear_4060_56061" x1="9.39176" y1="18.556" x2="18.5958" y2="12.1207" gradientUnits="userSpaceOnUse">
<stop stop-color="white"/>
<stop offset="0.98" stop-color="#720090"/>
</linearGradient>
<linearGradient id="paint33_linear_4060_56061" x1="7.31477" y1="35.4979" x2="9.92541" y2="33.6733" gradientUnits="userSpaceOnUse">
<stop stop-color="white"/>
<stop offset="0.98" stop-color="#720090"/>
</linearGradient>
<linearGradient id="paint34_linear_4060_56061" x1="17.1213" y1="29.1765" x2="17.6342" y2="36.3382" gradientUnits="userSpaceOnUse">
<stop stop-color="white"/>
<stop offset="0.98" stop-color="#720090"/>
</linearGradient>
</defs>
</svg>
