<svg width="12" height="13" viewBox="0 0 12 13" fill="none" xmlns="http://www.w3.org/2000/svg">
<path d="M4.84082 6.49967C4.84082 7.13877 5.36091 7.65885 6 7.65885C6.63909 7.65885 7.15918 7.13877 7.15918 6.49967C7.15918 5.86058 6.63909 5.34049 6 5.34049C5.36091 5.34049 4.84082 5.86058 4.84082 6.49967Z" fill="#9E90CF"/>
<path d="M4.84082 10.3636C4.84082 11.0027 5.36091 11.5228 6 11.5228C6.63909 11.5228 7.15918 11.0027 7.15918 10.3636C7.15918 9.72451 6.63909 9.20443 6 9.20443C5.36091 9.20443 4.84082 9.72451 4.84082 10.3636Z" fill="#9E90CF"/>
<path d="M4.84082 2.63574C4.84082 3.27484 5.36091 3.79492 6 3.79492C6.63909 3.79492 7.15918 3.27484 7.15918 2.63574C7.15918 1.99665 6.63909 1.47656 6 1.47656C5.36091 1.47656 4.84082 1.99665 4.84082 2.63574Z" fill="#9E90CF"/>
</svg>
