<svg width="12" height="12" viewBox="0 0 12 12" fill="none" xmlns="http://www.w3.org/2000/svg">
<path d="M10.9308 8.28509C10.8863 8.23152 10.8426 8.17795 10.7998 8.12625C10.2105 7.41348 9.85397 6.9833 9.85397 4.96554C9.85397 3.92089 9.60406 3.06375 9.11147 2.42089C8.74826 1.94598 8.25728 1.58571 7.61013 1.31946C7.60181 1.31483 7.59437 1.30875 7.58817 1.30152C7.3554 0.522053 6.71844 0 6.00004 0C5.28165 0 4.64496 0.522054 4.41219 1.30071C4.40598 1.30769 4.39864 1.31357 4.39049 1.31813C2.88031 1.93982 2.14638 3.13259 2.14638 4.96473C2.14638 6.9833 1.7904 7.41348 1.20058 8.12545C1.15772 8.17714 1.11406 8.22964 1.0696 8.28429C0.954741 8.4228 0.88197 8.59132 0.859897 8.7699C0.837823 8.94848 0.867372 9.12965 0.945045 9.29196C1.11031 9.64018 1.46254 9.85634 1.8646 9.85634H10.1384C10.5386 9.85634 10.8884 9.64045 11.0542 9.29384C11.1322 9.13149 11.1621 8.95017 11.1402 8.77139C11.1183 8.5926 11.0456 8.42383 10.9308 8.28509Z" fill="#9E90CF"/>
<path d="M6.00002 12C6.38708 11.9997 6.76685 11.8946 7.09903 11.6959C7.43121 11.4973 7.70343 11.2124 7.88681 10.8715C7.89545 10.8552 7.89971 10.8369 7.89919 10.8184C7.89867 10.7999 7.89339 10.7819 7.88384 10.7661C7.8743 10.7503 7.86083 10.7372 7.84473 10.7281C7.82864 10.719 7.81047 10.7143 7.79199 10.7143H4.20859C4.19009 10.7142 4.17189 10.7189 4.15576 10.728C4.13962 10.7371 4.12611 10.7501 4.11654 10.766C4.10696 10.7818 4.10165 10.7999 4.10112 10.8184C4.10059 10.8368 4.10485 10.8552 4.1135 10.8715C4.29686 11.2123 4.56904 11.4972 4.90117 11.6959C5.2333 11.8945 5.613 11.9996 6.00002 12Z" fill="#9E90CF"/>
</svg>
