<svg width="134" height="134" viewBox="0 0 134 134" fill="none" xmlns="http://www.w3.org/2000/svg">
<path d="M5.36 0H0V5.36H5.36V0Z" fill="#C5C0D8"/>
<path d="M10.72 0H5.36V5.36H10.72V0Z" fill="#C5C0D8"/>
<path d="M16.08 0H10.72V5.36H16.08V0Z" fill="#C5C0D8"/>
<path d="M21.44 0H16.08V5.36H21.44V0Z" fill="#C5C0D8"/>
<path d="M26.8 0H21.44V5.36H26.8V0Z" fill="#C5C0D8"/>
<path d="M32.16 0H26.8V5.36H32.16V0Z" fill="#C5C0D8"/>
<path d="M37.52 0H32.16V5.36H37.52V0Z" fill="#C5C0D8"/>
<path d="M48.24 0H42.88V5.36H48.24V0Z" fill="#C5C0D8"/>
<path d="M91.12 0H85.76V5.36H91.12V0Z" fill="#C5C0D8"/>
<path d="M101.84 0H96.48V5.36H101.84V0Z" fill="#C5C0D8"/>
<path d="M107.2 0H101.84V5.36H107.2V0Z" fill="#C5C0D8"/>
<path d="M112.56 0H107.2V5.36H112.56V0Z" fill="#C5C0D8"/>
<path d="M117.92 0H112.56V5.36H117.92V0Z" fill="#C5C0D8"/>
<path d="M123.28 0H117.92V5.36H123.28V0Z" fill="#C5C0D8"/>
<path d="M128.64 0H123.28V5.36H128.64V0Z" fill="#C5C0D8"/>
<path d="M134 0H128.64V5.36H134V0Z" fill="#C5C0D8"/>
<path d="M5.36 5.36H0V10.72H5.36V5.36Z" fill="#C5C0D8"/>
<path d="M37.52 5.36H32.16V10.72H37.52V5.36Z" fill="#C5C0D8"/>
<path d="M48.24 5.36H42.88V10.72H48.24V5.36Z" fill="#C5C0D8"/>
<path d="M53.6 5.36H48.24V10.72H53.6V5.36Z" fill="#C5C0D8"/>
<path d="M80.4 5.36H75.04V10.72H80.4V5.36Z" fill="#C5C0D8"/>
<path d="M101.84 5.36H96.48V10.72H101.84V5.36Z" fill="#C5C0D8"/>
<path d="M134 5.36H128.64L128.64 10.72H134V5.36Z" fill="#C5C0D8"/>
<path d="M5.36 10.72H0V16.08H5.36V10.72Z" fill="#C5C0D8"/>
<path d="M16.08 10.72H10.72V16.08H16.08V10.72Z" fill="#C5C0D8"/>
<path d="M21.44 10.72H16.08V16.08H21.44V10.72Z" fill="#C5C0D8"/>
<path d="M26.8 10.72H21.44V16.08H26.8V10.72Z" fill="#C5C0D8"/>
<path d="M37.52 10.72H32.16V16.08H37.52V10.72Z" fill="#C5C0D8"/>
<path d="M48.24 10.72H42.88V16.08H48.24V10.72Z" fill="#C5C0D8"/>
<path d="M53.6 10.72H48.24V16.08H53.6V10.72Z" fill="#C5C0D8"/>
<path d="M69.68 10.72H64.32V16.08H69.68V10.72Z" fill="#C5C0D8"/>
<path d="M75.04 10.72H69.68V16.08H75.04V10.72Z" fill="#C5C0D8"/>
<path d="M80.4 10.72H75.04V16.08H80.4V10.72Z" fill="#C5C0D8"/>
<path d="M91.12 10.72H85.76V16.08H91.12V10.72Z" fill="#C5C0D8"/>
<path d="M101.84 10.72H96.48V16.08H101.84V10.72Z" fill="#C5C0D8"/>
<path d="M112.56 10.72H107.2V16.08H112.56V10.72Z" fill="#C5C0D8"/>
<path d="M117.92 10.72H112.56V16.08H117.92V10.72Z" fill="#C5C0D8"/>
<path d="M123.28 10.72H117.92V16.08H123.28V10.72Z" fill="#C5C0D8"/>
<path d="M134 10.72H128.64V16.08H134V10.72Z" fill="#C5C0D8"/>
<path d="M5.36 16.08H0V21.44H5.36V16.08Z" fill="#C5C0D8"/>
<path d="M16.08 16.08H10.72V21.44H16.08V16.08Z" fill="#C5C0D8"/>
<path d="M21.44 16.08H16.08V21.44H21.44V16.08Z" fill="#C5C0D8"/>
<path d="M26.8 16.08H21.44V21.44H26.8V16.08Z" fill="#C5C0D8"/>
<path d="M37.52 16.08H32.16V21.44H37.52V16.08Z" fill="#C5C0D8"/>
<path d="M64.32 16.08L58.96 16.08V21.44H64.32L64.32 16.08Z" fill="#C5C0D8"/>
<path d="M69.68 16.08H64.32L64.32 21.44H69.68V16.08Z" fill="#C5C0D8"/>
<path d="M85.76 16.08H80.4V21.44H85.76V16.08Z" fill="#C5C0D8"/>
<path d="M91.12 16.08H85.76V21.44H91.12V16.08Z" fill="#C5C0D8"/>
<path d="M101.84 16.08H96.48V21.44H101.84V16.08Z" fill="#C5C0D8"/>
<path d="M112.56 16.08H107.2V21.44H112.56V16.08Z" fill="#C5C0D8"/>
<path d="M117.92 16.08H112.56V21.44H117.92V16.08Z" fill="#C5C0D8"/>
<path d="M123.28 16.08H117.92V21.44H123.28V16.08Z" fill="#C5C0D8"/>
<path d="M134 16.08H128.64V21.44H134V16.08Z" fill="#C5C0D8"/>
<path d="M5.36 21.44H0V26.8H5.36V21.44Z" fill="#C5C0D8"/>
<path d="M16.08 21.44H10.72V26.8H16.08V21.44Z" fill="#C5C0D8"/>
<path d="M21.44 21.44H16.08V26.8H21.44V21.44Z" fill="#C5C0D8"/>
<path d="M26.8 21.44H21.44V26.8H26.8V21.44Z" fill="#C5C0D8"/>
<path d="M37.52 21.44H32.16V26.8H37.52V21.44Z" fill="#C5C0D8"/>
<path d="M58.96 21.44L53.6 21.44V26.8H58.96L58.96 21.44Z" fill="#C5C0D8"/>
<path d="M80.4 21.44L75.04 21.44V26.8H80.4V21.44Z" fill="#C5C0D8"/>
<path d="M85.76 21.44H80.4V26.8H85.76V21.44Z" fill="#C5C0D8"/>
<path d="M101.84 21.44H96.48V26.8H101.84V21.44Z" fill="#C5C0D8"/>
<path d="M112.56 21.44H107.2V26.8H112.56V21.44Z" fill="#C5C0D8"/>
<path d="M117.92 21.44H112.56V26.8H117.92V21.44Z" fill="#C5C0D8"/>
<path d="M123.28 21.44H117.92V26.8H123.28V21.44Z" fill="#C5C0D8"/>
<path d="M134 21.44H128.64V26.8H134V21.44Z" fill="#C5C0D8"/>
<path d="M5.36 26.8H0V32.16H5.36V26.8Z" fill="#C5C0D8"/>
<path d="M37.52 26.8H32.16V32.16H37.52V26.8Z" fill="#C5C0D8"/>
<path d="M48.24 26.8H42.88V32.16H48.24V26.8Z" fill="#C5C0D8"/>
<path d="M58.96 26.8H53.6V32.16H58.96V26.8Z" fill="#C5C0D8"/>
<path d="M64.32 26.8L58.96 26.8V32.16H64.32V26.8Z" fill="#C5C0D8"/>
<path d="M69.68 26.8H64.32V32.16H69.68V26.8Z" fill="#C5C0D8"/>
<path d="M80.4 26.8H75.04V32.16H80.4V26.8Z" fill="#C5C0D8"/>
<path d="M91.12 26.8L85.76 26.8V32.16H91.12V26.8Z" fill="#C5C0D8"/>
<path d="M101.84 26.8H96.48V32.16H101.84V26.8Z" fill="#C5C0D8"/>
<path d="M134 26.8H128.64V32.16H134V26.8Z" fill="#C5C0D8"/>
<path d="M5.36 32.16H0V37.52H5.36V32.16Z" fill="#C5C0D8"/>
<path d="M10.72 32.16H5.36V37.52H10.72V32.16Z" fill="#C5C0D8"/>
<path d="M16.08 32.16H10.72V37.52H16.08V32.16Z" fill="#C5C0D8"/>
<path d="M21.44 32.16H16.08V37.52H21.44V32.16Z" fill="#C5C0D8"/>
<path d="M26.8 32.16H21.44V37.52H26.8V32.16Z" fill="#C5C0D8"/>
<path d="M32.16 32.16H26.8V37.52H32.16V32.16Z" fill="#C5C0D8"/>
<path d="M37.52 32.16H32.16V37.52H37.52V32.16Z" fill="#C5C0D8"/>
<path d="M48.24 32.16H42.88V37.52H48.24V32.16Z" fill="#C5C0D8"/>
<path d="M58.96 32.16H53.6V37.52H58.96V32.16Z" fill="#C5C0D8"/>
<path d="M69.68 32.16H64.32L64.32 37.52H69.68V32.16Z" fill="#C5C0D8"/>
<path d="M80.4 32.16H75.04V37.52H80.4V32.16Z" fill="#C5C0D8"/>
<path d="M91.12 32.16H85.76V37.52H91.12V32.16Z" fill="#C5C0D8"/>
<path d="M101.84 32.16H96.48V37.52H101.84V32.16Z" fill="#C5C0D8"/>
<path d="M107.2 32.16H101.84V37.52H107.2V32.16Z" fill="#C5C0D8"/>
<path d="M112.56 32.16H107.2V37.52H112.56V32.16Z" fill="#C5C0D8"/>
<path d="M117.92 32.16H112.56V37.52H117.92V32.16Z" fill="#C5C0D8"/>
<path d="M123.28 32.16H117.92V37.52H123.28V32.16Z" fill="#C5C0D8"/>
<path d="M128.64 32.16H123.28V37.52H128.64L128.64 32.16Z" fill="#C5C0D8"/>
<path d="M134 32.16H128.64L128.64 37.52H134V32.16Z" fill="#C5C0D8"/>
<path d="M48.24 37.52H42.88V42.88H48.24V37.52Z" fill="#C5C0D8"/>
<path d="M53.6 37.52H48.24V42.88H53.6V37.52Z" fill="#C5C0D8"/>
<path d="M91.12 37.52H85.76V42.88H91.12V37.52Z" fill="#C5C0D8"/>
<path d="M16.08 42.88H10.72V48.24H16.08V42.88Z" fill="#C5C0D8"/>
<path d="M21.44 42.88H16.08V48.24H21.44V42.88Z" fill="#C5C0D8"/>
<path d="M26.8 42.88H21.44V48.24H26.8V42.88Z" fill="#C5C0D8"/>
<path d="M37.52 42.88H32.16V48.24H37.52V42.88Z" fill="#C5C0D8"/>
<path d="M48.24 42.88H42.88V48.24H48.24V42.88Z" fill="#C5C0D8"/>
<path d="M53.6 42.88H48.24V48.24H53.6V42.88Z" fill="#C5C0D8"/>
<path d="M64.32 42.88H58.96V48.24H64.32V42.88Z" fill="#C5C0D8"/>
<path d="M85.76 42.88L80.4 42.88V48.24H85.76V42.88Z" fill="#C5C0D8"/>
<path d="M96.48 42.88L91.12 42.88L91.12 48.24H96.48V42.88Z" fill="#C5C0D8"/>
<path d="M101.84 42.88H96.48V48.24H101.84V42.88Z" fill="#C5C0D8"/>
<path d="M107.2 42.88H101.84V48.24H107.2V42.88Z" fill="#C5C0D8"/>
<path d="M123.28 42.88H117.92V48.24H123.28V42.88Z" fill="#C5C0D8"/>
<path d="M128.64 42.88H123.28V48.24H128.64V42.88Z" fill="#C5C0D8"/>
<path d="M134 42.88H128.64V48.24H134V42.88Z" fill="#C5C0D8"/>
<path d="M5.36 48.24H0V53.6H5.36V48.24Z" fill="#C5C0D8"/>
<path d="M21.44 48.24H16.08L16.08 53.6H21.44V48.24Z" fill="#C5C0D8"/>
<path d="M48.24 48.24H42.88V53.6H48.24V48.24Z" fill="#C5C0D8"/>
<path d="M64.32 48.24H58.96V53.6H64.32V48.24Z" fill="#C5C0D8"/>
<path d="M69.68 48.24L64.32 48.24V53.6H69.68V48.24Z" fill="#C5C0D8"/>
<path d="M80.4 48.24L75.04 48.24V53.6H80.4V48.24Z" fill="#C5C0D8"/>
<path d="M117.92 48.24L112.56 48.24V53.6H117.92L117.92 48.24Z" fill="#C5C0D8"/>
<path d="M123.28 48.24H117.92L117.92 53.6H123.28V48.24Z" fill="#C5C0D8"/>
<path d="M134 48.24H128.64L128.64 53.6H134V48.24Z" fill="#C5C0D8"/>
<path d="M5.36 53.6H0V58.96H5.36V53.6Z" fill="#C5C0D8"/>
<path d="M16.08 53.6H10.72V58.96H16.08L16.08 53.6Z" fill="#C5C0D8"/>
<path d="M32.16 53.6H26.8V58.96H32.16V53.6Z" fill="#C5C0D8"/>
<path d="M37.52 53.6H32.16V58.96H37.52V53.6Z" fill="#C5C0D8"/>
<path d="M42.88 53.6H37.52V58.96H42.88L42.88 53.6Z" fill="#C5C0D8"/>
<path d="M58.96 53.6H53.6V58.96H58.96L58.96 53.6Z" fill="#C5C0D8"/>
<path d="M75.04 53.6H69.68V58.96H75.04V53.6Z" fill="#C5C0D8"/>
<path d="M85.76 53.6H80.4V58.96H85.76V53.6Z" fill="#C5C0D8"/>
<path d="M96.48 53.6H91.12V58.96H96.48V53.6Z" fill="#C5C0D8"/>
<path d="M107.2 53.6H101.84V58.96H107.2V53.6Z" fill="#C5C0D8"/>
<path d="M112.56 53.6H107.2V58.96H112.56L112.56 53.6Z" fill="#C5C0D8"/>
<path d="M134 53.6H128.64V58.96H134V53.6Z" fill="#C5C0D8"/>
<path d="M16.08 58.96H10.72V64.32H16.08V58.96Z" fill="#C5C0D8"/>
<path d="M21.44 58.96L16.08 58.96V64.32H21.44V58.96Z" fill="#C5C0D8"/>
<path d="M32.16 58.96H26.8V64.32H32.16V58.96Z" fill="#C5C0D8"/>
<path d="M53.6 58.96L48.24 58.96V64.32H53.6V58.96Z" fill="#C5C0D8"/>
<path d="M64.32 58.96L58.96 58.96L58.96 64.32H64.32V58.96Z" fill="#C5C0D8"/>
<path d="M80.4 58.96H75.04V64.32H80.4V58.96Z" fill="#C5C0D8"/>
<path d="M91.12 58.96H85.76V64.32H91.12L91.12 58.96Z" fill="#C5C0D8"/>
<path d="M96.48 58.96H91.12L91.12 64.32H96.48V58.96Z" fill="#C5C0D8"/>
<path d="M101.84 58.96H96.48V64.32H101.84L101.84 58.96Z" fill="#C5C0D8"/>
<path d="M112.56 58.96H107.2L107.2 64.32H112.56V58.96Z" fill="#C5C0D8"/>
<path d="M123.28 58.96H117.92V64.32H123.28V58.96Z" fill="#C5C0D8"/>
<path d="M128.64 58.96L123.28 58.96V64.32H128.64L128.64 58.96Z" fill="#C5C0D8"/>
<path d="M134 58.96H128.64L128.64 64.32H134V58.96Z" fill="#C5C0D8"/>
<path d="M5.36 64.32H0V69.68H5.36V64.32Z" fill="#C5C0D8"/>
<path d="M21.44 64.32H16.08L16.08 69.68H21.44V64.32Z" fill="#C5C0D8"/>
<path d="M32.16 64.32H26.8V69.68H32.16V64.32Z" fill="#C5C0D8"/>
<path d="M37.52 64.32L32.16 64.32V69.68H37.52V64.32Z" fill="#C5C0D8"/>
<path d="M42.88 64.32H37.52V69.68H42.88V64.32Z" fill="#C5C0D8"/>
<path d="M48.24 64.32L42.88 64.32V69.68H48.24L48.24 64.32Z" fill="#C5C0D8"/>
<path d="M58.96 64.32H53.6V69.68H58.96L58.96 64.32Z" fill="#C5C0D8"/>
<path d="M69.68 64.32L64.32 64.32L64.32 69.68H69.68V64.32Z" fill="#C5C0D8"/>
<path d="M75.04 64.32L69.68 64.32V69.68H75.04V64.32Z" fill="#C5C0D8"/>
<path d="M85.76 64.32H80.4V69.68H85.76V64.32Z" fill="#C5C0D8"/>
<path d="M101.84 64.32H96.48L96.48 69.68H101.84V64.32Z" fill="#C5C0D8"/>
<path d="M123.28 64.32H117.92V69.68H123.28V64.32Z" fill="#C5C0D8"/>
<path d="M128.64 64.32H123.28V69.68H128.64V64.32Z" fill="#C5C0D8"/>
<path d="M5.36 69.68H0V75.04H5.36V69.68Z" fill="#C5C0D8"/>
<path d="M21.44 69.68H16.08V75.04H21.44V69.68Z" fill="#C5C0D8"/>
<path d="M26.8 69.68H21.44V75.04H26.8L26.8 69.68Z" fill="#C5C0D8"/>
<path d="M48.24 69.68H42.88L42.88 75.04H48.24V69.68Z" fill="#C5C0D8"/>
<path d="M53.6 69.68H48.24V75.04H53.6V69.68Z" fill="#C5C0D8"/>
<path d="M64.32 69.68H58.96L58.96 75.04H64.32L64.32 69.68Z" fill="#C5C0D8"/>
<path d="M69.68 69.68H64.32L64.32 75.04H69.68V69.68Z" fill="#C5C0D8"/>
<path d="M75.04 69.68H69.68V75.04H75.04V69.68Z" fill="#C5C0D8"/>
<path d="M80.4 69.68H75.04V75.04H80.4V69.68Z" fill="#C5C0D8"/>
<path d="M85.76 69.68H80.4V75.04H85.76V69.68Z" fill="#C5C0D8"/>
<path d="M101.84 69.68H96.48V75.04H101.84V69.68Z" fill="#C5C0D8"/>
<path d="M123.28 69.68H117.92V75.04H123.28V69.68Z" fill="#C5C0D8"/>
<path d="M134 69.68H128.64L128.64 75.04H134V69.68Z" fill="#C5C0D8"/>
<path d="M5.36 75.04H0V80.4H5.36V75.04Z" fill="#C5C0D8"/>
<path d="M16.08 75.04H10.72V80.4H16.08L16.08 75.04Z" fill="#C5C0D8"/>
<path d="M21.44 75.04H16.08L16.08 80.4H21.44V75.04Z" fill="#C5C0D8"/>
<path d="M32.16 75.04H26.8L26.8 80.4H32.16V75.04Z" fill="#C5C0D8"/>
<path d="M37.52 75.04H32.16V80.4H37.52V75.04Z" fill="#C5C0D8"/>
<path d="M42.88 75.04H37.52V80.4H42.88L42.88 75.04Z" fill="#C5C0D8"/>
<path d="M69.68 75.04H64.32L64.32 80.4H69.68V75.04Z" fill="#C5C0D8"/>
<path d="M85.76 75.04H80.4V80.4H85.76V75.04Z" fill="#C5C0D8"/>
<path d="M107.2 75.04H101.84L101.84 80.4H107.2V75.04Z" fill="#C5C0D8"/>
<path d="M128.64 75.04H123.28L123.28 80.4H128.64L128.64 75.04Z" fill="#C5C0D8"/>
<path d="M5.36 80.4H0V85.76H5.36V80.4Z" fill="#C5C0D8"/>
<path d="M21.44 80.4H16.08L16.08 85.76H21.44V80.4Z" fill="#C5C0D8"/>
<path d="M58.96 80.4H53.6V85.76H58.96V80.4Z" fill="#C5C0D8"/>
<path d="M75.04 80.4H69.68V85.76H75.04V80.4Z" fill="#C5C0D8"/>
<path d="M80.4 80.4H75.04V85.76H80.4V80.4Z" fill="#C5C0D8"/>
<path d="M85.76 80.4H80.4V85.76H85.76V80.4Z" fill="#C5C0D8"/>
<path d="M96.48 80.4H91.12V85.76H96.48V80.4Z" fill="#C5C0D8"/>
<path d="M107.2 80.4H101.84V85.76H107.2V80.4Z" fill="#C5C0D8"/>
<path d="M112.56 80.4H107.2V85.76H112.56V80.4Z" fill="#C5C0D8"/>
<path d="M117.92 80.4H112.56V85.76H117.92V80.4Z" fill="#C5C0D8"/>
<path d="M134 80.4H128.64L128.64 85.76H134V80.4Z" fill="#C5C0D8"/>
<path d="M5.36 85.76H0V91.12H5.36V85.76Z" fill="#C5C0D8"/>
<path d="M21.44 85.76H16.08V91.12H21.44V85.76Z" fill="#C5C0D8"/>
<path d="M37.52 85.76H32.16V91.12H37.52V85.76Z" fill="#C5C0D8"/>
<path d="M42.88 85.76H37.52V91.12H42.88V85.76Z" fill="#C5C0D8"/>
<path d="M48.24 85.76H42.88V91.12H48.24V85.76Z" fill="#C5C0D8"/>
<path d="M64.32 85.76H58.96L58.96 91.12H64.32V85.76Z" fill="#C5C0D8"/>
<path d="M69.68 85.76H64.32V91.12H69.68V85.76Z" fill="#C5C0D8"/>
<path d="M85.76 85.76H80.4V91.12H85.76V85.76Z" fill="#C5C0D8"/>
<path d="M91.12 85.76H85.76V91.12H91.12L91.12 85.76Z" fill="#C5C0D8"/>
<path d="M96.48 85.76H91.12L91.12 91.12H96.48V85.76Z" fill="#C5C0D8"/>
<path d="M101.84 85.76H96.48V91.12H101.84L101.84 85.76Z" fill="#C5C0D8"/>
<path d="M107.2 85.76H101.84L101.84 91.12H107.2V85.76Z" fill="#C5C0D8"/>
<path d="M112.56 85.76H107.2V91.12H112.56V85.76Z" fill="#C5C0D8"/>
<path d="M134 85.76H128.64V91.12H134V85.76Z" fill="#C5C0D8"/>
<path d="M48.24 91.12H42.88L42.88 96.48H48.24V91.12Z" fill="#C5C0D8"/>
<path d="M53.6 91.12L48.24 91.12V96.48H53.6V91.12Z" fill="#C5C0D8"/>
<path d="M58.96 91.12L53.6 91.12V96.48H58.96L58.96 91.12Z" fill="#C5C0D8"/>
<path d="M64.32 91.12H58.96L58.96 96.48H64.32V91.12Z" fill="#C5C0D8"/>
<path d="M85.76 91.12H80.4V96.48H85.76V91.12Z" fill="#C5C0D8"/>
<path d="M91.12 91.12H85.76V96.48H91.12V91.12Z" fill="#C5C0D8"/>
<path d="M112.56 91.12H107.2L107.2 96.48H112.56V91.12Z" fill="#C5C0D8"/>
<path d="M117.92 91.12L112.56 91.12V96.48H117.92V91.12Z" fill="#C5C0D8"/>
<path d="M123.28 91.12H117.92V96.48H123.28V91.12Z" fill="#C5C0D8"/>
<path d="M134 91.12H128.64V96.48H134V91.12Z" fill="#C5C0D8"/>
<path d="M5.36 96.48H0V101.84H5.36V96.48Z" fill="#C5C0D8"/>
<path d="M10.72 96.48H5.36V101.84H10.72V96.48Z" fill="#C5C0D8"/>
<path d="M16.08 96.48H10.72V101.84H16.08V96.48Z" fill="#C5C0D8"/>
<path d="M21.44 96.48H16.08V101.84H21.44V96.48Z" fill="#C5C0D8"/>
<path d="M26.8 96.48H21.44V101.84H26.8V96.48Z" fill="#C5C0D8"/>
<path d="M32.16 96.48H26.8V101.84H32.16V96.48Z" fill="#C5C0D8"/>
<path d="M37.52 96.48H32.16V101.84H37.52V96.48Z" fill="#C5C0D8"/>
<path d="M53.6 96.48H48.24L48.24 101.84H53.6V96.48Z" fill="#C5C0D8"/>
<path d="M75.04 96.48H69.68V101.84H75.04V96.48Z" fill="#C5C0D8"/>
<path d="M91.12 96.48H85.76V101.84H91.12V96.48Z" fill="#C5C0D8"/>
<path d="M101.84 96.48H96.48V101.84H101.84V96.48Z" fill="#C5C0D8"/>
<path d="M112.56 96.48H107.2V101.84H112.56V96.48Z" fill="#C5C0D8"/>
<path d="M117.92 96.48H112.56V101.84H117.92V96.48Z" fill="#C5C0D8"/>
<path d="M128.64 96.48H123.28L123.28 101.84H128.64L128.64 96.48Z" fill="#C5C0D8"/>
<path d="M134 96.48H128.64L128.64 101.84H134V96.48Z" fill="#C5C0D8"/>
<path d="M5.36 101.84H0V107.2H5.36V101.84Z" fill="#C5C0D8"/>
<path d="M37.52 101.84H32.16V107.2H37.52V101.84Z" fill="#C5C0D8"/>
<path d="M75.04 101.84H69.68V107.2H75.04V101.84Z" fill="#C5C0D8"/>
<path d="M85.76 101.84L80.4 101.84V107.2H85.76V101.84Z" fill="#C5C0D8"/>
<path d="M91.12 101.84H85.76V107.2H91.12V101.84Z" fill="#C5C0D8"/>
<path d="M112.56 101.84H107.2V107.2H112.56V101.84Z" fill="#C5C0D8"/>
<path d="M117.92 101.84H112.56V107.2H117.92V101.84Z" fill="#C5C0D8"/>
<path d="M5.36 107.2H0V112.56H5.36V107.2Z" fill="#C5C0D8"/>
<path d="M16.08 107.2H10.72V112.56H16.08V107.2Z" fill="#C5C0D8"/>
<path d="M21.44 107.2H16.08V112.56H21.44V107.2Z" fill="#C5C0D8"/>
<path d="M26.8 107.2H21.44V112.56H26.8V107.2Z" fill="#C5C0D8"/>
<path d="M37.52 107.2H32.16V112.56H37.52V107.2Z" fill="#C5C0D8"/>
<path d="M48.24 107.2H42.88V112.56H48.24V107.2Z" fill="#C5C0D8"/>
<path d="M58.96 107.2H53.6V112.56H58.96V107.2Z" fill="#C5C0D8"/>
<path d="M69.68 107.2L64.32 107.2V112.56H69.68V107.2Z" fill="#C5C0D8"/>
<path d="M80.4 107.2H75.04V112.56H80.4V107.2Z" fill="#C5C0D8"/>
<path d="M85.76 107.2H80.4V112.56H85.76V107.2Z" fill="#C5C0D8"/>
<path d="M91.12 107.2H85.76V112.56H91.12V107.2Z" fill="#C5C0D8"/>
<path d="M96.48 107.2L91.12 107.2V112.56H96.48V107.2Z" fill="#C5C0D8"/>
<path d="M101.84 107.2H96.48V112.56H101.84V107.2Z" fill="#C5C0D8"/>
<path d="M107.2 107.2L101.84 107.2V112.56H107.2L107.2 107.2Z" fill="#C5C0D8"/>
<path d="M112.56 107.2H107.2L107.2 112.56H112.56V107.2Z" fill="#C5C0D8"/>
<path d="M117.92 107.2H112.56V112.56H117.92V107.2Z" fill="#C5C0D8"/>
<path d="M5.36 112.56H0V117.92H5.36V112.56Z" fill="#C5C0D8"/>
<path d="M16.08 112.56H10.72V117.92H16.08V112.56Z" fill="#C5C0D8"/>
<path d="M21.44 112.56H16.08V117.92H21.44V112.56Z" fill="#C5C0D8"/>
<path d="M26.8 112.56H21.44V117.92H26.8V112.56Z" fill="#C5C0D8"/>
<path d="M37.52 112.56H32.16V117.92H37.52V112.56Z" fill="#C5C0D8"/>
<path d="M48.24 112.56H42.88V117.92H48.24V112.56Z" fill="#C5C0D8"/>
<path d="M53.6 112.56H48.24V117.92H53.6V112.56Z" fill="#C5C0D8"/>
<path d="M75.04 112.56H69.68V117.92H75.04V112.56Z" fill="#C5C0D8"/>
<path d="M85.76 112.56H80.4V117.92H85.76V112.56Z" fill="#C5C0D8"/>
<path d="M96.48 112.56H91.12L91.12 117.92H96.48V112.56Z" fill="#C5C0D8"/>
<path d="M101.84 112.56H96.48V117.92H101.84V112.56Z" fill="#C5C0D8"/>
<path d="M123.28 112.56L117.92 112.56L117.92 117.92H123.28V112.56Z" fill="#C5C0D8"/>
<path d="M128.64 112.56H123.28V117.92H128.64V112.56Z" fill="#C5C0D8"/>
<path d="M134 112.56H128.64V117.92H134V112.56Z" fill="#C5C0D8"/>
<path d="M5.36 117.92H0V123.28H5.36V117.92Z" fill="#C5C0D8"/>
<path d="M16.08 117.92H10.72V123.28H16.08V117.92Z" fill="#C5C0D8"/>
<path d="M21.44 117.92H16.08V123.28H21.44V117.92Z" fill="#C5C0D8"/>
<path d="M26.8 117.92H21.44V123.28H26.8V117.92Z" fill="#C5C0D8"/>
<path d="M37.52 117.92H32.16V123.28H37.52V117.92Z" fill="#C5C0D8"/>
<path d="M48.24 117.92H42.88V123.28H48.24V117.92Z" fill="#C5C0D8"/>
<path d="M53.6 117.92H48.24V123.28H53.6V117.92Z" fill="#C5C0D8"/>
<path d="M58.96 117.92L53.6 117.92V123.28H58.96V117.92Z" fill="#C5C0D8"/>
<path d="M64.32 117.92H58.96V123.28H64.32V117.92Z" fill="#C5C0D8"/>
<path d="M80.4 117.92H75.04V123.28H80.4V117.92Z" fill="#C5C0D8"/>
<path d="M85.76 117.92H80.4V123.28H85.76V117.92Z" fill="#C5C0D8"/>
<path d="M91.12 117.92H85.76V123.28H91.12L91.12 117.92Z" fill="#C5C0D8"/>
<path d="M96.48 117.92H91.12L91.12 123.28H96.48V117.92Z" fill="#C5C0D8"/>
<path d="M101.84 117.92H96.48V123.28H101.84V117.92Z" fill="#C5C0D8"/>
<path d="M112.56 117.92H107.2V123.28H112.56V117.92Z" fill="#C5C0D8"/>
<path d="M134 117.92H128.64L128.64 123.28H134V117.92Z" fill="#C5C0D8"/>
<path d="M5.36 123.28H0V128.64H5.36V123.28Z" fill="#C5C0D8"/>
<path d="M37.52 123.28H32.16V128.64H37.52V123.28Z" fill="#C5C0D8"/>
<path d="M58.96 123.28H53.6V128.64H58.96V123.28Z" fill="#C5C0D8"/>
<path d="M64.32 123.28H58.96V128.64H64.32V123.28Z" fill="#C5C0D8"/>
<path d="M69.68 123.28L64.32 123.28V128.64H69.68V123.28Z" fill="#C5C0D8"/>
<path d="M80.4 123.28H75.04V128.64H80.4V123.28Z" fill="#C5C0D8"/>
<path d="M96.48 123.28H91.12L91.12 128.64H96.48V123.28Z" fill="#C5C0D8"/>
<path d="M107.2 123.28H101.84L101.84 128.64H107.2L107.2 123.28Z" fill="#C5C0D8"/>
<path d="M112.56 123.28H107.2L107.2 128.64H112.56V123.28Z" fill="#C5C0D8"/>
<path d="M117.92 123.28L112.56 123.28V128.64H117.92V123.28Z" fill="#C5C0D8"/>
<path d="M128.64 123.28L123.28 123.28V128.64H128.64L128.64 123.28Z" fill="#C5C0D8"/>
<path d="M5.36 128.64H0V134H5.36V128.64Z" fill="#C5C0D8"/>
<path d="M10.72 128.64L5.36 128.64V134H10.72V128.64Z" fill="#C5C0D8"/>
<path d="M16.08 128.64H10.72V134H16.08V128.64Z" fill="#C5C0D8"/>
<path d="M21.44 128.64H16.08V134H21.44V128.64Z" fill="#C5C0D8"/>
<path d="M26.8 128.64H21.44V134H26.8V128.64Z" fill="#C5C0D8"/>
<path d="M32.16 128.64L26.8 128.64V134H32.16V128.64Z" fill="#C5C0D8"/>
<path d="M37.52 128.64H32.16V134H37.52V128.64Z" fill="#C5C0D8"/>
<path d="M53.6 128.64L48.24 128.64V134H53.6V128.64Z" fill="#C5C0D8"/>
<path d="M69.68 128.64H64.32L64.32 134H69.68V128.64Z" fill="#C5C0D8"/>
<path d="M75.04 128.64H69.68V134H75.04V128.64Z" fill="#C5C0D8"/>
<path d="M80.4 128.64H75.04V134H80.4V128.64Z" fill="#C5C0D8"/>
<path d="M85.76 128.64L80.4 128.64V134H85.76V128.64Z" fill="#C5C0D8"/>
<path d="M96.48 128.64H91.12V134H96.48V128.64Z" fill="#C5C0D8"/>
<path d="M101.84 128.64H96.48V134H101.84L101.84 128.64Z" fill="#C5C0D8"/>
<path d="M112.56 128.64H107.2L107.2 134H112.56V128.64Z" fill="#C5C0D8"/>
<path d="M117.92 128.64H112.56V134H117.92V128.64Z" fill="#C5C0D8"/>
<path d="M128.64 128.64H123.28V134H128.64V128.64Z" fill="#C5C0D8"/>
<path d="M134 128.64L128.64 128.64V134H134V128.64Z" fill="#C5C0D8"/>
</svg>
