<svg width="16" height="16" viewBox="0 0 16 16" fill="none" xmlns="http://www.w3.org/2000/svg">
<path d="M15.7642 9.93055C14.6966 14.2136 10.3586 16.8291 6.06762 15.7609C1.78451 14.6901 -0.826698 10.3521 0.240809 6.06896C1.30832 1.78586 5.64376 -0.829552 9.92426 0.238605C14.2178 1.29367 16.829 5.64484 15.7642 9.93055Z" fill="#000008"/>
<path d="M12.9475 10.4694L11.2967 12.1942C11.2608 12.2316 11.2174 12.2615 11.1692 12.2819C11.1209 12.3024 11.0689 12.3129 11.0163 12.3128H3.19067C3.15333 12.3128 3.1168 12.3022 3.08558 12.2823C3.05435 12.2623 3.02979 12.2339 3.01491 12.2006C3.00002 12.1672 2.99547 12.1303 3.0018 12.0945C3.00813 12.0586 3.02508 12.0254 3.05055 11.9988L4.7026 10.274C4.73839 10.2367 4.78167 10.2069 4.82976 10.1865C4.87785 10.166 4.92974 10.1555 4.9822 10.1554H12.8074C12.8447 10.1554 12.8812 10.166 12.9125 10.1859C12.9437 10.2059 12.9682 10.2343 12.9832 10.2677C12.998 10.301 13.0026 10.3379 12.9962 10.3737C12.9899 10.4096 12.973 10.4429 12.9475 10.4694ZM11.2967 6.99633C11.2608 6.95887 11.2174 6.929 11.1692 6.90858C11.1209 6.88817 11.0689 6.87765 11.0163 6.87768H3.19067C3.15333 6.87768 3.1168 6.8883 3.08558 6.90825C3.05435 6.9282 3.02979 6.9566 3.01491 6.98996C3.00002 7.02332 2.99547 7.06019 3.0018 7.09604C3.00813 7.13189 3.02508 7.16515 3.05055 7.19176L4.7026 8.91649C4.73839 8.95386 4.78167 8.98366 4.82976 9.00407C4.87785 9.02448 4.92974 9.03506 4.9822 9.03514H12.8074C12.8447 9.03514 12.8812 9.02452 12.9125 9.00457C12.9437 8.98462 12.9682 8.95622 12.9832 8.92287C12.998 8.8895 13.0026 8.85263 12.9962 8.81678C12.9899 8.78094 12.973 8.74767 12.9475 8.72106L11.2967 6.99633ZM3.19067 5.75745H11.0163C11.0689 5.75747 11.1209 5.74696 11.1692 5.72654C11.2174 5.70612 11.2608 5.67625 11.2967 5.63879L12.9475 3.91405C12.973 3.88746 12.9899 3.85419 12.9962 3.81834C13.0026 3.78249 12.998 3.74562 12.9832 3.71226C12.9682 3.6789 12.9437 3.6505 12.9125 3.63055C12.8812 3.6106 12.8447 3.59998 12.8074 3.59998H4.9822C4.92974 3.60006 4.87785 3.61064 4.82976 3.63105C4.78167 3.65146 4.73839 3.68127 4.7026 3.71864L3.05098 5.44337C3.02553 5.46994 3.00859 5.50317 3.00224 5.53898C2.9959 5.57479 3.00042 5.61163 3.01525 5.64498C3.03008 5.67832 3.05458 5.70672 3.08574 5.7267C3.1169 5.74668 3.15337 5.75736 3.19067 5.75745Z" fill="url(#paint0_linear_6710_180838)"/>
<defs>
<linearGradient id="paint0_linear_6710_180838" x1="3.84314" y1="12.5205" x2="11.8102" y2="3.30134" gradientUnits="userSpaceOnUse">
<stop offset="0.08" stop-color="#9945FF"/>
<stop offset="0.3" stop-color="#8752F3"/>
<stop offset="0.5" stop-color="#5497D5"/>
<stop offset="0.6" stop-color="#43B4CA"/>
<stop offset="0.72" stop-color="#28E0B9"/>
<stop offset="0.97" stop-color="#19FB9B"/>
</linearGradient>
</defs>
</svg>
