<svg width="12" height="12" viewBox="0 0 12 12" fill="none" xmlns="http://www.w3.org/2000/svg">
<path d="M11.7396 5.46206C11.9758 5.23187 12.0592 4.89403 11.9573 4.57998C11.8552 4.26592 11.5892 4.04174 11.2624 3.99416L8.35684 3.57198C8.23309 3.55396 8.12617 3.47634 8.0709 3.36413L6.77192 0.731563C6.62606 0.435772 6.33003 0.251953 6.00012 0.251953C5.67045 0.251953 5.37442 0.435772 5.22856 0.731563L3.92934 3.36437C3.87407 3.47658 3.76691 3.5542 3.64316 3.57222L0.737627 3.9944C0.411079 4.04174 0.144842 4.26616 0.042721 4.58022C-0.0591601 4.89427 0.024219 5.23211 0.26042 5.4623L2.36268 7.51146C2.4523 7.59892 2.49339 7.72483 2.47225 7.84786L1.9763 10.7414C1.93233 10.9961 1.99913 11.2438 2.16396 11.4392C2.42011 11.7436 2.86728 11.8364 3.22482 11.6485L5.82327 10.2822C5.93188 10.2252 6.0686 10.2257 6.17697 10.2822L8.77566 11.6485C8.90205 11.715 9.03685 11.7487 9.17597 11.7487C9.42996 11.7487 9.67072 11.6357 9.83628 11.4392C10.0014 11.2438 10.0679 10.9956 10.0239 10.7414L9.52775 7.84786C9.50661 7.72459 9.5477 7.59892 9.63732 7.51146L11.7396 5.46206Z" fill="#9E90CF"/>
</svg>
