<svg width="20" height="21" viewBox="0 0 20 21" fill="none" xmlns="http://www.w3.org/2000/svg">
<g id="Group">
<path id="Vector" d="M10 0.667969C15.5227 0.667969 20 5.14531 20 10.668C20 16.1906 15.5224 20.668 10 20.668C4.4776 20.668 0 16.1917 0 10.668C0 5.14422 4.47679 0.667969 10 0.667969Z" fill="#53AE94"/>
<path id="Vector_2" d="M11.2329 9.33641V7.84867H14.6347V5.58203H5.37153V7.84867H8.77366V9.33505C6.00866 9.46215 3.92969 10.0097 3.92969 10.6655C3.92969 11.3214 6.00975 11.8692 8.77366 11.9968V16.7618H11.2337V11.9963C13.9938 11.8689 16.0684 11.3217 16.0684 10.6664C16.0684 10.011 13.9935 9.46378 11.2337 9.33641M11.2337 11.5933V11.5919C11.1644 11.5963 10.8076 11.6177 10.0137 11.6177C9.37903 11.6177 8.93227 11.5998 8.77502 11.5916V11.5935C6.33212 11.4855 4.50898 11.0599 4.50898 10.5509C4.50898 10.042 6.33266 9.61723 8.77502 9.50859V11.1696C8.93498 11.1805 9.39261 11.2076 10.0243 11.2076C10.7828 11.2076 11.1641 11.1761 11.2342 11.1696V9.50887C13.6722 9.6175 15.4913 10.0433 15.4913 10.5504C15.4913 11.0577 13.6714 11.4836 11.2342 11.5922" fill="white"/>
</g>
</svg>
