<svg width="21" height="20" viewBox="0 0 21 20" fill="none" xmlns="http://www.w3.org/2000/svg">
<g clip-path="url(#clip0_2974_2203)">
<path d="M19.7027 12.4135C18.3684 17.7674 12.9458 21.0366 7.58209 19.7014C2.2282 18.363 -1.03581 12.9404 0.29857 7.5865C1.63296 2.23263 7.05226 -1.03663 12.4029 0.298561C17.7699 1.61739 21.0339 7.05635 19.7027 12.4135Z" fill="#0088CC"/>
<path fill-rule="evenodd" clip-rule="evenodd" d="M6.10899 5.02539H14.1208C14.3888 5.02539 14.6538 5.02539 15.011 5.20403C15.3683 5.38266 15.544 5.65062 15.7226 5.82628C15.7226 5.82628 15.7226 5.82628 15.7226 5.9156C15.9012 6.18355 15.9906 6.44853 15.9906 6.8058C15.9906 7.07376 15.9012 7.42805 15.7226 7.69601L10.6493 16.3331C10.56 16.5117 10.2921 16.601 10.1164 16.601C9.93776 16.601 9.67279 16.5117 9.58347 16.3331L4.59653 7.69601C4.50721 7.51737 4.32858 7.25239 4.23926 6.8058C4.23926 6.44853 4.32858 6.09423 4.41789 5.82628C4.59653 5.55832 4.86151 5.29335 5.12946 5.11471C5.57605 5.02539 5.93035 5.02539 6.10899 5.02539ZM9.49117 6.27287H6.10899C5.93035 6.27287 5.84103 6.27287 5.75171 6.27287C5.6624 6.27287 5.57308 6.36219 5.57308 6.45151C5.48376 6.54082 5.48376 6.63014 5.48376 6.71946C5.48376 6.80878 5.48376 6.80878 5.6624 7.07673L9.49117 13.7548V6.27287ZM10.7387 6.27287V13.7518L14.6567 7.07376C14.6567 6.98444 14.7461 6.89512 14.7461 6.71648C14.7461 6.62716 14.7461 6.53785 14.6567 6.44853C14.5674 6.35921 14.5674 6.35921 14.5674 6.35921C14.5674 6.35921 14.5674 6.35921 14.4781 6.35921C14.3888 6.35921 14.2995 6.26989 14.1208 6.26989H10.7387V6.27287Z" fill="white"/>
<path d="M16 0.75C17.7949 0.75 19.25 2.20507 19.25 4C19.25 5.79493 17.7949 7.25 16 7.25C14.2051 7.25 12.75 5.79493 12.75 4C12.75 2.20507 14.2051 0.75 16 0.75Z" stroke="white" stroke-width="0.5"/>
<path d="M18.9108 4.72405C18.5105 6.33021 16.8837 7.31099 15.2746 6.91043C13.6685 6.50889 12.6893 4.88211 13.0896 3.27595C13.4899 1.66979 15.1157 0.68901 16.7209 1.08957C18.331 1.48522 19.3102 3.11691 18.9108 4.72405Z" fill="#0088CC"/>
<path fill-rule="evenodd" clip-rule="evenodd" d="M14.8324 2.50757H17.236C17.3163 2.50757 17.3958 2.50757 17.503 2.56116C17.6102 2.61475 17.6629 2.69514 17.7165 2.74783C17.7165 2.74783 17.7165 2.74783 17.7165 2.77463C17.7701 2.85502 17.7969 2.93451 17.7969 3.04169C17.7969 3.12208 17.7701 3.22837 17.7165 3.30875L16.1945 5.89988C16.1677 5.95347 16.0873 5.98026 16.0346 5.98026C15.981 5.98026 15.9015 5.95347 15.8747 5.89988L14.3787 3.30875C14.3519 3.25516 14.2983 3.17567 14.2715 3.04169C14.2715 2.93451 14.2983 2.82822 14.3251 2.74783C14.3787 2.66745 14.4582 2.58795 14.5385 2.53436C14.6725 2.50757 14.7788 2.50757 14.8324 2.50757ZM15.8471 2.88181H14.8324C14.7788 2.88181 14.752 2.88181 14.7252 2.88181C14.6984 2.88181 14.6716 2.90861 14.6716 2.9354C14.6448 2.9622 14.6448 2.98899 14.6448 3.01579C14.6448 3.04258 14.6448 3.04258 14.6984 3.12297L15.8471 5.12638V2.88181ZM16.2213 2.88181V5.12549L17.3967 3.12208C17.3967 3.09528 17.4235 3.06849 17.4235 3.0149C17.4235 2.9881 17.4235 2.9613 17.3967 2.93451C17.3699 2.90771 17.3699 2.90771 17.3699 2.90771C17.3699 2.90771 17.3699 2.90771 17.3431 2.90771C17.3163 2.90771 17.2895 2.88092 17.236 2.88092H16.2213V2.88181Z" fill="white"/>
</g>
<defs>
<clipPath id="clip0_2974_2203">
<rect width="21" height="20" fill="white"/>
</clipPath>
</defs>
</svg>
