<svg width="16" height="16" viewBox="0 0 16 16" fill="none" xmlns="http://www.w3.org/2000/svg">
<path d="M15.7642 9.93055C14.6966 14.2136 10.3586 16.8291 6.06762 15.7609C1.78451 14.6901 -0.826698 10.3521 0.240809 6.06896C1.30832 1.78586 5.64376 -0.829552 9.92426 0.238605C14.2178 1.29367 16.829 5.64484 15.7642 9.93055Z" fill="url(#paint0_linear_6710_180844)"/>
<path fill-rule="evenodd" clip-rule="evenodd" d="M3.63125 2.7549C4.76061 4.13943 6.00062 5.87883 6.20119 6.16017C6.21188 6.17517 6.21962 6.18602 6.22423 6.19246C6.33114 6.34173 6.41941 6.45269 6.48643 6.53695C6.63524 6.72401 6.67939 6.77953 6.59061 6.83051C6.51899 6.87163 6.44511 6.88519 6.37139 6.88519C6.288 6.88519 6.19406 6.84463 6.12566 6.77909C6.07731 6.73277 5.74647 6.24744 5.29598 5.54139C4.95129 5.00115 4.66282 4.55299 4.65495 4.54549C4.63676 4.52813 4.63707 4.52872 5.26083 5.65605C5.6525 6.36393 5.92042 6.88704 5.92042 6.92051C5.92042 6.98859 5.90203 7.02437 5.81889 7.11804C5.68029 7.27424 5.61833 7.44972 5.57361 7.81289C5.52347 8.21999 5.38248 8.50761 4.99176 8.99977C4.76305 9.28791 4.72563 9.3407 4.66791 9.45684C4.59523 9.60308 4.57523 9.68498 4.56713 9.86965C4.55857 10.0649 4.57525 10.191 4.6343 10.3777C4.686 10.5411 4.73997 10.6491 4.87793 10.8649C4.99699 11.0511 5.06554 11.1895 5.06554 11.2437C5.06554 11.2868 5.07368 11.2868 5.25817 11.2448C5.69968 11.144 6.05819 10.967 6.25982 10.7499C6.3846 10.6155 6.4139 10.5413 6.41485 10.3572C6.41547 10.2368 6.41128 10.2116 6.37905 10.1423C6.32659 10.0295 6.23109 9.93582 6.0206 9.79048C5.7448 9.60002 5.627 9.44672 5.59447 9.23587C5.56778 9.06288 5.59874 8.94081 5.75132 8.61782C5.90923 8.28348 5.94837 8.14101 5.97484 7.80399C5.99194 7.58626 6.01562 7.5004 6.07755 7.4315C6.14215 7.35963 6.20029 7.33528 6.36014 7.31319C6.62074 7.27726 6.78668 7.20915 6.92308 7.08219C7.0414 6.97205 7.09092 6.86593 7.09852 6.70617L7.10429 6.58508L7.03816 6.50721C6.7987 6.22519 3.47088 2.5332 3.45615 2.5332C3.453 2.5332 3.5318 2.63297 3.63125 2.7549ZM5.19996 10.0906C5.2541 9.9937 5.22534 9.86922 5.13477 9.80837C5.0492 9.75092 4.91628 9.778 4.91628 9.85288C4.91628 9.87572 4.92879 9.89235 4.95699 9.90704C5.00446 9.93172 5.00791 9.95946 4.97056 10.0162C4.93272 10.0736 4.93577 10.1241 4.97917 10.1584C5.04911 10.2137 5.14811 10.1833 5.19996 10.0906ZM6.82957 4.80913C6.72274 4.79239 6.71824 4.79043 6.76851 4.78262C6.86485 4.76766 7.09234 4.78805 7.24911 4.82571C7.6151 4.91357 7.94812 5.13868 8.30359 5.53846L8.39802 5.64467L8.53314 5.62273C9.1023 5.53034 9.68131 5.60377 10.1656 5.82974C10.2988 5.89192 10.5089 6.01567 10.5351 6.04747C10.5435 6.0576 10.5589 6.12284 10.5692 6.19246C10.6052 6.43331 10.5872 6.61792 10.5143 6.75581C10.4746 6.83084 10.4724 6.85462 10.499 6.91884C10.5203 6.97008 10.5797 7.008 10.6385 7.00792C10.7589 7.00775 10.8884 6.81125 10.9484 6.53782L10.9723 6.42921L11.0195 6.48325C11.2785 6.77972 11.482 7.18403 11.517 7.47181L11.5261 7.54684L11.4826 7.47864C11.4076 7.36128 11.3323 7.28135 11.2359 7.21691C11.0621 7.10074 10.8783 7.06121 10.3916 7.0353C9.95197 7.0119 9.70321 6.97398 9.45651 6.89272C9.03674 6.7545 8.82519 6.5704 8.32658 5.90966C8.10513 5.61618 7.96826 5.45381 7.8321 5.32304C7.52272 5.02592 7.21872 4.8701 6.82957 4.80913ZM10.6343 5.46439C10.6453 5.26774 10.6717 5.13802 10.7248 5.01957C10.7458 4.97268 10.7655 4.9343 10.7685 4.9343C10.7716 4.9343 10.7625 4.96891 10.7482 5.0112C10.7097 5.12617 10.7033 5.28341 10.7299 5.46636C10.7636 5.69849 10.7828 5.73198 11.0257 5.98273C11.1396 6.10035 11.2722 6.24868 11.3202 6.31237L11.4076 6.42816L11.3202 6.34541C11.2134 6.24421 10.9677 6.04684 10.9135 6.01862C10.8771 5.99971 10.8717 6.00003 10.8493 6.02259C10.8286 6.04339 10.8242 6.07463 10.8213 6.22232C10.8168 6.45252 10.7858 6.60026 10.7108 6.748C10.6703 6.82791 10.6639 6.81085 10.7006 6.72066C10.728 6.65332 10.7308 6.62372 10.7306 6.40088C10.7301 5.95314 10.6775 5.8455 10.3689 5.66111C10.2907 5.6144 10.1619 5.54703 10.0826 5.51139C10.0034 5.47576 9.94043 5.44472 9.94269 5.44241C9.95145 5.43362 10.2524 5.52235 10.3736 5.56942C10.5538 5.63943 10.5835 5.6485 10.6054 5.64006C10.62 5.63439 10.6271 5.59124 10.6343 5.46439ZM6.71507 5.12066C6.68602 5.46634 6.82021 5.92875 7.03709 6.23035C7.20522 6.46414 7.46583 6.64582 7.65824 6.66336C7.78421 6.67485 7.82208 6.63501 7.76508 6.55095C7.68596 6.43422 7.58864 6.25449 7.56288 6.17755C7.54689 6.12974 7.51212 5.98854 7.48562 5.86377C7.39515 5.43778 7.30623 5.27189 7.10083 5.14588C7.02598 5.09996 6.86613 5.03986 6.77343 5.02279L6.72406 5.01368L6.71507 5.12066ZM10.3712 8.47497C9.35766 8.06278 9.00067 7.70499 9.00067 7.10129C9.00067 7.01245 9.00373 6.93976 9.0074 6.93976C9.01112 6.93976 9.05031 6.96908 9.09453 7.00492C9.30006 7.17142 9.53022 7.24255 10.1674 7.33641C10.5423 7.3917 10.7533 7.4363 10.9479 7.50153C11.5665 7.70876 11.9493 8.12928 12.0406 8.70212C12.0671 8.86856 12.0515 9.18067 12.0085 9.34518C11.9746 9.47512 11.871 9.70928 11.8435 9.71828C11.8359 9.72077 11.8284 9.69129 11.8265 9.65117C11.816 9.43607 11.7084 9.22668 11.5277 9.0698C11.3222 8.89145 11.0462 8.7495 10.3712 8.47497ZM9.61071 8.42962C9.62493 8.47243 9.64697 8.56987 9.65964 8.64622C9.74084 9.13423 9.48722 9.52853 8.99389 9.68131C8.94166 9.69746 8.73594 9.73815 8.53672 9.77164C8.13345 9.83946 7.95346 9.8875 7.77265 9.97547C7.64442 10.0379 7.48917 10.1313 7.4984 10.1406C7.50137 10.1436 7.53064 10.1365 7.56343 10.1249C7.79145 10.044 8.04521 10.0022 8.43075 9.98193C8.58377 9.97392 8.75779 9.96111 8.81751 9.95353C9.16098 9.90982 9.39906 9.80442 9.58419 9.6141C9.68719 9.50818 9.74861 9.40951 9.79811 9.27039C9.82947 9.18213 9.83371 9.14935 9.83395 8.99299C9.83423 8.83366 9.83041 8.80451 9.79641 8.7065C9.7519 8.57802 9.69939 8.48161 9.63289 8.40621L9.58485 8.35177L9.61071 8.42962ZM10.1243 9.47969C9.9896 9.18726 9.9587 8.90497 10.0325 8.64169C10.0404 8.61353 10.053 8.5905 10.0607 8.5905C10.0683 8.5905 10.1001 8.60788 10.1313 8.62907C10.1933 8.67127 10.3178 8.74234 10.6494 8.92493C11.0632 9.15279 11.2991 9.32921 11.4595 9.53083C11.6 9.70735 11.6869 9.90841 11.7287 10.1536C11.7525 10.2925 11.7386 10.6267 11.7033 10.7665C11.5921 11.2075 11.3335 11.5538 10.9647 11.756C10.9107 11.7855 10.8622 11.8098 10.8569 11.81C10.8517 11.8101 10.8714 11.7595 10.9007 11.6976C11.0247 11.4357 11.0389 11.1809 10.9451 10.8973C10.8876 10.7237 10.7706 10.5118 10.5341 10.1536C10.2593 9.73731 10.1919 9.62649 10.1243 9.47969ZM7.5877 10.4388C7.16142 10.5087 6.69343 10.7366 6.31731 11.0573L6.20533 11.1528L6.30374 11.1684C6.81728 11.2493 6.95557 11.3212 7.31178 11.6918C7.51677 11.9051 7.586 11.9525 7.75603 11.9964C8.00577 12.0608 8.25193 11.9425 8.33637 11.7174C8.3741 11.6169 8.36906 11.4504 8.32578 11.3668C8.22282 11.1677 7.92288 11.1034 7.77784 11.2492C7.65703 11.3707 7.69223 11.5536 7.84248 11.5851C7.87688 11.5924 7.8759 11.5908 7.83372 11.5715C7.76796 11.5415 7.73939 11.4999 7.73903 11.4336C7.73819 11.2782 7.91421 11.191 8.07796 11.2656C8.19786 11.3203 8.24548 11.3917 8.24548 11.5169C8.24548 11.7096 8.08306 11.8549 7.89403 11.8311C7.79299 11.8184 7.66943 11.7531 7.60317 11.6775C7.43645 11.4871 7.5014 11.1866 7.73417 11.0713C7.91138 10.9836 8.14693 11.0052 8.32959 11.126C8.53945 11.2648 8.6287 11.3917 8.80946 11.8081C8.86833 11.9437 8.94406 12.0964 8.97773 12.1473C9.14897 12.4062 9.35413 12.5332 9.60124 12.5332C9.73754 12.5332 9.84007 12.5081 9.96907 12.443C10.0649 12.3946 10.2008 12.3028 10.191 12.2929C10.1882 12.2901 10.1485 12.3026 10.1026 12.3207C9.83282 12.427 9.55853 12.4197 9.39925 12.3019C9.29893 12.2277 9.21802 12.08 9.17643 11.8953C9.16923 11.8633 9.14549 11.7221 9.12364 11.5815C9.06825 11.2251 9.01508 11.0649 8.89108 10.881C8.7642 10.6929 8.52028 10.535 8.2476 10.4645C8.07747 10.4205 7.77142 10.4086 7.5877 10.4388ZM6.99067 7.68299C7.02748 7.54566 7.14641 7.41468 7.26875 7.37672C7.34654 7.35261 7.50734 7.36801 7.58295 7.40682C7.72947 7.48208 7.83585 7.65346 7.81276 7.77719C7.78461 7.92804 7.54241 8.04875 7.2638 8.05072C7.12149 8.05171 7.06894 8.0324 7.01459 7.95912C6.98096 7.91372 6.96821 7.76678 6.99067 7.68299ZM7.54554 7.4606C7.61861 7.50567 7.63741 7.57232 7.59444 7.63397C7.56485 7.67645 7.47323 7.71681 7.40628 7.71681C7.30569 7.71681 7.19595 7.64466 7.19595 7.57858C7.19595 7.44581 7.40638 7.37475 7.54554 7.4606Z" fill="#FF007A"/>
<defs>
<linearGradient id="paint0_linear_6710_180844" x1="11.5949" y1="15.3003" x2="3.29492" y2="0.000341067" gradientUnits="userSpaceOnUse">
<stop stop-color="#FAE6F2"/>
<stop offset="1" stop-color="#FDF8FC"/>
</linearGradient>
</defs>
</svg>
