<svg width="16" height="16" viewBox="0 0 16 16" fill="none" xmlns="http://www.w3.org/2000/svg">
<path d="M15.7642 9.93055C14.6966 14.2136 10.3586 16.8291 6.06762 15.7609C1.78451 14.6901 -0.826698 10.3521 0.240809 6.06896C1.30832 1.78586 5.64376 -0.829552 9.92426 0.238605C14.2178 1.29367 16.829 5.64484 15.7642 9.93055Z" fill="#2775CA"/>
<path d="M3.34671 6.2336C2.37999 8.80032 3.71334 11.7003 6.31334 12.6336C6.41334 12.7003 6.51334 12.8336 6.51334 12.9336V13.4003C6.51334 13.467 6.51334 13.5003 6.47998 13.5336C6.4467 13.667 6.31334 13.7336 6.17998 13.667C4.31334 13.067 2.87998 11.6336 2.27999 9.76696C1.27999 6.60032 3.01335 3.2336 6.17998 2.2336C6.21334 2.20032 6.27998 2.20032 6.31334 2.20032C6.4467 2.2336 6.51334 2.3336 6.51334 2.46696V2.9336C6.51334 3.10032 6.4467 3.20032 6.31334 3.26696C4.9467 3.76696 3.8467 4.8336 3.34671 6.2336Z" fill="white"/>
<path d="M9.5467 2.36696C9.57998 2.2336 9.71334 2.16696 9.8467 2.2336C11.68 2.8336 13.1467 4.26696 13.7467 6.16696C14.7467 9.3336 13.0133 12.7003 9.8467 13.7003C9.81334 13.7336 9.7467 13.7336 9.71334 13.7336C9.57998 13.7003 9.51334 13.6003 9.51334 13.467V13.0003C9.51334 12.8336 9.57998 12.7336 9.71334 12.667C11.08 12.167 12.18 11.1003 12.68 9.70032C13.6467 7.1336 12.3133 4.2336 9.71334 3.30032C9.61334 3.2336 9.51334 3.10032 9.51334 2.96696V2.50032C9.51334 2.4336 9.51334 2.40032 9.5467 2.36696Z" fill="white"/>
<path d="M8.11332 7.40034C9.51332 7.56698 10.2133 7.96698 10.2133 9.13362C10.2133 10.0336 9.54668 10.7336 8.54668 10.9003V11.7003C8.51332 11.867 8.41332 11.967 8.27996 11.967H7.77996C7.61332 11.9336 7.51332 11.8336 7.51332 11.7003V10.9003C6.41332 10.7336 5.87996 10.1336 5.74668 9.30034V9.26698C5.74668 9.13362 5.84668 9.03362 5.97996 9.03362H6.54668C6.64668 9.03362 6.74668 9.10034 6.77996 9.23362C6.87996 9.73362 7.17996 10.1003 8.04668 10.1003C8.67996 10.1003 9.14668 9.7337 9.14668 9.20034C9.14668 8.66698 8.84668 8.46698 7.91332 8.30034C6.51332 8.13362 5.84668 7.70034 5.84668 6.60034C5.84668 5.76698 6.47996 5.10034 7.47996 4.96698V4.20034C7.51332 4.03362 7.61332 3.93362 7.74668 3.93362H8.24668C8.41332 3.96698 8.51332 4.06698 8.51332 4.20034V5.00034C9.27996 5.06698 9.87996 5.63362 10.0133 6.36698V6.40034C10.0133 6.53362 9.91332 6.63362 9.77996 6.63362H9.24668C9.14668 6.63362 9.04668 6.56698 9.01332 6.46698C8.84668 5.96698 8.51332 5.76698 7.91332 5.76698C7.24668 5.76698 6.91332 6.0669 6.91332 6.53362C6.91332 7.00034 7.11332 7.26698 8.11332 7.40034Z" fill="white"/>
</svg>
