<svg width="16" height="16" viewBox="0 0 16 16" fill="none" xmlns="http://www.w3.org/2000/svg">
<path fill-rule="evenodd" clip-rule="evenodd" d="M8.73507 3.05658L9.95373 5.49191C10.0744 5.73191 10.3057 5.89724 10.5717 5.93458L13.2984 6.32724C13.7404 6.38526 14.0511 6.79126 13.9931 7.23326C13.9691 7.41392 13.8844 7.58192 13.7531 7.70859L11.7811 9.60326C11.5871 9.78792 11.4984 10.0566 11.5451 10.3206L12.0117 12.9953C12.0837 13.4419 11.7797 13.8619 11.3331 13.9339C11.1571 13.9619 10.9771 13.9319 10.8197 13.8486L8.38373 12.5859C8.14373 12.4619 7.85907 12.4619 7.61907 12.5859L5.18173 13.8492C4.78239 14.0612 4.28707 13.9092 4.07507 13.5099C3.99173 13.3519 3.96172 13.1719 3.99039 12.9959L4.45707 10.3206C4.50307 10.0573 4.41439 9.78859 4.22106 9.60392L2.24706 7.70926C1.92639 7.39992 1.9164 6.88926 2.22573 6.56792C2.3524 6.43659 2.52039 6.35192 2.70172 6.3279L5.4284 5.93524C5.6944 5.89791 5.92573 5.73258 6.04706 5.49258L7.26773 3.05658C7.47773 2.65125 7.9764 2.49325 8.38173 2.70325C8.53307 2.78125 8.6564 2.90458 8.73507 3.05658Z" stroke="#E3B075" stroke-width="1.2" stroke-linecap="round" stroke-linejoin="round"/>
</svg>
