<svg width="55" height="56" viewBox="-5 -8 55 56" fill="none" xmlns="http://www.w3.org/2000/svg">
<g filter="url(#filter0_d_6039_60535)">
<mask id="path-1-inside-1_6039_60535" fill="white">
<path d="M22.8047 1.25C19.0963 1.25 15.4712 2.34967 12.3878 4.40994C9.30433 6.47022 6.9011 9.39857 5.48195 12.8247C4.06281 16.2508 3.6915 20.0208 4.41497 23.6579C5.13844 27.2951 6.92421 30.636 9.54644 33.2583C12.1687 35.8805 15.5096 37.6663 19.1468 38.3897C22.7839 39.1132 26.5539 38.7419 29.98 37.3227C33.4061 35.9036 36.3345 33.5004 38.3947 30.4169C40.455 27.3335 41.5547 23.7084 41.5547 20C41.5491 15.0289 39.5718 10.263 36.0567 6.74796C32.5416 3.23287 27.7758 1.25562 22.8047 1.25ZM40.2631 18.8577C40.2815 19.1402 40.0542 19.375 39.7711 19.375H39.5204C39.2516 19.375 39.0318 19.1625 39.0136 18.8944C38.9675 18.2154 38.8788 17.5399 38.7479 16.872C38.6963 16.6083 38.8537 16.3463 39.1133 16.2769L39.3555 16.212C39.629 16.1389 39.9093 16.307 39.9645 16.5847C40.1138 17.335 40.2135 18.0943 40.2631 18.8577ZM39.5362 14.87C39.5367 14.87 39.5367 14.8706 39.5363 14.8707L38.467 15.1569C38.3913 15.1771 38.3133 15.134 38.2893 15.0595C38.0468 14.3035 37.7488 13.5666 37.3978 12.8547C37.2787 12.6132 37.3627 12.3184 37.596 12.1838L37.8135 12.0584C38.0585 11.9171 38.3724 12.0067 38.4978 12.2601C38.9135 13.1003 39.2607 13.973 39.5359 14.8697C39.5359 14.8699 39.5361 14.87 39.5362 14.87ZM35.2384 8.45058C35.4385 8.25017 35.7655 8.25539 35.9524 8.46823C36.4564 9.04233 36.9226 9.64864 37.3478 10.2833C37.5056 10.5188 37.4263 10.8365 37.1807 10.9782L36.9632 11.1037C36.7308 11.2378 36.4346 11.1641 36.2847 10.9416C35.9048 10.3778 35.49 9.83833 35.0427 9.32633C34.866 9.12401 34.871 8.81844 35.0609 8.62836L35.2384 8.45058ZM27.8007 3.77027C27.8739 3.49638 28.1601 3.33737 28.4285 3.42878C29.1529 3.67554 29.8602 3.96986 30.5458 4.30982C30.799 4.43537 30.8883 4.74912 30.7471 4.99395L30.6215 5.21178C30.487 5.44509 30.1921 5.52915 29.9506 5.41003C29.3404 5.10913 28.7117 4.84716 28.0683 4.62571C27.8147 4.53841 27.6669 4.27161 27.7361 4.01248L27.8007 3.77027ZM31.2899 17.7018C31.4851 17.5065 31.8018 17.5064 31.997 17.7017L33.9418 19.6464C34.137 19.8417 34.137 20.1583 33.9418 20.3536L31.997 22.2983C31.8018 22.4936 31.4851 22.4935 31.2899 22.2982L29.3456 20.3535C29.1504 20.1583 29.1504 19.8417 29.3456 19.6465L31.2899 17.7018ZM23.4297 3.03357C23.4297 2.75052 23.6645 2.52319 23.947 2.54156C24.7104 2.59119 25.4697 2.69094 26.22 2.84017C26.4977 2.89539 26.6658 3.17573 26.5926 3.4492L26.5278 3.69142C26.4584 3.95097 26.1964 4.10841 25.9327 4.05675C25.2648 3.92589 24.5893 3.83716 23.9103 3.79109C23.6422 3.77289 23.4297 3.55305 23.4297 3.28432V3.03357ZM29.5223 15.2246C29.7176 15.4198 29.7176 15.7365 29.5223 15.9317L27.5775 17.8765C27.3823 18.0718 27.0658 18.0718 26.8705 17.8766L23.1583 14.1659C22.963 13.9707 22.6464 13.9708 22.4512 14.166L18.7389 17.8789C18.5436 18.0742 18.227 18.0742 18.0317 17.8789L16.087 15.9342C15.8917 15.7389 15.8917 15.4223 16.087 15.2271L22.4512 8.86287C22.6464 8.66763 22.963 8.6676 23.1582 8.8628L29.5223 15.2246ZM25.103 19.6464C25.2983 19.8417 25.2983 20.1583 25.103 20.3536L23.1582 22.2983C22.963 22.4936 22.6464 22.4936 22.4511 22.2983L20.5064 20.3536C20.3111 20.1583 20.3111 19.8417 20.5064 19.6464L22.4511 17.7017C22.6464 17.5064 22.963 17.5064 23.1582 17.7017L25.103 19.6464ZM16.2637 19.6464C16.4589 19.8417 16.4589 20.1583 16.2637 20.3535L14.3189 22.2983C14.1236 22.4936 13.807 22.4935 13.6118 22.2982L11.6675 20.3536C11.4723 20.1583 11.4723 19.8417 11.6676 19.6465L13.6123 17.7017C13.8076 17.5064 14.1242 17.5065 14.3195 17.7018L16.2637 19.6464ZM21.6624 2.54156C21.9449 2.52319 22.1797 2.75052 22.1797 3.03357V3.28432C22.1797 3.55305 21.9672 3.77289 21.6991 3.79109C21.0201 3.83716 20.3446 3.92589 19.6767 4.05675C19.413 4.10841 19.151 3.95097 19.0816 3.69142L19.0167 3.4492C18.9436 3.17573 19.1117 2.89539 19.3894 2.84017C20.1397 2.69094 20.899 2.59119 21.6624 2.54156ZM17.1811 3.42876C17.4494 3.33735 17.7356 3.49623 17.8088 3.77001L17.8737 4.01231C17.943 4.27151 17.7951 4.53845 17.5414 4.62579C16.8982 4.84722 16.2696 5.10916 15.6594 5.41003C15.4179 5.52915 15.1231 5.44509 14.9885 5.21178L14.8629 4.99392C14.7217 4.74911 14.811 4.43536 15.0642 4.3098C15.7497 3.96986 16.4569 3.67554 17.1811 3.42876ZM13.088 5.45691C13.3235 5.29911 13.6412 5.37844 13.7829 5.62398L13.9084 5.8415C14.0425 6.0739 13.9688 6.37006 13.7463 6.52001C13.1825 6.89994 12.643 7.31474 12.131 7.76198C11.9287 7.93871 11.6231 7.93365 11.4331 7.74384L11.2553 7.56631C11.0549 7.36618 11.0601 7.03915 11.2729 6.85229C11.847 6.34826 12.4533 5.88214 13.088 5.45691ZM7.11451 12.2589C7.24006 12.0057 7.55382 11.9164 7.79865 12.0576L8.01648 12.1832C8.24979 12.3177 8.33384 12.6126 8.21473 12.8541C7.91382 13.4643 7.65186 14.093 7.4304 14.7363C7.3431 14.99 7.07631 15.1378 6.81717 15.0686L6.57497 15.0039C6.30108 14.9308 6.14206 14.6445 6.23347 14.3762C6.48024 13.6518 6.77456 12.9445 7.11451 12.2589ZM5.64487 16.5847C5.70009 16.307 5.98043 16.1389 6.2539 16.212L6.49612 16.2769C6.75567 16.3463 6.9131 16.6083 6.86144 16.872C6.73059 17.5399 6.64186 18.2154 6.59578 18.8944C6.57759 19.1625 6.35775 19.375 6.08902 19.375H5.83827C5.55522 19.375 5.32789 19.1402 5.34625 18.8577C5.39589 18.0943 5.49564 17.335 5.64487 16.5847ZM5.34625 21.1423C5.32789 20.8598 5.55522 20.625 5.83827 20.625H6.08902C6.35775 20.625 6.57759 20.8375 6.59578 21.1056C6.64186 21.7846 6.73059 22.4601 6.86144 23.128C6.9131 23.3917 6.75567 23.6537 6.49612 23.7231L6.2539 23.788C5.98043 23.8611 5.70009 23.693 5.64487 23.4153C5.49564 22.665 5.39589 21.9057 5.34625 21.1423ZM6.23345 25.6236C6.14204 25.3553 6.30093 25.0691 6.57471 24.9959L6.81701 24.931C7.0762 24.8617 7.34315 25.0095 7.43048 25.2632C7.65192 25.9065 7.91386 26.5351 8.21473 27.1453C8.33384 27.3868 8.24979 27.6816 8.01648 27.8162L7.79862 27.9418C7.5538 28.083 7.24006 27.9937 7.1145 27.7405C6.77456 27.055 6.48024 26.3478 6.23345 25.6236ZM10.371 31.5494C10.1709 31.7498 9.84384 31.7446 9.65698 31.5318C9.15295 30.9577 8.68684 30.3514 8.2616 29.7167C8.10381 29.4812 8.18314 29.1635 8.42867 29.0218L8.64619 28.8963C8.8786 28.7622 9.17475 28.8359 9.32471 29.0584C9.70464 29.6222 10.1194 30.1617 10.5667 30.6737C10.7434 30.876 10.7383 31.1816 10.5485 31.3716L10.371 31.5494ZM9.32467 10.9414C9.17475 11.164 8.87853 11.2378 8.64607 11.1036L8.42867 10.9782C8.18314 10.8365 8.10381 10.5188 8.2616 10.2833C8.68691 9.64854 9.1531 9.04213 9.65722 8.46795C9.844 8.25522 10.1708 8.24989 10.371 8.45006L10.5481 8.62718C10.7381 8.8172 10.7433 9.1229 10.5666 9.32532C10.1193 9.83759 9.70456 10.3773 9.32467 10.9414ZM13.7827 34.3754C13.6412 34.6212 13.3233 34.7007 13.0876 34.5428C12.453 34.1176 11.8467 33.6515 11.2726 33.1475C11.0599 32.9607 11.0546 32.6339 11.2548 32.4337L11.4318 32.2566C11.6218 32.0666 11.9276 32.0614 12.13 32.2382C12.6421 32.6855 13.1816 33.1003 13.7454 33.4802C13.9677 33.6301 14.0415 33.926 13.9077 34.1584L13.7827 34.3754ZM17.8086 36.2297C17.7355 36.5036 17.4492 36.6626 17.1809 36.5712C16.4565 36.3245 15.7492 36.0301 15.0636 35.6902C14.8104 35.5646 14.7211 35.2509 14.8623 35.0061L14.9879 34.7882C15.1224 34.5549 15.4173 34.4709 15.6588 34.59C16.269 34.8909 16.8977 35.1528 17.541 35.3743C17.7947 35.4616 17.9425 35.7284 17.8733 35.9875L17.8086 36.2297ZM22.1797 36.9664C22.1797 37.2495 21.9449 37.4768 21.6624 37.4584C20.899 37.4088 20.1397 37.3091 19.3894 37.1598C19.1117 37.1046 18.9436 36.8243 19.0167 36.5508L19.0816 36.3086C19.151 36.049 19.413 35.8916 19.6767 35.9433C20.3446 36.0741 21.0201 36.1628 21.6991 36.2089C21.9672 36.2271 22.1797 36.4469 22.1797 36.7157V36.9664ZM16.0871 24.7754C15.8918 24.5802 15.8918 24.2635 16.0871 24.0683L18.0318 22.1235C18.2271 21.9282 18.5436 21.9282 18.7389 22.1234L22.4511 25.8341C22.6464 26.0293 22.9629 26.0293 23.1582 25.834L26.8705 22.1217C27.0658 21.9264 27.3824 21.9264 27.5776 22.1217L29.5224 24.0664C29.7176 24.2617 29.7176 24.5783 29.5224 24.7736L23.1582 31.1372C22.9629 31.3324 22.6464 31.3324 22.4512 31.1372L16.0871 24.7754ZM23.947 37.4584C23.6645 37.4768 23.4297 37.2495 23.4297 36.9664V36.7157C23.4297 36.4469 23.6422 36.2271 23.9103 36.2089C24.5893 36.1628 25.2648 36.0741 25.9327 35.9433C26.1964 35.8916 26.4584 36.049 26.5278 36.3086L26.5926 36.5508C26.6658 36.8243 26.4977 37.1046 26.22 37.1598C25.4697 37.3091 24.7104 37.4088 23.947 37.4584ZM27.9347 36.7315C27.9347 36.732 27.9341 36.732 27.934 36.7316L27.6478 35.6623C27.6276 35.5866 27.6707 35.5086 27.7452 35.4846C28.5012 35.2421 29.2381 34.9441 29.95 34.5931C30.1915 34.474 30.4863 34.558 30.6209 34.7913L30.7463 35.0088C30.8876 35.2538 30.798 35.5677 30.5446 35.6931C29.7044 36.1088 28.8317 36.456 27.935 36.7312C27.9348 36.7312 27.9347 36.7314 27.9347 36.7315ZM32.0859 34.826C32.0859 34.8268 32.085 34.827 32.0846 34.8264L31.5888 33.9673C31.5174 33.8434 31.5565 33.6855 31.6762 33.6072C32.3078 33.1941 32.9099 32.7377 33.4781 32.2414C33.6805 32.0646 33.9863 32.0697 34.1763 32.2598L34.3532 32.4366C34.5534 32.6369 34.548 32.9639 34.3351 33.1506C33.6314 33.7676 32.8795 34.3277 32.0863 34.8254C32.0861 34.8255 32.0859 34.8258 32.0859 34.826ZM34.1763 7.74696C33.9863 7.93678 33.6807 7.94183 33.4784 7.76511C32.9664 7.31787 32.4269 6.90307 31.8631 6.52314C31.6406 6.37318 31.5669 6.07703 31.701 5.84462L31.8265 5.6271C31.9682 5.38157 32.2859 5.30224 32.5214 5.46003C33.1561 5.88527 33.7624 6.35138 34.3365 6.85541C34.5493 7.04227 34.5545 7.36931 34.3541 7.56944L34.1763 7.74696ZM35.9522 31.5322C35.7654 31.7449 35.4386 31.7502 35.2385 31.55L35.0613 31.3729C34.8713 31.1828 34.8661 30.8771 35.0429 30.6747C35.4901 30.1627 35.9048 29.6234 36.2847 29.0597C36.4346 28.8372 36.7308 28.7634 36.9632 28.8976L37.1806 29.023C37.4262 29.1647 37.5055 29.4825 37.3476 29.718C36.9223 30.3524 36.4562 30.9584 35.9522 31.5322ZM38.4949 27.7411C38.3693 27.9943 38.0556 28.0836 37.8108 27.9424L37.5929 27.8168C37.3596 27.6823 37.2755 27.3874 37.3947 27.1459C37.6955 26.5357 37.9575 25.9071 38.1789 25.2639C38.2662 25.0102 38.5332 24.8623 38.7924 24.9317L39.0347 24.9965C39.3085 25.0698 39.4673 25.3559 39.3759 25.6242C39.1292 26.3485 38.8348 27.0556 38.4949 27.7411ZM39.9645 23.4153C39.9093 23.693 39.629 23.8611 39.3555 23.788L39.1133 23.7231C38.8537 23.6537 38.6963 23.3917 38.7479 23.128C38.8788 22.4601 38.9675 21.7846 39.0136 21.1056C39.0318 20.8375 39.2516 20.625 39.5204 20.625H39.7711C40.0542 20.625 40.2815 20.8598 40.2631 21.1423C40.2135 21.9057 40.1138 22.665 39.9645 23.4153Z"/>
</mask>
<path d="M22.8047 1.25C19.0963 1.25 15.4712 2.34967 12.3878 4.40994C9.30433 6.47022 6.9011 9.39857 5.48195 12.8247C4.06281 16.2508 3.6915 20.0208 4.41497 23.6579C5.13844 27.2951 6.92421 30.636 9.54644 33.2583C12.1687 35.8805 15.5096 37.6663 19.1468 38.3897C22.7839 39.1132 26.5539 38.7419 29.98 37.3227C33.4061 35.9036 36.3345 33.5004 38.3947 30.4169C40.455 27.3335 41.5547 23.7084 41.5547 20C41.5491 15.0289 39.5718 10.263 36.0567 6.74796C32.5416 3.23287 27.7758 1.25562 22.8047 1.25ZM40.2631 18.8577C40.2815 19.1402 40.0542 19.375 39.7711 19.375H39.5204C39.2516 19.375 39.0318 19.1625 39.0136 18.8944C38.9675 18.2154 38.8788 17.5399 38.7479 16.872C38.6963 16.6083 38.8537 16.3463 39.1133 16.2769L39.3555 16.212C39.629 16.1389 39.9093 16.307 39.9645 16.5847C40.1138 17.335 40.2135 18.0943 40.2631 18.8577ZM39.5362 14.87C39.5367 14.87 39.5367 14.8706 39.5363 14.8707L38.467 15.1569C38.3913 15.1771 38.3133 15.134 38.2893 15.0595C38.0468 14.3035 37.7488 13.5666 37.3978 12.8547C37.2787 12.6132 37.3627 12.3184 37.596 12.1838L37.8135 12.0584C38.0585 11.9171 38.3724 12.0067 38.4978 12.2601C38.9135 13.1003 39.2607 13.973 39.5359 14.8697C39.5359 14.8699 39.5361 14.87 39.5362 14.87ZM35.2384 8.45058C35.4385 8.25017 35.7655 8.25539 35.9524 8.46823C36.4564 9.04233 36.9226 9.64864 37.3478 10.2833C37.5056 10.5188 37.4263 10.8365 37.1807 10.9782L36.9632 11.1037C36.7308 11.2378 36.4346 11.1641 36.2847 10.9416C35.9048 10.3778 35.49 9.83833 35.0427 9.32633C34.866 9.12401 34.871 8.81844 35.0609 8.62836L35.2384 8.45058ZM27.8007 3.77027C27.8739 3.49638 28.1601 3.33737 28.4285 3.42878C29.1529 3.67554 29.8602 3.96986 30.5458 4.30982C30.799 4.43537 30.8883 4.74912 30.7471 4.99395L30.6215 5.21178C30.487 5.44509 30.1921 5.52915 29.9506 5.41003C29.3404 5.10913 28.7117 4.84716 28.0683 4.62571C27.8147 4.53841 27.6669 4.27161 27.7361 4.01248L27.8007 3.77027ZM31.2899 17.7018C31.4851 17.5065 31.8018 17.5064 31.997 17.7017L33.9418 19.6464C34.137 19.8417 34.137 20.1583 33.9418 20.3536L31.997 22.2983C31.8018 22.4936 31.4851 22.4935 31.2899 22.2982L29.3456 20.3535C29.1504 20.1583 29.1504 19.8417 29.3456 19.6465L31.2899 17.7018ZM23.4297 3.03357C23.4297 2.75052 23.6645 2.52319 23.947 2.54156C24.7104 2.59119 25.4697 2.69094 26.22 2.84017C26.4977 2.89539 26.6658 3.17573 26.5926 3.4492L26.5278 3.69142C26.4584 3.95097 26.1964 4.10841 25.9327 4.05675C25.2648 3.92589 24.5893 3.83716 23.9103 3.79109C23.6422 3.77289 23.4297 3.55305 23.4297 3.28432V3.03357ZM29.5223 15.2246C29.7176 15.4198 29.7176 15.7365 29.5223 15.9317L27.5775 17.8765C27.3823 18.0718 27.0658 18.0718 26.8705 17.8766L23.1583 14.1659C22.963 13.9707 22.6464 13.9708 22.4512 14.166L18.7389 17.8789C18.5436 18.0742 18.227 18.0742 18.0317 17.8789L16.087 15.9342C15.8917 15.7389 15.8917 15.4223 16.087 15.2271L22.4512 8.86287C22.6464 8.66763 22.963 8.6676 23.1582 8.8628L29.5223 15.2246ZM25.103 19.6464C25.2983 19.8417 25.2983 20.1583 25.103 20.3536L23.1582 22.2983C22.963 22.4936 22.6464 22.4936 22.4511 22.2983L20.5064 20.3536C20.3111 20.1583 20.3111 19.8417 20.5064 19.6464L22.4511 17.7017C22.6464 17.5064 22.963 17.5064 23.1582 17.7017L25.103 19.6464ZM16.2637 19.6464C16.4589 19.8417 16.4589 20.1583 16.2637 20.3535L14.3189 22.2983C14.1236 22.4936 13.807 22.4935 13.6118 22.2982L11.6675 20.3536C11.4723 20.1583 11.4723 19.8417 11.6676 19.6465L13.6123 17.7017C13.8076 17.5064 14.1242 17.5065 14.3195 17.7018L16.2637 19.6464ZM21.6624 2.54156C21.9449 2.52319 22.1797 2.75052 22.1797 3.03357V3.28432C22.1797 3.55305 21.9672 3.77289 21.6991 3.79109C21.0201 3.83716 20.3446 3.92589 19.6767 4.05675C19.413 4.10841 19.151 3.95097 19.0816 3.69142L19.0167 3.4492C18.9436 3.17573 19.1117 2.89539 19.3894 2.84017C20.1397 2.69094 20.899 2.59119 21.6624 2.54156ZM17.1811 3.42876C17.4494 3.33735 17.7356 3.49623 17.8088 3.77001L17.8737 4.01231C17.943 4.27151 17.7951 4.53845 17.5414 4.62579C16.8982 4.84722 16.2696 5.10916 15.6594 5.41003C15.4179 5.52915 15.1231 5.44509 14.9885 5.21178L14.8629 4.99392C14.7217 4.74911 14.811 4.43536 15.0642 4.3098C15.7497 3.96986 16.4569 3.67554 17.1811 3.42876ZM13.088 5.45691C13.3235 5.29911 13.6412 5.37844 13.7829 5.62398L13.9084 5.8415C14.0425 6.0739 13.9688 6.37006 13.7463 6.52001C13.1825 6.89994 12.643 7.31474 12.131 7.76198C11.9287 7.93871 11.6231 7.93365 11.4331 7.74384L11.2553 7.56631C11.0549 7.36618 11.0601 7.03915 11.2729 6.85229C11.847 6.34826 12.4533 5.88214 13.088 5.45691ZM7.11451 12.2589C7.24006 12.0057 7.55382 11.9164 7.79865 12.0576L8.01648 12.1832C8.24979 12.3177 8.33384 12.6126 8.21473 12.8541C7.91382 13.4643 7.65186 14.093 7.4304 14.7363C7.3431 14.99 7.07631 15.1378 6.81717 15.0686L6.57497 15.0039C6.30108 14.9308 6.14206 14.6445 6.23347 14.3762C6.48024 13.6518 6.77456 12.9445 7.11451 12.2589ZM5.64487 16.5847C5.70009 16.307 5.98043 16.1389 6.2539 16.212L6.49612 16.2769C6.75567 16.3463 6.9131 16.6083 6.86144 16.872C6.73059 17.5399 6.64186 18.2154 6.59578 18.8944C6.57759 19.1625 6.35775 19.375 6.08902 19.375H5.83827C5.55522 19.375 5.32789 19.1402 5.34625 18.8577C5.39589 18.0943 5.49564 17.335 5.64487 16.5847ZM5.34625 21.1423C5.32789 20.8598 5.55522 20.625 5.83827 20.625H6.08902C6.35775 20.625 6.57759 20.8375 6.59578 21.1056C6.64186 21.7846 6.73059 22.4601 6.86144 23.128C6.9131 23.3917 6.75567 23.6537 6.49612 23.7231L6.2539 23.788C5.98043 23.8611 5.70009 23.693 5.64487 23.4153C5.49564 22.665 5.39589 21.9057 5.34625 21.1423ZM6.23345 25.6236C6.14204 25.3553 6.30093 25.0691 6.57471 24.9959L6.81701 24.931C7.0762 24.8617 7.34315 25.0095 7.43048 25.2632C7.65192 25.9065 7.91386 26.5351 8.21473 27.1453C8.33384 27.3868 8.24979 27.6816 8.01648 27.8162L7.79862 27.9418C7.5538 28.083 7.24006 27.9937 7.1145 27.7405C6.77456 27.055 6.48024 26.3478 6.23345 25.6236ZM10.371 31.5494C10.1709 31.7498 9.84384 31.7446 9.65698 31.5318C9.15295 30.9577 8.68684 30.3514 8.2616 29.7167C8.10381 29.4812 8.18314 29.1635 8.42867 29.0218L8.64619 28.8963C8.8786 28.7622 9.17475 28.8359 9.32471 29.0584C9.70464 29.6222 10.1194 30.1617 10.5667 30.6737C10.7434 30.876 10.7383 31.1816 10.5485 31.3716L10.371 31.5494ZM9.32467 10.9414C9.17475 11.164 8.87853 11.2378 8.64607 11.1036L8.42867 10.9782C8.18314 10.8365 8.10381 10.5188 8.2616 10.2833C8.68691 9.64854 9.1531 9.04213 9.65722 8.46795C9.844 8.25522 10.1708 8.24989 10.371 8.45006L10.5481 8.62718C10.7381 8.8172 10.7433 9.1229 10.5666 9.32532C10.1193 9.83759 9.70456 10.3773 9.32467 10.9414ZM13.7827 34.3754C13.6412 34.6212 13.3233 34.7007 13.0876 34.5428C12.453 34.1176 11.8467 33.6515 11.2726 33.1475C11.0599 32.9607 11.0546 32.6339 11.2548 32.4337L11.4318 32.2566C11.6218 32.0666 11.9276 32.0614 12.13 32.2382C12.6421 32.6855 13.1816 33.1003 13.7454 33.4802C13.9677 33.6301 14.0415 33.926 13.9077 34.1584L13.7827 34.3754ZM17.8086 36.2297C17.7355 36.5036 17.4492 36.6626 17.1809 36.5712C16.4565 36.3245 15.7492 36.0301 15.0636 35.6902C14.8104 35.5646 14.7211 35.2509 14.8623 35.0061L14.9879 34.7882C15.1224 34.5549 15.4173 34.4709 15.6588 34.59C16.269 34.8909 16.8977 35.1528 17.541 35.3743C17.7947 35.4616 17.9425 35.7284 17.8733 35.9875L17.8086 36.2297ZM22.1797 36.9664C22.1797 37.2495 21.9449 37.4768 21.6624 37.4584C20.899 37.4088 20.1397 37.3091 19.3894 37.1598C19.1117 37.1046 18.9436 36.8243 19.0167 36.5508L19.0816 36.3086C19.151 36.049 19.413 35.8916 19.6767 35.9433C20.3446 36.0741 21.0201 36.1628 21.6991 36.2089C21.9672 36.2271 22.1797 36.4469 22.1797 36.7157V36.9664ZM16.0871 24.7754C15.8918 24.5802 15.8918 24.2635 16.0871 24.0683L18.0318 22.1235C18.2271 21.9282 18.5436 21.9282 18.7389 22.1234L22.4511 25.8341C22.6464 26.0293 22.9629 26.0293 23.1582 25.834L26.8705 22.1217C27.0658 21.9264 27.3824 21.9264 27.5776 22.1217L29.5224 24.0664C29.7176 24.2617 29.7176 24.5783 29.5224 24.7736L23.1582 31.1372C22.9629 31.3324 22.6464 31.3324 22.4512 31.1372L16.0871 24.7754ZM23.947 37.4584C23.6645 37.4768 23.4297 37.2495 23.4297 36.9664V36.7157C23.4297 36.4469 23.6422 36.2271 23.9103 36.2089C24.5893 36.1628 25.2648 36.0741 25.9327 35.9433C26.1964 35.8916 26.4584 36.049 26.5278 36.3086L26.5926 36.5508C26.6658 36.8243 26.4977 37.1046 26.22 37.1598C25.4697 37.3091 24.7104 37.4088 23.947 37.4584ZM27.9347 36.7315C27.9347 36.732 27.9341 36.732 27.934 36.7316L27.6478 35.6623C27.6276 35.5866 27.6707 35.5086 27.7452 35.4846C28.5012 35.2421 29.2381 34.9441 29.95 34.5931C30.1915 34.474 30.4863 34.558 30.6209 34.7913L30.7463 35.0088C30.8876 35.2538 30.798 35.5677 30.5446 35.6931C29.7044 36.1088 28.8317 36.456 27.935 36.7312C27.9348 36.7312 27.9347 36.7314 27.9347 36.7315ZM32.0859 34.826C32.0859 34.8268 32.085 34.827 32.0846 34.8264L31.5888 33.9673C31.5174 33.8434 31.5565 33.6855 31.6762 33.6072C32.3078 33.1941 32.9099 32.7377 33.4781 32.2414C33.6805 32.0646 33.9863 32.0697 34.1763 32.2598L34.3532 32.4366C34.5534 32.6369 34.548 32.9639 34.3351 33.1506C33.6314 33.7676 32.8795 34.3277 32.0863 34.8254C32.0861 34.8255 32.0859 34.8258 32.0859 34.826ZM34.1763 7.74696C33.9863 7.93678 33.6807 7.94183 33.4784 7.76511C32.9664 7.31787 32.4269 6.90307 31.8631 6.52314C31.6406 6.37318 31.5669 6.07703 31.701 5.84462L31.8265 5.6271C31.9682 5.38157 32.2859 5.30224 32.5214 5.46003C33.1561 5.88527 33.7624 6.35138 34.3365 6.85541C34.5493 7.04227 34.5545 7.36931 34.3541 7.56944L34.1763 7.74696ZM35.9522 31.5322C35.7654 31.7449 35.4386 31.7502 35.2385 31.55L35.0613 31.3729C34.8713 31.1828 34.8661 30.8771 35.0429 30.6747C35.4901 30.1627 35.9048 29.6234 36.2847 29.0597C36.4346 28.8372 36.7308 28.7634 36.9632 28.8976L37.1806 29.023C37.4262 29.1647 37.5055 29.4825 37.3476 29.718C36.9223 30.3524 36.4562 30.9584 35.9522 31.5322ZM38.4949 27.7411C38.3693 27.9943 38.0556 28.0836 37.8108 27.9424L37.5929 27.8168C37.3596 27.6823 37.2755 27.3874 37.3947 27.1459C37.6955 26.5357 37.9575 25.9071 38.1789 25.2639C38.2662 25.0102 38.5332 24.8623 38.7924 24.9317L39.0347 24.9965C39.3085 25.0698 39.4673 25.3559 39.3759 25.6242C39.1292 26.3485 38.8348 27.0556 38.4949 27.7411ZM39.9645 23.4153C39.9093 23.693 39.629 23.8611 39.3555 23.788L39.1133 23.7231C38.8537 23.6537 38.6963 23.3917 38.7479 23.128C38.8788 22.4601 38.9675 21.7846 39.0136 21.1056C39.0318 20.8375 39.2516 20.625 39.5204 20.625H39.7711C40.0542 20.625 40.2815 20.8598 40.2631 21.1423C40.2135 21.9057 40.1138 22.665 39.9645 23.4153Z" fill="url(#paint0_radial_6039_60535)" stroke="url(#paint1_linear_6039_60535)" stroke-opacity="0.25" stroke-width="2" mask="url(#path-1-inside-1_6039_60535)"/>
</g>
<defs>
<filter id="filter0_d_6039_60535" x="-1.19531" y="0" width="48" height="48" filterUnits="userSpaceOnUse" color-interpolation-filters="sRGB">
<feFlood flood-opacity="0" result="BackgroundImageFix"/>
<feColorMatrix in="SourceAlpha" type="matrix" values="0 0 0 0 0 0 0 0 0 0 0 0 0 0 0 0 0 0 127 0" result="hardAlpha"/>
<feOffset dy="4"/>
<feGaussianBlur stdDeviation="2"/>
<feComposite in2="hardAlpha" operator="out"/>
<feColorMatrix type="matrix" values="0 0 0 0 0 0 0 0 0 0 0 0 0 0 0 0 0 0 0.25 0"/>
<feBlend mode="normal" in2="BackgroundImageFix" result="effect1_dropShadow_6039_60535"/>
<feBlend mode="normal" in="SourceGraphic" in2="effect1_dropShadow_6039_60535" result="shape"/>
</filter>
<radialGradient id="paint0_radial_6039_60535" cx="0" cy="0" r="1" gradientUnits="userSpaceOnUse" gradientTransform="translate(26.9104 -7.34652) rotate(96.2409) scale(43.8073 88.9785)">
<stop stop-color="#E8900C"/>
<stop offset="1" stop-color="#FFD641"/>
</radialGradient>
<linearGradient id="paint1_linear_6039_60535" x1="22.8047" y1="1.25" x2="22.8047" y2="38.75" gradientUnits="userSpaceOnUse">
<stop stop-color="white"/>
<stop offset="1"/>
</linearGradient>
</defs>
</svg>
