<svg width="41" height="40" viewBox="0 0 41 40" fill="none" xmlns="http://www.w3.org/2000/svg">
<mask id="path-1-inside-1_6039_60535" fill="white">
<path d="M20.8047 1.25C17.0963 1.25 13.4712 2.34967 10.3878 4.40994C7.30433 6.47022 4.9011 9.39857 3.48195 12.8247C2.06281 16.2508 1.6915 20.0208 2.41497 23.6579C3.13844 27.2951 4.92421 30.636 7.54644 33.2583C10.1687 35.8805 13.5096 37.6663 17.1468 38.3897C20.7839 39.1132 24.5539 38.7419 27.98 37.3227C31.4061 35.9036 34.3345 33.5004 36.3947 30.4169C38.455 27.3335 39.5547 23.7084 39.5547 20C39.5491 15.0289 37.5718 10.263 34.0567 6.74796C30.5416 3.23287 25.7758 1.25562 20.8047 1.25ZM38.2631 18.8577C38.2815 19.1402 38.0542 19.375 37.7711 19.375H37.5204C37.2516 19.375 37.0318 19.1625 37.0136 18.8944C36.9675 18.2154 36.8788 17.5399 36.7479 16.872C36.6963 16.6083 36.8537 16.3463 37.1133 16.2769L37.3555 16.212C37.629 16.1389 37.9093 16.307 37.9645 16.5847C38.1138 17.335 38.2135 18.0943 38.2631 18.8577ZM37.5362 14.87C37.5367 14.87 37.5367 14.8706 37.5363 14.8707L36.467 15.1569C36.3913 15.1771 36.3133 15.134 36.2893 15.0595C36.0468 14.3035 35.7488 13.5666 35.3978 12.8547C35.2787 12.6132 35.3627 12.3184 35.596 12.1838L35.8135 12.0584C36.0585 11.9171 36.3724 12.0067 36.4978 12.2601C36.9135 13.1003 37.2607 13.973 37.5359 14.8697C37.5359 14.8699 37.5361 14.87 37.5362 14.87ZM33.2384 8.45058C33.4385 8.25017 33.7655 8.25539 33.9524 8.46823C34.4564 9.04233 34.9226 9.64864 35.3478 10.2833C35.5056 10.5188 35.4263 10.8365 35.1807 10.9782L34.9632 11.1037C34.7308 11.2378 34.4346 11.1641 34.2847 10.9416C33.9048 10.3778 33.49 9.83833 33.0427 9.32633C32.866 9.12401 32.871 8.81844 33.0609 8.62836L33.2384 8.45058ZM25.8007 3.77027C25.8739 3.49638 26.1601 3.33737 26.4285 3.42878C27.1529 3.67554 27.8602 3.96986 28.5458 4.30982C28.799 4.43537 28.8883 4.74912 28.7471 4.99395L28.6215 5.21178C28.487 5.44509 28.1921 5.52915 27.9506 5.41003C27.3404 5.10913 26.7117 4.84716 26.0683 4.62571C25.8147 4.53841 25.6669 4.27161 25.7361 4.01248L25.8007 3.77027ZM29.2899 17.7018C29.4851 17.5065 29.8018 17.5064 29.997 17.7017L31.9418 19.6464C32.137 19.8417 32.137 20.1583 31.9418 20.3536L29.997 22.2983C29.8018 22.4936 29.4851 22.4935 29.2899 22.2982L27.3456 20.3535C27.1504 20.1583 27.1504 19.8417 27.3456 19.6465L29.2899 17.7018ZM21.4297 3.03357C21.4297 2.75052 21.6645 2.52319 21.947 2.54156C22.7104 2.59119 23.4697 2.69094 24.22 2.84017C24.4977 2.89539 24.6658 3.17573 24.5926 3.4492L24.5278 3.69142C24.4584 3.95097 24.1964 4.10841 23.9327 4.05675C23.2648 3.92589 22.5893 3.83716 21.9103 3.79109C21.6422 3.77289 21.4297 3.55305 21.4297 3.28432V3.03357ZM27.5223 15.2246C27.7176 15.4198 27.7176 15.7365 27.5223 15.9317L25.5775 17.8765C25.3823 18.0718 25.0658 18.0718 24.8705 17.8766L21.1583 14.1659C20.963 13.9707 20.6464 13.9708 20.4512 14.166L16.7389 17.8789C16.5436 18.0742 16.227 18.0742 16.0317 17.8789L14.087 15.9342C13.8917 15.7389 13.8917 15.4223 14.087 15.2271L20.4512 8.86287C20.6464 8.66763 20.963 8.6676 21.1582 8.8628L27.5223 15.2246ZM23.103 19.6464C23.2983 19.8417 23.2983 20.1583 23.103 20.3536L21.1582 22.2983C20.963 22.4936 20.6464 22.4936 20.4511 22.2983L18.5064 20.3536C18.3111 20.1583 18.3111 19.8417 18.5064 19.6464L20.4511 17.7017C20.6464 17.5064 20.963 17.5064 21.1582 17.7017L23.103 19.6464ZM14.2637 19.6464C14.4589 19.8417 14.4589 20.1583 14.2637 20.3535L12.3189 22.2983C12.1236 22.4936 11.807 22.4935 11.6118 22.2982L9.66754 20.3536C9.47232 20.1583 9.47234 19.8417 9.66758 19.6465L11.6123 17.7017C11.8076 17.5064 12.1242 17.5065 12.3195 17.7018L14.2637 19.6464ZM19.6624 2.54156C19.9449 2.52319 20.1797 2.75052 20.1797 3.03357V3.28432C20.1797 3.55305 19.9672 3.77289 19.6991 3.79109C19.0201 3.83716 18.3446 3.92589 17.6767 4.05675C17.413 4.10841 17.151 3.95097 17.0816 3.69142L17.0167 3.4492C16.9436 3.17573 17.1117 2.89539 17.3894 2.84017C18.1397 2.69094 18.899 2.59119 19.6624 2.54156ZM15.1811 3.42876C15.4494 3.33735 15.7356 3.49623 15.8088 3.77001L15.8737 4.01231C15.943 4.27151 15.7951 4.53845 15.5414 4.62579C14.8982 4.84722 14.2696 5.10916 13.6594 5.41003C13.4179 5.52915 13.1231 5.44509 12.9885 5.21178L12.8629 4.99392C12.7217 4.74911 12.811 4.43536 13.0642 4.3098C13.7497 3.96986 14.4569 3.67554 15.1811 3.42876ZM11.088 5.45691C11.3235 5.29911 11.6412 5.37844 11.7829 5.62398L11.9084 5.8415C12.0425 6.0739 11.9688 6.37006 11.7463 6.52001C11.1825 6.89994 10.643 7.31474 10.131 7.76198C9.92871 7.93871 9.62314 7.93365 9.43305 7.74384L9.25527 7.56631C9.05486 7.36618 9.06009 7.03915 9.27292 6.85229C9.84702 6.34826 10.4533 5.88214 11.088 5.45691ZM5.11451 12.2589C5.24006 12.0057 5.55382 11.9164 5.79865 12.0576L6.01648 12.1832C6.24979 12.3177 6.33384 12.6126 6.21473 12.8541C5.91382 13.4643 5.65186 14.093 5.4304 14.7363C5.3431 14.99 5.07631 15.1378 4.81717 15.0686L4.57497 15.0039C4.30108 14.9308 4.14206 14.6445 4.23347 14.3762C4.48024 13.6518 4.77456 12.9445 5.11451 12.2589ZM3.64487 16.5847C3.70009 16.307 3.98043 16.1389 4.2539 16.212L4.49612 16.2769C4.75567 16.3463 4.9131 16.6083 4.86144 16.872C4.73059 17.5399 4.64186 18.2154 4.59578 18.8944C4.57759 19.1625 4.35775 19.375 4.08902 19.375H3.83827C3.55522 19.375 3.32789 19.1402 3.34625 18.8577C3.39589 18.0943 3.49564 17.335 3.64487 16.5847ZM3.34625 21.1423C3.32789 20.8598 3.55522 20.625 3.83827 20.625H4.08902C4.35775 20.625 4.57759 20.8375 4.59578 21.1056C4.64186 21.7846 4.73059 22.4601 4.86144 23.128C4.9131 23.3917 4.75567 23.6537 4.49612 23.7231L4.2539 23.788C3.98043 23.8611 3.70009 23.693 3.64487 23.4153C3.49564 22.665 3.39589 21.9057 3.34625 21.1423ZM4.23345 25.6236C4.14204 25.3553 4.30093 25.0691 4.57471 24.9959L4.81701 24.931C5.0762 24.8617 5.34315 25.0095 5.43048 25.2632C5.65192 25.9065 5.91386 26.5351 6.21473 27.1453C6.33384 27.3868 6.24979 27.6816 6.01648 27.8162L5.79862 27.9418C5.5538 28.083 5.24006 27.9937 5.1145 27.7405C4.77456 27.055 4.48024 26.3478 4.23345 25.6236ZM8.37101 31.5494C8.17088 31.7498 7.84384 31.7446 7.65698 31.5318C7.15295 30.9577 6.68684 30.3514 6.2616 29.7167C6.10381 29.4812 6.18314 29.1635 6.42867 29.0218L6.64619 28.8963C6.8786 28.7622 7.17475 28.8359 7.32471 29.0584C7.70464 29.6222 8.11944 30.1617 8.56668 30.6737C8.7434 30.876 8.73835 31.1816 8.54853 31.3716L8.37101 31.5494ZM7.32467 10.9414C7.17475 11.164 6.87853 11.2378 6.64607 11.1036L6.42867 10.9782C6.18314 10.8365 6.10381 10.5188 6.2616 10.2833C6.68691 9.64854 7.1531 9.04213 7.65722 8.46795C7.844 8.25522 8.17083 8.24989 8.37101 8.45006L8.54813 8.62718C8.73814 8.8172 8.74334 9.1229 8.56661 9.32532C8.11935 9.83759 7.70456 10.3773 7.32467 10.9414ZM11.7827 34.3754C11.6412 34.6212 11.3233 34.7007 11.0876 34.5428C10.453 34.1176 9.84672 33.6515 9.27265 33.1475C9.05992 32.9607 9.05458 32.6339 9.25476 32.4337L9.4318 32.2566C9.62185 32.0666 9.92761 32.0614 10.13 32.2382C10.6421 32.6855 11.1816 33.1003 11.7454 33.4802C11.9677 33.6301 12.0415 33.926 11.9077 34.1584L11.7827 34.3754ZM15.8086 36.2297C15.7355 36.5036 15.4492 36.6626 15.1809 36.5712C14.4565 36.3245 13.7492 36.0301 13.0636 35.6902C12.8104 35.5646 12.7211 35.2509 12.8623 35.0061L12.9879 34.7882C13.1224 34.5549 13.4173 34.4709 13.6588 34.59C14.269 34.8909 14.8977 35.1528 15.541 35.3743C15.7947 35.4616 15.9425 35.7284 15.8733 35.9875L15.8086 36.2297ZM20.1797 36.9664C20.1797 37.2495 19.9449 37.4768 19.6624 37.4584C18.899 37.4088 18.1397 37.3091 17.3894 37.1598C17.1117 37.1046 16.9436 36.8243 17.0167 36.5508L17.0816 36.3086C17.151 36.049 17.413 35.8916 17.6767 35.9433C18.3446 36.0741 19.0201 36.1628 19.6991 36.2089C19.9672 36.2271 20.1797 36.4469 20.1797 36.7157V36.9664ZM14.0871 24.7754C13.8918 24.5802 13.8918 24.2635 14.0871 24.0683L16.0318 22.1235C16.2271 21.9282 16.5436 21.9282 16.7389 22.1234L20.4511 25.8341C20.6464 26.0293 20.9629 26.0293 21.1582 25.834L24.8705 22.1217C25.0658 21.9264 25.3824 21.9264 25.5776 22.1217L27.5224 24.0664C27.7176 24.2617 27.7176 24.5783 27.5224 24.7736L21.1582 31.1372C20.9629 31.3324 20.6464 31.3324 20.4512 31.1372L14.0871 24.7754ZM21.947 37.4584C21.6645 37.4768 21.4297 37.2495 21.4297 36.9664V36.7157C21.4297 36.4469 21.6422 36.2271 21.9103 36.2089C22.5893 36.1628 23.2648 36.0741 23.9327 35.9433C24.1964 35.8916 24.4584 36.049 24.5278 36.3086L24.5926 36.5508C24.6658 36.8243 24.4977 37.1046 24.22 37.1598C23.4697 37.3091 22.7104 37.4088 21.947 37.4584ZM25.9347 36.7315C25.9347 36.732 25.9341 36.732 25.934 36.7316L25.6478 35.6623C25.6276 35.5866 25.6707 35.5086 25.7452 35.4846C26.5012 35.2421 27.2381 34.9441 27.95 34.5931C28.1915 34.474 28.4863 34.558 28.6209 34.7913L28.7463 35.0088C28.8876 35.2538 28.798 35.5677 28.5446 35.6931C27.7044 36.1088 26.8317 36.456 25.935 36.7312C25.9348 36.7312 25.9347 36.7314 25.9347 36.7315ZM30.0859 34.826C30.0859 34.8268 30.085 34.827 30.0846 34.8264L29.5888 33.9673C29.5174 33.8434 29.5565 33.6855 29.6762 33.6072C30.3078 33.1941 30.9099 32.7377 31.4781 32.2414C31.6805 32.0646 31.9863 32.0697 32.1763 32.2598L32.3532 32.4366C32.5534 32.6369 32.548 32.9639 32.3351 33.1506C31.6314 33.7676 30.8795 34.3277 30.0863 34.8254C30.0861 34.8255 30.0859 34.8258 30.0859 34.826ZM32.1763 7.74696C31.9863 7.93678 31.6807 7.94183 31.4784 7.76511C30.9664 7.31787 30.4269 6.90307 29.8631 6.52314C29.6406 6.37318 29.5669 6.07703 29.701 5.84462L29.8265 5.6271C29.9682 5.38157 30.2859 5.30224 30.5214 5.46003C31.1561 5.88527 31.7624 6.35138 32.3365 6.85541C32.5493 7.04227 32.5545 7.36931 32.3541 7.56944L32.1763 7.74696ZM33.9522 31.5322C33.7654 31.7449 33.4386 31.7502 33.2385 31.55L33.0613 31.3729C32.8713 31.1828 32.8661 30.8771 33.0429 30.6747C33.4901 30.1627 33.9048 29.6234 34.2847 29.0597C34.4346 28.8372 34.7308 28.7634 34.9632 28.8976L35.1806 29.023C35.4262 29.1647 35.5055 29.4825 35.3476 29.718C34.9223 30.3524 34.4562 30.9584 33.9522 31.5322ZM36.4949 27.7411C36.3693 27.9943 36.0556 28.0836 35.8108 27.9424L35.5929 27.8168C35.3596 27.6823 35.2755 27.3874 35.3947 27.1459C35.6955 26.5357 35.9575 25.9071 36.1789 25.2639C36.2662 25.0102 36.5332 24.8623 36.7924 24.9317L37.0347 24.9965C37.3085 25.0698 37.4673 25.3559 37.3759 25.6242C37.1292 26.3485 36.8348 27.0556 36.4949 27.7411ZM37.9645 23.4153C37.9093 23.693 37.629 23.8611 37.3555 23.788L37.1133 23.7231C36.8537 23.6537 36.6963 23.3917 36.7479 23.128C36.8788 22.4601 36.9675 21.7846 37.0136 21.1056C37.0318 20.8375 37.2516 20.625 37.5204 20.625H37.7711C38.0542 20.625 38.2815 20.8598 38.2631 21.1423C38.2135 21.9057 38.1138 22.665 37.9645 23.4153Z"/>
</mask>
<path d="M20.8047 1.25C17.0963 1.25 13.4712 2.34967 10.3878 4.40994C7.30433 6.47022 4.9011 9.39857 3.48195 12.8247C2.06281 16.2508 1.6915 20.0208 2.41497 23.6579C3.13844 27.2951 4.92421 30.636 7.54644 33.2583C10.1687 35.8805 13.5096 37.6663 17.1468 38.3897C20.7839 39.1132 24.5539 38.7419 27.98 37.3227C31.4061 35.9036 34.3345 33.5004 36.3947 30.4169C38.455 27.3335 39.5547 23.7084 39.5547 20C39.5491 15.0289 37.5718 10.263 34.0567 6.74796C30.5416 3.23287 25.7758 1.25562 20.8047 1.25ZM38.2631 18.8577C38.2815 19.1402 38.0542 19.375 37.7711 19.375H37.5204C37.2516 19.375 37.0318 19.1625 37.0136 18.8944C36.9675 18.2154 36.8788 17.5399 36.7479 16.872C36.6963 16.6083 36.8537 16.3463 37.1133 16.2769L37.3555 16.212C37.629 16.1389 37.9093 16.307 37.9645 16.5847C38.1138 17.335 38.2135 18.0943 38.2631 18.8577ZM37.5362 14.87C37.5367 14.87 37.5367 14.8706 37.5363 14.8707L36.467 15.1569C36.3913 15.1771 36.3133 15.134 36.2893 15.0595C36.0468 14.3035 35.7488 13.5666 35.3978 12.8547C35.2787 12.6132 35.3627 12.3184 35.596 12.1838L35.8135 12.0584C36.0585 11.9171 36.3724 12.0067 36.4978 12.2601C36.9135 13.1003 37.2607 13.973 37.5359 14.8697C37.5359 14.8699 37.5361 14.87 37.5362 14.87ZM33.2384 8.45058C33.4385 8.25017 33.7655 8.25539 33.9524 8.46823C34.4564 9.04233 34.9226 9.64864 35.3478 10.2833C35.5056 10.5188 35.4263 10.8365 35.1807 10.9782L34.9632 11.1037C34.7308 11.2378 34.4346 11.1641 34.2847 10.9416C33.9048 10.3778 33.49 9.83833 33.0427 9.32633C32.866 9.12401 32.871 8.81844 33.0609 8.62836L33.2384 8.45058ZM25.8007 3.77027C25.8739 3.49638 26.1601 3.33737 26.4285 3.42878C27.1529 3.67554 27.8602 3.96986 28.5458 4.30982C28.799 4.43537 28.8883 4.74912 28.7471 4.99395L28.6215 5.21178C28.487 5.44509 28.1921 5.52915 27.9506 5.41003C27.3404 5.10913 26.7117 4.84716 26.0683 4.62571C25.8147 4.53841 25.6669 4.27161 25.7361 4.01248L25.8007 3.77027ZM29.2899 17.7018C29.4851 17.5065 29.8018 17.5064 29.997 17.7017L31.9418 19.6464C32.137 19.8417 32.137 20.1583 31.9418 20.3536L29.997 22.2983C29.8018 22.4936 29.4851 22.4935 29.2899 22.2982L27.3456 20.3535C27.1504 20.1583 27.1504 19.8417 27.3456 19.6465L29.2899 17.7018ZM21.4297 3.03357C21.4297 2.75052 21.6645 2.52319 21.947 2.54156C22.7104 2.59119 23.4697 2.69094 24.22 2.84017C24.4977 2.89539 24.6658 3.17573 24.5926 3.4492L24.5278 3.69142C24.4584 3.95097 24.1964 4.10841 23.9327 4.05675C23.2648 3.92589 22.5893 3.83716 21.9103 3.79109C21.6422 3.77289 21.4297 3.55305 21.4297 3.28432V3.03357ZM27.5223 15.2246C27.7176 15.4198 27.7176 15.7365 27.5223 15.9317L25.5775 17.8765C25.3823 18.0718 25.0658 18.0718 24.8705 17.8766L21.1583 14.1659C20.963 13.9707 20.6464 13.9708 20.4512 14.166L16.7389 17.8789C16.5436 18.0742 16.227 18.0742 16.0317 17.8789L14.087 15.9342C13.8917 15.7389 13.8917 15.4223 14.087 15.2271L20.4512 8.86287C20.6464 8.66763 20.963 8.6676 21.1582 8.8628L27.5223 15.2246ZM23.103 19.6464C23.2983 19.8417 23.2983 20.1583 23.103 20.3536L21.1582 22.2983C20.963 22.4936 20.6464 22.4936 20.4511 22.2983L18.5064 20.3536C18.3111 20.1583 18.3111 19.8417 18.5064 19.6464L20.4511 17.7017C20.6464 17.5064 20.963 17.5064 21.1582 17.7017L23.103 19.6464ZM14.2637 19.6464C14.4589 19.8417 14.4589 20.1583 14.2637 20.3535L12.3189 22.2983C12.1236 22.4936 11.807 22.4935 11.6118 22.2982L9.66754 20.3536C9.47232 20.1583 9.47234 19.8417 9.66758 19.6465L11.6123 17.7017C11.8076 17.5064 12.1242 17.5065 12.3195 17.7018L14.2637 19.6464ZM19.6624 2.54156C19.9449 2.52319 20.1797 2.75052 20.1797 3.03357V3.28432C20.1797 3.55305 19.9672 3.77289 19.6991 3.79109C19.0201 3.83716 18.3446 3.92589 17.6767 4.05675C17.413 4.10841 17.151 3.95097 17.0816 3.69142L17.0167 3.4492C16.9436 3.17573 17.1117 2.89539 17.3894 2.84017C18.1397 2.69094 18.899 2.59119 19.6624 2.54156ZM15.1811 3.42876C15.4494 3.33735 15.7356 3.49623 15.8088 3.77001L15.8737 4.01231C15.943 4.27151 15.7951 4.53845 15.5414 4.62579C14.8982 4.84722 14.2696 5.10916 13.6594 5.41003C13.4179 5.52915 13.1231 5.44509 12.9885 5.21178L12.8629 4.99392C12.7217 4.74911 12.811 4.43536 13.0642 4.3098C13.7497 3.96986 14.4569 3.67554 15.1811 3.42876ZM11.088 5.45691C11.3235 5.29911 11.6412 5.37844 11.7829 5.62398L11.9084 5.8415C12.0425 6.0739 11.9688 6.37006 11.7463 6.52001C11.1825 6.89994 10.643 7.31474 10.131 7.76198C9.92871 7.93871 9.62314 7.93365 9.43305 7.74384L9.25527 7.56631C9.05486 7.36618 9.06009 7.03915 9.27292 6.85229C9.84702 6.34826 10.4533 5.88214 11.088 5.45691ZM5.11451 12.2589C5.24006 12.0057 5.55382 11.9164 5.79865 12.0576L6.01648 12.1832C6.24979 12.3177 6.33384 12.6126 6.21473 12.8541C5.91382 13.4643 5.65186 14.093 5.4304 14.7363C5.3431 14.99 5.07631 15.1378 4.81717 15.0686L4.57497 15.0039C4.30108 14.9308 4.14206 14.6445 4.23347 14.3762C4.48024 13.6518 4.77456 12.9445 5.11451 12.2589ZM3.64487 16.5847C3.70009 16.307 3.98043 16.1389 4.2539 16.212L4.49612 16.2769C4.75567 16.3463 4.9131 16.6083 4.86144 16.872C4.73059 17.5399 4.64186 18.2154 4.59578 18.8944C4.57759 19.1625 4.35775 19.375 4.08902 19.375H3.83827C3.55522 19.375 3.32789 19.1402 3.34625 18.8577C3.39589 18.0943 3.49564 17.335 3.64487 16.5847ZM3.34625 21.1423C3.32789 20.8598 3.55522 20.625 3.83827 20.625H4.08902C4.35775 20.625 4.57759 20.8375 4.59578 21.1056C4.64186 21.7846 4.73059 22.4601 4.86144 23.128C4.9131 23.3917 4.75567 23.6537 4.49612 23.7231L4.2539 23.788C3.98043 23.8611 3.70009 23.693 3.64487 23.4153C3.49564 22.665 3.39589 21.9057 3.34625 21.1423ZM4.23345 25.6236C4.14204 25.3553 4.30093 25.0691 4.57471 24.9959L4.81701 24.931C5.0762 24.8617 5.34315 25.0095 5.43048 25.2632C5.65192 25.9065 5.91386 26.5351 6.21473 27.1453C6.33384 27.3868 6.24979 27.6816 6.01648 27.8162L5.79862 27.9418C5.5538 28.083 5.24006 27.9937 5.1145 27.7405C4.77456 27.055 4.48024 26.3478 4.23345 25.6236ZM8.37101 31.5494C8.17088 31.7498 7.84384 31.7446 7.65698 31.5318C7.15295 30.9577 6.68684 30.3514 6.2616 29.7167C6.10381 29.4812 6.18314 29.1635 6.42867 29.0218L6.64619 28.8963C6.8786 28.7622 7.17475 28.8359 7.32471 29.0584C7.70464 29.6222 8.11944 30.1617 8.56668 30.6737C8.7434 30.876 8.73835 31.1816 8.54853 31.3716L8.37101 31.5494ZM7.32467 10.9414C7.17475 11.164 6.87853 11.2378 6.64607 11.1036L6.42867 10.9782C6.18314 10.8365 6.10381 10.5188 6.2616 10.2833C6.68691 9.64854 7.1531 9.04213 7.65722 8.46795C7.844 8.25522 8.17083 8.24989 8.37101 8.45006L8.54813 8.62718C8.73814 8.8172 8.74334 9.1229 8.56661 9.32532C8.11935 9.83759 7.70456 10.3773 7.32467 10.9414ZM11.7827 34.3754C11.6412 34.6212 11.3233 34.7007 11.0876 34.5428C10.453 34.1176 9.84672 33.6515 9.27265 33.1475C9.05992 32.9607 9.05458 32.6339 9.25476 32.4337L9.4318 32.2566C9.62185 32.0666 9.92761 32.0614 10.13 32.2382C10.6421 32.6855 11.1816 33.1003 11.7454 33.4802C11.9677 33.6301 12.0415 33.926 11.9077 34.1584L11.7827 34.3754ZM15.8086 36.2297C15.7355 36.5036 15.4492 36.6626 15.1809 36.5712C14.4565 36.3245 13.7492 36.0301 13.0636 35.6902C12.8104 35.5646 12.7211 35.2509 12.8623 35.0061L12.9879 34.7882C13.1224 34.5549 13.4173 34.4709 13.6588 34.59C14.269 34.8909 14.8977 35.1528 15.541 35.3743C15.7947 35.4616 15.9425 35.7284 15.8733 35.9875L15.8086 36.2297ZM20.1797 36.9664C20.1797 37.2495 19.9449 37.4768 19.6624 37.4584C18.899 37.4088 18.1397 37.3091 17.3894 37.1598C17.1117 37.1046 16.9436 36.8243 17.0167 36.5508L17.0816 36.3086C17.151 36.049 17.413 35.8916 17.6767 35.9433C18.3446 36.0741 19.0201 36.1628 19.6991 36.2089C19.9672 36.2271 20.1797 36.4469 20.1797 36.7157V36.9664ZM14.0871 24.7754C13.8918 24.5802 13.8918 24.2635 14.0871 24.0683L16.0318 22.1235C16.2271 21.9282 16.5436 21.9282 16.7389 22.1234L20.4511 25.8341C20.6464 26.0293 20.9629 26.0293 21.1582 25.834L24.8705 22.1217C25.0658 21.9264 25.3824 21.9264 25.5776 22.1217L27.5224 24.0664C27.7176 24.2617 27.7176 24.5783 27.5224 24.7736L21.1582 31.1372C20.9629 31.3324 20.6464 31.3324 20.4512 31.1372L14.0871 24.7754ZM21.947 37.4584C21.6645 37.4768 21.4297 37.2495 21.4297 36.9664V36.7157C21.4297 36.4469 21.6422 36.2271 21.9103 36.2089C22.5893 36.1628 23.2648 36.0741 23.9327 35.9433C24.1964 35.8916 24.4584 36.049 24.5278 36.3086L24.5926 36.5508C24.6658 36.8243 24.4977 37.1046 24.22 37.1598C23.4697 37.3091 22.7104 37.4088 21.947 37.4584ZM25.9347 36.7315C25.9347 36.732 25.9341 36.732 25.934 36.7316L25.6478 35.6623C25.6276 35.5866 25.6707 35.5086 25.7452 35.4846C26.5012 35.2421 27.2381 34.9441 27.95 34.5931C28.1915 34.474 28.4863 34.558 28.6209 34.7913L28.7463 35.0088C28.8876 35.2538 28.798 35.5677 28.5446 35.6931C27.7044 36.1088 26.8317 36.456 25.935 36.7312C25.9348 36.7312 25.9347 36.7314 25.9347 36.7315ZM30.0859 34.826C30.0859 34.8268 30.085 34.827 30.0846 34.8264L29.5888 33.9673C29.5174 33.8434 29.5565 33.6855 29.6762 33.6072C30.3078 33.1941 30.9099 32.7377 31.4781 32.2414C31.6805 32.0646 31.9863 32.0697 32.1763 32.2598L32.3532 32.4366C32.5534 32.6369 32.548 32.9639 32.3351 33.1506C31.6314 33.7676 30.8795 34.3277 30.0863 34.8254C30.0861 34.8255 30.0859 34.8258 30.0859 34.826ZM32.1763 7.74696C31.9863 7.93678 31.6807 7.94183 31.4784 7.76511C30.9664 7.31787 30.4269 6.90307 29.8631 6.52314C29.6406 6.37318 29.5669 6.07703 29.701 5.84462L29.8265 5.6271C29.9682 5.38157 30.2859 5.30224 30.5214 5.46003C31.1561 5.88527 31.7624 6.35138 32.3365 6.85541C32.5493 7.04227 32.5545 7.36931 32.3541 7.56944L32.1763 7.74696ZM33.9522 31.5322C33.7654 31.7449 33.4386 31.7502 33.2385 31.55L33.0613 31.3729C32.8713 31.1828 32.8661 30.8771 33.0429 30.6747C33.4901 30.1627 33.9048 29.6234 34.2847 29.0597C34.4346 28.8372 34.7308 28.7634 34.9632 28.8976L35.1806 29.023C35.4262 29.1647 35.5055 29.4825 35.3476 29.718C34.9223 30.3524 34.4562 30.9584 33.9522 31.5322ZM36.4949 27.7411C36.3693 27.9943 36.0556 28.0836 35.8108 27.9424L35.5929 27.8168C35.3596 27.6823 35.2755 27.3874 35.3947 27.1459C35.6955 26.5357 35.9575 25.9071 36.1789 25.2639C36.2662 25.0102 36.5332 24.8623 36.7924 24.9317L37.0347 24.9965C37.3085 25.0698 37.4673 25.3559 37.3759 25.6242C37.1292 26.3485 36.8348 27.0556 36.4949 27.7411ZM37.9645 23.4153C37.9093 23.693 37.629 23.8611 37.3555 23.788L37.1133 23.7231C36.8537 23.6537 36.6963 23.3917 36.7479 23.128C36.8788 22.4601 36.9675 21.7846 37.0136 21.1056C37.0318 20.8375 37.2516 20.625 37.5204 20.625H37.7711C38.0542 20.625 38.2815 20.8598 38.2631 21.1423C38.2135 21.9057 38.1138 22.665 37.9645 23.4153Z" fill="url(#paint0_radial_6039_60535)" stroke="url(#paint1_linear_6039_60535)" stroke-opacity="0.25" stroke-width="2" mask="url(#path-1-inside-1_6039_60535)"/>
<defs>
<radialGradient id="paint0_radial_6039_60535" cx="0" cy="0" r="1" gradientUnits="userSpaceOnUse" gradientTransform="translate(24.9104 -7.34652) rotate(96.2409) scale(43.8073 88.9785)">
<stop stop-color="#E8900C"/>
<stop offset="1" stop-color="#FFD641"/>
</radialGradient>
<linearGradient id="paint1_linear_6039_60535" x1="20.8047" y1="1.25" x2="20.8047" y2="38.75" gradientUnits="userSpaceOnUse">
<stop stop-color="white"/>
<stop offset="1"/>
</linearGradient>
</defs>
</svg>
