<svg width="41" height="34" viewBox="0 0 41 34" fill="none" xmlns="http://www.w3.org/2000/svg">
<g id="Group">
<path id="Vector" d="M35.6641 9.46485C37.9434 9.95503 37.1407 18.2083 36.5709 18.772C36.0011 19.3419 39.5426 19.3419 39.5426 19.3419C39.5426 19.3419 39.0524 9.12172 38.36 8.44161C37.6676 7.76149 35.6641 9.46485 35.6641 9.46485Z" fill="url(#paint0_linear_3205_193907)"/>
<path id="Vector_2" d="M31.9241 4.67339C31.9241 4.67339 31.924 4.7224 31.9118 4.80818C31.8873 5.22483 31.7954 6.57281 31.5932 8.63155L31.5809 8.75409C31.4768 9.81409 31.3481 11.064 31.1827 12.461C31.0662 13.4781 30.9314 14.5688 30.7783 15.7329C30.6986 16.3273 30.5761 16.8787 30.4106 17.4057C29.9389 18.9252 29.1484 20.1568 28.2355 21.1861C27.9781 21.4741 27.7147 21.7437 27.4451 22.001L27.439 22.0072C25.9317 23.4348 24.259 24.4274 23.1622 25.2484C23.1499 25.2607 23.1377 25.2668 23.1254 25.2791C23.009 25.371 22.8987 25.4568 22.7946 25.5425C22.7455 25.5793 22.7149 25.6038 22.7026 25.6161C22.6169 25.6896 22.5372 25.7631 22.4637 25.8366C22.3044 25.996 22.1818 26.1491 22.0961 26.2962C21.0116 28.1466 21.4833 28.7899 23.1132 29.8254C23.3338 29.9664 23.5421 30.095 23.7443 30.2176C23.7627 30.236 23.781 30.2421 23.7994 30.2543C25.0616 31.0447 25.8949 31.6636 25.8949 33.3057C25.8949 33.3057 22.5678 33.6917 20.3253 33.6917C18.0828 33.6917 14.7557 33.3057 14.7557 33.3057C14.7557 31.9209 15.35 31.2592 16.2936 30.6158C16.3243 30.5913 16.3549 30.5668 16.3855 30.5546C16.7287 30.3217 17.1208 30.095 17.5374 29.8193C19.1673 28.7838 19.6391 28.1405 18.5546 26.2901C18.5362 26.2656 18.5239 26.241 18.5055 26.2165C17.8132 25.1749 15.3868 24.0475 13.2668 22.0562C11.9801 20.8491 10.8098 19.3235 10.2032 17.3076C10.05 16.8113 9.93362 16.2783 9.86009 15.7146C9.71304 14.6239 9.58437 13.5333 9.47408 12.4672C9.32703 11.1008 9.21061 9.78958 9.11258 8.58865C9.08807 8.25166 9.06356 7.92691 9.03905 7.6083C8.84298 5.02876 8.7572 3.12321 8.7327 2.59627C8.7327 2.50437 8.72656 2.44922 8.72656 2.44922L9.0942 2.54726L20.3253 5.51281L31.9241 4.64888V4.67339Z" fill="url(#paint1_radial_3205_193907)"/>
<path id="Vector_3" d="M31.9059 4.80797C31.8201 4.96115 31.6424 5.10207 31.3606 5.22461C26.079 7.60196 11.6985 4.93664 9.05768 2.93918C8.91062 2.82276 8.7942 2.7186 8.7268 2.60831C8.53686 2.33259 8.62877 2.07524 9.05768 1.85466C10.1054 1.3216 11.3983 0.972358 12.8259 0.770161C20.7667 -0.369494 32.9537 2.98207 31.8998 4.80184L31.9059 4.80797Z" fill="url(#paint2_linear_3205_193907)"/>
<path id="Vector_4" d="M11.9532 2.74331C12.6639 4.02389 26.7626 7.07522 29.5198 4.31186C31.1986 2.62689 10.0844 -0.602128 11.9532 2.74331Z" fill="url(#paint3_radial_3205_193907)"/>
<path id="Vector_5" d="M40.2817 19.0907C39.7548 23.153 30.9991 19.8872 30.8765 20.0343C30.754 20.1813 30.3925 21.8112 29.7369 22.8283C29.7369 22.8283 28.1009 22.7915 27.4453 22.0072C27.4453 22.0072 27.4453 22.0072 27.4514 22.0011C27.4943 21.9398 27.77 21.5722 28.1499 21.0391C28.8423 20.0649 29.8717 18.5392 30.417 17.4057C30.4415 17.369 30.4537 17.3261 30.4721 17.2893C30.4721 17.2893 36.3113 19.6299 38.1127 18.4412C39.9141 17.2525 38.1434 9.63033 37.5919 9.20755C37.0466 8.7909 33.407 10.2676 33.407 10.2676C33.407 10.2676 33.6276 11.4378 33.2906 12.4059C33.2906 12.4059 32.1142 12.7368 31.1829 12.455L31.5812 8.74801L31.5934 8.62547C31.5934 8.62547 36.9179 6.76894 38.1434 7.08756C38.5049 7.17946 38.897 7.9331 39.2401 9.03599C40.055 11.64 40.6494 16.2354 40.2817 19.0846V19.0907Z" fill="url(#paint4_radial_3205_193907)"/>
<path id="Vector_6" d="M31.6918 7.63173C31.6918 7.63173 36.906 6.82294 38.0212 7.05577C38.0212 7.05577 36.1585 7.05578 31.5938 8.63046L31.6857 7.63173H31.6918Z" fill="url(#paint5_linear_3205_193907)"/>
<path id="Vector_7" d="M30.4688 17.2891C30.4688 17.2891 35.6095 19.5439 38.5137 17.9692C38.5137 17.9692 38.3667 20.2546 30.4688 17.2891Z" fill="url(#paint6_linear_3205_193907)"/>
<path id="Vector_8" d="M5.11287 9.46485C2.83356 9.95503 3.63621 18.2083 4.20604 18.772C4.77587 19.3357 1.23438 19.3419 1.23438 19.3419C1.23438 19.3419 1.72454 9.12172 2.41692 8.44161C3.10929 7.76149 5.11287 9.46485 5.11287 9.46485Z" fill="url(#paint7_linear_3205_193907)"/>
<path id="Vector_9" d="M13.3321 22.0063C13.3321 22.0063 13.2953 22.0553 13.2708 22.0676C12.5785 22.7906 11.0405 22.8273 11.0405 22.8273C10.7709 22.4107 10.5565 21.896 10.3849 21.412C10.1337 20.7196 9.9744 20.1191 9.907 20.0333C9.78446 19.8863 1.03487 23.1459 0.501803 19.0897C0.354751 17.9378 0.360873 16.5041 0.477289 15.0274C0.771394 11.296 1.75786 7.31945 2.63405 7.09274C2.70145 7.07436 2.77498 7.06823 2.85464 7.0621H2.86688C3.1855 7.04372 3.63891 7.09887 4.15359 7.1969C4.93175 7.34395 5.86307 7.59517 6.71475 7.84638C6.75764 7.85863 6.82505 7.87702 6.91696 7.90766C6.9721 7.92604 7.02724 7.93829 7.08852 7.95667C7.22331 7.99344 7.37648 8.04245 7.55417 8.0976C7.59093 8.10985 7.62771 8.1221 7.66447 8.13436C7.738 8.15887 7.81151 8.18338 7.87891 8.20176C7.94631 8.22627 8.01372 8.25078 8.08112 8.26916C8.11175 8.27528 8.14852 8.28754 8.17915 8.29979C8.24655 8.31818 8.30782 8.33656 8.36296 8.36107C8.59579 8.4346 8.85314 8.52037 9.11661 8.61228C9.13499 8.6184 9.15949 8.63066 9.184 8.63679L9.59453 12.4663C9.55777 12.4785 9.52099 12.4847 9.48423 12.4908C8.5774 12.7175 7.48678 12.4111 7.48678 12.4111C7.14978 11.443 7.37036 10.2727 7.37036 10.2727C7.37036 10.2727 3.73694 8.78997 3.18549 9.21275C2.63404 9.63552 0.863306 17.2577 2.6647 18.4464C4.33129 19.5432 9.44135 17.6254 10.2072 17.3313C10.2746 17.3067 10.3053 17.2945 10.3053 17.2945C11.1386 19.102 13.3321 22.0185 13.3321 22.0185V22.0063Z" fill="url(#paint8_radial_3205_193907)"/>
<path id="Vector_10" d="M9.1774 8.63047C9.1774 8.63047 9.13452 8.61209 9.11001 8.60596C8.84654 8.51405 8.58919 8.42827 8.35636 8.35474C8.29509 8.33023 8.23383 8.31186 8.17255 8.29348C8.14192 8.28122 8.10515 8.26896 8.07452 8.26284C8.00099 8.23833 7.9336 8.21382 7.87233 8.19544C7.7988 8.17093 7.72527 8.14642 7.65787 8.12804C7.62111 8.10966 7.57822 8.10353 7.54759 8.09128C7.3699 8.03613 7.21059 7.98712 7.08192 7.95036C7.02677 7.93197 6.97163 7.91359 6.91036 7.90134C6.82458 7.87683 6.75717 7.85232 6.70815 7.84006C5.53786 7.50919 4.64942 7.31313 4.0122 7.20284C3.41173 7.09868 3.03185 7.06804 2.86028 7.05578H2.84804C2.78677 7.05578 2.75 7.05578 2.75 7.05578C3.33821 6.93324 5.06608 7.09868 6.56724 7.28862C6.59175 7.28862 6.61625 7.28862 6.64076 7.29474C7.78041 7.43567 8.77301 7.58272 9.02422 7.61948H9.03649C9.03649 7.61948 9.04874 7.61948 9.05487 7.61948C9.07325 7.61948 9.0855 7.61948 9.0855 7.61948L9.1774 8.61208V8.63047Z" fill="url(#paint9_linear_3205_193907)"/>
<path id="Vector_11" d="M10.3028 17.2891C10.3028 17.2891 5.16209 19.5439 2.25781 17.9692C2.25781 17.9692 2.40487 20.2546 10.3028 17.2891Z" fill="url(#paint10_linear_3205_193907)"/>
<g id="Vector_12" style="mix-blend-mode:soft-light">
<path d="M19.3178 5.74009C18.7725 5.3602 24.4646 5.94841 27.4363 5.32957C30.408 4.71072 29.6176 3.99384 30.3283 3.77326C31.0391 3.55268 31.5415 4.435 31.5905 4.75361C31.6395 5.07222 28.5331 6.9839 19.3178 5.73395V5.74009Z" fill="white"/>
</g>
<g id="Vector_13" style="mix-blend-mode:soft-light">
<path d="M12.4449 20.3719C12.0405 20.7028 17.0831 25.0531 18.9948 26.0947C20.9065 27.1363 26.2984 23.1782 28.1733 20.6354C30.0421 18.0926 30.6242 15.2128 30.4649 14.6614C30.3117 14.1038 29.2088 20.4577 23.9578 23.5703C18.7068 26.6829 12.9473 19.2506 12.4387 20.3719H12.4449Z" fill="white"/>
</g>
<g id="Vector_14" style="mix-blend-mode:multiply" opacity="0.2">
<path d="M10.3021 13.4708C9.98352 14.2919 13.3106 23.6726 20.3017 24.0892C27.2928 24.5059 31.1713 10.634 31.2509 7.34366C31.3 5.40134 28.2609 5.76285 26.0919 7.1047C24.0944 8.34239 21.8518 12.2638 19.2723 14.6227C12.9797 20.3762 10.6391 12.5763 10.296 13.4708H10.3021Z" fill="#D42F55"/>
</g>
<g id="Vector_15" style="mix-blend-mode:soft-light" opacity="0.5">
<path d="M12.4161 4.9487C9.54858 5.18153 11.8708 13.6983 14.8609 15.5548C17.8509 17.4114 22.673 9.67276 24.1129 8.12258C25.5466 6.57241 14.0949 4.8139 12.4161 4.9487Z" fill="white"/>
</g>
<path id="Vector_16" d="M15.6636 10.9109C15.1611 10.6351 15.8474 8.18428 16.6378 8.0311C17.4343 7.88405 17.8571 12.1118 15.6636 10.9109Z" fill="white"/>
<g id="Vector_17" style="mix-blend-mode:multiply" opacity="0.5">
<path d="M16.2891 30.6219C16.3197 30.6035 16.3504 30.579 16.3811 30.5605L16.2891 30.6219Z" fill="#D42F55"/>
</g>
<g id="Vector_18" style="mix-blend-mode:multiply" opacity="0.5">
<path d="M20.6351 31.2889C16.971 31.0621 17.2284 30.0328 16.3828 30.5658C16.7259 30.333 17.1181 30.1063 17.5347 29.8306C19.1646 28.7951 19.6363 28.1517 18.5518 26.3013C18.5335 26.2768 18.5212 26.2523 18.5028 26.2278C18.8337 26.3626 19.1462 26.4913 19.379 26.5648C20.2062 26.8283 22.4548 25.8418 22.4548 25.8418C22.2955 26.0011 22.173 26.1543 22.0872 26.3013C21.0027 28.1517 21.4745 28.7951 23.1043 29.8306C23.3249 29.9715 23.5332 30.1002 23.7354 30.2227C23.7538 30.2411 23.7722 30.2472 23.7906 30.2595C24.4707 30.6884 24.2991 31.5156 20.6351 31.2889Z" fill="#D42F55"/>
</g>
<g id="Vector_19" style="mix-blend-mode:multiply" opacity="0.2">
<path d="M21.1114 33.692C20.3761 33.4224 20.8479 31.8048 21.577 31.5598C22.3062 31.3147 23.9605 31.4556 24.2608 31.5598C24.561 31.6639 24.6713 33.0732 24.5242 33.2692C24.3772 33.4653 21.1052 33.6859 21.1052 33.6859L21.1114 33.692Z" fill="#DA0553"/>
</g>
<g id="Vector_20" style="mix-blend-mode:soft-light">
<path d="M15.3691 33.2267C14.885 33.1041 15.5345 31.5417 15.8347 31.3334C16.135 31.125 19.9644 31.652 20.473 31.7745C20.9816 31.8909 20.6384 33.5146 20.5772 33.6127C20.5159 33.7107 16.1595 33.4289 15.3691 33.2328V33.2267Z" fill="white"/>
</g>
<path id="Vector_21" d="M16.615 31.5045C16.0636 31.4677 16.0881 32.926 16.1677 33.2017C16.2474 33.4774 17.5096 33.4713 17.6321 33.4836C17.7547 33.4958 17.9936 31.7312 17.8956 31.5658C17.7976 31.4003 16.615 31.5106 16.615 31.5106V31.5045Z" fill="white"/>
<g id="Vector_22" style="mix-blend-mode:soft-light">
<path d="M24.5984 31.2832C24.2675 31.2955 24.4819 32.9069 24.5984 33.103C24.7148 33.299 25.4623 33.0294 25.6767 33.103C25.8912 33.1765 25.64 31.4241 24.5984 31.2832Z" fill="white"/>
</g>
<g id="Vector_23" style="mix-blend-mode:multiply" opacity="0.3">
<path d="M11.8359 2.60873C11.9094 2.94572 16.2474 4.38561 17.6934 4.64908C19.1395 4.91255 19.6664 2.79866 20.4629 2.4678C22.7729 1.51809 23.2079 6.98353 25.5301 3.00699C25.8671 2.42491 20.9102 1.38942 16.7192 1.27913C12.5282 1.17497 11.7378 2.16145 11.8359 2.60873Z" fill="#D42F55"/>
</g>
<g id="Vector_24" style="mix-blend-mode:multiply" opacity="0.8">
<path d="M18.7198 26.5897C18.7198 26.5897 19.4061 27.9561 19.9575 28.8935C20.5089 29.831 21.6302 26.6081 21.9549 26.265C22.2797 25.9218 20.8766 26.5162 20.1229 26.4672C19.3693 26.4182 18.3828 26.0566 18.3828 26.0566L18.7198 26.5897Z" fill="#D42F55"/>
</g>
<g id="Vector_25" style="mix-blend-mode:soft-light" opacity="0.5">
<path d="M26.0593 2.85878C25.6733 2.76075 24.6929 4.8685 24.7787 5.23613C24.8645 5.60376 26.6046 5.54248 27.2602 4.32318C27.922 3.09774 26.0593 2.86491 26.0593 2.86491V2.85878Z" fill="white"/>
</g>
<path id="Vector_26" d="M26.056 2.86006C25.7619 3.2522 26.0682 3.79752 26.3991 4.14677C26.7361 4.49602 27.5449 3.30735 27.5142 3.06839C27.4836 2.82943 26.3317 2.49243 26.056 2.86619V2.86006Z" fill="white"/>
<path id="Vector_27" d="M9.65625 3.30664C9.65625 3.30664 18.5652 6.25381 25.6788 6.14965C25.6788 6.14965 18.7919 7.13 9.65625 3.30664Z" fill="#FFE016"/>
<path id="Vector_28" d="M15.965 5.30997C15.4074 4.86269 17.846 5.37125 18.4894 5.48154C19.1266 5.59183 19.433 5.84916 19.433 5.84916C19.433 5.84916 17.7664 5.88592 15.9711 5.30997H15.965Z" fill="white"/>
<g id="Vector_29" style="mix-blend-mode:multiply" opacity="0.8">
<path d="M35.6624 9.46391C36.6182 9.58645 37.0287 11.1244 37.1023 11.7922C37.1758 12.4601 38.4809 11.6145 38.1194 10.5484C37.7579 9.48228 37.6782 9.18206 37.4699 9.15755C37.2616 9.13304 35.6562 9.46391 35.6562 9.46391H35.6624Z" fill="#D42F55"/>
</g>
<g id="Vector_30" style="mix-blend-mode:multiply" opacity="0.8">
<path d="M5.10584 9.4637C5.10584 9.4637 3.46375 9.16959 3.16965 9.35341C2.86942 9.53722 2.42826 11.7491 2.52017 12.6131C2.61208 13.477 3.63532 11.2222 4.07648 10.3889C4.51763 9.5556 5.10584 9.45757 5.10584 9.45757V9.4637Z" fill="#D42F55"/>
</g>
<g id="Vector_31" style="mix-blend-mode:multiply" opacity="0.5">
<path d="M31.7512 20.047C30.8689 19.4526 30.9363 18.1537 31.261 17.9331C31.5857 17.7125 35.3233 19.2688 37.3085 18.9931C39.2937 18.7174 38.8035 15.4455 39.2018 14.2997C39.6001 13.1478 40.9113 18.4233 39.6614 20.0531C38.4114 21.6891 31.7573 20.0531 31.7573 20.0531L31.7512 20.047Z" fill="#D42F55"/>
</g>
<g id="Vector_32" style="mix-blend-mode:multiply" opacity="0.5">
<path d="M0.87687 20.0884C0.110974 19.0774 0.650162 17.129 1.10357 16.841C1.55698 16.5591 1.77143 19.0039 3.57282 19.0406C5.37421 19.0774 9.68163 17.7846 10.135 17.8152C10.5885 17.8458 10.2208 19.108 7.65966 20.0822C5.10463 21.0565 1.71629 21.1974 0.870737 20.0822L0.87687 20.0884Z" fill="#D42F55"/>
</g>
<g id="Vector_33" style="mix-blend-mode:multiply" opacity="0.8">
<path d="M11.0391 22.8289C11.0391 22.8289 11.8601 22.3142 13.3306 22.0078C13.3306 22.0078 12.4912 22.8656 11.0391 22.8289Z" fill="#D42F55"/>
</g>
<g id="Vector_34" style="mix-blend-mode:multiply" opacity="0.8">
<path d="M29.7369 22.8283C29.7369 22.8283 29.118 21.7622 27.4453 22.0073C27.4453 22.0073 28.4318 22.8283 29.7369 22.8283Z" fill="#D42F55"/>
</g>
<g id="Vector_35" style="mix-blend-mode:soft-light" opacity="0.5">
<path d="M10.7351 18.6746C10.1653 18.4418 10.245 19.465 10.2879 19.9368C10.3307 20.4086 10.9435 22.1303 11.115 22.2958C11.2866 22.4612 11.6542 22.3141 12.2608 22.1916C12.8735 22.069 12.702 21.8914 12.6897 21.4992C12.6713 21.1071 11.1028 18.8278 10.7351 18.6807V18.6746Z" fill="white"/>
</g>
<g id="Vector_36" style="mix-blend-mode:soft-light" opacity="0.5">
<path d="M4.43125 7.10547C4.06975 7.21576 6.21427 7.68142 7.16398 7.82235C8.10757 7.96327 8.37103 8.00004 8.49357 7.82235C8.61611 7.64466 6.22651 7.12385 4.43125 7.10547Z" fill="white"/>
</g>
<path id="Vector_37" d="M4.77693 7.40544C4.25612 7.20324 6.38838 7.27064 6.6396 7.52798C6.89081 7.78532 6.02687 7.79758 4.77693 7.40544Z" fill="white"/>
<path id="Vector_38" d="M35.2966 7.15999C33.8996 7.31317 36.0074 7.3867 36.6814 7.22126C37.3615 7.05583 35.8787 7.09872 35.2966 7.15999Z" fill="white"/>
<g id="Vector_39" style="mix-blend-mode:multiply" opacity="0.8">
<path d="M31.5902 8.63049C32.1907 8.4283 35.5361 7.58887 36.0508 7.8217C36.5594 8.05453 34.1575 9.715 33.5877 9.98459C33.0179 10.2542 33.4835 11.6696 32.9382 12.1842C32.3929 12.6989 31.1797 12.4538 31.1797 12.4538L31.5902 8.62436V8.63049Z" fill="#D42F55"/>
</g>
<g id="Vector_40" style="mix-blend-mode:multiply" opacity="0.3">
<path d="M6.28253 7.93905C5.59016 8.37408 8.89882 12.0014 9.18067 12.1239C9.46252 12.2465 9.22969 9.07258 9.20518 8.852C9.18067 8.63142 6.52761 7.792 6.28253 7.93905Z" fill="#D42F55"/>
</g>
<g id="Vector_41" style="mix-blend-mode:multiply" opacity="0.5">
<path d="M27.7031 21.756C27.7031 21.7928 29.2165 22.1052 29.4616 22.2952C29.7067 22.4851 30.7238 19.6237 30.8464 18.6434C30.9689 17.663 30.6381 17.2464 30.393 17.4547C30.154 17.663 28.5119 20.7573 27.7031 21.756Z" fill="#D42F55"/>
</g>
<path id="Vector_42" d="M25.3047 6.15652C25.513 5.56831 27.4002 5.89918 27.5166 6.07687C27.6392 6.25455 26.8181 7.19201 26.2667 7.28392C25.7091 7.37583 25.3047 6.15652 25.3047 6.15652Z" fill="#D13C00"/>
<g id="Group_2">
<path id="Vector_43" d="M27.1742 9.44083C27.0394 9.1406 27.2477 8.25829 27.603 8.06222C27.9584 7.86615 28.0136 9.08545 27.8665 9.44083C27.7195 9.79621 27.2599 9.64303 27.1742 9.44083Z" fill="#D12D00"/>
<g id="Vector_44" style="mix-blend-mode:multiply" opacity="0.5">
<path d="M27.5426 8.14188C27.322 8.2583 27.3404 8.74234 27.4752 8.97518C27.61 9.20801 27.8918 8.76072 27.849 8.44211C27.8061 8.12349 27.8183 8.00095 27.5426 8.14188Z" fill="#D42F55"/>
</g>
<path id="Vector_45" d="M27.1663 8.87648C27.1663 8.87648 27.0989 9.2625 27.3195 9.46469C27.5401 9.66689 27.8342 9.31151 27.8893 9.07255C27.9445 8.83359 27.9322 8.61914 27.9322 8.61914C27.9322 8.61914 27.9996 9.34215 27.8464 9.55047C27.6932 9.7588 27.1908 9.66076 27.1357 9.44018C27.0805 9.2196 27.1663 8.87648 27.1663 8.87648Z" fill="#FF9500"/>
<path id="Vector_46" d="M27.5832 9.66835C27.4974 9.61321 27.6996 9.44778 27.7977 9.28235C27.9018 9.11079 27.8957 9.46616 27.8283 9.57645C27.7609 9.68674 27.5771 9.67449 27.5771 9.67449L27.5832 9.66835Z" fill="white"/>
</g>
<g id="Group_3">
<path id="Vector_47" d="M12.3851 18.9424C12.0726 18.7892 11.6989 17.7905 11.9011 17.2758C12.0971 16.7612 12.9304 17.8273 13.0162 18.2929C13.102 18.7586 12.5873 19.0466 12.3851 18.9424Z" fill="#D12D00"/>
<g id="Vector_48" style="mix-blend-mode:multiply" opacity="0.5">
<path d="M11.8884 17.4109C11.7598 17.7234 12.0845 18.1462 12.3541 18.2381C12.6237 18.33 12.5992 17.6499 12.3541 17.3987C12.1151 17.1474 12.0477 17.0249 11.8884 17.4109Z" fill="#D42F55"/>
</g>
<path id="Vector_49" d="M12.0156 18.4341C12.0156 18.4341 12.1994 18.8507 12.5303 18.8262C12.8612 18.8078 12.9041 18.2012 12.7999 17.9378C12.7019 17.6682 12.5548 17.4844 12.5548 17.4844C12.5548 17.4844 13.0756 18.0848 13.0695 18.4157C13.0572 18.7466 12.5426 19.1326 12.3465 18.9855C12.1504 18.8385 12.0156 18.4402 12.0156 18.4402V18.4341Z" fill="#FF9500"/>
<path id="Vector_50" d="M12.9081 18.764C12.7917 18.7946 12.8713 18.4576 12.8591 18.2064C12.8468 17.9552 13.0613 18.286 13.0735 18.4453C13.0858 18.6046 12.9081 18.764 12.9081 18.764Z" fill="white"/>
</g>
<g id="Vector_51" style="mix-blend-mode:multiply" opacity="0.5">
<path d="M25.5529 5.92994C25.2588 6.04023 25.8838 6.60393 26.2575 6.67746C26.6313 6.75098 27.1153 6.08924 27.0602 5.99121C27.005 5.89317 26.1962 5.67872 25.5529 5.92381V5.92994Z" fill="#D42F55"/>
</g>
<path id="Vector_52" d="M25.303 6.15625C25.303 6.15625 25.8115 7.18562 26.3201 7.1366C26.8287 7.08758 27.4353 6.34619 27.4353 6.34619C27.4353 6.34619 26.9022 7.34492 26.2588 7.40007C25.6155 7.45521 25.2969 6.16237 25.2969 6.16237L25.303 6.15625Z" fill="#FFBA00"/>
<path id="Vector_53" d="M26.4545 7.3572C26.1359 7.39397 26.7058 6.98344 26.8712 6.89153C27.0366 6.7935 26.9692 7.15501 26.4545 7.3572Z" fill="white"/>
<g id="Vector_54" style="mix-blend-mode:soft-light">
<path d="M25.4686 23.3478C24.2431 23.8196 27.129 21.5648 28.3973 19.0588C29.6657 16.5528 29.0101 19.3407 29.0101 19.3407C29.0101 19.3407 27.7295 21.7364 25.4686 23.3478Z" fill="white"/>
</g>
<g id="Vector_55" style="mix-blend-mode:soft-light">
<path d="M1.99367 14.6295C1.90176 15.6895 2.19586 16.4492 2.50221 16.8169C2.80245 17.1845 3.53771 16.8291 3.5806 16.8414C3.62349 16.8536 3.54997 13.643 3.5806 12.8036C3.61124 11.9703 2.17748 12.4788 1.99367 14.6233V14.6295Z" fill="white"/>
</g>
<g id="Vector_56" style="mix-blend-mode:soft-light">
<path d="M37.3009 12.2884C37.0925 12.3619 37.3131 15.1069 37.3009 15.5909C37.2886 16.075 38.6366 15.7012 38.7652 15.5909C38.8939 15.4806 38.5508 11.8962 38.3241 11.7492C38.0974 11.6021 37.3009 12.2884 37.3009 12.2884Z" fill="white"/>
</g>
<g id="Vector_57" style="mix-blend-mode:multiply" opacity="0.8">
<path d="M6.57309 7.28862C5.7643 7.20897 4.88813 7.15382 4.15287 7.19671C4.10998 7.19671 4.06096 7.19671 4.01807 7.20284C3.49726 7.2396 3.06223 7.32538 2.79263 7.49082C1.49367 8.26897 0.494943 15.0456 0.494943 15.0456L0.476562 15.0211C0.770667 11.2897 1.75714 7.31313 2.63332 7.08642C2.70072 7.06804 2.77426 7.06191 2.85391 7.05578C2.79264 7.05578 2.75587 7.05578 2.75587 7.05578C3.34408 6.93324 5.07193 7.09868 6.57309 7.28862Z" fill="#D42F55"/>
</g>
<g id="Vector_58" style="mix-blend-mode:multiply" opacity="0.8">
<path d="M12.8337 0.775391C12.6989 0.812154 9.45761 1.68834 9.18189 2.16626C9.14513 2.22753 9.1145 2.36846 9.09612 2.56452C9.08387 2.67481 9.0716 2.79736 9.06547 2.93828C8.97357 4.47008 9.08999 7.6317 9.08999 7.6317C9.08999 7.6317 9.07774 7.6317 9.05936 7.6317C9.05936 7.6317 9.04711 7.6317 9.04098 7.6317C8.84491 5.05216 8.75913 3.1466 8.73462 2.61967C8.54468 2.34394 8.63657 2.08661 9.06547 1.86603C10.1132 1.33296 11.4061 0.983711 12.8337 0.781514V0.775391Z" fill="#D42F55"/>
</g>
<g id="Vector_59" style="mix-blend-mode:multiply" opacity="0.8">
<path d="M40.2773 19.0913C39.7503 23.1536 30.9946 19.8878 30.872 20.0349C30.7495 20.1819 30.388 21.8117 29.7324 22.8288C29.7324 22.8288 28.0964 22.7921 27.4408 22.0078C25.9336 23.4354 24.2608 24.428 23.1641 25.2491C24.1812 24.428 26.5463 22.5102 26.9507 22.0691C27.4776 21.4992 28.0474 20.8743 28.0474 20.8743C28.0474 20.8743 28.0781 20.9417 28.1393 21.0397C28.17 21.0826 28.1945 21.1316 28.2312 21.1868C28.4212 21.4809 28.7521 21.9098 29.181 22.1732C29.8795 22.5899 30.7679 19.851 30.7679 19.851C30.7679 19.851 37.6242 21.5176 39.0396 20.4821C40.4611 19.4466 40.0934 13.5829 39.7932 12.0328C39.4868 10.4826 39.2295 9.04883 39.2295 9.04883C40.0444 11.6529 40.6388 16.2544 40.2711 19.0974L40.2773 19.0913Z" fill="#D42F55"/>
</g>
<g id="Vector_60" style="mix-blend-mode:soft-light">
<path d="M11.2765 19.0178C12.0853 20.3474 12.3304 20.2677 12.4223 20.0839C12.5142 19.9001 10.5106 16.9468 9.83052 12.6149C9.15041 8.283 9.24843 4.30033 9.02785 4.19617C8.80727 4.09201 9.34034 13.4911 9.82439 15.3905C10.3084 17.2899 11.2765 19.0178 11.2765 19.0178Z" fill="white"/>
</g>
<path id="Vector_61" d="M10.486 16.2728C10.3818 16.6772 9.79363 14.9371 9.78137 14.0976C9.76912 13.2582 10.6882 15.4946 10.486 16.2728Z" fill="white"/>
<g id="Vector_62" style="mix-blend-mode:multiply" opacity="0.5">
<path d="M1.66979 16.2232C1.58401 17.1239 0.462739 15.4634 0.615918 13.662C0.769098 11.8668 1.5595 9.07278 1.9884 8.75416C2.4173 8.43555 2.6869 9.78965 2.50921 11.0886C2.33153 12.3876 1.77396 15.1326 1.66979 16.2232Z" fill="#D42F55"/>
</g>
<g id="Vector_63" style="mix-blend-mode:soft-light" opacity="0.5">
<path d="M37.8561 20.7071C37.0902 19.9657 39.2898 18.0295 39.6575 17.7048C40.0251 17.38 39.3143 20.0821 39.0447 20.4804C38.7751 20.8786 37.8561 20.7132 37.8561 20.7132V20.7071Z" fill="white"/>
</g>
<g id="Vector_64" style="mix-blend-mode:multiply" opacity="0.8">
<path d="M14.75 33.3184C14.75 33.3184 21.7289 33.833 25.8831 33.3184C25.8831 33.3184 20.4544 34.2007 14.75 33.3184Z" fill="#D42F55"/>
</g>
<g id="Vector_65" style="mix-blend-mode:soft-light">
<path d="M18.3796 30.9656C17.5095 30.4754 20.2177 29.489 21.6638 29.5625C23.1098 29.636 24.182 30.8369 23.9369 30.9656C23.6919 31.0943 20.1442 31.4803 18.3796 30.9656Z" fill="white"/>
</g>
<g id="Vector_66" style="mix-blend-mode:multiply" opacity="0.8">
<path d="M13.2687 22.0677C12.5764 22.7907 11.0384 22.8275 11.0384 22.8275C10.7688 22.4108 10.5544 21.8962 10.3828 21.4121C10.4318 21.455 10.9159 21.8716 11.2345 22.0064C11.5715 22.1412 13.2748 22.0677 13.2748 22.0677H13.2687Z" fill="#D42F55"/>
</g>
<g id="Vector_67" style="mix-blend-mode:multiply" opacity="0.8">
<path d="M9.89979 20.0347C9.59956 19.7345 10.2552 18.9441 10.1449 18.7664C10.0346 18.5887 9.2258 19.6242 8.15354 20.1021C7.08128 20.58 5.75781 20.9783 5.75781 20.9783C5.75781 20.9783 7.7614 20.6535 9.89979 20.0408V20.0347Z" fill="#D42F55"/>
</g>
<g id="Vector_68" style="mix-blend-mode:multiply" opacity="0.3">
<path d="M30.4703 5.85547C28.191 6.19859 28.8773 9.96068 28.3197 14.1333C27.7621 18.3059 29.8637 13.8085 30.4948 11.2045C31.1259 8.60045 31.3894 6.22311 31.034 6.02704C30.6787 5.83097 30.4703 5.8616 30.4703 5.8616V5.85547Z" fill="#D42F55"/>
</g>
<g id="Vector_69" style="mix-blend-mode:multiply" opacity="0.3">
<path d="M17.024 22.8278C16.5767 22.454 20.0263 23.2444 21.9931 23.4098C23.9599 23.5692 20.204 25.0581 17.024 22.8278Z" fill="#D42F55"/>
</g>
<path id="Vector_70" d="M27.9163 20.4376C27.708 19.9168 28.5229 18.6913 28.9457 18.6301C29.3623 18.5749 28.8415 20.505 27.9163 20.4376Z" fill="white"/>
</g>
<defs>
<linearGradient id="paint0_linear_3205_193907" x1="37.6064" y1="19.3419" x2="37.6064" y2="8.27617" gradientUnits="userSpaceOnUse">
<stop offset="0.66" stop-color="#FA9300"/>
<stop offset="0.85" stop-color="#F66A00"/>
<stop offset="1" stop-color="#F63F00"/>
</linearGradient>
<radialGradient id="paint1_radial_3205_193907" cx="0" cy="0" r="1" gradientUnits="userSpaceOnUse" gradientTransform="translate(16.3365 7.21677) scale(17.0029 20.7436)">
<stop stop-color="#FAC500"/>
<stop offset="0.85" stop-color="#FF9000"/>
<stop offset="1" stop-color="#F63F00"/>
</radialGradient>
<linearGradient id="paint2_linear_3205_193907" x1="22.1698" y1="8.59456" x2="18.4568" y2="-1.61944" gradientUnits="userSpaceOnUse">
<stop stop-color="#FFEA34"/>
<stop offset="0.7" stop-color="#FFA400"/>
<stop offset="1" stop-color="#FFBA00"/>
</linearGradient>
<radialGradient id="paint3_radial_3205_193907" cx="0" cy="0" r="1" gradientUnits="userSpaceOnUse" gradientTransform="translate(24.183 4.50328) scale(6.40289 7.81153)">
<stop stop-color="#FA9300"/>
<stop offset="0.45" stop-color="#F66A00"/>
<stop offset="1" stop-color="#F63F00"/>
</radialGradient>
<radialGradient id="paint4_radial_3205_193907" cx="0" cy="0" r="1" gradientUnits="userSpaceOnUse" gradientTransform="translate(31.6914 9.49676) scale(8.90278 10.8614)">
<stop stop-color="#FAA800"/>
<stop offset="0.85" stop-color="#FF7F00"/>
<stop offset="1" stop-color="#F63F00"/>
</radialGradient>
<linearGradient id="paint5_linear_3205_193907" x1="34.9331" y1="8.18318" x2="34.3755" y2="6.65138" gradientUnits="userSpaceOnUse">
<stop stop-color="#FFEA34"/>
<stop offset="0.7" stop-color="#FFA400"/>
<stop offset="1" stop-color="#FFBA00"/>
</linearGradient>
<linearGradient id="paint6_linear_3205_193907" x1="35.2051" y1="19.5929" x2="33.9122" y2="16.033" gradientUnits="userSpaceOnUse">
<stop stop-color="#FFA400"/>
<stop offset="1" stop-color="#FFEA34"/>
</linearGradient>
<linearGradient id="paint7_linear_3205_193907" x1="3.17056" y1="19.3419" x2="3.17056" y2="8.27617" gradientUnits="userSpaceOnUse">
<stop offset="0.66" stop-color="#FA9300"/>
<stop offset="0.85" stop-color="#F66A00"/>
<stop offset="1" stop-color="#F63F00"/>
</linearGradient>
<radialGradient id="paint8_radial_3205_193907" cx="0" cy="0" r="1" gradientUnits="userSpaceOnUse" gradientTransform="translate(4.63152 9.49582) scale(8.90279 10.8614)">
<stop stop-color="#FAA800"/>
<stop offset="0.85" stop-color="#FF7F00"/>
<stop offset="1" stop-color="#F63F00"/>
</radialGradient>
<linearGradient id="paint9_linear_3205_193907" x1="6.71428" y1="9.52504" x2="5.4582" y2="6.07544" gradientUnits="userSpaceOnUse">
<stop stop-color="#FFEA34"/>
<stop offset="0.7" stop-color="#FFA400"/>
<stop offset="1" stop-color="#FFBA00"/>
</linearGradient>
<linearGradient id="paint10_linear_3205_193907" x1="5.56649" y1="19.5929" x2="6.85932" y2="16.033" gradientUnits="userSpaceOnUse">
<stop stop-color="#FFA400"/>
<stop offset="1" stop-color="#FFEA34"/>
</linearGradient>
</defs>
</svg>
