<svg width="65" height="64" viewBox="0 0 65 64" fill="none" xmlns="http://www.w3.org/2000/svg">
<g filter="url(#filter0_di_6039_76283)">
<path d="M32.8055 30.1989C34.0255 30.1989 35.0055 29.2089 35.0055 27.9989C35.0055 26.7888 34.0256 25.7988 32.8055 25.7988C31.5955 25.7988 30.6055 26.7888 30.6055 27.9989C30.6055 29.2089 31.5956 30.1989 32.8055 30.1989Z" fill="url(#paint0_radial_6039_76283)"/>
<path d="M32.8057 26.2988C33.748 26.2989 34.5059 27.0637 34.5059 27.999C34.5058 28.9343 33.7479 29.6991 32.8057 29.6992C31.8719 29.6992 31.1056 28.9328 31.1055 27.999C31.1055 27.0651 31.8718 26.2988 32.8057 26.2988Z" stroke="url(#paint1_linear_6039_76283)" stroke-opacity="0.25"/>
<path d="M32.8046 8C21.7547 8 12.8047 16.95 12.8047 28C12.8047 39.0399 21.7547 47.9999 32.8046 47.9999C43.8546 47.9999 52.8046 39.0399 52.8046 28C52.8047 16.95 43.8547 8 32.8046 8ZM37.3386 32.049C37.2392 32.2627 37.0674 32.4345 36.8537 32.5339L23.2887 38.8443C22.4431 39.2378 21.5668 38.3615 21.9603 37.5159L28.2707 23.9509C28.3701 23.7372 28.5419 23.5654 28.7556 23.466L42.3205 17.1556C43.1662 16.7622 44.0424 17.6384 43.649 18.484L37.3386 32.049Z" fill="url(#paint2_radial_6039_76283)"/>
<path d="M32.8047 8.5C43.5785 8.50003 52.3048 17.2262 52.3047 28L52.2979 28.5029C52.0311 39.0348 43.41 47.5 32.8047 47.5C22.0311 47.5 13.3047 38.764 13.3047 28C13.3047 17.2262 22.0309 8.5 32.8047 8.5ZM44.1025 18.6953C44.6742 17.4664 43.4584 16.194 42.2285 16.6523L42.1094 16.7021L28.5449 23.0127C28.2643 23.1432 28.0315 23.3568 27.8779 23.623L27.8174 23.7402L21.5068 37.3047C20.9351 38.5336 22.151 39.806 23.3809 39.3477L23.5 39.2979L37.0645 32.9873C37.3451 32.8568 37.5778 32.6432 37.7314 32.377L37.792 32.2598L44.1025 18.6953Z" stroke="url(#paint3_linear_6039_76283)" stroke-opacity="0.25"/>
</g>
<defs>
<filter id="filter0_di_6039_76283" x="0.804688" y="0" width="64" height="64" filterUnits="userSpaceOnUse" color-interpolation-filters="sRGB">
<feFlood flood-opacity="0" result="BackgroundImageFix"/>
<feColorMatrix in="SourceAlpha" type="matrix" values="0 0 0 0 0 0 0 0 0 0 0 0 0 0 0 0 0 0 127 0" result="hardAlpha"/>
<feOffset dy="4"/>
<feGaussianBlur stdDeviation="6"/>
<feComposite in2="hardAlpha" operator="out"/>
<feColorMatrix type="matrix" values="0 0 0 0 0.129167 0 0 0 0 1 0 0 0 0 0.230764 0 0 0 0.25 0"/>
<feBlend mode="normal" in2="BackgroundImageFix" result="effect1_dropShadow_6039_76283"/>
<feBlend mode="normal" in="SourceGraphic" in2="effect1_dropShadow_6039_76283" result="shape"/>
<feColorMatrix in="SourceAlpha" type="matrix" values="0 0 0 0 0 0 0 0 0 0 0 0 0 0 0 0 0 0 127 0" result="hardAlpha"/>
<feOffset dy="2"/>
<feGaussianBlur stdDeviation="2"/>
<feComposite in2="hardAlpha" operator="arithmetic" k2="-1" k3="1"/>
<feColorMatrix type="matrix" values="0 0 0 0 0 0 0 0 0 0 0 0 0 0 0 0 0 0 0.35 0"/>
<feBlend mode="normal" in2="shape" result="effect2_innerShadow_6039_76283"/>
</filter>
<radialGradient id="paint0_radial_6039_76283" cx="0" cy="0" r="1" gradientUnits="userSpaceOnUse" gradientTransform="translate(33.2872 24.7902) rotate(96.2409) scale(5.14012 10.4403)">
<stop stop-color="#99DCB7"/>
<stop offset="1" stop-color="#44E487"/>
</radialGradient>
<linearGradient id="paint1_linear_6039_76283" x1="32.8055" y1="25.7988" x2="32.8055" y2="30.1989" gradientUnits="userSpaceOnUse">
<stop stop-color="white"/>
<stop offset="1"/>
</linearGradient>
<radialGradient id="paint2_radial_6039_76283" cx="0" cy="0" r="1" gradientUnits="userSpaceOnUse" gradientTransform="translate(37.1841 -1.1696) rotate(96.2409) scale(46.7276 94.9102)">
<stop stop-color="#99DCB7"/>
<stop offset="1" stop-color="#44E487"/>
</radialGradient>
<linearGradient id="paint3_linear_6039_76283" x1="32.8046" y1="8" x2="32.8046" y2="47.9999" gradientUnits="userSpaceOnUse">
<stop stop-color="white"/>
<stop offset="1"/>
</linearGradient>
</defs>
</svg>
