<svg width="68" height="69" viewBox="0 0 68 69" fill="none" xmlns="http://www.w3.org/2000/svg">
<g filter="url(#filter0_di_5142_88181)">
<path d="M18.9969 25.1944H13.8739C13.9661 24.7253 14.1111 24.2705 14.309 23.83C14.5083 23.3896 14.7612 22.9581 15.0676 22.5356L23.7004 10.9221C24.0172 10.4921 24.4337 10.208 24.9499 10.0697C25.4675 9.93287 25.9659 9.99752 26.4448 10.2636L28.0514 11.0529C28.4604 11.2634 28.7639 11.5452 28.9617 11.8985C29.161 12.2503 29.2607 12.6419 29.2607 13.0734V20.7158L36.1776 18.9073C36.7503 18.7509 37.2858 18.8193 37.7842 19.1125C38.2825 19.4056 38.6313 19.8371 38.8306 20.4069L42.6283 31.9347L52.4972 41.9088C53.0104 42.429 53.3569 42.9913 53.5369 43.5956C53.7154 44.2 53.8047 44.8314 53.8047 45.4899C53.8047 46.6204 53.4402 47.6006 52.7114 48.4305C51.9825 49.2603 51.0654 49.7362 49.9602 49.8579H48.5434L25.9227 27.9906C24.9588 27.0901 23.8833 26.3986 22.6963 25.916C21.5093 25.4334 20.2761 25.1929 18.9969 25.1944ZM38.5205 50C37.6904 50 36.8946 49.8512 36.133 49.5535C35.3744 49.2558 34.6812 48.8176 34.0535 48.2388L15.9244 31.6077C15.3041 31.056 14.8207 30.4193 14.4741 29.6977C14.1275 28.9761 13.9044 28.2267 13.8047 27.4494H18.9969C19.995 27.4494 20.9656 27.6291 21.9087 27.9884C22.8517 28.3462 23.6818 28.8874 24.3988 29.612L45.433 50H38.5205Z" fill="url(#paint0_radial_5142_88181)"/>
<path d="M18.9971 28.0205C19.8089 28.0205 20.6009 28.148 21.375 28.4043L21.7051 28.5225H21.7061C22.4635 28.8098 23.1406 29.2253 23.7402 29.7715L23.9922 30.0137L24.001 30.0225L44.0225 49.4287H38.5205C37.7605 49.4287 37.0351 49.2928 36.3408 49.0215H36.3418C35.7385 48.7848 35.1781 48.4499 34.6602 48.0127L34.4404 47.8184L34.4395 47.8174L16.3105 31.1865L16.3037 31.1807L16.0977 30.9883C15.6975 30.5971 15.37 30.1646 15.1123 29.6904L14.9893 29.4502C14.7659 28.9851 14.6003 28.5085 14.4883 28.0205H18.9971ZM25.0967 10.6211C25.4674 10.5234 25.8142 10.5668 26.167 10.7627L26.1797 10.7705L26.1924 10.7764L27.7891 11.5605H27.79C28.073 11.7061 28.2718 11.8843 28.4082 12.0889L28.4629 12.1777L28.4648 12.1807C28.612 12.4406 28.6894 12.7339 28.6895 13.0732V21.4561L29.4053 21.2686L36.3223 19.46L36.3281 19.459C36.7032 19.3566 37.0382 19.3824 37.3584 19.5332L37.4941 19.6055C37.8235 19.7992 38.0669 20.0687 38.2275 20.4336L38.291 20.5957L42.0859 32.1133L42.1279 32.2412L42.2217 32.3369L52.0908 42.3105C52.4912 42.7165 52.7647 43.1369 52.9268 43.5713L52.9893 43.7588C53.1513 44.3079 53.2334 44.8846 53.2334 45.4902C53.2333 46.4231 52.9552 47.224 52.3975 47.916L52.2822 48.0537C51.6546 48.7682 50.8779 49.1749 49.9268 49.2861H48.7734L26.3203 27.5801L26.3125 27.5732L25.9268 27.2285C25.1441 26.5591 24.2938 26.0114 23.376 25.5879L22.9111 25.3867C21.656 24.8765 20.35 24.6216 18.9971 24.623H14.6152C14.6774 24.4345 14.7477 24.2479 14.8301 24.0645L14.8291 24.0635C15.0103 23.6633 15.2431 23.2682 15.5264 22.877L24.1592 11.2627L24.1602 11.2607C24.4 10.9353 24.7067 10.7269 25.0977 10.6221L25.0967 10.6211Z" stroke="url(#paint1_linear_5142_88181)" stroke-opacity="0.25" stroke-width="1.14286"/>
</g>
<defs>
<filter id="filter0_di_5142_88181" x="0.0904026" y="0.857143" width="67.4286" height="67.4286" filterUnits="userSpaceOnUse" color-interpolation-filters="sRGB">
<feFlood flood-opacity="0" result="BackgroundImageFix"/>
<feColorMatrix in="SourceAlpha" type="matrix" values="0 0 0 0 0 0 0 0 0 0 0 0 0 0 0 0 0 0 127 0" result="hardAlpha"/>
<feOffset dy="4.57143"/>
<feGaussianBlur stdDeviation="6.85714"/>
<feComposite in2="hardAlpha" operator="out"/>
<feColorMatrix type="matrix" values="0 0 0 0 0.344572 0 0 0 0 0.866987 0 0 0 0 0.727676 0 0 0 0.25 0"/>
<feBlend mode="normal" in2="BackgroundImageFix" result="effect1_dropShadow_5142_88181"/>
<feBlend mode="normal" in="SourceGraphic" in2="effect1_dropShadow_5142_88181" result="shape"/>
<feColorMatrix in="SourceAlpha" type="matrix" values="0 0 0 0 0 0 0 0 0 0 0 0 0 0 0 0 0 0 127 0" result="hardAlpha"/>
<feOffset dy="2.28571"/>
<feGaussianBlur stdDeviation="2.28571"/>
<feComposite in2="hardAlpha" operator="arithmetic" k2="-1" k3="1"/>
<feColorMatrix type="matrix" values="0 0 0 0 0 0 0 0 0 0 0 0 0 0 0 0 0 0 0.35 0"/>
<feBlend mode="normal" in2="shape" result="effect2_innerShadow_5142_88181"/>
</filter>
<radialGradient id="paint0_radial_5142_88181" cx="0" cy="0" r="1" gradientUnits="userSpaceOnUse" gradientTransform="translate(38.1841 0.830381) rotate(96.2409) scale(46.7277 94.9104)">
<stop stop-color="#8AD8EF"/>
<stop offset="1" stop-color="#20D791"/>
</radialGradient>
<linearGradient id="paint1_linear_5142_88181" x1="33.8047" y1="10" x2="33.8047" y2="50" gradientUnits="userSpaceOnUse">
<stop stop-color="white"/>
<stop offset="1"/>
</linearGradient>
</defs>
</svg>
