<svg width="68" height="69" viewBox="0 0 68 69" fill="none" xmlns="http://www.w3.org/2000/svg">
<g filter="url(#filter0_di_5142_3544)">
<path d="M33.8062 10C34.9665 10 36.0793 10.4609 36.8998 11.2814C37.7202 12.1019 38.1812 13.2147 38.1812 14.375C38.1812 15.5353 37.7202 16.6481 36.8998 17.4686C36.0793 18.2891 34.9665 18.75 33.8062 18.75C32.6458 18.75 31.533 18.2891 30.7126 17.4686C29.8921 16.6481 29.4312 15.5353 29.4312 14.375C29.4312 13.2147 29.8921 12.1019 30.7126 11.2814C31.533 10.4609 32.6458 10 33.8062 10ZM24.2827 21.2344C24.5405 20.2188 25.4546 19.375 26.6421 19.375C27.603 19.375 28.4077 19.9375 28.8062 20.7031C29.7437 22.5156 31.6343 23.75 33.8062 23.75C35.978 23.75 37.8687 22.5156 38.8062 20.7031C39.2046 19.9375 40.0093 19.375 40.9702 19.375C42.1655 19.375 43.0796 20.2188 43.3296 21.2344C43.8765 23.4062 45.8452 25.0078 48.1812 25.0078C49.0249 25.0078 49.8218 24.7969 50.5093 24.4297C51.1655 24.0859 51.9859 24.0781 52.6655 24.5C53.6812 25.125 54.0015 26.4531 53.3843 27.4688L45.0327 41.25H22.5796L14.228 27.4688C13.6109 26.4531 13.9312 25.125 14.9468 24.5C15.6265 24.0859 16.4468 24.0859 17.103 24.4297C17.7984 24.7969 18.5874 25.0078 19.4312 25.0078C21.7671 25.0078 23.7359 23.4062 24.2827 21.2344ZM22.5562 43.75H45.0562L48.2905 46.9844C48.6187 47.3125 48.8062 47.7656 48.8062 48.2344C48.8062 49.2109 48.0171 50 47.0405 50H20.5718C19.5952 50 18.8062 49.2109 18.8062 48.2344C18.8062 47.7656 18.9937 47.3125 19.3218 46.9844L22.5562 43.75Z" fill="url(#paint0_radial_5142_3544)"/>
<path d="M44.8193 44.3213L47.8867 47.3887C48.1069 47.6089 48.2344 47.9163 48.2344 48.2344C48.2344 48.8952 47.7018 49.4285 47.041 49.4287H20.5723C19.9113 49.4287 19.3779 48.8953 19.3779 48.2344C19.3779 47.9559 19.4753 47.6854 19.6475 47.4746L19.7256 47.3887L22.793 44.3213H44.8193ZM40.9707 19.9463C41.8217 19.9465 42.4927 20.5089 42.7324 21.2256L42.7744 21.3711L42.7754 21.374C43.385 23.7947 45.5787 25.5791 48.1816 25.5791C49.1191 25.579 50.0065 25.3448 50.7744 24.9355C51.2027 24.7113 51.7189 24.6821 52.1738 24.8848L52.3643 24.9854L52.3662 24.9863C53.068 25.4182 53.3178 26.3052 52.9727 27.0293L52.8955 27.1719V27.1729L44.7109 40.6787H22.9014L14.7168 27.1729V27.1719L14.6396 27.0293C14.295 26.3061 14.5433 25.4197 15.2432 24.9873L15.2441 24.9883C15.6833 24.7208 16.2023 24.6866 16.6504 24.8525L16.8379 24.9355C17.6116 25.3438 18.4916 25.5791 19.4316 25.5791C22.034 25.5789 24.2271 23.7951 24.8369 21.375C25.0375 20.585 25.7442 19.9463 26.6426 19.9463C27.3712 19.9465 27.9897 20.3731 28.2988 20.9668V20.9658C29.3307 22.9606 31.4131 24.3213 33.8066 24.3213C36.1998 24.3211 38.2806 22.9602 39.3125 20.9658L39.3135 20.9668C39.6226 20.373 40.2419 19.9463 40.9707 19.9463ZM33.8066 10.5713C34.7523 10.5714 35.6617 10.9238 36.3594 11.5557L36.4961 11.6855C37.2093 12.3988 37.6094 13.3663 37.6094 14.375C37.6094 15.3206 37.2576 16.23 36.626 16.9277L36.4961 17.0645C35.7829 17.7776 34.8152 18.1786 33.8066 18.1787C32.8608 18.1787 31.9507 17.8263 31.2529 17.1943L31.1162 17.0645C30.4031 16.3512 30.0029 15.3837 30.0029 14.375C30.0029 13.4294 30.3547 12.52 30.9863 11.8223L31.1162 11.6855C31.8295 10.9722 32.7979 10.5713 33.8066 10.5713Z" stroke="url(#paint1_linear_5142_3544)" stroke-opacity="0.25" stroke-width="1.14286"/>
</g>
<defs>
<filter id="filter0_di_5142_3544" x="0.199778" y="0.857143" width="67.2137" height="67.4286" filterUnits="userSpaceOnUse" color-interpolation-filters="sRGB">
<feFlood flood-opacity="0" result="BackgroundImageFix"/>
<feColorMatrix in="SourceAlpha" type="matrix" values="0 0 0 0 0 0 0 0 0 0 0 0 0 0 0 0 0 0 127 0" result="hardAlpha"/>
<feOffset dy="4.57143"/>
<feGaussianBlur stdDeviation="6.85714"/>
<feComposite in2="hardAlpha" operator="out"/>
<feColorMatrix type="matrix" values="0 0 0 0 1 0 0 0 0 0.869375 0 0 0 0 0.129167 0 0 0 0.25 0"/>
<feBlend mode="normal" in2="BackgroundImageFix" result="effect1_dropShadow_5142_3544"/>
<feBlend mode="normal" in="SourceGraphic" in2="effect1_dropShadow_5142_3544" result="shape"/>
<feColorMatrix in="SourceAlpha" type="matrix" values="0 0 0 0 0 0 0 0 0 0 0 0 0 0 0 0 0 0 127 0" result="hardAlpha"/>
<feOffset dy="2.28571"/>
<feGaussianBlur stdDeviation="2.28571"/>
<feComposite in2="hardAlpha" operator="arithmetic" k2="-1" k3="1"/>
<feColorMatrix type="matrix" values="0 0 0 0 0 0 0 0 0 0 0 0 0 0 0 0 0 0 0.35 0"/>
<feBlend mode="normal" in2="shape" result="effect2_innerShadow_5142_3544"/>
</filter>
<radialGradient id="paint0_radial_5142_3544" cx="0" cy="0" r="1" gradientUnits="userSpaceOnUse" gradientTransform="translate(38.162 0.830381) rotate(96.2075) scale(46.7248 94.4044)">
<stop stop-color="#EEFF00"/>
<stop offset="1" stop-color="#F66511"/>
</radialGradient>
<linearGradient id="paint1_linear_5142_3544" x1="33.8062" y1="10" x2="33.8062" y2="50" gradientUnits="userSpaceOnUse">
<stop stop-color="white"/>
<stop offset="1"/>
</linearGradient>
</defs>
</svg>
