<svg width="12" height="13" viewBox="0 0 12 13" fill="none" xmlns="http://www.w3.org/2000/svg">
<g id="Default/plus">
<g id="Vector">
<path d="M6.4996 11.4149C6.36915 11.5615 6.1869 11.6516 5.99127 11.6664C5.5751 11.6652 5.23802 11.3281 5.23679 10.9119L5.23677 1.82605C5.25064 1.40834 5.60047 1.08096 6.01818 1.09483C6.3959 1.10738 6.70647 1.39666 6.74573 1.77256L6.74573 10.9119C6.73102 11.1049 6.64295 11.2849 6.4996 11.4149Z" fill="#9E90CF"/>
<path d="M11.0372 6.87732C10.8962 7.01709 10.706 7.09591 10.5074 7.09672L1.42155 7.09671C1.00488 7.06446 0.693216 6.70053 0.725445 6.28385C0.75422 5.91195 1.04967 5.6165 1.42155 5.58774L10.5342 5.561C10.9519 5.54723 11.3017 5.8747 11.3154 6.29241C11.316 6.30903 11.316 6.32563 11.3154 6.34224C11.3008 6.55144 11.2001 6.7452 11.0372 6.87732Z" fill="#9E90CF"/>
</g>
</g>
</svg>
