<svg width="64" height="69" viewBox="0 0 64 69" fill="none" xmlns="http://www.w3.org/2000/svg">
<g>
<g>
<path d="M18.3505 10C15.8412 10 13.8047 12.0365 13.8047 14.5458V18.7716C13.8057 19.7439 14.0664 20.6982 14.56 21.5358C15.0537 22.3734 15.7622 23.0638 16.6122 23.5357L27.0713 29.3507C24.8805 30.4567 23.1266 32.269 22.093 34.4947C21.0593 36.7205 20.8063 39.2298 21.3747 41.6171C21.9432 44.0044 23.2999 46.1304 25.2257 47.6515C27.1515 49.1726 29.534 50 31.988 50C34.4421 50 36.8245 49.1726 38.7503 47.6515C40.6761 46.1304 42.0329 44.0044 42.6013 41.6171C43.1698 39.2298 42.9167 36.7205 41.8831 34.4947C40.8494 32.269 39.0955 30.4567 36.9048 29.3507L47.3675 23.5393C48.2174 23.0667 48.9255 22.3755 49.4185 21.5372C49.9115 20.6989 50.1714 19.7441 50.1714 18.7716V14.5458C50.1714 12.0365 48.1348 10 45.6255 10H18.3505ZM28.3514 25.8995V13.6367H35.6247V25.8995L31.988 27.9215L28.3514 25.8995ZM39.2614 39.0934C39.2614 41.0224 38.4951 42.8724 37.1311 44.2364C35.767 45.6004 33.917 46.3667 31.988 46.3667C30.059 46.3667 28.209 45.6004 26.845 44.2364C25.481 42.8724 24.7147 41.0224 24.7147 39.0934C24.7147 37.1643 25.481 35.3143 26.845 33.9503C28.209 32.5863 30.059 31.82 31.988 31.82C33.917 31.82 35.767 32.5863 37.1311 33.9503C38.4951 35.3143 39.2614 37.1643 39.2614 39.0934Z" fill="url(#paint0_radial_6041_76346)"/>
<path d="M18.3506 10.5713H45.626C47.8195 10.5715 49.5996 12.3523 49.5996 14.5459V18.7715L49.5889 19.0977C49.5455 19.7463 49.3734 20.3798 49.082 20.9609L48.9258 21.2471C48.5396 21.9037 48.0062 22.4599 47.3691 22.8721L47.0898 23.04L36.627 28.8516L35.6846 29.375L36.6475 29.8604C38.7235 30.9084 40.3857 32.6262 41.3652 34.7354C42.2835 36.7128 42.5517 38.9265 42.1377 41.0596L42.0459 41.4844C41.5409 43.6051 40.3791 45.5085 38.7324 46.9258L38.3965 47.2031C36.5716 48.6445 34.3137 49.4287 31.9883 49.4287C29.808 49.4287 27.687 48.7397 25.9268 47.4658L25.5801 47.2031C23.8692 45.8518 22.6318 43.9968 22.04 41.9062L21.9307 41.4844C21.4257 39.3635 21.605 37.1412 22.4365 35.1338L22.6113 34.7354C23.5908 32.6262 25.2531 30.9084 27.3291 29.8604L28.291 29.375L27.3486 28.8516L16.8896 23.0361C16.2237 22.6665 15.6544 22.147 15.2266 21.5205L15.0527 21.2461C14.6109 20.4964 14.3769 19.6417 14.376 18.7715V14.5459C14.376 12.3522 16.1569 10.5713 18.3506 10.5713ZM31.9883 31.249C30.0376 31.249 28.1617 31.9752 26.7227 33.2783L26.4414 33.5459C24.9702 35.0171 24.1436 37.0132 24.1436 39.0938L24.1533 39.4824C24.2431 41.2921 24.9567 43.0153 26.1729 44.3584L26.4414 44.6406C27.9126 46.1116 29.9079 46.9385 31.9883 46.9385C33.9387 46.9384 35.8139 46.2112 37.2529 44.9082L37.5352 44.6406C39.0062 43.1695 39.8329 41.1742 39.833 39.0938C39.833 37.0132 39.0063 35.0171 37.5352 33.5459C36.0641 32.0749 34.0687 31.2491 31.9883 31.249ZM27.7803 26.2354L28.0732 26.3994L31.71 28.4209L31.9883 28.5752L32.2656 28.4209L35.9023 26.3994L36.1963 26.2354V13.0654H27.7803V26.2354Z" stroke="url(#paint1_linear_6041_76346)" stroke-opacity="0.25" stroke-width="1.14286"/>
</g>
</g>
<defs>
<radialGradient id="paint0_radial_6041_76346" cx="0" cy="0" r="1" gradientUnits="userSpaceOnUse" gradientTransform="translate(35.9697 0.830381) rotate(95.6779) scale(46.6798 86.378)">
<stop stop-color="#F63939"/>
<stop offset="1" stop-color="#F1499A"/>
</radialGradient>
<linearGradient id="paint1_linear_6041_76346" x1="31.988" y1="10" x2="31.988" y2="50" gradientUnits="userSpaceOnUse">
<stop stop-color="white"/>
<stop offset="1"/>
</linearGradient>
</defs>
</svg>
