<svg width="62" height="69" viewBox="0 0 62 69" fill="none" xmlns="http://www.w3.org/2000/svg">
<g filter="url(#filter0_di_5142_39676)">
<path d="M47.1631 17.7336C47.0135 17.5623 46.8301 17.4238 46.6244 17.3269C46.4186 17.23 46.195 17.1768 45.9677 17.1706C42.4369 17.0783 37.9692 13.3029 35.0154 11.8213C33.1908 10.909 31.9862 10.3075 31.0815 10.149C30.8979 10.1217 30.7112 10.1222 30.5277 10.1506C29.6231 10.309 28.4185 10.9106 26.5954 11.8229C23.6415 13.3029 19.1739 17.0783 15.6431 17.1706C15.4157 17.1775 15.1921 17.231 14.9862 17.3279C14.7803 17.4247 14.5965 17.5628 14.4462 17.7336C14.135 18.0864 13.9743 18.547 13.9985 19.0167C14.7569 34.4367 20.2877 43.9798 29.9923 49.526C30.2446 49.669 30.5246 49.7429 30.8031 49.7429C31.0815 49.7429 31.3615 49.669 31.6154 49.526C41.32 43.9798 46.8492 34.4367 47.6092 19.0167C47.6355 18.5469 47.4751 18.0858 47.1631 17.7336ZM39.4462 23.7983L31.2569 35.8829C30.9631 36.3167 30.5015 36.6044 30.0446 36.6044C29.5877 36.6044 29.0769 36.3536 28.7554 36.0321L22.9831 30.2583C22.7946 30.0691 22.6888 29.813 22.6888 29.546C22.6888 29.2789 22.7946 29.0228 22.9831 28.8336L24.4092 27.4044C24.5992 27.2174 24.855 27.1126 25.1215 27.1126C25.3881 27.1126 25.6439 27.2174 25.8339 27.4044L29.5877 31.1583L36.1092 21.5321C36.2601 21.3118 36.492 21.1602 36.7544 21.1103C37.0167 21.0605 37.288 21.1164 37.5092 21.266L39.1785 22.3983C39.399 22.5489 39.5509 22.7807 39.6011 23.043C39.6513 23.3054 39.5956 23.5769 39.4462 23.7983Z" fill="url(#paint0_radial_5142_39676)"/>
<path d="M30.9893 10.7129C31.3705 10.7806 31.8454 10.947 32.4727 11.2246C33.0996 11.5021 33.8431 11.8732 34.7588 12.3311V12.332C35.4684 12.688 36.2801 13.1874 37.1709 13.752C38.0532 14.3112 39.0108 14.9327 39.9844 15.5088C41.9098 16.6482 44.0238 17.6906 45.9521 17.7412V17.7422C46.0635 17.7452 46.1736 17.7651 46.2783 17.8018L46.3809 17.8438C46.4815 17.8912 46.5742 17.9538 46.6553 18.0293L46.7324 18.1094L46.7354 18.1123C46.9209 18.3217 47.0272 18.5881 47.0391 18.8652V18.9844L47.0381 18.9883C46.2852 34.2642 40.8275 43.6021 31.335 49.0283C31.1643 49.1245 30.9801 49.1719 30.8027 49.1719C30.6253 49.1718 30.4423 49.1245 30.2744 49.0293H30.2734C21.077 43.7727 15.6657 34.8447 14.6533 20.4033L14.5693 18.9883V18.9873L14.5684 18.8672C14.5794 18.6288 14.6601 18.3986 14.7998 18.2051L14.875 18.1113C14.949 18.0273 15.0353 17.955 15.1309 17.8975L15.2295 17.8447C15.3645 17.7813 15.5111 17.7467 15.6602 17.7422L15.6592 17.7412C17.5874 17.6904 19.7016 16.6479 21.627 15.5088C22.6005 14.9328 23.5582 14.3119 24.4404 13.7529C25.1086 13.3296 25.7316 12.9428 26.3008 12.626L26.8516 12.334C27.767 11.8759 28.5107 11.5041 29.1377 11.2266C29.7668 10.9481 30.2421 10.7811 30.624 10.7139C30.7451 10.696 30.8681 10.6957 30.9893 10.7129ZM37.8291 20.793C37.4829 20.5589 37.0581 20.4708 36.6475 20.5488C36.2883 20.6171 35.9657 20.8076 35.7324 21.085L35.6377 21.209L35.6357 21.2119L29.502 30.2637L26.2383 27L26.2344 26.9971L26.1191 26.8936C25.838 26.6664 25.4856 26.541 25.1211 26.541C24.7567 26.5411 24.405 26.6665 24.124 26.8936L24.0088 26.9971L24.0049 27.001L22.5781 28.4297V28.4307C22.2831 28.7269 22.1172 29.1278 22.1172 29.5459C22.1172 29.9118 22.2441 30.2649 22.4736 30.5459L22.5781 30.6611L22.5791 30.6621L28.3516 36.4365C28.7583 36.8431 29.4081 37.1758 30.0449 37.1758C30.7361 37.1757 31.3583 36.7527 31.7305 36.2031L31.7295 36.2021L39.9189 24.1191L39.9199 24.1182C40.1246 23.8148 40.2164 23.4511 40.1836 23.0898L40.1621 22.9355C40.0934 22.5763 39.9029 22.2535 39.625 22.0205L39.501 21.9268L39.499 21.9258L37.8301 20.793H37.8291Z" stroke="url(#paint1_linear_5142_39676)" stroke-opacity="0.25" stroke-width="1.14286"/>
</g>
<defs>
<filter id="filter0_di_5142_39676" x="0.281809" y="0.98605" width="61.0458" height="67.0428" filterUnits="userSpaceOnUse" color-interpolation-filters="sRGB">
<feFlood flood-opacity="0" result="BackgroundImageFix"/>
<feColorMatrix in="SourceAlpha" type="matrix" values="0 0 0 0 0 0 0 0 0 0 0 0 0 0 0 0 0 0 127 0" result="hardAlpha"/>
<feOffset dy="4.57143"/>
<feGaussianBlur stdDeviation="6.85714"/>
<feComposite in2="hardAlpha" operator="out"/>
<feColorMatrix type="matrix" values="0 0 0 0 0.129167 0 0 0 0 0.274306 0 0 0 0 1 0 0 0 0.25 0"/>
<feBlend mode="normal" in2="BackgroundImageFix" result="effect1_dropShadow_5142_39676"/>
<feBlend mode="normal" in="SourceGraphic" in2="effect1_dropShadow_5142_39676" result="shape"/>
<feColorMatrix in="SourceAlpha" type="matrix" values="0 0 0 0 0 0 0 0 0 0 0 0 0 0 0 0 0 0 127 0" result="hardAlpha"/>
<feOffset dy="2.28571"/>
<feGaussianBlur stdDeviation="2.28571"/>
<feComposite in2="hardAlpha" operator="arithmetic" k2="-1" k3="1"/>
<feColorMatrix type="matrix" values="0 0 0 0 0 0 0 0 0 0 0 0 0 0 0 0 0 0 0.35 0"/>
<feBlend mode="normal" in2="shape" result="effect2_innerShadow_5142_39676"/>
</filter>
<radialGradient id="paint0_radial_5142_39676" cx="0" cy="0" r="1" gradientUnits="userSpaceOnUse" gradientTransform="translate(34.4845 1.04778) rotate(95.3018) scale(46.2002 79.8948)">
<stop stop-color="#8AD9EF"/>
<stop offset="1" stop-color="#2B1AC0"/>
</radialGradient>
<linearGradient id="paint1_linear_5142_39676" x1="30.8041" y1="10.1289" x2="30.8041" y2="49.7429" gradientUnits="userSpaceOnUse">
<stop stop-color="white"/>
<stop offset="1"/>
</linearGradient>
</defs>
</svg>
