<svg width="68" height="69" viewBox="-5 -15 68 69" fill="none" xmlns="http://www.w3.org/2000/svg">
<g>
<g>
<path d="M13.4297 11.7188C15.2195 11.7188 16.8047 11 18.098 10.6067C16.7762 13.0936 15.9843 15.9723 15.8271 18.941C10.5424 19.5084 6.39844 23.942 6.39844 29.375C6.39844 35.1907 11.1296 40 16.9453 40C18.737 40 20.4533 39.4952 21.9926 38.6508C19.6046 36.3098 18.1172 32.9755 18.1172 29.375C18.1172 25.7745 19.6046 22.5183 21.9926 20.1773C20.8073 19.527 19.5158 19.0848 18.1672 18.913C18.6769 10.6299 24.9324 3.79761 32.9979 2.55096C30.9437 5.43488 29.8359 8.87604 29.8359 12.489V18.9465C24.5768 19.5383 20.4609 23.9603 20.4609 29.375C20.4609 35.1907 25.1921 40 31.0078 40C36.8235 40 41.5547 35.1907 41.5547 29.375C41.5547 23.9603 37.4388 19.5383 32.1797 18.9465V12.489C32.1797 8.52692 33.7224 4.80194 36.5239 2.00043L38.5243 0H35.6953C30.1912 0 25.2028 2.24457 21.5934 5.86517C20.6459 4.95544 17.6075 2.34375 13.4297 2.34375C8.48584 2.34375 5.10297 6.02753 4.93939 6.18439L4.05469 7.03125L4.93939 7.87811C5.10297 8.03497 8.48584 11.7188 13.4297 11.7188ZM31.0078 25.8594C29.0693 25.8594 27.4922 27.4365 27.4922 29.375H25.1484C25.1484 26.1444 27.7772 23.5156 31.0078 23.5156V25.8594ZM16.9453 25.8594C15.0068 25.8594 13.4297 27.4365 13.4297 29.375H11.0859C11.0859 26.1444 13.7147 23.5156 16.9453 23.5156V25.8594Z" fill="url(#paint0_radial_6041_28928)"/>
</g>
<path d="M35.6953 0.571289H37.1445L36.1201 1.59668C33.2114 4.50538 31.6084 8.37564 31.6084 12.4893V19.457L32.1162 19.5146C37.0943 20.075 40.9834 24.2595 40.9834 29.375C40.9834 34.8806 36.5025 39.4287 31.0078 39.4287C25.5131 39.4287 21.0322 34.8806 21.0322 29.375C21.0322 24.2595 24.9213 20.075 29.8994 19.5146L30.4072 19.457V12.4893C30.4072 8.99486 31.4781 5.66949 33.4629 2.88281L34.249 1.7793L32.9102 1.98633C24.5778 3.27442 18.1227 10.3284 17.5967 18.8779L17.5645 19.4121L18.0947 19.4795C19.1173 19.6098 20.1075 19.9083 21.043 20.3408C18.874 22.73 17.5459 25.8986 17.5459 29.375C17.5459 32.8494 18.8727 36.0865 21.0449 38.4883C19.7607 39.0847 18.3751 39.4287 16.9453 39.4287C11.4506 39.4287 6.96973 34.8806 6.96973 29.375C6.96973 24.2422 10.8853 20.046 15.8877 19.5088L16.3721 19.457L16.3975 18.9717C16.5504 16.083 17.3214 13.2855 18.6025 10.875L19.248 9.65918L17.9316 10.0596C16.5449 10.4813 15.1065 11.1475 13.4297 11.1475C9.33325 11.1475 6.35262 8.46712 5.54492 7.67578L5.33496 7.46582V7.46484L4.88184 7.03125L5.33496 6.59766V6.59668C5.52537 6.41394 8.74926 2.91504 13.4297 2.91504C17.377 2.91504 20.2756 5.39249 21.1973 6.27734L21.6025 6.66602L21.998 6.26855C25.505 2.75064 30.3497 0.571289 35.6953 0.571289ZM16.9453 22.9443C13.3991 22.9443 10.5146 25.8288 10.5146 29.375V29.9463H14.001V29.375C14.001 27.7521 15.3224 26.4307 16.9453 26.4307H17.5166V22.9443H16.9453ZM31.0078 22.9443C27.4616 22.9443 24.5771 25.8288 24.5771 29.375V29.9463H28.0635V29.375C28.0635 27.7521 29.3849 26.4307 31.0078 26.4307H31.5791V22.9443H31.0078Z" stroke="url(#paint1_linear_6041_28928)" stroke-opacity="0.25" stroke-width="1.14286"/>
</g>
<defs>
<radialGradient id="paint0_radial_6041_28928" cx="0" cy="0" r="1" gradientUnits="userSpaceOnUse" gradientTransform="translate(26.9104 -9.16962) rotate(95.8537) scale(46.6943 89.0422)">
<stop stop-color="#EF8A8A"/>
<stop offset="1" stop-color="#FB2222"/>
</radialGradient>
<linearGradient id="paint1_linear_6041_28928" x1="22.8047" y1="0" x2="22.8047" y2="40" gradientUnits="userSpaceOnUse">
<stop stop-color="white"/>
<stop offset="1"/>
</linearGradient>
</defs>
</svg>
