<svg width="41" height="40" viewBox="0 0 41 40" fill="none" xmlns="http://www.w3.org/2000/svg">
<path d="M11.4297 11.7188C13.2195 11.7188 14.8047 11 16.098 10.6067C14.7762 13.0936 13.9843 15.9723 13.8271 18.941C8.54242 19.5084 4.39844 23.942 4.39844 29.375C4.39844 35.1907 9.12958 40 14.9453 40C16.737 40 18.4533 39.4952 19.9926 38.6508C17.6046 36.3098 16.1172 32.9755 16.1172 29.375C16.1172 25.7745 17.6046 22.5183 19.9926 20.1773C18.8073 19.527 17.5158 19.0848 16.1672 18.913C16.6769 10.6299 22.9324 3.79761 30.9979 2.55096C28.9437 5.43488 27.8359 8.87604 27.8359 12.489V18.9465C22.5768 19.5383 18.4609 23.9603 18.4609 29.375C18.4609 35.1907 23.1921 40 29.0078 40C34.8235 40 39.5547 35.1907 39.5547 29.375C39.5547 23.9603 35.4388 19.5383 30.1797 18.9465V12.489C30.1797 8.52692 31.7224 4.80194 34.5239 2.00043L36.5243 0H33.6953C28.1912 0 23.2028 2.24457 19.5934 5.86517C18.6459 4.95544 15.6075 2.34375 11.4297 2.34375C6.48584 2.34375 3.10297 6.02753 2.93939 6.18439L2.05469 7.03125L2.93939 7.87811C3.10297 8.03497 6.48584 11.7188 11.4297 11.7188ZM29.0078 25.8594C27.0693 25.8594 25.4922 27.4365 25.4922 29.375H23.1484C23.1484 26.1444 25.7772 23.5156 29.0078 23.5156V25.8594ZM14.9453 25.8594C13.0068 25.8594 11.4297 27.4365 11.4297 29.375H9.08594C9.08594 26.1444 11.7147 23.5156 14.9453 23.5156V25.8594Z" fill="url(#paint0_radial_6041_28928)"/>
<path d="M33.6953 0.571289H35.1445L34.1201 1.59668C31.2114 4.50538 29.6084 8.37564 29.6084 12.4893V19.457L30.1162 19.5146C35.0943 20.075 38.9834 24.2595 38.9834 29.375C38.9834 34.8806 34.5025 39.4287 29.0078 39.4287C23.5131 39.4287 19.0322 34.8806 19.0322 29.375C19.0322 24.2595 22.9213 20.075 27.8994 19.5146L28.4072 19.457V12.4893C28.4072 8.99486 29.4781 5.66949 31.4629 2.88281L32.249 1.7793L30.9102 1.98633C22.5778 3.27442 16.1227 10.3284 15.5967 18.8779L15.5645 19.4121L16.0947 19.4795C17.1173 19.6098 18.1075 19.9083 19.043 20.3408C16.874 22.73 15.5459 25.8986 15.5459 29.375C15.5459 32.8494 16.8727 36.0865 19.0449 38.4883C17.7607 39.0847 16.3751 39.4287 14.9453 39.4287C9.45064 39.4287 4.96973 34.8806 4.96973 29.375C4.96973 24.2422 8.88532 20.046 13.8877 19.5088L14.3721 19.457L14.3975 18.9717C14.5504 16.083 15.3214 13.2855 16.6025 10.875L17.248 9.65918L15.9316 10.0596C14.5449 10.4813 13.1065 11.1475 11.4297 11.1475C7.33325 11.1475 4.35262 8.46712 3.54492 7.67578L3.33496 7.46582V7.46484L2.88184 7.03125L3.33496 6.59766V6.59668C3.52537 6.41394 6.74926 2.91504 11.4297 2.91504C15.377 2.91504 18.2756 5.39249 19.1973 6.27734L19.6025 6.66602L19.998 6.26855C23.505 2.75064 28.3497 0.571289 33.6953 0.571289ZM14.9453 22.9443C11.3991 22.9443 8.51465 25.8288 8.51465 29.375V29.9463H12.001V29.375C12.001 27.7521 13.3224 26.4307 14.9453 26.4307H15.5166V22.9443H14.9453ZM29.0078 22.9443C25.4616 22.9443 22.5771 25.8288 22.5771 29.375V29.9463H26.0635V29.375C26.0635 27.7521 27.3849 26.4307 29.0078 26.4307H29.5791V22.9443H29.0078Z" stroke="url(#paint1_linear_6041_28928)" stroke-opacity="0.25" stroke-width="1.14286"/>
<defs>
<radialGradient id="paint0_radial_6041_28928" cx="0" cy="0" r="1" gradientUnits="userSpaceOnUse" gradientTransform="translate(24.9104 -9.16962) rotate(95.8537) scale(46.6943 89.0422)">
<stop stop-color="#EF8A8A"/>
<stop offset="1" stop-color="#FB2222"/>
</radialGradient>
<linearGradient id="paint1_linear_6041_28928" x1="20.8047" y1="0" x2="20.8047" y2="40" gradientUnits="userSpaceOnUse">
<stop stop-color="white"/>
<stop offset="1"/>
</linearGradient>
</defs>
</svg>
