<svg width="66" height="69" viewBox="0 0 66 69" fill="none" xmlns="http://www.w3.org/2000/svg">
<g filter="url(#filter0_di_5142_28929)">
<path d="M23.4297 21.7188C25.2195 21.7188 26.8047 21 28.098 20.6067C26.7762 23.0936 25.9843 25.9723 25.8271 28.941C20.5424 29.5084 16.3984 33.942 16.3984 39.375C16.3984 45.1907 21.1296 50 26.9453 50C28.737 50 30.4533 49.4952 31.9926 48.6508C29.6046 46.3098 28.1172 42.9755 28.1172 39.375C28.1172 35.7745 29.6046 32.5183 31.9926 30.1773C30.8073 29.527 29.5158 29.0848 28.1672 28.913C28.6769 20.6299 34.9324 13.7976 42.9979 12.551C40.9437 15.4349 39.8359 18.876 39.8359 22.489V28.9465C34.5768 29.5383 30.4609 33.9603 30.4609 39.375C30.4609 45.1907 35.1921 50 41.0078 50C46.8235 50 51.5547 45.1907 51.5547 39.375C51.5547 33.9603 47.4388 29.5383 42.1797 28.9465V22.489C42.1797 18.5269 43.7224 14.8019 46.5239 12.0004L48.5243 10H45.6953C40.1912 10 35.2028 12.2446 31.5934 15.8652C30.6459 14.9554 27.6075 12.3438 23.4297 12.3438C18.4858 12.3438 15.103 16.0275 14.9394 16.1844L14.0547 17.0312L14.9394 17.8781C15.103 18.035 18.4858 21.7188 23.4297 21.7188ZM41.0078 35.8594C39.0693 35.8594 37.4922 37.4365 37.4922 39.375H35.1484C35.1484 36.1444 37.7772 33.5156 41.0078 33.5156V35.8594ZM26.9453 35.8594C25.0068 35.8594 23.4297 37.4365 23.4297 39.375H21.0859C21.0859 36.1444 23.7147 33.5156 26.9453 33.5156V35.8594Z" fill="url(#paint0_radial_5142_28929)"/>
<path d="M45.6953 10.5713H47.1445L46.1201 11.5967C43.2114 14.5054 41.6084 18.3756 41.6084 22.4893V29.457L42.1162 29.5146C47.0943 30.075 50.9834 34.2595 50.9834 39.375C50.9834 44.8806 46.5025 49.4287 41.0078 49.4287C35.5131 49.4287 31.0322 44.8806 31.0322 39.375C31.0322 34.2595 34.9213 30.075 39.8994 29.5146L40.4072 29.457V22.4893C40.4072 18.9949 41.4781 15.6695 43.4629 12.8828L44.249 11.7793L42.9102 11.9863C34.5778 13.2744 28.1227 20.3284 27.5967 28.8779L27.5645 29.4121L28.0947 29.4795C29.1173 29.6098 30.1075 29.9083 31.043 30.3408C28.874 32.73 27.5459 35.8986 27.5459 39.375C27.5459 42.8494 28.8727 46.0865 31.0449 48.4883C29.7607 49.0847 28.3751 49.4287 26.9453 49.4287C21.4506 49.4287 16.9697 44.8806 16.9697 39.375C16.9697 34.2422 20.8853 30.046 25.8877 29.5088L26.3721 29.457L26.3975 28.9717C26.5504 26.083 27.3214 23.2855 28.6025 20.875L29.248 19.6592L27.9316 20.0596C26.5449 20.4813 25.1065 21.1475 23.4297 21.1475C19.3332 21.1475 16.3526 18.4671 15.5449 17.6758L15.335 17.4658V17.4648L14.8818 17.0312L15.335 16.5977V16.5967C15.5254 16.4139 18.7493 12.915 23.4297 12.915C27.377 12.915 30.2756 15.3925 31.1973 16.2773L31.6025 16.666L31.998 16.2686C35.505 12.7506 40.3497 10.5713 45.6953 10.5713ZM26.9453 32.9443C23.3991 32.9443 20.5146 35.8288 20.5146 39.375V39.9463H24.001V39.375C24.001 37.7521 25.3224 36.4307 26.9453 36.4307H27.5166V32.9443H26.9453ZM41.0078 32.9443C37.4616 32.9443 34.5771 35.8288 34.5771 39.375V39.9463H38.0635V39.375C38.0635 37.7521 39.3849 36.4307 41.0078 36.4307H41.5791V32.9443H41.0078Z" stroke="url(#paint1_linear_5142_28929)" stroke-opacity="0.25" stroke-width="1.14286"/>
</g>
<defs>
<filter id="filter0_di_5142_28929" x="0.340403" y="0.857143" width="64.9286" height="67.4286" filterUnits="userSpaceOnUse" color-interpolation-filters="sRGB">
<feFlood flood-opacity="0" result="BackgroundImageFix"/>
<feColorMatrix in="SourceAlpha" type="matrix" values="0 0 0 0 0 0 0 0 0 0 0 0 0 0 0 0 0 0 127 0" result="hardAlpha"/>
<feOffset dy="4.57143"/>
<feGaussianBlur stdDeviation="6.85714"/>
<feComposite in2="hardAlpha" operator="out"/>
<feColorMatrix type="matrix" values="0 0 0 0 1 0 0 0 0 0.248397 0 0 0 0 0.248397 0 0 0 0.25 0"/>
<feBlend mode="normal" in2="BackgroundImageFix" result="effect1_dropShadow_5142_28929"/>
<feBlend mode="normal" in="SourceGraphic" in2="effect1_dropShadow_5142_28929" result="shape"/>
<feColorMatrix in="SourceAlpha" type="matrix" values="0 0 0 0 0 0 0 0 0 0 0 0 0 0 0 0 0 0 127 0" result="hardAlpha"/>
<feOffset dy="2.28571"/>
<feGaussianBlur stdDeviation="2.28571"/>
<feComposite in2="hardAlpha" operator="arithmetic" k2="-1" k3="1"/>
<feColorMatrix type="matrix" values="0 0 0 0 0 0 0 0 0 0 0 0 0 0 0 0 0 0 0.35 0"/>
<feBlend mode="normal" in2="shape" result="effect2_innerShadow_5142_28929"/>
</filter>
<radialGradient id="paint0_radial_5142_28929" cx="0" cy="0" r="1" gradientUnits="userSpaceOnUse" gradientTransform="translate(36.9104 0.830381) rotate(95.8537) scale(46.6943 89.0422)">
<stop stop-color="#EF8A8A"/>
<stop offset="1" stop-color="#FB2222"/>
</radialGradient>
<linearGradient id="paint1_linear_5142_28929" x1="32.8047" y1="10" x2="32.8047" y2="50" gradientUnits="userSpaceOnUse">
<stop stop-color="white"/>
<stop offset="1"/>
</linearGradient>
</defs>
</svg>
