<svg width="68" height="66" viewBox="0 0 68 66" fill="none" xmlns="http://www.w3.org/2000/svg">
<g>
<g>
<mask id="path-1-inside-1_6039_78562" fill="white">
<path d="M31.6621 31.4336V47.1474H22.376C20.8607 47.1474 19.4075 46.5459 18.3359 45.4746C17.2643 44.4029 16.6621 42.9491 16.6621 41.4336V31.4336H31.6621ZM50.9473 41.4336C50.9473 42.9491 50.3451 44.4029 49.2734 45.4746C48.2019 46.5459 46.7487 47.1474 45.2334 47.1474H35.9473V31.4336H50.9473V41.4336ZM38.6064 10.0029C40.4077 9.95165 42.1623 10.5839 43.5176 11.7714C44.8727 12.959 45.7293 14.6149 45.915 16.4072C46.1007 18.1995 45.6015 19.9963 44.5186 21.4365H50.9473C51.7049 21.4365 52.432 21.7368 52.9678 22.2724C53.5035 22.8082 53.8046 23.5353 53.8047 24.2929C53.8047 25.0507 53.5036 25.7776 52.9678 26.3134C52.432 26.8492 51.705 27.1503 50.9473 27.1503H35.9473V21.4365H31.6621V27.1503H16.6621C15.9044 27.1503 15.1774 26.8492 14.6416 26.3134C14.1058 25.7776 13.8047 25.0507 13.8047 24.2929C13.8048 23.5353 14.1058 22.8082 14.6416 22.2724C15.1774 21.7368 15.9045 21.4365 16.6621 21.4365H23.0908C22.1937 20.2422 21.6621 18.7589 21.6621 17.1503C21.6617 15.7437 22.0762 14.368 22.8545 13.1962C23.6329 12.0245 24.7403 11.1085 26.0371 10.5634C27.334 10.0184 28.7637 9.86876 30.1455 10.1328C31.5272 10.3968 32.8001 11.0631 33.8047 12.0478C35.0902 10.7852 36.8053 10.0542 38.6064 10.0029ZM29.8213 14.4804C29.2976 14.2809 28.7266 14.2398 28.1797 14.3623C27.6328 14.4847 27.1338 14.7651 26.7451 15.1689C26.3564 15.5727 26.0955 16.0825 25.9941 16.6337C25.8928 17.1849 25.9553 17.7539 26.1748 18.2695C26.3943 18.7852 26.761 19.2251 27.2285 19.5341C27.6961 19.8431 28.2443 20.0079 28.8047 20.0078H31.6621L31.6592 17.1503V17.042C31.6379 16.4819 31.4517 15.9397 31.125 15.4843C30.7983 15.0291 30.3449 14.68 29.8213 14.4804ZM38.8018 14.2929C38.0627 14.2924 37.3521 14.5785 36.8193 15.0908C36.2865 15.6033 35.9724 16.3032 35.9443 17.042L35.9473 17.1503V20.0078H38.8018C39.5595 20.0078 40.2865 19.7066 40.8223 19.1709C41.3581 18.635 41.6592 17.9081 41.6592 17.1503C41.6592 16.3926 41.3581 15.6657 40.8223 15.1298C40.2864 14.594 39.5595 14.2929 38.8018 14.2929Z"/>
</mask>
<path d="M31.6621 31.4336V47.1474H22.376C20.8607 47.1474 19.4075 46.5459 18.3359 45.4746C17.2643 44.4029 16.6621 42.9491 16.6621 41.4336V31.4336H31.6621ZM50.9473 41.4336C50.9473 42.9491 50.3451 44.4029 49.2734 45.4746C48.2019 46.5459 46.7487 47.1474 45.2334 47.1474H35.9473V31.4336H50.9473V41.4336ZM38.6064 10.0029C40.4077 9.95165 42.1623 10.5839 43.5176 11.7714C44.8727 12.959 45.7293 14.6149 45.915 16.4072C46.1007 18.1995 45.6015 19.9963 44.5186 21.4365H50.9473C51.7049 21.4365 52.432 21.7368 52.9678 22.2724C53.5035 22.8082 53.8046 23.5353 53.8047 24.2929C53.8047 25.0507 53.5036 25.7776 52.9678 26.3134C52.432 26.8492 51.705 27.1503 50.9473 27.1503H35.9473V21.4365H31.6621V27.1503H16.6621C15.9044 27.1503 15.1774 26.8492 14.6416 26.3134C14.1058 25.7776 13.8047 25.0507 13.8047 24.2929C13.8048 23.5353 14.1058 22.8082 14.6416 22.2724C15.1774 21.7368 15.9045 21.4365 16.6621 21.4365H23.0908C22.1937 20.2422 21.6621 18.7589 21.6621 17.1503C21.6617 15.7437 22.0762 14.368 22.8545 13.1962C23.6329 12.0245 24.7403 11.1085 26.0371 10.5634C27.334 10.0184 28.7637 9.86876 30.1455 10.1328C31.5272 10.3968 32.8001 11.0631 33.8047 12.0478C35.0902 10.7852 36.8053 10.0542 38.6064 10.0029ZM29.8213 14.4804C29.2976 14.2809 28.7266 14.2398 28.1797 14.3623C27.6328 14.4847 27.1338 14.7651 26.7451 15.1689C26.3564 15.5727 26.0955 16.0825 25.9941 16.6337C25.8928 17.1849 25.9553 17.7539 26.1748 18.2695C26.3943 18.7852 26.761 19.2251 27.2285 19.5341C27.6961 19.8431 28.2443 20.0079 28.8047 20.0078H31.6621L31.6592 17.1503V17.042C31.6379 16.4819 31.4517 15.9397 31.125 15.4843C30.7983 15.0291 30.3449 14.68 29.8213 14.4804ZM38.8018 14.2929C38.0627 14.2924 37.3521 14.5785 36.8193 15.0908C36.2865 15.6033 35.9724 16.3032 35.9443 17.042L35.9473 17.1503V20.0078H38.8018C39.5595 20.0078 40.2865 19.7066 40.8223 19.1709C41.3581 18.635 41.6592 17.9081 41.6592 17.1503C41.6592 16.3926 41.3581 15.6657 40.8223 15.1298C40.2864 14.594 39.5595 14.2929 38.8018 14.2929Z" fill="url(#paint0_radial_6039_78562)"/>
<path d="M31.6621 31.4336H32.805V30.2907H31.6621V31.4336ZM31.6621 47.1474V48.2903H32.805V47.1474H31.6621ZM22.376 47.1474L22.3759 48.2903H22.376V47.1474ZM18.3359 45.4746L17.5278 46.2827L17.5279 46.2828L18.3359 45.4746ZM16.6621 41.4336H15.5193V41.4336L16.6621 41.4336ZM16.6621 31.4336V30.2907H15.5193V31.4336H16.6621ZM50.9473 41.4336L52.0901 41.4336V41.4336H50.9473ZM49.2734 45.4746L50.0815 46.2828L50.0816 46.2827L49.2734 45.4746ZM45.2334 47.1474V48.2903H45.2334L45.2334 47.1474ZM35.9473 47.1474H34.8044V48.2903H35.9473V47.1474ZM35.9473 31.4336V30.2907H34.8044V31.4336H35.9473ZM50.9473 31.4336H52.0901V30.2907H50.9473V31.4336ZM38.6064 10.0029L38.5739 8.86049L38.5739 8.86049L38.6064 10.0029ZM43.5176 11.7714L44.2708 10.9119L44.2708 10.9119L43.5176 11.7714ZM45.915 16.4072L47.0518 16.2894L47.0518 16.2894L45.915 16.4072ZM44.5186 21.4365L43.6051 20.7497L42.2293 22.5793H44.5186V21.4365ZM52.9678 22.2724L53.7759 21.4643L53.7758 21.4642L52.9678 22.2724ZM53.8047 24.2929H54.9475V24.2928L53.8047 24.2929ZM52.9678 26.3134L53.7759 27.1216L53.7759 27.1216L52.9678 26.3134ZM35.9473 27.1503H34.8044V28.2932H35.9473V27.1503ZM35.9473 21.4365H37.0901V20.2936H35.9473V21.4365ZM31.6621 21.4365V20.2936H30.5193V21.4365H31.6621ZM31.6621 27.1503V28.2932H32.805V27.1503H31.6621ZM14.6416 26.3134L13.8335 27.1216L13.8335 27.1216L14.6416 26.3134ZM13.8047 24.2929L12.6618 24.2928V24.2929H13.8047ZM14.6416 22.2724L13.8336 21.4642L13.8335 21.4643L14.6416 22.2724ZM23.0908 21.4365V22.5793H25.3787L24.0046 20.7501L23.0908 21.4365ZM21.6621 17.1503L22.805 17.1503L22.805 17.1501L21.6621 17.1503ZM22.8545 13.1962L21.9025 12.5639L21.9025 12.5639L22.8545 13.1962ZM26.0371 10.5634L25.5943 9.50983L25.5943 9.50985L26.0371 10.5634ZM30.1455 10.1328L30.36 9.01023L30.36 9.01022L30.1455 10.1328ZM33.8047 12.0478L33.0047 12.864L33.8055 13.6489L34.6055 12.8632L33.8047 12.0478ZM29.8213 14.4804L30.2283 13.4125L30.2282 13.4125L29.8213 14.4804ZM28.1797 14.3623L27.93 13.247L27.93 13.247L28.1797 14.3623ZM26.7451 15.1689L25.9217 14.3764L25.9217 14.3764L26.7451 15.1689ZM25.9941 16.6337L24.8701 16.427L24.8701 16.4271L25.9941 16.6337ZM26.1748 18.2695L25.1232 18.7171L25.1233 18.7171L26.1748 18.2695ZM27.2285 19.5341L26.5983 20.4875L26.5984 20.4876L27.2285 19.5341ZM28.8047 20.0078V18.8649H28.8044L28.8047 20.0078ZM31.6621 20.0078V21.1506H32.8061L32.805 20.0066L31.6621 20.0078ZM31.6592 17.1503H30.5163L30.5163 17.1515L31.6592 17.1503ZM31.6592 17.042H32.802V17.0202L32.8012 16.9985L31.6592 17.042ZM31.125 15.4843L32.0536 14.8181L32.0535 14.8179L31.125 15.4843ZM38.8018 14.2929L38.801 15.4358H38.8018V14.2929ZM36.8193 15.0908L36.0272 14.267L36.027 14.2672L36.8193 15.0908ZM35.9443 17.042L34.8023 16.9985L34.8009 17.0357L34.8019 17.0728L35.9443 17.042ZM35.9473 17.1503H37.0901V17.1349L37.0897 17.1195L35.9473 17.1503ZM35.9473 20.0078H34.8044V21.1506H35.9473V20.0078ZM40.8223 19.1709L41.6304 19.979L41.6304 19.979L40.8223 19.1709ZM41.6592 17.1503L42.802 17.1504V17.1503H41.6592ZM40.8223 15.1298L41.6304 14.3217L41.6304 14.3217L40.8223 15.1298ZM31.6621 31.4336H30.5193V47.1474H31.6621H32.805V31.4336H31.6621ZM31.6621 47.1474V46.0046H22.376V47.1474V48.2903H31.6621V47.1474ZM22.376 47.1474L22.376 46.0046C21.1636 46.0045 20.0011 45.5233 19.144 44.6664L18.3359 45.4746L17.5279 46.2828C18.8139 47.5685 20.5578 48.2902 22.3759 48.2903L22.376 47.1474ZM18.3359 45.4746L19.1441 44.6664C18.2868 43.8092 17.805 42.646 17.805 41.4335L16.6621 41.4336L15.5193 41.4336C15.5193 43.2522 16.2419 44.9967 17.5278 46.2827L18.3359 45.4746ZM16.6621 41.4336H17.805V31.4336H16.6621H15.5193V41.4336H16.6621ZM16.6621 31.4336V32.5764H31.6621V31.4336V30.2907H16.6621V31.4336ZM50.9473 41.4336L49.8044 41.4335C49.8044 42.646 49.3226 43.8092 48.4653 44.6664L49.2734 45.4746L50.0816 46.2827C51.3675 44.9967 52.0901 43.2522 52.0901 41.4336L50.9473 41.4336ZM49.2734 45.4746L48.4654 44.6664C47.6083 45.5233 46.4458 46.0045 45.2334 46.0046L45.2334 47.1474L45.2334 48.2903C47.0515 48.2902 48.7955 47.5685 50.0815 46.2828L49.2734 45.4746ZM45.2334 47.1474V46.0046H35.9473V47.1474V48.2903H45.2334V47.1474ZM35.9473 47.1474H37.0901V31.4336H35.9473H34.8044V47.1474H35.9473ZM35.9473 31.4336V32.5764H50.9473V31.4336V30.2907H35.9473V31.4336ZM50.9473 31.4336H49.8044V41.4336H50.9473H52.0901V31.4336H50.9473ZM38.6064 10.0029L38.6389 11.1453C40.1517 11.1022 41.6258 11.6333 42.7644 12.631L43.5176 11.7714L44.2708 10.9119C42.6988 9.53446 40.6636 8.80105 38.5739 8.86049L38.6064 10.0029ZM43.5176 11.7714L42.7643 12.631C43.9028 13.6286 44.6223 15.0196 44.7783 16.525L45.915 16.4072L47.0518 16.2894C46.8363 14.2102 45.8427 12.2894 44.2708 10.9119L43.5176 11.7714ZM45.915 16.4072L44.7783 16.525C44.9342 18.0303 44.5149 19.5397 43.6051 20.7497L44.5186 21.4365L45.432 22.1233C46.688 20.4529 47.2673 18.3687 47.0518 16.2894L45.915 16.4072ZM44.5186 21.4365V22.5793H50.9473V21.4365V20.2936H44.5186V21.4365ZM50.9473 21.4365V22.5793C51.4027 22.5793 51.8389 22.7599 52.1598 23.0806L52.9678 22.2724L53.7758 21.4642C53.0251 20.7137 52.0071 20.2936 50.9473 20.2936V21.4365ZM52.9678 22.2724L52.1597 23.0805C52.481 23.4019 52.6618 23.8383 52.6618 24.293L53.8047 24.2929L54.9475 24.2928C54.9475 23.2322 54.526 22.2144 53.7759 21.4643L52.9678 22.2724ZM53.8047 24.2929H52.6618C52.6618 24.7476 52.4811 25.1838 52.1597 25.5053L52.9678 26.3134L53.7759 27.1216C54.526 26.3714 54.9475 25.3538 54.9475 24.2929H53.8047ZM52.9678 26.3134L52.1597 25.5053C51.8382 25.8268 51.4019 26.0075 50.9473 26.0075V27.1503V28.2932C52.0081 28.2932 53.0257 27.8717 53.7759 27.1216L52.9678 26.3134ZM50.9473 27.1503V26.0075H35.9473V27.1503V28.2932H50.9473V27.1503ZM35.9473 27.1503H37.0901V21.4365H35.9473H34.8044V27.1503H35.9473ZM35.9473 21.4365V20.2936H31.6621V21.4365V22.5793H35.9473V21.4365ZM31.6621 21.4365H30.5193V27.1503H31.6621H32.805V21.4365H31.6621ZM31.6621 27.1503V26.0075H16.6621V27.1503V28.2932H31.6621V27.1503ZM16.6621 27.1503V26.0075C16.2075 26.0075 15.7712 25.8268 15.4497 25.5053L14.6416 26.3134L13.8335 27.1216C14.5836 27.8717 15.6013 28.2932 16.6621 28.2932V27.1503ZM14.6416 26.3134L15.4497 25.5053C15.1282 25.1838 14.9475 24.7476 14.9475 24.2929H13.8047H12.6618C12.6618 25.3538 13.0833 26.3714 13.8335 27.1216L14.6416 26.3134ZM13.8047 24.2929L14.9475 24.293C14.9476 23.8383 15.1283 23.4019 15.4497 23.0805L14.6416 22.2724L13.8335 21.4643C13.0833 22.2144 12.6619 23.2322 12.6618 24.2928L13.8047 24.2929ZM14.6416 22.2724L15.4496 23.0806C15.7705 22.7599 16.2067 22.5793 16.6621 22.5793V21.4365V20.2936C15.6023 20.2936 14.5843 20.7137 13.8336 21.4642L14.6416 22.2724ZM16.6621 21.4365V22.5793H23.0908V21.4365V20.2936H16.6621V21.4365ZM23.0908 21.4365L24.0046 20.7501C23.2509 19.7468 22.805 18.5027 22.805 17.1503L21.6621 17.1503L20.5193 17.1504C20.5193 19.0151 21.1365 20.7377 22.1771 22.1229L23.0908 21.4365ZM21.6621 17.1503L22.805 17.1501C22.8047 15.9681 23.1529 14.8126 23.8065 13.8286L22.8545 13.1962L21.9025 12.5639C20.9995 13.9234 20.5188 15.5192 20.5193 17.1506L21.6621 17.1503ZM22.8545 13.1962L23.8064 13.8286C24.4603 12.8444 25.3905 12.0749 26.4799 11.617L26.0371 10.5634L25.5943 9.50985C24.09 10.1421 22.8055 11.2046 21.9025 12.5639L22.8545 13.1962ZM26.0371 10.5634L26.4799 11.617C27.5691 11.1593 28.7701 11.0335 29.931 11.2553L30.1455 10.1328L30.36 9.01022C28.7573 8.70401 27.099 8.87754 25.5943 9.50983L26.0371 10.5634ZM30.1455 10.1328L29.931 11.2553C31.0915 11.4771 32.1608 12.0368 33.0047 12.864L33.8047 12.0478L34.6047 11.2316C33.4395 10.0895 31.9628 9.31655 30.36 9.01023L30.1455 10.1328ZM33.8047 12.0478L34.6055 12.8632C35.6856 11.8023 37.1264 11.1884 38.639 11.1453L38.6064 10.0029L38.5739 8.86049C36.4842 8.92004 34.4948 9.76808 33.0038 11.2325L33.8047 12.0478ZM29.8213 14.4804L30.2282 13.4125C29.4949 13.133 28.6956 13.0757 27.93 13.247L28.1797 14.3623L28.4293 15.4775C28.7577 15.404 29.1003 15.4287 29.4143 15.5484L29.8213 14.4804ZM28.1797 14.3623L27.93 13.247C27.1647 13.4184 26.4661 13.8108 25.9217 14.3764L26.7451 15.1689L27.5686 15.9614C27.8015 15.7194 28.1008 15.5511 28.4294 15.4775L28.1797 14.3623ZM26.7451 15.1689L25.9217 14.3764C25.3769 14.9424 25.012 15.6561 24.8701 16.427L25.9941 16.6337L27.1181 16.8405C27.1791 16.5089 27.3359 16.2031 27.5686 15.9614L26.7451 15.1689ZM25.9941 16.6337L24.8701 16.4271C24.7284 17.198 24.8157 17.9945 25.1232 18.7171L26.1748 18.2695L27.2264 17.8219C27.095 17.5132 27.0572 17.1718 27.1182 16.8404L25.9941 16.6337ZM26.1748 18.2695L25.1233 18.7171C25.4306 19.4392 25.9439 20.055 26.5983 20.4875L27.2285 19.5341L27.8587 18.5807C27.578 18.3952 27.358 18.1311 27.2264 17.8219L26.1748 18.2695ZM27.2285 19.5341L26.5984 20.4876C27.2528 20.9201 28.0203 21.1508 28.805 21.1506L28.8047 20.0078L28.8044 18.8649C28.4683 18.865 28.1393 18.7661 27.8586 18.5807L27.2285 19.5341ZM28.8047 20.0078V21.1506H31.6621V20.0078V18.8649H28.8047V20.0078ZM31.6621 20.0078L32.805 20.0066L32.802 17.1492L31.6592 17.1503L30.5163 17.1515L30.5193 20.0089L31.6621 20.0078ZM31.6592 17.1503H32.802V17.042H31.6592H30.5163V17.1503H31.6592ZM31.6592 17.042L32.8012 16.9985C32.7714 16.2139 32.5107 15.4553 32.0536 14.8181L31.125 15.4843L30.1964 16.1505C30.3927 16.4242 30.5044 16.7498 30.5171 17.0854L31.6592 17.042ZM31.125 15.4843L32.0535 14.8179C31.5961 14.1807 30.9613 13.6919 30.2283 13.4125L29.8213 14.4804L29.4143 15.5484C29.7284 15.6681 30.0005 15.8776 30.1965 16.1507L31.125 15.4843ZM38.8018 14.2929L38.8026 13.1501C37.7677 13.1493 36.7729 13.5499 36.0272 14.267L36.8193 15.0908L37.6115 15.9146C37.9312 15.6071 38.3577 15.4355 38.801 15.4358L38.8018 14.2929ZM36.8193 15.0908L36.027 14.2672C35.2814 14.9844 34.8417 15.9638 34.8023 16.9985L35.9443 17.042L37.0864 17.0854C37.1032 16.6425 37.2917 16.2222 37.6117 15.9144L36.8193 15.0908ZM35.9443 17.042L34.8019 17.0728L34.8048 17.1812L35.9473 17.1503L37.0897 17.1195L37.0868 17.0111L35.9443 17.042ZM35.9473 17.1503H34.8044V20.0078H35.9473H37.0901V17.1503H35.9473ZM35.9473 20.0078V21.1506H38.8018V20.0078V18.8649H35.9473V20.0078ZM38.8018 20.0078V21.1506C39.8626 21.1506 40.8802 20.7291 41.6304 19.979L40.8223 19.1709L40.0142 18.3627C39.6927 18.6842 39.2564 18.8649 38.8018 18.8649V20.0078ZM40.8223 19.1709L41.6304 19.979C42.3805 19.2288 42.802 18.2112 42.802 17.1504L41.6592 17.1503L40.5163 17.1503C40.5163 17.605 40.3356 18.0413 40.0141 18.3627L40.8223 19.1709ZM41.6592 17.1503H42.802C42.802 16.0895 42.3805 15.0719 41.6304 14.3217L40.8223 15.1298L40.0141 15.938C40.3356 16.2594 40.5163 16.6957 40.5163 17.1503H41.6592ZM40.8223 15.1298L41.6304 14.3217C40.8802 13.5716 39.8626 13.1501 38.8018 13.1501V14.2929V15.4358C39.2564 15.4358 39.6927 15.6165 40.0142 15.938L40.8223 15.1298Z" fill="url(#paint1_linear_6039_78562)" fill-opacity="0.25" mask="url(#path-1-inside-1_6039_78562)"/>
</g>
</g>
<defs>
<radialGradient id="paint0_radial_6039_78562" cx="0" cy="0" r="1" gradientUnits="userSpaceOnUse" gradientTransform="translate(38.1841 1.48431) rotate(96.7159) scale(43.4362 94.8211)">
<stop stop-color="#EF8AB1"/>
<stop offset="1" stop-color="#A849F1"/>
</radialGradient>
<linearGradient id="paint1_linear_6039_78562" x1="33.8047" y1="10" x2="33.8047" y2="47.1474" gradientUnits="userSpaceOnUse">
<stop stop-color="white"/>
<stop offset="1"/>
</linearGradient>
</defs>
</svg>
