<svg width="20" height="20" viewBox="0 0 20 20" fill="none" xmlns="http://www.w3.org/2000/svg">
<path d="M13.2936 11.8893C11.8246 9.95233 9.55322 5.50451 12.433 2.5C7.98475 2.99885 5.38086 6.93832 5.38086 10.42M12.0517 12.3479C12.4911 12.1441 12.944 11.971 13.4073 11.83C13.7612 11.4993 13.9673 11.146 14.3634 10.8673C14.3634 10.8673 16.2554 9.59731 17.7401 12.1688C18.6957 13.879 18.1004 16.0396 16.4037 17.0192C14.7072 17.9988 12.5383 17.434 11.535 15.7512C10.7531 14.3969 10.8113 13.0641 12.0517 12.3479ZM3.95186 10.2362C4.43425 10.2793 4.91307 10.3559 5.38484 10.4654C5.85665 10.356 6.21175 10.1531 6.69413 10.1098C6.69413 10.1098 8.96768 9.95592 8.96768 12.9252C8.94009 14.8841 7.3443 16.4577 5.3852 16.4577C3.4261 16.4577 1.83027 14.8841 1.80273 12.9252C1.80273 11.3613 2.51958 10.2362 3.95186 10.2362Z" stroke="#9E90CF" stroke-width="1.5" stroke-linecap="round" stroke-linejoin="round"/>
</svg>
