<svg width="20" height="20" viewBox="0 0 20 20" fill="none" xmlns="http://www.w3.org/2000/svg">
<path d="M16.4205 10.0177V15.8028C16.4205 17.0153 15.438 17.9987 14.2255 17.9987H5.77583C4.5633 17.9987 3.57995 17.0153 3.57995 15.8028V10.0177M10.0008 17.9999V10.0865M10.001 5.99998H6.40138C5.29609 5.99998 4.40096 5.10485 4.40096 3.99956C4.40096 2.89599 5.29609 2 6.40138 2C9.20096 2 10.001 5.99998 10.001 5.99998ZM10.0029 5.99998H13.6021C14.7073 5.99998 15.6024 5.10485 15.6024 3.99956C15.6024 2.89599 14.7073 2 13.6021 2C10.8025 2 10.0029 5.99998 10.0029 5.99998ZM3.78195 6.02396H16.1235C17.0454 6.02396 17.7927 6.77121 17.7927 7.69314V8.41877C17.7927 9.28882 17.0869 9.9937 16.2178 9.9937H3.87621C2.95428 9.9937 2.20703 9.24642 2.20703 8.32535V7.59801C2.20703 6.72882 2.91189 6.02396 3.78195 6.02396Z" stroke="#9E90CF" stroke-width="1.5" stroke-linecap="round" stroke-linejoin="round"/>
</svg>
