<svg width="21" height="20" viewBox="0 0 21 20" fill="none" xmlns="http://www.w3.org/2000/svg">
<g clip-path="url(#clip0_11755_90728)">
<path d="M1.91244 14.3063L1.33448 5.32852C1.30237 4.82548 1.9066 4.54818 2.26661 4.89943L4.88688 7.45451C4.88688 7.45451 7.88175 4.47325 9.44045 2.91452C9.94155 2.41245 10.7521 2.4144 11.2503 2.91744C12.7944 4.4752 15.7796 7.45937 15.7796 7.45937C15.7796 7.45937 17.3237 5.94442 18.4018 4.88775C18.7618 4.53455 19.3651 4.81575 19.332 5.31879L18.754 14.3054C18.6402 16.0781 17.1681 17.4579 15.3923 17.4579H5.2751C3.49842 17.4579 2.02725 16.0781 1.91244 14.3063Z" stroke="#9E90CF" stroke-width="1.5" stroke-linecap="round" stroke-linejoin="round"/>
<path d="M10.3333 12.6139V12.6606M10.5225 12.624C10.5225 12.7291 10.4372 12.8143 10.3321 12.8143C10.227 12.8143 10.1418 12.7291 10.1418 12.624C10.1418 12.5188 10.227 12.4336 10.3321 12.4336C10.4372 12.4336 10.5225 12.5188 10.5225 12.624Z" stroke="#9E90CF" stroke-width="1.5" stroke-linecap="round" stroke-linejoin="round"/>
</g>
<defs>
<clipPath id="clip0_11755_90728">
<rect width="20" height="20" fill="white" transform="translate(0.333252)"/>
</clipPath>
</defs>
</svg>
