<svg width="20" height="20" viewBox="0 0 20 20" fill="none" xmlns="http://www.w3.org/2000/svg">
<path d="M17.583 2.07812H14.4046C14.1743 2.07812 13.9876 2.2648 13.9876 2.49508V5.6389C13.9876 5.86919 13.8009 6.05586 13.5707 6.05586H10.3922C10.1619 6.05586 9.9752 6.24254 9.9752 6.47282V9.74923C9.9752 9.97953 9.7886 10.1662 9.5583 10.1662H6.37981C6.14953 10.1662 5.96285 10.3528 5.96285 10.5831V13.6606C5.96285 13.8909 5.77617 14.0776 5.54588 14.0776H2.41696C2.18668 14.0776 2 14.2643 2 14.4946V17.5058C2 17.7361 2.18668 17.9228 2.41696 17.9228H17.583C17.8133 17.9228 18 17.7361 18 17.5058V2.49508C18 2.2648 17.8133 2.07812 17.583 2.07812Z" stroke="#9E90CF" stroke-width="1.5" stroke-linecap="round" stroke-linejoin="round"/>
</svg>
