<svg width="21" height="20" viewBox="0 0 21 20" fill="none" xmlns="http://www.w3.org/2000/svg">
<path d="M10.5449 11.5728C13.2985 11.5728 15.5307 9.42982 15.5307 6.78638C15.5307 4.14293 13.2985 2 10.5449 2C7.79131 2 5.55908 4.14293 5.55908 6.78638C5.55908 9.42982 7.79131 11.5728 10.5449 11.5728Z" stroke="#9E90CF" stroke-width="1.5" stroke-linecap="round" stroke-linejoin="round"/>
<path d="M12.8775 11.8623H8.33438C5.75766 11.8623 3.66881 13.8676 3.66881 16.3413C3.66881 16.4301 3.66792 16.5194 3.66667 16.6087C3.65283 17.6006 4.49225 18.3209 5.52556 18.3209H15.6863C16.7197 18.3209 17.5591 17.6006 17.5452 16.6087C17.544 16.5194 17.5431 16.4301 17.5431 16.3413C17.5431 13.8676 15.4542 11.8623 12.8775 11.8623Z" stroke="#9E90CF" stroke-width="1.5" stroke-linecap="round" stroke-linejoin="round"/>
<path d="M14.5327 15.9424V18.2583" stroke="#9E90CF" stroke-width="1.5" stroke-linecap="round" stroke-linejoin="round"/>
<path d="M6.68018 15.9424V18.2583" stroke="#9E90CF" stroke-width="1.5" stroke-linecap="round" stroke-linejoin="round"/>
</svg>
