<svg width="21" height="20" viewBox="0 0 21 20" fill="none" xmlns="http://www.w3.org/2000/svg">
<path d="M18.4642 2.15627C18.3456 2.04551 18.187 1.98936 18.0313 2.00167L16.4518 2.10858C15.1961 2.19165 14.1191 2.91774 13.4869 3.95225C12.8546 2.91774 11.7783 2.19242 10.5227 2.10858L8.94317 2.00167C8.78381 1.98936 8.6289 2.04628 8.51031 2.15627C8.39171 2.26626 8.32056 2.42087 8.3124 2.58469C8.21159 4.72602 9.8067 6.58045 11.8688 6.71887L13.449 6.82425C13.4616 6.82502 13.4742 6.82579 13.4868 6.82579C13.4994 6.82579 13.512 6.82502 13.5246 6.82425L15.1057 6.71887C17.1662 6.58043 18.7622 4.72602 18.662 2.58548C18.6546 2.42011 18.5835 2.26549 18.4642 2.15627ZM11.9444 5.49201C10.7325 5.41048 9.7541 4.4675 9.5376 3.27527L10.4456 3.33603C11.6575 3.4168 12.6359 4.36054 12.8524 5.55198L11.9444 5.49201ZM15.0287 5.49201L14.1199 5.552C14.3371 4.36058 15.3148 3.41678 16.5275 3.33605L17.4355 3.27529C17.2184 4.46748 16.2407 5.41049 15.0287 5.49201ZM14.5625 14.7348C14.5113 14.6318 14.4416 14.5456 14.3831 14.4487C15.0368 13.2927 15.383 11.9935 15.3526 10.653L15.3207 8.75013C15.3155 8.41016 15.0383 8.16635 14.7174 8.14558C14.3897 8.15096 14.1288 8.4317 14.1348 8.77167L14.1666 10.6784C14.1881 11.6445 13.9791 12.5859 13.57 13.4459C12.3596 12.3883 10.6058 12.1052 9.11152 12.8713C8.96846 12.9452 8.86025 13.0744 8.81133 13.2313C8.76093 13.3874 8.77427 13.5582 8.84691 13.7051L9.63632 15.2964C9.84387 15.7149 10.1159 16.0764 10.4265 16.3879C9.79274 16.6348 9.11896 16.7694 8.43482 16.7694H7.7944C5.06973 16.7694 2.85265 14.4688 2.85265 11.6414V10.8207C2.85265 10.2554 3.2959 9.79545 3.8407 9.79545H8.46594C9.43251 9.79545 10.3665 9.49395 11.1661 8.92476C11.4359 8.73248 11.5041 8.34943 11.3188 8.06869C11.1335 7.78871 10.7659 7.71796 10.4938 7.91024C9.8927 8.33789 9.1915 8.56479 8.46575 8.56479H3.84051C2.64121 8.56479 1.6665 9.57699 1.6665 10.8207V11.6414C1.6665 15.1473 4.41489 18 7.79421 18H8.43463C9.53015 18 10.605 17.7162 11.573 17.2016C12.1096 17.4554 12.6944 17.5954 13.2896 17.5954C13.896 17.5954 14.5104 17.4554 15.0864 17.1593C15.2294 17.0863 15.3377 16.957 15.3866 16.8001C15.437 16.644 15.4236 16.4725 15.351 16.3256L14.5616 14.7357L14.5625 14.7348ZM10.6911 14.7325L10.2071 13.7557C11.4887 13.4227 12.8822 14.0334 13.5078 15.2979L13.9919 16.2732C12.7081 16.6131 11.3175 15.9955 10.6911 14.7325ZM7.19471 12.462C7.19471 12.9151 6.8404 13.2827 6.40382 13.2827C5.96723 13.2827 5.61292 12.9151 5.61292 12.462C5.61292 12.009 5.96723 11.6414 6.40382 11.6414C6.8404 11.6414 7.19471 12.009 7.19471 12.462Z" fill="#9E90CF"/>
</svg>
