<svg width="62" height="64" viewBox="0 0 62 64" fill="none" xmlns="http://www.w3.org/2000/svg">
<g id="icon/BigFlat/bonus">
<g id="Union" filter="url(#filter0_di_1085_209069)">
<path fill-rule="evenodd" clip-rule="evenodd" d="M42.1321 18.9091C43.0418 17.9005 43.7255 16.5819 43.7255 14.8803C43.783 13.1184 43.1404 11.4053 41.9382 10.1159C40.736 8.82656 39.0721 8.06577 37.3104 8C34.4181 8 32.0567 10.3435 30.9771 14.3347C30.9471 14.2537 30.9168 14.1728 30.8864 14.092C29.7162 11.5636 28.1129 8.10119 24.718 8.00178C23.104 8.03294 21.5657 8.69219 20.43 9.83945C19.7505 10.4923 19.2092 11.2752 18.8383 12.1415C18.4674 13.0077 18.2745 13.9397 18.271 14.8821C18.2838 15.8964 18.5712 17.4299 19.8837 18.9091H17.3619C16.1563 18.9091 15.0002 19.388 14.1477 20.2404C13.2953 21.0929 12.8164 22.249 12.8164 23.4545V43.4545C12.8164 44.6601 13.2953 45.8162 14.1477 46.6687C15.0002 47.5211 16.1563 48 17.3619 48H44.6346C45.2315 48 45.8226 47.8825 46.3741 47.6541C46.9256 47.4256 47.4267 47.0908 47.8488 46.6687C48.2709 46.2466 48.6057 45.7455 48.8341 45.194C49.0625 44.6426 49.1801 44.0515 49.18 43.4545V23.4545C49.1801 22.8576 49.0625 22.2665 48.8341 21.715C48.6057 21.1636 48.2709 20.6625 47.8488 20.2404C47.4267 19.8183 46.9256 19.4835 46.3741 19.255C45.8226 19.0266 45.2315 18.9091 44.6346 18.9091H42.1321ZM37.3104 11.6364C35.5242 11.6364 34.6027 14.8519 34.5032 15.2177C34.1996 16.4251 33.8676 17.6342 33.5107 18.8345C34.5566 18.7969 35.5917 18.6092 36.5842 18.277C38.3313 17.5153 40.0892 16.5263 40.0892 14.8803C40.145 14.083 39.8847 13.2957 39.3648 12.6887C38.8448 12.0817 38.1068 11.7037 37.3104 11.6364ZM22.9798 12.4318C23.3941 11.977 23.9634 11.6933 24.576 11.6363L24.6115 11.6381C25.7584 11.67 26.7722 13.8589 27.5871 15.6184L27.5891 15.6225C28.0038 16.6691 28.3484 17.7421 28.6207 18.8345C27.4987 18.774 26.3901 18.5613 25.3253 18.2024C23.7788 17.5987 21.9286 16.5245 21.9073 14.8359C21.919 14.3843 22.0198 13.9395 22.2038 13.5269C22.3879 13.1144 22.6515 12.7422 22.9798 12.4318ZM37.99 34.7818C38.4336 34.3378 38.7732 33.8008 38.9842 33.2097C39.1952 32.6185 39.2724 31.9879 39.2102 31.3633C39.148 30.7387 38.9479 30.1357 38.6245 29.5977C38.301 29.0598 37.8622 28.6004 37.3397 28.2526C36.4954 27.7152 35.4913 27.4861 34.4975 27.604C33.5036 27.7219 32.5811 28.1797 31.886 28.8998L30.9982 29.7877L30.1104 28.8998C29.4154 28.1798 28.4928 27.722 27.499 27.604C26.5052 27.4861 25.5011 27.7151 24.6568 28.2524C24.1343 28.6002 23.6955 29.0597 23.372 29.5976C23.0485 30.1356 22.8485 30.7386 22.7863 31.3632C22.7241 31.9878 22.8012 32.6184 23.0123 33.2096C23.2233 33.8008 23.5628 34.3378 24.0065 34.7818L29.9534 40.7284C30.0906 40.8657 30.2536 40.9745 30.4329 41.0488C30.6122 41.1231 30.8044 41.1614 30.9985 41.1614C31.1926 41.1614 31.3848 41.1231 31.5642 41.0488C31.7435 40.9745 31.9064 40.8657 32.0437 40.7284L37.99 34.7818Z" fill="url(#paint0_radial_1085_209069)"/>
<path d="M41.7608 18.5742L41.0078 19.4091H42.1321H44.6346C45.1659 19.4091 45.6919 19.5137 46.1828 19.717C46.6736 19.9203 47.1196 20.2183 47.4952 20.5939C47.8709 20.9696 48.1689 21.4156 48.3722 21.9064C48.5754 22.3972 48.6801 22.9233 48.68 23.4545V43.4545C48.6801 43.9858 48.5754 44.5119 48.3722 45.0027C48.1689 45.4935 47.8709 45.9395 47.4952 46.3152C47.1196 46.6908 46.6736 46.9888 46.1828 47.1921C45.6919 47.3954 45.1659 47.5 44.6346 47.5H17.3619C16.2889 47.5 15.26 47.0738 14.5013 46.3151C13.7426 45.5564 13.3164 44.5275 13.3164 43.4545V23.4545C13.3164 22.3816 13.7426 21.3526 14.5013 20.594C15.26 19.8353 16.2889 19.4091 17.3619 19.4091H19.8837H20.9958L20.2577 18.5772C19.0446 17.21 18.7834 15.804 18.771 14.8798C18.7748 14.0059 18.954 13.1417 19.298 12.3383C19.6425 11.5336 20.1453 10.8064 20.7765 10.2L20.7766 10.2001L20.7854 10.1912C21.8267 9.13933 23.236 8.53367 24.7155 8.50193C26.2137 8.5498 27.336 9.32978 28.2486 10.4516C29.1697 11.5837 29.8368 13.0148 30.4249 14.2854C30.4529 14.3597 30.4807 14.434 30.5083 14.5085L31.0516 15.9742L31.4598 14.4652C32.5102 10.5817 34.739 8.50501 37.3011 8.50001C38.9272 8.56319 40.4626 9.26651 41.5725 10.4569C42.6846 11.6496 43.279 13.2342 43.2258 14.864L43.2255 14.8722V14.8803C43.2255 16.434 42.6055 17.6377 41.7608 18.5742ZM37.3525 11.1381L37.3315 11.1364H37.3104C36.7026 11.1364 36.1958 11.4123 35.7965 11.7739C35.4004 12.1328 35.083 12.5989 34.8359 13.0494C34.3412 13.9511 34.0737 14.8915 34.0207 15.0865L34.0206 15.0865L34.0183 15.0957C33.7164 16.2961 33.3863 17.4984 33.0314 18.692L32.833 19.3592L33.5286 19.3342C34.6225 19.2949 35.705 19.0985 36.7429 18.7511L36.7638 18.7441L36.784 18.7353C37.6643 18.3515 38.5962 17.8908 39.312 17.2944C40.0298 16.6962 40.5828 15.9153 40.5891 14.898C40.6491 13.9755 40.3462 13.0658 39.7445 12.3634C39.1391 11.6567 38.2798 11.2165 37.3525 11.1381ZM24.6016 11.137L24.5656 11.1351L24.5297 11.1385C23.7992 11.2064 23.1201 11.5424 22.6229 12.0812C22.253 12.4343 21.9556 12.8561 21.7472 13.3232C21.5364 13.7959 21.4209 14.3055 21.4075 14.8229L21.4072 14.8326L21.4074 14.8422C21.4205 15.8863 22.0025 16.7017 22.7221 17.3083C23.4406 17.9139 24.3471 18.3573 25.1435 18.6681L25.1544 18.6724L25.1656 18.6762C26.2733 19.0496 27.4266 19.2708 28.5938 19.3337L29.2696 19.3702L29.1059 18.7135C28.8282 17.5997 28.4768 16.5055 28.054 15.4383L28.0455 15.417L28.0371 15.4003L28.0322 15.3897C27.6305 14.5225 27.1614 13.5096 26.6436 12.7089C26.3826 12.3052 26.0941 11.9311 25.7763 11.651C25.4618 11.3737 25.0775 11.1529 24.6319 11.1385L24.6016 11.137ZM38.3435 35.1354L38.3437 35.1352C38.8396 34.6388 39.2192 34.0386 39.4551 33.3777C39.691 32.7169 39.7773 32.012 39.7077 31.3137C39.6382 30.6155 39.4146 29.9414 39.053 29.3401C38.6914 28.7387 38.2008 28.2252 37.6167 27.8364L37.6168 27.8363L37.6081 27.8308C36.6666 27.2315 35.5469 26.976 34.4385 27.1075C33.3317 27.2388 32.3041 27.7481 31.5294 28.5493L30.9982 29.0805L30.4671 28.5493C29.6923 27.7482 28.6648 27.2389 27.558 27.1075C26.4497 26.976 25.33 27.2314 24.3884 27.8305L24.3883 27.8305L24.3797 27.8362C23.7956 28.225 23.3051 28.7386 22.9435 29.34C22.5819 29.9413 22.3583 30.6154 22.2887 31.3136C22.2192 32.0119 22.3055 32.7168 22.5413 33.3777C22.7772 34.0385 23.1568 34.6388 23.6528 35.1352L23.6529 35.1354L29.5998 41.0819C29.7835 41.2656 30.0015 41.4113 30.2415 41.5108C30.4815 41.6102 30.7388 41.6614 30.9985 41.6614C31.2583 41.6614 31.5155 41.6102 31.7555 41.5108C31.9955 41.4113 32.2136 41.2656 32.3973 41.0819L38.3435 35.1354Z" stroke="url(#paint1_linear_1085_209069)" stroke-opacity="0.25"/>
</g>
</g>
<defs>
<filter id="filter0_di_1085_209069" x="0.816406" y="0" width="60.3633" height="64" filterUnits="userSpaceOnUse" color-interpolation-filters="sRGB">
<feFlood flood-opacity="0" result="BackgroundImageFix"/>
<feColorMatrix in="SourceAlpha" type="matrix" values="0 0 0 0 0 0 0 0 0 0 0 0 0 0 0 0 0 0 127 0" result="hardAlpha"/>
<feOffset dy="4"/>
<feGaussianBlur stdDeviation="6"/>
<feComposite in2="hardAlpha" operator="out"/>
<feColorMatrix type="matrix" values="0 0 0 0 0.724236 0 0 0 0 0.129167 0 0 0 0 1 0 0 0 0.25 0"/>
<feBlend mode="normal" in2="BackgroundImageFix" result="effect1_dropShadow_1085_209069"/>
<feBlend mode="normal" in="SourceGraphic" in2="effect1_dropShadow_1085_209069" result="shape"/>
<feColorMatrix in="SourceAlpha" type="matrix" values="0 0 0 0 0 0 0 0 0 0 0 0 0 0 0 0 0 0 127 0" result="hardAlpha"/>
<feOffset dy="2"/>
<feGaussianBlur stdDeviation="2"/>
<feComposite in2="hardAlpha" operator="arithmetic" k2="-1" k3="1"/>
<feColorMatrix type="matrix" values="0 0 0 0 0 0 0 0 0 0 0 0 0 0 0 0 0 0 0.35 0"/>
<feBlend mode="normal" in2="shape" result="effect2_innerShadow_1085_209069"/>
</filter>
<radialGradient id="paint0_radial_1085_209069" cx="0" cy="0" r="1" gradientUnits="userSpaceOnUse" gradientTransform="translate(34.9795 -1.16962) rotate(95.6774) scale(46.6798 86.3708)">
<stop stop-color="#EF8AAF"/>
<stop offset="1" stop-color="#A849F1"/>
</radialGradient>
<linearGradient id="paint1_linear_1085_209069" x1="30.9982" y1="8" x2="30.9982" y2="48" gradientUnits="userSpaceOnUse">
<stop stop-color="white"/>
<stop offset="1"/>
</linearGradient>
</defs>
</svg>
