<svg width="32" height="40" viewBox="0 0 32 40" fill="none" xmlns="http://www.w3.org/2000/svg">
<path d="M10.2098 12.2656C12.3455 12.2657 14.3658 12.9852 16.002 14.3109C17.6384 12.9851 19.6588 12.2656 21.7942 12.2656C26.8855 12.2657 31.0277 16.4077 31.0277 21.4991C31.0277 23.7593 30.2378 26.1472 28.6799 28.5963C27.4753 30.4902 25.8057 32.4329 23.7174 34.3705C20.1984 37.6355 16.7305 39.749 16.5846 39.8373C16.2266 40.0542 15.7777 40.0542 15.4196 39.8373C15.2737 39.749 11.8057 37.6355 8.2868 34.3705C6.19852 32.4329 4.52891 30.4902 3.3243 28.5963C1.76648 26.1472 0.976563 23.7593 0.976563 21.4991C0.976406 16.4077 5.11852 12.2657 10.2098 12.2656Z" fill="url(#paint0_radial_5031_54332)"/>
<path d="M4.68422 3.82672L5.65312 11.0938L4.68422 3.82672Z" fill="url(#paint1_radial_5031_54332)"/>
<path d="M16.002 11.4701C17.7487 10.4528 19.7214 9.92188 21.7942 9.92188C23.4228 9.92188 24.9735 10.2606 26.3807 10.8702L27.3198 3.82672C27.458 2.79023 26.2725 2.10547 25.4438 2.74297L21.281 5.94508L16.9204 0.443906C16.4513 -0.147969 15.5529 -0.147969 15.0837 0.443906L10.723 5.94508L6.56031 2.74297C5.73149 2.10539 4.54602 2.79023 4.68422 3.82672L5.44289 10.9495C6.89735 10.2896 8.51141 9.92188 10.2098 9.92188C12.2829 9.92195 14.2555 10.4528 16.002 11.4701Z" fill="url(#paint2_radial_5031_54332)"/>
<path d="M21.7939 12.7656C26.6091 12.7657 30.5273 16.6839 30.5273 21.499L30.5186 21.9023C30.4367 23.793 29.7809 25.7989 28.5342 27.8809L28.2578 28.3281C27.2284 29.9465 25.845 31.6117 24.1318 33.2861L23.377 34.0039C20.7649 36.4274 18.1799 38.211 16.9941 38.9854L16.3252 39.4102C16.1515 39.5152 15.9392 39.528 15.7559 39.4492L15.6787 39.4102V39.4092C15.5522 39.3326 12.5253 37.4891 9.27832 34.5967L8.62695 34.0039C6.69126 32.2079 5.12967 30.4166 3.97266 28.6758L3.74609 28.3281C2.22497 25.9367 1.47656 23.6406 1.47656 21.499L1.48828 21.0508C1.71476 16.5918 5.30187 13.0044 9.76074 12.7773L10.21 12.7656C12.2312 12.7657 14.1405 13.4458 15.6875 14.6992L16.002 14.9541L16.3164 14.6992C17.767 13.524 19.5361 12.8527 21.417 12.7734L21.7939 12.7656ZM15.4756 0.754883C15.7279 0.43658 16.1965 0.416616 16.4756 0.695312L16.5283 0.754883L20.8896 6.25586L21.1953 6.6416L21.5859 6.3418L25.749 3.13965C26.1944 2.79717 26.8187 3.12018 26.8301 3.65137L26.8242 3.76074L25.9688 10.167C24.6668 9.68575 23.2603 9.42188 21.7939 9.42188C19.7328 9.42192 17.7631 9.92693 16.002 10.8965C14.3561 9.99037 12.5281 9.49028 10.6133 9.42871L10.21 9.42188C8.74302 9.42188 7.33573 9.68541 6.0332 10.167L5.17969 3.76074L5.17383 3.65137C5.18445 3.15562 5.72935 2.84061 6.16406 3.0791L6.25586 3.13965L10.418 6.3418L10.8086 6.6416L11.1152 6.25586L15.4756 0.754883Z" stroke="url(#paint3_linear_5031_54332)" stroke-opacity="0.25"/>
<defs>
<radialGradient id="paint0_radial_5031_54332" cx="0" cy="0" r="1" gradientUnits="userSpaceOnUse" gradientTransform="translate(19.2923 -9.16962) rotate(94.6967) scale(46.6073 71.4883)">
<stop offset="0.0001" stop-color="#FF2FAC"/>
<stop offset="1" stop-color="#FF3538"/>
</radialGradient>
<radialGradient id="paint1_radial_5031_54332" cx="0" cy="0" r="1" gradientUnits="userSpaceOnUse" gradientTransform="translate(19.2923 -9.16962) rotate(94.6967) scale(46.6073 71.4883)">
<stop offset="0.0001" stop-color="#FF2FAC"/>
<stop offset="1" stop-color="#FF3538"/>
</radialGradient>
<radialGradient id="paint2_radial_5031_54332" cx="0" cy="0" r="1" gradientUnits="userSpaceOnUse" gradientTransform="translate(19.2923 -9.16962) rotate(94.6967) scale(46.6073 71.4883)">
<stop offset="0.0001" stop-color="#FF2FAC"/>
<stop offset="1" stop-color="#FF3538"/>
</radialGradient>
<linearGradient id="paint3_linear_5031_54332" x1="16.0021" y1="0" x2="16.0021" y2="40" gradientUnits="userSpaceOnUse">
<stop stop-color="white"/>
<stop offset="1"/>
</linearGradient>
</defs>
</svg>
