<svg width="40" height="40" viewBox="0 0 40 40" fill="none" xmlns="http://www.w3.org/2000/svg">
<path d="M38.8028 18.2071L21.8137 1.22235C20.9393 0.348138 19.7525 -0.0889688 18.5033 0.0151044L5.01192 1.24317C3.01319 1.4305 1.43087 3.01241 1.24349 5.01061L0.0151083 18.4985C-0.0889919 19.7266 0.348229 20.9546 1.22267 21.8288L18.191 38.7928C19.003 39.6045 20.0648 40 21.1266 40C22.1885 40 23.2503 39.6045 24.0623 38.7928L38.782 24.0768C40.406 22.4533 40.406 19.8098 38.782 18.1863L38.8028 18.2071ZM12.2989 12.3165C11.716 12.8994 10.9248 13.2324 10.092 13.2324C9.25921 13.2324 8.46805 12.8994 7.88508 12.3165C6.67752 11.1093 6.67752 9.1111 7.88508 7.90385C8.46805 7.32104 9.25921 6.988 10.092 6.988C10.9248 6.988 11.716 7.32104 12.2989 7.90385C13.5065 9.13191 13.5065 11.1093 12.2989 12.3165Z" fill="url(#paint0_radial_5031_52497)"/>
<path d="M18.5449 0.513672C19.5791 0.427537 20.5594 0.760124 21.3125 1.43652L21.46 1.57617L38.4277 18.54H38.4287C39.8125 19.9237 39.856 22.1506 38.5586 23.5869L38.4287 23.7236L23.709 38.4395C22.9966 39.1517 22.0643 39.4999 21.127 39.5C20.248 39.5 19.3736 39.1936 18.6807 38.5684L18.5449 38.4395L1.57617 21.4756C0.808166 20.7078 0.421839 19.6253 0.513672 18.541L0.512695 18.54L1.74121 5.05762C1.90615 3.29876 3.29904 1.90613 5.05859 1.74121L5.05762 1.74023L18.5439 0.512695L18.5449 0.513672ZM10.0918 6.48828C9.18551 6.48833 8.32218 6.82782 7.66113 7.42676L7.53125 7.5498C6.17217 8.90853 6.13009 11.1239 7.4043 12.5361L7.53125 12.6699C8.20687 13.3454 9.125 13.7324 10.0918 13.7324C10.9985 13.7324 11.8623 13.3923 12.5234 12.793L12.6523 12.6699C14.0129 11.3097 14.0512 9.11703 12.7822 7.68945L12.6553 7.55371L12.6523 7.5498L12.5234 7.42676C11.8623 6.8276 10.9983 6.48828 10.0918 6.48828Z" stroke="url(#paint1_linear_5031_52497)" stroke-opacity="0.25"/>
<defs>
<radialGradient id="paint0_radial_5031_52497" cx="0" cy="0" r="1" gradientUnits="userSpaceOnUse" gradientTransform="translate(24.3795 -9.16962) rotate(96.2409) scale(46.7277 94.9104)">
<stop stop-color="#FFA05C"/>
<stop offset="1" stop-color="#F15749"/>
</radialGradient>
<linearGradient id="paint1_linear_5031_52497" x1="20" y1="0" x2="20" y2="40" gradientUnits="userSpaceOnUse">
<stop stop-color="white"/>
<stop offset="1"/>
</linearGradient>
</defs>
</svg>
