<svg width="64" height="66" viewBox="0 0 64 66" fill="none" xmlns="http://www.w3.org/2000/svg">
<g id="icon/BigFlat/promocode">
<g id="Vector" filter="url(#filter0_di_1085_209027)">
<path fill-rule="evenodd" clip-rule="evenodd" d="M49.5344 24.1354C48.9721 23.5731 48.3396 23.0109 48.1287 22.2377C47.9179 21.4646 47.7773 20.6212 47.8476 19.8481C47.9881 18.091 47.4962 15.9825 46.2311 14.7174C44.8957 13.4523 42.9277 13.0306 41.1706 13.1009C40.3272 13.1009 39.5541 13.0306 38.781 12.8197C38.0782 12.4683 37.4456 11.9763 36.8833 11.4141C35.4074 9.72727 33.2286 8.60273 30.9795 9.09472C29.855 9.30557 28.8007 9.93812 27.9573 10.7112C27.1842 11.4141 26.4111 12.6089 25.2865 12.89C24.5134 13.1009 23.67 13.2414 22.8969 13.1712C21.1398 13.0306 19.1016 13.5226 17.7662 14.7877C16.4308 16.1231 16.0794 18.091 16.1497 19.9184C16.1497 20.7618 16.0794 21.5349 15.8685 22.308C15.5171 23.0109 15.0251 23.6434 14.4629 24.2057C13.1275 25.4005 11.9327 27.2982 12.003 29.1255C12.003 29.6175 12.1435 30.1095 12.2841 30.5312C12.6355 31.5152 13.1978 32.4289 13.9006 33.202C14.6737 34.0454 15.4468 34.6779 15.9388 35.6619C16.2903 36.2945 16.22 37.2784 16.22 37.9813C16.22 38.895 16.22 39.7384 16.5011 40.652C16.7822 41.636 17.2039 42.5497 17.9068 43.2525C18.8205 44.1662 20.0856 44.5879 21.3507 44.7285C21.9832 44.7988 22.5455 44.7988 23.178 44.8691C23.8106 44.8691 24.7946 44.7988 25.3568 45.1502C26.5517 45.7827 27.3951 46.9073 28.5196 47.6804C29.6441 48.5238 30.9092 49.0861 32.3149 49.0158C34.2126 48.8752 35.6182 47.7507 36.8833 46.4856C37.4456 45.9233 38.0782 45.4313 38.781 45.0799C39.5541 44.8691 40.3975 44.7285 41.1706 44.7988C42.7872 44.9393 44.5442 44.5879 45.8796 43.5337C47.4962 42.1983 48.0584 40.0898 47.9179 38.0515C47.9179 37.2081 47.9881 36.435 48.199 35.6619C48.5504 34.9591 49.0424 34.3265 49.6047 33.7642C51.2915 32.2883 52.416 30.0392 51.8537 27.7199C51.5726 26.6656 51.0103 25.6816 50.2372 24.8382C50.0264 24.5571 49.8155 24.3463 49.5344 24.1354ZM25.7785 37.2081C26.4814 37.2784 26.9734 36.7864 27.3951 36.3647C28.4493 35.3105 29.5738 34.186 30.6281 33.0614L32.596 31.0935C34.0017 29.6878 35.3371 28.2821 36.7428 26.8765C37.5159 26.1033 38.289 25.2599 39.0621 24.5571C39.765 23.8543 40.6084 23.292 40.3975 22.1675C40.257 21.3943 39.6244 20.7618 38.8513 20.6212C38.4296 20.5509 38.0079 20.6212 37.6565 20.8321C37.2348 21.0429 36.9536 21.4646 36.6022 21.816C34.9857 23.5028 33.2286 25.1897 31.5418 26.8765C30.0658 28.3524 28.5196 29.8284 27.0436 31.3746C26.2002 32.218 25.3568 33.0614 24.5134 33.9048L24.4431 33.9751C23.7403 34.6779 23.7403 35.8728 24.4431 36.6459C24.8648 36.8567 25.2865 37.1379 25.7785 37.2081ZM43.2791 35.3105C43.2791 37.6298 41.3815 39.5275 39.0621 39.5275C36.7428 39.5275 34.8451 37.6298 34.8451 35.3105C34.8451 32.9911 36.7428 31.0935 39.0621 31.0935C41.3815 31.0935 43.2791 32.9911 43.2791 35.3105ZM39.0621 36.7162C39.8352 36.7162 40.4678 36.0836 40.4678 35.3105C40.4678 34.5374 39.8352 33.9048 39.0621 33.9048C38.289 33.9048 37.6565 34.5374 37.6565 35.3105C37.6565 36.0836 38.289 36.7162 39.0621 36.7162ZM25.7083 26.8765C28.0276 26.8765 29.9253 24.9788 29.9253 22.6594C29.9253 20.3401 28.0276 18.4424 25.7083 18.4424C23.3889 18.4424 21.4912 20.3401 21.4912 22.6594C21.4912 24.9788 23.3889 26.8765 25.7083 26.8765Z" fill="url(#paint0_radial_1085_209027)"/>
<path d="M27.1141 22.6597C27.1141 23.4328 26.4815 24.0653 25.7084 24.0653C24.9353 24.0653 24.3027 23.4328 24.3027 22.6597C24.3027 21.8865 24.9353 21.254 25.7084 21.254C26.4815 21.254 27.1141 21.8865 27.1141 22.6597Z" fill="url(#paint1_radial_1085_209027)"/>
<path d="M49.1808 24.489L49.206 24.5141L49.2344 24.5354C49.4776 24.7178 49.6548 24.895 49.8372 25.1382L49.852 25.1579L49.8686 25.1761C50.5916 25.9648 51.1104 26.8766 51.3692 27.8432C51.8708 29.9236 50.8701 31.9926 49.2754 33.388L49.2629 33.3989L49.2511 33.4107C48.6604 34.0014 48.1326 34.6766 47.7518 35.4383L47.7296 35.4826L47.7166 35.5303C47.4904 36.3597 47.4179 37.1801 47.4179 38.0515V38.0688L47.419 38.086C47.5526 40.0221 47.014 41.9452 45.5654 43.1447C44.3551 44.0979 42.7374 44.4328 41.2154 44.3008C40.358 44.2229 39.4494 44.3794 38.6494 44.5975L38.6017 44.6105L38.5574 44.6327C37.7957 45.0135 37.1205 45.5413 36.5298 46.132C35.2814 47.3805 33.9882 48.3884 32.2839 48.5167C31.0372 48.5773 29.8872 48.0811 28.8196 47.2804L28.8113 47.2742L28.8029 47.2684C28.3531 46.9592 27.9523 46.5908 27.5232 46.1964C27.4502 46.1294 27.3765 46.0616 27.3015 45.9932C26.8026 45.538 26.2573 45.0639 25.6056 44.7162C25.2179 44.4801 24.7349 44.4061 24.3271 44.3789C24.0171 44.3583 23.6912 44.3629 23.4269 44.3666C23.3465 44.3677 23.2718 44.3688 23.2049 44.369C22.8863 44.3345 22.586 44.3168 22.2989 44.2999L22.2937 44.2996C21.9934 44.282 21.7073 44.265 21.4059 44.2315C20.2038 44.098 19.0643 43.703 18.2603 42.899C17.6405 42.2791 17.2505 41.4551 16.9819 40.5147L16.982 40.5147L16.979 40.505C16.7231 39.6733 16.72 38.9027 16.72 37.9813C16.72 37.8967 16.7212 37.8025 16.7225 37.7018C16.7262 37.4185 16.7306 37.0834 16.7102 36.7634C16.6826 36.3316 16.6076 35.8418 16.3814 35.429C16.1078 34.8846 15.7606 34.4449 15.3951 34.0429C15.2123 33.8418 15.0215 33.6465 14.8336 33.4543L14.8317 33.4523C14.6429 33.2591 14.456 33.0679 14.2699 32.8649C13.6103 32.1391 13.0847 31.284 12.7567 30.368C12.6194 29.9553 12.503 29.53 12.503 29.1255V29.1159L12.5026 29.1063C12.4403 27.4881 13.5173 25.7227 14.7963 24.5783L14.8066 24.5691L14.8164 24.5592C15.4071 23.9686 15.9349 23.2933 16.3158 22.5316L16.3379 22.4874L16.3509 22.4396C16.5771 21.6102 16.6497 20.7899 16.6497 19.9184V19.9088L16.6493 19.8992C16.5813 18.1297 16.9286 16.3363 18.115 15.146C19.3205 14.0075 21.2006 13.5377 22.8545 13.6694C23.7094 13.7466 24.6152 13.591 25.4132 13.3738C26.1048 13.1993 26.6561 12.7544 27.1036 12.316C27.3067 12.117 27.5 11.9073 27.6786 11.7137C27.699 11.6916 27.7193 11.6696 27.7393 11.6479C27.9393 11.4314 28.1187 11.2402 28.2937 11.0812L28.2952 11.0798C29.0919 10.3495 30.0645 9.77499 31.0717 9.58615L31.079 9.58477L31.0864 9.58317C33.0982 9.14309 35.105 10.141 36.5071 11.7433L36.518 11.7559L36.5298 11.7676C37.1205 12.3583 37.7957 12.8861 38.5574 13.267L38.6017 13.2891L38.6494 13.3021C39.4788 13.5283 40.2992 13.6009 41.1706 13.6009H41.1806L41.1906 13.6005C42.8713 13.5333 44.6814 13.9417 45.8822 15.0757C47.0065 16.2041 47.4817 18.143 47.3494 19.8057C47.272 20.6624 47.4284 21.5701 47.6463 22.3693C47.8742 23.2047 48.5095 23.8287 49.0117 24.3219C49.0702 24.3793 49.1268 24.435 49.1808 24.489ZM25.7078 37.7031L25.7183 37.7046L25.7288 37.7057C26.6708 37.7999 27.3169 37.1515 27.7078 36.7592C27.7217 36.7452 27.7353 36.7316 27.7486 36.7183L27.7516 36.7153C28.8022 35.6647 29.9292 34.5377 30.9873 33.4093L32.9496 31.447C33.6546 30.742 34.3416 30.0374 35.0261 29.3353L35.0274 29.334C35.713 28.6308 36.3961 27.9302 37.0963 27.23C37.366 26.9603 37.6297 26.6886 37.89 26.4203C38.3983 25.8965 38.8941 25.3856 39.3985 24.9271L39.4073 24.9191L39.4157 24.9107C39.5185 24.8078 39.6143 24.7177 39.715 24.623C39.7875 24.5547 39.8627 24.4841 39.9448 24.4045C40.1255 24.2295 40.3138 24.0354 40.4747 23.8173C40.811 23.3618 41.0249 22.8024 40.8892 22.0768C40.711 21.0993 39.9183 20.307 38.9407 20.1293L38.9407 20.1292L38.9335 20.128C38.4118 20.0411 37.8745 20.1238 37.4155 20.3937C37.1356 20.5374 36.9177 20.7404 36.7405 20.927C36.6637 21.0078 36.5884 21.0923 36.519 21.1702C36.5068 21.1839 36.4948 21.1974 36.4829 21.2107C36.4011 21.3023 36.3257 21.3854 36.2486 21.4625L36.2486 21.4624L36.2412 21.4701C35.1682 22.5897 34.037 23.7054 32.9 24.8268C32.3287 25.3903 31.7559 25.9553 31.1882 26.5229C30.7047 27.0064 30.2106 27.4929 29.7123 27.9835C28.7029 28.9772 27.6764 29.9877 26.686 31.0252L24.1599 33.5513L24.0896 33.6215C23.1827 34.5284 23.2057 36.028 24.0732 36.9822L24.136 37.0513L24.2195 37.0931C24.3056 37.1361 24.3918 37.1824 24.4863 37.2331C24.4988 37.2398 24.5115 37.2466 24.5243 37.2535C24.631 37.3107 24.7473 37.3725 24.8681 37.4305C25.1096 37.5464 25.3903 37.6578 25.7078 37.7031ZM39.0621 40.0275C41.6576 40.0275 43.7791 37.906 43.7791 35.3105C43.7791 32.715 41.6576 30.5935 39.0621 30.5935C36.4666 30.5935 34.3451 32.715 34.3451 35.3105C34.3451 37.906 36.4666 40.0275 39.0621 40.0275ZM39.9678 35.3105C39.9678 35.8075 39.5591 36.2162 39.0621 36.2162C38.5652 36.2162 38.1565 35.8075 38.1565 35.3105C38.1565 34.8135 38.5652 34.4048 39.0621 34.4048C39.5591 34.4048 39.9678 34.8135 39.9678 35.3105ZM25.7083 27.3765C28.3038 27.3765 30.4253 25.2549 30.4253 22.6594C30.4253 20.0639 28.3038 17.9424 25.7083 17.9424C23.1128 17.9424 20.9912 20.0639 20.9912 22.6594C20.9912 25.2549 23.1128 27.3765 25.7083 27.3765ZM26.6141 22.6597C26.6141 23.1566 26.2054 23.5653 25.7084 23.5653C25.2114 23.5653 24.8027 23.1566 24.8027 22.6597C24.8027 22.1627 25.2114 21.754 25.7084 21.754C26.2054 21.754 26.6141 22.1627 26.6141 22.6597Z" stroke="url(#paint2_linear_1085_209027)" stroke-opacity="0.25"/>
</g>
</g>
<defs>
<filter id="filter0_di_1085_209027" x="0" y="0.978394" width="64" height="64.0433" filterUnits="userSpaceOnUse" color-interpolation-filters="sRGB">
<feFlood flood-opacity="0" result="BackgroundImageFix"/>
<feColorMatrix in="SourceAlpha" type="matrix" values="0 0 0 0 0 0 0 0 0 0 0 0 0 0 0 0 0 0 127 0" result="hardAlpha"/>
<feOffset dy="4"/>
<feGaussianBlur stdDeviation="6"/>
<feComposite in2="hardAlpha" operator="out"/>
<feColorMatrix type="matrix" values="0 0 0 0 0.371337 0 0 0 0 0.608333 0 0 0 0 0.13434 0 0 0 0.25 0"/>
<feBlend mode="normal" in2="BackgroundImageFix" result="effect1_dropShadow_1085_209027"/>
<feBlend mode="normal" in="SourceGraphic" in2="effect1_dropShadow_1085_209027" result="shape"/>
<feColorMatrix in="SourceAlpha" type="matrix" values="0 0 0 0 0 0 0 0 0 0 0 0 0 0 0 0 0 0 127 0" result="hardAlpha"/>
<feOffset dy="2"/>
<feGaussianBlur stdDeviation="2"/>
<feComposite in2="hardAlpha" operator="arithmetic" k2="-1" k3="1"/>
<feColorMatrix type="matrix" values="0 0 0 0 0 0 0 0 0 0 0 0 0 0 0 0 0 0 0.35 0"/>
<feBlend mode="normal" in2="shape" result="effect2_innerShadow_1085_209027"/>
</filter>
<radialGradient id="paint0_radial_1085_209027" cx="0" cy="0" r="1" gradientUnits="userSpaceOnUse" gradientTransform="translate(36.3795 -0.201155) rotate(96.2342) scale(46.7777 94.9116)">
<stop stop-color="#F4FF5C"/>
<stop offset="1" stop-color="#ADD179"/>
</radialGradient>
<radialGradient id="paint1_radial_1085_209027" cx="0" cy="0" r="1" gradientUnits="userSpaceOnUse" gradientTransform="translate(36.3795 -0.201155) rotate(96.2342) scale(46.7777 94.9116)">
<stop stop-color="#F4FF5C"/>
<stop offset="1" stop-color="#ADD179"/>
</radialGradient>
<linearGradient id="paint2_linear_1085_209027" x1="32" y1="8.97839" x2="32" y2="49.0217" gradientUnits="userSpaceOnUse">
<stop stop-color="white"/>
<stop offset="1"/>
</linearGradient>
</defs>
</svg>
