<svg width="12" height="13" viewBox="0 0 12 13" fill="none" xmlns="http://www.w3.org/2000/svg">
<g clip-path="url(#clip0_7407_51394)">
<path d="M5.9974 12.3337C2.77573 12.3337 0.164062 9.72196 0.164062 6.50033C0.164062 3.27866 2.77573 0.666992 5.9974 0.666992C9.21903 0.666992 11.8307 3.27866 11.8307 6.50033C11.8307 9.72196 9.21903 12.3337 5.9974 12.3337ZM5.90039 8C5.48618 8 5.15039 8.33579 5.15039 8.75C5.15039 9.16422 5.48618 9.5 5.90039 9.5H6.08789C6.5021 9.5 6.83789 9.16422 6.83789 8.75C6.83789 8.33579 6.5021 8 6.08789 8H5.90039ZM5.99414 3.5C5.52815 3.5 5.15039 3.87776 5.15039 4.34375V6.65625C5.15039 7.12224 5.52815 7.5 5.99414 7.5C6.46013 7.5 6.83789 7.12224 6.83789 6.65625L6.83789 4.34375C6.83789 3.87776 6.46013 3.5 5.99414 3.5Z" fill="#E3B075"/>
</g>
<defs>
<clipPath id="clip0_7407_51394">
<rect width="12" height="12" fill="white" transform="translate(0 0.5)"/>
</clipPath>
</defs>
</svg>
