<svg width="16" height="16" viewBox="0 0 16 16" fill="none" xmlns="http://www.w3.org/2000/svg">
<path d="M7.14258 8.97418V15.2593H3.42871C2.82262 15.2593 2.24113 15.0189 1.8125 14.5904C1.38393 14.1618 1.14267 13.5803 1.14258 12.9742V8.97418H7.14258ZM14.8574 12.9742C14.8573 13.5803 14.6161 14.1618 14.1875 14.5904C13.7589 15.0189 13.1774 15.2593 12.5713 15.2593H8.85742V8.97418H14.8574V12.9742ZM9.9209 0.401912C10.6413 0.381429 11.3427 0.634007 11.8848 1.10894C12.4269 1.58397 12.7695 2.24649 12.8438 2.96344C12.918 3.68033 12.7193 4.39909 12.2861 4.97515H14.8574C15.1603 4.97523 15.4508 5.09508 15.665 5.30914C15.8794 5.52347 16 5.81463 16 6.11773C16 6.42077 15.8793 6.71104 15.665 6.92535C15.4508 7.13961 15.1604 7.26024 14.8574 7.26031H8.85742V4.97515H7.14258V7.26031H1.14258C0.839574 7.26024 0.549222 7.13961 0.334961 6.92535C0.120718 6.71104 8.99871e-06 6.42077 0 6.11773C0 5.81463 0.120634 5.52347 0.334961 5.30914C0.549191 5.09508 0.839731 4.97523 1.14258 4.97515H3.71387C3.35501 4.49744 3.14258 3.90374 3.14258 3.26031C3.14248 2.69778 3.3089 2.14786 3.62012 1.67926C3.93149 1.21053 4.37478 0.843551 4.89355 0.625545C5.4122 0.407706 5.98359 0.348102 6.53613 0.45367C7.08883 0.559267 7.59815 0.825423 8 1.21929C8.51422 0.714249 9.20043 0.422407 9.9209 0.401912ZM5.75 2.14508C5.53121 2.19405 5.33125 2.30678 5.17578 2.46832C5.02051 2.6298 4.91651 2.83392 4.87598 3.05426C4.83552 3.27463 4.86049 3.50239 4.94824 3.70855C5.03606 3.91466 5.18225 4.09087 5.36914 4.21441C5.55618 4.33804 5.7758 4.40393 6 4.40386H7.14258L7.1416 3.26031V3.21734C7.13308 2.99338 7.05933 2.77642 6.92871 2.59429C6.79802 2.41213 6.61575 2.27277 6.40625 2.19293C6.19683 2.11318 5.96869 2.09613 5.75 2.14508ZM9.99902 2.11773C9.70335 2.11752 9.41916 2.23211 9.20605 2.43707C8.99293 2.64209 8.86768 2.92183 8.85645 3.21734L8.85742 3.26031V4.40386H9.99902C10.3019 4.40382 10.5924 4.28302 10.8066 4.0689C11.021 3.85458 11.1416 3.56341 11.1416 3.26031C11.1415 2.95729 11.0209 2.66696 10.8066 2.45269C10.5924 2.23843 10.302 2.11778 9.99902 2.11773Z" fill="url(#paint0_radial_9292_380)"/>
<defs>
<radialGradient id="paint0_radial_9292_380" cx="0" cy="0" r="1" gradientUnits="userSpaceOnUse" gradientTransform="translate(9.75178 -3.00543) rotate(96.7161) scale(17.374 37.9284)">
<stop stop-color="#EF8AB1"/>
<stop offset="1" stop-color="#A849F1"/>
</radialGradient>
</defs>
</svg>
