<svg width="14" height="14" viewBox="0 0 14 14" fill="none" xmlns="http://www.w3.org/2000/svg">
<g clip-path="url(#clip0_12002_32996)">
<rect width="14" height="14" rx="7" fill="white"/>
<path fill-rule="evenodd" clip-rule="evenodd" d="M-2.80005 9.33301H16.8V13.9997H-2.80005V9.33301Z" fill="#249F58"/>
<path fill-rule="evenodd" clip-rule="evenodd" d="M8.37198 6.71961C8.39064 6.81014 8.39998 6.90348 8.39998 6.99961C8.39998 7.77241 7.77278 8.39961 6.99998 8.39961C6.22718 8.39961 5.59998 7.77241 5.59998 6.99961C5.59998 6.90348 5.60931 6.81014 5.62798 6.71961C5.75864 7.14521 6.32238 7.46628 6.99998 7.46628C7.67758 7.46628 8.24131 7.14521 8.37198 6.71961ZM6.99998 6.53294C7.25758 6.53294 7.46664 6.32388 7.46664 6.06628C7.46664 5.80868 7.25758 5.59961 6.99998 5.59961C6.74238 5.59961 6.53331 5.80868 6.53331 6.06628C6.53331 6.32388 6.74238 6.53294 6.99998 6.53294Z" fill="#FFDA2C"/>
<path fill-rule="evenodd" clip-rule="evenodd" d="M-2.80005 0H16.8V4.66667H-2.80005V0Z" fill="#AF010D"/>
</g>
<defs>
<clipPath id="clip0_12002_32996">
<rect width="14" height="14" rx="7" fill="white"/>
</clipPath>
</defs>
</svg>
