<svg width="16" height="16" viewBox="0 0 16 16" fill="none" xmlns="http://www.w3.org/2000/svg">
<path d="M1.51245 3.48279L3.45005 6.94612V9.05866L1.51472 12.5152L1.51245 3.48279Z" fill="#5B57A2"/>
<path d="M8.94995 5.68499L10.7656 4.57219L14.4813 4.56873L8.94995 7.95726V5.68499Z" fill="#D90751"/>
<path d="M8.94432 3.46227L8.95458 8.0476L7.01245 6.85427V0L8.94432 3.46227Z" fill="#FAB718"/>
<path d="M14.4859 4.56947L10.7701 4.57293L8.94432 3.46227L7.01245 0L14.4859 4.56947Z" fill="#ED6F26"/>
<path d="M8.95458 12.5344V10.3097L7.01245 9.13904L7.01352 16.0001L8.95458 12.5344Z" fill="#63B22F"/>
<path d="M10.7631 11.4317L3.44992 6.94612L1.51245 3.48279L14.4755 11.4272L10.7631 11.4317Z" fill="#1487C9"/>
<path d="M7.01245 15.9995L8.95325 12.5338L10.7643 11.4311L14.4767 11.4266L7.01245 15.9995Z" fill="#017F36"/>
<path d="M1.51245 12.5144L7.02352 9.13839L5.17072 8.00159L3.44778 9.05785L1.51245 12.5144Z" fill="#984995"/>
</svg>
