<svg width="16" height="16" viewBox="0 0 16 16" fill="none" xmlns="http://www.w3.org/2000/svg">
<g clip-path="url(#clip0_12002_33051)">
<path d="M16 0H0V16H16V0Z" fill="#EF3124"/>
<path d="M11.0582 11.1895H4.94189V12.4604H11.0582V11.1895Z" fill="white"/>
<mask id="mask0_12002_33051" style="mask-type:luminance" maskUnits="userSpaceOnUse" x="0" y="0" width="16" height="16">
<path d="M16 0H0V16H16V0Z" fill="white"/>
</mask>
<g mask="url(#mask0_12002_33051)">
<path d="M9.11771 4.08239C8.94344 3.56218 8.74235 3.15137 8.05349 3.15137C7.36462 3.15137 7.151 3.56045 6.96722 4.08239L5.07446 9.46229H6.32938L6.76614 8.18315H9.18084L9.58603 9.46229H10.9205L9.11684 4.08239H9.11771ZM7.13241 7.10293L7.99036 4.55331H8.02192L8.8323 7.10293H7.13241Z" fill="white"/>
</g>
</g>
<defs>
<clipPath id="clip0_12002_33051">
<rect width="16" height="16" fill="white"/>
</clipPath>
</defs>
</svg>
