<svg width="53" height="16" viewBox="0 0 53 16" fill="none" xmlns="http://www.w3.org/2000/svg">
<g clip-path="url(#clip0_6886_145809)">
<path d="M37.3269 3.19983H51.6858C52.1392 3.19983 52.5063 3.54351 52.5063 3.96783V12.0318C52.5063 12.4561 52.1392 12.7998 51.6858 12.7998H37.3269C36.8735 12.7998 36.5063 12.4561 36.5063 12.0318V3.96783C36.5063 3.54351 36.8735 3.19983 37.3269 3.19983Z" fill="white"/>
<path d="M47.7657 7.80133V10.0805H49.0319V8.72986H50.4669C51.0705 8.72564 51.5833 8.33946 51.7774 7.80133H47.7657Z" fill="#37A72E"/>
<path d="M47.5969 5.92242C47.6708 6.85307 48.5529 7.58956 49.6291 7.58956C49.6334 7.58956 51.8302 7.58956 51.8302 7.58956C51.8471 7.50515 51.8555 7.41652 51.8555 7.32578C51.8555 6.55341 51.233 5.92876 50.4627 5.92242H47.5969Z" fill="url(#paint0_linear_6886_145809)"/>
<path d="M45.7253 7.56635C45.74 7.54103 45.7633 7.52626 45.7928 7.52626C45.835 7.52626 45.8667 7.56002 45.8688 7.60012V10.0586H47.135V5.92242H45.8688C45.7084 5.92876 45.5269 6.04482 45.4594 6.19043L44.4528 8.35138C44.4506 8.35983 44.4464 8.36827 44.4422 8.37671C44.4274 8.39781 44.4021 8.41258 44.3726 8.41258C44.3261 8.41258 44.2882 8.3746 44.2882 8.32817V5.92242H43.022V10.0586H44.2882C44.4464 10.0502 44.6237 9.93411 44.6912 9.79061L45.7253 7.57268C45.7232 7.57057 45.7253 7.56846 45.7253 7.56635Z" fill="#37A72E"/>
<path d="M40.9938 7.63863L40.253 10.0591H39.3414L38.6028 7.63651C38.5965 7.59853 38.5627 7.56898 38.5205 7.56898C38.4741 7.56898 38.4382 7.60697 38.4382 7.65129V10.057H37.172V5.92084H38.2588H38.5817C38.8138 5.92084 39.0586 6.10232 39.1261 6.32391L39.7423 8.33925C39.774 8.44054 39.8225 8.43843 39.8542 8.33925L40.4704 6.32391C40.5379 6.10021 40.7827 5.92084 41.0149 5.92084H41.3377H42.4245V10.057H41.1584V7.65129C41.1584 7.65129 41.1584 7.65129 41.1584 7.64918C41.1584 7.60275 41.1204 7.56687 41.0761 7.56687C41.0339 7.56898 41.0001 7.59853 40.9938 7.63863Z" fill="#37A72E"/>
</g>
<g clip-path="url(#clip1_6886_145809)">
<path d="M28.8283 4.22906H24.2015V11.7758H28.8283V4.22906Z" fill="#FF5F00"/>
<path d="M24.6667 8.00233C24.6669 7.27633 24.8313 6.55978 25.1476 5.90632C25.4639 5.25286 25.924 4.67943 26.4933 4.22897C25.7853 3.67226 24.9348 3.32601 24.0393 3.2298C23.1437 3.13358 22.2392 3.29129 21.429 3.6849C20.6188 4.0785 19.9358 4.69212 19.4579 5.4556C18.98 6.21908 18.7266 7.10162 18.7266 8.00233C18.7266 8.90305 18.98 9.78559 19.4579 10.5491C19.9358 11.3125 20.6188 11.9262 21.429 12.3198C22.2392 12.7134 23.1437 12.8711 24.0393 12.7749C24.9348 12.6787 25.7853 12.3324 26.4933 11.7757C25.924 11.3252 25.4639 10.7518 25.1476 10.0983C24.8313 9.44489 24.6669 8.72833 24.6667 8.00233Z" fill="#EB001B"/>
<path d="M34.2664 8.00195C34.267 8.90201 34.0143 9.78408 33.5372 10.5473C33.0601 11.3105 32.3778 11.924 31.5684 12.3176C30.759 12.7113 29.8552 12.8692 28.9602 12.7733C28.0653 12.6774 27.2154 12.3315 26.5078 11.7753C27.0773 11.325 27.5375 10.7516 27.8538 10.0981C28.1702 9.4446 28.3345 8.72798 28.3345 8.00195C28.3345 7.27592 28.1702 6.55931 27.8538 5.90582C27.5375 5.25234 27.0773 4.67894 26.5078 4.2286C27.2154 3.67237 28.0653 3.32652 28.9602 3.23061C29.8552 3.1347 30.759 3.29261 31.5684 3.68626C32.3778 4.07992 33.0601 4.69343 33.5372 5.45663C34.0143 6.21982 34.267 7.1019 34.2664 8.00195Z" fill="#F79E1B"/>
</g>
<g clip-path="url(#clip2_6886_145809)">
<path d="M15.6467 3.20001H1.35333C0.88205 3.20001 0.5 3.56503 0.5 4.0153V11.9847C0.5 12.435 0.88205 12.8 1.35333 12.8H15.6467C16.1179 12.8 16.5 12.435 16.5 11.9847V4.0153C16.5 3.56503 16.1179 3.20001 15.6467 3.20001Z" fill="white"/>
<path d="M6.4375 10.011L7.1492 6.02094H8.28753L7.57533 10.011H6.4375Z" fill="#0E4595"/>
<path d="M11.6845 6.10801C11.4589 6.02718 11.1056 5.94043 10.6643 5.94043C9.53948 5.94043 8.74716 6.4816 8.74041 7.2572C8.73408 7.83053 9.30605 8.15037 9.73783 8.34122C10.1809 8.53679 10.3299 8.66153 10.3278 8.83616C10.3249 9.10362 9.97393 9.22581 9.64674 9.22581C9.19112 9.22581 8.94908 9.16534 8.57525 9.01636L8.42856 8.95293L8.2688 9.84616C8.53468 9.95753 9.02632 10.054 9.53681 10.059C10.7334 10.059 11.5102 9.52406 11.519 8.69583C11.5233 8.24194 11.22 7.89651 10.5633 7.61175C10.1654 7.42717 9.92173 7.304 9.92431 7.11709C9.92431 6.95124 10.1306 6.7739 10.5762 6.7739C10.9484 6.76837 11.2181 6.84593 11.4282 6.92676L11.5302 6.97281L11.6845 6.10801Z" fill="#0E4595"/>
<path d="M14.6162 6.02094H13.7366C13.4641 6.02094 13.2602 6.09199 13.1405 6.35182L11.45 10.0084H12.6453C12.6453 10.0084 12.8407 9.51678 12.8849 9.40884C13.0156 9.40884 14.1768 9.41055 14.3428 9.41055C14.3768 9.55023 14.4813 10.0084 14.4813 10.0084H15.5375L14.6162 6.02094ZM13.2206 8.59738C13.3148 8.36749 13.6741 7.48201 13.6741 7.48201C13.6674 7.49263 13.7676 7.251 13.8251 7.10119L13.902 7.4452C13.902 7.4452 14.12 8.39764 14.1655 8.59736H13.2206V8.59738Z" fill="#0E4595"/>
<path d="M1.47707 6.02094L1.46252 6.10398C1.91247 6.20804 2.31435 6.35862 2.66619 6.54597L3.67623 10.0047L4.88061 10.0033L6.67269 6.02094H5.4669L4.35244 8.74187L4.23369 8.18893C4.2282 8.17205 4.22225 8.15511 4.21615 8.13817L3.82861 6.3578C3.7597 6.10514 3.55984 6.02974 3.31261 6.02094H1.47707Z" fill="#0E4595"/>
</g>
<defs>
<linearGradient id="paint0_linear_6886_145809" x1="47.5974" y1="6.756" x2="51.8553" y2="6.756" gradientUnits="userSpaceOnUse">
<stop stop-color="#00A0E5"/>
<stop offset="1" stop-color="#0077C3"/>
</linearGradient>
<clipPath id="clip0_6886_145809">
<rect width="16" height="16" fill="white" transform="translate(36.5)"/>
</clipPath>
<clipPath id="clip1_6886_145809">
<rect width="16" height="16" fill="white" transform="translate(18.5)"/>
</clipPath>
<clipPath id="clip2_6886_145809">
<rect width="16" height="16" fill="white" transform="translate(0.5)"/>
</clipPath>
</defs>
</svg>
