<svg width="32" height="16" viewBox="0 0 32 16" fill="none" xmlns="http://www.w3.org/2000/svg">
<rect width="32" height="16" rx="8" fill="url(#paint0_linear_9111_8842)"/>
<path d="M16.1374 8.85504V10.6757H15.0891V4.88263H17.0201C18.8408 4.88263 19.6132 5.5447 19.6132 6.81366C19.6132 8.1378 18.7305 8.85504 17.0201 8.85504H16.1374ZM16.1374 5.82056V7.91711H17.1305C18.0684 7.91711 18.565 7.58608 18.565 6.81366C18.565 6.09642 18.1236 5.82056 17.1305 5.82056H16.1374Z" fill="white"/>
<path d="M20.1645 6.81382C20.4404 6.59313 20.9369 6.42761 21.6542 6.42761C22.868 6.42761 23.4749 6.81382 23.4749 7.91727V10.6207H22.5921V9.90347C22.3714 10.4 21.8748 10.7311 21.2128 10.7311C20.3852 10.7311 19.8887 10.2345 19.8887 9.46209C19.8887 8.52416 20.5507 8.2483 21.599 8.2483H22.5369V8.08278C22.5369 7.47589 22.2611 7.31037 21.7094 7.31037C20.9369 7.31037 20.4955 7.58623 20.2197 8.02761L20.1645 6.81382ZM22.4818 9.18623V8.8552H21.6542C21.1025 8.8552 20.8266 8.96554 20.8266 9.35175C20.8266 9.68279 21.0472 9.8483 21.4886 9.8483C22.1507 9.8483 22.4266 9.46209 22.4818 9.18623Z" fill="white"/>
<path d="M23.9172 6.48291H24.9655L26.069 9.2967L27.0069 6.48291H28L26.3448 11.007C25.9586 12.0002 25.6276 12.2208 25.0759 12.2208C24.8 12.2208 24.5241 12.1657 24.4138 12.0553V11.1726C24.5241 11.2829 24.7448 11.3933 24.9103 11.3933C25.1862 11.3933 25.4069 11.1726 25.5724 10.6208L23.9172 6.48291Z" fill="white"/>
<path d="M6.64844 6.81387V8.08284L8.30361 9.13112L12.3312 6.20698C12.1657 5.87594 12.0002 5.60008 11.7795 5.32422L8.30361 7.86215L6.64844 6.81387Z" fill="white"/>
<path d="M11.7241 7.86205V7.97239C11.7241 8.7448 11.4483 9.46205 11.0069 10.0689C10.5655 10.6758 9.90345 11.062 9.13103 11.2827C8.41379 11.4483 7.64138 11.3931 6.92414 11.062C6.2069 10.731 5.65517 10.2345 5.32414 9.57239C4.9931 8.91032 4.82759 8.13791 4.9931 7.36549C5.10345 6.59308 5.48966 5.93101 6.09655 5.43446C6.64828 4.93791 7.36552 4.60687 8.13793 4.60687C8.91035 4.5517 9.62759 4.77239 10.2897 5.21377L11.1724 4.60687C10.4 3.99998 9.4069 3.61377 8.41379 3.61377C7.42069 3.61377 6.42759 3.9448 5.65517 4.5517C4.88276 5.1586 4.33103 6.04136 4.11034 7.03446C3.88966 8.02756 4 9.02067 4.44138 9.90342C4.88276 10.7862 5.6 11.5586 6.48276 11.9448C7.36552 12.3862 8.41379 12.4965 9.35172 12.2758C10.3448 12.0551 11.1724 11.5034 11.8345 10.731C12.4414 9.9586 12.7724 8.96549 12.7724 7.97239C12.7724 7.69653 12.7724 7.42067 12.7172 7.19998L11.7241 7.86205Z" fill="white"/>
<defs>
<linearGradient id="paint0_linear_9111_8842" x1="3.38394" y1="18.5201" x2="19.2289" y2="9.51335" gradientUnits="userSpaceOnUse">
<stop stop-color="#C7E701"/>
<stop offset="0.2424" stop-color="#0ADA01"/>
<stop offset="0.4393" stop-color="#21DE58"/>
<stop offset="0.6317" stop-color="#3EE3A9"/>
<stop offset="0.8075" stop-color="#37DABE"/>
<stop offset="1" stop-color="#15CAE0"/>
</linearGradient>
</defs>
</svg>
