<svg width="31" height="16" viewBox="0 0 31 16" fill="none" xmlns="http://www.w3.org/2000/svg">
<path d="M1.51245 3.48242L3.45005 6.94576V9.05829L1.51472 12.5148L1.51245 3.48242Z" fill="#5B57A2"/>
<path d="M8.94995 5.68463L10.7656 4.57183L14.4813 4.56836L8.94995 7.95689V5.68463Z" fill="#D90751"/>
<path d="M8.94432 3.46227L8.95458 8.0476L7.01245 6.85427V0L8.94432 3.46227Z" fill="#FAB718"/>
<path d="M14.4859 4.56947L10.7701 4.57293L8.94432 3.46227L7.01245 0L14.4859 4.56947Z" fill="#ED6F26"/>
<path d="M8.95458 12.534V10.3093L7.01245 9.13867L7.01352 15.9997L8.95458 12.534Z" fill="#63B22F"/>
<path d="M10.7631 11.4314L3.44992 6.94576L1.51245 3.48242L14.4755 11.4268L10.7631 11.4314Z" fill="#1487C9"/>
<path d="M7.01245 15.9997L8.95325 12.534L10.7643 11.4313L14.4767 11.4268L7.01245 15.9997Z" fill="#017F36"/>
<path d="M1.51245 12.5148L7.02352 9.13875L5.17072 8.00195L3.44778 9.05822L1.51245 12.5148Z" fill="#984995"/>
<g clip-path="url(#clip0_8070_103335)">
<rect x="17" y="1" width="14" height="14" rx="7" fill="white"/>
<path fill-rule="evenodd" clip-rule="evenodd" d="M14.2 10.333H33.8V14.9997H14.2V10.333Z" fill="#249F58"/>
<path fill-rule="evenodd" clip-rule="evenodd" d="M25.372 7.71961C25.3906 7.81014 25.4 7.90348 25.4 7.99961C25.4 8.77241 24.7728 9.39961 24 9.39961C23.2272 9.39961 22.6 8.77241 22.6 7.99961C22.6 7.90348 22.6093 7.81014 22.628 7.71961C22.7586 8.14521 23.3224 8.46628 24 8.46628C24.6776 8.46628 25.2413 8.14521 25.372 7.71961ZM24 7.53294C24.2576 7.53294 24.4666 7.32388 24.4666 7.06628C24.4666 6.80868 24.2576 6.59961 24 6.59961C23.7424 6.59961 23.5333 6.80868 23.5333 7.06628C23.5333 7.32388 23.7424 7.53294 24 7.53294Z" fill="#FFDA2C"/>
<path fill-rule="evenodd" clip-rule="evenodd" d="M14.2 1H33.8V5.66667H14.2V1Z" fill="#AF010D"/>
</g>
<defs>
<clipPath id="clip0_8070_103335">
<rect x="17" y="1" width="14" height="14" rx="7" fill="white"/>
</clipPath>
</defs>
</svg>
