<svg width="32" height="16" viewBox="0 0 32 16" fill="none" xmlns="http://www.w3.org/2000/svg">
<rect width="32" height="16" rx="8" fill="#303030"/>
<path d="M14.9746 7.74488V6.52488H16.2946C16.5746 6.52488 16.7346 6.55488 16.8646 6.60488C17.0946 6.69488 17.2046 6.90488 17.2046 7.13488C17.2046 7.36488 17.0746 7.60488 16.8246 7.68488C16.7046 7.72488 16.5646 7.74488 16.2946 7.74488H14.9746ZM16.5046 5.37488H13.5146V10.1548H14.9646V8.86488H16.4946C16.8546 8.86488 17.2046 8.86488 17.5446 8.74488C18.2046 8.53488 18.6946 7.94488 18.6946 7.14488C18.6946 6.34488 18.2146 5.75488 17.5646 5.52488C17.2046 5.39488 16.8646 5.37488 16.4946 5.37488H16.5046Z" fill="white"/>
<path d="M20.4246 9.46488H22.6246L22.9046 10.1548H24.5346L22.5846 5.37488H20.4646L18.5146 10.1548H20.1546L20.4246 9.46488ZM20.7846 8.40488L21.4746 6.47488H21.5846L22.2746 8.40488H20.7846Z" fill="white"/>
<path d="M28.0751 5.37488L26.8951 7.55488H26.8451L25.6551 5.37488H23.9651L26.1151 8.88488V10.1548H27.6151V8.76488L29.6651 5.37488H28.0751Z" fill="white"/>
<path d="M2.34495 3.95496H10.415V8.02496C10.415 9.06496 9.85498 10.0349 8.95498 10.5549L6.37496 12.0449L3.79496 10.5549C2.89496 10.0349 2.33496 9.06496 2.33496 8.02496V3.95496" fill="#FFDD2D"/>
<path fill-rule="evenodd" clip-rule="evenodd" d="M4.56506 6.09485V7.36485C4.73506 7.16485 5.05506 7.03485 5.41506 7.03485H5.80506V8.50485C5.80506 8.89485 5.69506 9.23485 5.54506 9.42485H7.24506C7.08506 9.23485 6.98506 8.89485 6.98506 8.50485V7.03485H7.37506C7.73506 7.03485 8.0451 7.16485 8.2251 7.36485V6.09485H4.58506" fill="#333333"/>
</svg>
