<svg width="64" height="16" viewBox="0 0 64 16" fill="none" xmlns="http://www.w3.org/2000/svg">
<g clip-path="url(#clip0_6886_145832)">
<g clip-path="url(#clip1_6886_145832)">
<path d="M32.8608 4.998H30.7558L29.2663 7.60265H28.4995L28.4751 1.9657H26.4825V12.1463H28.4751L28.4995 9.35205H29.2614L31.2393 12.1463H33.4468L30.8681 8.44334L32.8608 4.998Z" fill="white"/>
<path d="M47.9417 8.35101C47.5369 8.09033 47.0982 7.88593 46.6378 7.74358L46.1982 7.57835L46.0792 7.53392C45.8063 7.4321 45.5194 7.32502 45.5096 7.04865C45.5071 6.96658 45.5254 6.88523 45.563 6.81216C45.6006 6.73909 45.6561 6.67666 45.7245 6.63075C45.8688 6.53178 46.0379 6.47457 46.2129 6.46552C46.5945 6.4393 46.9727 6.55153 47.2776 6.78138L47.3313 6.8154L48.3959 5.59568L48.3422 5.55195C48.2096 5.43437 48.0657 5.33019 47.9124 5.24094C47.6378 5.08463 47.3392 4.97461 47.0285 4.91535C46.581 4.82061 46.1183 4.82061 45.6708 4.91535C45.2381 4.97234 44.8276 5.13975 44.4792 5.4013C44.2563 5.57479 44.0701 5.79025 43.931 6.03538C43.7919 6.28054 43.7027 6.55055 43.6685 6.82999C43.6074 7.33429 43.7361 7.8432 44.0298 8.25869C44.4201 8.6886 44.9301 8.99312 45.495 9.13339L45.5829 9.16251L45.7831 9.23054C46.5059 9.4735 46.711 9.57071 46.8282 9.71652C46.8827 9.78986 46.9134 9.87802 46.9161 9.96919C46.9161 10.3142 46.4912 10.4551 46.2031 10.5426C46.0016 10.5802 45.7945 10.5764 45.5946 10.5313C45.3947 10.4861 45.2062 10.4007 45.0408 10.2802C44.7731 10.1021 44.5439 9.87237 44.3668 9.60472C44.3373 9.63538 44.2394 9.73275 44.1114 9.86002C43.7522 10.2173 43.1559 10.8101 43.1703 10.8245L43.2045 10.8731C43.7364 11.5356 44.4815 11.9955 45.3143 12.1754C45.5046 12.212 45.6971 12.2363 45.8906 12.2483H46.0908C46.7487 12.262 47.3932 12.0624 47.9271 11.6797C48.2882 11.4255 48.5653 11.0704 48.7231 10.6592C48.8192 10.3833 48.8532 10.0897 48.8228 9.79913C48.7924 9.50861 48.6984 9.22829 48.5474 8.97786C48.3929 8.72816 48.1864 8.51438 47.9417 8.35101Z" fill="white"/>
<path d="M53.0799 7.74341C53.5388 7.88582 53.9759 8.09016 54.379 8.35084C54.6193 8.51421 54.8223 8.72612 54.9748 8.97282C55.1259 9.22324 55.2198 9.50361 55.2502 9.79408C55.2805 10.0846 55.2469 10.3782 55.1507 10.6542C54.9928 11.0653 54.7157 11.4205 54.3546 11.6747C53.8207 12.0574 53.1761 12.2569 52.5183 12.2432H52.318C52.1246 12.2316 51.9321 12.2072 51.7418 12.1704C50.9089 11.9905 50.1639 11.5305 49.632 10.868L49.5929 10.8194C49.5833 10.8067 50.0544 10.3366 50.4102 9.98136C50.5972 9.79479 50.7524 9.63988 50.7894 9.59972C50.9691 9.86523 51.1978 10.0944 51.4634 10.2752C51.6297 10.3958 51.819 10.4813 52.0197 10.5264C52.2204 10.5715 52.4283 10.5754 52.6306 10.5376C52.9188 10.4501 53.3387 10.3092 53.3387 9.96414C53.3414 9.87291 53.312 9.78355 53.2558 9.71147C53.1385 9.56571 52.9334 9.4685 52.2057 9.22554L52.0055 9.15752L51.9225 9.12833C51.3576 8.98807 50.8475 8.68355 50.4574 8.25364C50.161 7.83941 50.032 7.32946 50.0959 6.82494C50.1317 6.54555 50.2226 6.27593 50.3634 6.03159C50.5042 5.78725 50.6921 5.57299 50.9164 5.40114C51.2657 5.1411 51.6758 4.97387 52.1081 4.91519C52.5572 4.82034 53.0214 4.82034 53.4706 4.91519C53.7797 4.97462 54.0768 5.08464 54.3497 5.24078C54.5053 5.3288 54.651 5.43305 54.7844 5.55178L54.8332 5.59551L53.7685 6.81523L53.7197 6.78122C53.4144 6.55213 53.0365 6.44001 52.655 6.46535C52.48 6.4744 52.3109 6.53162 52.1667 6.63058C52.0998 6.67836 52.0451 6.74101 52.0069 6.81358C51.9688 6.88616 51.9482 6.96658 51.9469 7.04848C51.9615 7.32546 52.2448 7.43237 52.5232 7.53446L52.6355 7.57818L53.0799 7.74341Z" fill="white"/>
<path fill-rule="evenodd" clip-rule="evenodd" d="M39.4046 4.99789V5.69765H39.3167C38.7712 5.15426 38.0324 4.84692 37.2606 4.84239C36.7875 4.83309 36.3177 4.92304 35.8818 5.10641C35.446 5.28977 35.0537 5.56242 34.7308 5.90661C34.0796 6.63232 33.7303 7.57751 33.7541 8.55018C33.7288 9.53914 34.0773 10.5016 34.7308 11.2472C35.0461 11.5916 35.4321 11.8644 35.8627 12.0472C36.2933 12.23 36.7584 12.3184 37.2264 12.3065C37.9992 12.2921 38.7423 12.0083 39.3264 11.5047H39.4046V12.1316H41.4753V4.99789H39.4046ZM39.5071 8.58902C39.5279 9.16392 39.3349 9.72621 38.9651 10.1684C38.7877 10.3659 38.569 10.5222 38.3242 10.6264C38.0795 10.7305 37.8148 10.7798 37.5487 10.7709C37.2908 10.7752 37.0351 10.7215 36.8009 10.6139C36.5666 10.5062 36.3598 10.3472 36.196 10.1489C35.8305 9.69763 35.6429 9.1292 35.6685 8.55018C35.6519 7.98855 35.8431 7.44036 36.2057 7.00968C36.3727 6.81439 36.581 6.65821 36.8157 6.55239C37.0504 6.44652 37.3058 6.39364 37.5634 6.39742C37.8276 6.38925 38.0904 6.43944 38.3328 6.54449C38.5752 6.64954 38.7911 6.80676 38.9651 7.00485C39.3348 7.44892 39.5277 8.01269 39.5071 8.58902Z" fill="white"/>
<path fill-rule="evenodd" clip-rule="evenodd" d="M61.9283 5.6977V4.99795H63.9989V12.1316H61.9283V11.5048H61.85C61.2662 12.0084 60.5231 12.2921 59.7501 12.3066C59.2822 12.3185 58.8171 12.2301 58.3862 12.0473C57.9559 11.8645 57.5697 11.5916 57.2546 11.2472C56.6009 10.5016 56.2522 9.53918 56.2775 8.55022C56.2538 7.57755 56.6031 6.63236 57.2546 5.90665C57.5785 5.56282 57.9719 5.29046 58.4083 5.10715C58.8447 4.92384 59.3153 4.83367 59.7893 4.84244C60.5595 4.84825 61.296 5.15548 61.84 5.6977H61.9283ZM61.4886 10.1684C61.8604 9.7274 62.0541 9.16429 62.0309 8.58906C62.0535 8.0124 61.8604 7.44781 61.4886 7.00489C61.3148 6.8068 61.0985 6.64958 60.8563 6.54453C60.6141 6.43954 60.3515 6.38929 60.0872 6.39746C59.8295 6.39368 59.5741 6.44656 59.3391 6.55243C59.1046 6.65825 58.8966 6.81443 58.7294 7.00978C58.3669 7.44046 58.1755 7.98859 58.192 8.55022C58.1666 9.12924 58.3542 9.69767 58.7195 10.149C58.8833 10.3473 59.0902 10.5062 59.3247 10.6139C59.5586 10.7216 59.8146 10.7753 60.0723 10.771C60.3382 10.7799 60.6031 10.7306 60.848 10.6265C61.0924 10.5223 61.3115 10.3659 61.4886 10.1684Z" fill="white"/>
<path fill-rule="evenodd" clip-rule="evenodd" d="M6.3621 7.97905C6.37357 3.75976 9.84855 0.320007 14.2152 0.320007C18.5395 0.320007 22.1182 3.77115 22.0685 8.00001C22.0685 12.2289 18.5395 15.68 14.2152 15.68C9.8981 15.68 6.37363 12.2886 6.3621 8.02107V13.7357H3.57867L0 2.55595H6.3621V7.97905ZM11.2827 8.00001C11.2827 9.55543 12.6247 10.8679 14.2152 10.8679C15.8555 10.8679 17.1478 9.55543 17.1478 8.00001C17.1478 6.44459 15.8058 5.13216 14.2152 5.13216C12.6247 5.13216 11.2827 6.44459 11.2827 8.00001Z" fill="#0070F0"/>
</g>
</g>
<defs>
<clipPath id="clip0_6886_145832">
<rect width="64" height="16" fill="white"/>
</clipPath>
<clipPath id="clip1_6886_145832">
<rect width="64" height="15.36" fill="white" transform="translate(0 0.320007)"/>
</clipPath>
</defs>
</svg>
