<svg width="24" height="24" viewBox="0 0 24 24" fill="none" xmlns="http://www.w3.org/2000/svg">
<path d="M23.8038 13.8792C24.8447 7.39161 20.4294 1.28885 13.9419 0.248307C7.45447 -0.792238 1.35148 3.62346 0.31055 10.111C-0.730379 16.5986 3.68493 22.7013 10.1724 23.7419C16.6599 24.7824 22.7629 20.3668 23.8038 13.8792Z" fill="#E84142"/>
<path fill-rule="evenodd" clip-rule="evenodd" d="M8.67618 16.7333H6.36739C5.88211 16.7333 5.64269 16.7333 5.49633 16.6399C5.33866 16.5375 5.24206 16.3682 5.23042 16.1811C5.2217 16.0086 5.34157 15.7982 5.5813 15.3776L11.2819 5.32925C11.5245 4.90244 11.6473 4.6892 11.8021 4.61036C11.9688 4.52571 12.1675 4.52571 12.3339 4.61036C12.4886 4.6892 12.6114 4.90277 12.854 5.32925L14.0259 7.3751L14.0317 7.38544C14.2937 7.84327 14.4265 8.07525 14.4847 8.31887C14.549 8.58478 14.549 8.86523 14.4847 9.13146C14.4262 9.37701 14.2947 9.61061 14.0288 10.0755L11.0344 15.3688L11.0266 15.3824C10.763 15.8438 10.6293 16.0777 10.4441 16.2544C10.2425 16.4473 9.99987 16.5876 9.73397 16.6667C9.49165 16.7333 9.21994 16.7333 8.67618 16.7333Z" fill="white"/>
<path fill-rule="evenodd" clip-rule="evenodd" d="M14.5073 16.7325H17.8154C18.3036 16.7325 18.5491 16.7325 18.6952 16.6362C18.8528 16.5338 18.9524 16.3613 18.9611 16.1745C18.9695 16.0078 18.8522 15.8056 18.6225 15.4091C18.6144 15.3955 18.6066 15.382 18.5986 15.3678L16.9415 12.5329L16.9227 12.5009C16.6898 12.1071 16.5722 11.9084 16.4213 11.8315C16.2549 11.7468 16.0588 11.7468 15.8924 11.8315C15.7405 11.9103 15.6178 12.1177 15.3751 12.5358L13.7238 15.3707L13.718 15.3804C13.4763 15.7975 13.3555 16.0062 13.3642 16.1771C13.3758 16.3642 13.4724 16.5364 13.6301 16.6388C13.7739 16.7325 14.0194 16.7325 14.5073 16.7325Z" fill="white"/>
</svg>
