<svg width="20" height="20" viewBox="0 0 20 20" fill="none" xmlns="http://www.w3.org/2000/svg">
<path d="M10 0C15.5229 0 20 4.47627 20 9.99823C20 15.5202 15.5229 19.9965 10 19.9965C4.47706 19.9965 0 15.5202 0 9.99823C0 4.47627 4.47706 0 10 0Z" fill="#F0B90B"/>
<path d="M7.41207 8.92423L8.92615 7.41558L9.24553 7.09625L10.0022 6.33975L12.5787 8.92423L14.0786 7.41558L10.0022 3.33276L5.91211 7.41558L7.41207 8.92423Z" fill="white"/>
<path d="M10.0042 8.48899L8.49805 9.99487L10.0042 11.5008L11.5103 9.99487L10.0042 8.48899Z" fill="white"/>
<path d="M12.5787 11.0752L10.0014 13.6523L9.09616 12.7473L8.92968 12.5809L7.41207 11.0752L5.91211 12.5749L10.0022 16.6574L14.0786 12.5749L12.5787 11.0752Z" fill="white"/>
<path d="M4.83915 8.49339L3.33301 9.99927L4.83916 11.5051L6.3453 9.99927L4.83915 8.49339Z" fill="white"/>
<path d="M15.1604 8.4929L13.6543 9.99878L15.1604 11.5047L16.6666 9.99878L15.1604 8.4929Z" fill="white"/>
</svg>
