<svg width="20" height="20" viewBox="0 0 20 20" fill="none" xmlns="http://www.w3.org/2000/svg">
<path d="M19.6986 12.419C18.363 17.7762 12.937 21.0365 7.57919 19.7006C2.22361 18.365 -1.03667 12.9387 0.299485 7.58197C1.63447 2.22419 7.06044 -1.03634 12.4166 0.299234C17.7741 1.63481 21.0341 7.0617 19.6984 12.4191L19.6985 12.419H19.6986Z" fill="url(#paint0_linear_2732_121020)"/>
<path d="M10.6851 3.75732L10.2446 5.52393C10.539 5.59111 10.8352 5.65903 11.1235 5.73096L11.561 3.97607L12.6587 4.24951L12.2085 6.05225C13.5072 6.49958 14.4795 7.15589 14.4321 8.33252L14.4087 8.57568C14.2646 9.54966 13.7243 10.0217 13.0073 10.187C13.9917 10.6996 14.4933 11.4855 14.0161 12.8481C13.4238 14.5403 12.0161 14.6827 10.145 14.3286L9.69189 16.1489L8.59424 15.8755L9.04248 14.0796C8.758 14.0089 8.46691 13.9343 8.16748 13.853L7.71826 15.6567L6.62158 15.3833L7.07568 13.5601C6.81944 13.4945 6.55898 13.4245 6.29346 13.3579L4.86572 13.0024L5.41064 11.7466C5.42552 11.7505 6.21939 11.9606 6.2085 11.9448C6.51896 12.0216 6.65616 11.819 6.71045 11.6841L7.42822 8.80811C7.46863 8.81778 7.50783 8.82734 7.54443 8.83643C7.50065 8.81883 7.46077 8.80709 7.43018 8.79932L7.94189 6.74561C7.95511 6.51255 7.87509 6.21878 7.43115 6.10791C7.44559 6.09602 6.64959 5.91318 6.63428 5.90967L6.92627 4.73779L8.43896 5.11572L8.43799 5.12158C8.66528 5.17813 8.89967 5.23134 9.13818 5.28564L9.58838 3.48389L10.6851 3.75732ZM8.52393 12.5327C9.26768 12.7174 11.5614 13.4533 11.9009 12.0913H11.9019C12.2562 10.6702 9.87026 10.3024 9.12646 10.1167L8.52393 12.5327ZM9.40283 9.01123C10.0035 9.16104 11.8137 9.75586 12.2075 8.6665L12.2407 8.55518C12.5625 7.26256 10.5681 6.97422 9.94873 6.81982L9.40283 9.01123Z" fill="white"/>
<rect x="12.9" y="0.898779" width="6.2" height="6.19894" rx="3.09947" stroke="white" stroke-width="0.2"/>
<path d="M16 0.998779C17.6569 0.998779 19 2.34166 19 3.99825C19 5.65483 17.6569 6.99771 16 6.99771C14.3431 6.99771 13 5.65483 13 3.99825C13 2.34166 14.3431 0.998779 16 0.998779Z" fill="#F0B90B"/>
<path d="M15.2239 3.67598L15.6781 3.22338L15.774 3.12758L16.0009 2.90063L16.7739 3.67598L17.2239 3.22338L16.0009 1.99854L14.7739 3.22338L15.2239 3.67598Z" fill="white"/>
<path d="M16.0012 3.54555L15.5493 3.99731L16.0012 4.44908L16.453 3.99731L16.0012 3.54555Z" fill="white"/>
<path d="M16.7739 4.32129L16.0007 5.09443L15.7291 4.82292L15.6792 4.77299L15.2239 4.32129L14.7739 4.7712L16.0009 5.99596L17.2239 4.7712L16.7739 4.32129Z" fill="white"/>
<path d="M14.4518 3.54677L14 3.99854L14.4518 4.4503L14.9037 3.99854L14.4518 3.54677Z" fill="white"/>
<path d="M17.5485 3.54653L17.0967 3.99829L17.5485 4.45006L18.0004 3.99829L17.5485 3.54653Z" fill="white"/>
<defs>
<linearGradient id="paint0_linear_2732_121020" x1="0" y1="0" x2="0" y2="20" gradientUnits="userSpaceOnUse">
<stop stop-color="#FCC538"/>
<stop offset="1" stop-color="#F7931A"/>
</linearGradient>
</defs>
</svg>
