<svg width="20" height="20" viewBox="0 0 20 20" fill="none" xmlns="http://www.w3.org/2000/svg">
<g clip-path="url(#clip0_1537_238845)">
<path d="M19.7027 12.4135C18.3684 17.7674 12.9458 21.0366 7.58208 19.7014C2.22819 18.363 -1.03581 12.9404 0.29857 7.5865C1.63295 2.23263 7.05226 -1.03663 12.4029 0.298561C17.7698 1.61739 21.0339 7.05635 19.7027 12.4135Z" fill="#F7931A"/>
<path d="M14.7356 8.68665C14.9153 7.35331 13.9023 6.65723 12.5134 6.18664L12.9448 4.38272L11.8467 4.11801L11.4284 5.88272C11.1376 5.81409 10.8435 5.74547 10.5526 5.68664L10.9709 3.92193L9.8598 3.65723L9.42842 5.46115C9.19313 5.40559 8.95457 5.36311 8.71927 5.30756L7.2062 4.94481L6.92842 6.11148C6.92842 6.11148 7.74868 6.29122 7.71927 6.30756C8.16372 6.41867 8.24868 6.70952 8.23234 6.93174L7.74542 8.9873C7.77483 9.00037 7.81404 9.00037 7.85653 9.02978C7.81404 9.01671 7.7879 9.01671 7.74542 9.00364L7.07875 11.8795C7.02319 12.0167 6.88267 12.2128 6.57875 12.1442C6.59182 12.1572 5.77156 11.9481 5.77156 11.9481L5.25195 13.2128L6.68333 13.5461C6.94803 13.6148 7.21274 13.6703 7.4611 13.7422L7.02973 15.5625L8.12777 15.8272L8.55914 14.0233C8.86633 14.105 9.15718 14.1768 9.43496 14.2455L9.00359 16.0363L10.1016 16.301L10.533 14.4808C12.4088 14.8141 13.8108 14.6605 14.3794 12.9514C14.8369 11.5886 14.3369 10.8108 13.3369 10.2978C14.0689 10.1311 14.5984 9.65724 14.7356 8.68665ZM12.265 12.2259C11.9448 13.5886 9.64084 12.8795 8.90228 12.6997L9.47091 10.2814C10.2225 10.4644 12.5984 10.7978 12.265 12.2259ZM12.5689 8.68665C12.2781 9.92194 10.3598 9.32717 9.73561 9.17357L10.265 6.98076C10.8761 7.13109 12.8761 7.39579 12.5689 8.68665Z" fill="white"/>
</g>
<defs>
<clipPath id="clip0_1537_238845">
<rect width="20" height="20" fill="white"/>
</clipPath>
</defs>
</svg>
