<svg width="20" height="20" viewBox="0 0 20 20" fill="none" xmlns="http://www.w3.org/2000/svg">
<path d="M10 0C15.5234 0 20 4.47754 20 10C20 15.5234 15.5234 20 10 20C4.47754 20 0 15.5229 0 10C0 4.47754 4.47754 0 10 0Z" fill="#F5AC37"/>
<path d="M10.0498 4.43848C10.3899 4.45198 10.7282 4.48914 11.0625 4.55078C11.7513 4.67815 12.4134 4.92498 13.0186 5.27637C13.4198 5.51257 13.7893 5.79759 14.1182 6.12598C14.3657 6.38292 14.5891 6.66094 14.7871 6.95703C14.9837 7.25712 15.1472 7.57792 15.2754 7.91309C15.2911 8.00039 15.3746 8.05977 15.4619 8.04492H16.5801C16.7236 8.04492 16.7242 8.04492 16.7305 8.18262V9.20801C16.7304 9.30754 16.6929 9.33298 16.5928 9.33301H15.7295C15.6426 9.33301 15.6177 9.33302 15.624 9.44531C15.6582 9.82598 15.6582 10.2082 15.624 10.5889C15.624 10.6949 15.624 10.707 15.7432 10.707H16.7295C16.7731 10.7633 16.7295 10.8203 16.7295 10.877C16.7358 10.9493 16.7358 11.0224 16.7295 11.0947V11.8516C16.7295 11.9576 16.6985 11.9893 16.6045 11.9893H15.3633C15.3052 12.0012 15.2565 12.0462 15.2422 12.1074C14.9609 12.8387 14.5111 13.4949 13.9297 14.0205C13.7173 14.2118 13.4938 14.3916 13.2607 14.5576C13.0105 14.7016 12.7672 14.8519 12.5107 14.9707C12.0387 15.1831 11.5432 15.339 11.0352 15.4385C10.5529 15.5248 10.064 15.5644 9.57324 15.5576H5.23535V15.5518L5.2373 15.5498V12.0938C5.2373 12.0126 5.23714 12 5.1377 12H3.78125C3.7061 12 3.6748 12.0003 3.6748 11.9004V10.7129H5.125C5.20579 10.7129 5.2373 10.7125 5.2373 10.6064V9.43164C5.2373 9.35666 5.23718 9.33794 5.1377 9.33789H3.78125C3.70611 9.33789 3.67482 9.33813 3.6748 9.23828V8.13867C3.6748 8.06989 3.6748 8.05082 3.77441 8.05078H5.11816C5.21168 8.05078 5.23726 8.05111 5.2373 7.93262V4.56348C5.2373 4.46366 5.23726 4.43848 5.3623 4.43848H10.0498ZM13.5488 12.0059H6.61816C6.52467 12.0059 6.49323 12.0061 6.49316 12.1309V14.2998C6.49316 14.3997 6.49308 14.4258 6.61816 14.4258H9.81836C9.97129 14.4375 10.1246 14.4265 10.2744 14.3945C10.7387 14.3612 11.1954 14.2598 11.6309 14.0938C11.7892 14.0389 11.9425 13.9678 12.0869 13.8818H12.1299C12.88 13.4917 13.4897 12.8784 13.874 12.126C13.8764 12.1207 13.9163 12.0311 13.8691 12.0068V12.0059C13.7629 11.9942 13.655 11.9942 13.5488 12.0059ZM6.6123 9.33105C6.5187 9.33105 6.49316 9.36244 6.49316 9.4502V10.5625C6.49316 10.7059 6.49308 10.7061 6.64258 10.7061H14.168C14.2489 10.7061 14.2871 10.7058 14.293 10.5996C14.324 10.2131 14.324 9.82442 14.293 9.4375C14.293 9.36235 14.2553 9.33105 14.1738 9.33105H6.6123ZM6.59863 5.625C6.50503 5.625 6.49219 5.66269 6.49219 5.74414V7.96289C6.49219 8.05618 6.49269 8.08105 6.61133 8.08105H13.8232C13.8258 8.08053 13.8861 8.06782 13.8984 8.03125H13.8682L13.876 7.9873C13.8759 7.97267 13.8735 7.95815 13.8682 7.94434C13.8048 7.80635 13.7297 7.6744 13.6426 7.55078C13.5112 7.33928 13.3561 7.1438 13.1797 6.96875C13.0965 6.86311 13.0005 6.76799 12.8926 6.6875C12.3517 6.22715 11.7078 5.90111 11.0166 5.7373C10.668 5.65907 10.3113 5.62185 9.9541 5.625H6.59863Z" fill="#FEFEFD"/>
<circle cx="16" cy="4" r="3" fill="#EDF0F4"/>
<path d="M16.9001 3.39743C16.8362 3.36063 16.7539 3.36063 16.6808 3.39743L16.1691 3.70099L15.8218 3.89416L15.3192 4.19773C15.2552 4.23452 15.173 4.23452 15.0999 4.19773L14.7069 3.95856C14.643 3.92176 14.5973 3.84817 14.5973 3.76538V3.30544C14.5973 3.23185 14.6338 3.15826 14.7069 3.11227L15.0999 2.8823C15.1638 2.8455 15.2461 2.8455 15.3192 2.8823L15.7121 3.12146C15.7761 3.15826 15.8218 3.23185 15.8218 3.31464V3.6182L16.1691 3.41583V3.10307C16.1691 3.02948 16.1325 2.95589 16.0594 2.90989L15.3283 2.47755C15.2644 2.44075 15.1821 2.44075 15.109 2.47755L14.3597 2.91909C14.2866 2.95589 14.25 3.02948 14.25 3.10307V3.96776C14.25 4.04135 14.2866 4.11494 14.3597 4.16093L15.0999 4.59327C15.1638 4.63007 15.2461 4.63007 15.3192 4.59327L15.8218 4.29891L16.1691 4.09654L16.6717 3.80218C16.7356 3.76538 16.8179 3.76538 16.891 3.80218L17.2839 4.03215C17.3479 4.06894 17.3936 4.14253 17.3936 4.22532V4.68526C17.3936 4.75885 17.357 4.83244 17.2839 4.87844L16.9001 5.10841C16.8362 5.1452 16.7539 5.1452 16.6808 5.10841L16.2879 4.87844C16.2239 4.84164 16.1782 4.76805 16.1782 4.68526V4.3909L15.8309 4.59327V4.89684C15.8309 4.97043 15.8675 5.04402 15.9406 5.09001L16.6808 5.52235C16.7448 5.55915 16.827 5.55915 16.9001 5.52235L17.6403 5.09001C17.7043 5.05322 17.75 4.97962 17.75 4.89684V4.02295C17.75 3.94936 17.7134 3.87577 17.6403 3.82977L16.9001 3.39743Z" fill="#8247E5"/>
</svg>
