<svg width="20" height="20" viewBox="0 0 20 20" fill="none" xmlns="http://www.w3.org/2000/svg">
<g clip-path="url(#clip0_2739_11104)">
<path d="M19.7027 12.4135C18.3684 17.7674 12.9458 21.0366 7.58209 19.7014C2.2282 18.363 -1.03581 12.9404 0.29857 7.5865C1.63295 2.23263 7.05226 -1.03663 12.4029 0.298561C17.7699 1.61739 21.0339 7.05635 19.7027 12.4135Z" fill="#C8C8C8"/>
<path d="M10.1165 12.426C10.0777 12.4392 10.0555 12.4054 10.0291 12.3899C8.73407 11.6255 7.44044 10.8607 6.14823 10.0953C6.13571 10.089 6.12272 10.0837 6.10938 10.0794V10.0623L6.1323 10.0491C6.16485 10.0405 6.19689 10.0301 6.22826 10.018L9.28007 8.62943C9.55203 8.50549 9.82399 8.3835 10.096 8.26073H10.1154C10.1154 8.29958 10.1154 8.33416 10.1154 8.37106C10.1164 9.72284 10.1168 11.0745 10.1165 12.426Z" fill="#343535"/>
<path d="M10.1185 8.26167H10.099C10.099 8.22282 10.1029 8.18396 10.1029 8.14317C10.1029 6.62485 10.1029 5.10639 10.1029 3.58781C10.0985 3.54881 10.1011 3.50932 10.1107 3.47125H10.1189C10.2785 3.70708 10.4176 3.95573 10.5645 4.19933C11.728 6.12923 12.8908 8.05886 14.053 9.98824C14.0643 10.0073 14.0732 10.0271 14.0833 10.0481C14.0504 10.041 14.018 10.0316 13.9865 10.0197C13.7733 9.92336 13.5592 9.82545 13.3478 9.72715C13.0168 9.57563 12.6857 9.42437 12.3544 9.27337L10.7584 8.55034C10.5458 8.45243 10.3322 8.35724 10.1185 8.26167Z" fill="#2F3030"/>
<path d="M10.112 3.46925C10.1024 3.50731 10.0997 3.5468 10.1042 3.5858C10.1042 5.10413 10.1042 6.62258 10.1042 8.14116C10.1042 8.18001 10.1019 8.21887 10.1003 8.25966C9.82836 8.38243 9.5564 8.50443 9.28444 8.62836L6.23264 10.0169C6.20126 10.0291 6.16922 10.0395 6.13667 10.048C6.22487 9.86462 6.33948 9.69834 6.44399 9.52273C7.65487 7.50995 8.86665 5.49756 10.0793 3.48556C10.0874 3.47442 10.0961 3.46378 10.1054 3.45371L10.112 3.46925Z" fill="#828384"/>
<path d="M10.1185 8.26167C10.3322 8.35724 10.5459 8.45246 10.7592 8.54882L12.3552 9.27185C12.6868 9.42259 13.0179 9.57385 13.3487 9.72563C13.5616 9.82315 13.776 9.92183 13.9874 10.0182C14.0189 10.03 14.0512 10.0395 14.0841 10.0465C14.123 10.0951 14.0655 10.0971 14.048 10.1075C13.7166 10.3057 13.3836 10.5011 13.0515 10.6977C12.098 11.2618 11.1449 11.8258 10.192 12.3897C10.1679 12.4037 10.1418 12.414 10.1165 12.426C10.1165 11.0748 10.1166 9.72356 10.1166 8.37204C10.117 8.33513 10.1181 8.29858 10.1185 8.26167Z" fill="#131313"/>
<path d="M10.1029 13.1936L12.5991 11.7223C13.0757 11.441 13.552 11.1595 14.0281 10.8776L14.0712 10.854C14.0755 10.8928 14.0487 10.9134 14.0324 10.9359C12.9445 12.4695 11.8567 14.0026 10.7688 15.5352C10.5629 15.8258 10.3574 16.118 10.1495 16.4062C10.1386 16.4214 10.1219 16.4925 10.0885 16.4171C10.1149 16.3946 10.1033 16.3643 10.1033 16.3394C10.1035 15.2904 10.1034 14.2418 10.1029 13.1936Z" fill="#2F3030"/>
<path d="M10.1027 13.1938C10.1027 14.242 10.1027 15.29 10.1027 16.3377C10.1027 16.3645 10.1143 16.3948 10.0879 16.4154C10.0324 16.382 10.0083 16.3221 9.97136 16.2728C8.70997 14.496 7.44923 12.7189 6.18914 10.9416C6.17321 10.919 6.15845 10.8949 6.14213 10.8701C6.17477 10.851 6.19225 10.8771 6.21129 10.8883C7.48692 11.6415 8.76229 12.3954 10.0374 13.1499C10.0611 13.1647 10.0813 13.1798 10.1027 13.1938Z" fill="#828384"/>
<path d="M10.1123 3.46922L10.1029 3.45485C10.12 3.44397 10.1177 3.4599 10.1204 3.46806L10.1123 3.46922Z" fill="#393939"/>
<g clip-path="url(#clip1_2739_11104)">
<path d="M13.5425 2.82389V5.17589C13.5425 5.32709 13.6217 5.46389 13.7537 5.54069L15.7913 6.71669C15.9209 6.79109 16.0817 6.79109 16.2113 6.71669L18.2489 5.54069C18.3785 5.46629 18.4601 5.32709 18.4601 5.17589V2.82389C18.4601 2.67269 18.3809 2.53589 18.2489 2.45909L16.2113 1.28309C16.0817 1.20869 15.9209 1.20869 15.7913 1.28309L13.7537 2.45909C13.6241 2.53349 13.5449 2.67269 13.5449 2.82389H13.5425Z" fill="#213147"/>
<path d="M16.4442 4.45598L16.1538 5.25278C16.1466 5.27438 16.1466 5.29838 16.1538 5.32238L16.653 6.69278L17.2314 6.35918L16.5378 4.45598C16.521 4.41278 16.461 4.41278 16.4442 4.45598Z" fill="#12AAFF"/>
<path d="M17.0271 3.11687C17.0103 3.07367 16.9503 3.07367 16.9335 3.11687L16.6431 3.91367C16.6359 3.93527 16.6359 3.95927 16.6431 3.98327L17.4615 6.22727L18.0399 5.89367L17.0271 3.11927V3.11687Z" fill="#12AAFF"/>
<path d="M16 1.372C16.0144 1.372 16.0288 1.3768 16.0408 1.384L18.244 2.656C18.2704 2.6704 18.2848 2.6992 18.2848 2.728V5.272C18.2848 5.3008 18.268 5.3296 18.244 5.344L16.0408 6.616C16.0288 6.6232 16.0144 6.628 16 6.628C15.9856 6.628 15.9712 6.6232 15.9592 6.616L13.756 5.344C13.7296 5.3296 13.7152 5.3008 13.7152 5.272V2.7256C13.7152 2.6968 13.732 2.668 13.756 2.6536L15.9592 1.3816C15.9712 1.3744 15.9856 1.3696 16 1.3696V1.372ZM16 1C15.9208 1 15.844 1.0192 15.772 1.06L13.5688 2.332C13.4272 2.4136 13.3408 2.5624 13.3408 2.7256V5.2696C13.3408 5.4328 13.4272 5.5816 13.5688 5.6632L15.772 6.9352C15.8416 6.976 15.9208 6.9952 16 6.9952C16.0792 6.9952 16.156 6.976 16.228 6.9352L18.4312 5.6632C18.5728 5.5816 18.6592 5.4328 18.6592 5.2696V2.7256C18.6592 2.5624 18.5728 2.4136 18.4312 2.332L16.2256 1.06C16.156 1.0192 16.0768 1 15.9976 1H16Z" fill="#9DCCED"/>
<path d="M14.541 6.22965L14.745 5.67285L15.153 6.01125L14.7714 6.36165L14.541 6.22965Z" fill="#213147"/>
<path d="M15.8128 2.54561H15.2536C15.2128 2.54561 15.1744 2.57201 15.16 2.61041L13.9624 5.89361L14.5408 6.22721L15.8608 2.61041C15.8728 2.57681 15.8488 2.54321 15.8152 2.54321L15.8128 2.54561Z" fill="white"/>
<path d="M16.7918 2.54561H16.2326C16.1918 2.54561 16.1534 2.57201 16.139 2.61041L14.771 6.35921L15.3494 6.69281L16.8374 2.61041C16.8494 2.57681 16.8254 2.54321 16.7918 2.54321V2.54561Z" fill="white"/>
</g>
</g>
<defs>
<clipPath id="clip0_2739_11104">
<rect width="20" height="20" fill="white"/>
</clipPath>
<clipPath id="clip1_2739_11104">
<rect width="6" height="6" fill="white" transform="translate(13 1)"/>
</clipPath>
</defs>
</svg>
