<svg width="24" height="24" viewBox="0 0 24 24" fill="none" xmlns="http://www.w3.org/2000/svg">
<circle cx="12" cy="12" r="12" fill="#EDF0F4"/>
<path d="M15.6005 9.59069C15.3446 9.44351 15.0157 9.44351 14.7232 9.59069L12.6762 10.8049L11.2872 11.5776L9.27676 12.7919C9.02089 12.9391 8.69191 12.9391 8.39948 12.7919L6.82768 11.8352C6.5718 11.688 6.38903 11.3937 6.38903 11.0625V9.22274C6.38903 8.92838 6.53525 8.63402 6.82768 8.45004L8.39948 7.53016C8.65535 7.38298 8.98433 7.38298 9.27676 7.53016L10.8486 8.48684C11.1044 8.63402 11.2872 8.92838 11.2872 9.25954V10.4738L12.6762 9.66428V8.41324C12.6762 8.11888 12.53 7.82452 12.2376 7.64054L9.31332 5.91117C9.05744 5.76399 8.72846 5.76399 8.43603 5.91117L5.43864 7.67734C5.14621 7.82452 5 8.11888 5 8.41324V11.872C5 12.1664 5.14621 12.4607 5.43864 12.6447L8.39948 14.3741C8.65535 14.5213 8.98433 14.5213 9.27676 14.3741L11.2872 13.1966L12.6762 12.3871L14.6867 11.2097C14.9426 11.0625 15.2715 11.0625 15.564 11.2097L17.1358 12.1296C17.3916 12.2767 17.5744 12.5711 17.5744 12.9023V14.742C17.5744 15.0364 17.4282 15.3308 17.1358 15.5147L15.6005 16.4346C15.3446 16.5818 15.0157 16.5818 14.7232 16.4346L13.1514 15.5147C12.8956 15.3675 12.7128 15.0732 12.7128 14.742V13.5646L11.3238 14.3741V15.5883C11.3238 15.8827 11.47 16.177 11.7624 16.361L14.7232 18.0904C14.9791 18.2376 15.3081 18.2376 15.6005 18.0904L18.5614 16.361C18.8172 16.2138 19 15.9195 19 15.5883V12.0928C19 11.7984 18.8538 11.504 18.5614 11.3201L15.6005 9.59069Z" fill="#8247E5"/>
</svg>
