<svg width="21" height="20" viewBox="0 0 21 20" fill="none" xmlns="http://www.w3.org/2000/svg">
<path d="M19.7106 12.4128C18.3762 17.7666 12.9536 21.0359 7.5899 19.7007C2.23601 18.3622 -1.028 12.9396 0.306383 7.58577C1.64077 2.2319 7.06007 -1.03737 12.4107 0.297829C17.7777 1.61666 21.0417 7.05562 19.7106 12.4128Z" fill="#151515"/>
<path d="M16.1847 13.0868L14.1211 15.2428C14.0763 15.2896 14.022 15.3269 13.9617 15.3524C13.9014 15.378 13.8363 15.3911 13.7706 15.3911H3.98858C3.94191 15.3911 3.89625 15.3778 3.85722 15.3529C3.81819 15.3279 3.78748 15.2924 3.76888 15.2507C3.75027 15.209 3.74458 15.1629 3.75249 15.1181C3.76041 15.0733 3.78159 15.0317 3.81343 14.9985L5.87849 12.8426C5.92323 12.7959 5.97733 12.7586 6.03744 12.7331C6.09756 12.7076 6.16241 12.6944 6.228 12.6942H16.0095C16.0561 12.6942 16.1018 12.7075 16.1409 12.7325C16.1798 12.7574 16.2105 12.7929 16.2292 12.8346C16.2478 12.8763 16.2535 12.9224 16.2456 12.9672C16.2376 13.012 16.2165 13.0536 16.1847 13.0868ZM14.1211 8.74544C14.0763 8.69861 14.022 8.66127 13.9617 8.63575C13.9014 8.61025 13.8363 8.59709 13.7706 8.59713H3.98858C3.94191 8.59713 3.89625 8.61041 3.85722 8.63535C3.81819 8.66028 3.78748 8.69578 3.76888 8.73747C3.75027 8.77918 3.74458 8.82527 3.75249 8.87009C3.76041 8.91489 3.78159 8.95647 3.81343 8.98973L5.87849 11.1456C5.92323 11.1924 5.97733 11.2296 6.03744 11.2551C6.09756 11.2806 6.16241 11.2939 6.228 11.294H16.0095C16.0561 11.294 16.1018 11.2807 16.1409 11.2557C16.1798 11.2308 16.2105 11.1953 16.2292 11.1536C16.2478 11.1119 16.2535 11.0658 16.2456 11.021C16.2376 10.9762 16.2165 10.9346 16.1847 10.9014L14.1211 8.74544ZM3.98858 7.19684H13.7706C13.8363 7.19687 13.9014 7.18372 13.9617 7.15821C14.022 7.13269 14.0763 7.09535 14.1211 7.04851L16.1847 4.8926C16.2165 4.85935 16.2376 4.81777 16.2456 4.77296C16.2535 4.72815 16.2478 4.68206 16.2292 4.64036C16.2105 4.59865 16.1798 4.56316 16.1409 4.53822C16.1018 4.51329 16.0561 4.5 16.0095 4.5H6.228C6.16241 4.50011 6.09756 4.51333 6.03744 4.53884C5.97733 4.56436 5.92323 4.60162 5.87849 4.64833L3.81396 6.80424C3.78215 6.83745 3.76098 6.879 3.75305 6.92375C3.74511 6.96851 3.75076 7.01457 3.7693 7.05625C3.78784 7.09793 3.81846 7.13343 3.85741 7.1584C3.89637 7.18338 3.94195 7.19673 3.98858 7.19684Z" fill="url(#paint0_linear_2732_121357)"/>
<defs>
<linearGradient id="paint0_linear_2732_121357" x1="4.80417" y1="15.6507" x2="14.763" y2="4.12671" gradientUnits="userSpaceOnUse">
<stop offset="0.08" stop-color="#9945FF"/>
<stop offset="0.3" stop-color="#8752F3"/>
<stop offset="0.5" stop-color="#5497D5"/>
<stop offset="0.6" stop-color="#43B4CA"/>
<stop offset="0.72" stop-color="#28E0B9"/>
<stop offset="0.97" stop-color="#19FB9B"/>
</linearGradient>
</defs>
</svg>
