<svg width="20" height="20" viewBox="0 0 20 20" fill="none" xmlns="http://www.w3.org/2000/svg">
<g clip-path="url(#clip0_1537_238849)">
<path d="M19.7027 12.4135C18.3684 17.7674 12.9458 21.0366 7.58209 19.7014C2.2282 18.363 -1.03581 12.9404 0.29857 7.5865C1.63296 2.23263 7.05226 -1.03663 12.4029 0.298561C17.7699 1.61739 21.0339 7.05635 19.7027 12.4135Z" fill="#0088CC"/>
<path fill-rule="evenodd" clip-rule="evenodd" d="M6.10899 5.02539H14.1208C14.3888 5.02539 14.6538 5.02539 15.011 5.20403C15.3683 5.38266 15.544 5.65062 15.7226 5.82628C15.7226 5.82628 15.7226 5.82628 15.7226 5.9156C15.9012 6.18355 15.9906 6.44853 15.9906 6.8058C15.9906 7.07376 15.9012 7.42805 15.7226 7.69601L10.6493 16.3331C10.56 16.5117 10.2921 16.601 10.1164 16.601C9.93776 16.601 9.67279 16.5117 9.58347 16.3331L4.59653 7.69601C4.50721 7.51737 4.32858 7.25239 4.23926 6.8058C4.23926 6.44853 4.32858 6.09423 4.41789 5.82628C4.59653 5.55832 4.86151 5.29335 5.12946 5.11471C5.57605 5.02539 5.93035 5.02539 6.10899 5.02539ZM9.49117 6.27287H6.10899C5.93035 6.27287 5.84103 6.27287 5.75171 6.27287C5.6624 6.27287 5.57308 6.36219 5.57308 6.45151C5.48376 6.54082 5.48376 6.63014 5.48376 6.71946C5.48376 6.80878 5.48376 6.80878 5.6624 7.07673L9.49117 13.7548V6.27287ZM10.7387 6.27287V13.7518L14.6567 7.07376C14.6567 6.98444 14.7461 6.89512 14.7461 6.71648C14.7461 6.62716 14.7461 6.53785 14.6567 6.44853C14.5674 6.35921 14.5674 6.35921 14.5674 6.35921C14.5674 6.35921 14.5674 6.35921 14.4781 6.35921C14.3888 6.35921 14.2995 6.26989 14.1208 6.26989H10.7387V6.27287Z" fill="white"/>
</g>
<defs>
<clipPath id="clip0_1537_238849">
<rect width="20" height="20" fill="white"/>
</clipPath>
</defs>
</svg>
