<svg width="20" height="20" viewBox="0 0 20 20" fill="none" xmlns="http://www.w3.org/2000/svg">
<g clip-path="url(#clip0_1537_238848)">
<path d="M19.7027 12.4135C18.3684 17.7674 12.9458 21.0366 7.58208 19.7014C2.22819 18.363 -1.03581 12.9404 0.29857 7.5865C1.63295 2.23263 7.05226 -1.03663 12.4029 0.298561C17.7698 1.61739 21.0339 7.05635 19.7027 12.4135Z" fill="#FF060A"/>
<path d="M15.9598 8.64172C15.3738 8.10071 14.5633 7.27455 13.9032 6.68862L13.8641 6.66127C13.7991 6.60908 13.7258 6.56815 13.6473 6.54018C12.0555 6.24331 4.64745 4.85856 4.50293 4.87614C4.46243 4.88181 4.42372 4.8965 4.38965 4.91911L4.35254 4.94841C4.30684 4.99481 4.27214 5.05088 4.25098 5.11247L4.24121 5.13786V5.27653V5.29801C5.07518 7.62025 8.3681 15.2276 9.01652 17.0127C9.05558 17.1338 9.1298 17.3643 9.26847 17.376H9.29972C9.37394 17.376 9.69034 16.958 9.69034 16.958C9.69034 16.958 15.3465 10.0987 15.9188 9.36827C15.9928 9.27829 16.0582 9.18151 16.1141 9.07921C16.1283 8.99917 16.1216 8.9168 16.0946 8.84013C16.0675 8.76346 16.0211 8.69511 15.9598 8.64172ZM11.1415 9.44053L13.5555 7.43861L14.9715 8.74328L11.1415 9.44053ZM10.204 9.30968L6.04782 5.90347L12.7723 7.14369L10.204 9.30968ZM10.579 10.2022L14.8328 9.5167L9.96963 15.376L10.579 10.2022ZM5.48338 6.24331L9.85635 9.9542L9.22355 15.3799L5.48338 6.24331Z" fill="white"/>
</g>
<defs>
<clipPath id="clip0_1537_238848">
<rect width="20" height="20" fill="white"/>
</clipPath>
</defs>
</svg>
