<svg width="21" height="20" viewBox="0 0 21 20" fill="none" xmlns="http://www.w3.org/2000/svg">
<path d="M19.7106 12.4128C18.3762 17.7666 12.9536 21.0359 7.5899 19.7007C2.23601 18.3622 -1.028 12.9396 0.306383 7.58577C1.64077 2.2319 7.06007 -1.03737 12.4107 0.297829C17.7777 1.61666 21.0417 7.05562 19.7106 12.4128Z" fill="#2775CA"/>
<path d="M4.18607 7.7916C2.97767 11 4.64437 14.625 7.89437 15.7916C8.01937 15.875 8.14437 16.0416 8.14437 16.1666V16.75C8.14437 16.8333 8.14437 16.875 8.10267 16.9166C8.06107 17.0833 7.89437 17.1666 7.72767 17.0833C5.39437 16.3333 3.60267 14.5416 2.85267 12.2083C1.60267 8.25 3.76937 4.0416 7.72767 2.7916C7.76937 2.75 7.85267 2.75 7.89437 2.75C8.06107 2.7916 8.14437 2.9166 8.14437 3.0833V3.6666C8.14437 3.875 8.06107 4 7.89437 4.0833C6.18607 4.7083 4.81107 6.0416 4.18607 7.7916Z" fill="white"/>
<path d="M11.9361 2.9583C11.9777 2.7916 12.1444 2.7083 12.3111 2.7916C14.6027 3.5416 16.4361 5.3333 17.1861 7.7083C18.4361 11.6666 16.2694 15.875 12.3111 17.125C12.2694 17.1666 12.1861 17.1666 12.1444 17.1666C11.9777 17.125 11.8944 17 11.8944 16.8333V16.25C11.8944 16.0416 11.9777 15.9166 12.1444 15.8333C13.8527 15.2083 15.2277 13.875 15.8527 12.125C17.0611 8.9166 15.3944 5.2916 12.1444 4.125C12.0194 4.0416 11.8944 3.875 11.8944 3.7083V3.125C11.8944 3.0416 11.8944 3 11.9361 2.9583Z" fill="white"/>
<path d="M10.1443 9.25002C11.8943 9.45832 12.7693 9.95832 12.7693 11.4166C12.7693 12.5416 11.936 13.4166 10.686 13.625V14.625C10.6443 14.8333 10.5193 14.9583 10.3526 14.9583H9.72763C9.51933 14.9166 9.39433 14.7916 9.39433 14.625V13.625C8.01933 13.4166 7.35263 12.6666 7.18603 11.625V11.5833C7.18603 11.4166 7.31104 11.2916 7.47763 11.2916H8.18603C8.31103 11.2916 8.43604 11.375 8.47763 11.5416C8.60263 12.1666 8.97763 12.625 10.061 12.625C10.8526 12.625 11.436 12.1667 11.436 11.5C11.436 10.8333 11.061 10.5833 9.89433 10.375C8.14433 10.1666 7.31103 9.62502 7.31103 8.25002C7.31103 7.20832 8.10263 6.37503 9.35263 6.20833V5.25003C9.39433 5.04163 9.51933 4.91663 9.68603 4.91663H10.311C10.5193 4.95833 10.6443 5.08333 10.6443 5.25003V6.25003C11.6026 6.33333 12.3526 7.04163 12.5193 7.95832V8.00002C12.5193 8.16663 12.3943 8.29163 12.2276 8.29163H11.561C11.436 8.29163 11.311 8.20832 11.2693 8.08332C11.061 7.45832 10.6443 7.20832 9.89433 7.20832C9.06103 7.20832 8.64433 7.58323 8.64433 8.16663C8.64433 8.75003 8.89433 9.08332 10.1443 9.25002Z" fill="white"/>
<circle cx="16" cy="4" r="3" fill="#EDF0F4"/>
<path d="M16.9001 3.39743C16.8362 3.36063 16.7539 3.36063 16.6808 3.39743L16.1691 3.70099L15.8218 3.89416L15.3192 4.19773C15.2552 4.23452 15.173 4.23452 15.0999 4.19773L14.7069 3.95856C14.643 3.92176 14.5973 3.84817 14.5973 3.76538V3.30544C14.5973 3.23185 14.6338 3.15826 14.7069 3.11227L15.0999 2.8823C15.1638 2.8455 15.2461 2.8455 15.3192 2.8823L15.7121 3.12146C15.7761 3.15826 15.8218 3.23185 15.8218 3.31464V3.6182L16.1691 3.41583V3.10307C16.1691 3.02948 16.1325 2.95589 16.0594 2.90989L15.3283 2.47755C15.2644 2.44075 15.1821 2.44075 15.109 2.47755L14.3597 2.91909C14.2866 2.95589 14.25 3.02948 14.25 3.10307V3.96776C14.25 4.04135 14.2866 4.11494 14.3597 4.16093L15.0999 4.59327C15.1638 4.63007 15.2461 4.63007 15.3192 4.59327L15.8218 4.29891L16.1691 4.09654L16.6717 3.80218C16.7356 3.76538 16.8179 3.76538 16.891 3.80218L17.2839 4.03215C17.3479 4.06894 17.3936 4.14253 17.3936 4.22532V4.68526C17.3936 4.75885 17.357 4.83244 17.2839 4.87844L16.9001 5.10841C16.8362 5.1452 16.7539 5.1452 16.6808 5.10841L16.2879 4.87844C16.2239 4.84164 16.1782 4.76805 16.1782 4.68526V4.3909L15.8309 4.59327V4.89684C15.8309 4.97043 15.8675 5.04402 15.9406 5.09001L16.6808 5.52235C16.7448 5.55915 16.827 5.55915 16.9001 5.52235L17.6403 5.09001C17.7043 5.05322 17.75 4.97962 17.75 4.89684V4.02295C17.75 3.94936 17.7134 3.87577 17.6403 3.82977L16.9001 3.39743Z" fill="#8247E5"/>
</svg>
