<svg width="21" height="20" viewBox="0 0 21 20" fill="none" xmlns="http://www.w3.org/2000/svg">
<path d="M19.7106 12.4128C18.3762 17.7666 12.9536 21.0359 7.5899 19.7007C2.23601 18.3622 -1.028 12.9396 0.306383 7.58577C1.64077 2.2319 7.06007 -1.03737 12.4107 0.297829C17.7777 1.61666 21.0417 7.05562 19.7106 12.4128Z" fill="#2775CA"/>
<path d="M4.18607 7.7916C2.97767 11 4.64437 14.625 7.89437 15.7916C8.01937 15.875 8.14437 16.0416 8.14437 16.1666V16.75C8.14437 16.8333 8.14437 16.875 8.10267 16.9166C8.06107 17.0833 7.89437 17.1666 7.72767 17.0833C5.39437 16.3333 3.60267 14.5416 2.85267 12.2083C1.60267 8.25 3.76937 4.0416 7.72767 2.7916C7.76937 2.75 7.85267 2.75 7.89437 2.75C8.06107 2.7916 8.14437 2.9166 8.14437 3.0833V3.6666C8.14437 3.875 8.06107 4 7.89437 4.0833C6.18607 4.7083 4.81107 6.0416 4.18607 7.7916Z" fill="white"/>
<path d="M11.9361 2.9583C11.9777 2.7916 12.1444 2.7083 12.3111 2.7916C14.6027 3.5416 16.4361 5.3333 17.1861 7.7083C18.4361 11.6666 16.2694 15.875 12.3111 17.125C12.2694 17.1666 12.1861 17.1666 12.1444 17.1666C11.9777 17.125 11.8944 17 11.8944 16.8333V16.25C11.8944 16.0416 11.9777 15.9166 12.1444 15.8333C13.8527 15.2083 15.2277 13.875 15.8527 12.125C17.0611 8.9166 15.3944 5.2916 12.1444 4.125C12.0194 4.0416 11.8944 3.875 11.8944 3.7083V3.125C11.8944 3.0416 11.8944 3 11.9361 2.9583Z" fill="white"/>
<path d="M10.1443 9.25002C11.8943 9.45832 12.7693 9.95832 12.7693 11.4166C12.7693 12.5416 11.936 13.4166 10.686 13.625V14.625C10.6443 14.8333 10.5193 14.9583 10.3526 14.9583H9.72763C9.51933 14.9166 9.39433 14.7916 9.39433 14.625V13.625C8.01933 13.4166 7.35263 12.6666 7.18603 11.625V11.5833C7.18603 11.4166 7.31104 11.2916 7.47763 11.2916H8.18603C8.31103 11.2916 8.43604 11.375 8.47763 11.5416C8.60263 12.1666 8.97763 12.625 10.061 12.625C10.8526 12.625 11.436 12.1667 11.436 11.5C11.436 10.8333 11.061 10.5833 9.89433 10.375C8.14433 10.1666 7.31103 9.62502 7.31103 8.25002C7.31103 7.20832 8.10263 6.37503 9.35263 6.20833V5.25003C9.39433 5.04163 9.51933 4.91663 9.68603 4.91663H10.311C10.5193 4.95833 10.6443 5.08333 10.6443 5.25003V6.25003C11.6026 6.33333 12.3526 7.04163 12.5193 7.95832V8.00002C12.5193 8.16663 12.3943 8.29163 12.2276 8.29163H11.561C11.436 8.29163 11.311 8.20832 11.2693 8.08332C11.061 7.45832 10.6443 7.20832 9.89433 7.20832C9.06103 7.20832 8.64433 7.58323 8.64433 8.16663C8.64433 8.75003 8.89433 9.08332 10.1443 9.25002Z" fill="white"/>
<path d="M18.9108 4.72405C18.5105 6.33021 16.8837 7.31099 15.2746 6.91043C13.6685 6.50889 12.6893 4.88211 13.0896 3.27595C13.4899 1.66979 15.1157 0.68901 16.7209 1.08957C18.331 1.48522 19.3102 3.11691 18.9108 4.72405Z" fill="#C8C8C8"/>
<path d="M16.0352 4.72761C16.0235 4.73157 16.0169 4.72143 16.0089 4.71677C15.6204 4.48747 15.2323 4.25801 14.8447 4.0284C14.8409 4.0265 14.837 4.0249 14.833 4.02362V4.01849L14.8399 4.01453C14.8496 4.01196 14.8593 4.00885 14.8687 4.0052L15.7842 3.58863C15.8658 3.55145 15.9474 3.51485 16.029 3.47802H16.0348C16.0348 3.48968 16.0348 3.50005 16.0348 3.51112C16.0351 3.91666 16.0352 4.32215 16.0352 4.72761Z" fill="#343535"/>
<path d="M16.0357 3.47831H16.0299C16.0299 3.46665 16.0311 3.45499 16.0311 3.44276C16.0311 2.98726 16.0311 2.53172 16.0311 2.07615C16.0297 2.06445 16.0305 2.0526 16.0334 2.04118H16.0359C16.0838 2.11193 16.1255 2.18653 16.1695 2.25961C16.5186 2.83857 16.8674 3.41746 17.2161 3.99628C17.2195 4.00199 17.2222 4.00793 17.2252 4.01423C17.2153 4.01212 17.2056 4.00927 17.1962 4.00572C17.1322 3.97681 17.0679 3.94744 17.0045 3.91795C16.9052 3.87249 16.8059 3.82712 16.7065 3.78181L16.2277 3.56491C16.1639 3.53553 16.0998 3.50698 16.0357 3.47831Z" fill="#2F3030"/>
<path d="M16.0338 2.04058C16.0309 2.052 16.0301 2.06384 16.0315 2.07555C16.0315 2.53104 16.0315 2.98658 16.0315 3.44215C16.0315 3.45381 16.0308 3.46546 16.0303 3.4777C15.9487 3.51453 15.8671 3.55113 15.7855 3.58831L14.87 4.00488C14.8606 4.00853 14.851 4.01164 14.8412 4.01421C14.8677 3.95919 14.902 3.90931 14.9334 3.85662C15.2967 3.25279 15.6602 2.64907 16.024 2.04547C16.0264 2.04213 16.029 2.03894 16.0318 2.03592L16.0338 2.04058Z" fill="#828384"/>
<path d="M16.0357 3.47831C16.0998 3.50698 16.164 3.53554 16.228 3.56445L16.7068 3.78136C16.8062 3.82658 16.9056 3.87196 17.0048 3.9175C17.0687 3.94675 17.133 3.97636 17.1964 4.00526C17.2059 4.00882 17.2156 4.01166 17.2254 4.01377C17.2371 4.02834 17.2198 4.02892 17.2146 4.03207C17.1152 4.09151 17.0153 4.15014 16.9156 4.20912C16.6296 4.37835 16.3437 4.54755 16.0578 4.71671C16.0506 4.72091 16.0427 4.724 16.0352 4.72761C16.0352 4.32223 16.0352 3.91687 16.0352 3.51142C16.0353 3.50034 16.0356 3.48938 16.0357 3.47831Z" fill="#131313"/>
<path d="M16.0311 4.95788L16.7799 4.51649C16.9229 4.4321 17.0658 4.34764 17.2086 4.2631L17.2216 4.25599C17.2228 4.26765 17.2148 4.27382 17.2099 4.28058C16.8835 4.74066 16.5572 5.20059 16.2308 5.66036C16.1691 5.74755 16.1074 5.83519 16.045 5.92168C16.0418 5.92622 16.0368 5.94755 16.0268 5.92494C16.0347 5.91818 16.0312 5.90909 16.0312 5.90163C16.0313 5.58693 16.0312 5.27235 16.0311 4.95788Z" fill="#2F3030"/>
<path d="M16.031 4.95794C16.031 5.27241 16.031 5.5868 16.031 5.90111C16.031 5.90915 16.0345 5.91824 16.0266 5.92442C16.0099 5.91439 16.0027 5.89644 15.9916 5.88164C15.6132 5.3486 15.235 4.81547 14.8569 4.28227C14.8522 4.27551 14.8477 4.26829 14.8428 4.26083C14.8526 4.25512 14.8579 4.26293 14.8636 4.26631C15.2463 4.49227 15.6289 4.71842 16.0114 4.94477C16.0185 4.9492 16.0246 4.95375 16.031 4.95794Z" fill="#828384"/>
<path d="M16.0339 2.04057L16.0311 2.03626C16.0362 2.033 16.0355 2.03777 16.0363 2.04022L16.0339 2.04057Z" fill="#393939"/>
</svg>
