<svg width="21" height="20" viewBox="0 0 21 20" fill="none" xmlns="http://www.w3.org/2000/svg">
<path d="M19.7106 12.4128C18.3762 17.7666 12.9536 21.0359 7.5899 19.7007C2.23601 18.3622 -1.028 12.9396 0.306383 7.58577C1.64077 2.2319 7.06007 -1.03737 12.4107 0.297829C17.7777 1.61666 21.0417 7.05562 19.7106 12.4128Z" fill="#2775CA"/>
<path d="M4.18607 7.7916C2.97767 11 4.64437 14.625 7.89437 15.7916C8.01937 15.875 8.14437 16.0416 8.14437 16.1666V16.75C8.14437 16.8333 8.14437 16.875 8.10267 16.9166C8.06107 17.0833 7.89437 17.1666 7.72767 17.0833C5.39437 16.3333 3.60267 14.5416 2.85267 12.2083C1.60267 8.25 3.76937 4.0416 7.72767 2.7916C7.76937 2.75 7.85267 2.75 7.89437 2.75C8.06107 2.7916 8.14437 2.9166 8.14437 3.0833V3.6666C8.14437 3.875 8.06107 4 7.89437 4.0833C6.18607 4.7083 4.81107 6.0416 4.18607 7.7916Z" fill="white"/>
<path d="M11.9361 2.9583C11.9777 2.7916 12.1444 2.7083 12.3111 2.7916C14.6027 3.5416 16.4361 5.3333 17.1861 7.7083C18.4361 11.6666 16.2694 15.875 12.3111 17.125C12.2694 17.1666 12.1861 17.1666 12.1444 17.1666C11.9777 17.125 11.8944 17 11.8944 16.8333V16.25C11.8944 16.0416 11.9777 15.9166 12.1444 15.8333C13.8527 15.2083 15.2277 13.875 15.8527 12.125C17.0611 8.9166 15.3944 5.2916 12.1444 4.125C12.0194 4.0416 11.8944 3.875 11.8944 3.7083V3.125C11.8944 3.0416 11.8944 3 11.9361 2.9583Z" fill="white"/>
<path d="M10.1443 9.25002C11.8943 9.45832 12.7693 9.95832 12.7693 11.4166C12.7693 12.5416 11.936 13.4166 10.686 13.625V14.625C10.6443 14.8333 10.5193 14.9583 10.3526 14.9583H9.72763C9.51933 14.9166 9.39433 14.7916 9.39433 14.625V13.625C8.01933 13.4166 7.35263 12.6666 7.18603 11.625V11.5833C7.18603 11.4166 7.31104 11.2916 7.47763 11.2916H8.18603C8.31103 11.2916 8.43604 11.375 8.47763 11.5416C8.60263 12.1666 8.97763 12.625 10.061 12.625C10.8526 12.625 11.436 12.1667 11.436 11.5C11.436 10.8333 11.061 10.5833 9.89433 10.375C8.14433 10.1666 7.31103 9.62502 7.31103 8.25002C7.31103 7.20832 8.10263 6.37503 9.35263 6.20833V5.25003C9.39433 5.04163 9.51933 4.91663 9.68603 4.91663H10.311C10.5193 4.95833 10.6443 5.08333 10.6443 5.25003V6.25003C11.6026 6.33333 12.3526 7.04163 12.5193 7.95832V8.00002C12.5193 8.16663 12.3943 8.29163 12.2276 8.29163H11.561C11.436 8.29163 11.311 8.20832 11.2693 8.08332C11.061 7.45832 10.6443 7.20832 9.89433 7.20832C9.06103 7.20832 8.64433 7.58323 8.64433 8.16663C8.64433 8.75003 8.89433 9.08332 10.1443 9.25002Z" fill="white"/>
<path d="M16 0.998779C17.6569 0.998779 19 2.34166 19 3.99825C19 5.65483 17.6569 6.99771 16 6.99771C14.3431 6.99771 13 5.65483 13 3.99825C13 2.34166 14.3431 0.998779 16 0.998779Z" fill="#F0B90B"/>
<path d="M15.2234 3.67598L15.6776 3.22338L15.7735 3.12758L16.0005 2.90063L16.7734 3.67598L17.2234 3.22338L16.0005 1.99854L14.7734 3.22338L15.2234 3.67598Z" fill="white"/>
<path d="M16.0016 3.54555L15.5498 3.99731L16.0016 4.44908L16.4535 3.99731L16.0016 3.54555Z" fill="white"/>
<path d="M16.7734 4.32129L16.0002 5.09443L15.7287 4.82292L15.6787 4.77299L15.2234 4.32129L14.7734 4.7712L16.0005 5.99596L17.2234 4.7712L16.7734 4.32129Z" fill="white"/>
<path d="M14.4518 3.54677L14 3.99854L14.4518 4.4503L14.9037 3.99854L14.4518 3.54677Z" fill="white"/>
<path d="M17.5485 3.54653L17.0967 3.99829L17.5485 4.45006L18.0004 3.99829L17.5485 3.54653Z" fill="white"/>
</svg>
