<svg width="20" height="20" viewBox="0 0 20 20" fill="none" xmlns="http://www.w3.org/2000/svg">
<g clip-path="url(#clip0_2739_11040)">
<path d="M19.7027 12.4135C18.3684 17.7674 12.9458 21.0366 7.58209 19.7014C2.2282 18.363 -1.03581 12.9404 0.29857 7.5865C1.63296 2.23263 7.05226 -1.03663 12.4029 0.298561C17.7699 1.61739 21.0339 7.05635 19.7027 12.4135Z" fill="#53AE94"/>
<path d="M11.3404 8.02983V6.43294H14.9925V4H5.0479V6.43294H8.70029V8.02837C5.7319 8.1648 3.5 8.75248 3.5 9.45648C3.5 10.1605 5.73307 10.7485 8.70029 10.8855V16H11.3413V10.8849C14.3044 10.7482 16.5316 10.1608 16.5316 9.45735C16.5316 8.75394 14.3041 8.16655 11.3413 8.02983M11.3413 10.4523V10.4508C11.2669 10.4555 10.8838 10.4785 10.0316 10.4785C9.35018 10.4785 8.87056 10.4593 8.70175 10.4505V10.4526C6.07915 10.3365 4.1219 9.87975 4.1219 9.33346C4.1219 8.78718 6.07974 8.33125 8.70175 8.21465V9.99752C8.87348 10.0092 9.36476 10.0383 10.0429 10.0383C10.8573 10.0383 11.2666 10.0045 11.3418 9.99752V8.21494C13.9592 8.33154 15.9121 8.78863 15.9121 9.33288C15.9121 9.87742 13.9583 10.3345 11.3418 10.4511" fill="white"/>
<circle cx="16" cy="4" r="3" fill="#EDF0F4"/>
<path d="M16.9001 3.39743C16.8362 3.36063 16.7539 3.36063 16.6808 3.39743L16.1691 3.70099L15.8218 3.89416L15.3192 4.19773C15.2552 4.23452 15.173 4.23452 15.0999 4.19773L14.7069 3.95856C14.643 3.92176 14.5973 3.84817 14.5973 3.76538V3.30544C14.5973 3.23185 14.6338 3.15826 14.7069 3.11227L15.0999 2.8823C15.1638 2.8455 15.2461 2.8455 15.3192 2.8823L15.7121 3.12146C15.7761 3.15826 15.8218 3.23185 15.8218 3.31464V3.6182L16.1691 3.41583V3.10307C16.1691 3.02948 16.1325 2.95589 16.0594 2.90989L15.3283 2.47755C15.2644 2.44075 15.1821 2.44075 15.109 2.47755L14.3597 2.91909C14.2866 2.95589 14.25 3.02948 14.25 3.10307V3.96776C14.25 4.04135 14.2866 4.11494 14.3597 4.16093L15.0999 4.59327C15.1638 4.63007 15.2461 4.63007 15.3192 4.59327L15.8218 4.29891L16.1691 4.09654L16.6717 3.80218C16.7356 3.76538 16.8179 3.76538 16.891 3.80218L17.2839 4.03215C17.3479 4.06894 17.3936 4.14253 17.3936 4.22532V4.68526C17.3936 4.75885 17.357 4.83244 17.2839 4.87844L16.9001 5.10841C16.8362 5.1452 16.7539 5.1452 16.6808 5.10841L16.2879 4.87844C16.2239 4.84164 16.1782 4.76805 16.1782 4.68526V4.3909L15.8309 4.59327V4.89684C15.8309 4.97043 15.8675 5.04402 15.9406 5.09001L16.6808 5.52235C16.7448 5.55915 16.827 5.55915 16.9001 5.52235L17.6403 5.09001C17.7043 5.05322 17.75 4.97962 17.75 4.89684V4.02295C17.75 3.94936 17.7134 3.87577 17.6403 3.82977L16.9001 3.39743Z" fill="#8247E5"/>
</g>
<defs>
<clipPath id="clip0_2739_11040">
<rect width="20" height="20" fill="white"/>
</clipPath>
</defs>
</svg>
