<svg width="20" height="20" viewBox="0 0 20 20" fill="none" xmlns="http://www.w3.org/2000/svg">
<g clip-path="url(#clip0_2739_10973)">
<path d="M19.7027 12.4135C18.3684 17.7674 12.9458 21.0366 7.58209 19.7014C2.2282 18.363 -1.03581 12.9404 0.29857 7.5865C1.63296 2.23263 7.05226 -1.03663 12.4029 0.298561C17.7699 1.61739 21.0339 7.05635 19.7027 12.4135Z" fill="#53AE94"/>
<path d="M11.3404 8.02983V6.43294H14.9925V4H5.0479V6.43294H8.70029V8.02837C5.7319 8.1648 3.5 8.75248 3.5 9.45648C3.5 10.1605 5.73307 10.7485 8.70029 10.8855V16H11.3413V10.8849C14.3044 10.7482 16.5316 10.1608 16.5316 9.45735C16.5316 8.75394 14.3041 8.16655 11.3413 8.02983M11.3413 10.4523V10.4508C11.2669 10.4555 10.8838 10.4785 10.0316 10.4785C9.35018 10.4785 8.87056 10.4593 8.70175 10.4505V10.4526C6.07915 10.3365 4.1219 9.87975 4.1219 9.33346C4.1219 8.78718 6.07974 8.33125 8.70175 8.21465V9.99752C8.87348 10.0092 9.36476 10.0383 10.0429 10.0383C10.8573 10.0383 11.2666 10.0045 11.3418 9.99752V8.21494C13.9592 8.33154 15.9121 8.78863 15.9121 9.33288C15.9121 9.87742 13.9583 10.3345 11.3418 10.4511" fill="white"/>
<g clip-path="url(#clip1_2739_10973)">
<path d="M19 4C19 2.344 17.656 1 16 1C14.344 1 13 2.344 13 4C13 5.656 14.344 7 16 7C17.656 7 19 5.656 19 4Z" fill="#FF0420"/>
<path d="M15.1262 4.79692C14.9462 4.79692 14.7998 4.75372 14.687 4.66972C14.5742 4.58332 14.5166 4.46092 14.5166 4.30492C14.5166 4.27132 14.5214 4.23052 14.5286 4.18252C14.5478 4.07452 14.5766 3.94492 14.6126 3.79132C14.7158 3.37852 14.9798 3.17212 15.4046 3.17212C15.5198 3.17212 15.6254 3.19132 15.7166 3.23212C15.8078 3.27052 15.8798 3.32812 15.9326 3.40492C15.9854 3.48172 16.0118 3.57052 16.0118 3.67612C16.0118 3.70732 16.007 3.74812 15.9998 3.79612C15.9758 3.93052 15.9494 4.06012 15.9182 4.18732C15.8654 4.39372 15.7742 4.54732 15.6446 4.65052C15.515 4.75132 15.3422 4.80172 15.1262 4.80172V4.79692ZM15.1598 4.47292C15.2438 4.47292 15.3158 4.44652 15.3734 4.39852C15.4334 4.34812 15.4766 4.27372 15.503 4.17052C15.539 4.02892 15.5654 3.90652 15.5822 3.80092C15.5894 3.76972 15.5918 3.73612 15.5918 3.70252C15.5918 3.56572 15.5198 3.49612 15.3782 3.49612C15.2942 3.49612 15.2222 3.52252 15.1622 3.57052C15.1022 3.62092 15.0614 3.69532 15.035 3.79852C15.0062 3.89932 14.9798 4.02172 14.9534 4.16812C14.9462 4.19932 14.9438 4.23052 14.9438 4.26412C14.9414 4.40332 15.0158 4.47292 15.1598 4.47292Z" fill="white"/>
<path d="M16.1129 4.77524C16.0961 4.77524 16.0841 4.77044 16.0745 4.75844C16.0673 4.74644 16.0649 4.73204 16.0673 4.71764L16.3793 3.25364C16.3817 3.23684 16.3913 3.22244 16.4057 3.21284C16.4201 3.20084 16.4345 3.19604 16.4489 3.19604H17.0489C17.2169 3.19604 17.3489 3.23204 17.4497 3.29924C17.5529 3.36884 17.6033 3.46964 17.6033 3.59924C17.6033 3.63764 17.5985 3.67604 17.5889 3.71684C17.5505 3.88964 17.4761 4.01684 17.3609 4.10084C17.2481 4.18484 17.0921 4.22564 16.8953 4.22564H16.5905L16.4873 4.72004C16.4825 4.73684 16.4753 4.75124 16.4609 4.76084C16.4465 4.77284 16.4321 4.77764 16.4177 4.77764H16.1105L16.1129 4.77524ZM16.9097 3.91364C16.9745 3.91364 17.0273 3.89684 17.0753 3.86084C17.1233 3.82484 17.1545 3.77684 17.1713 3.71204C17.1761 3.68564 17.1785 3.66404 17.1785 3.64484C17.1785 3.60164 17.1641 3.56804 17.1401 3.54404C17.1137 3.52004 17.0705 3.50804 17.0081 3.50804H16.7369L16.6505 3.91124H16.9097V3.91364Z" fill="white"/>
</g>
</g>
<defs>
<clipPath id="clip0_2739_10973">
<rect width="20" height="20" fill="white"/>
</clipPath>
<clipPath id="clip1_2739_10973">
<rect width="6" height="6" fill="white" transform="translate(13 1)"/>
</clipPath>
</defs>
</svg>
