<svg width="21" height="20" viewBox="0 0 21 20" fill="none" xmlns="http://www.w3.org/2000/svg">
<path d="M19.7027 12.4135C18.3684 17.7674 12.9458 21.0366 7.58209 19.7014C2.2282 18.363 -1.03581 12.9404 0.29857 7.5865C1.63296 2.23263 7.05226 -1.03663 12.4029 0.298561C17.7699 1.61739 21.0339 7.05635 19.7027 12.4135Z" fill="#53AE94"/>
<path d="M11.3404 8.02983V6.43294H14.9925V4H5.0479V6.43294H8.70029V8.02837C5.7319 8.1648 3.5 8.75248 3.5 9.45648C3.5 10.1605 5.73307 10.7485 8.70029 10.8855V16H11.3413V10.8849C14.3044 10.7482 16.5316 10.1608 16.5316 9.45735C16.5316 8.75394 14.3041 8.16655 11.3413 8.02983M11.3413 10.4523V10.4508C11.2669 10.4555 10.8838 10.4785 10.0316 10.4785C9.35018 10.4785 8.87056 10.4593 8.70175 10.4505V10.4526C6.07915 10.3365 4.1219 9.87975 4.1219 9.33346C4.1219 8.78718 6.07974 8.33125 8.70175 8.21465V9.99752C8.87348 10.0092 9.36476 10.0383 10.0429 10.0383C10.8573 10.0383 11.2666 10.0045 11.3418 9.99752V8.21494C13.9592 8.33154 15.9121 8.78863 15.9121 9.33288C15.9121 9.87742 13.9583 10.3345 11.3418 10.4511" fill="white"/>
<path d="M15.0892 3.72405C15.4895 5.33021 17.1163 6.31099 18.7254 5.91043C20.3315 5.50889 21.3107 3.88211 20.9104 2.27595C20.5101 0.669789 18.8843 -0.31099 17.2791 0.0895683C15.669 0.485218 14.6898 2.11691 15.0892 3.72405Z" fill="#151515"/>
<path d="M16.1472 3.92639L16.7663 4.57317C16.7797 4.58722 16.796 4.59842 16.8141 4.60608C16.8322 4.61373 16.8517 4.61768 16.8715 4.61767H19.8061C19.8201 4.61767 19.8338 4.61368 19.8455 4.6062C19.8572 4.59872 19.8664 4.58807 19.872 4.57556C19.8776 4.56305 19.8793 4.54923 19.8769 4.53578C19.8745 4.52234 19.8682 4.50986 19.8586 4.49989L19.2391 3.85311C19.2257 3.8391 19.2094 3.82792 19.1914 3.82027C19.1734 3.81261 19.1539 3.80865 19.1342 3.80862H16.1998C16.1858 3.80862 16.1721 3.8126 16.1604 3.82008C16.1487 3.82756 16.1395 3.83821 16.1339 3.85072C16.1283 3.86323 16.1266 3.87706 16.129 3.8905C16.1313 3.90395 16.1377 3.91642 16.1472 3.92639ZM16.7663 2.62398C16.7797 2.60993 16.796 2.59872 16.8141 2.59107C16.8322 2.58342 16.8517 2.57947 16.8715 2.57948H19.8061C19.8201 2.57948 19.8338 2.58346 19.8455 2.59095C19.8572 2.59843 19.8664 2.60908 19.872 2.62158C19.8776 2.6341 19.8793 2.64792 19.8769 2.66137C19.8745 2.67481 19.8682 2.68728 19.8586 2.69726L19.2391 3.34403C19.2257 3.35805 19.2094 3.36922 19.1914 3.37688C19.1734 3.38453 19.1539 3.3885 19.1342 3.38853H16.1998C16.1858 3.38853 16.1721 3.38455 16.1604 3.37706C16.1487 3.36958 16.1395 3.35893 16.1339 3.34643C16.1283 3.33391 16.1266 3.32009 16.129 3.30664C16.1313 3.2932 16.1377 3.28073 16.1472 3.27075L16.7663 2.62398ZM19.8061 2.15939H16.8715C16.8517 2.1594 16.8322 2.15546 16.8141 2.1478C16.796 2.14015 16.7797 2.12895 16.7663 2.1149L16.1472 1.46812C16.1377 1.45815 16.1313 1.44567 16.129 1.43223C16.1266 1.41879 16.1283 1.40496 16.1339 1.39245C16.1395 1.37994 16.1487 1.36929 16.1604 1.36181C16.1721 1.35433 16.1858 1.35034 16.1998 1.35034H19.1342C19.1539 1.35037 19.1734 1.35434 19.1914 1.36199C19.2094 1.36965 19.2257 1.38083 19.2391 1.39484L19.8584 2.04162C19.868 2.05158 19.8743 2.06404 19.8767 2.07747C19.8791 2.0909 19.8774 2.10471 19.8718 2.11722C19.8663 2.12972 19.8571 2.14037 19.8454 2.14786C19.8337 2.15536 19.8201 2.15936 19.8061 2.15939Z" fill="url(#paint0_linear_2739_11033)"/>
<defs>
<linearGradient id="paint0_linear_2739_11033" x1="19.5614" y1="4.69554" x2="16.5737" y2="1.23835" gradientUnits="userSpaceOnUse">
<stop offset="0.08" stop-color="#9945FF"/>
<stop offset="0.3" stop-color="#8752F3"/>
<stop offset="0.5" stop-color="#5497D5"/>
<stop offset="0.6" stop-color="#43B4CA"/>
<stop offset="0.72" stop-color="#28E0B9"/>
<stop offset="0.97" stop-color="#19FB9B"/>
</linearGradient>
</defs>
</svg>
