<svg width="20" height="20" viewBox="0 0 20 20" fill="none" xmlns="http://www.w3.org/2000/svg">
<g clip-path="url(#clip0_2739_10959)">
<path d="M19.7027 12.4135C18.3684 17.7674 12.9458 21.0366 7.58209 19.7014C2.2282 18.363 -1.03581 12.9404 0.29857 7.5865C1.63296 2.23263 7.05226 -1.03663 12.4029 0.298561C17.7699 1.61739 21.0339 7.05635 19.7027 12.4135Z" fill="#53AE94"/>
<path d="M11.3404 8.02983V6.43294H14.9925V4H5.0479V6.43294H8.70029V8.02837C5.7319 8.1648 3.5 8.75248 3.5 9.45648C3.5 10.1605 5.73307 10.7485 8.70029 10.8855V16H11.3413V10.8849C14.3044 10.7482 16.5316 10.1608 16.5316 9.45735C16.5316 8.75394 14.3041 8.16655 11.3413 8.02983M11.3413 10.4523V10.4508C11.2669 10.4555 10.8838 10.4785 10.0316 10.4785C9.35018 10.4785 8.87056 10.4593 8.70175 10.4505V10.4526C6.07915 10.3365 4.1219 9.87975 4.1219 9.33346C4.1219 8.78718 6.07974 8.33125 8.70175 8.21465V9.99752C8.87348 10.0092 9.36476 10.0383 10.0429 10.0383C10.8573 10.0383 11.2666 10.0045 11.3418 9.99752V8.21494C13.9592 8.33154 15.9121 8.78863 15.9121 9.33288C15.9121 9.87742 13.9583 10.3345 11.3418 10.4511" fill="white"/>
<g clip-path="url(#clip1_2739_10959)">
<path d="M13.5425 2.82389V5.17589C13.5425 5.32709 13.6217 5.46389 13.7537 5.54069L15.7913 6.71669C15.9209 6.79109 16.0817 6.79109 16.2113 6.71669L18.2489 5.54069C18.3785 5.46629 18.4601 5.32709 18.4601 5.17589V2.82389C18.4601 2.67269 18.3809 2.53589 18.2489 2.45909L16.2113 1.28309C16.0817 1.20869 15.9209 1.20869 15.7913 1.28309L13.7537 2.45909C13.6241 2.53349 13.5449 2.67269 13.5449 2.82389H13.5425Z" fill="#213147"/>
<path d="M16.4442 4.45598L16.1538 5.25278C16.1466 5.27438 16.1466 5.29838 16.1538 5.32238L16.653 6.69278L17.2314 6.35918L16.5378 4.45598C16.521 4.41278 16.461 4.41278 16.4442 4.45598Z" fill="#12AAFF"/>
<path d="M17.0271 3.11687C17.0103 3.07367 16.9503 3.07367 16.9335 3.11687L16.6431 3.91367C16.6359 3.93527 16.6359 3.95927 16.6431 3.98327L17.4615 6.22727L18.0399 5.89367L17.0271 3.11927V3.11687Z" fill="#12AAFF"/>
<path d="M16 1.372C16.0144 1.372 16.0288 1.3768 16.0408 1.384L18.244 2.656C18.2704 2.6704 18.2848 2.6992 18.2848 2.728V5.272C18.2848 5.3008 18.268 5.3296 18.244 5.344L16.0408 6.616C16.0288 6.6232 16.0144 6.628 16 6.628C15.9856 6.628 15.9712 6.6232 15.9592 6.616L13.756 5.344C13.7296 5.3296 13.7152 5.3008 13.7152 5.272V2.7256C13.7152 2.6968 13.732 2.668 13.756 2.6536L15.9592 1.3816C15.9712 1.3744 15.9856 1.3696 16 1.3696V1.372ZM16 1C15.9208 1 15.844 1.0192 15.772 1.06L13.5688 2.332C13.4272 2.4136 13.3408 2.5624 13.3408 2.7256V5.2696C13.3408 5.4328 13.4272 5.5816 13.5688 5.6632L15.772 6.9352C15.8416 6.976 15.9208 6.9952 16 6.9952C16.0792 6.9952 16.156 6.976 16.228 6.9352L18.4312 5.6632C18.5728 5.5816 18.6592 5.4328 18.6592 5.2696V2.7256C18.6592 2.5624 18.5728 2.4136 18.4312 2.332L16.2256 1.06C16.156 1.0192 16.0768 1 15.9976 1H16Z" fill="#9DCCED"/>
<path d="M14.541 6.22965L14.745 5.67285L15.153 6.01125L14.7714 6.36165L14.541 6.22965Z" fill="#213147"/>
<path d="M15.8128 2.54561H15.2536C15.2128 2.54561 15.1744 2.57201 15.16 2.61041L13.9624 5.89361L14.5408 6.22721L15.8608 2.61041C15.8728 2.57681 15.8488 2.54321 15.8152 2.54321L15.8128 2.54561Z" fill="white"/>
<path d="M16.7918 2.54561H16.2326C16.1918 2.54561 16.1534 2.57201 16.139 2.61041L14.771 6.35921L15.3494 6.69281L16.8374 2.61041C16.8494 2.57681 16.8254 2.54321 16.7918 2.54321V2.54561Z" fill="white"/>
</g>
</g>
<defs>
<clipPath id="clip0_2739_10959">
<rect width="20" height="20" fill="white"/>
</clipPath>
<clipPath id="clip1_2739_10959">
<rect width="6" height="6" fill="white" transform="translate(13 1)"/>
</clipPath>
</defs>
</svg>
