<svg width="20" height="20" viewBox="0 0 20 20" fill="none" xmlns="http://www.w3.org/2000/svg">
<g clip-path="url(#clip0_2739_10882)">
<path d="M19.7027 12.4135C18.3684 17.7674 12.9458 21.0366 7.58209 19.7014C2.2282 18.363 -1.03581 12.9404 0.29857 7.5865C1.63296 2.23263 7.05226 -1.03663 12.4029 0.298561C17.7699 1.61739 21.0339 7.05635 19.7027 12.4135Z" fill="#53AE94"/>
<path d="M11.3404 8.02983V6.43294H14.9925V4H5.0479V6.43294H8.70029V8.02837C5.7319 8.1648 3.5 8.75248 3.5 9.45648C3.5 10.1605 5.73307 10.7485 8.70029 10.8855V16H11.3413V10.8849C14.3044 10.7482 16.5316 10.1608 16.5316 9.45735C16.5316 8.75394 14.3041 8.16655 11.3413 8.02983M11.3413 10.4523V10.4508C11.2669 10.4555 10.8838 10.4785 10.0316 10.4785C9.35018 10.4785 8.87056 10.4593 8.70175 10.4505V10.4526C6.07915 10.3365 4.1219 9.87975 4.1219 9.33346C4.1219 8.78718 6.07974 8.33125 8.70175 8.21465V9.99752C8.87348 10.0092 9.36476 10.0383 10.0429 10.0383C10.8573 10.0383 11.2666 10.0045 11.3418 9.99752V8.21494C13.9592 8.33154 15.9121 8.78863 15.9121 9.33288C15.9121 9.87742 13.9583 10.3345 11.3418 10.4511" fill="white"/>
<path d="M18.9108 4.72405C18.5105 6.33021 16.8837 7.31099 15.2746 6.91043C13.6685 6.50889 12.6893 4.88211 13.0896 3.27595C13.4899 1.66979 15.1157 0.68901 16.7209 1.08957C18.331 1.48522 19.3102 3.11691 18.9108 4.72405Z" fill="#0088CC"/>
<path fill-rule="evenodd" clip-rule="evenodd" d="M14.8329 2.50757H17.2364C17.3168 2.50757 17.3963 2.50757 17.5035 2.56116C17.6107 2.61475 17.6634 2.69514 17.717 2.74783C17.717 2.74783 17.717 2.74783 17.717 2.77463C17.7706 2.85502 17.7974 2.93451 17.7974 3.04169C17.7974 3.12208 17.7706 3.22837 17.717 3.30875L16.195 5.89988C16.1682 5.95347 16.0878 5.98026 16.0351 5.98026C15.9815 5.98026 15.902 5.95347 15.8752 5.89988L14.3792 3.30875C14.3524 3.25516 14.2988 3.17567 14.272 3.04169C14.272 2.93451 14.2988 2.82822 14.3256 2.74783C14.3792 2.66745 14.4586 2.58795 14.539 2.53436C14.673 2.50757 14.7793 2.50757 14.8329 2.50757ZM15.8475 2.88181H14.8329C14.7793 2.88181 14.7525 2.88181 14.7257 2.88181C14.6989 2.88181 14.6721 2.90861 14.6721 2.9354C14.6453 2.9622 14.6453 2.98899 14.6453 3.01579C14.6453 3.04258 14.6453 3.04258 14.6989 3.12297L15.8475 5.12638V2.88181ZM16.2218 2.88181V5.12549L17.3972 3.12208C17.3972 3.09528 17.424 3.06849 17.424 3.0149C17.424 2.9881 17.424 2.96131 17.3972 2.93451C17.3704 2.90771 17.3704 2.90771 17.3704 2.90771C17.3704 2.90771 17.3704 2.90771 17.3436 2.90771C17.3168 2.90771 17.29 2.88092 17.2364 2.88092H16.2218V2.88181Z" fill="white"/>
</g>
<defs>
<clipPath id="clip0_2739_10882">
<rect width="20" height="20" fill="white"/>
</clipPath>
</defs>
</svg>
