<svg width="16" height="16" viewBox="0 0 16 16" fill="none" xmlns="http://www.w3.org/2000/svg">
<mask id="path-1-inside-1_10023_5873" fill="white">
<path fill-rule="evenodd" clip-rule="evenodd" d="M14.3303 1.2981L14.6848 1.65257L14.7019 1.66968C15.0023 1.97002 15.2529 2.2207 15.441 2.44224C15.6371 2.67328 15.8 2.91156 15.8929 3.19782C16.0357 3.63701 16.0357 4.1101 15.8929 4.54929C15.8 4.83555 15.6371 5.07382 15.441 5.30488C15.2529 5.52641 15.0023 5.77709 14.7019 6.07743L14.6848 6.09454L14.3303 6.44901C14.0301 6.74939 13.7793 7.00004 13.5578 7.1881C13.3267 7.38427 13.0884 7.54705 12.8022 7.64008C12.363 7.78281 11.8899 7.78281 11.4507 7.64008C11.1644 7.54705 10.9262 7.38427 10.6951 7.1881C10.4736 7.00004 10.2229 6.74932 9.92253 6.44901L9.56812 6.09454L9.55094 6.07743C9.2506 5.77709 8.99996 5.52641 8.8119 5.30488C8.61574 5.07382 8.45288 4.83555 8.35993 4.54929C8.21719 4.1101 8.21719 3.63701 8.35993 3.19782C8.45288 2.91156 8.61574 2.67328 8.8119 2.44224C8.99996 2.2207 9.2506 1.97002 9.55094 1.66968L9.56812 1.65257L9.92253 1.2981C10.2229 0.997743 10.4736 0.747056 10.6951 0.558989C10.9262 0.362835 11.1644 0.200039 11.4507 0.107027C11.8899 -0.0356756 12.363 -0.0356756 12.8022 0.107027C13.0884 0.200039 13.3267 0.362835 13.5578 0.558989C13.7793 0.747056 14.03 0.997743 14.3303 1.2981ZM3.11675 0.494023H3.64226C4.067 0.494015 4.42153 0.494007 4.71116 0.517672C5.01324 0.542354 5.29684 0.595718 5.56503 0.732361C5.97648 0.942017 6.311 1.27654 6.52068 1.688C6.6573 1.95619 6.71065 2.23979 6.73538 2.54186C6.759 2.83149 6.759 3.186 6.759 3.61074V4.13627C6.759 4.56101 6.759 4.91556 6.73538 5.20518C6.71065 5.50726 6.6573 5.79086 6.52068 6.05905C6.311 6.4705 5.97648 6.80507 5.56503 7.01467C5.29684 7.15137 5.01324 7.20472 4.71116 7.22937C4.42153 7.25307 4.067 7.25307 3.64225 7.25299H3.11675C2.69201 7.25307 2.33748 7.25307 2.04784 7.22937C1.74577 7.20472 1.46216 7.15137 1.19398 7.01467C0.782517 6.80507 0.447995 6.4705 0.238339 6.05905C0.101695 5.79086 0.0483312 5.50726 0.0236489 5.20518C-1.55363e-05 4.91556 -7.66036e-06 4.56104 2.91401e-07 4.1363V3.61077C-7.66036e-06 3.18604 -1.55363e-05 2.83149 0.0236489 2.54186C0.0483312 2.23979 0.101695 1.95619 0.238339 1.688C0.447995 1.27654 0.782517 0.942017 1.19398 0.732361C1.46216 0.595718 1.74577 0.542354 2.04784 0.517672C2.33747 0.494007 2.692 0.494015 3.11675 0.494023ZM3.11675 9.24093C2.692 9.24093 2.33747 9.24093 2.04784 9.26463C1.74577 9.28928 1.46216 9.34263 1.19398 9.47932C0.782517 9.68893 0.447995 10.0235 0.238339 10.435C0.101695 10.7031 0.0483312 10.9867 0.0236489 11.2888C-1.55363e-05 11.5784 -7.66036e-06 11.9329 2.91401e-07 12.3577V12.8832C-7.66036e-06 13.3079 -1.55363e-05 13.6625 0.0236489 13.9521C0.0483312 14.2542 0.101695 14.5378 0.238339 14.806C0.447995 15.2175 0.782517 15.552 1.19398 15.7616C1.46216 15.8983 1.74577 15.9517 2.04784 15.9763C2.33746 16 2.69197 16 3.11669 15.9999H3.64225C4.06697 16 4.42155 16 4.71116 15.9763C5.01324 15.9517 5.29684 15.8983 5.56503 15.7616C5.97648 15.552 6.311 15.2175 6.52068 14.806C6.6573 14.5378 6.71065 14.2542 6.73538 13.9521C6.759 13.6625 6.759 13.3079 6.759 12.8832V12.3577C6.759 11.9329 6.759 11.5784 6.73538 11.2888C6.71065 10.9867 6.6573 10.7031 6.52068 10.435C6.311 10.0235 5.97648 9.68893 5.56503 9.47932C5.29684 9.34263 5.01324 9.28928 4.71116 9.26463C4.42153 9.24093 4.067 9.24093 3.64226 9.24093H3.11675ZM11.8637 9.24093H12.3892C12.8139 9.24093 13.1684 9.24093 13.4581 9.26463C13.7602 9.28928 14.0438 9.34263 14.312 9.47932C14.7234 9.68893 15.0579 10.0235 15.2676 10.435C15.4042 10.7031 15.4576 10.9867 15.4823 11.2888C15.5059 11.5784 15.5059 11.933 15.5059 12.3577V12.8832C15.5059 13.3079 15.5059 13.6625 15.4823 13.9521C15.4576 14.2542 15.4042 14.5378 15.2676 14.806C15.0579 15.2175 14.7234 15.552 14.312 15.7616C14.0438 15.8983 13.7602 15.9517 13.4581 15.9763C13.1685 16 12.8139 16 12.3892 15.9999H11.8637C11.439 16 11.0844 16 10.7948 15.9763C10.4927 15.9517 10.2091 15.8983 9.9409 15.7616C9.52947 15.552 9.19494 15.2175 8.98525 14.806C8.84864 14.5378 8.79529 14.2542 8.77056 13.9521C8.74694 13.6625 8.74694 13.3079 8.74694 12.8832V12.3577C8.74694 11.933 8.74694 11.5784 8.77056 11.2888C8.79529 10.9867 8.84864 10.7031 8.98525 10.435C9.19494 10.0235 9.52947 9.68893 9.9409 9.47932C10.2091 9.34263 10.4927 9.28928 10.7948 9.26463C11.0844 9.24093 11.4389 9.24093 11.8637 9.24093Z"/>
</mask>
<path fill-rule="evenodd" clip-rule="evenodd" d="M14.3303 1.2981L14.6848 1.65257L14.7019 1.66968C15.0023 1.97002 15.2529 2.2207 15.441 2.44224C15.6371 2.67328 15.8 2.91156 15.8929 3.19782C16.0357 3.63701 16.0357 4.1101 15.8929 4.54929C15.8 4.83555 15.6371 5.07382 15.441 5.30488C15.2529 5.52641 15.0023 5.77709 14.7019 6.07743L14.6848 6.09454L14.3303 6.44901C14.0301 6.74939 13.7793 7.00004 13.5578 7.1881C13.3267 7.38427 13.0884 7.54705 12.8022 7.64008C12.363 7.78281 11.8899 7.78281 11.4507 7.64008C11.1644 7.54705 10.9262 7.38427 10.6951 7.1881C10.4736 7.00004 10.2229 6.74932 9.92253 6.44901L9.56812 6.09454L9.55094 6.07743C9.2506 5.77709 8.99996 5.52641 8.8119 5.30488C8.61574 5.07382 8.45288 4.83555 8.35993 4.54929C8.21719 4.1101 8.21719 3.63701 8.35993 3.19782C8.45288 2.91156 8.61574 2.67328 8.8119 2.44224C8.99996 2.2207 9.2506 1.97002 9.55094 1.66968L9.56812 1.65257L9.92253 1.2981C10.2229 0.997743 10.4736 0.747056 10.6951 0.558989C10.9262 0.362835 11.1644 0.200039 11.4507 0.107027C11.8899 -0.0356756 12.363 -0.0356756 12.8022 0.107027C13.0884 0.200039 13.3267 0.362835 13.5578 0.558989C13.7793 0.747056 14.03 0.997743 14.3303 1.2981ZM3.11675 0.494023H3.64226C4.067 0.494015 4.42153 0.494007 4.71116 0.517672C5.01324 0.542354 5.29684 0.595718 5.56503 0.732361C5.97648 0.942017 6.311 1.27654 6.52068 1.688C6.6573 1.95619 6.71065 2.23979 6.73538 2.54186C6.759 2.83149 6.759 3.186 6.759 3.61074V4.13627C6.759 4.56101 6.759 4.91556 6.73538 5.20518C6.71065 5.50726 6.6573 5.79086 6.52068 6.05905C6.311 6.4705 5.97648 6.80507 5.56503 7.01467C5.29684 7.15137 5.01324 7.20472 4.71116 7.22937C4.42153 7.25307 4.067 7.25307 3.64225 7.25299H3.11675C2.69201 7.25307 2.33748 7.25307 2.04784 7.22937C1.74577 7.20472 1.46216 7.15137 1.19398 7.01467C0.782517 6.80507 0.447995 6.4705 0.238339 6.05905C0.101695 5.79086 0.0483312 5.50726 0.0236489 5.20518C-1.55363e-05 4.91556 -7.66036e-06 4.56104 2.91401e-07 4.1363V3.61077C-7.66036e-06 3.18604 -1.55363e-05 2.83149 0.0236489 2.54186C0.0483312 2.23979 0.101695 1.95619 0.238339 1.688C0.447995 1.27654 0.782517 0.942017 1.19398 0.732361C1.46216 0.595718 1.74577 0.542354 2.04784 0.517672C2.33747 0.494007 2.692 0.494015 3.11675 0.494023ZM3.11675 9.24093C2.692 9.24093 2.33747 9.24093 2.04784 9.26463C1.74577 9.28928 1.46216 9.34263 1.19398 9.47932C0.782517 9.68893 0.447995 10.0235 0.238339 10.435C0.101695 10.7031 0.0483312 10.9867 0.0236489 11.2888C-1.55363e-05 11.5784 -7.66036e-06 11.9329 2.91401e-07 12.3577V12.8832C-7.66036e-06 13.3079 -1.55363e-05 13.6625 0.0236489 13.9521C0.0483312 14.2542 0.101695 14.5378 0.238339 14.806C0.447995 15.2175 0.782517 15.552 1.19398 15.7616C1.46216 15.8983 1.74577 15.9517 2.04784 15.9763C2.33746 16 2.69197 16 3.11669 15.9999H3.64225C4.06697 16 4.42155 16 4.71116 15.9763C5.01324 15.9517 5.29684 15.8983 5.56503 15.7616C5.97648 15.552 6.311 15.2175 6.52068 14.806C6.6573 14.5378 6.71065 14.2542 6.73538 13.9521C6.759 13.6625 6.759 13.3079 6.759 12.8832V12.3577C6.759 11.9329 6.759 11.5784 6.73538 11.2888C6.71065 10.9867 6.6573 10.7031 6.52068 10.435C6.311 10.0235 5.97648 9.68893 5.56503 9.47932C5.29684 9.34263 5.01324 9.28928 4.71116 9.26463C4.42153 9.24093 4.067 9.24093 3.64226 9.24093H3.11675ZM11.8637 9.24093H12.3892C12.8139 9.24093 13.1684 9.24093 13.4581 9.26463C13.7602 9.28928 14.0438 9.34263 14.312 9.47932C14.7234 9.68893 15.0579 10.0235 15.2676 10.435C15.4042 10.7031 15.4576 10.9867 15.4823 11.2888C15.5059 11.5784 15.5059 11.933 15.5059 12.3577V12.8832C15.5059 13.3079 15.5059 13.6625 15.4823 13.9521C15.4576 14.2542 15.4042 14.5378 15.2676 14.806C15.0579 15.2175 14.7234 15.552 14.312 15.7616C14.0438 15.8983 13.7602 15.9517 13.4581 15.9763C13.1685 16 12.8139 16 12.3892 15.9999H11.8637C11.439 16 11.0844 16 10.7948 15.9763C10.4927 15.9517 10.2091 15.8983 9.9409 15.7616C9.52947 15.552 9.19494 15.2175 8.98525 14.806C8.84864 14.5378 8.79529 14.2542 8.77056 13.9521C8.74694 13.6625 8.74694 13.3079 8.74694 12.8832V12.3577C8.74694 11.933 8.74694 11.5784 8.77056 11.2888C8.79529 10.9867 8.84864 10.7031 8.98525 10.435C9.19494 10.0235 9.52947 9.68893 9.9409 9.47932C10.2091 9.34263 10.4927 9.28928 10.7948 9.26463C11.0844 9.24093 11.4389 9.24093 11.8637 9.24093Z" fill="url(#paint0_radial_10023_5873)" stroke="url(#paint1_linear_10023_5873)" stroke-opacity="0.25" stroke-width="0.8" mask="url(#path-1-inside-1_10023_5873)"/>
<defs>
<radialGradient id="paint0_radial_10023_5873" cx="0" cy="0" r="1" gradientUnits="userSpaceOnUse" gradientTransform="translate(9.75178 -3.66783) rotate(96.2409) scale(18.691 37.9642)">
<stop stop-color="#8AEFCF"/>
<stop offset="1" stop-color="#3DB03D"/>
</radialGradient>
<linearGradient id="paint1_linear_10023_5873" x1="8" y1="0" x2="8" y2="15.9999" gradientUnits="userSpaceOnUse">
<stop stop-color="white"/>
<stop offset="1"/>
</linearGradient>
</defs>
</svg>
