<svg width="16" height="16" viewBox="0 0 16 16" fill="none" xmlns="http://www.w3.org/2000/svg">
<path fill-rule="evenodd" clip-rule="evenodd" d="M7.22656 11.4362V8.77437H4.56375C3.54687 8.77437 3.54687 7.22687 4.56375 7.22687H7.22656V4.56406C7.22656 3.54719 8.77406 3.54719 8.77406 4.56406V7.22687H11.4359C12.4528 7.22687 12.4528 8.77437 11.4359 8.77437H8.77406V11.4362C8.77406 12.4531 7.22656 12.4531 7.22656 11.4362ZM8 16C12.4184 16 16 12.4187 16 8C16 3.58156 12.4184 0 8 0C3.58156 0 0 3.58156 0 8C0 12.4184 3.58156 16 8 16Z" fill="url(#paint0_radial_10023_656)"/>
<path d="M8 0.200195C12.308 0.200195 15.7998 3.69202 15.7998 8C15.7998 12.3083 12.308 15.7998 8 15.7998C3.69202 15.7998 0.200195 12.308 0.200195 8C0.200195 3.69202 3.69202 0.200195 8 0.200195ZM8 3.60156C7.76487 3.60163 7.52307 3.67875 7.33691 3.8418C7.14676 4.0084 7.02637 4.25495 7.02637 4.56445V7.02734H4.56348C4.25421 7.02741 4.00835 7.14694 3.8418 7.33691C3.67861 7.52317 3.60156 7.7657 3.60156 8.00098C3.60164 8.23614 3.67869 8.4779 3.8418 8.66406C4.00835 8.85413 4.25413 8.97454 4.56348 8.97461H7.02637V11.4365C7.02644 11.7459 7.14684 11.9917 7.33691 12.1582C7.52309 12.3213 7.76482 12.3984 8 12.3984C8.23528 12.3984 8.4778 12.3214 8.66406 12.1582C8.85402 11.9917 8.97356 11.7458 8.97363 11.4365V8.97461H11.4355C11.7451 8.97461 11.9916 8.85421 12.1582 8.66406C12.3213 8.47791 12.3984 8.2361 12.3984 8.00098C12.3984 7.7657 12.3214 7.52317 12.1582 7.33691C11.9916 7.14679 11.745 7.02734 11.4355 7.02734H8.97363V4.56445C8.97363 4.25499 8.85417 4.0084 8.66406 3.8418C8.4778 3.67861 8.23528 3.60156 8 3.60156Z" stroke="url(#paint1_linear_10023_656)" stroke-opacity="0.25" stroke-width="0.4"/>
<defs>
<radialGradient id="paint0_radial_10023_656" cx="0" cy="0" r="1" gradientUnits="userSpaceOnUse" gradientTransform="translate(9.75178 -3.66785) rotate(96.2409) scale(18.6911 37.9642)">
<stop stop-color="#36EBB8"/>
<stop offset="1" stop-color="#49F155"/>
</radialGradient>
<linearGradient id="paint1_linear_10023_656" x1="8" y1="0" x2="8" y2="16" gradientUnits="userSpaceOnUse">
<stop stop-color="white"/>
<stop offset="1"/>
</linearGradient>
</defs>
</svg>
