<svg width="14" height="16" viewBox="0 0 14 16" fill="none" xmlns="http://www.w3.org/2000/svg">
<path fill-rule="evenodd" clip-rule="evenodd" d="M13.0716 9.56215C12.3973 8.07899 12.4148 7.52091 12.4458 6.50665C12.4538 6.26704 12.4618 6.00671 12.4618 5.70816C12.4618 3.33812 10.7668 0 6.9996 0C3.23234 0 1.53741 3.33812 1.53741 5.70816C1.53741 6.00591 1.54537 6.26704 1.55333 6.50665C1.58438 7.52091 1.6011 8.07898 0.91962 9.58205C0.628241 10.3336 0.663271 10.9824 1.0255 11.511C1.89486 12.7832 4.4106 12.9584 6.9996 12.9584C9.58858 12.9584 12.1043 12.7832 12.9737 11.511C13.3367 10.9824 13.3717 10.3336 13.0716 9.56215Z" fill="url(#paint0_radial_10023_5867)"/>
<path fill-rule="evenodd" clip-rule="evenodd" d="M9.14714 13.7645C7.84867 13.9086 6.44114 13.9078 4.8409 13.7629C4.60127 13.7438 4.36403 13.8704 4.25416 14.0893C4.1435 14.309 4.17853 14.5726 4.34174 14.7557C5.05824 15.5574 6.00089 16 6.99603 16H6.99762C7.99516 16 8.94015 15.5582 9.65825 14.7557C9.82305 14.5718 9.85728 14.3043 9.74423 14.0837C9.63039 13.8648 9.39633 13.7422 9.14714 13.7645Z" fill="url(#paint1_radial_10023_5867)"/>
<path d="M4.82324 13.9619C6.43166 14.1075 7.85112 14.1082 9.16406 13.9629L9.16504 13.9639C9.33732 13.9485 9.49172 14.0325 9.56641 14.1758C9.64137 14.3227 9.61864 14.5003 9.50977 14.6221H9.50879C8.82537 15.3858 7.93362 15.7997 6.99805 15.7998H6.99609C6.06299 15.7998 5.17331 15.3853 4.49121 14.6221H4.49023C4.3822 14.5003 4.35931 14.3256 4.43262 14.1797V14.1787C4.49552 14.0535 4.62497 13.9718 4.76465 13.9619H4.82324ZM7 0.200195C8.81662 0.200313 10.126 1.00247 10.9863 2.08984C11.8512 3.18312 12.2617 4.56536 12.2617 5.70801C12.2617 6.00303 12.254 6.26073 12.2461 6.5V6.50098C12.2307 7.00531 12.2171 7.41761 12.2969 7.8916C12.3765 8.36439 12.547 8.8894 12.8848 9.63379V9.63477C13.1683 10.3636 13.1238 10.9384 12.8086 11.3975V11.3984C12.4208 11.9657 11.6435 12.315 10.5938 12.5156C9.55261 12.7146 8.29287 12.7588 7 12.7588C5.70691 12.7588 4.44655 12.7146 3.40527 12.5156C2.35552 12.315 1.57816 11.9658 1.19043 11.3984C0.875271 10.9385 0.83192 10.3624 1.10645 9.6543L1.10547 9.65332C1.44678 8.8991 1.62047 8.36976 1.70117 7.89453C1.7821 7.41791 1.76837 7.00551 1.75293 6.50098V6.5C1.74498 6.26074 1.7373 6.00223 1.7373 5.70801C1.73734 4.56538 2.14783 3.18311 3.0127 2.08984C3.87305 1.00239 5.18315 0.200195 7 0.200195Z" stroke="url(#paint2_linear_10023_5867)" stroke-opacity="0.25" stroke-width="0.4"/>
<defs>
<radialGradient id="paint0_radial_10023_5867" cx="0" cy="0" r="1" gradientUnits="userSpaceOnUse" gradientTransform="translate(8.37318 -3.66785) rotate(94.9024) scale(18.6485 29.8442)">
<stop stop-color="#FFBD61"/>
<stop offset="1" stop-color="#FFB938"/>
</radialGradient>
<radialGradient id="paint1_radial_10023_5867" cx="0" cy="0" r="1" gradientUnits="userSpaceOnUse" gradientTransform="translate(8.37318 -3.66785) rotate(94.9024) scale(18.6485 29.8442)">
<stop stop-color="#FFBD61"/>
<stop offset="1" stop-color="#FFB938"/>
</radialGradient>
<linearGradient id="paint2_linear_10023_5867" x1="6.99921" y1="0" x2="6.99921" y2="16" gradientUnits="userSpaceOnUse">
<stop stop-color="white"/>
<stop offset="1"/>
</linearGradient>
</defs>
</svg>
