<svg width="16" height="16" viewBox="0 0 16 16" fill="none" xmlns="http://www.w3.org/2000/svg">
<path fill-rule="evenodd" clip-rule="evenodd" d="M3.15874 2.7359C3.15874 1.2249 4.38364 0 5.89464 0C6.74084 0 7.49729 0.384179 7.99918 0.987635C8.50108 0.384179 9.25753 0 10.1037 0C11.6147 0 12.8396 1.2249 12.8396 2.7359C12.8396 3.37085 12.6234 3.95529 12.2604 4.41953H13.0501C14.2124 4.41953 15.1546 5.36177 15.1546 6.52407V7.57634C15.1546 7.92502 14.8719 8.2077 14.5233 8.2077H8.88309C8.7436 8.2077 8.63055 8.09465 8.63055 7.95516V5.04171C8.3924 4.88922 8.17933 4.70083 7.99918 4.48417C7.81904 4.70083 7.60597 4.88922 7.36782 5.04171V7.95516C7.36782 8.09465 7.25477 8.2077 7.11528 8.2077H1.47511C1.12642 8.2077 0.84375 7.92502 0.84375 7.57634V6.52407C0.84375 5.36177 1.78599 4.41953 2.94829 4.41953H3.73798C3.37504 3.95529 3.15874 3.37085 3.15874 2.7359ZM7.36782 2.7359C7.36782 1.92229 6.70826 1.26272 5.89464 1.26272C5.08103 1.26272 4.42147 1.92229 4.42147 2.7359C4.42147 3.54952 5.08103 4.20908 5.89464 4.20908C6.70826 4.20908 7.36782 3.54952 7.36782 2.7359ZM8.63055 2.7359C8.63055 3.54952 9.29011 4.20908 10.1037 4.20908C10.9173 4.20908 11.5769 3.54952 11.5769 2.7359C11.5769 1.92229 10.9173 1.26272 10.1037 1.26272C9.29011 1.26272 8.63055 1.92229 8.63055 2.7359Z" fill="url(#paint0_radial_10023_100)"/>
<path d="M7.36778 9.59637C7.36778 9.45688 7.25472 9.34383 7.11523 9.34383H2.65278C2.3113 9.34383 2.01949 9.58989 1.96181 9.92645C1.77489 11.0173 1.77489 12.132 1.96181 13.2228L2.15064 14.3248C2.27779 15.0667 2.8804 15.6351 3.62853 15.7188L4.52518 15.819C5.38459 15.915 6.24699 15.9753 7.11018 15.9999C7.25161 16.0039 7.36778 15.89 7.36778 15.7484V9.59637Z" fill="url(#paint1_radial_10023_100)"/>
<path d="M8.88814 15.9999C8.74672 16.0039 8.63055 15.89 8.63055 15.7484V9.59637C8.63055 9.45688 8.7436 9.34383 8.88309 9.34383H13.3456C13.687 9.34383 13.9789 9.58989 14.0365 9.92645C14.2234 11.0173 14.2234 12.132 14.0365 13.2228L13.8477 14.3248C13.7205 15.0667 13.1179 15.6351 12.3698 15.7188L11.4732 15.819C10.6137 15.915 9.75134 15.9753 8.88814 15.9999Z" fill="url(#paint2_radial_10023_100)"/>
<path d="M2.65234 9.54395H7.11523C7.14427 9.54395 7.16797 9.56765 7.16797 9.59668V15.748C7.16797 15.7779 7.14371 15.8004 7.11621 15.7998C6.25868 15.7754 5.40162 15.7155 4.54785 15.6201L3.65039 15.5205C2.99094 15.4466 2.45974 14.9451 2.34766 14.291L2.15918 13.1895C1.97609 12.121 1.97609 11.0284 2.15918 9.95996C2.20049 9.71972 2.40857 9.54415 2.65234 9.54395ZM8.88281 9.54395H13.3457C13.5896 9.54402 13.7986 9.71958 13.8398 9.95996C14.0229 11.0284 14.0229 12.121 13.8398 13.1895L13.6504 14.291C13.5382 14.9451 13.0072 15.4467 12.3477 15.5205L11.4512 15.6201C10.5973 15.7155 9.74038 15.7754 8.88281 15.7998C8.85519 15.8006 8.83008 15.778 8.83008 15.748V9.59668C8.83008 9.56774 8.85391 9.5441 8.88281 9.54395ZM5.89453 1.0625C4.97051 1.06256 4.22168 1.81229 4.22168 2.73633C4.22191 3.66017 4.97065 4.40912 5.89453 4.40918C6.81846 4.40918 7.56715 3.6602 7.56738 2.73633C7.56738 1.81226 6.8186 1.0625 5.89453 1.0625ZM10.1035 1.0625C9.17954 1.06261 8.43066 1.81233 8.43066 2.73633C8.43089 3.66013 9.17968 4.40907 10.1035 4.40918C11.0274 4.40918 11.7771 3.6602 11.7773 2.73633C11.7773 1.81226 11.0276 1.0625 10.1035 1.0625ZM8.83008 4.93262L8.73828 4.87305C8.51765 4.73174 8.32027 4.55718 8.15332 4.35645L7.99902 4.1709L7.8457 4.35645C7.67866 4.55735 7.48057 4.73166 7.25977 4.87305L7.16797 4.93262V7.95508C7.16797 7.98411 7.14427 8.00781 7.11523 8.00781H1.47559C1.23736 8.00781 1.04395 7.8144 1.04395 7.57617V6.52441C1.04395 5.47258 1.89642 4.61917 2.94824 4.61914H4.14844L3.89551 4.2959C3.55931 3.86573 3.3585 3.32477 3.3584 2.73633C3.3584 1.33582 4.49404 0.200257 5.89453 0.200195C6.67878 0.200195 7.38018 0.55552 7.8457 1.11523L7.99902 1.30078L8.15332 1.11523C8.61881 0.555755 9.3195 0.200258 10.1035 0.200195C11.504 0.200195 12.6396 1.33579 12.6396 2.73633C12.6396 3.32485 12.4388 3.86571 12.1025 4.2959L11.8506 4.61914H13.0498C14.1016 4.61914 14.9551 5.47257 14.9551 6.52441V7.57617C14.9551 7.81433 14.7616 8.00772 14.5234 8.00781H8.88281C8.85391 8.00766 8.83008 7.98402 8.83008 7.95508V4.93262Z" stroke="url(#paint3_linear_10023_100)" stroke-opacity="0.25" stroke-width="0.4"/>
<defs>
<radialGradient id="paint0_radial_10023_100" cx="0" cy="0" r="1" gradientUnits="userSpaceOnUse" gradientTransform="translate(9.56603 -3.66785) rotate(95.5865) scale(18.669 33.9965)">
<stop stop-color="#FFACC4"/>
<stop offset="1" stop-color="#B968FF"/>
</radialGradient>
<radialGradient id="paint1_radial_10023_100" cx="0" cy="0" r="1" gradientUnits="userSpaceOnUse" gradientTransform="translate(9.56603 -3.66785) rotate(95.5865) scale(18.669 33.9965)">
<stop stop-color="#FFACC4"/>
<stop offset="1" stop-color="#B968FF"/>
</radialGradient>
<radialGradient id="paint2_radial_10023_100" cx="0" cy="0" r="1" gradientUnits="userSpaceOnUse" gradientTransform="translate(9.56603 -3.66785) rotate(95.5865) scale(18.669 33.9965)">
<stop stop-color="#FFACC4"/>
<stop offset="1" stop-color="#B968FF"/>
</radialGradient>
<linearGradient id="paint3_linear_10023_100" x1="7.99918" y1="0" x2="7.99918" y2="16" gradientUnits="userSpaceOnUse">
<stop stop-color="white"/>
<stop offset="1"/>
</linearGradient>
</defs>
</svg>
