<svg width="16" height="16" viewBox="0 0 16 16" fill="none" xmlns="http://www.w3.org/2000/svg">
<path d="M15.3438 12.1679C14.9013 11.7254 13.5063 10.6954 12.1213 9.89792C12.1063 9.92042 12.0913 9.94292 12.0763 9.96792C13.6388 7.45047 13.3313 4.09804 11.1438 1.91059C8.59388 -0.636862 4.46147 -0.636862 1.91152 1.91059C-0.638424 4.46303 -0.635924 8.59295 1.91152 11.1429C4.07898 13.3079 7.38641 13.6354 9.89636 12.1204C10.6188 13.3754 11.6713 14.8478 12.1688 15.3453C13.0438 16.2203 14.4688 16.2178 15.3437 15.3428C16.2188 14.4653 16.2187 13.0454 15.3438 12.1679ZM9.42389 9.42293C7.82392 11.0204 5.23398 11.0204 3.63401 9.42043C2.03655 7.82296 2.03404 5.23302 3.63401 3.63305C5.23148 2.03558 7.82393 2.03558 9.42139 3.63305C11.0214 5.23302 11.0214 7.82546 9.42389 9.42293Z" fill="url(#paint0_radial_10023_1878)"/>
<path d="M2.05273 2.05176C4.52446 -0.417447 8.53009 -0.417226 11.002 2.05176C13.1221 4.1719 13.4209 7.42184 11.9062 9.8623L11.9053 9.86523L12.0781 9.9707L12.0215 10.0713C13.2276 10.7658 14.433 11.6336 15 12.124L15.2021 12.3096C15.9493 13.0591 15.9957 14.2422 15.3418 15.0459L15.2021 15.2012C14.4051 15.9983 13.1072 16.0004 12.3105 15.2041C11.8317 14.7252 10.7889 13.2704 10.0693 12.0205L9.96777 11.8438L9.79297 11.9492C7.36003 13.4177 4.15374 13.0996 2.05273 11.001H2.05176C-0.41679 8.52899 -0.418792 4.52576 2.05273 2.05176ZM9.5625 3.49121C7.8869 1.81601 5.16764 1.81577 3.49219 3.49121C1.81416 5.16924 1.81706 7.886 3.49219 9.56152C5.11784 11.1872 7.71874 11.2385 9.40527 9.7168L9.56543 9.56445C11.2411 7.8888 11.2405 5.1692 9.5625 3.49121Z" stroke="url(#paint1_linear_10023_1878)" stroke-opacity="0.25" stroke-width="0.4"/>
<defs>
<radialGradient id="paint0_radial_10023_1878" cx="0" cy="0" r="1" gradientUnits="userSpaceOnUse" gradientTransform="translate(9.75178 -3.66792) rotate(96.2408) scale(18.6915 37.9642)">
<stop stop-color="#94C1EB"/>
<stop offset="1" stop-color="#71B8A7"/>
</radialGradient>
<linearGradient id="paint1_linear_10023_1878" x1="8" y1="0" x2="8" y2="16.0003" gradientUnits="userSpaceOnUse">
<stop stop-color="white"/>
<stop offset="1"/>
</linearGradient>
</defs>
</svg>
