<svg width="17" height="15" viewBox="0 0 17 15" fill="none" xmlns="http://www.w3.org/2000/svg">
<path d="M16.1348 12.1493V13.5778C16.1348 14.3658 15.4936 15.0064 14.7062 15.0064H2.42048C1.15991 15.0064 0.134766 13.9813 0.134766 12.7207C0.134766 12.7207 0.134766 3.01499 0.134766 3.00642C0.134766 1.74585 1.15991 0.720703 2.42048 0.720703H12.9919C13.4656 0.720703 13.8491 1.1047 13.8491 1.57785C13.8491 2.05099 13.4656 2.43499 12.9919 2.43499H2.42048C2.10562 2.43499 1.84905 2.69099 1.84905 3.00642C1.84905 3.32185 2.10562 3.57785 2.42048 3.57785H14.7062C15.4936 3.57785 16.1348 4.21842 16.1348 5.00642V6.43499H13.2776C11.7022 6.43499 10.4205 7.7167 10.4205 9.29213C10.4205 10.8676 11.7022 12.1493 13.2776 12.1493H16.1348Z" fill="url(#paint0_radial_10023_668)"/>
<path d="M16.1348 7.57785V11.0064H13.2776C12.3308 11.0064 11.5633 10.239 11.5633 9.29213C11.5633 8.34527 12.3308 7.57785 13.2776 7.57785H16.1348Z" fill="url(#paint1_radial_10023_668)"/>
<path d="M2.4209 0.920898H12.9922C13.3552 0.921049 13.6494 1.21545 13.6494 1.57812C13.6493 1.94068 13.3551 2.2352 12.9922 2.23535H2.4209C1.99571 2.23535 1.64941 2.58082 1.64941 3.00684C1.64964 3.43266 1.99585 3.77832 2.4209 3.77832H14.7061C15.3831 3.77832 15.9346 4.32934 15.9346 5.00684V6.23535H13.2773C11.5916 6.2355 10.2208 7.60626 10.2207 9.29199C10.2207 10.9778 11.5916 12.3495 13.2773 12.3496H15.9346V13.5781C15.9344 14.2555 15.383 14.8066 14.7061 14.8066H2.4209C1.27078 14.8066 0.334961 13.8708 0.334961 12.7207V3.00684L0.345703 2.79395C0.452488 1.74327 1.34251 0.920898 2.4209 0.920898ZM13.2773 7.77832H15.9346V10.8066H13.2773C12.4411 10.8065 11.7637 10.1283 11.7637 9.29199C11.7637 8.45575 12.4411 7.77847 13.2773 7.77832Z" stroke="url(#paint2_linear_10023_668)" stroke-opacity="0.25" stroke-width="0.4"/>
<defs>
<radialGradient id="paint0_radial_10023_668" cx="0" cy="0" r="1" gradientUnits="userSpaceOnUse" gradientTransform="translate(9.88655 -2.55416) rotate(96.9828) scale(16.7135 37.9072)">
<stop stop-color="#AAAEBF"/>
<stop offset="1" stop-color="#525B62"/>
</radialGradient>
<radialGradient id="paint1_radial_10023_668" cx="0" cy="0" r="1" gradientUnits="userSpaceOnUse" gradientTransform="translate(9.88655 -2.55416) rotate(96.9828) scale(16.7135 37.9072)">
<stop stop-color="#AAAEBF"/>
<stop offset="1" stop-color="#525B62"/>
</radialGradient>
<linearGradient id="paint2_linear_10023_668" x1="8.13477" y1="0.720703" x2="8.13477" y2="15.0064" gradientUnits="userSpaceOnUse">
<stop stop-color="white"/>
<stop offset="1"/>
</linearGradient>
</defs>
</svg>
