<svg width="16" height="16" viewBox="0 0 16 16" fill="none" xmlns="http://www.w3.org/2000/svg">
<path d="M7.14258 8.97363V15.2598H3.42871C2.8225 15.2598 2.24115 15.0185 1.8125 14.5898C1.38395 14.1612 1.14258 13.5798 1.14258 12.9736V8.97363H7.14258ZM14.8574 12.9736C14.8574 13.5798 14.6161 14.1612 14.1875 14.5898C13.7588 15.0185 13.1775 15.2598 12.5713 15.2598H8.85742V8.97363H14.8574V12.9736ZM9.9209 0.402344C10.6413 0.381861 11.3427 0.63445 11.8848 1.10938C12.4269 1.58441 12.7695 2.24692 12.8438 2.96387C12.918 3.68077 12.7193 4.39952 12.2861 4.97559H14.8574C15.1603 4.97566 15.4508 5.09553 15.665 5.30957C15.8794 5.5239 16 5.81506 16 6.11816C16 6.42127 15.8794 6.71243 15.665 6.92676C15.4508 7.1408 15.1603 7.26067 14.8574 7.26074H8.85742V4.97559H7.14258V7.26074H1.14258C0.839738 7.26067 0.549189 7.1408 0.334961 6.92676C0.120634 6.71243 0 6.42127 0 6.11816C4.70743e-07 5.81506 0.120634 5.5239 0.334961 5.30957C0.549189 5.09553 0.839739 4.97566 1.14258 4.97559H3.71387C3.35502 4.49788 3.14258 3.90416 3.14258 3.26074C3.14249 2.69821 3.3089 2.14828 3.62012 1.67969C3.93149 1.21096 4.37478 0.843983 4.89355 0.625977C5.41219 0.408143 5.98359 0.348537 6.53613 0.454102C7.08882 0.559698 7.59815 0.825865 8 1.21973C8.51422 0.714691 9.20044 0.422839 9.9209 0.402344ZM5.75 2.14551C5.53121 2.19448 5.33125 2.30721 5.17578 2.46875C5.0205 2.63023 4.91651 2.83435 4.87598 3.05469C4.83551 3.27507 4.86049 3.50281 4.94824 3.70898C5.03605 3.9151 5.18224 4.09129 5.36914 4.21484C5.55618 4.33847 5.7758 4.40436 6 4.4043H7.14258L7.1416 3.26074V3.21777C7.13308 2.9938 7.05934 2.77686 6.92871 2.59473C6.79802 2.41256 6.61575 2.2732 6.40625 2.19336C6.19683 2.11361 5.96868 2.09656 5.75 2.14551ZM9.99902 2.11816C9.70336 2.11795 9.41916 2.23256 9.20605 2.4375C8.99293 2.64252 8.86768 2.92226 8.85645 3.21777L8.85742 3.26074V4.4043H9.99902C10.3019 4.40425 10.5924 4.28346 10.8066 4.06934C11.021 3.85501 11.1416 3.56385 11.1416 3.26074C11.1415 2.95774 11.0209 2.66739 10.8066 2.45312C10.5924 2.23887 10.302 2.11821 9.99902 2.11816Z" fill="url(#paint0_radial_7890_47291)"/>
<defs>
<radialGradient id="paint0_radial_7890_47291" cx="0" cy="0" r="1" gradientUnits="userSpaceOnUse" gradientTransform="translate(9.75178 -3.00482) rotate(96.7161) scale(17.374 37.9284)">
<stop stop-color="#EF8AB1"/>
<stop offset="1" stop-color="#A849F1"/>
</radialGradient>
</defs>
</svg>
