<svg width="16" height="16" viewBox="0 0 16 16" fill="none" xmlns="http://www.w3.org/2000/svg">
<path fill-rule="evenodd" clip-rule="evenodd" d="M8 16C3.58125 16 -1.93136e-07 12.4184 0 8C1.93136e-07 3.58156 3.58156 -1.93136e-07 8 0C12.4184 1.93136e-07 16 3.58156 16 8C16 12.4184 12.4184 16 8 16ZM4.56375 7.22656C3.54688 7.22656 3.54688 8.77406 4.56375 8.77406H11.4359C12.4528 8.77406 12.4528 7.22656 11.4359 7.22656H4.56375Z" fill="url(#paint0_radial_10023_662)"/>
<path d="M8 0.200195C12.308 0.200196 15.7998 3.69202 15.7998 8C15.7998 12.308 12.308 15.7998 8 15.7998C3.69171 15.7998 0.200195 12.308 0.200195 8C0.200196 3.69202 3.69202 0.200195 8 0.200195ZM4.56348 7.02637C4.25412 7.02644 4.00835 7.14684 3.8418 7.33691C3.67868 7.52309 3.60163 7.76482 3.60156 8C3.60156 8.23528 3.67861 8.4778 3.8418 8.66406C4.00834 8.85402 4.25422 8.97356 4.56348 8.97363H11.4355C11.745 8.97363 11.9916 8.85417 12.1582 8.66406C12.3214 8.4778 12.3984 8.23528 12.3984 8C12.3984 7.76487 12.3212 7.52307 12.1582 7.33691C11.9916 7.14676 11.7451 7.02637 11.4355 7.02637H4.56348Z" stroke="url(#paint1_linear_10023_662)" stroke-opacity="0.25" stroke-width="0.4"/>
<defs>
<radialGradient id="paint0_radial_10023_662" cx="0" cy="0" r="1" gradientUnits="userSpaceOnUse" gradientTransform="translate(9.75178 -3.66785) rotate(96.2409) scale(18.6911 37.9642)">
<stop stop-color="#A236EB"/>
<stop offset="1" stop-color="#8F49F1"/>
</radialGradient>
<linearGradient id="paint1_linear_10023_662" x1="8" y1="0" x2="8" y2="16" gradientUnits="userSpaceOnUse">
<stop stop-color="white"/>
<stop offset="1"/>
</linearGradient>
</defs>
</svg>
