<svg width="40" height="37" viewBox="0 0 40 37" fill="none" xmlns="http://www.w3.org/2000/svg">
<g id="Group">
<g id="Group_2">
<path id="Vector" d="M22.2698 14.8994L8.13361 13.7613L0 7.27888L5.19926 2.33618L22.1248 8.13801L22.2698 14.8994Z" fill="url(#paint0_linear_3090_209154)"/>
<path id="Vector_2" d="M39.9999 20.981L29.4564 21.0702L21.9922 8.09424L38.9177 13.8849L39.9999 20.981Z" fill="url(#paint1_linear_3090_209154)"/>
<path id="Vector_3" d="M31.5871 7.68146L14.6616 1.87964L5.06641 2.29246L12.3967 8.50711L29.3222 14.2978L38.9174 13.885L31.5871 7.68146Z" fill="url(#paint2_linear_3090_209154)"/>
<path id="Vector_4" d="M29.4542 21.0711L8.13281 13.763L12.3949 8.50793L29.3203 14.2986L29.4542 21.0711Z" fill="url(#paint3_linear_3090_209154)"/>
<path id="Vector_5" d="M12.4172 36.0192L8.13281 13.7603L29.4542 21.0683L12.4172 36.0192Z" fill="url(#paint4_linear_3090_209154)"/>
<path id="Vector_6" d="M12.418 36.0204L0 7.27905L8.13361 13.7615L12.418 36.0204Z" fill="url(#paint5_linear_3090_209154)"/>
<path id="Vector_7" d="M29.455 21.0707L39.9986 20.9814L12.418 36.0216L29.455 21.0707Z" fill="url(#paint6_linear_3090_209154)"/>
</g>
<g id="Group_3">
<g id="Group_4">
<path id="Vector_8" d="M39.9961 20.9859L29.4525 20.9078C29.3632 20.9078 29.2852 20.9859 29.2852 21.0752C29.2852 21.1533 29.3298 21.2091 29.3967 21.2314C29.419 21.2314 29.4302 21.2314 29.4525 21.2314C29.4525 21.2314 40.0072 21.0194 39.9961 20.9748V20.9859Z" fill="url(#paint7_linear_3090_209154)"/>
</g>
<g id="Group_5">
<path id="Vector_9" d="M29.6224 20.9067L29.4885 14.4578C30.7381 14.3908 38.894 13.9334 38.9163 13.8887L29.3435 14.1342L12.4849 8.35469C12.4849 8.35469 5.47818 2.44129 5.22156 2.32971C5.22156 2.37434 11.2465 7.70755 12.1725 8.52204L8.11131 13.5317L0 7.27242L7.98856 13.8553L11.9494 34.4294C11.9494 34.4294 11.9494 34.4294 11.9494 34.4517C12.0498 35.0542 12.206 35.4671 12.418 36.0361C12.4961 36.0138 8.82536 16.6 8.3456 14.0338L29.1315 21.1522C27.179 22.8816 12.3733 35.9803 12.418 36.0361C12.4403 36.0696 13.7234 35.11 13.7345 35.0989L29.5219 21.2414C29.5219 21.2414 39.9986 21.0071 39.9986 20.9848C38.5035 20.9402 30.8274 20.9067 29.6224 20.9067ZM12.4514 8.70056L29.1538 14.4243L29.2877 20.8398L8.41254 13.6879L12.4514 8.70056Z" fill="url(#paint8_linear_3090_209154)"/>
</g>
</g>
<g id="Group_6">
<path id="Vector_10" opacity="0.54" d="M6.82768 3.62561L1.92969 8.76915L3.91567 10.4316L8.73559 5.47774L6.82768 3.62561Z" fill="url(#paint9_linear_3090_209154)"/>
</g>
<g id="Group_7">
<path id="Vector_11" opacity="0.54" d="M10.3513 6.7804L6.07812 12.1248L7.03763 12.8946L11.3109 7.5391L10.3513 6.7804Z" fill="url(#paint10_linear_3090_209154)"/>
</g>
<g id="Group_8">
<path id="Vector_12" opacity="0.54" d="M11.1484 14.8597L12.4315 36.0253L13.6811 15.6631L11.1484 14.8597Z" fill="url(#paint11_linear_3090_209154)"/>
</g>
<g id="Group_9">
<path id="Vector_13" opacity="0.54" d="M11.1445 14.8644L14.7372 9.31921L17.0244 10.1114L13.6772 15.6678L11.1445 14.8644Z" fill="url(#paint12_linear_3090_209154)"/>
</g>
<g id="Group_10">
<path id="Vector_14" d="M13.3206 8.09687L13.9119 4.93933L12.4503 7.80676L10.5312 8.04108L11.9036 9.40228L11.3011 12.5598L12.7739 9.70351L14.6817 9.46922L13.3206 8.09687Z" fill="url(#paint13_linear_3090_209154)"/>
<path id="Vector_15" d="M13.5657 8.59771L15.786 6.27698L12.9966 7.86132L11.2561 7.02452L11.6578 8.91012L9.4375 11.2308L12.2268 9.63534L13.9562 10.4833L13.5657 8.59771Z" fill="url(#paint14_linear_3090_209154)"/>
</g>
<g id="Group_11">
<path id="Vector_16" d="M4.7062 3.71705L4.79547 2.53437L3.83594 1.87608L4.9963 1.95419L5.65457 0.961182L5.56529 2.14387L6.536 2.80215L5.36447 2.72405L4.7062 3.71705Z" fill="url(#paint15_linear_3090_209154)"/>
</g>
</g>
<defs>
<linearGradient id="paint0_linear_3090_209154" x1="3.79435" y1="2.3687" x2="18.2443" y2="13.2746" gradientUnits="userSpaceOnUse">
<stop stop-color="#3CD6F4"/>
<stop offset="0.16" stop-color="#37CBEF"/>
<stop offset="0.44" stop-color="#2BB0E3"/>
<stop offset="0.8" stop-color="#1884D0"/>
<stop offset="1" stop-color="#0C69C4"/>
</linearGradient>
<linearGradient id="paint1_linear_3090_209154" x1="29.104" y1="14.7665" x2="40.7737" y2="15.4383" gradientUnits="userSpaceOnUse">
<stop stop-color="#3CD6F4"/>
<stop offset="0.16" stop-color="#37CBEF"/>
<stop offset="0.44" stop-color="#2BB0E3"/>
<stop offset="0.8" stop-color="#1884D0"/>
<stop offset="1" stop-color="#0C69C4"/>
</linearGradient>
<linearGradient id="paint2_linear_3090_209154" x1="19.6194" y1="-0.960536" x2="25.0758" y2="19.7081" gradientUnits="userSpaceOnUse">
<stop stop-color="#3CD6F4"/>
<stop offset="0.16" stop-color="#37CBEF"/>
<stop offset="0.44" stop-color="#2BB0E3"/>
<stop offset="0.8" stop-color="#1884D0"/>
<stop offset="1" stop-color="#0C69C4"/>
</linearGradient>
<linearGradient id="paint3_linear_3090_209154" x1="13.1312" y1="8.71992" x2="38.4807" y2="32.7748" gradientUnits="userSpaceOnUse">
<stop stop-color="#3CD6F4"/>
<stop offset="0.16" stop-color="#37CBEF"/>
<stop offset="0.44" stop-color="#2BB0E3"/>
<stop offset="0.8" stop-color="#1884D0"/>
<stop offset="1" stop-color="#0C69C4"/>
</linearGradient>
<linearGradient id="paint4_linear_3090_209154" x1="18.5648" y1="18.0447" x2="8.92471" y2="45.1235" gradientUnits="userSpaceOnUse">
<stop stop-color="#3CD6F4"/>
<stop offset="0.16" stop-color="#37CBEF"/>
<stop offset="0.44" stop-color="#2BB0E3"/>
<stop offset="0.8" stop-color="#1884D0"/>
<stop offset="1" stop-color="#0C69C4"/>
</linearGradient>
<linearGradient id="paint5_linear_3090_209154" x1="2.71736" y1="7.57842" x2="14.3424" y2="34.0988" gradientUnits="userSpaceOnUse">
<stop stop-color="#3CD6F4"/>
<stop offset="0.16" stop-color="#37CBEF"/>
<stop offset="0.44" stop-color="#2BB0E3"/>
<stop offset="0.8" stop-color="#1884D0"/>
<stop offset="1" stop-color="#0C69C4"/>
</linearGradient>
<linearGradient id="paint6_linear_3090_209154" x1="33.7838" y1="21.6896" x2="14.0187" y2="35.6284" gradientUnits="userSpaceOnUse">
<stop stop-color="#3CD6F4"/>
<stop offset="0.16" stop-color="#37CBEF"/>
<stop offset="0.44" stop-color="#2BB0E3"/>
<stop offset="0.8" stop-color="#1884D0"/>
<stop offset="1" stop-color="#0C69C4"/>
</linearGradient>
<linearGradient id="paint7_linear_3090_209154" x1="36.3996" y1="15.7036" x2="28.7393" y2="39.1668" gradientUnits="userSpaceOnUse">
<stop stop-color="#FFFAFF"/>
<stop offset="0.14" stop-color="#FEF2FE"/>
<stop offset="0.34" stop-color="#FDDCFD"/>
<stop offset="0.6" stop-color="#FBB8FA"/>
<stop offset="0.89" stop-color="#F888F7"/>
<stop offset="1" stop-color="#F774F6"/>
</linearGradient>
<linearGradient id="paint8_linear_3090_209154" x1="21.1269" y1="10.7171" x2="13.4768" y2="34.1844" gradientUnits="userSpaceOnUse">
<stop stop-color="#FFFAFF"/>
<stop offset="0.14" stop-color="#FEF2FE"/>
<stop offset="0.34" stop-color="#FDDCFD"/>
<stop offset="0.6" stop-color="#FBB8FA"/>
<stop offset="0.89" stop-color="#F888F7"/>
<stop offset="1" stop-color="#F774F6"/>
</linearGradient>
<linearGradient id="paint9_linear_3090_209154" x1="4.39731" y1="6.1907" x2="6.60092" y2="8.08957" gradientUnits="userSpaceOnUse">
<stop stop-color="#FFFAFF"/>
<stop offset="0.1" stop-color="#F7F8FE"/>
<stop offset="0.26" stop-color="#E1F4FD"/>
<stop offset="0.46" stop-color="#BDEDFB"/>
<stop offset="0.68" stop-color="#8CE3F8"/>
<stop offset="0.93" stop-color="#4ED7F4"/>
<stop offset="1" stop-color="#3AD4F3"/>
</linearGradient>
<linearGradient id="paint10_linear_3090_209154" x1="7.06896" y1="9.26217" x2="10.3516" y2="10.3867" gradientUnits="userSpaceOnUse">
<stop stop-color="#FFFAFF"/>
<stop offset="0.1" stop-color="#F7F8FE"/>
<stop offset="0.26" stop-color="#E1F4FD"/>
<stop offset="0.46" stop-color="#BDEDFB"/>
<stop offset="0.68" stop-color="#8CE3F8"/>
<stop offset="0.93" stop-color="#4ED7F4"/>
<stop offset="1" stop-color="#3AD4F3"/>
</linearGradient>
<linearGradient id="paint11_linear_3090_209154" x1="8.00582" y1="24.1011" x2="15.6372" y2="26.7154" gradientUnits="userSpaceOnUse">
<stop stop-color="#FFFAFF"/>
<stop offset="0.1" stop-color="#F7F8FE"/>
<stop offset="0.26" stop-color="#E1F4FD"/>
<stop offset="0.46" stop-color="#BDEDFB"/>
<stop offset="0.68" stop-color="#8CE3F8"/>
<stop offset="0.93" stop-color="#4ED7F4"/>
<stop offset="1" stop-color="#3AD4F3"/>
</linearGradient>
<linearGradient id="paint12_linear_3090_209154" x1="12.2072" y1="11.8301" x2="15.9965" y2="13.1282" gradientUnits="userSpaceOnUse">
<stop stop-color="#FFFAFF"/>
<stop offset="0.1" stop-color="#F7F8FE"/>
<stop offset="0.26" stop-color="#E1F4FD"/>
<stop offset="0.46" stop-color="#BDEDFB"/>
<stop offset="0.68" stop-color="#8CE3F8"/>
<stop offset="0.93" stop-color="#4ED7F4"/>
<stop offset="1" stop-color="#3AD4F3"/>
</linearGradient>
<linearGradient id="paint13_linear_3090_209154" x1="13.794" y1="6.02231" x2="11.1495" y2="12.1927" gradientUnits="userSpaceOnUse">
<stop stop-color="white"/>
<stop offset="1" stop-color="#FFFDFF"/>
</linearGradient>
<linearGradient id="paint14_linear_3090_209154" x1="15.0928" y1="7.16663" x2="9.4996" y2="10.8807" gradientUnits="userSpaceOnUse">
<stop stop-color="white"/>
<stop offset="1" stop-color="#FFFDFF"/>
</linearGradient>
<linearGradient id="paint15_linear_3090_209154" x1="5.63199" y1="1.34454" x2="4.66428" y2="3.58409" gradientUnits="userSpaceOnUse">
<stop stop-color="white"/>
<stop offset="1" stop-color="#FFFDFF"/>
</linearGradient>
</defs>
</svg>
