<svg width="40" height="35" viewBox="0 0 40 35" fill="none" xmlns="http://www.w3.org/2000/svg">
<g id="Group 1948755486">
<g id="Group">
<path id="Vector" d="M39.8818 13.8123C40.0344 12.6203 40.0344 11.4474 39.8914 10.3126C39.5099 7.09899 38.0032 4.28589 35.5716 2.57895C35.2092 2.32148 34.8182 2.10214 34.4177 1.89235L32.4724 0.967361L32.377 1.16762C29.6593 0.547777 26.7222 1.17716 24.1475 2.79827C23.1843 3.39904 22.2689 4.14284 21.4392 5.01061C20.2854 6.21215 19.2746 7.64254 18.5022 9.2732C17.7202 10.9038 17.2434 12.5917 17.0336 14.2414C16.881 15.4334 16.881 16.6064 17.0241 17.7411C17.3865 20.7641 18.7406 23.4437 20.9338 25.1697L20.8385 25.3699L22.7838 26.2949C23.1939 26.4761 23.6134 26.6382 24.0426 26.7622C26.9034 27.5823 30.0312 26.9815 32.768 25.2555C33.7311 24.6547 34.6466 23.9109 35.4762 23.0431C36.6301 21.8416 37.6409 20.4112 38.4133 18.7806C39.1952 17.1499 39.672 15.4621 39.8818 13.8123Z" fill="url(#paint0_linear_3090_210319)"/>
<g id="Group_2">
<path id="Vector_2" d="M36.5468 17.8833C35.7648 19.5139 34.7635 20.9539 33.6097 22.1459C32.78 23.0136 31.8646 23.7575 30.9015 24.3582C28.1646 26.0842 25.0273 26.685 22.176 25.8649C21.6992 25.7314 21.232 25.5502 20.7743 25.3309C20.3165 25.1116 19.8874 24.8636 19.4774 24.5775C17.0361 22.8801 15.539 20.0575 15.1576 16.8439C15.0241 15.7186 15.0241 14.5362 15.1671 13.3442C15.3674 11.6944 15.8537 10.0066 16.6356 8.37592C17.4176 6.74527 18.4189 5.30534 19.5727 4.11334C20.4023 3.24556 21.3178 2.50177 22.2809 1.901C25.0178 0.174987 28.1551 -0.425781 31.0159 0.394313C31.4927 0.527817 31.96 0.708998 32.4177 0.928325C32.8754 1.14765 33.3045 1.39559 33.7146 1.68167C36.1558 3.37907 37.6529 6.20173 38.0344 9.41535C38.1679 10.5406 38.1679 11.7231 38.0248 12.9151C37.8246 14.5648 37.3382 16.2526 36.5658 17.8833H36.5468Z" fill="url(#paint1_linear_3090_210319)"/>
<path id="Vector_3" d="M33.6948 1.69078L30.4049 7.28839L28.7266 6.48738L31.0057 0.412964C31.4825 0.546468 31.9497 0.727649 32.4074 0.946976C32.8652 1.1663 33.2943 1.41424 33.7043 1.70032L33.6948 1.69078Z" fill="white"/>
<path id="Vector_4" d="M24.5043 7.20251L22.8165 8.58523L19.5742 4.11285C20.4038 3.24508 21.3193 2.50128 22.2824 1.90051L24.5043 7.19298V7.20251Z" fill="white"/>
<path id="Vector_5" d="M20.6694 15.2419L15.1576 16.8439C15.0241 15.7187 15.0241 14.5362 15.1671 13.3442L20.6789 13.0486V15.2323L20.6694 15.2419Z" fill="white"/>
<path id="Vector_6" d="M22.1635 25.8631C21.6867 25.7296 21.2195 25.5484 20.7617 25.3291C20.304 25.1098 19.8749 24.8618 19.4648 24.5758L22.7548 18.9781L24.4331 19.7792L22.154 25.8536L22.1635 25.8631Z" fill="white"/>
<path id="Vector_7" d="M33.602 22.1446C32.7723 23.0124 31.8569 23.7562 30.8938 24.3569L28.6719 19.0645L30.3597 17.6818L33.602 22.1541V22.1446Z" fill="white"/>
<path id="Vector_8" d="M38.004 12.914L32.4922 13.2096V11.0259L38.0231 9.42383C38.1566 10.5491 38.1566 11.7315 38.0135 12.9235L38.004 12.914Z" fill="white"/>
<path id="Vector_9" d="M33.8515 16.5959C31.5056 21.507 26.3562 23.9386 22.3416 22.0314C18.3269 20.1147 16.9824 14.5838 19.3187 9.67281C21.6645 4.76179 26.8139 2.33011 30.8286 4.23731C34.8432 6.15404 36.1878 11.6849 33.8515 16.5959Z" fill="url(#paint2_linear_3090_210319)"/>
</g>
</g>
<g id="Group_3">
<path id="Vector_10" d="M23.9886 17.8842C23.7788 16.7017 23.426 15.5765 22.9587 14.5466C21.6332 11.5904 19.3636 9.34946 16.5315 8.45308C16.1119 8.31957 15.6732 8.21468 15.225 8.14793L13.0985 7.84277L13.0699 8.06211C10.2854 8.28144 7.67254 9.74998 5.69859 12.0672C4.95479 12.9255 4.30634 13.9077 3.77233 14.9852C3.02852 16.4728 2.49451 18.1416 2.23703 19.9344C1.97956 21.7272 2.01771 23.4818 2.32286 25.1124C2.53265 26.2949 2.88548 27.4201 3.35274 28.45C4.60196 31.2345 6.69033 33.3897 9.29366 34.3719L9.26505 34.5912L11.3916 34.8964C11.8398 34.9536 12.288 34.9726 12.7266 34.9631C15.7018 34.8963 18.5149 33.3897 20.6129 30.9294C21.3567 30.0711 22.0051 29.0889 22.5391 28.0114C23.2829 26.5238 23.8169 24.855 24.0744 23.0622C24.3319 21.2694 24.2937 19.5243 23.9886 17.8842Z" fill="url(#paint3_linear_3090_210319)"/>
<g id="Group_4">
<path id="Vector_11" d="M22.0144 22.7667C21.757 24.5595 21.2229 26.2282 20.4791 27.7159C19.9451 28.7839 19.2871 29.7661 18.5529 30.6339C16.455 33.0942 13.6418 34.6104 10.6666 34.6676C10.1707 34.6771 9.67487 34.6485 9.16947 34.5722C8.6736 34.4959 8.17772 34.391 7.71046 34.2385C4.87828 33.3421 2.60871 31.0916 1.28321 28.145C0.815951 27.1056 0.472655 25.9899 0.253328 24.8074C-0.0422873 23.1672 -0.0899671 21.4221 0.167504 19.6293C0.424976 17.8366 0.95899 16.1678 1.7028 14.6802C2.23681 13.6026 2.89479 12.6299 3.62906 11.7622C5.72698 9.30189 8.54009 7.78567 11.5153 7.72845C12.0112 7.71892 12.5071 7.74753 13.0029 7.82382C13.5083 7.90011 13.9947 8.00499 14.4619 8.15757C17.2941 9.05395 19.5637 11.3044 20.8892 14.2511C21.3564 15.2809 21.6997 16.4062 21.9191 17.5887C22.2147 19.2288 22.2624 20.9739 22.0049 22.7667H22.0144Z" fill="url(#paint4_linear_3090_210319)"/>
<path id="Vector_12" d="M14.4787 8.14755L13.0006 14.4699L11.1602 14.2029L11.5225 7.72797C12.0184 7.71843 12.5143 7.74704 13.0101 7.82333C13.5155 7.89962 14.0019 8.00451 14.4691 8.15708L14.4787 8.14755Z" fill="white"/>
<path id="Vector_13" d="M7.33716 16.1609L6.13563 17.9822L1.71094 14.6828C2.24495 13.6052 2.90293 12.6325 3.6372 11.7648L7.33716 16.1609Z" fill="white"/>
<path id="Vector_14" d="M6.07085 24.9695L1.28379 28.145C0.816529 27.1055 0.473234 25.9898 0.253906 24.8074L5.43194 22.8906L6.07085 24.979V24.9695Z" fill="white"/>
<path id="Vector_15" d="M10.6671 34.6707C10.1712 34.6802 9.67535 34.6516 9.16994 34.5753C8.67407 34.499 8.1782 34.3941 7.71094 34.2415L9.18901 27.9192L11.0295 28.1862L10.6671 34.6611V34.6707Z" fill="white"/>
<path id="Vector_16" d="M20.4778 27.7183C19.9438 28.7863 19.2858 29.7685 18.5515 30.6363L14.8516 26.2402L16.0531 24.4188L20.4778 27.7183Z" fill="white"/>
<path id="Vector_17" d="M21.938 17.5882L16.76 19.505L16.1211 17.4166L20.9082 14.2411C21.3754 15.271 21.7187 16.3962 21.938 17.5787V17.5882Z" fill="white"/>
<path id="Vector_18" d="M19.0579 22.3366C18.2855 27.7244 14.0897 31.577 9.68405 30.9476C5.28796 30.3182 2.35088 25.4358 3.1233 20.0384C3.89571 14.6506 8.09154 10.7981 12.4972 11.4274C16.8932 12.0568 19.8399 16.9392 19.0579 22.3366Z" fill="url(#paint5_linear_3090_210319)"/>
</g>
</g>
</g>
<defs>
<linearGradient id="paint0_linear_3090_210319" x1="18.5749" y1="9.31778" x2="38.4916" y2="18.8175" gradientUnits="userSpaceOnUse">
<stop stop-color="#E270B2"/>
<stop offset="1" stop-color="#ED217D"/>
</linearGradient>
<linearGradient id="paint1_linear_3090_210319" x1="16.7097" y1="8.42603" x2="36.6264" y2="17.9258" gradientUnits="userSpaceOnUse">
<stop stop-color="#ED217D"/>
<stop offset="1" stop-color="#E270B2"/>
</linearGradient>
<linearGradient id="paint2_linear_3090_210319" x1="19.4071" y1="9.711" x2="33.9358" y2="16.6408" gradientUnits="userSpaceOnUse">
<stop stop-color="#E270B2"/>
<stop offset="1" stop-color="#ED217D"/>
</linearGradient>
<linearGradient id="paint3_linear_3090_210319" x1="2.21508" y1="19.9058" x2="24.0563" y2="23.0493" gradientUnits="userSpaceOnUse">
<stop stop-color="#F7E262"/>
<stop offset="1" stop-color="#FBB03B"/>
</linearGradient>
<linearGradient id="paint4_linear_3090_210319" x1="0.157218" y1="19.6098" x2="21.9984" y2="22.7532" gradientUnits="userSpaceOnUse">
<stop stop-color="#FBB03B"/>
<stop offset="1" stop-color="#F7E262"/>
</linearGradient>
<linearGradient id="paint5_linear_3090_210319" x1="3.11118" y1="20.034" x2="19.0437" y2="22.3271" gradientUnits="userSpaceOnUse">
<stop stop-color="#F7E262"/>
<stop offset="1" stop-color="#FBB03B"/>
</linearGradient>
</defs>
</svg>
