<svg width="65" height="61" viewBox="0 0 65 61" fill="none" xmlns="http://www.w3.org/2000/svg">
<g filter="url(#filter0_di_489_114904)">
<path fill-rule="evenodd" clip-rule="evenodd" d="M32.02 10.8359C32.3517 10.8409 32.6783 10.9426 32.9567 11.1376C33.4017 11.4493 33.6667 11.9593 33.6667 12.5026V49.1693C33.6667 50.0826 32.9317 50.8243 32.0217 50.8359H32H13.6667C12.7467 50.8359 12 50.0893 12 49.1693C12 49.1693 12 28.5576 12 21.5043C12 19.4009 13.315 17.5243 15.2917 16.8043C20.1583 15.0359 31.43 10.9359 31.43 10.9359C31.6067 10.8726 31.7883 10.8393 31.97 10.8359H31.995H32.02ZM37 24.4993L42.3033 26.7709C44.1417 27.5593 45.3333 29.3676 45.3333 31.3676V49.1693C45.3333 50.0893 44.5867 50.8359 43.6667 50.8359H36.715C36.9 50.3143 37 49.7543 37 49.1693V24.4993ZM25.355 39.1693C26.265 39.1576 27 38.4159 27 37.5026C27 36.5826 26.2533 35.8359 25.3333 35.8359H20.3333C19.4133 35.8359 18.6667 36.5826 18.6667 37.5026C18.6667 38.4226 19.4133 39.1693 20.3333 39.1693H25.3333H25.355ZM25.355 32.5026C26.265 32.4909 27 31.7493 27 30.8359C27 29.9159 26.2533 29.1693 25.3333 29.1693H20.3333C19.4133 29.1693 18.6667 29.9159 18.6667 30.8359C18.6667 31.7559 19.4133 32.5026 20.3333 32.5026H25.3333H25.355ZM25.355 25.8359C26.265 25.8243 27 25.0826 27 24.1693C27 23.2493 26.2533 22.5026 25.3333 22.5026H20.3333C19.4133 22.5026 18.6667 23.2493 18.6667 24.1693C18.6667 25.0893 19.4133 25.8359 20.3333 25.8359H25.3333H25.355Z" fill="url(#paint0_radial_489_114904)"/>
<path d="M32.0127 11.3359L32.1865 11.3516C32.3016 11.3703 32.4136 11.4051 32.5186 11.457L32.6699 11.5469C32.9811 11.7648 33.167 12.1224 33.167 12.5029V49.1689C33.167 49.8081 32.6523 50.3276 32.0156 50.3359H13.667C13.0231 50.3359 12.5 49.8128 12.5 49.1689V21.5039C12.5001 19.7292 13.5403 18.1336 15.1367 17.4072L15.4629 17.2744C17.8963 16.3902 21.9304 14.9227 25.3564 13.6768C27.0696 13.0537 28.6309 12.4862 29.7637 12.0742C30.3301 11.8682 30.7897 11.7005 31.1074 11.585C31.2658 11.5273 31.389 11.4826 31.4727 11.4521C31.5144 11.437 31.5469 11.4258 31.5684 11.418C31.579 11.4141 31.5873 11.4112 31.5928 11.4092C31.5954 11.4082 31.5973 11.4067 31.5986 11.4062H31.6006L31.5996 11.4053C31.6938 11.3716 31.7892 11.3514 31.8838 11.3418L31.9795 11.3359H32.0127ZM42.1064 27.2305C43.7607 27.9399 44.8328 29.5673 44.833 31.3672V49.1689C44.833 49.8127 44.3107 50.3358 43.667 50.3359H37.376C37.4574 49.9597 37.5 49.5692 37.5 49.1689V25.2568L42.1064 27.2305ZM20.333 35.3359C19.137 35.3361 18.167 36.3069 18.167 37.5029C18.1672 38.6988 19.1371 39.6688 20.333 39.6689H25.3613C26.5444 39.6538 27.4998 38.6902 27.5 37.5029C27.5 36.3068 26.5291 35.3359 25.333 35.3359H20.333ZM20.333 28.6689C19.137 28.6691 18.167 29.6399 18.167 30.8359C18.167 32.032 19.137 33.0028 20.333 33.0029H25.3613C26.5445 32.9878 27.5 32.0234 27.5 30.8359C27.5 29.6398 26.5292 28.6689 25.333 28.6689H20.333ZM20.333 22.0029C19.1371 22.0031 18.1672 22.9731 18.167 24.1689C18.167 25.365 19.137 26.3358 20.333 26.3359H25.3613C26.5445 26.3208 27.5 25.3564 27.5 24.1689C27.4998 22.973 26.529 22.0029 25.333 22.0029H20.333Z" stroke="url(#paint1_linear_489_114904)" stroke-opacity="0.25"/>
</g>
<defs>
<filter id="filter0_di_489_114904" x="0" y="0.835938" width="57.334" height="64" filterUnits="userSpaceOnUse" color-interpolation-filters="sRGB">
<feFlood flood-opacity="0" result="BackgroundImageFix"/>
<feColorMatrix in="SourceAlpha" type="matrix" values="0 0 0 0 0 0 0 0 0 0 0 0 0 0 0 0 0 0 127 0" result="hardAlpha"/>
<feOffset dy="2"/>
<feGaussianBlur stdDeviation="6"/>
<feComposite in2="hardAlpha" operator="out"/>
<feColorMatrix type="matrix" values="0 0 0 0 0.129167 0 0 0 0 0.535556 0 0 0 0 1 0 0 0 0.63 0"/>
<feBlend mode="normal" in2="BackgroundImageFix" result="effect1_dropShadow_489_114904"/>
<feBlend mode="normal" in="SourceGraphic" in2="effect1_dropShadow_489_114904" result="shape"/>
<feColorMatrix in="SourceAlpha" type="matrix" values="0 0 0 0 0 0 0 0 0 0 0 0 0 0 0 0 0 0 127 0" result="hardAlpha"/>
<feOffset dy="4"/>
<feGaussianBlur stdDeviation="2"/>
<feComposite in2="hardAlpha" operator="arithmetic" k2="-1" k3="1"/>
<feColorMatrix type="matrix" values="0 0 0 0 0 0 0 0 0 0 0 0 0 0 0 0 0 0 0.25 0"/>
<feBlend mode="normal" in2="shape" result="effect2_innerShadow_489_114904"/>
</filter>
<radialGradient id="paint0_radial_489_114904" cx="0" cy="0" r="1" gradientUnits="userSpaceOnUse" gradientTransform="translate(32.3162 1.66632) rotate(95.207) scale(46.6433 79.2352)">
<stop stop-color="#8FB9D2"/>
<stop offset="1" stop-color="#6675A6"/>
</radialGradient>
<linearGradient id="paint1_linear_489_114904" x1="28.6667" y1="10.8359" x2="28.6667" y2="50.8359" gradientUnits="userSpaceOnUse">
<stop stop-color="#C3A2F1"/>
<stop offset="1" stop-color="#664EAB"/>
</linearGradient>
</defs>
</svg>
