<svg width="41" height="37" viewBox="0 0 41 37" fill="none" xmlns="http://www.w3.org/2000/svg">
<g filter="url(#filter0_i_489_114904)">
<path fill-rule="evenodd" clip-rule="evenodd" d="M20.02 0.835938C20.3517 0.840937 20.6783 0.942605 20.9567 1.1376C21.4017 1.44927 21.6667 1.95927 21.6667 2.5026V39.1693C21.6667 40.0826 20.9317 40.8243 20.0217 40.8359H20H1.66667C0.746667 40.8359 0 40.0893 0 39.1693C0 39.1693 0 18.5576 0 11.5043C0 9.40094 1.315 7.52427 3.29167 6.80427C8.15833 5.03594 19.43 0.935937 19.43 0.935937C19.6067 0.872604 19.7883 0.839271 19.97 0.835938H19.995H20.02ZM25 14.4993L30.3033 16.7709C32.1417 17.5593 33.3333 19.3676 33.3333 21.3676V39.1693C33.3333 40.0893 32.5867 40.8359 31.6667 40.8359H24.715C24.9 40.3143 25 39.7543 25 39.1693V14.4993ZM13.355 29.1693C14.265 29.1576 15 28.4159 15 27.5026C15 26.5826 14.2533 25.8359 13.3333 25.8359H8.33333C7.41333 25.8359 6.66667 26.5826 6.66667 27.5026C6.66667 28.4226 7.41333 29.1693 8.33333 29.1693H13.3333H13.355ZM13.355 22.5026C14.265 22.4909 15 21.7493 15 20.8359C15 19.9159 14.2533 19.1693 13.3333 19.1693H8.33333C7.41333 19.1693 6.66667 19.9159 6.66667 20.8359C6.66667 21.7559 7.41333 22.5026 8.33333 22.5026H13.3333H13.355ZM13.355 15.8359C14.265 15.8243 15 15.0826 15 14.1693C15 13.2493 14.2533 12.5026 13.3333 12.5026H8.33333C7.41333 12.5026 6.66667 13.2493 6.66667 14.1693C6.66667 15.0893 7.41333 15.8359 8.33333 15.8359H13.3333H13.355Z" fill="url(#paint0_radial_489_114904)"/>
</g>
<path d="M20.0127 1.33594L20.1865 1.35156C20.3016 1.37026 20.4136 1.40514 20.5186 1.45703L20.6699 1.54688C20.9811 1.7648 21.167 2.12242 21.167 2.50293V39.1689C21.167 39.8081 20.6523 40.3276 20.0156 40.3359H1.66699C1.02313 40.3359 0.5 39.8128 0.5 39.1689V11.5039C0.500142 9.72923 1.54033 8.13364 3.13672 7.40723L3.46289 7.27441C5.89629 6.39022 9.93041 4.92272 13.3564 3.67676C15.0696 3.05374 16.6309 2.48622 17.7637 2.07422C18.3301 1.86822 18.7897 1.70052 19.1074 1.58496C19.2658 1.52735 19.389 1.48258 19.4727 1.45215C19.5144 1.43696 19.5469 1.42578 19.5684 1.41797C19.579 1.41408 19.5873 1.41116 19.5928 1.40918C19.5954 1.40821 19.5973 1.40675 19.5986 1.40625H19.6006L19.5996 1.40527C19.6938 1.37161 19.7892 1.35139 19.8838 1.3418L19.9795 1.33594H20.0127ZM30.1064 17.2305C31.7607 17.9399 32.8328 19.5673 32.833 21.3672V39.1689C32.833 39.8127 32.3107 40.3358 31.667 40.3359H25.376C25.4574 39.9597 25.5 39.5692 25.5 39.1689V15.2568L30.1064 17.2305ZM8.33301 25.3359C7.13702 25.3361 6.16699 26.3069 6.16699 27.5029C6.16717 28.6988 7.13712 29.6688 8.33301 29.6689H13.3613C14.5444 29.6538 15.4998 28.6902 15.5 27.5029C15.5 26.3068 14.5291 25.3359 13.333 25.3359H8.33301ZM8.33301 18.6689C7.13701 18.6691 6.16699 19.6399 6.16699 20.8359C6.16699 22.032 7.13702 23.0028 8.33301 23.0029H13.3613C14.5445 22.9878 15.5 22.0234 15.5 20.8359C15.5 19.6398 14.5292 18.6689 13.333 18.6689H8.33301ZM8.33301 12.0029C7.13712 12.0031 6.16717 12.9731 6.16699 14.1689C6.16699 15.365 7.13702 16.3358 8.33301 16.3359H13.3613C14.5445 16.3208 15.5 15.3564 15.5 14.1689C15.4998 12.973 14.529 12.0029 13.333 12.0029H8.33301Z" stroke="url(#paint1_linear_489_114904)" stroke-opacity="0.25"/>
<defs>
<filter id="filter0_i_489_114904" x="0" y="0.835938" width="33.334" height="44" filterUnits="userSpaceOnUse" color-interpolation-filters="sRGB">
<feFlood flood-opacity="0" result="BackgroundImageFix"/>
<feBlend mode="normal" in="SourceGraphic" in2="BackgroundImageFix" result="shape"/>
<feColorMatrix in="SourceAlpha" type="matrix" values="0 0 0 0 0 0 0 0 0 0 0 0 0 0 0 0 0 0 127 0" result="hardAlpha"/>
<feOffset dy="4"/>
<feGaussianBlur stdDeviation="2"/>
<feComposite in2="hardAlpha" operator="arithmetic" k2="-1" k3="1"/>
<feColorMatrix type="matrix" values="0 0 0 0 0 0 0 0 0 0 0 0 0 0 0 0 0 0 0.25 0"/>
<feBlend mode="normal" in2="shape" result="effect1_innerShadow_489_114904"/>
</filter>
<radialGradient id="paint0_radial_489_114904" cx="0" cy="0" r="1" gradientUnits="userSpaceOnUse" gradientTransform="translate(20.3162 -8.33368) rotate(95.207) scale(46.6433 79.2352)">
<stop stop-color="#8FB9D2"/>
<stop offset="1" stop-color="#6675A6"/>
</radialGradient>
<linearGradient id="paint1_linear_489_114904" x1="16.6667" y1="0.835937" x2="16.6667" y2="40.8359" gradientUnits="userSpaceOnUse">
<stop stop-color="#C3A2F1"/>
<stop offset="1" stop-color="#664EAB"/>
</linearGradient>
</defs>
</svg>
