<svg width="41" height="37" viewBox="0 0 41 37" fill="none" xmlns="http://www.w3.org/2000/svg">
<g filter="url(#filter0_i_4083_69017)">
<path d="M40.332 29.2101V32.7815C40.332 34.7515 38.7292 36.353 36.7606 36.353H6.04632C2.89489 36.353 0.332031 33.7901 0.332031 30.6387C0.332031 30.6387 0.332031 6.37439 0.332031 6.35296C0.332031 3.20153 2.89489 0.638672 6.04632 0.638672H32.4749C33.6592 0.638672 34.6177 1.59867 34.6177 2.78153C34.6177 3.96439 33.6592 4.92439 32.4749 4.92439H6.04632C5.25917 4.92439 4.61775 5.56439 4.61775 6.35296C4.61775 7.14153 5.25917 7.78153 6.04632 7.78153H36.7606C38.7292 7.78153 40.332 9.38296 40.332 11.353V14.9244H33.1892C29.2506 14.9244 26.0463 18.1287 26.0463 22.0672C26.0463 26.0058 29.2506 29.2101 33.1892 29.2101H40.332Z" fill="url(#paint0_radial_4083_69017)"/>
<path d="M40.332 17.7815V26.353H33.1892C30.822 26.353 28.9035 24.4344 28.9035 22.0672C28.9035 19.7001 30.822 17.7815 33.1892 17.7815H40.332Z" fill="url(#paint1_radial_4083_69017)"/>
</g>
<path d="M6.0459 1.13867H32.4746C33.3824 1.13867 34.118 1.87445 34.1182 2.78125C34.1182 3.68818 33.3825 4.4248 32.4746 4.4248H6.0459C4.98327 4.42503 4.11839 5.28783 4.11816 6.35254C4.11816 7.41744 4.98313 8.28102 6.0459 8.28125H36.7607C38.4531 8.28132 39.8318 9.65905 39.832 11.3525V14.4248H33.1895C28.9747 14.4248 25.5459 17.8527 25.5459 22.0674C25.546 26.282 28.9748 29.71 33.1895 29.71H39.832V32.7812C39.832 34.4749 38.4532 35.8525 36.7607 35.8525H6.0459C3.1708 35.8523 0.832031 33.5138 0.832031 30.6387V6.35254C0.832258 3.47758 3.17094 1.1389 6.0459 1.13867ZM33.1895 18.2812H39.832V25.8525H33.1895C31.0985 25.8525 29.4034 24.1583 29.4033 22.0674C29.4033 19.9764 31.0985 18.2812 33.1895 18.2812Z" stroke="url(#paint2_linear_4083_69017)" stroke-opacity="0.25"/>
<defs>
<filter id="filter0_i_4083_69017" x="0.332031" y="0.638672" width="40" height="37.7148" filterUnits="userSpaceOnUse" color-interpolation-filters="sRGB">
<feFlood flood-opacity="0" result="BackgroundImageFix"/>
<feBlend mode="normal" in="SourceGraphic" in2="BackgroundImageFix" result="shape"/>
<feColorMatrix in="SourceAlpha" type="matrix" values="0 0 0 0 0 0 0 0 0 0 0 0 0 0 0 0 0 0 127 0" result="hardAlpha"/>
<feOffset dy="2"/>
<feGaussianBlur stdDeviation="2"/>
<feComposite in2="hardAlpha" operator="arithmetic" k2="-1" k3="1"/>
<feColorMatrix type="matrix" values="0 0 0 0 0 0 0 0 0 0 0 0 0 0 0 0 0 0 0.35 0"/>
<feBlend mode="normal" in2="shape" result="effect1_innerShadow_4083_69017"/>
</filter>
<radialGradient id="paint0_radial_4083_69017" cx="0" cy="0" r="1" gradientUnits="userSpaceOnUse" gradientTransform="translate(24.7115 -7.54849) rotate(96.9828) scale(41.7839 94.7681)">
<stop stop-color="#AAAEBF"/>
<stop offset="1" stop-color="#525B62"/>
</radialGradient>
<radialGradient id="paint1_radial_4083_69017" cx="0" cy="0" r="1" gradientUnits="userSpaceOnUse" gradientTransform="translate(24.7115 -7.54849) rotate(96.9828) scale(41.7839 94.7681)">
<stop stop-color="#AAAEBF"/>
<stop offset="1" stop-color="#525B62"/>
</radialGradient>
<linearGradient id="paint2_linear_4083_69017" x1="20.332" y1="0.638672" x2="20.332" y2="36.353" gradientUnits="userSpaceOnUse">
<stop stop-color="white"/>
<stop offset="1"/>
</linearGradient>
</defs>
</svg>
