<svg width="60" height="65" viewBox="0 0 60 65" fill="none" xmlns="http://www.w3.org/2000/svg">
<g id="Big/newgames">
<g id="Vector" filter="url(#filter0_di_4048_12958)">
<path d="M47.578 23.7344C47.578 20.0876 45.7175 16.8676 42.8959 14.9728L42.8983 14.9693C40.3534 13.2629 37.2345 12.8139 34.5908 13.4731C35.4035 15.1609 35.8593 17.0516 35.8593 19.0469C35.8593 23.8152 33.2668 29.6636 29.4926 32.8687C31.2638 35.5168 33.4148 37.1718 35.6673 37.6508L33.7449 40.7265H35.7513C35.2356 42.0381 35.5567 43.3029 36.5453 44.2915C36.7878 44.534 37.0356 44.7102 37.2544 44.8658C37.8084 45.2596 39.1461 46.7161 39.1461 48.5H41.4899C41.4899 45.7356 39.6348 43.6825 38.6125 42.9556C38.4481 42.8388 38.3061 42.7378 38.2026 42.6343C37.8635 42.2953 37.8388 42.0552 37.855 41.884C37.8906 41.5092 38.1734 41.0894 38.5037 40.7266H40.3174L38.3952 37.6509C42.2334 36.835 45.0995 32.7957 46.4941 29.1163L46.4924 29.1156C47.1859 27.2833 47.578 25.3971 47.578 23.7344Z" fill="url(#paint0_radial_4048_12958)"/>
<path d="M33.5156 19.0469C33.5156 13.2313 28.7843 8.5 22.9687 8.5C17.1532 8.5 12.4219 13.2313 12.4219 19.0469C12.4219 24.3206 16.3241 31.8407 21.6047 32.9636L19.6826 36.039H20.8583C20.0454 37.2358 19.6688 38.327 19.7408 39.2904C19.8116 40.2393 20.3019 41.0352 21.1583 41.5919C21.8658 42.0517 21.679 42.977 20.9927 44.8775C20.6831 45.7348 20.3907 46.5446 20.3907 47.2818H22.7344C22.7344 46.5092 23.837 44.5191 23.944 42.7797C24.0501 41.0531 23.1822 40.112 22.4355 39.6267C22.1408 39.4351 22.0895 39.2682 22.0781 39.1165C22.0191 38.3378 22.9395 37.0317 23.8561 36.0389H26.255L24.3328 32.9635C29.6222 31.8387 33.5156 24.3069 33.5156 19.0469Z" fill="url(#paint1_radial_4048_12958)"/>
<path d="M35.3018 13.834C37.5939 13.4225 40.1908 13.8513 42.3799 15.2285L42.6172 15.3877C45.3068 17.1939 47.0781 20.2618 47.0781 23.7344C47.0781 25.324 46.7014 27.1495 46.0244 28.9385L46.001 29.002C45.3203 30.7775 44.2936 32.6276 42.9844 34.1289C41.6578 35.6501 40.0699 36.7839 38.291 37.1621L37.5928 37.3105L37.9707 37.916L39.415 40.2266H38.2822L38.1338 40.3896C37.9536 40.5876 37.7776 40.8116 37.6387 41.0469C37.5192 41.2492 37.4147 41.4817 37.3721 41.7295L37.3574 41.8369C37.3442 41.9764 37.3477 42.1592 37.4277 42.3721C37.5053 42.5785 37.6423 42.782 37.8486 42.9883C37.9185 43.0582 37.9991 43.1246 38.0811 43.1875L38.3232 43.3633C39.204 43.9897 40.764 45.7036 40.9678 48H39.6152C39.517 47.188 39.1933 46.4661 38.8301 45.8936C38.4505 45.2953 38.0079 44.8282 37.6777 44.5605L37.5439 44.458C37.3787 44.3405 37.2158 44.2249 37.0566 44.0859L36.8994 43.9385L36.8984 43.9375L36.7451 43.7744C36.0092 42.9453 35.8073 41.9507 36.2168 40.9092L36.4854 40.2266H34.6465L36.0908 37.916L36.4697 37.3105L35.7715 37.1621C33.7857 36.7398 31.8293 35.3142 30.1562 32.9492C33.8589 29.593 36.3594 23.8126 36.3594 19.0469C36.3594 17.1993 35.982 15.4374 35.3018 13.834ZM22.9688 9C28.5081 9.00001 33.0156 13.5075 33.0156 19.0469C33.0156 21.5697 32.0759 24.679 30.4805 27.2959C28.88 29.921 26.6814 31.953 24.2285 32.4746L23.5303 32.623L23.9092 33.2285L25.3535 35.5391H23.6377L23.4893 35.7002C23.0163 36.2125 22.5347 36.8124 22.1758 37.3955C21.9963 37.6871 21.8405 37.9852 21.7334 38.2725C21.6415 38.519 21.5753 38.7831 21.5752 39.043L21.5791 39.1543C21.5885 39.2785 21.6181 39.4421 21.7227 39.6152C21.7984 39.7406 21.9012 39.8507 22.0283 39.9502L22.1631 40.0459C22.7593 40.4334 23.4459 41.1488 23.4531 42.4756L23.4453 42.749C23.3966 43.5405 23.1176 44.4127 22.8281 45.2256C22.6881 45.6187 22.5404 46.011 22.4326 46.3418C22.3854 46.4866 22.342 46.6363 22.3066 46.7822H20.9375C20.9954 46.4442 21.1031 46.0796 21.2393 45.6797L21.4629 45.0469C21.8031 44.1046 22.0463 43.3384 22.0967 42.7363C22.1225 42.4273 22.101 42.1251 21.9922 41.8486C21.8935 41.5979 21.7336 41.3954 21.5234 41.2373L21.4307 41.1729C20.7401 40.7239 20.3482 40.1157 20.2539 39.3984L20.2393 39.2529C20.1791 38.4468 20.4916 37.4685 21.2715 36.3203L21.8027 35.5391H20.584L22.0283 33.2285L22.4072 32.623L21.709 32.4746C19.2604 31.9539 17.0615 29.9254 15.46 27.3018C13.8635 24.6864 12.9219 21.5765 12.9219 19.0469C12.9219 13.5075 17.4294 9 22.9688 9Z" stroke="url(#paint2_linear_4048_12958)" stroke-opacity="0.25"/>
</g>
</g>
<defs>
<filter id="filter0_di_4048_12958" x="0.421875" y="0.5" width="59.1562" height="64" filterUnits="userSpaceOnUse" color-interpolation-filters="sRGB">
<feFlood flood-opacity="0" result="BackgroundImageFix"/>
<feColorMatrix in="SourceAlpha" type="matrix" values="0 0 0 0 0 0 0 0 0 0 0 0 0 0 0 0 0 0 127 0" result="hardAlpha"/>
<feOffset dy="4"/>
<feGaussianBlur stdDeviation="6"/>
<feComposite in2="hardAlpha" operator="out"/>
<feColorMatrix type="matrix" values="0 0 0 0 1 0 0 0 0 0.230764 0 0 0 0 0.129167 0 0 0 0.25 0"/>
<feBlend mode="normal" in2="BackgroundImageFix" result="effect1_dropShadow_4048_12958"/>
<feBlend mode="normal" in="SourceGraphic" in2="effect1_dropShadow_4048_12958" result="shape"/>
<feColorMatrix in="SourceAlpha" type="matrix" values="0 0 0 0 0 0 0 0 0 0 0 0 0 0 0 0 0 0 127 0" result="hardAlpha"/>
<feOffset dy="2"/>
<feGaussianBlur stdDeviation="2"/>
<feComposite in2="hardAlpha" operator="arithmetic" k2="-1" k3="1"/>
<feColorMatrix type="matrix" values="0 0 0 0 0 0 0 0 0 0 0 0 0 0 0 0 0 0 0.35 0"/>
<feBlend mode="normal" in2="shape" result="effect2_innerShadow_4048_12958"/>
</filter>
<radialGradient id="paint0_radial_4048_12958" cx="0" cy="0" r="1" gradientUnits="userSpaceOnUse" gradientTransform="translate(33.8491 -0.669619) rotate(95.4901) scale(46.6649 83.5295)">
<stop stop-color="#FF9568"/>
<stop offset="1" stop-color="#FFACC4"/>
</radialGradient>
<radialGradient id="paint1_radial_4048_12958" cx="0" cy="0" r="1" gradientUnits="userSpaceOnUse" gradientTransform="translate(33.8491 -0.669619) rotate(95.4901) scale(46.6649 83.5295)">
<stop stop-color="#FF9568"/>
<stop offset="1" stop-color="#FFACC4"/>
</radialGradient>
<linearGradient id="paint2_linear_4048_12958" x1="30" y1="8.5" x2="30" y2="48.5" gradientUnits="userSpaceOnUse">
<stop stop-color="white"/>
<stop offset="1"/>
</linearGradient>
</defs>
</svg>
