<svg width="54" height="65" viewBox="0 0 54 65" fill="none" xmlns="http://www.w3.org/2000/svg">
<g id="Big/populargames">
<g id="Vector" filter="url(#filter0_di_1601_273914)">
<path d="M37.9861 23.6817C37.8783 23.5466 37.7475 23.5731 37.679 23.6007C37.6215 23.624 37.49 23.6984 37.5082 23.8848C37.5301 24.1086 37.5423 24.3368 37.5447 24.5631C37.5544 25.502 37.1778 26.4219 36.5114 27.0868C35.8492 27.7474 34.9783 28.1034 34.0509 28.093C32.7842 28.0769 31.7336 27.4162 31.0126 26.1824C30.4164 25.1621 30.6784 23.8463 30.9559 22.4531C31.1182 21.6376 31.2861 20.7943 31.2861 19.9918C31.2861 13.7426 27.085 10.1373 24.5808 8.54445C24.529 8.51156 24.4797 8.5 24.436 8.5C24.365 8.5 24.3088 8.53062 24.281 8.54937C24.2273 8.58578 24.1413 8.66875 24.1689 8.81562C25.1261 13.8986 22.2711 16.9557 19.2485 20.1922C16.1329 23.5284 12.6016 27.3097 12.6016 34.1294C12.6016 42.0534 19.0482 48.5 26.9722 48.5C33.4966 48.5 39.249 43.9513 40.9608 37.4383C42.1282 32.9975 40.9049 27.3406 37.9861 23.6817ZM27.3307 45.4326C25.3465 45.5231 23.4595 44.8114 22.0182 43.4333C20.5923 42.0699 19.7745 40.1671 19.7745 38.2129C19.7745 34.5457 21.1767 31.8535 24.9481 28.2795C25.0098 28.2209 25.073 28.2024 25.1281 28.2024C25.178 28.2024 25.2213 28.2177 25.251 28.232C25.3138 28.2622 25.4169 28.337 25.403 28.4989C25.2682 30.068 25.2705 31.3705 25.4099 32.3701C25.7661 34.9236 27.6354 36.6393 30.0616 36.6393C31.2511 36.6393 32.3841 36.1917 33.252 35.3788C33.3527 35.2844 33.4652 35.2965 33.5084 35.3056C33.5655 35.3179 33.6419 35.3529 33.682 35.4496C34.0419 36.3184 34.2258 37.2407 34.2286 38.1906C34.2401 42.0128 31.1457 45.2617 27.3307 45.4326Z" fill="url(#paint0_radial_1601_273914)"/>
<path d="M24.7471 9.25293C27.2086 10.9301 30.7861 14.341 30.7861 19.9922C30.7861 20.5503 30.6982 21.136 30.585 21.7422L30.4658 22.3555C30.329 23.0428 30.1848 23.7604 30.1572 24.4375C30.1329 25.0356 30.1967 25.6393 30.457 26.1982L30.5811 26.4346C31.3273 27.7115 32.4286 28.4752 33.7725 28.5811L34.0449 28.5928C35.0413 28.6039 35.9827 28.2449 36.7197 27.5781L36.8643 27.4404C37.6172 26.6892 38.0453 25.6551 38.0439 24.5938C40.4574 28.0148 41.4741 32.9242 40.5762 36.9062L40.4775 37.3115C38.8208 43.6145 33.2594 47.9998 26.9727 48C19.3248 48 13.1016 41.7768 13.1016 34.1289C13.1017 28.347 15.7042 24.8268 18.4404 21.8037L19.6143 20.5332C22.5157 17.4264 25.4652 14.3002 24.7471 9.25293ZM25.1279 27.7021C24.9933 27.7022 24.854 27.739 24.7266 27.8203L24.6045 27.917C22.699 29.7228 21.3619 31.3331 20.5039 32.9805C19.6408 34.6377 19.2744 36.308 19.2744 38.2129C19.2744 40.1742 20.0433 42.0834 21.3945 43.5146L21.6729 43.7949C23.116 45.1746 24.9813 45.931 26.957 45.9404L27.3535 45.9316C31.309 45.7542 34.5334 42.4923 34.7197 38.5703L34.7285 38.1895C34.7259 37.3018 34.5749 36.435 34.2793 35.6094L34.1436 35.2578L34.0928 35.1553C33.9986 34.9983 33.8658 34.908 33.7471 34.8584L33.6143 34.8164H33.6123C33.511 34.7949 33.258 34.7662 33.0137 34.9307L32.9102 35.0137C32.135 35.7397 31.1242 36.1396 30.0615 36.1396C27.975 36.1396 26.3353 34.7236 25.9395 32.5166L25.9053 32.3008C25.7897 31.4713 25.7709 30.4021 25.8574 29.1094L25.9014 28.542C25.9189 28.3375 25.8611 28.1563 25.7568 28.0166C25.6848 27.9201 25.6004 27.8566 25.5312 27.8154L25.4678 27.7812L25.3271 27.7295C25.2985 27.7218 25.2676 27.7147 25.2344 27.71L25.1279 27.7021Z" stroke="url(#paint1_linear_1601_273914)" stroke-opacity="0.25"/>
</g>
</g>
<defs>
<filter id="filter0_di_1601_273914" x="0.601562" y="0.5" width="52.7969" height="64" filterUnits="userSpaceOnUse" color-interpolation-filters="sRGB">
<feFlood flood-opacity="0" result="BackgroundImageFix"/>
<feColorMatrix in="SourceAlpha" type="matrix" values="0 0 0 0 0 0 0 0 0 0 0 0 0 0 0 0 0 0 127 0" result="hardAlpha"/>
<feOffset dy="4"/>
<feGaussianBlur stdDeviation="6"/>
<feComposite in2="hardAlpha" operator="out"/>
<feColorMatrix type="matrix" values="0 0 0 0 1 0 0 0 0 0.230764 0 0 0 0 0.129167 0 0 0 0.25 0"/>
<feBlend mode="normal" in2="BackgroundImageFix" result="effect1_dropShadow_1601_273914"/>
<feBlend mode="normal" in="SourceGraphic" in2="effect1_dropShadow_1601_273914" result="shape"/>
<feColorMatrix in="SourceAlpha" type="matrix" values="0 0 0 0 0 0 0 0 0 0 0 0 0 0 0 0 0 0 127 0" result="hardAlpha"/>
<feOffset dy="2"/>
<feGaussianBlur stdDeviation="2"/>
<feComposite in2="hardAlpha" operator="arithmetic" k2="-1" k3="1"/>
<feColorMatrix type="matrix" values="0 0 0 0 0 0 0 0 0 0 0 0 0 0 0 0 0 0 0.35 0"/>
<feBlend mode="normal" in2="shape" result="effect2_innerShadow_1601_273914"/>
</filter>
<radialGradient id="paint0_radial_1601_273914" cx="0" cy="0" r="1" gradientUnits="userSpaceOnUse" gradientTransform="translate(30.1532 -0.669619) rotate(94.5016) scale(46.5945 68.5248)">
<stop stop-color="#FFA05C"/>
<stop offset="1" stop-color="#F15749"/>
</radialGradient>
<linearGradient id="paint1_linear_1601_273914" x1="27.0003" y1="8.5" x2="27.0003" y2="48.5" gradientUnits="userSpaceOnUse">
<stop stop-color="white"/>
<stop offset="1"/>
</linearGradient>
</defs>
</svg>
