<svg width="266" height="277" viewBox="0 0 266 277" fill="none" xmlns="http://www.w3.org/2000/svg">
<path d="M322.096 206.402C320.01 236.884 316.861 262.727 313.405 266.361C304.741 275.505 206.969 316.749 191.691 318.704C176.422 320.712 82.9321 309.137 70.9753 299.968C69.5179 298.864 65.225 289.504 59.7038 275.635L59.6958 275.582C41.1644 229.461 8.36575 133.636 17.2672 126.907C28.8837 118.17 133.816 81.591 169.444 76.2167C205.125 70.7808 315.026 90.0365 322.001 97.9916C326.167 102.8 325.351 159.872 322.149 206.34L322.096 206.402Z" fill="url(#paint0_linear_489_123293)"/>
<g style="mix-blend-mode:soft-light" opacity="0.5">
<path d="M17.1094 126.994C1.40846 137.284 134.472 156.543 160.111 152.992C185.75 149.441 318.48 101.1 321.981 98.1644C325.482 95.2284 204.331 71.214 166.907 76.6698C129.544 82.1174 21.8173 123.89 17.1094 126.994Z" fill="white"/>
</g>
<g style="mix-blend-mode:multiply" opacity="0.3">
<path d="M191.852 318.662C176.657 319.083 157.879 166.029 161.262 159.034C164.645 152.038 311.206 104.039 317.477 104.421C323.748 104.803 317.674 257.875 313.518 266.283C309.362 274.69 198.827 318.403 191.844 318.609L191.852 318.662Z" fill="#912790"/>
</g>
<g style="mix-blend-mode:multiply" opacity="0.74">
<path d="M322.187 206.27C320.096 236.722 316.956 262.637 313.498 266.274C304.832 275.424 207.017 316.689 191.732 318.644C176.456 320.652 82.9185 309.059 70.9546 299.882C69.4963 298.777 65.2 289.409 59.6743 275.53C60.9073 276.774 68.7671 296.374 84.507 301.162C91.2194 303.226 164.656 315.862 188.901 312.067C213.214 308.317 298.657 281.887 308.682 262.477C318.528 243.527 322.024 207.654 322.126 206.279L322.187 206.27Z" fill="#CA2790"/>
</g>
<g style="mix-blend-mode:multiply" opacity="0.5">
<path d="M191.865 318.667C184.814 309.365 224.763 226.871 236.407 218.35C248.044 209.775 273.48 198.037 282.659 201.823C291.838 205.608 313.485 266.403 313.485 266.403C313.485 266.403 292.242 207.075 285.344 200.852L322.274 99.4141C322.274 99.4141 285.433 193.225 283.786 196.608C282.139 199.991 260.125 202.118 231.099 216.584L163.029 157.601C163.029 157.601 161.579 157.367 161.223 159.102C160.928 160.829 221.652 207.723 223.69 220.112C225.729 232.502 186.81 302.562 185.538 308.449C184.265 314.336 191.753 318.737 191.753 318.737L191.865 318.667Z" fill="#CA2790"/>
</g>
<path d="M231.987 223.153C231.024 229.058 278.888 205.764 282.668 201.81C286.439 197.803 246.332 205.048 231.987 223.153Z" fill="#6D8EFF"/>
<g style="mix-blend-mode:multiply" opacity="0.2">
<path d="M200.564 305.016C200.564 305.016 224.054 233.323 238.137 225.441C252.22 217.559 280.638 205.949 286.532 207.09C292.426 208.231 311.841 261.084 310.681 266.086C309.522 271.088 239.646 304.222 217.593 309.836C195.48 315.458 200.624 305.007 200.624 305.007L200.564 305.016Z" fill="#912790"/>
</g>
<path d="M68.2487 144.305C68.2487 144.305 142.468 159.538 155.323 159.012C168.178 158.486 303.912 108.307 312.028 103.696C320.144 99.0843 321.234 98.5519 321.234 98.5519C321.234 98.5519 186.957 147.767 161.38 149.29C117.493 151.931 68.2487 144.305 68.2487 144.305Z" fill="#92BDFF"/>
<path d="M141.813 156.607C151.79 156.803 172.328 267.936 173.901 271.469C175.483 275.055 156.427 179.533 161.092 159.049L141.805 156.554L141.813 156.607Z" fill="#92BDFF"/>
<path d="M144.462 158.06C127.861 152.076 191.343 144.595 193.429 145.777C195.515 146.959 156.662 165.088 144.462 158.06Z" fill="#D6E6FF"/>
<g style="mix-blend-mode:multiply" opacity="0.2">
<path d="M21.7937 145.333C22.2162 134.18 120.111 159.059 139.969 183.66C159.827 208.261 174.651 294.576 173.362 304.869C172.072 315.162 87.9198 307.303 72.8179 289.004C57.716 270.704 21.0349 166.157 21.7858 145.28L21.7937 145.333Z" fill="#C68EC5"/>
</g>
<path d="M149.032 315.876C149.032 315.876 142.043 319.727 137.437 319.767C132.83 319.807 107.657 319.272 104.828 317.217C101.999 315.162 40.7515 150.841 44.5512 139.656C48.351 128.472 146.464 101.879 152.66 102.597C158.856 103.315 170.9 107.355 170.9 107.355C170.9 107.355 101.358 137.874 94.2169 145.226C87.076 152.577 138.018 313.379 138.563 314.554C139.108 315.729 149.16 315.913 149.16 315.913L149.032 315.876Z" fill="url(#paint1_linear_489_123293)"/>
<path d="M229.7 305.885C229.7 305.885 241.378 306.66 244.378 306.57C247.378 306.481 279.348 292.861 283.19 289.773C287.033 286.685 280.114 125.822 277.286 116.372C274.457 106.923 172.668 99.8765 168.969 100.226C165.27 100.575 155.367 103.851 150.998 107.937C146.628 112.022 221.639 125.063 227.867 133.389C234.155 141.707 244.933 298.772 243.353 300.133C241.765 301.44 229.648 305.947 229.648 305.947L229.7 305.885Z" fill="url(#paint2_linear_489_123293)"/>
<path d="M157.637 111.743C146.182 110.498 76.9424 103.317 76.9424 103.317L57.7072 109.74C57.7072 109.74 59.4443 101.603 61.5929 100.325C63.7494 99.1003 110.796 82.6715 119.867 83.2119C128.93 83.699 179.104 105.012 179.104 105.012L157.637 111.743Z" fill="url(#paint3_linear_489_123293)"/>
<path d="M272.707 85.022C272.707 85.022 272.088 81.2948 270.304 79.2541C268.52 77.2134 224.458 72.4764 220.187 72.7411C215.916 73.0058 152.911 104.609 152.911 104.609C152.911 104.609 164.471 107.366 172.156 107.282C179.841 107.198 260.159 83.0559 261.908 82.8136C263.658 82.5713 272.707 85.022 272.707 85.022Z" fill="url(#paint4_linear_489_123293)"/>
<g style="mix-blend-mode:multiply" opacity="0.74">
<path d="M255.641 302.111C255.641 302.111 236.103 140.164 241.124 134.305C246.136 128.393 270.467 123.882 273.962 123.833C277.456 123.784 283.947 284.765 281.942 288.195C279.937 291.626 255.641 302.111 255.641 302.111Z" fill="#CA2790"/>
</g>
<g style="mix-blend-mode:multiply" opacity="0.74">
<path d="M149.108 315.888C149.108 315.888 138.19 319.795 134.864 319.766C131.538 319.738 83.3196 155.771 83.8086 146.295C84.2975 136.819 159.738 112.332 159.738 112.332C159.738 112.332 220.907 125.661 226.587 128.68C232.268 131.699 231.654 151.852 231.654 151.852C231.654 151.852 227.061 135.956 222.224 132.82C217.388 129.683 181.176 118.714 164.881 121.625C154.933 123.385 147.664 139.347 134.172 145.785C125.563 149.915 101.919 144.002 99.4188 149.08C93.0169 162.203 139.863 314.124 141.915 315.091C143.966 316.057 148.995 315.958 148.995 315.958L149.108 315.888Z" fill="#CA2790"/>
</g>
<g style="mix-blend-mode:soft-light">
<path d="M46.9854 137.528C45.3759 142.816 73.9667 143.758 79.9959 142.487C86.0251 141.216 150.041 115.138 151.318 112.565C152.596 109.991 123.26 110.242 114.484 111.675C105.708 113.109 54.2134 131.516 46.9854 137.528Z" fill="white"/>
</g>
<g style="mix-blend-mode:multiply" opacity="0.74">
<path d="M172.93 115.961C172.93 115.961 228.608 113.104 262.452 104.277C296.288 95.3975 275.892 85.4687 275.892 85.4687L163.387 113.522L172.998 116.006L172.93 115.961Z" fill="#CA2790"/>
</g>
<path opacity="0.5" d="M44.3558 139.702C41.3876 140.44 65.799 144.736 71.9547 145.136C78.1105 145.535 79.0661 146.982 82.7802 144.235C86.4944 141.488 47.3161 138.911 44.3478 139.649L44.3558 139.702Z" fill="white"/>
<path opacity="0.5" d="M237.56 130.812C226.409 130.777 263.428 119.331 270.415 117.874C277.401 116.416 263.253 130.903 237.56 130.812Z" fill="white"/>
<g style="mix-blend-mode:multiply" opacity="0.4">
<path d="M48.5904 148.984C48.6561 143.267 79.8242 150.692 82.7433 153.767C85.6544 156.789 111.143 257.203 110.527 262.942C109.98 268.726 86.0683 270.352 84.6952 266.52C83.2619 262.695 48.5371 154.374 48.5904 148.984Z" fill="#C68EC5"/>
</g>
<g style="mix-blend-mode:multiply" opacity="0.74">
<path d="M229.757 305.823C229.757 305.823 237.464 300.3 239.13 297.08C240.805 293.914 231.837 151.829 231.837 151.829C231.837 151.829 246.488 292.91 244.739 299.674C242.998 306.491 229.757 305.823 229.757 305.823Z" fill="#CA2790"/>
</g>
<path d="M177.137 109.073C177.137 109.073 177.077 109.081 177.017 109.09C177.017 109.09 176.173 109.207 175.195 109.668C174.789 109.834 174.218 110.13 173.647 110.427C161.715 116.652 122.505 141.729 115.384 143.913C113.684 144.476 109.805 144.469 104.649 144.15C84.7868 143.04 46.2774 137.007 43.1572 134.664C39.2017 131.676 0.0833737 69.7381 34.7968 56.9821C56.4419 49.0302 90.7797 68.3198 117.181 83.1052C133.107 92.0518 146.205 99.3771 151.93 98.1482C151.93 98.1482 161.446 102.107 168.806 105.222C169.987 105.711 171.176 106.254 172.229 106.706C173.735 107.314 175.061 107.946 175.916 108.317C176.712 108.696 177.182 108.958 177.198 109.064L177.137 109.073Z" fill="url(#paint5_linear_489_123293)"/>
<g style="mix-blend-mode:multiply" opacity="0.5">
<path d="M114.3 139.975C102.519 145.96 85.7886 90.0723 86.7685 80.5799C87.7483 71.0875 135.712 111.983 161.201 108.776C186.69 105.569 116.878 138.693 114.3 139.975Z" fill="#912790"/>
</g>
<g style="mix-blend-mode:multiply" opacity="0.74">
<path d="M176.806 106.619L175.9 108.376L175.706 108.73L175.231 109.666L173.683 110.424C161.752 116.648 122.548 141.722 115.428 143.906C113.728 144.468 109.85 144.461 104.694 144.142C93.2188 129.141 62.4388 62.849 92.8782 74.6234C100.325 77.5079 108.693 80.3736 117.225 83.1077C133.149 92.0526 146.245 99.3766 151.969 98.1478C151.969 98.1478 161.484 102.106 168.843 105.22C164.374 102.086 161.605 98.3897 161.064 97.6488C167.193 99.9543 172.017 102.169 174.651 104.143C175.896 105.059 176.634 105.881 176.935 106.655L176.806 106.619Z" fill="#CA2790"/>
</g>
<path d="M270.331 89.4637C263.882 97.3766 186.892 111.422 177.035 110.123C176.279 110.01 175.516 109.844 174.805 109.616C174.805 109.616 174.744 109.624 174.684 109.633C174.298 109.523 173.973 109.405 173.587 109.295C172.543 108.896 171.542 108.381 170.55 107.92C169.534 107.299 168.638 106.662 167.803 106.016C164.045 103.109 161.669 99.575 161.264 98.9238C161.248 98.8172 161.188 98.8256 161.188 98.8256C168.106 97.7578 185.128 26.4049 193.233 18.0448C200.919 10.1779 260.009 4.43529 285.206 11.1717C287.959 11.8784 290.176 12.7136 291.875 13.784C309.68 24.5922 277.064 81.4024 270.346 89.5703L270.331 89.4637Z" fill="url(#paint6_linear_489_123293)"/>
<g style="mix-blend-mode:multiply" opacity="0.5">
<path d="M176.465 105.84C176.465 105.84 202.939 95.5863 224.428 82.0504C256.548 61.8166 268.362 27.6365 282.559 24.1992C297.292 20.6334 282.946 78.6189 256.624 89.8861C232.619 100.179 176.465 105.84 176.465 105.84Z" fill="#912790"/>
</g>
<g style="mix-blend-mode:multiply" opacity="0.74">
<path d="M270.347 89.4609C263.898 97.3741 186.906 111.42 177.048 110.12C176.293 110.007 175.529 109.841 174.818 109.613C174.818 109.613 174.758 109.622 174.697 109.63C174.697 109.63 173.974 109.73 173.177 110.167L172.331 111.917L171.87 110.893L170.563 107.918C170.563 107.918 170.576 107.59 170.673 107.413C170.862 106.625 171.543 105.823 172.645 104.963C180.989 98.2018 214.645 87.0069 234.125 64.9899C259.489 36.2262 266.277 16.1861 285.207 11.0591C287.959 11.7658 290.177 12.6011 291.876 13.6716C309.681 24.4803 277.065 81.2927 270.347 89.4609Z" fill="#CA2790"/>
</g>
<path d="M147.854 97.9191C147.854 97.9191 168.538 90.0997 181.868 93.2047C195.199 96.3096 193.677 105.065 192.841 108.937C192.004 112.808 166.455 114.444 166.455 114.444C166.455 114.444 167.325 109.97 164.304 104.184C161.292 98.4513 147.854 97.9191 147.854 97.9191Z" fill="url(#paint7_linear_489_123293)"/>
<path opacity="0.3" d="M151.707 96.6268C151.707 96.6268 166.304 100.759 168.631 101.908C170.951 103.002 187.536 97.3828 187.906 96.569C188.277 95.7551 177.874 92.0763 168.756 93.2847C159.639 94.4932 151.715 96.6801 151.715 96.6801L151.707 96.6268Z" fill="white"/>
<g style="mix-blend-mode:multiply" opacity="0.74">
<path d="M168.582 94.026C168.582 94.026 178.732 65.1988 187.347 43.3853C196.671 19.7324 243.607 23.2907 245.294 40.7384C246.894 57.5997 196.546 90.4758 188.453 92.7402C180.594 94.9178 168.582 94.026 168.582 94.026Z" fill="#CA2790"/>
</g>
<g style="mix-blend-mode:multiply" opacity="0.74">
<path d="M92.4575 141.397C101.799 140.103 69.9041 80.2956 49.611 72.1228C29.2577 63.9584 24.0996 74.2993 22.9017 81.916C21.7037 89.5327 41.5226 132.36 46.528 135.799C51.6016 139.284 92.4495 141.344 92.4495 141.344L92.4575 141.397Z" fill="#CA2790"/>
</g>
<g style="mix-blend-mode:multiply" opacity="0.74">
<path d="M177.463 94.1794C177.463 94.1794 190.925 89.5941 196.986 80.7597C203.239 71.5722 195.358 46.4515 190.078 48.1623C184.858 49.8648 168.638 93.9888 168.638 93.9888L177.515 94.1179L177.463 94.1794Z" fill="#CA2790"/>
</g>
<path opacity="0.3" d="M23.7206 65.6119C21.5722 70.5911 56.1205 66.1299 65.6874 74.9292C75.2543 83.7285 78.6943 74.2154 85.0487 72.2461C91.4031 70.2767 58.5111 56.5989 42.1177 58.5441C25.7244 60.4894 23.7808 65.6035 23.7808 65.6035L23.7206 65.6119Z" fill="white"/>
<path opacity="0.3" d="M189.326 28.148C187.202 32.4734 216.824 20.1453 233.156 24.7479C249.994 29.4439 263.474 21.5847 268.655 15.4739C273.993 9.17793 199.683 7.265 189.326 28.148Z" fill="white"/>
<g style="mix-blend-mode:multiply" opacity="0.74">
<path d="M247.858 62.0085C235.652 76.6442 260.125 87.6643 263.959 86.1539C267.846 84.5818 292.288 49.7586 286.418 32.7336C280.433 15.3439 270.238 35.194 247.858 62.0085Z" fill="#CA2790"/>
</g>
<g style="mix-blend-mode:multiply" opacity="0.74">
<path d="M94.3929 112.503C96.3246 117.187 150.296 110.957 153.637 109.841C156.91 108.68 128.469 102.066 110.895 89.92C93.3206 77.7737 87.8013 78.3212 86.7858 80.584C85.7099 82.8552 92.938 108.95 94.4531 112.495L94.3929 112.503Z" fill="#CA2790"/>
</g>
<path d="M31.8905 198.811C31.8905 198.811 17.6726 151.915 20.2763 139.38C22.8799 126.844 27.1509 121.742 27.1509 121.742C27.1509 121.742 18.0847 124.355 15.5879 127.364C13.0911 130.373 15.4386 146.028 31.9507 198.803L31.8905 198.811Z" fill="#92BDFF"/>
<path d="M15.84 129.292C16.6552 133.095 20.8664 133.273 21.6511 132.348C22.4358 131.424 24.6548 124.044 24.6548 124.044C24.6548 124.044 15.1329 125.799 15.9003 129.283L15.84 129.292Z" fill="#D6E6FF"/>
<defs>
<linearGradient id="paint0_linear_489_123293" x1="199.288" y1="317.651" x2="165.887" y2="76.7098" gradientUnits="userSpaceOnUse">
<stop stop-color="#517EFF"/>
<stop offset="1" stop-color="#6BA2FF"/>
</linearGradient>
<linearGradient id="paint1_linear_489_123293" x1="136.782" y1="319.912" x2="107.509" y2="108.691" gradientUnits="userSpaceOnUse">
<stop stop-color="#A90086"/>
<stop offset="1" stop-color="#FF003B"/>
</linearGradient>
<linearGradient id="paint2_linear_489_123293" x1="243.233" y1="306.729" x2="213.756" y2="94.0194" gradientUnits="userSpaceOnUse">
<stop stop-color="#A90086"/>
<stop offset="1" stop-color="#FF003B"/>
</linearGradient>
<linearGradient id="paint3_linear_489_123293" x1="119.874" y1="116.975" x2="115.255" y2="83.6331" gradientUnits="userSpaceOnUse">
<stop stop-color="#E82E86"/>
<stop offset="1" stop-color="#FF003B"/>
</linearGradient>
<linearGradient id="paint4_linear_489_123293" x1="213.79" y1="101.57" x2="209.993" y2="74.1529" gradientUnits="userSpaceOnUse">
<stop stop-color="#E82E86"/>
<stop offset="1" stop-color="#FF003B"/>
</linearGradient>
<linearGradient id="paint5_linear_489_123293" x1="106.227" y1="145.237" x2="92.7806" y2="48.237" gradientUnits="userSpaceOnUse">
<stop stop-color="#A90086"/>
<stop offset="1" stop-color="#FF003B"/>
</linearGradient>
<linearGradient id="paint6_linear_489_123293" x1="235.359" y1="102.963" x2="222.482" y2="10.0726" gradientUnits="userSpaceOnUse">
<stop stop-color="#A90086"/>
<stop offset="1" stop-color="#FF003B"/>
</linearGradient>
<linearGradient id="paint7_linear_489_123293" x1="172.618" y1="114.08" x2="169.651" y2="92.6667" gradientUnits="userSpaceOnUse">
<stop stop-color="#A90086"/>
<stop offset="1" stop-color="#FF003B"/>
</linearGradient>
</defs>
</svg>
