<svg width="439" height="320" viewBox="0 0 439 320" fill="none" xmlns="http://www.w3.org/2000/svg">
<path d="M216.354 -27.3678C239.002 -41.9082 291.182 -28.5098 302.175 -25.0398C313.169 -21.5697 293.693 160.199 305.612 176.155C317.438 192.137 386.638 173.558 412.497 187.435C438.356 201.312 365.968 399.491 351.716 409.521C337.465 419.552 298.321 429.154 298.321 429.154L303.254 276.501L170.173 112.633L216.325 -27.4483L216.354 -27.3678Z" fill="url(#paint0_linear_489_123460)"/>
<path d="M29.3565 42.5484C8.67405 54.2725 80.158 250.148 97.7338 269.396C115.404 288.618 178.307 258.349 206.136 264.816C233.965 271.283 289.151 420.163 298.076 429.309C306.971 438.373 390.433 237.776 394.407 207.195C398.381 176.615 291.891 198.376 274.951 193.375C258.011 188.374 248.963 -16.6027 226.911 -26.5362C204.86 -36.4697 55.273 27.8544 29.2619 42.5733L29.3565 42.5484Z" fill="url(#paint1_linear_489_123460)"/>
<g style="mix-blend-mode:multiply" opacity="0.5">
<path d="M275.026 193.31C242.697 193.86 157.735 259.483 161.428 262.226C165.121 264.969 201.78 250.718 219.902 265.761C238.024 280.804 282.654 395.014 298.651 400.533C314.648 406.051 384.081 236.424 383.037 218.212C381.899 200.024 274.932 193.334 274.932 193.334L275.026 193.31Z" fill="#C05CC7"/>
</g>
<g style="mix-blend-mode:soft-light">
<path d="M30.6587 45.5143C17.6154 54.0801 66.5338 126.318 78.2306 143.058C89.9274 159.798 217.385 136.771 238.479 112.194C259.637 87.5119 240.48 -6.276 230.171 -18.0724C219.861 -29.8687 83.0862 11.0957 30.6587 45.5143Z" fill="#AC9AFF"/>
</g>
<path d="M309.109 214.493C311.939 223.319 317.469 303.716 316.091 336.762C315.703 345.533 314.874 351.027 313.284 350.946C305.974 350.361 255.041 232.855 244.511 232.029C233.982 231.203 166.468 258.476 157.669 251.217C148.831 243.881 73.7866 101.488 80.5494 89.7634C91.5358 70.9352 163.808 27.1636 172.707 42.7082C173.398 43.9158 174.245 45.8064 175.287 48.4574C187.945 80.3919 225.451 209.422 233.993 212.671C243.18 216.119 305.541 203.263 308.995 214.447L309.109 214.493Z" fill="#479DFF"/>
<path d="M310.605 215.089C313.423 223.923 318.892 304.385 317.498 337.456C310.418 334.905 269.826 232.491 259.99 230.068C250.115 227.567 180.465 247.822 169.497 239.976C158.528 232.13 93.8162 104.456 98.6784 92.2098C103.541 79.964 170.942 40.4309 177.307 48.8988C189.917 80.8648 227.258 210.014 235.778 213.271C244.942 216.726 307.166 203.894 310.605 215.089Z" fill="#47FFFF"/>
<path d="M166.677 66.7664C163.159 61.6807 145.399 81.5174 131.942 89.9465C118.484 98.3757 147.079 112 151.846 117.872C156.651 123.822 160.541 102.066 164.94 108.094C169.375 114.2 177.422 144.52 172.713 143.886C168.004 143.251 156.664 157.924 162.285 174.145C167.943 190.445 176.109 230.486 187.477 219.091C198.845 207.695 203.174 199.752 210.211 210.112C217.247 220.471 206.851 226.758 218.858 223.547C230.865 220.337 268.576 224.929 277.645 232.266C286.715 239.603 284.024 241.213 282.457 248.455C280.891 255.696 285.912 301.675 295.557 287.721C305.24 273.845 304.024 286.95 305.869 298.289C307.713 309.628 299.64 314.46 304.376 318.56C309.112 322.66 313.688 330.961 313.688 330.961C313.688 330.961 302.736 287.027 304.671 279.629C306.606 272.232 295.24 282.687 293.076 267.255C290.912 251.824 291.805 235.566 290.129 229.699C288.453 223.833 277.309 221.134 263.88 219.779C250.45 218.424 225.347 232.354 218.559 212.305C211.807 192.335 212.186 175.731 201.804 189.998C191.384 204.186 186.709 217.443 180.153 206.222C173.524 195.032 164.793 159.458 166.763 152.515C168.734 145.572 186.923 155.621 190.856 157.242C194.789 158.864 196.034 148.47 189.331 124.251C182.629 100.032 179.32 85.9311 171.983 90.4505C164.646 94.9698 149.947 112.851 149.92 96.5137C149.893 80.1761 165.839 76.7056 174.447 78.1306C183.165 79.603 166.715 66.4687 166.715 66.4687L166.677 66.7664Z" fill="white"/>
<path d="M26.4846 47.8288C26.4846 47.8288 134.867 -6.53452 201.345 -21.0423C267.918 -35.575 302.587 -24.9439 302.587 -24.9439C302.587 -24.9439 259.997 -39.9585 218.675 -35.5385C177.447 -31.1434 33.1012 38.3726 31.23 40.6388C29.4534 42.88 26.39 47.8538 26.39 47.8538L26.4846 47.8288Z" fill="#7C5CF4"/>
<g style="mix-blend-mode:multiply" opacity="0.5">
<path d="M251.31 -28.3657C233.282 -26.712 261.255 126.206 270.188 156.123C279.121 186.039 286.546 112.384 295.98 70.3808C305.414 28.3773 302.158 -14.0853 297.523 -20.5563C292.888 -27.0272 251.31 -28.3657 251.31 -28.3657Z" fill="#9A2E69"/>
</g>
<g style="mix-blend-mode:multiply" opacity="0.5">
<path d="M79.4936 84.9881C82.3668 101.415 85.2144 89.5928 116.001 69.0829C146.787 48.573 198.821 41.4211 199.702 45.2635C200.583 49.1058 195.187 32.015 190.009 32.3161C184.926 32.5922 76.2208 66.8952 79.4936 84.9881Z" fill="#9ABAFF"/>
</g>
<g style="mix-blend-mode:multiply" opacity="0.5">
<path d="M306.568 427.427C305.631 422.013 364.378 295.272 377.18 279.518C389.981 263.764 390.517 260.97 398.894 262.922C407.271 264.873 371.075 380.724 360.199 395.794C349.324 410.863 306.568 427.427 306.568 427.427Z" fill="#9A2E69"/>
</g>
<path d="M275.173 193.309C271.244 188.499 323.787 183.604 367.259 181.985C410.731 180.365 415.027 189.596 415.027 189.596C415.027 189.596 400.619 197.288 387.12 196.947C373.716 196.58 367.813 191.758 275.079 193.334L275.173 193.309Z" fill="#7C5CF4"/>
<path d="M381.454 196.431C376.725 199.092 393.08 205.582 394.906 205.189C396.826 204.772 401.387 195.962 400.438 195.061C399.488 194.161 385.646 194 381.454 196.431Z" fill="#B5CCFF"/>
<path d="M138.185 245.915C138.185 245.915 142.701 249.776 158.663 248.051C199.763 243.602 236.86 240.119 242.305 239.127C247.78 238.216 254.756 233.454 254.756 233.454C254.756 233.454 240.614 231.066 217.441 236.906C194.362 242.721 148.483 249.138 138.031 245.778L138.185 245.915Z" fill="#9ACCFF"/>
<path d="M106.882 175.714C106.882 175.714 69.221 93.1223 73.3675 79.207C77.4194 65.3166 158.774 40.4479 158.774 40.4479C158.774 40.4479 88.9493 66.2609 80.72 78.0674C72.5201 89.9546 106.948 175.608 106.948 175.608L106.882 175.714Z" fill="#9A90FF"/>
<defs>
<linearGradient id="paint0_linear_489_123460" x1="385.677" y1="406.147" x2="267.51" y2="-42.5206" gradientUnits="userSpaceOnUse">
<stop stop-color="#3D069A"/>
<stop offset="1" stop-color="#6509BA"/>
</linearGradient>
<linearGradient id="paint1_linear_489_123460" x1="311.952" y1="426.185" x2="193.698" y2="-22.9195" gradientUnits="userSpaceOnUse">
<stop stop-color="#512EFF"/>
<stop offset="1" stop-color="#7C1ACC"/>
</linearGradient>
</defs>
</svg>
