<svg width="36" height="41" viewBox="0 0 36 41" fill="none" xmlns="http://www.w3.org/2000/svg">
<g filter="url(#filter0_i_3196_197639)">
<path fill-rule="evenodd" clip-rule="evenodd" d="M5.89686 7.33975C5.89686 3.56225 8.95911 0.5 12.7366 0.5C14.8521 0.5 16.7432 1.46045 17.998 2.96909C19.2527 1.46045 21.1438 0.5 23.2593 0.5C27.0367 0.5 30.0991 3.56225 30.0991 7.33975C30.0991 8.92712 29.5584 10.3882 28.6509 11.5488H30.6252C33.5309 11.5488 35.8865 13.9044 35.8865 16.8102V19.4409C35.8865 20.3126 35.1798 21.0193 34.3081 21.0193H20.2077C19.859 21.0193 19.5764 20.7366 19.5764 20.3879V13.1043C18.981 12.723 18.4483 12.2521 17.998 11.7104C17.5476 12.2521 17.0149 12.723 16.4196 13.1043V20.3879C16.4196 20.7366 16.1369 21.0193 15.7882 21.0193H1.68778C0.816058 21.0193 0.109375 20.3126 0.109375 19.4409V16.8102C0.109375 13.9044 2.46497 11.5488 5.37072 11.5488H7.34495C6.4376 10.3882 5.89686 8.92712 5.89686 7.33975ZM16.4196 7.33975C16.4196 5.30572 14.7706 3.65681 12.7366 3.65681C10.7026 3.65681 9.05367 5.30572 9.05367 7.33975C9.05367 9.37379 10.7026 11.0227 12.7366 11.0227C14.7706 11.0227 16.4196 9.37379 16.4196 7.33975ZM19.5764 7.33975C19.5764 9.37379 21.2253 11.0227 23.2593 11.0227C25.2933 11.0227 26.9423 9.37379 26.9423 7.33975C26.9423 5.30572 25.2933 3.65681 23.2593 3.65681C21.2253 3.65681 19.5764 5.30572 19.5764 7.33975Z" fill="url(#paint0_radial_3196_197639)"/>
<path d="M16.4194 24.4909C16.4194 24.1422 16.1368 23.8596 15.7881 23.8596H4.63194C3.77824 23.8596 3.04872 24.4747 2.90454 25.3161C2.43722 28.0432 2.43722 30.83 2.90454 33.5571L3.37661 36.3119C3.69448 38.1669 5.20101 39.5878 7.07134 39.797L9.31294 40.0475C11.4615 40.2876 13.6175 40.4383 15.7755 40.4997C16.129 40.5098 16.4194 40.2249 16.4194 39.8711V24.4909Z" fill="url(#paint1_radial_3196_197639)"/>
<path d="M20.2204 40.4997C19.8668 40.5098 19.5764 40.2249 19.5764 39.8711V24.4909C19.5764 24.1422 19.859 23.8596 20.2077 23.8596H31.3639C32.2175 23.8596 32.9471 24.4747 33.0913 25.3161C33.5585 28.0432 33.5585 30.83 33.0913 33.5571L32.6193 36.3119C32.3013 38.1669 30.7948 39.5878 28.9245 39.797L26.683 40.0475C24.5342 40.2876 22.3783 40.4383 20.2204 40.4997Z" fill="url(#paint2_radial_3196_197639)"/>
</g>
<path d="M17.6135 3.28881L17.998 3.75102L18.3824 3.28881C19.5462 1.88948 21.2987 1 23.2593 1C26.7606 1 29.5991 3.8384 29.5991 7.33975C29.5991 8.81162 29.0982 10.1651 28.257 11.2409L27.6253 12.0488H28.6509H30.6252C33.2548 12.0488 35.3865 14.1806 35.3865 16.8102V19.4409C35.3865 20.0364 34.9037 20.5193 34.3081 20.5193H20.2077C20.1351 20.5193 20.0764 20.4605 20.0764 20.3879V13.1043V12.8307L19.846 12.6832C19.294 12.3297 18.8 11.893 18.3824 11.3907L17.998 10.9284L17.6135 11.3907C17.1959 11.893 16.7019 12.3297 16.1499 12.6832L15.9196 12.8307V13.1043V20.3879C15.9196 20.4605 15.8608 20.5193 15.7882 20.5193H1.68778C1.09221 20.5193 0.609375 20.0364 0.609375 19.4409V16.8102C0.609375 14.1806 2.74111 12.0488 5.37072 12.0488H7.34495H8.37051L7.73886 11.2409C6.89781 10.1651 6.39686 8.81161 6.39686 7.33975C6.39686 3.83839 9.23525 1 12.7366 1C14.6973 1 16.4497 1.88948 17.6135 3.28881ZM9.36848 39.5506L9.31294 40.0475L9.36846 39.5506L7.12691 39.3001C7.12689 39.3001 7.12687 39.3001 7.12685 39.3001C5.47787 39.1157 4.14967 37.8628 3.86942 36.2275L3.39735 33.4726C2.93962 30.8015 2.93962 28.0717 3.39735 25.4006C3.5004 24.7992 4.02179 24.3596 4.63194 24.3596H15.7881C15.8607 24.3596 15.9194 24.4184 15.9194 24.4909V39.8711C15.9194 39.946 15.8588 40.0019 15.7897 39.9999C13.6455 39.9389 11.5033 39.7892 9.36848 39.5506ZM16.9196 7.33975C16.9196 5.02957 15.0468 3.15681 12.7366 3.15681C10.4264 3.15681 8.55367 5.02957 8.55367 7.33975C8.55367 9.64993 10.4264 11.5227 12.7366 11.5227C15.0468 11.5227 16.9196 9.64993 16.9196 7.33975ZM19.0764 7.33975C19.0764 9.64993 20.9491 11.5227 23.2593 11.5227C25.5695 11.5227 27.4423 9.64993 27.4423 7.33975C27.4423 5.02957 25.5695 3.15681 23.2593 3.15681C20.9491 3.15681 19.0764 5.02957 19.0764 7.33975ZM20.2061 39.9999C20.137 40.0019 20.0764 39.946 20.0764 39.8711V24.4909C20.0764 24.4184 20.1351 24.3596 20.2077 24.3596H31.3639C31.974 24.3596 32.4955 24.7993 32.5985 25.4006C33.0561 28.0717 33.0561 30.8015 32.5985 33.4726L32.1264 36.2274C32.1264 36.2274 32.1264 36.2275 32.1264 36.2275C31.8461 37.8629 30.5179 39.1157 28.8689 39.3001L26.6275 39.5506C24.4925 39.7892 22.3503 39.9389 20.2061 39.9999Z" stroke="url(#paint3_linear_3196_197639)" stroke-opacity="0.25"/>
<defs>
<filter id="filter0_i_3196_197639" x="0.109375" y="0.5" width="35.7734" height="42" filterUnits="userSpaceOnUse" color-interpolation-filters="sRGB">
<feFlood flood-opacity="0" result="BackgroundImageFix"/>
<feBlend mode="normal" in="SourceGraphic" in2="BackgroundImageFix" result="shape"/>
<feColorMatrix in="SourceAlpha" type="matrix" values="0 0 0 0 0 0 0 0 0 0 0 0 0 0 0 0 0 0 127 0" result="hardAlpha"/>
<feOffset dy="2"/>
<feGaussianBlur stdDeviation="2"/>
<feComposite in2="hardAlpha" operator="arithmetic" k2="-1" k3="1"/>
<feColorMatrix type="matrix" values="0 0 0 0 0 0 0 0 0 0 0 0 0 0 0 0 0 0 0.35 0"/>
<feBlend mode="normal" in2="shape" result="effect1_innerShadow_3196_197639"/>
</filter>
<radialGradient id="paint0_radial_3196_197639" cx="0" cy="0" r="1" gradientUnits="userSpaceOnUse" gradientTransform="translate(21.9151 -8.66962) rotate(95.5865) scale(46.6725 84.9911)">
<stop stop-color="#FFACC4"/>
<stop offset="1" stop-color="#B968FF"/>
</radialGradient>
<radialGradient id="paint1_radial_3196_197639" cx="0" cy="0" r="1" gradientUnits="userSpaceOnUse" gradientTransform="translate(21.9151 -8.66962) rotate(95.5865) scale(46.6725 84.9911)">
<stop stop-color="#FFACC4"/>
<stop offset="1" stop-color="#B968FF"/>
</radialGradient>
<radialGradient id="paint2_radial_3196_197639" cx="0" cy="0" r="1" gradientUnits="userSpaceOnUse" gradientTransform="translate(21.9151 -8.66962) rotate(95.5865) scale(46.6725 84.9911)">
<stop stop-color="#FFACC4"/>
<stop offset="1" stop-color="#B968FF"/>
</radialGradient>
<linearGradient id="paint3_linear_3196_197639" x1="17.998" y1="0.5" x2="17.998" y2="40.5" gradientUnits="userSpaceOnUse">
<stop stop-color="white"/>
<stop offset="1"/>
</linearGradient>
</defs>
</svg>
