<svg width="40" height="41" viewBox="0 0 40 41" fill="none" xmlns="http://www.w3.org/2000/svg">
<g filter="url(#filter0_i_3196_169295)">
<path d="M38.8028 18.7071L21.8137 1.72235C20.9393 0.848138 19.7525 0.411031 18.5033 0.515104L5.01192 1.74317C3.01319 1.9305 1.43087 3.51241 1.24349 5.51061L0.0151083 18.9985C-0.0889919 20.2266 0.348229 21.4546 1.22267 22.3288L18.191 39.2928C19.003 40.1045 20.0648 40.5 21.1266 40.5C22.1885 40.5 23.2503 40.1045 24.0623 39.2928L38.782 24.5768C40.406 22.9533 40.406 20.3098 38.782 18.6863L38.8028 18.7071ZM12.2989 12.8165C11.716 13.3994 10.9248 13.7324 10.092 13.7324C9.25921 13.7324 8.46805 13.3994 7.88508 12.8165C6.67752 11.6093 6.67752 9.6111 7.88508 8.40385C8.46805 7.82104 9.25921 7.488 10.092 7.488C10.9248 7.488 11.716 7.82104 12.2989 8.40385C13.5065 9.63191 13.5065 11.6093 12.2989 12.8165Z" fill="url(#paint0_radial_3196_169295)"/>
</g>
<path d="M21.4602 2.07595L38.4285 19.0399C38.4285 19.0399 38.4286 19.0399 38.4286 19.0399C39.8572 20.4682 39.8571 22.795 38.4285 24.2232L23.7087 38.9392C22.9962 39.6515 22.0641 40 21.1266 40C20.1891 40 19.257 39.6515 18.5445 38.9392L1.57618 21.9752C0.808468 21.2077 0.421765 20.1261 0.513194 19.0422C0.513236 19.0417 0.513279 19.0412 0.513322 19.0407L1.74131 5.5573C1.74133 5.55708 1.74135 5.55687 1.74137 5.55665C1.90656 3.79831 3.2989 2.40622 5.05794 2.24105C5.05815 2.24103 5.05836 2.24101 5.05858 2.24099L18.5448 1.01338C18.5454 1.01333 18.5461 1.01327 18.5467 1.01322C19.649 0.921914 20.6904 1.30641 21.4602 2.07595ZM12.6554 8.05328L12.6555 8.05327L12.6524 8.05025C11.9768 7.37475 11.0589 6.988 10.092 6.988C9.12514 6.988 8.20725 7.37475 7.53158 8.05025C6.12869 9.45277 6.12869 11.7676 7.53158 13.1701C8.20725 13.8456 9.12514 14.2324 10.092 14.2324C11.0589 14.2324 11.9768 13.8456 12.6524 13.1701C14.057 11.766 14.0527 9.47422 12.6554 8.05328Z" stroke="url(#paint1_linear_3196_169295)" stroke-opacity="0.25"/>
<defs>
<filter id="filter0_i_3196_169295" x="0" y="0.5" width="40" height="42" filterUnits="userSpaceOnUse" color-interpolation-filters="sRGB">
<feFlood flood-opacity="0" result="BackgroundImageFix"/>
<feBlend mode="normal" in="SourceGraphic" in2="BackgroundImageFix" result="shape"/>
<feColorMatrix in="SourceAlpha" type="matrix" values="0 0 0 0 0 0 0 0 0 0 0 0 0 0 0 0 0 0 127 0" result="hardAlpha"/>
<feOffset dy="2"/>
<feGaussianBlur stdDeviation="2"/>
<feComposite in2="hardAlpha" operator="arithmetic" k2="-1" k3="1"/>
<feColorMatrix type="matrix" values="0 0 0 0 0 0 0 0 0 0 0 0 0 0 0 0 0 0 0.35 0"/>
<feBlend mode="normal" in2="shape" result="effect1_innerShadow_3196_169295"/>
</filter>
<radialGradient id="paint0_radial_3196_169295" cx="0" cy="0" r="1" gradientUnits="userSpaceOnUse" gradientTransform="translate(24.3795 -8.66962) rotate(96.2409) scale(46.7277 94.9104)">
<stop stop-color="#FFA05C"/>
<stop offset="1" stop-color="#F15749"/>
</radialGradient>
<linearGradient id="paint1_linear_3196_169295" x1="20" y1="0.5" x2="20" y2="40.5" gradientUnits="userSpaceOnUse">
<stop stop-color="white"/>
<stop offset="1"/>
</linearGradient>
</defs>
</svg>
