<svg width="40" height="41" viewBox="0 0 40 41" fill="none" xmlns="http://www.w3.org/2000/svg">
<g filter="url(#filter0_i_3196_129446)">
<path d="M39.5529 11.4766L36.632 2.73273C36.4171 2.08336 36.003 1.51819 35.4486 1.11746C34.8943 0.716716 34.2278 0.500762 33.5438 0.500244H6.45624C5.77221 0.500762 5.10571 0.716716 4.55136 1.11746C3.997 1.51819 3.58295 2.08336 3.36797 2.73273L0.447129 11.4766C0.149869 12.3769 -0.000882413 13.3191 0.000631567 14.2673V15.5881C-0.0211356 17.1177 0.520421 18.6019 1.52217 19.7581C2.52393 20.9142 3.9159 21.6615 5.43302 21.8577C6.27479 21.9444 7.12537 21.8533 7.92974 21.5906C8.73412 21.3278 9.47438 20.8991 10.1026 20.3322C10.3155 20.1554 10.5146 19.9626 10.698 19.7555C11.267 20.4336 11.9792 20.9771 12.7834 21.3471C13.5876 21.717 14.4638 21.9041 15.349 21.8949C16.2331 21.8977 17.1073 21.7077 17.9105 21.3382C18.7137 20.9688 19.4268 20.4286 20 19.7555C20.573 20.4385 21.2912 20.9849 22.1023 21.3551C22.9134 21.7252 23.7968 21.9096 24.6882 21.8949C25.5688 21.8865 26.4371 21.6876 27.2335 21.3119C28.0299 20.9361 28.7356 20.3925 29.302 19.7182C29.486 19.9364 29.6849 20.1416 29.8974 20.3322C30.525 20.9001 31.2652 21.3294 32.0697 21.5922C32.8743 21.8551 33.7252 21.9455 34.567 21.8577C36.0841 21.6615 37.4761 20.9142 38.4778 19.7581C39.4796 18.6019 40.0211 17.1177 39.9994 15.5881V14.2673C40.0009 13.3191 39.8501 12.3769 39.5529 11.4766Z" fill="url(#paint0_radial_3196_129446)"/>
<path d="M24.651 31.1969H15.349C15.2256 31.1969 15.1073 31.246 15.0201 31.3332C14.9329 31.4204 14.8839 31.5387 14.8839 31.6621V40.499H25.1161V31.6621C25.1161 31.5387 25.0671 31.4204 24.9799 31.3332C24.8927 31.246 24.7744 31.1969 24.651 31.1969Z" fill="url(#paint1_radial_3196_129446)"/>
<path d="M34.8832 24.6483H34.0089C32.3509 24.6676 30.7206 24.2229 29.302 23.3646C27.9058 24.2315 26.2944 24.6891 24.651 24.6855C22.9985 24.6889 21.3768 24.2384 19.9628 23.3832C18.5727 24.2306 16.977 24.681 15.349 24.6855C13.7091 24.6821 12.1011 24.2319 10.698 23.3832C9.30601 24.242 7.70109 24.6932 6.06554 24.6855H5.19115C4.03281 24.572 2.91109 24.2171 1.89823 23.6437V37.2433C1.90297 38.0989 2.24242 38.9186 2.84394 39.5271C3.44546 40.1355 4.26125 40.4844 5.11674 40.499H12.0933V31.1969C12.0933 30.4568 12.3873 29.747 12.9106 29.2237C13.434 28.7003 14.1438 28.4063 14.8839 28.4063H25.1161C25.8562 28.4063 26.566 28.7003 27.0894 29.2237C27.6127 29.747 27.9067 30.4568 27.9067 31.1969V40.499H34.8832C35.7452 40.4941 36.5705 40.1495 37.18 39.54C37.7895 38.9305 38.1341 38.1052 38.139 37.2433V23.6065C37.1373 24.175 36.0288 24.5297 34.8832 24.6483Z" fill="url(#paint2_radial_3196_129446)"/>
</g>
<path d="M29.6424 20.0899C29.725 20.173 29.8101 20.2538 29.8974 20.3322C30.525 20.9001 31.2652 21.3294 32.0697 21.5922C32.8743 21.8551 33.7252 21.9455 34.567 21.8577M29.6424 20.0899L39.5529 11.4766C39.8501 12.3769 40.0009 13.3191 39.9994 14.2673V15.5881C40.0211 17.1177 39.4796 18.6019 38.4778 19.7581C37.4761 20.9142 36.0841 21.6615 34.567 21.8577M29.6424 20.0899C29.6566 20.0733 29.6708 20.0566 29.6849 20.0399L29.302 19.7182L28.9198 20.0406C28.9338 20.0572 28.948 20.0738 28.9622 20.0904M29.6424 20.0899L28.9622 20.0904M34.567 21.8577L34.5029 21.3618C34.5049 21.3616 34.5069 21.3613 34.5089 21.361M34.567 21.8577L34.5151 21.3604C34.5131 21.3606 34.511 21.3608 34.5089 21.361M28.9622 20.0904C28.4624 20.5942 27.8777 21.008 27.2335 21.3119C26.4371 21.6876 25.5688 21.8865 24.6882 21.8949C23.7968 21.9096 22.9134 21.7252 22.1023 21.3551C21.4443 21.0548 20.8475 20.6385 20.3396 20.1273C20.3534 20.1115 20.3671 20.0956 20.3807 20.0796L20 19.7555L19.6169 20.0768C19.6305 20.093 19.6441 20.1091 19.6579 20.1251C19.1521 20.628 18.5609 21.0391 17.9105 21.3382C17.1073 21.7077 16.2331 21.8977 15.349 21.8949C14.4638 21.9041 13.5876 21.717 12.7834 21.3471C12.1318 21.0473 11.5405 20.6335 11.0369 20.1266C11.0488 20.1134 11.0606 20.1002 11.0723 20.0869L10.698 19.7555L10.315 20.0769C10.3259 20.0899 10.3368 20.1028 10.3479 20.1157C10.2683 20.1903 10.1866 20.2625 10.1026 20.3322C9.47438 20.8991 8.73412 21.3278 7.92974 21.5906C7.12537 21.8533 6.27479 21.9444 5.43302 21.8577M28.9622 20.0904L39.0786 11.6351L39.0783 11.634C39.3586 12.4833 39.5008 13.3721 39.4994 14.2665V14.2673L39.4993 15.5881L39.4994 15.5953C39.5194 17.0021 39.0213 18.3673 38.0999 19.4306C37.1799 20.4925 35.902 21.1794 34.5089 21.361M5.43302 21.8577L5.49715 21.3618C5.495 21.3616 5.49285 21.3613 5.49071 21.361M5.43302 21.8577L5.48421 21.3603C5.48638 21.3606 5.48854 21.3608 5.49071 21.361M5.43302 21.8577C3.9159 21.6615 2.52393 20.9142 1.52217 19.7581C0.520421 18.6019 -0.0211356 17.1177 0.000631567 15.5881L39.0781 11.6334L36.1578 2.89115L36.1574 2.88988C35.9754 2.34023 35.6249 1.86186 35.1557 1.52267C34.6866 1.18351 34.1225 1.00072 33.5436 1.00024H6.45643C5.87752 1.00072 5.31345 1.18351 4.84428 1.52267C4.37506 1.86186 4.0246 2.34023 3.84263 2.88987L3.84221 2.89115L3.84221 2.89115L0.921918 11.6334C0.921831 11.6337 0.921745 11.6339 0.921658 11.6342C0.641354 12.4834 0.499203 13.3722 0.500631 14.2665L0.500632 14.2673L0.500632 15.5881V15.5953L0.500581 15.5953C0.48056 17.0021 0.97867 18.3673 1.90006 19.4306C2.82002 20.4924 4.0978 21.1793 5.49071 21.361M5.49071 21.361C6.26074 21.4393 7.03868 21.3557 7.77447 21.1153C8.51233 20.8742 9.19137 20.481 9.76768 19.961L9.77533 19.9541L9.78325 19.9475C9.97648 19.7871 10.1571 19.6121 10.3236 19.424L10.7081 18.9897L11.081 19.434C11.6025 20.0556 12.2553 20.5537 12.9924 20.8928C13.7295 21.2319 14.5325 21.4034 15.3438 21.3949L15.3506 21.3949L15.3506 21.3949C16.162 21.3975 16.9643 21.2231 17.7015 20.884C18.4388 20.5449 19.0932 20.0491 19.6193 19.4313L20.0028 18.9809L20.3831 19.4341C20.9082 20.0601 21.5665 20.561 22.3099 20.9002C23.0532 21.2394 23.863 21.4085 24.68 21.395L24.6834 21.3949C25.4919 21.3872 26.289 21.2046 27.0202 20.8597C27.7513 20.5147 28.3992 20.0156 28.9192 19.3966L29.3013 18.9418L29.6843 19.3959C29.8533 19.5964 30.0361 19.7849 30.2313 19.96L30.2328 19.9614C30.8084 20.4822 31.4872 20.8759 32.225 21.117C32.9608 21.3573 33.739 21.4405 34.5089 21.361M24.6161 39.999H15.3839V31.6969H24.6161V39.999ZM34.8832 25.1483H34.909L34.9347 25.1456C35.8708 25.0487 36.7835 24.8031 37.639 24.4196V37.2417C37.6345 37.9716 37.3426 38.6703 36.8264 39.1864C36.3103 39.7026 35.6116 39.9945 34.8817 39.999H28.4067V31.1969C28.4067 30.3242 28.06 29.4872 27.4429 28.8701C26.8258 28.253 25.9888 27.9063 25.1161 27.9063H14.8839C14.0111 27.9063 13.1742 28.253 12.5571 28.8701C11.9399 29.4872 11.5933 30.3242 11.5933 31.1969V39.999H5.12117C4.39781 39.9856 3.70823 39.6901 3.19952 39.1756C2.69017 38.6603 2.4026 37.9663 2.39823 37.2419V24.4558C3.26609 24.8439 4.19262 25.09 5.14237 25.1831L5.1667 25.1855H5.19115H6.06442C7.69207 25.193 9.29099 24.7705 10.7004 23.9634C12.1181 24.7606 13.7181 25.1822 15.3479 25.1855L15.3504 25.1855C16.9693 25.181 18.5581 24.759 19.9637 23.9626C21.3931 24.7666 23.0076 25.1887 24.651 25.1855C26.2863 25.1889 27.8916 24.7602 29.3053 23.9453C30.7399 24.7512 32.3628 25.1669 34.0117 25.1483H34.8832Z" stroke="url(#paint3_linear_3196_129446)" stroke-opacity="0.25"/>
<defs>
<filter id="filter0_i_3196_129446" x="0" y="0.500244" width="40" height="41.9988" filterUnits="userSpaceOnUse" color-interpolation-filters="sRGB">
<feFlood flood-opacity="0" result="BackgroundImageFix"/>
<feBlend mode="normal" in="SourceGraphic" in2="BackgroundImageFix" result="shape"/>
<feColorMatrix in="SourceAlpha" type="matrix" values="0 0 0 0 0 0 0 0 0 0 0 0 0 0 0 0 0 0 127 0" result="hardAlpha"/>
<feOffset dy="2"/>
<feGaussianBlur stdDeviation="2"/>
<feComposite in2="hardAlpha" operator="arithmetic" k2="-1" k3="1"/>
<feColorMatrix type="matrix" values="0 0 0 0 0 0 0 0 0 0 0 0 0 0 0 0 0 0 0.35 0"/>
<feBlend mode="normal" in2="shape" result="effect1_innerShadow_3196_129446"/>
</filter>
<radialGradient id="paint0_radial_3196_129446" cx="0" cy="0" r="1" gradientUnits="userSpaceOnUse" gradientTransform="translate(24.3795 -8.66909) rotate(96.2411) scale(46.7263 94.9104)">
<stop stop-color="#6DE7AA"/>
<stop offset="0.0001" stop-color="#FF5FDC"/>
<stop offset="1" stop-color="#F06977"/>
</radialGradient>
<radialGradient id="paint1_radial_3196_129446" cx="0" cy="0" r="1" gradientUnits="userSpaceOnUse" gradientTransform="translate(24.3795 -8.66909) rotate(96.2411) scale(46.7263 94.9104)">
<stop stop-color="#6DE7AA"/>
<stop offset="0.0001" stop-color="#FF5FDC"/>
<stop offset="1" stop-color="#F06977"/>
</radialGradient>
<radialGradient id="paint2_radial_3196_129446" cx="0" cy="0" r="1" gradientUnits="userSpaceOnUse" gradientTransform="translate(24.3795 -8.66909) rotate(96.2411) scale(46.7263 94.9104)">
<stop stop-color="#6DE7AA"/>
<stop offset="0.0001" stop-color="#FF5FDC"/>
<stop offset="1" stop-color="#F06977"/>
</radialGradient>
<linearGradient id="paint3_linear_3196_129446" x1="20" y1="0.500244" x2="20" y2="40.499" gradientUnits="userSpaceOnUse">
<stop stop-color="white"/>
<stop offset="1"/>
</linearGradient>
</defs>
</svg>
