<svg width="40" height="41" viewBox="0 0 40 41" fill="none" xmlns="http://www.w3.org/2000/svg">
<g filter="url(#filter0_i_3241_204347)">
<path fill-rule="evenodd" clip-rule="evenodd" d="M0 20.5001C0 9.45442 8.9543 0.500122 20 0.500122C25.3044 0.500122 30.3914 2.60726 34.1422 6.35798C37.8928 10.1087 40 15.1958 40 20.5001C40 31.5457 31.0456 40.5001 20 40.5001C8.9543 40.5001 0 31.5457 0 20.5001ZM17.42 27.9201L29.42 15.9201C30.2042 15.1359 30.2042 13.8644 29.42 13.0801C28.6358 12.2959 27.3642 12.2959 26.58 13.0801L16 23.6801L13.42 21.0801C12.9127 20.5727 12.1733 20.3747 11.4802 20.5603C10.7872 20.7461 10.2459 21.2873 10.0602 21.9803C9.87456 22.6733 10.0727 23.4127 10.58 23.9201L14.58 27.9201C14.9555 28.2987 15.4667 28.5117 16 28.5117C16.5332 28.5117 17.0444 28.2987 17.42 27.9201Z" fill="url(#paint0_radial_3241_204347)"/>
</g>
<path d="M26.2261 12.7269L16.001 22.9713L13.7749 20.7279L13.7736 20.7266C13.1399 20.0928 12.2164 19.8456 11.3509 20.0773L11.3508 20.0774C10.4853 20.3094 9.80923 20.9853 9.57728 21.8509L10.0602 21.9803L9.57727 21.8509C9.34536 22.7165 9.59282 23.64 10.2264 24.2736L10.2264 24.2737L14.225 28.2722C14.2253 28.2725 14.2256 28.2728 14.2259 28.2731C14.6952 28.7458 15.3338 29.0117 16 29.0117C16.6662 29.0117 17.3048 28.7457 17.7742 28.273C17.7745 28.2728 17.7747 28.2725 17.775 28.2723L29.7736 16.2737L29.42 15.9201L29.7736 16.2737C30.753 15.2942 30.753 13.7061 29.7736 12.7266C28.7941 11.7471 27.2059 11.7471 26.2264 12.7266L26.2261 12.7269ZM0.5 20.5001C0.5 9.73056 9.23044 1.00012 20 1.00012C25.1718 1.00012 30.1316 3.05458 33.7886 6.71154C37.4455 10.3685 39.5 15.3284 39.5 20.5001C39.5 31.2696 30.7695 40.0001 20 40.0001C9.23044 40.0001 0.5 31.2696 0.5 20.5001Z" stroke="url(#paint1_linear_3241_204347)" stroke-opacity="0.25"/>
<defs>
<filter id="filter0_i_3241_204347" x="0" y="0.500122" width="40" height="42" filterUnits="userSpaceOnUse" color-interpolation-filters="sRGB">
<feFlood flood-opacity="0" result="BackgroundImageFix"/>
<feBlend mode="normal" in="SourceGraphic" in2="BackgroundImageFix" result="shape"/>
<feColorMatrix in="SourceAlpha" type="matrix" values="0 0 0 0 0 0 0 0 0 0 0 0 0 0 0 0 0 0 127 0" result="hardAlpha"/>
<feOffset dy="2"/>
<feGaussianBlur stdDeviation="2"/>
<feComposite in2="hardAlpha" operator="arithmetic" k2="-1" k3="1"/>
<feColorMatrix type="matrix" values="0 0 0 0 0 0 0 0 0 0 0 0 0 0 0 0 0 0 0.35 0"/>
<feBlend mode="normal" in2="shape" result="effect1_innerShadow_3241_204347"/>
</filter>
<radialGradient id="paint0_radial_3241_204347" cx="0" cy="0" r="1" gradientUnits="userSpaceOnUse" gradientTransform="translate(24.3795 -8.6695) rotate(96.2409) scale(46.7277 94.9104)">
<stop stop-color="#30EF80"/>
<stop offset="1" stop-color="#74F069"/>
</radialGradient>
<linearGradient id="paint1_linear_3241_204347" x1="20" y1="0.500122" x2="20" y2="40.5001" gradientUnits="userSpaceOnUse">
<stop stop-color="white"/>
<stop offset="1"/>
</linearGradient>
</defs>
</svg>
