<svg width="68" height="69" viewBox="0 0 68 69" fill="none" xmlns="http://www.w3.org/2000/svg">
<g filter="url(#filter0_dd_696_209740)">
<rect x="10" y="10.5" width="40" height="40" rx="15" fill="url(#paint0_linear_696_209740)" shape-rendering="crispEdges"/>
<rect x="10" y="10.5" width="40" height="40" rx="15" fill="black" fill-opacity="0.2" shape-rendering="crispEdges"/>
<rect x="10.5" y="11" width="39" height="39" rx="14.5" stroke="url(#paint1_linear_696_209740)" stroke-opacity="0.25" shape-rendering="crispEdges"/>
<path d="M35.7396 29.9618C35.9758 29.7316 36.0592 29.3938 35.9573 29.0797C35.8552 28.7657 35.5892 28.5415 35.2624 28.4939L32.3568 28.0717C32.2331 28.0537 32.1262 27.9761 32.0709 27.8639L30.7719 25.2313C30.6261 24.9355 30.33 24.7517 30.0001 24.7517C29.6704 24.7517 29.3744 24.9355 29.2286 25.2313L27.9293 27.8641C27.8741 27.9763 27.7669 28.054 27.6432 28.072L24.7376 28.4942C24.4111 28.5415 24.1448 28.7659 24.0427 29.08C23.9408 29.394 24.0242 29.7319 24.2604 29.9621L26.3627 32.0112C26.4523 32.0987 26.4934 32.2246 26.4722 32.3476L25.9763 35.2411C25.9323 35.4958 25.9991 35.7436 26.164 35.9389C26.4201 36.2434 26.8673 36.3361 27.2248 36.1482L29.8233 34.7819C29.9319 34.725 30.0686 34.7255 30.177 34.7819L32.7757 36.1482C32.902 36.2148 33.0368 36.2484 33.176 36.2484C33.43 36.2484 33.6707 36.1355 33.8363 35.9389C34.0014 35.7436 34.0679 35.4954 34.0239 35.2411L33.5278 32.3476C33.5066 32.2243 33.5477 32.0987 33.6373 32.0112L35.7396 29.9618Z" fill="#E3B075"/>
</g>
<defs>
<filter id="filter0_dd_696_209740" x="-20" y="-19.5" width="88" height="88" filterUnits="userSpaceOnUse" color-interpolation-filters="sRGB">
<feFlood flood-opacity="0" result="BackgroundImageFix"/>
<feColorMatrix in="SourceAlpha" type="matrix" values="0 0 0 0 0 0 0 0 0 0 0 0 0 0 0 0 0 0 127 0" result="hardAlpha"/>
<feOffset dx="-6" dy="-6"/>
<feGaussianBlur stdDeviation="12"/>
<feComposite in2="hardAlpha" operator="out"/>
<feColorMatrix type="matrix" values="0 0 0 0 0.580556 0 0 0 0 0.370833 0 0 0 0 1 0 0 0 0.15 0"/>
<feBlend mode="normal" in2="BackgroundImageFix" result="effect1_dropShadow_696_209740"/>
<feColorMatrix in="SourceAlpha" type="matrix" values="0 0 0 0 0 0 0 0 0 0 0 0 0 0 0 0 0 0 127 0" result="hardAlpha"/>
<feOffset dx="6" dy="6"/>
<feGaussianBlur stdDeviation="6"/>
<feComposite in2="hardAlpha" operator="out"/>
<feColorMatrix type="matrix" values="0 0 0 0 0.0878206 0 0 0 0 0.0786632 0 0 0 0 0.0958333 0 0 0 0.5 0"/>
<feBlend mode="normal" in2="effect1_dropShadow_696_209740" result="effect2_dropShadow_696_209740"/>
<feBlend mode="normal" in="SourceGraphic" in2="effect2_dropShadow_696_209740" result="shape"/>
</filter>
<linearGradient id="paint0_linear_696_209740" x1="30" y1="10.5" x2="30" y2="50.5" gradientUnits="userSpaceOnUse">
<stop stop-opacity="0.5"/>
<stop offset="1" stop-opacity="0.1"/>
</linearGradient>
<linearGradient id="paint1_linear_696_209740" x1="30" y1="10.5" x2="30" y2="50.5" gradientUnits="userSpaceOnUse">
<stop stop-color="#C3A2F1"/>
<stop offset="1" stop-color="#664EAB"/>
</linearGradient>
</defs>
</svg>
