<svg width="55" height="20" viewBox="0 0 55 20" fill="none" xmlns="http://www.w3.org/2000/svg">
<g id="vtb-1669936462-logotic-brand 1" clip-path="url(#clip0_2297_139270)">
<path id="Vector" d="M3.73226 0.270508L2.79825 2.83254H15.7371L16.6711 0.270508H3.73226ZM2.33178 4.11246L1.39777 6.67397H14.3366L15.2706 4.11246H2.33178ZM0.934016 7.9544L0 10.5154H12.9389L13.8718 7.95386L0.934016 7.9544Z" fill="#009FDF"/>
<path id="Vector_2" d="M27.2014 11.3191V11.3723C27.7825 11.5857 28.338 11.9594 28.6285 12.1994C29.5267 12.9466 29.9237 13.9332 29.9237 15.2137C29.9237 17.3223 28.8137 18.8423 26.9897 19.3229C26.4342 19.4831 25.8531 19.5363 24.7697 19.5363H19.2471V4.11523H24.1366C25.1412 4.11523 25.8276 4.16845 26.4352 4.3281C28.206 4.80869 29.3692 6.03595 29.3692 7.98325C29.3692 9.02427 28.9994 9.90503 28.3918 10.4915C28.1273 10.7582 27.7575 11.0785 27.2025 11.3185L27.2014 11.3191ZM22.3125 12.9466V17.0019H24.4271C25.0608 17.0019 25.643 16.9488 26.0654 16.5485C26.4884 16.1483 26.6731 15.6411 26.6731 14.9743C26.6731 14.4682 26.5406 13.9876 26.2766 13.6406C25.8276 13.0802 25.272 12.9466 24.3212 12.9466H22.3125ZM22.2853 10.2781H24.0035C24.5319 10.2781 24.7964 10.2781 25.0603 10.1983C25.7744 9.98433 26.2234 9.34519 26.2234 8.46438C26.2234 7.42395 25.7477 6.96995 25.0603 6.75708C24.7692 6.6767 24.4792 6.65065 23.8976 6.65065H22.2853V10.2781ZM34.522 19.5368V6.70335H30.1089V4.11578H42.3722L41.5 6.70335H37.588V19.5368H34.522ZM43.3236 19.5368V4.11578H53.2611L52.389 6.70335H46.3634V10.119H48.8218C50.8038 10.119 51.8345 10.5996 52.5486 11.2127C53.1041 11.6932 54.055 12.7598 54.055 14.8684C54.055 16.9493 53.0775 18.0962 52.2575 18.6837C51.3061 19.35 50.302 19.5374 48.2663 19.5374H43.3241L43.3236 19.5368ZM46.3629 16.9482H48.6621C49.5342 16.9482 50.0626 16.7348 50.4324 16.2542C50.617 16.0147 50.8815 15.5868 50.8815 14.7869C50.8815 13.987 50.617 13.4261 50.0886 13.0258C49.772 12.7864 49.3485 12.6534 48.635 12.6534H46.3618V16.9482H46.3629Z" fill="#0A2973"/>
</g>
<defs>
<clipPath id="clip0_2297_139270">
<rect width="54.0541" height="20" fill="white"/>
</clipPath>
</defs>
</svg>
