<svg width="72" height="21" viewBox="0 0 72 21" fill="none" xmlns="http://www.w3.org/2000/svg">
<g id="raiffeisen-1669939794-logotic-brand 1" clip-path="url(#clip0_2297_134002)">
<path id="Vector" d="M20.0893 16.5685C20.0893 18.9393 18.7723 20.2563 16.4015 20.2563H4.26495C1.89422 20.2563 0.577148 18.9393 0.577148 16.5685V4.43195C0.577148 2.06121 1.89422 0.744141 4.26495 0.744141H16.4064C18.7723 0.744141 20.0893 2.06121 20.0893 4.43195V16.5685Z" fill="#FFE600"/>
<path id="Vector_2" d="M13.1233 7.68446V9.54782L12.1771 10.4991L16.8405 15.167L14.9962 17.0063L10.3333 12.3429L5.66986 17.0013L3.82553 15.1625L8.48898 10.4991L7.54273 9.55738V7.69402L6.86981 7.02104V8.63573L6.2841 9.2209L3.92833 6.8646L3.34766 7.44529C3.35267 7.00602 3.44042 5.73285 4.51853 4.67431C5.67937 3.55258 6.938 4.06004 7.36722 4.48928L9.71849 6.84055L9.1183 7.44026L10.3333 8.65475L11.5478 7.43075L10.9476 6.83051L13.2988 4.47925C13.7281 4.05001 14.9867 3.54305 16.1475 4.66478C17.2256 5.72333 17.3134 6.99651 17.3184 7.43524L16.7377 6.85509L14.382 9.2109L13.7962 8.62568V7.01104L13.1233 7.68446Z" fill="#2B2D34"/>
<path id="Vector_3" fill-rule="evenodd" clip-rule="evenodd" d="M23.3438 11.3151H26.8609V12.4223H24.6611V13.5591H25.3927C25.8851 13.5591 26.5194 13.6177 26.9973 14.0861C27.2024 14.2907 27.4561 14.6663 27.4561 15.271C27.4561 15.4535 27.4336 15.6285 27.3899 15.792C27.3167 16.0648 27.1838 16.3045 26.9973 16.4905C26.8704 16.6174 26.7265 16.7147 26.5686 16.7884C26.4969 16.8215 26.4221 16.85 26.3444 16.8746C26.3063 16.8867 26.2677 16.8977 26.2281 16.9077C25.9413 16.9804 25.6213 17.003 25.2803 17.003H23.3438V11.3151ZM25.178 15.9445C25.3586 15.9445 25.6805 15.9299 25.8851 15.7639C25.9247 15.7298 25.9924 15.6626 26.042 15.5558C26.0781 15.4791 26.1047 15.3818 26.1047 15.2615C26.1047 15.2184 26.1012 15.1777 26.0952 15.1396C26.0887 15.099 26.0786 15.0614 26.0666 15.0263C26.0476 14.9712 26.0225 14.923 25.9944 14.8814C25.9678 14.8423 25.9382 14.8092 25.9087 14.7816C25.8956 14.7695 25.8826 14.7585 25.8696 14.7485L25.851 14.7345C25.6464 14.588 25.3144 14.5835 25.178 14.5835H24.656V15.9495H25.178V15.9445ZM32.2263 13.198H30.9973V13.6273C30.7601 13.3049 30.4447 13.1644 30.1659 13.1073C30.032 13.0797 29.9067 13.0712 29.8018 13.0712C29.2754 13.0712 28.812 13.2612 28.48 13.5932C28.1291 13.9442 27.8898 14.4908 27.8898 15.1296C27.8898 15.632 28.0458 16.1295 28.4459 16.5542C28.8657 16.998 29.324 17.1344 29.8706 17.1344C30.0315 17.1344 30.2346 17.1143 30.4387 17.0271C30.6357 16.9428 30.8343 16.7959 30.9973 16.5442V17.003H32.2263V13.198ZM29.1535 15.0955C29.1535 14.9075 29.2006 14.755 29.2643 14.6347C29.3165 14.5369 29.3792 14.4602 29.4363 14.403C29.5973 14.242 29.841 14.1297 30.1047 14.1347C30.3289 14.1347 30.6022 14.2175 30.7872 14.398C30.8213 14.4301 30.8529 14.4652 30.8815 14.5028C30.9141 14.5464 30.9427 14.5935 30.9672 14.6432C31.0344 14.7781 31.0705 14.9335 31.0705 15.0955C31.0705 15.4224 30.9336 15.6616 30.7727 15.8126C30.6924 15.8928 30.5952 15.9585 30.4868 16.0041C30.378 16.0503 30.2582 16.0758 30.1338 16.0758C29.841 16.0758 29.5777 15.959 29.4067 15.7785C29.2994 15.6566 29.1535 15.437 29.1535 15.0955ZM32.968 13.198H34.197V14.5198H35.573V13.198H36.802V17.003H35.573V15.5102H34.197V17.003H32.968V13.198ZM38.7677 13.198H37.5386V17.003H38.7677V15.3152L40.0654 17.003H41.651L39.9095 14.9641L41.5387 13.198H40.0117L38.7677 14.7104V13.198ZM25.348 3.99805C25.841 3.99805 26.3876 4.06624 26.8408 4.46639C27.3287 4.89062 27.3969 5.45677 27.3969 5.84687C27.3969 6.56394 27.1237 6.96409 26.909 7.18823C26.4557 7.64706 25.8605 7.69067 25.4604 7.69067H24.6606V9.68594H23.3483V3.99805H25.348ZM24.6556 6.6176H25.1239C25.1936 6.6176 25.2823 6.61609 25.3776 6.60253C25.5306 6.58096 25.6996 6.52882 25.8315 6.40296C25.9483 6.28565 26.046 6.08604 26.046 5.84184C26.046 5.73252 26.0285 5.63174 25.9969 5.5435C25.9598 5.43921 25.9026 5.35144 25.8315 5.28575C25.6358 5.10072 25.3531 5.07114 25.0993 5.07114H24.6556V6.6176ZM31.8312 5.88096H30.6022V6.31018C30.4337 6.08106 30.2256 5.94365 30.0195 5.86292C29.7958 5.77516 29.5742 5.75409 29.4067 5.75409C28.8802 5.75409 28.4169 5.94414 28.0849 6.27609C27.7339 6.62711 27.4947 7.1737 27.4947 7.81253C27.4947 8.13745 27.5599 8.46038 27.7143 8.76277C27.7986 8.92823 27.9094 9.08721 28.0508 9.23716C28.4705 9.68091 28.9289 9.81731 29.4754 9.81731C29.6359 9.81731 29.8375 9.79774 30.0406 9.7115C30.2386 9.62726 30.4382 9.48033 30.6022 9.22711V9.68594H31.8312V5.88096ZM28.7584 7.77843C28.7584 7.43696 28.9143 7.21282 29.0412 7.08594C29.2021 6.92496 29.4509 6.81267 29.7096 6.81765C29.7758 6.81765 29.846 6.82521 29.9172 6.83974C29.9588 6.84823 30.0004 6.85931 30.042 6.87331C30.1699 6.91643 30.2933 6.98467 30.3921 7.08092C30.4863 7.17018 30.5596 7.28199 30.6077 7.40789C30.6282 7.4615 30.6443 7.5177 30.6558 7.57535C30.6608 7.60043 30.6649 7.62599 30.6678 7.65209C30.6704 7.67262 30.6719 7.6937 30.6729 7.71477C30.6744 7.73579 30.6754 7.75687 30.6754 7.77843C30.6754 8.10535 30.5385 8.34457 30.3775 8.4955C30.2933 8.57974 30.1905 8.64794 30.0757 8.69409C30.031 8.71214 29.9844 8.72667 29.9362 8.73721L29.8831 8.74774L29.8335 8.75374C29.8024 8.75726 29.7708 8.75877 29.7387 8.75877C29.6108 8.75877 29.4885 8.73618 29.3766 8.69609C29.2332 8.64443 29.1078 8.56321 29.0116 8.4614C28.9043 8.33955 28.7584 8.11994 28.7584 7.77843ZM33.8019 5.88096V8.05672L35.4216 5.88096H36.5634V9.68594H35.3338V7.47609L33.7141 9.68594H32.5729V5.88096H33.8019ZM36.1145 4.34454C36.0118 4.65143 35.8072 4.91519 35.568 5.07114C35.246 5.28575 34.8509 5.31032 34.5681 5.31032C34.2853 5.31032 33.8947 5.28575 33.5682 5.07114C33.5401 5.05309 33.5125 5.03403 33.4855 5.01297C33.4549 4.9894 33.4248 4.96383 33.3957 4.93625C33.3646 4.90666 33.3345 4.87557 33.3055 4.84248C33.1836 4.70208 33.0838 4.53058 33.0217 4.34454L33.8751 4.01259C33.9092 4.18308 33.9924 4.31997 34.0947 4.40271C34.2071 4.49548 34.3485 4.55415 34.5631 4.55415C34.6157 4.55415 34.6638 4.55064 34.7085 4.54412L34.7341 4.54011L34.7592 4.5351L34.7927 4.52657L34.8263 4.51654C34.9066 4.48996 34.9728 4.45085 35.0314 4.40271C35.1337 4.31997 35.217 4.18308 35.2511 4.01259L36.1145 4.34454ZM39.2801 9.74457V11.5834H40.5192V9.74457H40.5679C41.4314 9.74457 41.9092 9.38809 42.1289 9.17345C42.2417 9.06262 42.354 8.92121 42.4473 8.74521C42.4633 8.71511 42.4789 8.68404 42.4934 8.65194L42.5195 8.59277C42.5521 8.51404 42.5807 8.42979 42.6042 8.33906C42.6333 8.22823 42.6544 8.10838 42.6659 7.97853C42.6689 7.94189 42.6714 7.90482 42.6729 7.86667C42.6744 7.83257 42.6749 7.79848 42.6749 7.76389C42.6749 7.51716 42.6378 7.30004 42.5772 7.11053C42.5235 6.94204 42.4508 6.7956 42.368 6.66974C42.3485 6.63965 42.3279 6.61057 42.3069 6.58248L42.2888 6.55892L42.2577 6.52033C42.18 6.42555 42.0978 6.34579 42.0165 6.28111C41.641 5.98326 41.0753 5.82228 40.5729 5.82228H40.5142V3.99805H39.2852V5.82228H39.2265C38.7191 5.82228 38.1579 5.98326 37.7823 6.28111C37.4655 6.53487 37.1239 7.01272 37.1239 7.76389C37.1239 8.45638 37.3973 8.91018 37.6705 9.17345C37.8897 9.38809 38.368 9.74457 39.231 9.74457H39.2801ZM39.031 6.83872C39.1312 6.81667 39.236 6.80765 39.3388 6.81267V8.75423C39.0264 8.76379 38.7336 8.64691 38.5726 8.46643C38.4262 8.31496 38.3239 8.06628 38.3239 7.76892C38.3239 7.46653 38.4262 7.22233 38.5726 7.07589C38.6855 6.96009 38.8509 6.87833 39.031 6.83872ZM41.2167 8.47145C41.0558 8.64691 40.7679 8.76877 40.451 8.75926V6.81765C40.6486 6.80414 40.8512 6.84823 41.0172 6.93599C41.0924 6.97613 41.1606 7.02477 41.2167 7.08092C41.2835 7.1476 41.3411 7.23535 41.3842 7.33916C41.4354 7.46404 41.4655 7.61145 41.4655 7.7734C41.4655 8.07126 41.3632 8.31999 41.2167 8.47145ZM45.1927 11.5834V9.74457H45.1436C44.8657 9.74457 44.628 9.7075 44.4255 9.65033C44.3147 9.61926 44.2149 9.58165 44.1251 9.54101C43.8684 9.42467 43.6929 9.28126 43.5831 9.17345C43.5455 9.13735 43.5078 9.09774 43.4712 9.05409C43.4392 9.01648 43.4076 8.97589 43.3775 8.93277C43.3068 8.83145 43.2411 8.71462 43.1869 8.58126C43.1262 8.43233 43.0801 8.26282 43.0556 8.07126C43.048 8.0136 43.0425 7.95345 43.0395 7.89174C43.0375 7.85013 43.0365 7.8075 43.0365 7.76389C43.0365 7.01272 43.3779 6.53487 43.6949 6.28111C44.0705 5.98326 44.6316 5.82228 45.139 5.82228H45.1977V3.99805H46.4267V5.82228H46.4854C46.6414 5.82228 46.8033 5.83784 46.9638 5.86794C47.045 5.88296 47.1257 5.90204 47.2055 5.92511C47.2757 5.94516 47.3444 5.96823 47.4116 5.99379C47.6031 6.0675 47.7806 6.16379 47.9291 6.28111C48.2465 6.53487 48.5875 7.01272 48.5875 7.76389C48.5875 8.0397 48.5443 8.27638 48.4752 8.47896C48.413 8.66048 48.3297 8.81443 48.2379 8.94331C48.1748 9.03155 48.1081 9.10774 48.0414 9.17345C47.901 9.31087 47.6543 9.50643 47.2682 9.62926C47.1654 9.66184 47.0525 9.68945 46.9297 9.7095C46.7933 9.73204 46.6438 9.74457 46.4804 9.74457H46.4317V11.5834H45.1927ZM45.2514 6.81267C44.9636 6.79813 44.6607 6.8954 44.4852 7.07589C44.3387 7.22233 44.2364 7.46653 44.2364 7.76892C44.2364 8.06628 44.3387 8.31496 44.4852 8.46643C44.6461 8.64691 44.939 8.76379 45.2514 8.75423V6.81267ZM46.3631 8.75926C46.6805 8.76877 46.9683 8.64691 47.1293 8.47145C47.207 8.39121 47.2722 8.2834 47.3163 8.1555C47.3554 8.04218 47.378 7.91331 47.378 7.7734C47.378 7.47609 47.2757 7.22735 47.1293 7.08092C46.9487 6.90043 46.6509 6.79814 46.3631 6.81765V8.75926ZM53.28 5.88096H52.0508V6.31018C51.6996 5.83233 51.1776 5.75409 50.8557 5.75409C50.3288 5.75409 49.8654 5.94414 49.5337 6.27609C49.1825 6.62711 48.9435 7.1737 48.9435 7.81253C48.9435 8.13248 49.0067 8.45038 49.1557 8.74872C49.241 8.91921 49.3542 9.08267 49.4996 9.23716C49.9191 9.68091 50.3776 9.81731 50.9244 9.81731C51.241 9.81731 51.7191 9.7396 52.0508 9.22711V9.68594H53.28V5.88096ZM50.2074 7.77843C50.2074 7.61999 50.2405 7.48711 50.2893 7.37726C50.3454 7.24989 50.422 7.15413 50.4898 7.08594C50.6508 6.92496 50.8996 6.81267 51.1586 6.81765C51.3825 6.81765 51.6557 6.90043 51.841 7.08092C52.0215 7.2514 52.1239 7.50516 52.1239 7.77843C52.1239 8.10535 51.9874 8.34457 51.8264 8.4955C51.6654 8.65648 51.4361 8.75877 51.1874 8.75877C50.8947 8.75877 50.6313 8.64194 50.4605 8.4614C50.4088 8.40272 50.3478 8.32101 50.2991 8.21418C50.2464 8.09935 50.2074 7.95496 50.2074 7.77843ZM55.2508 5.88096V8.05672L56.8703 5.88096H58.0122V9.68594H56.7825V7.47609L55.163 9.68594H54.0215V5.88096H55.2508ZM57.5635 4.34454C57.5156 4.48695 57.4459 4.61984 57.361 4.73717C57.302 4.81941 57.2352 4.89363 57.163 4.95831C57.1166 5.00043 57.0674 5.03804 57.0166 5.07114C56.9352 5.12529 56.8488 5.16741 56.7605 5.20051C56.6591 5.23812 56.5561 5.26319 56.4547 5.27974C56.2971 5.30531 56.1454 5.31032 56.0166 5.31032C55.7342 5.31032 55.3435 5.28575 55.0171 5.07114C54.7776 4.9197 54.5727 4.65143 54.4703 4.34454L55.3239 4.01259C55.3581 4.18308 55.441 4.31997 55.5435 4.40271C55.5996 4.44885 55.663 4.48645 55.7391 4.51253C55.8152 4.53911 55.9044 4.55415 56.0117 4.55415C56.2264 4.55415 56.3678 4.49548 56.48 4.40271C56.5322 4.36059 56.5796 4.30443 56.6181 4.23673C56.6547 4.17154 56.6835 4.09633 56.7 4.01259L57.5635 4.34454ZM59.2605 5.89048C59.0556 5.96872 58.7922 6.10511 58.6313 6.20789L59.1093 7.03228C59.2317 6.9295 59.3586 6.85174 59.5196 6.78355C59.6805 6.71487 59.8264 6.68077 60.022 6.68077C60.2264 6.68077 60.3483 6.72492 60.4069 6.74945C60.4952 6.78906 60.5439 6.84374 60.5688 6.89589C60.5864 6.9335 60.5927 6.9696 60.5927 6.99818C60.5927 7.0714 60.5586 7.18321 60.4122 7.2514C60.3722 7.26999 60.3196 7.2835 60.263 7.29355C60.1527 7.3136 60.0274 7.32013 59.9532 7.32013H59.602V8.15404H60.0605C60.1976 8.15404 60.402 8.17857 60.5049 8.22223C60.5527 8.24326 60.5932 8.26984 60.623 8.30345C60.663 8.34755 60.6854 8.40374 60.6854 8.47594C60.6854 8.5316 60.6742 8.60433 60.6235 8.67101C60.5981 8.70409 60.563 8.73618 60.5142 8.76379C60.3922 8.83199 60.2069 8.85652 60.0708 8.85652C59.941 8.85652 59.7995 8.83599 59.6722 8.8034C59.6025 8.78535 59.5376 8.76379 59.4805 8.7397C59.3288 8.67101 59.1483 8.54916 59.0117 8.43233L58.4898 9.24214C58.5381 9.28077 58.6171 9.34296 58.7225 9.41116C58.7717 9.44272 58.8259 9.47584 58.8849 9.50843C58.9713 9.55555 59.0683 9.6017 59.1727 9.64179C59.5147 9.76867 59.8703 9.81277 60.2117 9.81277C60.8464 9.81277 61.2903 9.72004 61.6117 9.40311C61.7386 9.27623 61.822 9.14087 61.8737 9.00394C61.9235 8.8716 61.9435 8.73721 61.9435 8.60784C61.9435 8.57423 61.9425 8.54111 61.9396 8.50906C61.9376 8.48848 61.9356 8.46794 61.9322 8.44784L61.9254 8.40575C61.8942 8.24731 61.8215 8.10687 61.6903 7.97853C61.6366 7.92487 61.4605 7.7734 61.1776 7.70521C61.2069 7.69467 61.2352 7.68165 61.2635 7.66711C61.2869 7.65506 61.3098 7.64155 61.3322 7.62701L61.361 7.60745C61.3815 7.5934 61.401 7.57838 61.42 7.56282C61.4478 7.54023 61.4747 7.5157 61.4996 7.49062C61.6854 7.29555 61.7288 7.08092 61.7288 6.84174C61.7288 6.76901 61.7235 6.69731 61.7103 6.6276C61.7035 6.5895 61.6937 6.55189 61.6815 6.51482C61.6396 6.38292 61.5654 6.25857 61.4459 6.14423C61.061 5.76862 60.3635 5.75409 60.1581 5.75409C59.8654 5.75409 59.5483 5.78818 59.2605 5.89048ZM66.3922 7.99809H63.5532C63.5532 8.06877 63.5625 8.14799 63.581 8.22823C63.6161 8.37965 63.6839 8.53511 63.783 8.64643C63.8313 8.70057 63.8854 8.74321 63.942 8.77579C63.982 8.79887 64.023 8.8174 64.0639 8.83199C64.1859 8.8756 64.3098 8.88565 64.4118 8.88565C64.4796 8.88565 64.5483 8.88062 64.6147 8.87057C64.7235 8.85355 64.8254 8.82194 64.9044 8.77331C64.9191 8.76379 65.0654 8.67101 65.1678 8.45638L66.3288 8.57374C66.1581 9.11028 65.8166 9.39306 65.5971 9.5295C65.2313 9.74911 64.8215 9.81228 64.3927 9.81228C63.8215 9.81228 63.3191 9.70999 62.8752 9.26623C62.5435 8.93428 62.3044 8.43179 62.3044 7.79799C62.3044 7.2514 62.4996 6.69082 62.8849 6.29565C63.1132 6.06701 63.3713 5.93062 63.6244 5.8514C63.8796 5.77116 64.1303 5.74911 64.3435 5.74911C64.7678 5.74911 65.3825 5.82731 65.8557 6.31974C66.3093 6.79813 66.3922 7.39282 66.3922 7.86618V7.99809ZM65.2605 7.26594C65.2508 7.23184 65.1922 6.99316 65.0117 6.82218C64.9615 6.77555 64.9035 6.73443 64.8376 6.70082C64.7952 6.67877 64.7493 6.66023 64.7005 6.6457C64.6191 6.62111 64.5293 6.60755 64.4313 6.60755C64.3254 6.60755 64.2347 6.6216 64.1557 6.64467C63.9981 6.69131 63.8878 6.77506 63.8069 6.85628C63.7142 6.95906 63.6264 7.09545 63.5922 7.26594H65.2605ZM68.1776 5.88096H66.9483V9.68594H68.1776V8.19311H69.5532V9.68594H70.7825V5.88096H69.5532V7.20277H68.1776V5.88096Z" fill="white"/>
</g>
<defs>
<clipPath id="clip0_2297_134002">
<rect width="70.7317" height="20" fill="white" transform="translate(0.333008 0.5)"/>
</clipPath>
</defs>
</svg>
