<svg width="92" height="20" viewBox="0 0 92 20" fill="none" xmlns="http://www.w3.org/2000/svg">
<g id="_____2">
<g id="_____1">
<g id="Group">
<g id="Group_2">
<g id="Group_3">
<path id="Vector" d="M12.8041 19.9976V17.2673H0.666992V19.9976H12.8041ZM34.6941 3.57443C32.9608 3.82926 31.7771 4.58922 31.143 5.85429C30.3567 7.33779 30.1707 8.78944 30.585 10.2092C31.3036 12.4936 32.6734 13.6723 34.6941 13.7451V17.2809H36.9389V13.7451C38.9512 13.6632 40.3167 12.4845 41.0353 10.2092C41.4496 8.78944 41.2636 7.33779 40.4773 5.85429C39.8432 4.58922 38.6637 3.82926 36.9389 3.57443V0.0659004H34.6941V3.57443ZM34.6941 5.94985V11.4243C33.8486 11.224 33.2568 10.5915 32.9186 9.52664C32.6903 8.73484 32.796 7.92938 33.2356 7.11026C33.5146 6.53689 34.0008 6.15008 34.6941 5.94985ZM36.9389 5.94985C37.6322 6.15008 38.1226 6.53689 38.4101 7.11026C38.8497 7.92938 38.9554 8.73484 38.7271 9.52664C38.3805 10.5915 37.7844 11.224 36.9389 11.4243V5.94985ZM24.6115 3.94303H22.3287V13.472H27.1353C28.3444 13.2991 29.1054 12.6438 29.4182 11.5062L29.4436 8.99422C29.1984 7.63814 28.4163 6.88728 27.0973 6.74166H24.6115V3.94303ZM24.5862 8.91231H26.5139C27.4609 9.63131 27.4609 10.3822 26.5139 11.1649H24.5862V8.91231ZM16.2157 6.08637H18.321V13.4857H20.718V3.79286H14.0343V10.3867C13.823 10.9692 13.4171 11.1831 12.8168 11.0283V13.4584L14.2626 13.2809C15.125 13.0534 15.6577 12.5437 15.8606 11.7519C16.0551 10.9601 16.1227 10.4914 16.0635 10.3458L16.2157 6.08637ZM7.88333 0.311633C7.19002 -0.0797201 6.46289 -0.102473 5.70194 0.243374C4.88181 1.41743 3.28381 5.77238 0.907959 13.3082H3.343L4.2815 10.8236H8.96134L9.79838 13.472H12.3349C11.2273 9.03973 9.74342 4.65293 7.88333 0.311633ZM6.61508 3.12392L8.17503 8.24337H4.97904L6.61508 3.12392ZM85.7411 3.97033H83.4836V13.3765H85.6904V9.5676L88.9751 13.3082H91.9809L87.9098 8.32528L91.575 3.98399H88.7088L85.7411 7.51982V3.97033ZM76.3814 3.97033H74.124V13.3765H76.3307V9.70412H79.6028V13.3765H81.8095V3.97033H79.5521V7.3833H79.514H76.4195L76.3814 3.97033ZM66.2101 7.47886C65.2124 7.88842 64.6924 8.58467 64.6501 9.5676C64.4049 11.6245 65.0306 12.8622 66.5271 13.2809C67.863 13.8725 69.0721 13.5949 70.1543 12.4481C70.8307 13.4038 71.7439 13.7087 72.8937 13.3628V11.3014L72.1708 10.728V6.16828C71.9764 4.99422 71.207 4.17966 69.8626 3.7246C68.9072 3.40606 67.9983 3.40606 67.1359 3.7246C65.7408 4.33438 64.9714 5.28091 64.8277 6.56419H67.1613C67.2289 6.16373 67.4318 5.94985 67.77 5.92255H69.2285C69.6766 6.17739 69.8584 6.59149 69.7739 7.16487C68.3788 7.02835 67.1909 7.13302 66.2101 7.47886ZM67.453 9.39012H69.9007V10.4277C69.6809 10.8463 69.4314 11.1239 69.1524 11.2604C68.5352 11.6336 67.9687 11.6336 67.453 11.2604C66.7681 10.5687 66.7681 9.9453 67.453 9.39012ZM57.0406 2.6461H62.9253V0.0659004H54.4154V13.3628H60.6932C62.2827 13.0352 63.217 12.1524 63.496 10.7144L63.4707 7.76555C63.2847 6.56419 62.4011 5.78603 60.82 5.43108C59.6448 5.25816 58.385 5.17625 57.0406 5.18535V2.6461ZM56.9265 7.61538L59.8942 7.60173C61.6613 8.74849 61.6613 9.85884 59.8942 10.9328H56.9265V7.61538ZM49.6468 6.16828C49.4523 4.99422 48.6829 4.17966 47.3385 3.7246C46.3831 3.40606 45.4742 3.40606 44.6118 3.7246C43.2167 4.33438 42.4473 5.28091 42.3036 6.56419H44.6372C44.7048 6.16373 44.9077 5.94985 45.2459 5.92255H46.7044C47.1525 6.17739 47.3343 6.59149 47.2498 7.16487C45.8547 7.02835 44.6668 7.13302 43.686 7.47886C42.6883 7.88842 42.1683 8.58467 42.126 9.5676C41.8808 11.6245 42.5065 12.8622 44.003 13.2809C45.3389 13.8725 46.548 13.5949 47.6302 12.4481C48.3066 13.4038 49.2198 13.7087 50.3697 13.3628V11.3014L49.6468 10.728V6.16828ZM47.3766 10.4277C47.1568 10.8463 46.9073 11.1239 46.6283 11.2604C46.0111 11.6336 45.4446 11.6336 44.9289 11.2604C44.244 10.5687 44.244 9.9453 44.9289 9.39012H47.3766V10.4277Z" fill="#F03024"/>
</g>
</g>
</g>
</g>
</g>
</svg>
