<svg width="46" height="20" viewBox="0 0 46 20" fill="none" xmlns="http://www.w3.org/2000/svg">
<path d="M1.9743 8.16284V8.13976C1.9743 8.13457 1.9743 8.12919 1.97276 8.12399V8.12265C1.95179 7.95916 1.81822 7.83319 1.65387 7.82145H1.61134C1.48105 7.81299 1.35634 7.87569 1.28552 7.98513C1.22008 7.87935 1.10288 7.81684 0.978557 7.82145C0.867319 7.81184 0.759739 7.86357 0.697769 7.95609V7.84665H0.69469V7.84376H0.495117V8.77677H0.699501V8.77389H0.702388V8.26401C0.691996 8.149 0.773018 8.04591 0.887142 8.0286H0.929674C1.06304 8.0286 1.13117 8.11649 1.13117 8.27536V8.79485H1.32651V8.78062H1.33498V8.26036C1.31939 8.14938 1.39675 8.04668 1.50799 8.0311C1.51377 8.03033 1.51973 8.02975 1.5257 8.02937H1.56534C1.70429 8.02937 1.76953 8.11726 1.76953 8.27613V8.79562H1.97373V8.17515C1.97373 8.17265 1.9745 8.1665 1.9745 8.16265L1.9743 8.16284Z" fill="white"/>
<path d="M3.82385 8.20633H3.72762C3.63967 8.19498 3.56865 8.17806 3.56865 8.11555C3.56865 8.09535 3.57616 8.07573 3.58944 8.06054C3.61908 8.03496 3.66834 8.01919 3.7332 8.01919C3.83289 8.0213 3.93066 8.04881 4.01687 8.09862L4.02438 8.08516L4.02823 8.08727L4.11907 7.92283C4.00417 7.85494 3.87215 7.82166 3.73878 7.82666C3.65949 7.82512 3.58097 7.8432 3.51034 7.87936C3.40218 7.92783 3.33867 8.01707 3.33867 8.13574C3.33867 8.32 3.45222 8.38251 3.6593 8.41924H3.75552C3.86618 8.43347 3.92007 8.46463 3.92007 8.51541C3.92007 8.54464 3.89582 8.57734 3.84944 8.60023C3.8071 8.61292 3.76303 8.61869 3.71877 8.61754C3.60791 8.62061 3.49899 8.58676 3.4095 8.52137L3.40122 8.53483L3.39814 8.53272L3.3125 8.67985C3.43047 8.76294 3.57231 8.80583 3.71684 8.80179C3.98627 8.80179 4.14255 8.67428 4.14255 8.49848C4.14312 8.46252 4.13658 8.42674 4.1233 8.39347C4.08269 8.28461 3.97377 8.23749 3.82404 8.20633H3.82385Z" fill="white"/>
<path d="M4.80602 8.60992C4.7098 8.60992 4.67265 8.5476 4.67265 8.45393V8.02849H5.01618V7.84424H4.66707V7.56055H4.46269V7.84405H4.27832V8.0283H4.46789V8.45663C4.46789 8.67493 4.55295 8.80302 4.7914 8.80302C4.88108 8.80379 4.96903 8.77917 5.04524 8.73205L4.98558 8.55895C4.93092 8.59088 4.86915 8.60857 4.80602 8.61011V8.60992Z" fill="white"/>
<path d="M7.67764 8.52256L7.66918 8.50833C7.59951 8.56334 7.51387 8.5943 7.42515 8.59623C7.26522 8.58911 7.14147 8.45371 7.14859 8.29407C7.15533 8.14424 7.27523 8.02442 7.42515 8.01769C7.51348 8.01884 7.59932 8.04866 7.66918 8.1027L7.77695 7.92114C7.68322 7.84421 7.55255 7.81074 7.43034 7.81055C7.17072 7.81055 6.94902 7.99384 6.93362 8.25311V8.32408C6.93074 8.58219 7.13743 8.79395 7.3957 8.79741H7.43823C7.55967 8.80241 7.67861 8.76298 7.77329 8.68682L7.67707 8.52237L7.67764 8.52276V8.52256Z" fill="white"/>
<path d="M9.53928 7.81836C9.44151 7.81779 9.35048 7.8676 9.29813 7.95011V7.84664H9.29525V7.84106H9.09375V8.77138H9.09664V8.77695H9.29813V8.25496C9.29813 8.10109 9.36607 8.01685 9.49367 8.01685C9.53639 8.01627 9.57892 8.02397 9.61876 8.03955H9.62126L9.684 7.84394C9.63762 7.82721 9.58854 7.81856 9.53928 7.81836Z" fill="white"/>
<path d="M2.90168 7.8391V7.94739C2.82971 7.86584 2.72674 7.81833 2.61801 7.81641C2.34915 7.83699 2.14785 8.07144 2.16844 8.34013C2.17903 8.48534 2.2512 8.61901 2.36667 8.70787C2.44018 8.76557 2.53044 8.79038 2.62917 8.79808C2.73367 8.79923 2.83317 8.75442 2.90149 8.67556V8.77538H3.11434V7.84776H3.10299L2.90149 7.83929L2.90168 7.8391ZM2.65823 8.59651H2.64688C2.49022 8.59651 2.3632 8.46957 2.3632 8.31301C2.36263 8.30455 2.36263 8.29589 2.3632 8.28743C2.37109 8.13106 2.50427 8.01047 2.66073 8.01836C2.8172 8.02624 2.93786 8.15934 2.92997 8.3157C2.9217 8.46649 2.80873 8.59651 2.65823 8.59651Z" fill="white"/>
<path d="M10.5117 7.46094V7.94889C10.4435 7.86176 10.3387 7.81137 10.228 7.81272C9.95915 7.83349 9.75804 8.06794 9.77882 8.33663C9.7973 8.57647 9.98802 8.76707 10.228 8.78554C10.3387 8.78708 10.4435 8.73688 10.5117 8.64994V8.76342H10.7074V7.46094H10.5117ZM10.5117 8.3174C10.5042 8.46819 10.3735 8.59532 10.2286 8.59532C10.0719 8.59532 9.94491 8.46838 9.94491 8.31182C9.94433 8.30432 9.94433 8.29663 9.94491 8.28912C9.95164 8.13257 10.084 8.0114 10.2407 8.01813C10.3874 8.02447 10.5049 8.14161 10.5119 8.28816C10.5124 8.29816 10.5124 8.30797 10.5119 8.31797V8.3174H10.5117Z" fill="white"/>
<path d="M8.62828 7.94879C8.56112 7.86032 8.45546 7.80973 8.34461 7.81262C8.08846 7.82396 7.89427 8.04534 7.8937 8.29768C7.89331 8.31441 7.8937 8.33115 7.89504 8.34769C7.91429 8.58772 8.10385 8.7864 8.34461 8.79698C8.45566 8.79986 8.56131 8.74909 8.62828 8.66081V8.77428H8.82978V7.8355H8.62828V7.94898V7.94879ZM8.64176 8.31768C8.63791 8.47155 8.51262 8.59445 8.35885 8.59561C8.2022 8.59561 8.07518 8.45559 8.07518 8.28941C8.07518 8.13285 8.21605 8.02014 8.37271 8.02014C8.52359 8.02034 8.64176 8.16113 8.64176 8.31768Z" fill="white"/>
<path d="M5.69365 7.82411C5.67786 7.82257 5.66189 7.8218 5.64592 7.8218C5.62917 7.82045 5.61262 7.82007 5.59588 7.82045C5.32645 7.82084 5.10821 8.03952 5.1084 8.30879C5.10878 8.56382 5.30566 8.77558 5.56008 8.79462C5.57432 8.79578 5.58857 8.79616 5.603 8.79597C5.61743 8.79578 5.63168 8.79597 5.64592 8.79462H5.67421C5.8045 8.79443 5.93094 8.74942 6.03198 8.6671L5.93575 8.51689L5.92805 8.52266L5.92439 8.51689C5.84395 8.58094 5.74349 8.61498 5.64072 8.61306C5.63341 8.61306 5.62609 8.61421 5.61897 8.61441C5.49042 8.61133 5.3836 8.51401 5.36879 8.3863H6.06181L6.0901 8.30936C6.11473 8.06626 5.93767 7.84911 5.69441 7.82449C5.69422 7.82449 5.69403 7.82449 5.69384 7.82449L5.69365 7.82411ZM5.39342 8.2282C5.39939 8.10068 5.50504 8.00048 5.63283 8.00144C5.75792 8.00086 5.86069 8.1003 5.86377 8.22532V8.2282H5.39323H5.39342Z" fill="white"/>
<path d="M6.47759 7.9459V7.84685H6.47201V7.84127H6.27051V8.77159H6.27609V8.77717H6.47759V8.25498C6.47759 8.10208 6.54552 8.01707 6.67292 8.01687C6.71488 8.01668 6.75645 8.02438 6.79552 8.03957V8.03765L6.80052 8.03957L6.86287 7.84397C6.81649 7.82723 6.76742 7.81858 6.71815 7.81839C6.62135 7.81704 6.5307 7.86512 6.47759 7.9459Z" fill="white"/>
<path d="M7.11861 0.75H4.04785V6.26362H7.11861V0.75Z" fill="#E7621D"/>
<path d="M5.58419 6.26256C4.06073 7.45868 1.85543 7.19384 0.65876 5.67133C-0.538099 4.14882 -0.273285 1.94487 1.25017 0.748946C2.52208 -0.249649 4.31227 -0.249649 5.58399 0.748946C4.06054 1.94507 3.79554 4.14882 4.99239 5.67133C5.16522 5.89136 5.36383 6.08985 5.58399 6.26256H5.58419Z" fill="#E11622"/>
<path d="M11.2594 3.5069C11.2594 5.44312 9.68918 7.01275 7.75176 7.01295C6.9656 7.01295 6.20214 6.74906 5.58398 6.26361C7.10743 5.06749 7.37244 2.86374 6.17558 1.34123C6.00276 1.1212 5.80415 0.922711 5.58398 0.749996C7.10686 -0.446702 9.31236 -0.183013 10.5098 1.33892C10.9961 1.95708 11.2604 2.72064 11.2602 3.5069H11.2594Z" fill="#F49B21"/>
<path d="M10.8535 5.54297V5.56566H10.9045V5.67914H10.9238V5.56566H10.9748V5.54297H10.8535ZM11.1145 5.54297L11.0748 5.63914L11.0352 5.54297H11.004V5.67914H11.0296V5.57701L11.0666 5.66491H11.0922L11.1291 5.57701V5.67914H11.1484V5.54297H11.1145Z" fill="#F49B21"/>
<path d="M13.6523 0.00143274H16.6872C16.963 0.00143274 17.7907 -0.0902623 18.1586 1.19347C18.4345 2.01872 18.8023 3.30246 19.3541 5.22805H19.538C20.0898 3.21076 20.5496 1.83533 20.7336 1.19347C21.1014 -0.0902623 22.0211 0.00143274 22.3889 0.00143274H25.2398V8.80416H22.297V3.57754H22.113L20.5496 8.80416H18.3425L16.7791 3.57754H16.5032V8.80416H13.6523M26.4353 0.00143274H29.3782V5.22805H29.6541L31.5853 0.918383C31.9532 0.0931278 32.7808 0.00143274 32.7808 0.00143274H35.5398V8.80416H32.5969V3.57754H32.413L30.4818 7.88721C30.1139 8.71246 29.1943 8.80416 29.1943 8.80416H26.4353M39.4942 6.145V8.80416H36.7353V4.21941H45.7478C45.3799 5.31975 44.0924 6.145 42.621 6.145" fill="#0F754E"/>
<path d="M45.9311 3.6678C46.299 2.01729 45.1954 0 42.8043 0H36.5508C36.7347 1.9256 38.3901 3.6678 40.1374 3.6678" fill="url(#paint0_linear_2297_154081)"/>
<path d="M11.5683 19.9598H9.37402L10.7453 11.4551H12.9404L11.5683 19.9598Z" fill="#188BEB"/>
<path d="M7.52699 11.4574L5.435 17.3069L5.18748 16.0476L4.44738 12.2216C4.44738 12.2216 4.35992 11.457 3.40737 11.457H-0.0505429L-0.0917969 11.601C-0.0917969 11.601 0.965956 11.8224 2.2044 12.5732L4.11075 19.9614H6.39746L9.88961 11.4574H7.52699Z" fill="#188BEB"/>
<path d="M24.7918 19.9601H26.8066L25.0492 11.457H23.2852C22.47 11.457 22.2716 12.0905 22.2716 12.0905L18.998 19.9601H21.2843L21.7419 18.697H24.5319L24.7918 19.9601ZM22.3759 16.9523L23.529 13.7689L24.1775 16.9523H22.3759Z" fill="#188BEB"/>
<path d="M19.1696 13.5017L19.4828 11.6755C19.4828 11.6755 18.5158 11.3047 17.5092 11.3047C16.4197 11.3047 13.833 11.785 13.833 14.1202C13.833 16.3176 16.8689 16.3451 16.8689 17.4979C16.8689 18.6508 14.1453 18.4456 13.2468 17.7177L12.9209 19.6267C12.9209 19.6267 13.9007 20.1074 15.397 20.1074C16.8932 20.1074 19.1548 19.3246 19.1548 17.1962C19.1548 15.0678 16.0917 14.7786 16.0917 13.8176C16.0917 12.8566 18.2307 12.979 19.1696 13.5013V13.5017Z" fill="#188BEB"/>
<path d="M5.18626 16.0367L4.44946 12.2211C4.44946 12.2211 4.36076 11.457 3.4111 11.457H-0.0398007L-0.0810547 11.601C-0.0810547 11.601 1.57901 11.9477 3.16811 13.2475C4.6908 14.4889 5.18584 16.0367 5.18584 16.0367H5.18626Z" fill="#F6A335"/>
<defs>
<linearGradient id="paint0_linear_2297_154081" x1="44.8275" y1="-1.19204" x2="37.4704" y2="-1.19204" gradientUnits="userSpaceOnUse">
<stop stop-color="#1F5CD7"/>
<stop offset="1" stop-color="#02AEFF"/>
</linearGradient>
</defs>
</svg>
