<svg width="46" height="20" viewBox="0 0 46 20" fill="none" xmlns="http://www.w3.org/2000/svg">
<g clip-path="url(#clip0_2365_171959)">
<path d="M38.1565 15.379C37.4498 18.2145 34.5779 19.946 31.7373 19.2388C28.9018 18.53 27.1731 15.6581 27.8798 12.8226C28.5865 9.98712 31.4567 8.25567 34.2904 8.96281C37.1328 9.66128 38.8615 12.5418 38.1565 15.379Z" fill="#FF060A"/>
<path d="M36.1741 13.3811C35.8638 13.0946 35.4345 12.657 35.0849 12.3467L35.0642 12.3322C35.0298 12.3046 34.991 12.2829 34.9494 12.2681C34.1063 12.1109 30.1829 11.3775 30.1064 11.3868C30.0849 11.3898 30.0644 11.3976 30.0464 11.4096L30.0267 11.4251C30.0025 11.4497 29.9842 11.4793 29.9729 11.512L29.9678 11.5254V11.5989V11.6102C30.4095 12.8401 32.1534 16.8691 32.4968 17.8145C32.5175 17.8786 32.5568 18.0007 32.6303 18.0069H32.6468C32.6861 18.0069 32.8537 17.7855 32.8537 17.7855C32.8537 17.7855 35.8493 14.1528 36.1524 13.7659C36.1916 13.7182 36.2262 13.667 36.2558 13.6128C36.2633 13.5704 36.2598 13.5268 36.2455 13.4862C36.2311 13.4456 36.2066 13.4094 36.1741 13.3811ZM33.6223 13.8042L34.9008 12.7439L35.6507 13.4349L33.6223 13.8042ZM33.1258 13.7349L30.9246 11.9309L34.486 12.5877L33.1258 13.7349ZM33.3244 14.2076L35.5772 13.8445L33.0016 16.9477L33.3244 14.2076ZM30.6256 12.1109L32.9416 14.0762L32.6065 16.9497L30.6256 12.1109Z" fill="white"/>
</g>
<path d="M35.8252 13.1978C35.8252 10.4285 38.0701 8.18359 40.8394 8.18359H42.139C44.9082 8.18359 47.1532 10.4285 47.1532 13.1978V14.4974C47.1532 17.2666 44.9082 19.5116 42.139 19.5116H40.8394C38.0701 19.5116 35.8252 17.2666 35.8252 14.4974V13.1978Z" fill="url(#paint0_linear_2365_171959)"/>
<path d="M36.0759 13.1978C36.0759 10.567 38.2086 8.4343 40.8394 8.4343H42.139C44.7698 8.4343 46.9024 10.567 46.9024 13.1978V14.4974C46.9024 17.1282 44.7698 19.2608 42.139 19.2608H40.8394C38.2086 19.2608 36.0759 17.1282 36.0759 14.4974V13.1978Z" stroke="white" stroke-opacity="0.25" stroke-width="0.501419"/>
<path d="M39.8071 14.8738V14.2666H39.1999V13.8981H39.8071V13.2943H40.1756V13.8981H40.7793V14.2666H40.1756V14.8738H39.8071ZM41.9878 15.4003C41.8603 15.4003 41.7404 15.374 41.6281 15.3213C41.5169 15.2687 41.421 15.1956 41.3403 15.102C41.2595 15.0084 41.2016 14.8996 41.1665 14.7755L41.6263 14.6527C41.6415 14.7124 41.6684 14.7638 41.707 14.8071C41.7468 14.8504 41.7924 14.8843 41.8439 14.9089C41.8966 14.9323 41.9504 14.944 42.0054 14.944C42.0779 14.944 42.144 14.9265 42.2037 14.8914C42.2645 14.8563 42.3125 14.8089 42.3476 14.7492C42.3839 14.6895 42.402 14.6234 42.402 14.5509C42.402 14.4784 42.3839 14.4123 42.3476 14.3526C42.3125 14.2929 42.2645 14.2455 42.2037 14.2104C42.144 14.1753 42.0779 14.1578 42.0054 14.1578C41.9165 14.1578 41.8439 14.173 41.7878 14.2034C41.7316 14.2327 41.6895 14.2607 41.6614 14.2877L41.2578 14.1648L41.335 12.8205H42.7144V13.2663H41.5982L41.7667 13.1083L41.7141 13.9753L41.6333 13.877C41.6965 13.8255 41.7685 13.7881 41.8492 13.7647C41.9299 13.7413 42.0054 13.7296 42.0756 13.7296C42.2347 13.7296 42.3745 13.7653 42.495 13.8366C42.6167 13.9068 42.7115 14.0039 42.7793 14.128C42.8484 14.2508 42.8829 14.3918 42.8829 14.5509C42.8829 14.71 42.8413 14.8539 42.7583 14.9826C42.6752 15.1102 42.5658 15.2119 42.4301 15.288C42.2944 15.3629 42.147 15.4003 41.9878 15.4003Z" fill="white"/>
<g clip-path="url(#clip1_2365_171959)">
<path d="M29.387 15.379C28.6803 18.2145 25.8084 19.946 22.9677 19.2388C20.1322 18.53 18.4036 15.6581 19.1103 12.8226C19.817 9.98712 22.6871 8.25567 25.5209 8.96281C28.3633 9.66128 30.092 12.5418 29.387 15.379Z" fill="url(#paint1_linear_2365_171959)"/>
<path fill-rule="evenodd" clip-rule="evenodd" d="M21.3513 10.6282C22.099 11.5448 22.9199 12.6963 23.0527 12.8826C23.0598 12.8925 23.0649 12.8997 23.0679 12.9039C23.1387 13.0028 23.1971 13.0762 23.2415 13.132C23.34 13.2558 23.3693 13.2926 23.3105 13.3263C23.2631 13.3536 23.2142 13.3625 23.1654 13.3625C23.1102 13.3625 23.048 13.3357 23.0027 13.2923C22.9707 13.2616 22.7516 12.9403 22.4534 12.4729C22.2252 12.1153 22.0343 11.8186 22.029 11.8136C22.017 11.8021 22.0172 11.8025 22.4301 12.5488C22.6894 13.0175 22.8668 13.3638 22.8668 13.3859C22.8668 13.431 22.8546 13.4547 22.7996 13.5167C22.7078 13.6201 22.6668 13.7363 22.6372 13.9767C22.604 14.2462 22.5107 14.4366 22.252 14.7624C22.1006 14.9532 22.0758 14.9881 22.0376 15.065C21.9895 15.1618 21.9763 15.216 21.9709 15.3383C21.9652 15.4676 21.9763 15.5511 22.0154 15.6746C22.0496 15.7828 22.0853 15.8543 22.1767 15.9972C22.2555 16.1205 22.3009 16.2121 22.3009 16.2479C22.3009 16.2765 22.3062 16.2765 22.4284 16.2487C22.7207 16.182 22.958 16.0647 23.0915 15.921C23.1741 15.8321 23.1935 15.783 23.1941 15.6611C23.1945 15.5814 23.1918 15.5647 23.1704 15.5188C23.1357 15.4441 23.0725 15.3821 22.9331 15.2859C22.7505 15.1598 22.6726 15.0583 22.651 14.9187C22.6333 14.8042 22.6538 14.7234 22.7549 14.5096C22.8594 14.2882 22.8853 14.1939 22.9028 13.9708C22.9142 13.8267 22.9298 13.7698 22.9708 13.7242C23.0136 13.6766 23.0521 13.6605 23.1579 13.6459C23.3304 13.6221 23.4403 13.577 23.5306 13.493C23.6089 13.42 23.6417 13.3498 23.6467 13.244L23.6505 13.1639L23.6068 13.1123C23.4482 12.9256 21.2452 10.4814 21.2354 10.4814C21.2333 10.4814 21.2855 10.5475 21.3513 10.6282ZM22.3898 15.4846C22.4257 15.4204 22.4066 15.338 22.3467 15.2977C22.29 15.2597 22.202 15.2776 22.202 15.3272C22.202 15.3423 22.2103 15.3533 22.229 15.3631C22.2604 15.3794 22.2627 15.3978 22.238 15.4353C22.2129 15.4733 22.215 15.5068 22.2437 15.5295C22.29 15.5661 22.3555 15.5459 22.3898 15.4846ZM23.4687 11.9881C23.398 11.9771 23.395 11.9758 23.4283 11.9706C23.492 11.9607 23.6426 11.9742 23.7464 11.9991C23.9887 12.0573 24.2092 12.2063 24.4445 12.471L24.507 12.5413L24.5965 12.5268C24.9733 12.4656 25.3566 12.5142 25.6772 12.6638C25.7654 12.705 25.9044 12.7869 25.9218 12.8079C25.9273 12.8147 25.9375 12.8578 25.9444 12.9039C25.9682 13.0634 25.9563 13.1856 25.908 13.2769C25.8817 13.3266 25.8803 13.3423 25.8979 13.3848C25.912 13.4187 25.9513 13.4438 25.9903 13.4438C26.0699 13.4437 26.1557 13.3136 26.1954 13.1326L26.2112 13.0607L26.2425 13.0964C26.414 13.2927 26.5487 13.5604 26.5718 13.7509L26.5778 13.8006L26.549 13.7554C26.4994 13.6777 26.4496 13.6248 26.3857 13.5821C26.2707 13.5052 26.149 13.4791 25.8268 13.4619C25.5358 13.4464 25.3711 13.4213 25.2078 13.3675C24.9299 13.276 24.7898 13.1541 24.4597 12.7167C24.3131 12.5224 24.2225 12.4149 24.1324 12.3284C23.9276 12.1317 23.7263 12.0285 23.4687 11.9881ZM25.9874 12.4219C25.9948 12.2918 26.0123 12.2059 26.0474 12.1275C26.0613 12.0964 26.0743 12.071 26.0763 12.071C26.0784 12.071 26.0723 12.0939 26.0629 12.1219C26.0374 12.198 26.0332 12.3021 26.0508 12.4232C26.0731 12.5769 26.0858 12.5991 26.2466 12.7651C26.322 12.843 26.4098 12.9412 26.4416 12.9833L26.4994 13.06L26.4416 13.0052C26.3708 12.9382 26.2082 12.8075 26.1723 12.7889C26.1482 12.7763 26.1446 12.7765 26.1298 12.7915C26.1161 12.8052 26.1132 12.8259 26.1113 12.9237C26.1083 13.0761 26.0878 13.1739 26.0381 13.2717C26.0113 13.3246 26.0071 13.3133 26.0313 13.2536C26.0495 13.209 26.0513 13.1894 26.0512 13.0419C26.0509 12.7455 26.0161 12.6742 25.8118 12.5522C25.76 12.5212 25.6747 12.4767 25.6222 12.4531C25.5698 12.4295 25.5281 12.4089 25.5296 12.4074C25.5354 12.4016 25.7347 12.4603 25.8149 12.4915C25.9342 12.5378 25.9538 12.5438 25.9683 12.5382C25.978 12.5345 25.9827 12.5059 25.9874 12.4219ZM23.3929 12.1944C23.3736 12.4232 23.4625 12.7294 23.6061 12.929C23.7174 13.0838 23.8899 13.2041 24.0173 13.2157C24.1007 13.2233 24.1257 13.1969 24.088 13.1413C24.0356 13.064 23.9712 12.945 23.9541 12.8941C23.9436 12.8624 23.9205 12.7689 23.903 12.6863C23.8431 12.4043 23.7842 12.2945 23.6483 12.2111C23.5987 12.1807 23.4929 12.1409 23.4315 12.1296L23.3988 12.1236L23.3929 12.1944ZM25.8133 14.415C25.1423 14.1421 24.906 13.9053 24.906 13.5056C24.906 13.4468 24.908 13.3987 24.9104 13.3987C24.9129 13.3987 24.9388 13.4181 24.9681 13.4418C25.1042 13.552 25.2566 13.5991 25.6784 13.6613C25.9266 13.6979 26.0662 13.7274 26.1951 13.7706C26.6046 13.9078 26.858 14.1861 26.9184 14.5654C26.936 14.6756 26.9257 14.8822 26.8972 14.9911C26.8748 15.0771 26.8062 15.2321 26.788 15.2381C26.7829 15.2397 26.778 15.2202 26.7767 15.1937C26.7698 15.0513 26.6986 14.9126 26.5789 14.8088C26.4429 14.6907 26.2601 14.5967 25.8133 14.415ZM25.3098 14.385C25.3193 14.4133 25.3338 14.4778 25.3422 14.5284C25.396 14.8514 25.2281 15.1125 24.9015 15.2136C24.8669 15.2243 24.7307 15.2512 24.5988 15.2734C24.3319 15.3183 24.2127 15.3501 24.093 15.4084C24.0081 15.4497 23.9053 15.5115 23.9115 15.5177C23.9134 15.5197 23.9328 15.515 23.9545 15.5073C24.1055 15.4538 24.2735 15.426 24.5287 15.4126C24.63 15.4073 24.7452 15.3988 24.7847 15.3938C25.0121 15.3649 25.1697 15.2951 25.2923 15.1691C25.3605 15.099 25.4011 15.0337 25.4339 14.9416C25.4547 14.8831 25.4575 14.8614 25.4576 14.7579C25.4578 14.6525 25.4553 14.6332 25.4328 14.5683C25.4033 14.4832 25.3685 14.4194 25.3245 14.3695L25.2927 14.3334L25.3098 14.385ZM25.6498 15.0801C25.5607 14.8865 25.5402 14.6997 25.589 14.5254C25.5943 14.5067 25.6027 14.4915 25.6078 14.4915C25.6128 14.4915 25.6338 14.503 25.6545 14.517C25.6955 14.545 25.778 14.592 25.9975 14.7129C26.2714 14.8637 26.4276 14.9805 26.5338 15.114C26.6268 15.2309 26.6843 15.364 26.712 15.5263C26.7277 15.6182 26.7185 15.8395 26.6952 15.932C26.6215 16.224 26.4504 16.4533 26.2062 16.5871C26.1705 16.6067 26.1383 16.6227 26.1349 16.6228C26.1314 16.6229 26.1444 16.5894 26.1638 16.5484C26.2459 16.375 26.2553 16.2063 26.1932 16.0186C26.1552 15.9037 26.0777 15.7634 25.9212 15.5263C25.7392 15.2507 25.6946 15.1773 25.6498 15.0801ZM23.9706 15.7151C23.6884 15.7614 23.3786 15.9122 23.1296 16.1246L23.0554 16.1878L23.1206 16.1981C23.4605 16.2517 23.5521 16.2992 23.7879 16.5446C23.9236 16.6858 23.9694 16.7172 24.082 16.7462C24.2473 16.7889 24.4103 16.7105 24.4662 16.5616C24.4912 16.495 24.4878 16.3848 24.4592 16.3294C24.391 16.1976 24.1925 16.1551 24.0964 16.2516C24.0165 16.332 24.0398 16.4531 24.1392 16.474C24.162 16.4788 24.1614 16.4777 24.1334 16.465C24.0899 16.4451 24.071 16.4175 24.0708 16.3737C24.0702 16.2708 24.1867 16.2131 24.2951 16.2624C24.3745 16.2986 24.406 16.3459 24.406 16.4288C24.406 16.5564 24.2985 16.6525 24.1734 16.6368C24.1065 16.6284 24.0247 16.5852 23.9808 16.5351C23.8704 16.4091 23.9134 16.2102 24.0675 16.1338C24.1849 16.0757 24.3408 16.0901 24.4617 16.17C24.6006 16.2619 24.6597 16.3459 24.7794 16.6216C24.8184 16.7114 24.8685 16.8124 24.8908 16.8462C25.0042 17.0176 25.14 17.1016 25.3036 17.1016C25.3938 17.1016 25.4617 17.085 25.5471 17.0419C25.6105 17.0099 25.7005 16.9491 25.694 16.9425C25.6922 16.9407 25.6658 16.949 25.6355 16.9609C25.4569 17.0313 25.2753 17.0264 25.1698 16.9485C25.1034 16.8994 25.0499 16.8016 25.0223 16.6793C25.0176 16.6582 25.0019 16.5647 24.9874 16.4716C24.9507 16.2356 24.9155 16.1296 24.8334 16.0078C24.7494 15.8833 24.588 15.7788 24.4074 15.7321C24.2948 15.703 24.0922 15.6951 23.9706 15.7151ZM23.5753 13.8907C23.5997 13.7998 23.6784 13.7131 23.7594 13.6879C23.8109 13.672 23.9174 13.6822 23.9674 13.7079C24.0644 13.7577 24.1348 13.8711 24.1196 13.9531C24.1009 14.0529 23.9406 14.1328 23.7561 14.1341C23.6619 14.1348 23.6271 14.122 23.5912 14.0735C23.5689 14.0434 23.5605 13.9462 23.5753 13.8907ZM23.9427 13.7435C23.991 13.7733 24.0035 13.8174 23.975 13.8582C23.9554 13.8864 23.8948 13.9131 23.8505 13.9131C23.7839 13.9131 23.7112 13.8653 23.7112 13.8216C23.7112 13.7337 23.8505 13.6866 23.9427 13.7435Z" fill="#FF007A"/>
</g>
<g clip-path="url(#clip2_2365_171959)">
<path d="M38.1565 7.23842C37.4498 10.0739 34.5779 11.8054 31.7373 11.0982C28.9018 10.3893 27.1731 7.51746 27.8798 4.68198C28.5865 1.84649 31.4567 0.115047 34.2904 0.822185C37.1328 1.52066 38.8615 4.4012 38.1565 7.23842Z" fill="#0088CC"/>
<path fill-rule="evenodd" clip-rule="evenodd" d="M30.957 3.32617H35.2002C35.3421 3.32617 35.4825 3.32617 35.6717 3.42078C35.8609 3.51539 35.9539 3.6573 36.0485 3.75033C36.0485 3.75033 36.0485 3.75033 36.0485 3.79764C36.1431 3.93955 36.1905 4.07989 36.1905 4.2691C36.1905 4.41101 36.1431 4.59865 36.0485 4.74057L33.3617 9.31488C33.3144 9.40949 33.1724 9.4568 33.0794 9.4568C32.9848 9.4568 32.8445 9.40949 32.7972 9.31488L30.156 4.74057C30.1087 4.64596 30.0141 4.50562 29.9668 4.2691C29.9668 4.07989 30.0141 3.89225 30.0614 3.75033C30.156 3.60842 30.2963 3.46808 30.4383 3.37348C30.6748 3.32617 30.8624 3.32617 30.957 3.32617ZM32.7483 3.98685H30.957C30.8624 3.98685 30.8151 3.98685 30.7678 3.98685C30.7205 3.98685 30.6732 4.03416 30.6732 4.08146C30.6259 4.12877 30.6259 4.17607 30.6259 4.22337C30.6259 4.27068 30.6259 4.27068 30.7205 4.41259L32.7483 7.94937V3.98685ZM33.409 3.98685V7.94779L35.484 4.41101C35.484 4.36371 35.5313 4.31641 35.5313 4.2218C35.5313 4.17449 35.5313 4.12719 35.484 4.07989C35.4367 4.03258 35.4367 4.03258 35.4367 4.03258C35.4367 4.03258 35.4367 4.03258 35.3894 4.03258C35.3421 4.03258 35.2948 3.98528 35.2002 3.98528H33.409V3.98685Z" fill="white"/>
</g>
<g clip-path="url(#clip3_2365_171959)">
<path d="M11.8479 15.379C11.1412 18.2145 8.26935 19.946 5.42866 19.2388C2.59317 18.53 0.864504 15.6581 1.57121 12.8226C2.27792 9.98712 5.14806 8.25567 7.98182 8.96281C10.8242 9.66128 12.5529 12.5418 11.8479 15.379Z" fill="#0033AD"/>
<path d="M6.74908 11.4085C6.7853 11.4105 6.82132 11.4018 6.85258 11.3834C6.88384 11.365 6.90893 11.3377 6.92469 11.3051C6.94045 11.2724 6.94617 11.2358 6.94111 11.1998C6.93606 11.1639 6.92047 11.1303 6.8963 11.1032C6.87214 11.0762 6.84049 11.0569 6.80537 11.0478C6.77024 11.0387 6.73322 11.0403 6.69897 11.0523C6.66473 11.0642 6.6348 11.0861 6.61299 11.1151C6.59117 11.1441 6.57844 11.1789 6.5764 11.2151C6.57368 11.2636 6.59034 11.3113 6.62271 11.3475C6.65509 11.3838 6.70055 11.4057 6.74908 11.4085Z" fill="white"/>
<path d="M8.3443 11.4993C8.31578 11.4995 8.28782 11.4913 8.26396 11.4757C8.23201 11.4547 8.20967 11.422 8.20187 11.3846C8.19406 11.3472 8.20141 11.3082 8.22232 11.2762C8.23792 11.2523 8.26026 11.2336 8.2865 11.2224C8.31275 11.2113 8.34171 11.2081 8.36974 11.2134C8.39777 11.2187 8.4236 11.2322 8.44397 11.2522C8.46433 11.2721 8.47831 11.2977 8.48414 11.3256C8.48997 11.3535 8.48739 11.3826 8.47672 11.409C8.46605 11.4355 8.44777 11.4582 8.4242 11.4742C8.40063 11.4903 8.37282 11.499 8.3443 11.4993Z" fill="white"/>
<path d="M5.24181 11.4908C5.26712 11.4778 5.28802 11.4576 5.30187 11.4328C5.31573 11.4079 5.32193 11.3795 5.31968 11.3512C5.31744 11.3228 5.30685 11.2958 5.28926 11.2734C5.27167 11.251 5.24786 11.2344 5.22082 11.2255C5.19379 11.2167 5.16474 11.216 5.13733 11.2236C5.10992 11.2313 5.08538 11.2468 5.06679 11.2684C5.0482 11.2899 5.0364 11.3165 5.03288 11.3447C5.02935 11.3729 5.03426 11.4016 5.04697 11.427C5.05552 11.444 5.06736 11.4592 5.0818 11.4716C5.09624 11.4841 5.11299 11.4935 5.13111 11.4995C5.14922 11.5054 5.16833 11.5077 5.18733 11.5062C5.20633 11.5047 5.22484 11.4995 5.24181 11.4908Z" fill="white"/>
<path d="M5.38241 14.4002C5.30367 14.3118 5.26326 14.1957 5.27005 14.0775L5.26883 14.0778C5.27382 13.9909 5.30415 13.9074 5.35607 13.8375C5.40799 13.7676 5.47923 13.7145 5.561 13.6847C5.64277 13.6548 5.73148 13.6496 5.81619 13.6696C5.9009 13.6896 5.97791 13.7339 6.0377 13.7972C6.09749 13.8605 6.13745 13.9398 6.15264 14.0255C6.16784 14.1112 6.15761 14.1995 6.12322 14.2795C6.08883 14.3594 6.03177 14.4276 5.9591 14.4755C5.88643 14.5234 5.80132 14.549 5.71428 14.5491H5.68993C5.57174 14.5422 5.46114 14.4886 5.38241 14.4002Z" fill="white"/>
<path d="M3.52686 13.9843C3.55137 13.9698 3.57962 13.963 3.60804 13.9646C3.62694 13.9656 3.64545 13.9703 3.66251 13.9785C3.67957 13.9867 3.69484 13.9982 3.70745 14.0123C3.72006 14.0265 3.72975 14.0429 3.73597 14.0608C3.74219 14.0787 3.74481 14.0976 3.74369 14.1165C3.74206 14.1449 3.73204 14.1722 3.7149 14.1949C3.69776 14.2177 3.67427 14.2348 3.6474 14.2442C3.62053 14.2535 3.59149 14.2547 3.56393 14.2476C3.53638 14.2405 3.51156 14.2253 3.49261 14.2041C3.47366 14.1829 3.46143 14.1565 3.45746 14.1283C3.45349 14.1002 3.45797 14.0714 3.47032 14.0458C3.48267 14.0201 3.50235 13.9987 3.52686 13.9843Z" fill="white"/>
<path d="M5.78756 12.1903C5.76589 12.2286 5.73335 12.2596 5.69405 12.2794C5.66793 12.2926 5.63948 12.3005 5.61031 12.3027C5.58115 12.3048 5.55184 12.3012 5.52407 12.2921C5.49629 12.2829 5.47059 12.2684 5.44844 12.2493C5.42629 12.2302 5.40812 12.2069 5.39497 12.1808C5.37517 12.1415 5.36747 12.0972 5.37285 12.0535C5.37823 12.0098 5.39644 11.9687 5.42518 11.9353C5.45393 11.902 5.49191 11.8779 5.53433 11.8662C5.57675 11.8544 5.62171 11.8555 5.66351 11.8693C5.70532 11.8831 5.74209 11.9089 5.7692 11.9436C5.7963 11.9783 5.81251 12.0203 5.81578 12.0642C5.81905 12.1081 5.80923 12.1519 5.78756 12.1903Z" fill="white"/>
<path d="M4.17211 12.8218C4.20243 12.8417 4.23798 12.8522 4.27426 12.852C4.31054 12.8517 4.34593 12.8407 4.37594 12.8203C4.40595 12.7999 4.42924 12.7711 4.44286 12.7374C4.45648 12.7038 4.45982 12.6669 4.45246 12.6314C4.44509 12.5958 4.42735 12.5633 4.40149 12.5378C4.37562 12.5124 4.34279 12.4952 4.30715 12.4884C4.2715 12.4816 4.23465 12.4856 4.20125 12.4998C4.16785 12.5139 4.1394 12.5377 4.11951 12.568C4.09286 12.6087 4.08344 12.6582 4.0933 12.7058C4.10317 12.7534 4.13151 12.7951 4.17211 12.8218Z" fill="white"/>
<path d="M4.31755 13.9139C4.35547 13.8916 4.39917 13.881 4.44311 13.8834C4.50208 13.8868 4.55728 13.9135 4.5966 13.9576C4.63592 14.0016 4.65614 14.0595 4.65281 14.1185C4.65029 14.1624 4.63479 14.2046 4.60828 14.2398C4.58177 14.2749 4.54544 14.3014 4.50387 14.3159C4.46231 14.3304 4.41738 14.3322 4.37477 14.3212C4.33216 14.3102 4.29378 14.2867 4.26447 14.2539C4.23517 14.221 4.21626 14.1802 4.21013 14.1367C4.20401 14.0931 4.21094 14.0486 4.23006 14.009C4.24918 13.9693 4.27963 13.9363 4.31755 13.9139Z" fill="white"/>
<path d="M4.19643 15.38C4.16406 15.3964 4.13727 15.422 4.11945 15.4536C4.10162 15.4851 4.09356 15.5213 4.09627 15.5575C4.09899 15.5936 4.11237 15.6282 4.13472 15.6567C4.15707 15.6853 4.18738 15.7066 4.22183 15.7179C4.25628 15.7293 4.29331 15.7301 4.32825 15.7204C4.36319 15.7107 4.39447 15.6909 4.41813 15.6634C4.44179 15.6359 4.45678 15.602 4.46119 15.566C4.46559 15.53 4.45923 15.4935 4.4429 15.4611C4.43205 15.4396 4.41707 15.4205 4.39881 15.4047C4.38055 15.389 4.35936 15.377 4.33647 15.3695C4.31358 15.362 4.28943 15.359 4.2654 15.3608C4.24138 15.3627 4.21794 15.3692 4.19643 15.38Z" fill="white"/>
<path d="M5.20774 13.4663C5.15591 13.4667 5.10511 13.4518 5.06176 13.4234C5.03295 13.4045 5.00814 13.3802 4.98874 13.3518C4.96935 13.3233 4.95576 13.2913 4.94874 13.2576C4.94173 13.2239 4.94143 13.1891 4.94787 13.1553C4.95431 13.1215 4.96736 13.0893 4.98626 13.0605C5.01468 13.0172 5.05532 12.9832 5.10303 12.963C5.15073 12.9427 5.20338 12.9371 5.25429 12.9467C5.30521 12.9564 5.35212 12.981 5.38909 13.0173C5.42605 13.0536 5.45142 13.1001 5.46197 13.1508C5.47253 13.2016 5.46781 13.2543 5.44839 13.3024C5.42898 13.3504 5.39576 13.3916 5.35292 13.4208C5.31009 13.45 5.25956 13.4658 5.20774 13.4663Z" fill="white"/>
<path d="M7.80707 12.2619C7.84398 12.286 7.8872 12.2986 7.93126 12.2981C7.97532 12.2976 8.01825 12.2841 8.05463 12.2592C8.091 12.2343 8.11918 12.1992 8.13561 12.1583C8.15203 12.1174 8.15597 12.0726 8.14691 12.0295C8.13786 11.9863 8.11622 11.9469 8.08474 11.916C8.05325 11.8852 8.01334 11.8644 7.97003 11.8562C7.92672 11.8481 7.88197 11.853 7.84144 11.8702C7.8009 11.8875 7.7664 11.9164 7.74228 11.9533C7.72623 11.9778 7.71517 12.0053 7.70974 12.034C7.70431 12.0628 7.70461 12.0924 7.71063 12.1211C7.71664 12.1497 7.72826 12.1769 7.74481 12.2011C7.76136 12.2253 7.78252 12.2459 7.80707 12.2619Z" fill="white"/>
<path d="M7.84214 13.6533C7.78369 13.6499 7.72515 13.6581 7.66986 13.6774C7.61458 13.6966 7.56363 13.7266 7.51992 13.7656C7.43166 13.8442 7.37826 13.9547 7.37148 14.0728C7.36469 14.1908 7.40508 14.3067 7.48376 14.395C7.56243 14.4833 7.67295 14.5367 7.79099 14.5435H7.81681C7.9028 14.5434 7.98695 14.5185 8.05909 14.4717C8.13124 14.4249 8.18832 14.3583 8.22343 14.2798C8.25855 14.2013 8.27021 14.1143 8.257 14.0293C8.2438 13.9443 8.20629 13.865 8.14901 13.8009C8.11022 13.7571 8.06311 13.7215 8.01042 13.6962C7.95773 13.6709 7.90053 13.6563 7.84214 13.6533Z" fill="white"/>
<path d="M6.00476 13.5718C5.93436 13.5285 5.87746 13.4664 5.84046 13.3925C5.80643 13.3245 5.79033 13.249 5.79367 13.1731C5.79701 13.0972 5.81969 13.0234 5.85956 12.9588C5.89942 12.8941 5.95515 12.8407 6.02146 12.8036C6.08776 12.7665 6.16244 12.7469 6.23842 12.7468C6.3209 12.7464 6.40186 12.769 6.47223 12.812C6.5426 12.855 6.59961 12.9168 6.63687 12.9904C6.67129 13.0583 6.68771 13.134 6.68457 13.2102C6.68142 13.2863 6.65881 13.3604 6.6189 13.4253C6.57899 13.4902 6.52311 13.5438 6.45658 13.581C6.39006 13.6182 6.31512 13.6377 6.23891 13.6377C6.15624 13.638 6.07515 13.6152 6.00476 13.5718Z" fill="white"/>
<path d="M9.33533 12.8213C9.36771 12.805 9.39451 12.7794 9.41235 12.7478C9.4302 12.7163 9.43829 12.6801 9.4356 12.644C9.43291 12.6078 9.41956 12.5733 9.39723 12.5447C9.37491 12.5161 9.34462 12.4948 9.31019 12.4834C9.27575 12.4721 9.23873 12.4712 9.20378 12.4808C9.16883 12.4905 9.13754 12.5103 9.11385 12.5378C9.09017 12.5652 9.07515 12.5991 9.0707 12.6351C9.06625 12.6711 9.07257 12.7076 9.08886 12.74C9.11078 12.7834 9.14905 12.8164 9.19526 12.8316C9.24148 12.8469 9.29186 12.8432 9.33533 12.8213Z" fill="white"/>
<path d="M8.09484 13.0682C8.12038 13.0231 8.15872 12.9866 8.20501 12.9633C8.23574 12.9478 8.26922 12.9385 8.30355 12.9359C8.33788 12.9334 8.37238 12.9376 8.40507 12.9484C8.43775 12.9592 8.46799 12.9763 8.49405 12.9988C8.52011 13.0213 8.54148 13.0487 8.55694 13.0795C8.58025 13.1258 8.58932 13.1779 8.58298 13.2294C8.57665 13.2808 8.5552 13.3292 8.52136 13.3685C8.48751 13.4077 8.44279 13.4361 8.39284 13.4499C8.34289 13.4638 8.28996 13.4625 8.24074 13.4462C8.19152 13.43 8.14823 13.3995 8.11633 13.3586C8.08443 13.3178 8.06536 13.2684 8.06154 13.2167C8.05771 13.165 8.0693 13.1134 8.09484 13.0682Z" fill="white"/>
<path d="M6.89493 12.5267C6.8503 12.553 6.79886 12.5655 6.74713 12.5626C6.6777 12.5587 6.61268 12.5273 6.56637 12.4754C6.52006 12.4236 6.49624 12.3554 6.50017 12.286C6.50314 12.2342 6.52138 12.1846 6.55258 12.1432C6.58378 12.1018 6.62655 12.0706 6.67547 12.0536C6.7244 12.0365 6.77728 12.0343 6.82744 12.0473C6.87761 12.0603 6.9228 12.0878 6.9573 12.1265C6.99181 12.1651 7.01408 12.2132 7.0213 12.2645C7.02852 12.3158 7.02037 12.3681 6.99788 12.4148C6.97538 12.4614 6.93956 12.5004 6.89493 12.5267Z" fill="white"/>
<path d="M5.32727 15.2378C5.37356 15.2145 5.41188 15.178 5.4374 15.1329C5.46292 15.0877 5.47448 15.0361 5.47063 14.9844C5.46678 14.9327 5.44769 14.8833 5.41576 14.8424C5.38384 14.8016 5.34052 14.7712 5.29129 14.7549C5.24206 14.7387 5.18912 14.7375 5.13917 14.7513C5.08923 14.7652 5.04452 14.7936 5.0107 14.8329C4.97688 14.8721 4.95547 14.9206 4.94917 14.972C4.94288 15.0235 4.95199 15.0756 4.97534 15.1219C5.00665 15.1839 5.06131 15.231 5.1273 15.2527C5.1933 15.2745 5.26523 15.2691 5.32727 15.2378Z" fill="white"/>
<path d="M6.84502 13.2255C6.83696 13.1267 6.8621 13.028 6.91645 12.945C6.95708 12.8831 7.01248 12.8323 7.07767 12.7971C7.14285 12.7619 7.21576 12.7436 7.28982 12.7436C7.38898 12.7437 7.48527 12.7769 7.56345 12.8379C7.64163 12.899 7.69723 12.9843 7.72145 13.0805C7.74566 13.1766 7.73712 13.2781 7.69717 13.3689C7.65721 13.4596 7.58813 13.5345 7.50085 13.5816C7.41358 13.6287 7.31309 13.6453 7.2153 13.6288C7.11751 13.6124 7.028 13.5638 6.96093 13.4907C6.89386 13.4177 6.85308 13.3244 6.84502 13.2255Z" fill="white"/>
<path d="M7.69139 14.8089C7.65568 14.7381 7.60172 14.6781 7.53509 14.6351C7.46845 14.5921 7.39155 14.5677 7.31232 14.5643C7.23308 14.5609 7.15439 14.5788 7.08435 14.616C7.01431 14.6532 6.95547 14.7084 6.91389 14.7759C6.87232 14.8435 6.84951 14.9209 6.84783 15.0002C6.84615 15.0794 6.86565 15.1577 6.90433 15.227C6.94301 15.2962 6.99946 15.3539 7.06785 15.394C7.13625 15.4341 7.21412 15.4553 7.29342 15.4553C7.36319 15.4548 7.43189 15.4381 7.49411 15.4066C7.59935 15.3533 7.6792 15.2605 7.71618 15.1485C7.75315 15.0365 7.74424 14.9144 7.69139 14.8089Z" fill="white"/>
<path d="M8.32434 14.7348C8.37617 14.7343 8.42696 14.7493 8.47028 14.7777C8.52828 14.816 8.56877 14.8756 8.58287 14.9436C8.59698 15.0117 8.58356 15.0825 8.54554 15.1406C8.5171 15.184 8.47644 15.2179 8.42872 15.2381C8.381 15.2583 8.32835 15.264 8.27744 15.2543C8.22652 15.2446 8.17963 15.22 8.14268 15.1836C8.10573 15.1473 8.08039 15.1008 8.06987 15.05C8.05934 14.9993 8.06411 14.9466 8.08355 14.8985C8.10299 14.8505 8.13625 14.8093 8.17911 14.7801C8.22197 14.751 8.27251 14.7352 8.32434 14.7348Z" fill="white"/>
<path d="M9.32371 14.1082C9.32619 14.0643 9.31558 14.0206 9.29323 13.9827C9.27088 13.9447 9.23779 13.9143 9.19815 13.8952C9.1585 13.8761 9.11407 13.8691 9.07048 13.8752C9.02689 13.8814 8.9861 13.9003 8.95325 13.9296C8.92041 13.9589 8.89699 13.9973 8.88596 14.0399C8.87492 14.0825 8.87677 14.1274 8.89126 14.169C8.90576 14.2105 8.93225 14.2469 8.96739 14.2734C9.00253 14.2999 9.04473 14.3154 9.08868 14.3179C9.14765 14.3212 9.20552 14.301 9.24959 14.2617C9.29366 14.2224 9.32031 14.1672 9.32371 14.1082Z" fill="white"/>
<path d="M9.85897 13.9693C9.88356 13.9549 9.91187 13.948 9.94034 13.9497C9.97849 13.9519 10.0142 13.9692 10.0396 13.9978C10.065 14.0263 10.0781 14.0637 10.076 14.1019C10.0744 14.1304 10.0643 14.1577 10.0471 14.1805C10.03 14.2032 10.0064 14.2204 9.97949 14.2298C9.95257 14.2392 9.92346 14.2403 9.89585 14.2332C9.86825 14.226 9.84339 14.2108 9.82442 14.1896C9.80545 14.1683 9.79321 14.1418 9.78926 14.1136C9.78532 14.0853 9.78983 14.0566 9.80224 14.0309C9.81465 14.0052 9.83439 13.9838 9.85897 13.9693Z" fill="white"/>
<path d="M9.35977 15.3794C9.32943 15.3595 9.29388 15.3491 9.25762 15.3494C9.22135 15.3497 9.186 15.3608 9.15603 15.3812C9.12606 15.4016 9.10281 15.4305 9.08923 15.4641C9.07565 15.4977 9.07235 15.5346 9.07973 15.5701C9.08712 15.6056 9.10487 15.6381 9.13073 15.6636C9.1566 15.689 9.18942 15.7062 9.22505 15.7129C9.26067 15.7197 9.29751 15.7158 9.3309 15.7016C9.36428 15.6874 9.39272 15.6637 9.41262 15.6334C9.42583 15.6132 9.43495 15.5907 9.43945 15.567C9.44395 15.5433 9.44374 15.519 9.43883 15.4954C9.43392 15.4718 9.42441 15.4494 9.41085 15.4295C9.39728 15.4096 9.37992 15.3926 9.35977 15.3794Z" fill="white"/>
<path d="M5.1878 16.7018C5.21631 16.7016 5.24425 16.7098 5.26809 16.7255C5.28393 16.7358 5.29756 16.7493 5.30821 16.7649C5.31886 16.7806 5.32633 16.7982 5.33017 16.8167C5.33402 16.8353 5.33417 16.8544 5.33062 16.873C5.32707 16.8916 5.3199 16.9093 5.3095 16.9252C5.29384 16.949 5.27147 16.9677 5.24521 16.9788C5.21896 16.9899 5.19 16.993 5.16199 16.9876C5.13398 16.9823 5.10818 16.9688 5.08786 16.9488C5.06754 16.9288 5.0536 16.9032 5.04781 16.8753C5.04202 16.8474 5.04464 16.8183 5.05534 16.7919C5.06604 16.7655 5.08433 16.7428 5.10791 16.7268C5.13148 16.7107 5.15929 16.7021 5.1878 16.7018Z" fill="white"/>
<path d="M8.29006 16.7104C8.26459 16.7232 8.2435 16.7433 8.22946 16.7681C8.21542 16.7929 8.20905 16.8214 8.21117 16.8498C8.21328 16.8783 8.22378 16.9054 8.24135 16.9279C8.25891 16.9504 8.28274 16.9671 8.30982 16.9761C8.33691 16.985 8.36603 16.9857 8.39351 16.978C8.42099 16.9704 8.44559 16.9548 8.4642 16.9332C8.48281 16.9116 8.4946 16.8849 8.49806 16.8566C8.50153 16.8283 8.49653 16.7996 8.48368 16.7742C8.47518 16.7572 8.46342 16.7422 8.44908 16.7298C8.43474 16.7174 8.4181 16.708 8.40011 16.7021C8.38213 16.6962 8.36314 16.6938 8.34426 16.6953C8.32537 16.6967 8.30695 16.7018 8.29006 16.7104Z" fill="white"/>
<path d="M6.68684 14.9749C6.69491 15.0737 6.66977 15.1724 6.61541 15.2554C6.57498 15.3174 6.51966 15.3684 6.45448 15.4036C6.3893 15.4388 6.31636 15.4571 6.24229 15.4568C6.14311 15.4567 6.04679 15.4236 5.96858 15.3626C5.89036 15.3016 5.83472 15.2163 5.81046 15.1201C5.7862 15.024 5.79471 14.9225 5.83464 14.8317C5.87456 14.7409 5.94363 14.666 6.0309 14.6189C6.11818 14.5718 6.21867 14.5551 6.31647 14.5716C6.41428 14.588 6.50381 14.6366 6.57089 14.7096C6.63798 14.7827 6.67878 14.876 6.68684 14.9749Z" fill="white"/>
<path d="M5.72471 15.9395C5.68788 15.9154 5.64473 15.9028 5.60071 15.9032C5.55669 15.9036 5.51379 15.9171 5.47743 15.9419C5.44106 15.9667 5.41286 16.0017 5.3964 16.0426C5.37994 16.0834 5.37595 16.1282 5.38493 16.1713C5.39392 16.2143 5.41548 16.2538 5.44688 16.2846C5.47829 16.3155 5.51814 16.3363 5.56138 16.3445C5.60463 16.3527 5.64934 16.3479 5.68986 16.3307C5.73037 16.3135 5.76488 16.2847 5.78901 16.2479C5.82134 16.1984 5.83272 16.1382 5.82067 16.0804C5.80861 16.0226 5.7741 15.9719 5.72471 15.9395Z" fill="white"/>
<path d="M6.66048 16.8177C6.69173 16.7993 6.72774 16.7906 6.76395 16.7927C6.788 16.794 6.81155 16.8001 6.83325 16.8106C6.85495 16.8211 6.87437 16.8357 6.89041 16.8537C6.90644 16.8717 6.91878 16.8926 6.92671 16.9154C6.93464 16.9381 6.93801 16.9622 6.93663 16.9863C6.93455 17.0225 6.92178 17.0573 6.89993 17.0862C6.87809 17.1152 6.84815 17.137 6.8139 17.1489C6.77966 17.1609 6.74264 17.1624 6.70753 17.1533C6.67243 17.1442 6.6408 17.1249 6.61666 17.0978C6.59253 17.0708 6.57695 17.0371 6.57192 17.0012C6.56688 16.9653 6.57261 16.9287 6.58837 16.8961C6.60414 16.8634 6.62923 16.8361 6.66048 16.8177Z" fill="white"/>
<path d="M6.76586 15.6387C6.71408 15.6356 6.66253 15.6478 6.61774 15.674C6.57295 15.7002 6.53694 15.7391 6.51426 15.7857C6.49159 15.8324 6.48327 15.8847 6.49036 15.9361C6.49745 15.9875 6.51964 16.0356 6.5541 16.0744C6.58857 16.1132 6.63377 16.1408 6.68397 16.1539C6.73418 16.167 6.78713 16.1648 6.83612 16.1478C6.88511 16.1307 6.92794 16.0995 6.95918 16.0581C6.99042 16.0167 7.00866 15.9669 7.0116 15.9151C7.0156 15.8459 6.99196 15.7779 6.94589 15.7261C6.89982 15.6743 6.83508 15.6428 6.76586 15.6387Z" fill="white"/>
<path d="M7.7443 16.0113C7.7659 15.9728 7.79842 15.9417 7.83775 15.9217C7.86379 15.9084 7.8922 15.9004 7.92135 15.8981C7.9505 15.8958 7.97981 15.8993 8.00761 15.9083C8.03542 15.9174 8.06116 15.9318 8.08338 15.9509C8.10559 15.9699 8.12384 15.9931 8.13707 16.0191C8.15712 16.0584 8.16506 16.1028 8.1599 16.1466C8.15473 16.1903 8.13669 16.2316 8.10805 16.2652C8.07942 16.2987 8.04148 16.323 7.99903 16.3349C7.95659 16.3469 7.91155 16.346 7.86961 16.3324C7.82768 16.3187 7.79074 16.2929 7.76347 16.2583C7.73619 16.2236 7.71981 16.1817 7.7164 16.1377C7.71299 16.0937 7.7227 16.0497 7.7443 16.0113Z" fill="white"/>
</g>
<g clip-path="url(#clip4_2365_171959)">
<path d="M20.6175 15.379C19.9108 18.2145 17.0389 19.946 14.1982 19.2388C11.3627 18.53 9.63404 15.6581 10.3407 12.8226C11.0475 9.98712 13.9176 8.25567 16.7514 8.96281C19.5938 9.66128 21.3224 12.5418 20.6175 15.379Z" fill="#000008"/>
<path d="M18.7501 15.7362L17.6573 16.878C17.6335 16.9028 17.6048 16.9226 17.5728 16.9361C17.5409 16.9496 17.5064 16.9566 17.4716 16.9565H12.2909C12.2662 16.9565 12.242 16.9495 12.2214 16.9363C12.2007 16.9231 12.1844 16.9043 12.1746 16.8822C12.1647 16.8601 12.1617 16.8357 12.1659 16.812C12.1701 16.7883 12.1813 16.7662 12.1982 16.7486L13.2919 15.6068C13.3156 15.5821 13.3442 15.5623 13.376 15.5488C13.4079 15.5353 13.4422 15.5283 13.477 15.5283H18.6574C18.6821 15.5283 18.7063 15.5353 18.7269 15.5485C18.7476 15.5617 18.7638 15.5805 18.7737 15.6026C18.7836 15.6247 18.7866 15.6491 18.7824 15.6728C18.7782 15.6966 18.767 15.7186 18.7501 15.7362ZM17.6573 13.4369C17.6335 13.4121 17.6048 13.3923 17.5728 13.3788C17.5409 13.3653 17.5064 13.3584 17.4716 13.3584H12.2909C12.2662 13.3584 12.242 13.3654 12.2214 13.3786C12.2007 13.3918 12.1844 13.4106 12.1746 13.4327C12.1647 13.4548 12.1617 13.4792 12.1659 13.5029C12.1701 13.5267 12.1813 13.5487 12.1982 13.5663L13.2919 14.7081C13.3156 14.7328 13.3442 14.7526 13.376 14.7661C13.4079 14.7796 13.4422 14.7866 13.477 14.7867H18.6574C18.6821 14.7867 18.7063 14.7796 18.7269 14.7664C18.7476 14.7532 18.7638 14.7344 18.7737 14.7123C18.7836 14.6902 18.7866 14.6658 18.7824 14.6421C18.7782 14.6184 18.767 14.5963 18.7501 14.5787L17.6573 13.4369ZM12.2909 12.6168H17.4716C17.5064 12.6168 17.5409 12.6098 17.5728 12.5963C17.6048 12.5828 17.6335 12.563 17.6573 12.5382L18.7501 11.3964C18.767 11.3788 18.7782 11.3568 18.7824 11.333C18.7866 11.3093 18.7836 11.2849 18.7737 11.2628C18.7638 11.2407 18.7476 11.2219 18.7269 11.2087C18.7063 11.1955 18.6821 11.1885 18.6574 11.1885H13.477C13.4422 11.1885 13.4079 11.1955 13.376 11.209C13.3442 11.2226 13.3156 11.2423 13.2919 11.267L12.1985 12.4088C12.1816 12.4264 12.1704 12.4484 12.1662 12.4721C12.162 12.4958 12.165 12.5202 12.1748 12.5423C12.1846 12.5644 12.2008 12.5832 12.2215 12.5964C12.2421 12.6096 12.2662 12.6167 12.2909 12.6168Z" fill="url(#paint2_linear_2365_171959)"/>
</g>
<g clip-path="url(#clip5_2365_171959)">
<path d="M46.9261 7.23842C46.2193 10.0739 43.3475 11.8054 40.5068 11.0982C37.6713 10.3893 35.9426 7.51746 36.6493 4.68198C37.356 1.84649 40.2262 0.115047 43.0599 0.822185C45.9024 1.52066 47.631 4.4012 46.9261 7.23842Z" fill="#2775CA"/>
<path d="M38.704 4.79119C38.064 6.49041 38.9468 8.41026 40.668 9.0281C40.7342 9.07227 40.8004 9.16051 40.8004 9.22671V9.53569C40.8004 9.5798 40.8004 9.60189 40.7783 9.62392C40.7563 9.71221 40.668 9.75632 40.5797 9.71221C39.344 9.315 38.3951 8.36609 37.9978 7.13034C37.3358 5.03397 38.4833 2.80514 40.5797 2.14313C40.6018 2.12109 40.6459 2.12109 40.668 2.12109C40.7563 2.14313 40.8004 2.20933 40.8004 2.29761V2.60654C40.8004 2.71691 40.7563 2.78311 40.668 2.82723C39.7633 3.15824 39.035 3.86437 38.704 4.79119Z" fill="white"/>
<path d="M42.8085 2.23141C42.8306 2.14313 42.9189 2.09901 43.0071 2.14313C44.2208 2.54034 45.1918 3.48924 45.589 4.74708C46.251 6.84345 45.1035 9.07227 43.0071 9.73429C42.9851 9.75632 42.9409 9.75632 42.9189 9.75632C42.8306 9.73429 42.7864 9.66809 42.7864 9.5798V9.27088C42.7864 9.16051 42.8306 9.09431 42.9189 9.05019C43.8236 8.71918 44.5518 8.01305 44.8828 7.08622C45.5228 5.38701 44.6401 3.46716 42.9189 2.84931C42.8527 2.80514 42.7864 2.71691 42.7864 2.62862V2.3197C42.7864 2.27553 42.7864 2.2535 42.8085 2.23141Z" fill="white"/>
<path d="M41.8596 5.5636C42.7864 5.67392 43.2498 5.93872 43.2498 6.71106C43.2498 7.30687 42.8085 7.77029 42.1465 7.88066V8.41027C42.1244 8.52059 42.0582 8.58679 41.9699 8.58679H41.6389C41.5286 8.56471 41.4624 8.49851 41.4624 8.41027V7.88066C40.7342 7.77029 40.3811 7.37308 40.2929 6.82143V6.79935C40.2929 6.71106 40.3591 6.64486 40.4473 6.64486H40.8225C40.8887 6.64486 40.9549 6.68903 40.9769 6.77726C41.0431 7.10827 41.2417 7.35104 41.8155 7.35104C42.2347 7.35104 42.5437 7.10832 42.5437 6.75523C42.5437 6.40213 42.3451 6.26973 41.7272 6.15941C40.8004 6.04904 40.3591 5.7622 40.3591 5.03398C40.3591 4.48228 40.7783 4.04096 41.4403 3.95267V3.44514C41.4624 3.33477 41.5286 3.26857 41.6169 3.26857H41.9479C42.0582 3.29065 42.1244 3.35686 42.1244 3.44514V3.97476C42.6319 4.01887 43.0292 4.394 43.1174 4.87949V4.90158C43.1174 4.98981 43.0512 5.05602 42.963 5.05602H42.6099C42.5437 5.05602 42.4775 5.0119 42.4554 4.9457C42.3451 4.61469 42.1244 4.48228 41.7272 4.48228C41.2859 4.48228 41.0652 4.68084 41.0652 4.98981C41.0652 5.29879 41.1976 5.47531 41.8596 5.5636Z" fill="white"/>
</g>
<g clip-path="url(#clip6_2365_171959)">
<path d="M20.6175 7.23842C19.9108 10.0739 17.0389 11.8054 14.1982 11.0982C11.3627 10.3893 9.63404 7.51746 10.3407 4.68198C11.0475 1.84649 13.9176 0.115047 16.7514 0.822185C19.5938 1.52066 21.3224 4.4012 20.6175 7.23842Z" fill="#009393"/>
<path fill-rule="evenodd" clip-rule="evenodd" d="M13.0067 2.99316H18.0427C18.1628 2.99316 18.2738 3.05543 18.3338 3.15645L19.801 5.62967C19.877 5.75793 19.8545 5.91982 19.7459 6.02382L15.7074 9.89411C15.5766 10.0195 15.3662 10.0195 15.2353 9.89411L11.2023 6.02905C11.0913 5.92263 11.0705 5.75601 11.1522 5.62696L12.7205 3.14851C12.7815 3.05199 12.8899 2.99316 13.0067 2.99316ZM17.3924 4.09737V4.79132H15.9579V5.27245C16.9654 5.32387 17.7213 5.53505 17.7269 5.78816L17.7269 6.31583C17.7213 6.56894 16.9654 6.78011 15.9579 6.83153V8.01229H15.0053V6.83153C13.9978 6.78011 13.2419 6.56894 13.2363 6.31583L13.2363 5.78816C13.2419 5.53505 13.9978 5.32387 15.0053 5.27245V4.79132H13.5708V4.09737H17.3924ZM15.4816 6.46902C16.5568 6.46902 17.4555 6.29045 17.6755 6.05199C17.4889 5.84977 16.8143 5.69063 15.9579 5.64692V6.15067C15.8044 6.15851 15.645 6.16263 15.4816 6.16263C15.3182 6.16263 15.1588 6.15851 15.0053 6.15067V5.64692C14.1489 5.69063 13.4743 5.84977 13.2878 6.05199C13.5077 6.29045 14.4064 6.46902 15.4816 6.46902Z" fill="white"/>
</g>
<g clip-path="url(#clip7_2365_171959)">
<path d="M29.387 7.23842C28.6803 10.0739 25.8084 11.8054 22.9677 11.0982C20.1322 10.3893 18.4036 7.51746 19.1103 4.68198C19.817 1.84649 22.6871 0.115047 25.5209 0.822185C28.3633 1.52066 30.092 4.4012 29.387 7.23842Z" fill="#ECEFF0"/>
<path d="M24.3098 7.24441C24.2892 7.25141 24.2774 7.23351 24.2635 7.22528C23.5776 6.82047 22.8924 6.41539 22.2081 6.01003C22.2014 6.00669 22.1946 6.00387 22.1875 6.0016V5.99254L22.1996 5.98555C22.2169 5.98102 22.2338 5.97553 22.2505 5.96909L23.8667 5.23369C24.0108 5.16805 24.1548 5.10344 24.2988 5.03842H24.3091C24.3091 5.05899 24.3091 5.07731 24.3091 5.09685C24.3097 5.81278 24.3099 6.52863 24.3098 7.24441Z" fill="#343535"/>
<path d="M24.3108 5.03892H24.3005C24.3005 5.01834 24.3025 4.99776 24.3025 4.97616C24.3025 4.17203 24.3025 3.36784 24.3025 2.56358C24.3002 2.54292 24.3016 2.52201 24.3067 2.50185H24.311C24.3955 2.62675 24.4692 2.75843 24.547 2.88745C25.1632 3.90955 25.779 4.93151 26.3945 5.95333C26.4005 5.96341 26.4052 5.97391 26.4106 5.98502C26.3932 5.98129 26.376 5.97627 26.3594 5.97C26.2464 5.91897 26.133 5.86712 26.0211 5.81506C25.8458 5.73481 25.6704 5.6547 25.4949 5.57473L24.6497 5.1918C24.5371 5.13995 24.4239 5.08953 24.3108 5.03892Z" fill="#2F3030"/>
<path d="M24.3073 2.50078C24.3022 2.52094 24.3009 2.54186 24.3032 2.56251C24.3032 3.36664 24.3032 4.17083 24.3032 4.97509C24.3032 4.99567 24.302 5.01625 24.3012 5.03785C24.1571 5.10287 24.0131 5.16748 23.8691 5.23312L22.2528 5.96852C22.2362 5.97496 22.2192 5.98046 22.202 5.98498C22.2487 5.88786 22.3094 5.7998 22.3647 5.70679C23.006 4.6408 23.6478 3.57501 24.2901 2.50943C24.2943 2.50352 24.2989 2.49789 24.3038 2.49255L24.3073 2.50078Z" fill="#828384"/>
<path d="M24.3108 5.03892C24.4239 5.08953 24.5371 5.13996 24.6501 5.19099L25.4954 5.57392C25.671 5.65376 25.8464 5.73387 26.0215 5.81425C26.1343 5.8659 26.2479 5.91816 26.3598 5.96919C26.3765 5.97547 26.3936 5.98049 26.411 5.98421C26.4316 6.00993 26.4012 6.01096 26.3919 6.01652C26.2164 6.12146 26.04 6.22496 25.8641 6.32907C25.3592 6.62784 24.8544 6.92654 24.3497 7.22518C24.3369 7.23258 24.3231 7.23803 24.3098 7.24441C24.3098 6.52877 24.3098 5.81315 24.3098 5.09737C24.31 5.07782 24.3106 5.05846 24.3108 5.03892Z" fill="#131313"/>
<path d="M24.3025 7.65093L25.6246 6.87171C25.877 6.72273 26.1292 6.57362 26.3814 6.42438L26.4042 6.41182C26.4065 6.4324 26.3923 6.44331 26.3836 6.45524C25.8075 7.26746 25.2313 8.0794 24.6552 8.89107C24.5461 9.04499 24.4373 9.19972 24.3272 9.3524C24.3215 9.36042 24.3126 9.39808 24.2949 9.35816C24.3089 9.34622 24.3027 9.33017 24.3027 9.31701C24.3029 8.76144 24.3028 8.20609 24.3025 7.65093Z" fill="#2F3030"/>
<path d="M24.3024 7.65104C24.3024 8.20619 24.3024 8.7612 24.3024 9.31608C24.3024 9.33028 24.3086 9.34633 24.2946 9.35723C24.2652 9.33954 24.2524 9.30785 24.2329 9.28172C23.5648 8.34069 22.8971 7.39953 22.2297 6.45823C22.2213 6.44629 22.2135 6.43353 22.2048 6.42036C22.2221 6.41028 22.2314 6.42407 22.2415 6.43004C22.9171 6.82894 23.5925 7.22819 24.2678 7.62779C24.2804 7.63561 24.2911 7.64363 24.3024 7.65104Z" fill="#828384"/>
<path d="M24.3075 2.50077L24.3025 2.49316C24.3116 2.4874 24.3104 2.49583 24.3118 2.50015L24.3075 2.50077Z" fill="#393939"/>
</g>
<g clip-path="url(#clip8_2365_171959)">
<path d="M11.8431 7.23842C11.1363 10.0739 8.26447 11.8054 5.42378 11.0982C2.58829 10.3893 0.859622 7.51746 1.56633 4.68198C2.27304 1.84649 5.14318 0.115047 7.97694 0.822185C10.8194 1.52066 12.548 4.4012 11.8431 7.23842Z" fill="#F7931A"/>
<path d="M9.21213 5.26424C9.30732 4.55808 8.77078 4.18943 8.03521 3.9402L8.26367 2.98482L7.68213 2.84462L7.4606 3.77924C7.30656 3.74289 7.15079 3.70655 6.99675 3.67539L7.21829 2.74078L6.62983 2.60059L6.40137 3.55597C6.27675 3.52655 6.15041 3.50405 6.02579 3.47462L5.22445 3.28251L5.07733 3.90039C5.07733 3.90039 5.51176 3.99558 5.49618 4.00424C5.73156 4.06308 5.77656 4.21712 5.76791 4.33481L5.51003 5.42347C5.5256 5.43039 5.54637 5.43039 5.56887 5.44597C5.54637 5.43904 5.53253 5.43904 5.51003 5.43212L5.15695 6.9552C5.12753 7.02789 5.0531 7.13173 4.89214 7.09539C4.89907 7.10231 4.46464 6.99154 4.46464 6.99154L4.18945 7.66135L4.94753 7.83789C5.08772 7.87423 5.22791 7.90366 5.35945 7.94173L5.13099 8.90577L5.71253 9.04596L5.94099 8.09058C6.10368 8.13385 6.25772 8.17192 6.40483 8.20827L6.17637 9.15673L6.75791 9.29692L6.98637 8.33289C7.97983 8.50942 8.72232 8.42808 9.02348 7.52289C9.26578 6.80116 9.00098 6.38923 8.47136 6.1175C8.85905 6.02924 9.13944 5.77827 9.21213 5.26424ZM7.90367 7.13866C7.73406 7.86039 6.51387 7.48481 6.12272 7.38962L6.42387 6.10885C6.82194 6.20577 8.08021 6.38231 7.90367 7.13866ZM8.06463 5.26424C7.9106 5.91847 6.89464 5.60347 6.56406 5.52212L6.84444 4.36078C7.1681 4.44039 8.22732 4.58058 8.06463 5.26424Z" fill="white"/>
</g>
<defs>
<linearGradient id="paint0_linear_2365_171959" x1="41.4892" y1="8.18359" x2="41.4892" y2="19.5116" gradientUnits="userSpaceOnUse">
<stop stop-color="#51B1F5"/>
<stop offset="1" stop-color="#227CF7"/>
</linearGradient>
<linearGradient id="paint1_linear_2365_171959" x1="26.6269" y1="18.9339" x2="21.1321" y2="8.80508" gradientUnits="userSpaceOnUse">
<stop stop-color="#FAE6F2"/>
<stop offset="1" stop-color="#FDF8FC"/>
</linearGradient>
<linearGradient id="paint2_linear_2365_171959" x1="12.7229" y1="17.094" x2="17.9972" y2="10.9908" gradientUnits="userSpaceOnUse">
<stop offset="0.08" stop-color="#9945FF"/>
<stop offset="0.3" stop-color="#8752F3"/>
<stop offset="0.5" stop-color="#5497D5"/>
<stop offset="0.6" stop-color="#43B4CA"/>
<stop offset="0.72" stop-color="#28E0B9"/>
<stop offset="0.97" stop-color="#19FB9B"/>
</linearGradient>
<clipPath id="clip0_2365_171959">
<rect width="11.9163" height="11.9163" fill="white" transform="translate(27.0547 8.14258)"/>
</clipPath>
<clipPath id="clip1_2365_171959">
<rect width="11.9163" height="11.9163" fill="white" transform="translate(18.2852 8.14258)"/>
</clipPath>
<clipPath id="clip2_2365_171959">
<rect width="11.9163" height="11.9163" fill="white" transform="translate(27.0547 0.00195312)"/>
</clipPath>
<clipPath id="clip3_2365_171959">
<rect width="11.9163" height="11.9163" fill="white" transform="translate(0.746094 8.14258)"/>
</clipPath>
<clipPath id="clip4_2365_171959">
<rect width="11.9163" height="11.9163" fill="white" transform="translate(9.51562 8.14258)"/>
</clipPath>
<clipPath id="clip5_2365_171959">
<rect width="11.9163" height="11.9163" fill="white" transform="translate(35.8242 0.00195312)"/>
</clipPath>
<clipPath id="clip6_2365_171959">
<rect width="11.9163" height="11.9163" fill="white" transform="translate(9.51562 0.00195312)"/>
</clipPath>
<clipPath id="clip7_2365_171959">
<rect width="11.9163" height="11.9163" fill="white" transform="translate(18.2852 0.00195312)"/>
</clipPath>
<clipPath id="clip8_2365_171959">
<rect width="11.9163" height="11.9163" fill="white" transform="translate(0.746094 0.00195312)"/>
</clipPath>
</defs>
</svg>
