<svg width="64" height="64" viewBox="0 0 64 64" fill="none" xmlns="http://www.w3.org/2000/svg">
<g filter="url(#filter0_di_5007_89949)">
<path fill-rule="evenodd" clip-rule="evenodd" d="M30.0664 36.5906V29.9359H23.4094C20.8672 29.9359 20.8672 26.0672 23.4094 26.0672H30.0664V19.4102C30.0664 16.868 33.9352 16.868 33.9352 19.4102V26.0672H40.5898C43.132 26.0672 43.132 29.9359 40.5898 29.9359H33.9352V36.5906C33.9352 39.1328 30.0664 39.1328 30.0664 36.5906ZM32 48C43.0461 48 52 39.0469 52 28C52 16.9539 43.0461 8 32 8C20.9539 8 12 16.9539 12 28C12 39.0461 20.9539 48 32 48Z" fill="url(#paint0_radial_5007_89949)"/>
<path d="M32 8.5C42.77 8.5 51.5 17.23 51.5 28C51.5 38.7707 42.77 47.5 32 47.5C21.23 47.5 12.5 38.77 12.5 28C12.5 17.23 21.23 8.5 32 8.5ZM32.001 17.0039C31.4128 17.0039 30.8074 17.1965 30.3418 17.6045C29.8664 18.021 29.5664 18.6364 29.5664 19.4102V25.5674H23.4092C22.6357 25.5674 22.02 25.8666 21.6035 26.3418C21.1955 26.8074 21.0029 27.4138 21.0029 28.002C21.003 28.59 21.1956 29.1956 21.6035 29.6611C22.02 30.1364 22.6356 30.4355 23.4092 30.4355H29.5664V36.5908C29.5665 37.3645 29.8665 37.98 30.3418 38.3965C30.8074 38.8044 31.4128 38.9971 32.001 38.9971C32.5891 38.997 33.1946 38.8044 33.6602 38.3965C34.1354 37.98 34.4355 37.3644 34.4355 36.5908V30.4355H40.5898C41.3634 30.4355 41.979 30.1363 42.3955 29.6611C42.8034 29.1956 42.996 28.59 42.9961 28.002C42.9961 27.4138 42.8035 26.8074 42.3955 26.3418C41.979 25.8667 41.3634 25.5674 40.5898 25.5674H34.4355V19.4102C34.4355 18.6365 34.1354 18.021 33.6602 17.6045C33.1946 17.1966 32.5891 17.0039 32.001 17.0039Z" stroke="url(#paint1_linear_5007_89949)" stroke-opacity="0.25"/>
</g>
<defs>
<filter id="filter0_di_5007_89949" x="0" y="0" width="64" height="64" filterUnits="userSpaceOnUse" color-interpolation-filters="sRGB">
<feFlood flood-opacity="0" result="BackgroundImageFix"/>
<feColorMatrix in="SourceAlpha" type="matrix" values="0 0 0 0 0 0 0 0 0 0 0 0 0 0 0 0 0 0 127 0" result="hardAlpha"/>
<feOffset dy="4"/>
<feGaussianBlur stdDeviation="6"/>
<feComposite in2="hardAlpha" operator="out"/>
<feColorMatrix type="matrix" values="0 0 0 0 0.535556 0 0 0 0 1 0 0 0 0 0.129167 0 0 0 0.25 0"/>
<feBlend mode="normal" in2="BackgroundImageFix" result="effect1_dropShadow_5007_89949"/>
<feBlend mode="normal" in="SourceGraphic" in2="effect1_dropShadow_5007_89949" result="shape"/>
<feColorMatrix in="SourceAlpha" type="matrix" values="0 0 0 0 0 0 0 0 0 0 0 0 0 0 0 0 0 0 127 0" result="hardAlpha"/>
<feOffset dy="2"/>
<feGaussianBlur stdDeviation="2"/>
<feComposite in2="hardAlpha" operator="arithmetic" k2="-1" k3="1"/>
<feColorMatrix type="matrix" values="0 0 0 0 0 0 0 0 0 0 0 0 0 0 0 0 0 0 0.35 0"/>
<feBlend mode="normal" in2="shape" result="effect2_innerShadow_5007_89949"/>
</filter>
<radialGradient id="paint0_radial_5007_89949" cx="0" cy="0" r="1" gradientUnits="userSpaceOnUse" gradientTransform="translate(36.3795 -1.16962) rotate(96.2409) scale(46.7277 94.9104)">
<stop stop-color="#36EBB8"/>
<stop offset="1" stop-color="#49F155"/>
</radialGradient>
<linearGradient id="paint1_linear_5007_89949" x1="32" y1="8" x2="32" y2="48" gradientUnits="userSpaceOnUse">
<stop stop-color="white"/>
<stop offset="1"/>
</linearGradient>
</defs>
</svg>
