<svg width="40" height="40" viewBox="0 0 40 40" fill="none" xmlns="http://www.w3.org/2000/svg">
<g filter="url(#filter0_i_5007_89949)">
<path fill-rule="evenodd" clip-rule="evenodd" d="M18.0664 28.5906V21.9359H11.4094C8.86719 21.9359 8.86719 18.0672 11.4094 18.0672H18.0664V11.4102C18.0664 8.86797 21.9352 8.86797 21.9352 11.4102V18.0672H28.5898C31.132 18.0672 31.132 21.9359 28.5898 21.9359H21.9352V28.5906C21.9352 31.1328 18.0664 31.1328 18.0664 28.5906ZM20 40C31.0461 40 40 31.0469 40 20C40 8.95391 31.0461 0 20 0C8.95391 0 0 8.95391 0 20C0 31.0461 8.95391 40 20 40Z" fill="url(#paint0_radial_5007_89949)"/>
</g>
<path d="M20 0.5C30.77 0.5 39.5 9.23005 39.5 20C39.5 30.7707 30.77 39.5 20 39.5C9.23005 39.5 0.5 30.77 0.5 20C0.5 9.23005 9.23005 0.5 20 0.5ZM20.001 9.00391C19.4128 9.00391 18.8074 9.19654 18.3418 9.60449C17.8664 10.021 17.5664 10.6364 17.5664 11.4102V17.5674H11.4092C10.6357 17.5674 10.02 17.8666 9.60352 18.3418C9.19554 18.8074 9.00293 19.4138 9.00293 20.002C9.00302 20.59 9.19563 21.1956 9.60352 21.6611C10.02 22.1364 10.6356 22.4355 11.4092 22.4355H17.5664V28.5908C17.5665 29.3645 17.8665 29.98 18.3418 30.3965C18.8074 30.8044 19.4128 30.9971 20.001 30.9971C20.5891 30.997 21.1946 30.8044 21.6602 30.3965C22.1354 29.98 22.4355 29.3644 22.4355 28.5908V22.4355H28.5898C29.3634 22.4355 29.979 22.1363 30.3955 21.6611C30.8034 21.1956 30.996 20.59 30.9961 20.002C30.9961 19.4138 30.8035 18.8074 30.3955 18.3418C29.979 17.8667 29.3634 17.5674 28.5898 17.5674H22.4355V11.4102C22.4355 10.6365 22.1354 10.021 21.6602 9.60449C21.1946 9.19657 20.5891 9.00395 20.001 9.00391Z" stroke="url(#paint1_linear_5007_89949)" stroke-opacity="0.25"/>
<defs>
<filter id="filter0_i_5007_89949" x="0" y="0" width="40" height="42" filterUnits="userSpaceOnUse" color-interpolation-filters="sRGB">
<feFlood flood-opacity="0" result="BackgroundImageFix"/>
<feBlend mode="normal" in="SourceGraphic" in2="BackgroundImageFix" result="shape"/>
<feColorMatrix in="SourceAlpha" type="matrix" values="0 0 0 0 0 0 0 0 0 0 0 0 0 0 0 0 0 0 127 0" result="hardAlpha"/>
<feOffset dy="2"/>
<feGaussianBlur stdDeviation="2"/>
<feComposite in2="hardAlpha" operator="arithmetic" k2="-1" k3="1"/>
<feColorMatrix type="matrix" values="0 0 0 0 0 0 0 0 0 0 0 0 0 0 0 0 0 0 0.35 0"/>
<feBlend mode="normal" in2="shape" result="effect1_innerShadow_5007_89949"/>
</filter>
<radialGradient id="paint0_radial_5007_89949" cx="0" cy="0" r="1" gradientUnits="userSpaceOnUse" gradientTransform="translate(24.3795 -9.16962) rotate(96.2409) scale(46.7277 94.9104)">
<stop stop-color="#36EBB8"/>
<stop offset="1" stop-color="#49F155"/>
</radialGradient>
<linearGradient id="paint1_linear_5007_89949" x1="20" y1="0" x2="20" y2="40" gradientUnits="userSpaceOnUse">
<stop stop-color="white"/>
<stop offset="1"/>
</linearGradient>
</defs>
</svg>
