<svg width="80" height="20" viewBox="0 0 80 20" fill="none" xmlns="http://www.w3.org/2000/svg">
<g clip-path="url(#clip0_5630_29576)">
<g clip-path="url(#clip1_5630_29576)">
<path d="M41.0763 6.22622H38.4451L36.5832 9.50075H35.6248L35.5942 2.41406H33.1035V15.2129H35.5942L35.6248 11.7001H36.5771L39.0495 15.2129H41.8088L38.5855 10.5576L41.0763 6.22622Z" fill="white"/>
<path d="M59.9275 10.4418C59.4215 10.1141 58.8731 9.8571 58.2976 9.67813L57.7481 9.47041L57.5993 9.41454C57.2582 9.28655 56.8996 9.15192 56.8874 8.80448C56.8842 8.7013 56.9071 8.59903 56.9541 8.50716C57.0011 8.4153 57.0705 8.33682 57.156 8.2791C57.3364 8.15468 57.5477 8.08275 57.7665 8.07137C58.2434 8.03841 58.7162 8.17951 59.0973 8.46848L59.1645 8.51123L60.4952 6.97783L60.4281 6.92285C60.2624 6.77503 60.0825 6.64406 59.8909 6.53185C59.5476 6.33534 59.1743 6.19703 58.7859 6.12253C58.2265 6.00343 57.6482 6.00343 57.0888 6.12253C56.548 6.19417 56.0348 6.40463 55.5993 6.73346C55.3207 6.95156 55.0879 7.22244 54.914 7.53061C54.7402 7.83882 54.6287 8.17827 54.5859 8.52958C54.5096 9.16358 54.6705 9.80337 55.0376 10.3257C55.5254 10.8662 56.163 11.249 56.8691 11.4254L56.9789 11.462L57.2292 11.5475C58.1327 11.853 58.3891 11.9752 58.5356 12.1585C58.6038 12.2507 58.6421 12.3615 58.6455 12.4761C58.6455 12.9099 58.1144 13.087 57.7542 13.197C57.5024 13.2443 57.2435 13.2395 56.9936 13.1828C56.7437 13.126 56.5081 13.0186 56.3014 12.8671C55.9667 12.6432 55.6802 12.3544 55.4589 12.0179C55.422 12.0565 55.2996 12.1789 55.1396 12.3389C54.6905 12.788 53.9452 13.5334 53.9632 13.5514L54.006 13.6125C54.6708 14.4454 55.6022 15.0236 56.6432 15.2497C56.8811 15.2958 57.1217 15.3263 57.3636 15.3414H57.6138C58.4362 15.3586 59.2418 15.1077 59.9092 14.6266C60.3606 14.307 60.7069 13.8605 60.9042 13.3436C61.0243 12.9967 61.0669 12.6276 61.0289 12.2623C60.9909 11.8971 60.8734 11.5447 60.6845 11.2299C60.4915 10.9159 60.2333 10.6472 59.9275 10.4418Z" fill="white"/>
<path d="M66.3501 9.67823C66.9238 9.85726 67.4701 10.1142 67.974 10.4419C68.2744 10.6473 68.5281 10.9137 68.7188 11.2238C68.9076 11.5386 69.025 11.8911 69.063 12.2563C69.1009 12.6215 69.0588 12.9906 68.9386 13.3376C68.7412 13.8545 68.3948 14.3011 67.9435 14.6206C67.2761 15.1017 66.4704 15.3526 65.6481 15.3353H65.3978C65.1559 15.3207 64.9153 15.2901 64.6775 15.2437C63.6364 15.0175 62.7051 14.4393 62.0402 13.6064L61.9914 13.5453C61.9794 13.5293 62.5682 12.9383 63.013 12.4917C63.2467 12.2572 63.4408 12.0624 63.487 12.012C63.7117 12.3457 63.9975 12.6339 64.3295 12.8611C64.5373 13.0128 64.774 13.1202 65.0249 13.177C65.2758 13.2337 65.5357 13.2385 65.7885 13.191C66.1487 13.0811 66.6737 12.9039 66.6737 12.4701C66.677 12.3554 66.6403 12.2431 66.5699 12.1524C66.4234 11.9692 66.167 11.847 65.2574 11.5415L65.0071 11.456L64.9033 11.4193C64.1973 11.243 63.5597 10.8602 63.0719 10.3197C62.7015 9.79892 62.5402 9.15781 62.6201 8.52354C62.6649 8.1723 62.7785 7.83333 62.9545 7.52616C63.1305 7.21897 63.3654 6.94961 63.6457 6.73356C64.0824 6.40665 64.595 6.1964 65.1353 6.12263C65.6968 6.00339 66.277 6.00339 66.8385 6.12263C67.2249 6.19734 67.5962 6.33566 67.9374 6.53196C68.1318 6.64261 68.3139 6.77368 68.4807 6.92294L68.5417 6.97792L67.2109 8.51133L67.1499 8.46857C66.7683 8.18057 66.2959 8.03961 65.819 8.07147C65.6003 8.08285 65.3889 8.15478 65.2086 8.27919C65.125 8.33926 65.0566 8.41802 65.0089 8.50926C64.9612 8.6005 64.9355 8.70161 64.9339 8.80457C64.9522 9.15278 65.3062 9.28719 65.6542 9.41554L65.7946 9.4705L66.3501 9.67823Z" fill="white"/>
<path fill-rule="evenodd" clip-rule="evenodd" d="M49.2561 6.22757V7.10729H49.1463C48.4645 6.42415 47.5409 6.03777 46.5762 6.03207C45.9847 6.02038 45.3975 6.13347 44.8527 6.36399C44.3078 6.59451 43.8176 6.93728 43.4139 7.37C42.5998 8.28234 42.1633 9.47062 42.193 10.6934C42.1614 11.9368 42.5971 13.1467 43.4139 14.0841C43.808 14.517 44.2905 14.8601 44.8287 15.0899C45.367 15.3197 45.9484 15.4308 46.5334 15.4159C47.4994 15.3977 48.4283 15.041 49.1585 14.4079H49.2561V15.1959H51.8445V6.22757H49.2561ZM49.3843 10.7423C49.4103 11.465 49.169 12.1719 48.7067 12.7278C48.4851 12.9761 48.2116 13.1727 47.9057 13.3036C47.5998 13.4345 47.2689 13.4965 46.9363 13.4853C46.6138 13.4908 46.2943 13.4232 46.0015 13.2879C45.7087 13.1525 45.4502 12.9527 45.2454 12.7034C44.7885 12.136 44.554 11.4214 44.586 10.6934C44.5653 9.98738 44.8043 9.2982 45.2576 8.75676C45.4663 8.51124 45.7266 8.31489 46.02 8.18186C46.3134 8.04876 46.6326 7.98227 46.9547 7.98703C47.2849 7.97676 47.6134 8.03986 47.9164 8.17193C48.2194 8.304 48.4893 8.50165 48.7067 8.75069C49.1689 9.30896 49.41 10.0177 49.3843 10.7423Z" fill="white"/>
<path fill-rule="evenodd" clip-rule="evenodd" d="M77.4117 7.1072V6.22748H80V15.1958H77.4117V14.4078H77.3138C76.5842 15.0409 75.6552 15.3976 74.689 15.4158C74.1042 15.4308 73.5228 15.3196 72.9842 15.0898C72.4462 14.86 71.9635 14.5169 71.5697 14.084C70.7524 13.1466 70.3166 11.9367 70.3483 10.6933C70.3186 9.47051 70.7552 8.28224 71.5697 7.36989C71.9745 6.93763 72.4662 6.59523 73.0117 6.36477C73.5573 6.13432 74.1455 6.02096 74.738 6.03198C75.7007 6.03928 76.6214 6.42554 77.3014 7.1072H77.4117ZM76.8621 12.7277C77.3269 12.1733 77.569 11.4653 77.54 10.7422C77.5683 10.0172 77.3269 9.30741 76.8621 8.75058C76.6448 8.50155 76.3745 8.30389 76.0717 8.17183C75.769 8.03983 75.4407 7.97665 75.1104 7.98693C74.7883 7.98217 74.469 8.04865 74.1752 8.18176C73.8821 8.31479 73.6221 8.51114 73.4131 8.75672C72.96 9.29817 72.7207 9.98727 72.7414 10.6933C72.7097 11.4213 72.9442 12.1359 73.4007 12.7033C73.6055 12.9526 73.8642 13.1524 74.1573 13.2878C74.4497 13.4231 74.7697 13.4907 75.0917 13.4853C75.4242 13.4964 75.7552 13.4344 76.0614 13.3035C76.3669 13.1726 76.6407 12.976 76.8621 12.7277Z" fill="white"/>
<path fill-rule="evenodd" clip-rule="evenodd" d="M7.95262 9.97453C7.96697 4.6701 12.3107 0.345703 17.769 0.345703C23.1743 0.345703 27.6477 4.68442 27.5856 10.0009C27.5856 15.3174 23.1743 19.656 17.769 19.656C12.3726 19.656 7.96703 15.3925 7.95262 10.0274V17.2117H4.47334L0 3.15669H7.95262V9.97453ZM14.1034 10.0009C14.1034 11.9563 15.7809 13.6063 17.769 13.6063C19.8194 13.6063 21.4347 11.9563 21.4347 10.0009C21.4347 8.04543 19.7572 6.39546 17.769 6.39546C15.7809 6.39546 14.1034 8.04543 14.1034 10.0009Z" fill="#0070F0"/>
</g>
</g>
<defs>
<clipPath id="clip0_5630_29576">
<rect width="80" height="20" fill="white"/>
</clipPath>
<clipPath id="clip1_5630_29576">
<rect width="80" height="19.3103" fill="white" transform="translate(0 0.345703)"/>
</clipPath>
</defs>
</svg>
