<svg width="70" height="20" viewBox="0 0 70 20" fill="none" xmlns="http://www.w3.org/2000/svg">
<g id="Logo_Sberbank 1">
<path id="Vector" d="M29.7565 4.3125C26.439 4.3125 25.2668 6.07989 25.2668 7.72066C25.2668 10.1008 27.3223 10.5874 29.1615 11.0204C30.4417 11.3269 31.5413 11.5971 31.5413 12.4987C31.5413 12.9675 31.2707 13.7432 29.4136 13.7432C28.1514 13.7252 26.9255 13.3279 25.8795 12.6067L25.0684 14.4463C26.042 15.2036 27.7368 15.6902 29.3959 15.6902C32.1365 15.6902 33.9215 14.3557 33.9215 12.3002C33.9035 9.97425 31.8295 9.48778 30.0087 9.05487C28.7285 8.74833 27.6289 8.49586 27.6289 7.59429C27.6289 6.40424 29.0892 6.27774 29.7383 6.27774C30.4415 6.24169 31.1269 6.3862 31.758 6.69278L33.5249 5.39454C32.389 4.70938 31.091 4.33053 29.7565 4.3125ZM58.6584 4.49195V15.5089H61.0381V12.3894H63.4002L65.5102 15.5089L68.0523 15.5266L65.6366 11.9385C67.061 11.3254 67.89 10.0818 67.89 8.44125C67.89 6.00707 66.0869 4.49215 63.2018 4.49215L58.6584 4.49195ZM48.1115 4.50904V15.526H56.4415V13.6864H50.4912V10.8745H55.5759V9.0349H50.4912V6.34871H53.9531L56.4415 4.5091L48.1115 4.50904ZM36.1209 4.52613V15.5431H41.6384C44.379 15.5431 45.8931 14.4795 45.8931 12.5682C45.9111 11.2339 45.1905 10.2601 43.9644 9.84543L43.8557 9.80942L43.9637 9.7551C44.8472 9.28628 45.406 8.34871 45.37 7.35701C45.37 5.57196 43.8555 4.52617 41.3312 4.52617L36.1209 4.52613ZM38.499 6.34745H41.0234C42.6281 6.34745 42.9527 7.08692 42.9527 7.69999C42.9527 8.5835 42.2856 9.05194 41.0234 9.05194H38.499V6.34745ZM61.035 6.34928H63.145C64.6775 6.34928 65.507 7.10635 65.507 8.45867C65.507 9.81097 64.6776 10.5681 63.145 10.5681H61.035V6.34928ZM38.4971 10.8732H41.4543C42.8066 10.8732 43.4916 11.3419 43.4916 12.2795C43.4916 13.2171 42.8246 13.6857 41.4543 13.6857H38.4971V10.8732Z" fill="#21A038"/>
<path id="Vector_2" d="M17.8376 4.41797C18.2704 4.97691 18.631 5.58997 18.9375 6.23906L10.6072 12.3875L7.10938 10.1877V7.55528L10.5894 9.737L17.8376 4.41797Z" fill="#21A038"/>
<path id="Vector_3" d="M3.55686 10.0078C3.55686 9.88161 3.55686 9.77343 3.57489 9.64721L1.4653 9.53906C1.4653 9.68331 1.44727 9.84558 1.44727 9.98981C1.44727 12.5141 2.47502 14.8039 4.13383 16.4629L5.63036 14.9664C4.35017 13.7042 3.55686 11.9551 3.55686 10.0078Z" fill="url(#paint0_linear_2297_154217)"/>
<path id="Vector_4" d="M10.5879 2.97287C10.7141 2.97287 10.8223 2.97287 10.9485 2.99091L11.0567 0.881312C10.9125 0.881312 10.7502 0.863281 10.6059 0.863281C8.08166 0.863281 5.79188 1.89103 4.13281 3.54984L5.62934 5.04637C6.8915 3.76619 8.65862 2.97287 10.5879 2.97287Z" fill="url(#paint1_linear_2297_154217)"/>
<path id="Vector_5" d="M10.588 17.0423C10.4617 17.0423 10.3536 17.0423 10.2273 17.0243L10.1191 19.1338C10.2634 19.1338 10.4257 19.1519 10.5699 19.1519C13.0942 19.1519 15.384 18.1241 17.043 16.4653L15.5465 14.9688C14.2844 16.267 12.5353 17.0423 10.588 17.0423Z" fill="url(#paint2_linear_2297_154217)"/>
<path id="Vector_6" d="M14.5547 4.20333L16.3398 2.88708C14.7711 1.62495 12.7698 0.849609 10.5879 0.849609V2.9592C12.0664 2.97723 13.4367 3.42802 14.5547 4.20333Z" fill="url(#paint3_linear_2297_154217)"/>
<path id="Vector_7" d="M19.7481 10.0041C19.7481 9.44512 19.694 8.90419 19.6038 8.36328L17.6385 9.82378V10.0041C17.6385 12.0776 16.7369 13.9347 15.3125 15.215L16.7369 16.7837C18.5761 15.1249 19.7481 12.6909 19.7481 10.0041Z" fill="#21A038"/>
<path id="Vector_8" d="M10.5882 17.0408C8.51466 17.0408 6.65756 16.1393 5.37725 14.7148L3.80859 16.1393C5.48544 17.9964 7.90141 19.1504 10.5883 19.1504L10.5882 17.0408Z" fill="url(#paint4_linear_2297_154217)"/>
<path id="Vector_9" d="M5.88283 4.79525L4.45839 3.22656C2.60123 4.90341 1.44727 7.31938 1.44727 10.0059H3.55686C3.55686 7.95044 4.45839 6.07556 5.88283 4.79525Z" fill="url(#paint5_linear_2297_154217)"/>
</g>
<defs>
<linearGradient id="paint0_linear_2297_154217" x1="3.90822" y1="16.2183" x2="1.75483" y2="9.99375" gradientUnits="userSpaceOnUse">
<stop offset="0.1444" stop-color="#F2E913"/>
<stop offset="0.3037" stop-color="#E7E518"/>
<stop offset="0.5823" stop-color="#CADB26"/>
<stop offset="0.891" stop-color="#A3CD39"/>
</linearGradient>
<linearGradient id="paint1_linear_2297_154217" x1="4.72559" y1="3.30358" x2="10.1961" y2="1.21898" gradientUnits="userSpaceOnUse">
<stop offset="0.0592" stop-color="#0FA8E0"/>
<stop offset="0.5385" stop-color="#0099F9"/>
<stop offset="0.9234" stop-color="#0291EB"/>
</linearGradient>
<linearGradient id="paint2_linear_2297_154217" x1="9.99628" y1="17.3606" x2="16.5165" y2="15.887" gradientUnits="userSpaceOnUse">
<stop offset="0.1226" stop-color="#A3CD39"/>
<stop offset="0.2846" stop-color="#86C339"/>
<stop offset="0.8693" stop-color="#21A038"/>
</linearGradient>
<linearGradient id="paint3_linear_2297_154217" x1="10.1506" y1="2.19887" x2="15.5728" y2="3.872" gradientUnits="userSpaceOnUse">
<stop offset="0.0566" stop-color="#0291EB"/>
<stop offset="0.79" stop-color="#0C8ACB"/>
</linearGradient>
<linearGradient id="paint4_linear_2297_154217" x1="4.33723" y1="16.4866" x2="10.1597" y2="18.6629" gradientUnits="userSpaceOnUse">
<stop offset="0.1324" stop-color="#F2E913"/>
<stop offset="0.2977" stop-color="#EBE716"/>
<stop offset="0.5306" stop-color="#D9E01F"/>
<stop offset="0.8023" stop-color="#BBD62D"/>
<stop offset="0.9829" stop-color="#A3CD39"/>
</linearGradient>
<linearGradient id="paint5_linear_2297_154217" x1="3.05067" y1="10.2645" x2="5.37907" y2="4.20772" gradientUnits="userSpaceOnUse">
<stop offset="0.0698" stop-color="#A3CD39"/>
<stop offset="0.2599" stop-color="#81C55F"/>
<stop offset="0.9216" stop-color="#0FA8E0"/>
</linearGradient>
</defs>
</svg>
