<svg width="96" height="76" viewBox="0 0 96 76" fill="none" xmlns="http://www.w3.org/2000/svg">
<g filter="url(#filter0_d_489_152207)">
<path d="M70.189 30.1426H68.9721L26.1179 33.0456L25.1953 33.8012L41.9615 39.1859C41.9615 39.1859 59.5789 38.7723 70.1811 30.1426H70.189Z" fill="#404C29"/>
<path d="M70.9821 24.9968C63.5296 32.5289 45.1487 34.2946 41.3946 33.8015C35.7396 33.0538 30.3152 30.103 27.0383 28.0112C27.0383 28.0112 27.0224 28.0112 27.0144 27.9953C25.8611 27.2636 24.9862 26.6432 24.4852 26.2694C24.3499 26.1739 24.2386 26.0864 24.1591 26.0308C24.1034 25.991 24.0557 25.9512 24 25.9035C24.1591 25.9353 24.3102 25.9592 24.4772 25.9831H24.4852C24.4852 25.9831 24.509 25.9831 24.5329 25.991C32.2877 27.0329 49.6107 20.1133 49.6107 20.1133C52.8001 21.6563 58.0415 22.8652 62.5433 23.6924C62.5433 23.6924 62.5274 23.7242 62.5115 23.7719C62.4876 23.8435 62.4717 23.9628 62.5115 24.098C62.5433 24.2651 62.6547 24.4639 62.9251 24.6628C63.1398 24.8139 63.4977 24.8139 63.8795 24.7502C64.309 24.6707 64.7703 24.5116 65.0964 24.3764C65.2873 24.3048 65.4305 24.2412 65.502 24.2014C68.6835 24.7184 70.9821 24.9888 70.9821 24.9888V24.9968Z" fill="url(#paint0_linear_489_152207)"/>
<path d="M70.9821 24.9971L70.2901 29.0296C70.2901 29.0296 58.3755 38.4467 41.8956 37.7467L41.3945 33.8097C41.3945 33.8097 63.1795 32.6882 70.9821 25.005V24.9971Z" fill="url(#paint1_linear_489_152207)"/>
<path d="M41.9658 39.1859C41.9658 39.1859 62.351 35.1852 70.1853 30.1426L68.9764 42.0333C68.9764 42.0333 55.1291 46.3203 42.3715 47.3781L41.9658 39.1859Z" fill="url(#paint2_linear_489_152207)"/>
<path d="M41.8936 37.7385C34.0513 36.9749 24.8967 32.4732 24.8967 32.4732L24.6103 30.3575L24.0059 25.8955C24.0615 25.9432 24.1092 25.983 24.1649 26.0228C24.2683 26.1103 24.3797 26.1978 24.491 26.2773C25.2864 26.8818 26.1374 27.4544 27.0203 27.9953C27.0282 27.9953 27.0362 28.0032 27.0441 28.0112C33.3434 31.813 41.4005 33.8014 41.4005 33.8014L41.9015 37.7385H41.8936Z" fill="url(#paint3_linear_489_152207)"/>
<path d="M41.9674 39.1854C41.9674 39.1854 30.6415 34.9461 25.2012 33.8008L26.9669 44.5541C26.9669 44.5541 38.269 47.3299 42.373 47.3856L41.9674 39.1933V39.1854Z" fill="url(#paint4_linear_489_152207)"/>
<path d="M40.4551 40.9447L42.0856 41.5014C42.0856 41.5014 58.0485 38.2325 69.8119 33.8818C69.8119 33.8818 55.8772 39.6403 42.0458 40.6981L40.463 40.9526L40.4551 40.9447Z" fill="#404C29"/>
<path d="M52.0267 28.2809C47.2466 30.1023 41.003 27.3185 43.8186 25.8789C48.8214 23.3099 56.9341 26.4118 52.0267 28.2809Z" fill="url(#paint5_linear_489_152207)"/>
<path d="M64.4448 27.2391C60.5237 26.5472 62.7586 25.2666 63.8722 24.7496C63.4904 24.8133 63.1325 24.8133 62.9177 24.6622C62.6473 24.4713 62.5359 24.2724 62.5041 24.0974L52.0292 21.7432C50.3669 22.2204 48.975 22.4192 47.9251 22.4829C46.5093 22.5624 45.714 22.4113 45.714 22.4113C43.3359 23.3339 31.1429 26.3722 31.1429 26.3722C34.9925 27.8834 29.9658 28.7742 29.9658 28.7742L37.6967 32.067C44.346 30.8024 45.3243 32.6237 45.3243 32.6237C54.2164 32.9896 64.9777 27.3187 64.9777 27.3187C64.7868 27.2948 64.6118 27.263 64.4448 27.2391ZM53.4608 28.806C46.8275 31.3114 38.1262 27.4698 42.0235 25.4575C43.9881 24.4395 46.2946 24.0577 48.4421 24.0815C53.4608 24.1452 57.6126 26.4597 54.5664 28.289C54.2721 28.464 53.9062 28.639 53.4688 28.806H53.4608Z" fill="#D8EC38"/>
<path d="M52.0267 28.2809C47.2466 30.1023 41.003 27.3185 43.8186 25.8789C48.8214 23.3099 56.9341 26.4118 52.0267 28.2809Z" fill="url(#paint6_linear_489_152207)"/>
<path d="M52.0267 28.2809C47.2466 30.1023 41.003 27.3185 43.8186 25.8789C48.8214 23.3099 56.9341 26.4118 52.0267 28.2809Z" fill="#D8EC38"/>
<path d="M42.085 41.4999C42.085 41.4999 63.4564 37.8969 71.9986 33.8803L69.875 33.252L69.8113 33.8803C69.8113 33.8803 62.5894 37.4992 42.085 41.4999Z" fill="url(#paint7_linear_489_152207)"/>
<g style="mix-blend-mode:multiply" opacity="0.3">
<path d="M42.7698 45.8678C42.038 45.7564 44.5514 41.1115 52.8391 38.6936C61.4449 36.1723 68.7065 34.8281 68.7065 34.8281C68.7065 34.8281 69.0963 38.4152 64.9604 41.5569C61.0154 44.5475 47.4783 46.5995 42.7777 45.8678H42.7698Z" fill="#91A674"/>
</g>
<g style="mix-blend-mode:multiply" opacity="0.3">
<path d="M27.2447 42.5668C27.9526 43.9746 40.583 47.2913 41.4818 47.339C42.3805 47.3867 41.8318 42.6861 41.8556 41.851C41.8715 41.0079 27.6345 38.6298 27.1414 38.4389C26.6483 38.248 41.0045 40.6898 41.5136 40.4671C42.0306 40.2364 35.5245 37.2617 31.4204 36.013C27.2368 34.7404 25.4473 34.3428 25.4473 34.3428C25.4473 34.3428 26.3539 40.7852 27.2527 42.5668H27.2447Z" fill="#9193BA"/>
</g>
<g style="mix-blend-mode:multiply" opacity="0.5">
<path d="M25.4404 28.8858C25.7109 27.0645 39.7967 33.5308 40.8466 34.0796C41.6658 34.5011 41.9601 37.5792 40.7909 37.5076C39.6217 37.428 27.2936 36.1077 25.4404 28.8938V28.8858Z" fill="#9193BA"/>
</g>
<g style="mix-blend-mode:multiply" opacity="0.3">
<path d="M44.791 40.4253C44.4649 39.6697 64.7467 33.4659 67.8009 31.8672C70.9266 30.2208 69.0018 33.8795 69.0018 33.8795C69.0018 33.8795 57.819 38.7074 44.791 40.4253Z" fill="#91A674"/>
</g>
<g style="mix-blend-mode:multiply" opacity="0.3">
<path d="M42.6828 33.7132C42.6828 33.7132 48.9741 36.9583 54.8359 35.6221C60.817 34.262 66.7505 32.369 68.1264 30.5158C69.5422 28.6149 70.5125 25.4414 70.5125 25.4414C70.5125 25.4414 59.0116 33.8007 42.6748 33.7052L42.6828 33.7132Z" fill="#91A674"/>
</g>
<g style="mix-blend-mode:multiply" opacity="0.5">
<path d="M36.6134 36.7832C36.6134 36.7832 41.4015 38.7318 42.1412 38.9068C42.8889 39.0818 49.2756 37.5468 49.2756 37.5468C49.2756 37.5468 42.8411 38.7796 36.6055 36.7832H36.6134Z" fill="#912774"/>
</g>
<g style="mix-blend-mode:multiply" opacity="0.5">
<path d="M26.116 33.0469C25.1934 33.8025 30.6973 35.3137 30.6973 35.3137L32.3357 35.5045L26.108 33.0469H26.116Z" fill="#912774"/>
</g>
<g style="mix-blend-mode:multiply" opacity="0.5">
<path d="M24.0059 25.8955C24.157 25.9273 24.316 25.9512 24.4831 25.975V26.2614V26.2773L24.6103 30.3575L24.0059 25.8955Z" fill="#9193BA"/>
</g>
<g style="mix-blend-mode:multiply" opacity="0.5">
<path d="M49.6119 20.1133C49.6119 20.1133 49.0631 21.1234 39.4153 24.2492C30.6822 27.0807 25.1544 26.1103 24.542 25.991C32.2968 27.0329 49.6198 20.1133 49.6198 20.1133H49.6119Z" fill="#9193BA"/>
</g>
<g style="mix-blend-mode:multiply" opacity="0.5">
<path d="M69.0086 25.8941C68.5791 26.2123 66.7657 26.7531 64.4432 27.2383C61.389 27.8746 57.444 28.4234 54.5569 28.2802C53.0457 28.2086 51.8288 27.9462 51.1766 27.3974C49.9438 26.3634 48.9893 25.1624 48.4326 24.0727C48.1462 23.4921 47.9633 22.9513 47.9235 22.482C47.8519 21.7503 48.1144 21.2094 48.7905 21.0186C48.7905 21.0186 56.593 22.4343 62.5185 23.7705C62.4946 23.8421 62.4787 23.9614 62.5185 24.0966C62.5503 24.2636 62.6616 24.4625 62.9321 24.6613C63.1468 24.8124 63.5047 24.8124 63.8865 24.7488C64.316 24.6693 64.7773 24.5102 65.1034 24.375C67.6963 25.0272 69.4302 25.5998 69.0245 25.8941H69.0086Z" fill="#91A674"/>
</g>
<g style="mix-blend-mode:multiply" opacity="0.5">
<path d="M68.9867 42.0322C68.9867 42.0322 65.2008 42.7401 58.2414 44.3706C51.6876 45.9056 42.3818 47.3771 42.3818 47.3771C42.3818 47.3771 58.313 45.5239 68.9867 42.0322Z" fill="#912774"/>
</g>
<g style="mix-blend-mode:multiply" opacity="0.5">
<path d="M26.9668 44.5547L42.373 47.3862C42.373 47.3862 34.9602 46.551 26.9668 44.5547Z" fill="#912774"/>
</g>
<g style="mix-blend-mode:multiply" opacity="0.5">
<path d="M42.5001 41.5015C42.5001 41.5015 62.0183 38.153 65.8997 37.8587C69.797 37.5645 69.6379 35.5045 69.6379 35.5045L69.7652 34.8125C69.7652 34.8125 61.7797 37.8508 42.4922 41.5015H42.5001Z" fill="#655174"/>
</g>
<path d="M72.0007 33.881V34.3423C72.0007 34.3423 61.3667 38.2953 48.0762 40.3871C48.0762 40.3871 63.4744 37.1977 72.0007 33.873V33.881Z" fill="url(#paint8_linear_489_152207)"/>
<g style="mix-blend-mode:multiply" opacity="0.5">
<path d="M35.8174 24.5996C35.8174 24.5996 42.7132 30.7796 50.293 32.6487C50.293 32.6487 50.6668 38.1606 50.4123 46.321C50.4123 46.321 50.9372 34.7166 50.5077 32.084C50.0782 29.4513 40.6293 24.6632 35.8174 24.5996Z" fill="#543404"/>
</g>
<path d="M47.8818 46.7283L51.3417 46.1875C51.3417 46.1875 50.761 47.5237 49.7112 47.6112C48.6613 47.6987 47.8818 46.7283 47.8818 46.7283Z" fill="#6B3381"/>
<path d="M57.7861 45.6945C57.7623 45.8376 57.7384 45.949 57.7146 46.0126C57.6589 46.1796 57.4759 46.3387 57.1896 46.4819C56.7999 46.6807 56.2272 46.8557 55.5671 47.0068C55.5591 47.0068 55.5432 47.0068 55.5352 47.0068C54.8751 47.1659 54.1195 47.2931 53.3878 47.3965C52.8788 47.4761 52.3856 47.5397 51.9323 47.5874C50.8665 47.7067 50.0154 47.7783 49.8087 47.7942C49.7768 47.7942 49.7609 47.7942 49.7609 47.7942C49.7609 47.7942 50.262 47.5556 50.5483 45.257C50.8426 42.9505 51.121 33.0721 50.6199 31.7995C48.9178 27.4966 36.0488 24.0526 36.0488 24.0526C36.0488 24.0526 36.701 23.7424 37.735 23.3845C38.8883 22.9869 40.5108 22.5255 42.2447 22.3983H42.2606C42.3481 22.3983 42.4515 22.3824 42.539 22.3824C43.0958 22.3506 43.6605 22.3585 44.2172 22.4062C45.8636 22.5573 48.1384 23.3289 50.6915 24.2515C54.3104 25.5479 58.1599 27.2182 58.6133 28.5703C59.353 30.7496 58.2554 43.2288 57.7941 45.6786L57.7861 45.6945Z" fill="url(#paint9_linear_489_152207)"/>
<path d="M53.3775 47.4115C52.8685 47.491 52.3753 47.5546 51.922 47.6024C53.0991 47.3399 53.123 31.4724 52.7571 30.1441C52.3992 28.8079 41.4152 23.4631 37.7168 23.4074L39.0689 23.1768C39.0689 23.1768 52.1049 27.8058 53.7275 29.7942C55.3421 31.7746 53.6082 47.1092 53.3855 47.4115H53.3775Z" fill="url(#paint10_linear_489_152207)"/>
<path d="M57.1902 46.4887C56.8005 46.6876 56.2279 46.8626 55.5677 47.0137C55.5597 47.0137 55.5438 47.0137 55.5359 47.0137C55.4961 47.0137 55.4723 47.0137 55.4723 47.0137C56.6574 46.8148 56.6812 30.8837 56.3233 29.5475C55.9574 28.2113 44.8382 22.6358 41.1318 22.5801L42.2374 22.3972H42.2533L42.484 22.3574C42.484 22.3574 42.4999 22.3574 42.5317 22.3733C43.4145 22.6994 55.7188 27.2807 57.2857 29.1976C58.8207 31.0826 57.5163 44.8662 57.1982 46.4728L57.1902 46.4887Z" fill="url(#paint11_linear_489_152207)"/>
<path d="M35.8175 24.599C35.8175 24.599 46.6663 26.1341 50.5079 32.0834C50.5079 32.0834 50.8817 43.8627 50.4124 46.3204C49.9432 48.7781 47.8752 46.726 47.8752 46.726L47.0958 46.8771C47.0958 46.8771 49.8557 48.8019 50.4045 47.3385C50.9613 45.875 50.8419 33.9604 50.8181 32.0039C50.7942 30.0473 42.077 24.7104 36.0243 24.082L35.8096 24.607L35.8175 24.599Z" fill="#907A98"/>
<g style="mix-blend-mode:multiply" opacity="0.5">
<path d="M50.8245 32.0056C50.6893 29.8343 57.9828 28.6492 58.6031 29.3332C59.2235 30.0172 58.5475 44.7712 57.5055 46.0199C56.6545 47.0459 51.3255 47.6106 50.8245 47.3323C50.1166 46.9425 51.2381 38.6707 50.8245 31.9976V32.0056Z" fill="#925189"/>
</g>
<g style="mix-blend-mode:multiply" opacity="0.3">
<path d="M51.0249 31.822C50.4443 33.3014 53.8882 33.5718 56.0834 31.9174C58.2786 30.271 59.0183 29.3643 58.0161 29.1496C57.006 28.9348 51.7089 30.096 51.0329 31.814L51.0249 31.822Z" fill="#925189"/>
</g>
<g style="mix-blend-mode:multiply" opacity="0.2">
<path d="M49.5609 23.8686C45.3773 22.5642 42.5856 24.0754 42.4981 24.998C42.4106 25.9206 47.9145 28.3544 49.2746 29.627C50.6426 30.9075 57.3793 28.1874 57.4191 27.7817C57.4588 27.3761 53.2275 25.0139 49.553 23.8686H49.5609Z" fill="#D46BAA"/>
</g>
<g style="mix-blend-mode:multiply" opacity="0.8">
<path d="M57.7864 45.7021C57.7625 45.8453 57.7387 45.9567 57.7148 46.0203C57.341 47.2054 50.4452 47.7621 49.793 47.8178C50.3259 47.7383 54.4061 47.3406 56.3865 46.6804C57.4205 46.3384 57.7466 45.7658 57.7784 45.7021H57.7864Z" fill="#925189"/>
</g>
<path d="M29.0352 29.124C29.0352 29.124 37.0763 32.5361 40.8304 33.244C44.5925 33.9519 50.3032 32.7986 50.3032 32.7986C50.3032 32.7986 44.0994 34.0791 41.3951 33.8008C38.6909 33.5224 29.0352 29.132 29.0352 29.132V29.124Z" fill="#C2E238"/>
<path d="M39.6699 40.8401C39.6699 40.8401 41.4595 41.54 42.0878 41.5002C42.7161 41.4684 47.4963 40.3867 47.4963 40.3867C47.4963 40.3867 42.2707 41.4684 39.6778 40.8321L39.6699 40.8401Z" fill="#A7B138"/>
<path d="M61.46 36.7838C61.46 36.7838 64.2596 36.076 66.081 35.7658C67.9024 35.4476 71.736 33.8012 71.736 33.8012C71.736 33.8012 70.3203 33.3797 70.0976 33.316C69.8749 33.2524 69.8113 33.8808 69.8113 33.8808C69.8113 33.8808 64.1085 36.2907 61.46 36.7838Z" fill="#C2D138"/>
<path d="M26.114 33.0469L24.3086 33.882C24.3086 33.882 29.892 34.9637 33.9563 36.3635L26.0186 33.4764L26.122 33.0548L26.114 33.0469Z" fill="#91A622"/>
<path d="M24.3086 33.8818L24.5392 34.6692C24.5392 34.6692 36.3265 36.761 41.9736 39.1949C41.9736 39.1949 31.9122 35.0272 24.3165 33.8898L24.3086 33.8818Z" fill="url(#paint12_linear_489_152207)"/>
<g style="mix-blend-mode:multiply" opacity="0.5">
<path d="M26.0117 37.8497C26.0117 37.8497 33.345 39.6313 36.9002 39.9176C40.4555 40.2039 27.9842 37.5792 26.0117 37.8497Z" fill="#9193BA"/>
</g>
<path d="M62.5122 23.7803C62.5122 23.7803 62.9894 25.0688 64.429 24.6711C64.429 24.6711 62.3054 25.363 62.5122 23.7803Z" fill="url(#paint13_linear_489_152207)"/>
<path d="M62.1045 29.9684C61.3568 30.032 62.9635 28.9344 64.2759 29.1412C64.2759 29.1412 62.3988 29.9445 62.1045 29.9684Z" fill="#526800"/>
<path d="M27.2764 28.1309C27.2764 28.1309 30.3623 28.2502 29.0341 29.1251L27.2764 28.1309Z" fill="#526800"/>
<path d="M29.3683 27.4296C28.7638 27.8909 29.7183 27.7796 29.9569 27.5807C30.1955 27.3819 29.7899 27.1115 29.3683 27.4296Z" fill="#526800"/>
<path d="M65.1934 36.5292C65.1934 36.5292 65.3047 35.9565 66.2353 35.6145C67.1659 35.2646 68.1044 35.6145 68.1044 35.6145C68.1044 35.6145 66.4739 36.3542 65.1934 36.5292Z" fill="#526100"/>
<g style="mix-blend-mode:multiply" opacity="0.5">
<path d="M38.6509 33.5012C37.5453 33.3819 41.0767 36.6429 41.4664 36.9372C41.8562 37.2315 41.6414 35.0442 41.0529 34.2727C40.4643 33.5012 38.6509 33.5012 38.6509 33.5012Z" fill="#9193BA"/>
</g>
<g style="mix-blend-mode:multiply" opacity="0.5">
<path d="M35.6515 40.0996C34.1244 39.9246 38.7931 43.7423 39.9305 44.5536C41.0679 45.3649 41.8633 42.6129 41.7519 42.0403C41.6406 41.4597 37.7751 40.3382 35.6515 40.0996Z" fill="#9193BA"/>
</g>
<g style="mix-blend-mode:multiply" opacity="0.5">
<path d="M70.9831 24.9971C70.9831 24.9971 69.6469 26.3253 68.4379 27.0014C67.229 27.6695 69.4162 27.1127 69.8775 27.2082C70.3388 27.3036 70.2832 29.0296 70.2832 29.0296C70.2832 29.0296 70.832 26.3094 70.9751 24.9971H70.9831Z" fill="#9193BA"/>
</g>
</g>
<defs>
<filter id="filter0_d_489_152207" x="0" y="0.113281" width="96.001" height="75.7744" filterUnits="userSpaceOnUse" color-interpolation-filters="sRGB">
<feFlood flood-opacity="0" result="BackgroundImageFix"/>
<feColorMatrix in="SourceAlpha" type="matrix" values="0 0 0 0 0 0 0 0 0 0 0 0 0 0 0 0 0 0 127 0" result="hardAlpha"/>
<feOffset dy="4"/>
<feGaussianBlur stdDeviation="12"/>
<feComposite in2="hardAlpha" operator="out"/>
<feColorMatrix type="matrix" values="0 0 0 0 0.576042 0 0 0 0 1 0 0 0 0 0.3125 0 0 0 0.5 0"/>
<feBlend mode="normal" in2="BackgroundImageFix" result="effect1_dropShadow_489_152207"/>
<feBlend mode="normal" in="SourceGraphic" in2="effect1_dropShadow_489_152207" result="shape"/>
</filter>
<linearGradient id="paint0_linear_489_152207" x1="24.008" y1="26.9932" x2="70.9821" y2="26.9932" gradientUnits="userSpaceOnUse">
<stop stop-color="#84A61D"/>
<stop offset="1" stop-color="#B5CE45"/>
</linearGradient>
<linearGradient id="paint1_linear_489_152207" x1="41.3945" y1="31.3838" x2="70.9821" y2="31.3838" gradientUnits="userSpaceOnUse">
<stop stop-color="#848D04"/>
<stop offset="1" stop-color="#829A45"/>
</linearGradient>
<linearGradient id="paint2_linear_489_152207" x1="41.9658" y1="38.7564" x2="70.1853" y2="38.7564" gradientUnits="userSpaceOnUse">
<stop stop-color="#848D04"/>
<stop offset="1" stop-color="#829A45"/>
</linearGradient>
<linearGradient id="paint3_linear_489_152207" x1="24.0059" y1="31.821" x2="41.8936" y2="31.821" gradientUnits="userSpaceOnUse">
<stop stop-color="#427038"/>
<stop offset="0.99" stop-color="#635C06"/>
</linearGradient>
<linearGradient id="paint4_linear_489_152207" x1="25.2012" y1="40.5932" x2="42.373" y2="40.5932" gradientUnits="userSpaceOnUse">
<stop stop-color="#427038"/>
<stop offset="0.99" stop-color="#635C06"/>
</linearGradient>
<linearGradient id="paint5_linear_489_152207" x1="43.1107" y1="26.889" x2="53.5459" y2="26.889" gradientUnits="userSpaceOnUse">
<stop stop-color="#D8EC38"/>
<stop offset="0.99" stop-color="#FFF47C"/>
</linearGradient>
<linearGradient id="paint6_linear_489_152207" x1="43.1107" y1="26.889" x2="53.5459" y2="26.889" gradientUnits="userSpaceOnUse">
<stop stop-color="#84A61D"/>
<stop offset="1" stop-color="#B5CE45"/>
</linearGradient>
<linearGradient id="paint7_linear_489_152207" x1="42.085" y1="37.3719" x2="71.9986" y2="37.3719" gradientUnits="userSpaceOnUse">
<stop stop-color="#84A61D"/>
<stop offset="1" stop-color="#B5CE45"/>
</linearGradient>
<linearGradient id="paint8_linear_489_152207" x1="48.0762" y1="37.134" x2="72.0007" y2="37.134" gradientUnits="userSpaceOnUse">
<stop stop-color="#848D04"/>
<stop offset="1" stop-color="#829A45"/>
</linearGradient>
<linearGradient id="paint9_linear_489_152207" x1="47.4464" y1="47.8181" x2="47.4464" y2="22.3744" gradientUnits="userSpaceOnUse">
<stop stop-color="#F8E1F2"/>
<stop offset="1" stop-color="white"/>
</linearGradient>
<linearGradient id="paint10_linear_489_152207" x1="46.0602" y1="47.6024" x2="46.0602" y2="23.1768" gradientUnits="userSpaceOnUse">
<stop stop-color="#DE0086"/>
<stop offset="1" stop-color="#FF003B"/>
</linearGradient>
<linearGradient id="paint11_linear_489_152207" x1="49.5627" y1="47.0296" x2="49.5627" y2="22.3733" gradientUnits="userSpaceOnUse">
<stop stop-color="#DE0086"/>
<stop offset="1" stop-color="#FF003B"/>
</linearGradient>
<linearGradient id="paint12_linear_489_152207" x1="24.3086" y1="36.5304" x2="41.9656" y2="36.5304" gradientUnits="userSpaceOnUse">
<stop stop-color="#427038"/>
<stop offset="0.99" stop-color="#635C06"/>
</linearGradient>
<linearGradient id="paint13_linear_489_152207" x1="62.5043" y1="24.2973" x2="64.429" y2="24.2973" gradientUnits="userSpaceOnUse">
<stop stop-color="#427038"/>
<stop offset="0.99" stop-color="#635C06"/>
</linearGradient>
</defs>
</svg>
