<svg width="46" height="20" viewBox="0 0 46 20" fill="none" xmlns="http://www.w3.org/2000/svg">
<g clip-path="url(#clip0_2365_137789)">
<path d="M40.6947 5.61557V10.5052H38.6784V7.07523H36.737V10.5052H34.7207V5.61523H40.6947V5.61557Z" fill="white"/>
<path fill-rule="evenodd" clip-rule="evenodd" d="M30.5804 10.6789C32.3854 10.6789 33.7258 9.72053 33.7258 8.26769C33.7258 6.86153 32.7369 5.94853 31.0841 5.94853C30.3214 5.94853 29.692 6.18103 29.218 6.58219C29.3311 5.75303 30.1408 5.14769 31.0324 5.14769C31.2381 5.14769 32.7871 5.14486 32.7871 5.14486L33.663 3.69336C33.663 3.69336 31.7183 3.73169 30.8143 3.73169C28.7487 3.76286 27.3535 5.38869 27.3535 7.36336C27.3535 9.66386 28.7143 10.6789 30.5804 10.6789ZM30.5914 7.23419C31.2616 7.23419 31.7262 7.61553 31.7262 8.26753C31.7262 8.85436 31.3134 9.33786 30.5914 9.33919C29.9008 9.33919 29.4362 8.89119 29.4362 8.27753C29.4362 7.62536 29.9008 7.23419 30.5914 7.23419Z" fill="white"/>
<path d="M25.7127 8.86742C25.7127 8.86742 25.2366 9.10508 24.5254 9.15008C23.7078 9.17108 22.9793 8.72392 22.9793 7.92942C22.9793 7.15442 23.6221 6.71025 24.5048 6.71025C25.046 6.71025 25.762 7.03508 25.762 7.03508C25.762 7.03508 26.2859 6.20258 26.5573 5.78625C26.0603 5.46008 25.3984 5.28125 24.6285 5.28125C22.6856 5.28125 21.1807 6.37825 21.1807 7.91958C21.1807 9.48058 22.5951 10.5521 24.6285 10.5197C25.1969 10.5014 25.981 10.3286 26.4589 10.0627L25.7127 8.86742Z" fill="white"/>
<path d="M0 4.35352L2.79695 8.68268V11.3233L0.00327197 15.644L0 4.35352Z" fill="#5B57A2"/>
<path d="M10.7393 7.10627L13.3601 5.71527L18.7238 5.71094L10.7393 9.9466V7.10627Z" fill="#D90751"/>
<path d="M10.7242 4.32783L10.739 10.0595L7.93555 8.56783V0L10.7242 4.32783Z" fill="#FAB718"/>
<path d="M18.7236 5.71183L13.3597 5.71617L10.7242 4.32783L7.93555 0L18.7236 5.71183Z" fill="#ED6F26"/>
<path d="M10.739 15.668V12.8872L7.93555 11.4238L7.93709 20.0002L10.739 15.668Z" fill="#63B22F"/>
<path d="M13.3535 14.2897L2.79676 8.68268L0 4.35352L18.7124 14.284L13.3535 14.2897Z" fill="#1487C9"/>
<path d="M7.9375 19.9994L10.7391 15.6672L13.3534 14.2889L18.7123 14.2832L7.9375 19.9994Z" fill="#017F36"/>
<path d="M0.00292969 15.643L7.95824 11.423L5.28369 10.002L2.79661 11.3223L0.00292969 15.643Z" fill="#984995"/>
<path d="M22.9799 13.796C22.9183 13.864 22.8372 13.9153 22.7401 13.95C22.6403 13.9851 22.5336 14.003 22.4259 14.0026C22.3189 14.0039 22.2124 13.9884 22.1116 13.957C22.0212 13.9285 21.9385 13.8841 21.8687 13.8266C21.7999 13.769 21.7459 13.6995 21.7101 13.6226C21.6715 13.5384 21.6522 13.4484 21.6534 13.3578C21.6534 13.2678 21.6713 13.1845 21.7084 13.1055C21.744 13.0263 21.7958 12.9585 21.8607 12.9015C21.9255 12.8433 22.0033 12.799 22.0907 12.7643C22.1798 12.731 22.277 12.713 22.3838 12.713C22.4989 12.713 22.6057 12.7255 22.7029 12.7503C22.8001 12.7753 22.8827 12.817 22.9506 12.8753L22.8324 13.0486C22.7753 13.0038 22.708 12.9697 22.6348 12.9486C22.5652 12.9292 22.4925 12.9194 22.4194 12.9196C22.3547 12.9196 22.2931 12.9306 22.2333 12.9515C22.1743 12.972 22.1204 13.0022 22.0745 13.0403C22.0276 13.0795 21.9906 13.1267 21.9659 13.179C21.9384 13.233 21.9255 13.2926 21.9255 13.3591C21.9255 13.4271 21.94 13.4881 21.9675 13.5408C21.9952 13.595 22.0323 13.6408 22.0793 13.6795C22.1263 13.7185 22.1813 13.7475 22.2444 13.767C22.3078 13.7878 22.3742 13.7975 22.4454 13.7975C22.5328 13.7975 22.6123 13.7821 22.6802 13.753C22.7475 13.7248 22.808 13.6858 22.8584 13.638L22.9799 13.796ZM23.3134 13.9735V12.7393H23.5694V13.6588L24.4018 12.7393H24.6578V13.9736H24.4018V13.0541L23.5694 13.9736H23.3134V13.9735ZM26.3535 13.796C26.2905 13.8645 26.2079 13.9176 26.1138 13.95C26.014 13.9851 25.9073 14.003 25.7995 14.0026C25.6925 14.0039 25.5861 13.9884 25.4854 13.957C25.3949 13.9285 25.3121 13.8841 25.2423 13.8266C25.1735 13.769 25.1195 13.6995 25.0837 13.6226C25.0451 13.5384 25.0258 13.4484 25.027 13.3578C25.027 13.2678 25.0449 13.1845 25.082 13.1055C25.1178 13.0263 25.1696 12.9585 25.2343 12.9015C25.2991 12.8433 25.3769 12.799 25.4642 12.7643C25.5565 12.7291 25.6565 12.7116 25.7574 12.713C25.8725 12.713 25.9793 12.7255 26.0765 12.7503C26.1737 12.7753 26.2563 12.817 26.3244 12.8753L26.206 13.0486C26.149 13.0037 26.0817 12.9697 26.0086 12.9486C25.939 12.9292 25.8663 12.9194 25.7932 12.9196C25.6645 12.92 25.541 12.9632 25.4481 13.0403C25.4016 13.0798 25.3647 13.1269 25.3395 13.179C25.312 13.233 25.2991 13.2926 25.2991 13.3591C25.2991 13.4271 25.3137 13.4881 25.3413 13.5408C25.3688 13.595 25.4059 13.6408 25.4529 13.6795C25.4999 13.7185 25.5551 13.7475 25.6182 13.767C25.6814 13.7863 25.7478 13.7975 25.819 13.7975C25.9065 13.7975 25.9843 13.7821 26.0538 13.753C26.1211 13.7248 26.1816 13.6858 26.232 13.638L26.3535 13.796ZM26.4847 12.7393H27.7981V12.9585H27.2702V13.9735H27.0142V12.9585H26.4863V12.7393H26.4847Z" fill="white"/>
<path fill-rule="evenodd" clip-rule="evenodd" d="M28.9931 13.9604C29.0903 13.9341 29.1729 13.8938 29.2441 13.8384L29.1664 13.6664C29.1194 13.7026 29.0563 13.7331 28.9802 13.7581C28.904 13.7831 28.8182 13.7954 28.7243 13.7954C28.5834 13.7954 28.4667 13.7636 28.3743 13.6984C28.2822 13.6331 28.2319 13.5418 28.2206 13.4251H29.3284C29.3398 13.3821 29.3446 13.3336 29.3446 13.2768C29.3446 13.1921 29.3267 13.1159 29.2911 13.0466C29.2579 12.9793 29.2095 12.9184 29.1486 12.8676C29.087 12.8173 29.0143 12.7782 28.9348 12.7526C28.8517 12.7247 28.7632 12.7105 28.674 12.7109C28.5541 12.7109 28.4488 12.7289 28.3566 12.7623C28.2695 12.794 28.1906 12.8408 28.1249 12.8996C28.0611 12.9582 28.0121 13.0276 27.9809 13.1034C27.9467 13.1842 27.9297 13.2697 27.9307 13.3558C27.9307 13.4529 27.9501 13.5416 27.9858 13.6208C28.0204 13.6975 28.0734 13.7669 28.1413 13.8246C28.2077 13.8813 28.2885 13.9244 28.3842 13.9549C28.4866 13.9864 28.5946 14.0019 28.7033 14.0006C28.8017 14.0001 28.8994 13.9864 28.9931 13.9604ZM28.3453 13.0104C28.4246 12.9481 28.5299 12.9176 28.6627 12.9176C28.7874 12.9176 28.8879 12.9468 28.9608 13.0051C29.0337 13.0633 29.0724 13.1438 29.079 13.2463H28.2044C28.2168 13.1555 28.2669 13.0716 28.3453 13.0104Z" fill="white"/>
<path d="M29.6924 12.7383H29.9257L30.4796 13.3499L31.0043 12.7383H31.231V13.9726H30.9752V13.0726L30.4763 13.6453H30.4665L29.9484 13.0724V13.9724H29.6924V12.7383Z" fill="white"/>
<path fill-rule="evenodd" clip-rule="evenodd" d="M31.9277 12.7437C31.8501 12.7613 31.7758 12.7888 31.7076 12.8254L31.7755 13.0004C31.8338 12.9754 31.8921 12.9546 31.9505 12.9366C32.0088 12.9184 32.0833 12.9101 32.1724 12.9101C32.2436 12.9101 32.3004 12.9199 32.3441 12.9392C32.3877 12.9572 32.4201 12.9851 32.4428 13.0184C32.4655 13.0517 32.4801 13.0932 32.4882 13.1417C32.4963 13.1902 32.4996 13.2429 32.4996 13.2999C32.4472 13.2683 32.3875 13.247 32.3246 13.2374C32.2638 13.2269 32.202 13.2213 32.14 13.2207C32.0638 13.2207 31.9926 13.2306 31.9245 13.2471C31.8565 13.2637 31.7982 13.2887 31.7512 13.3221C31.7033 13.3553 31.6646 13.3975 31.6379 13.4454C31.6094 13.4979 31.5949 13.5552 31.5957 13.6132C31.5957 13.7339 31.6363 13.8282 31.7172 13.8949C31.7982 13.9614 31.905 13.9946 32.0378 13.9946C32.1577 13.9946 32.2534 13.9766 32.3262 13.9406C32.3991 13.9044 32.4574 13.8629 32.4996 13.8157V13.9752H32.7392V13.2181C32.7392 13.0571 32.6988 12.9324 32.6162 12.8449C32.5352 12.7576 32.391 12.7132 32.187 12.7132C32.0962 12.7132 32.0103 12.7242 31.9277 12.7437ZM32.3556 13.7437C32.2973 13.7797 32.2211 13.7962 32.1271 13.7962C32.0446 13.7962 31.9797 13.7782 31.9345 13.7436C31.8891 13.7076 31.8663 13.6604 31.8663 13.6021C31.8663 13.5676 31.8744 13.5384 31.8923 13.5121C31.9102 13.4857 31.9345 13.4649 31.962 13.4482C31.9921 13.4308 32.0255 13.4181 32.0607 13.4107C32.0981 13.4024 32.1352 13.3982 32.1741 13.3982C32.3006 13.3982 32.4089 13.4246 32.498 13.4801V13.6367C32.456 13.6775 32.4082 13.7135 32.3556 13.7437ZM34.9988 12.3054C35.0505 12.2847 35.099 12.2501 35.1445 12.1987L35.0051 12.0254C34.9695 12.0671 34.9291 12.0961 34.8837 12.1114C34.8355 12.1277 34.7856 12.1397 34.7347 12.1474L34.6862 12.1549C34.6441 12.1612 34.5988 12.1682 34.5501 12.1752C34.472 12.1877 34.3959 12.2082 34.3234 12.2362C34.2083 12.2792 34.1161 12.3374 34.0464 12.4109C33.9768 12.4844 33.9217 12.5676 33.8844 12.6592C33.8466 12.7521 33.821 12.8484 33.8084 12.9462C33.7953 13.0462 33.7889 13.1417 33.7889 13.2332C33.7889 13.3512 33.8066 13.4579 33.8422 13.5536C33.878 13.6494 33.9281 13.7297 33.9945 13.7949C34.0609 13.8616 34.1404 13.9116 34.2343 13.9476C34.3282 13.9836 34.4335 14.0016 34.5517 14.0016C34.6602 14.0016 34.7607 13.9836 34.8513 13.9502C34.9387 13.9182 35.018 13.8716 35.0846 13.8131C35.1493 13.7561 35.2012 13.6881 35.2369 13.6119C35.274 13.5356 35.2919 13.4537 35.2919 13.3677C35.2919 13.2749 35.2757 13.1904 35.2449 13.1154C35.2166 13.0439 35.1713 12.9783 35.1121 12.9227C35.0528 12.8681 34.9803 12.8254 34.8998 12.7977C34.8112 12.7675 34.7166 12.7524 34.6213 12.7534C34.5598 12.7534 34.4999 12.7604 34.4416 12.7742C34.3848 12.7881 34.3304 12.8081 34.2795 12.8339C34.2302 12.8584 34.1849 12.8887 34.1452 12.9239C34.1063 12.9587 34.074 12.9976 34.0512 13.0419H34.0447C34.0497 12.9851 34.0578 12.9269 34.0722 12.8672C34.0869 12.8076 34.1078 12.7506 34.1355 12.6966C34.1631 12.6426 34.1987 12.5939 34.2424 12.5496C34.2892 12.5048 34.3467 12.4693 34.4108 12.4456C34.4813 12.4165 34.5559 12.3955 34.6327 12.3832L34.6835 12.3752C34.7341 12.3672 34.7824 12.3596 34.8286 12.3512C34.8902 12.3402 34.9468 12.3261 34.9988 12.3054ZM34.0982 13.4912C34.0732 13.4212 34.0611 13.3482 34.0626 13.2749C34.0735 13.2328 34.0932 13.1929 34.1209 13.1571C34.1484 13.1196 34.1841 13.0864 34.2262 13.0571C34.3213 12.9925 34.4389 12.9579 34.5597 12.9587C34.7105 12.9587 34.8238 12.9989 34.9031 13.0781C34.9826 13.1584 35.0215 13.2582 35.0215 13.3789C35.0215 13.4386 35.0084 13.4927 34.9859 13.5426C34.964 13.5917 34.9309 13.6366 34.8886 13.6744C34.8463 13.7123 34.7957 13.7425 34.7397 13.7631C34.6814 13.7852 34.6181 13.7964 34.5469 13.7964C34.4756 13.7964 34.4108 13.7839 34.3509 13.7589C34.2914 13.7344 34.2389 13.6989 34.1969 13.6549C34.1531 13.6059 34.1196 13.5504 34.0982 13.4912ZM37.2549 12.7396H36.9989V13.9739H37.2549V12.7396ZM35.6611 12.7396H35.917V13.1099H36.1536C36.2652 13.1099 36.3559 13.1224 36.4288 13.1459C36.5018 13.1696 36.5601 13.2014 36.6038 13.2402C36.6475 13.2791 36.6783 13.3249 36.6962 13.3761C36.7139 13.4274 36.7237 13.4801 36.7237 13.5356C36.7237 13.5911 36.7139 13.6439 36.6929 13.6966C36.6734 13.7492 36.6394 13.7949 36.594 13.8366C36.5487 13.8782 36.4871 13.9116 36.4094 13.9366C36.3316 13.9614 36.2377 13.9752 36.1243 13.9752H35.6595V12.7396H35.6611ZM35.917 13.3164V13.7686H36.1033C36.2313 13.7686 36.322 13.7492 36.3738 13.7102C36.4257 13.6714 36.4515 13.6161 36.4515 13.5426C36.4515 13.4676 36.424 13.4109 36.3722 13.3719C36.3187 13.3331 36.2296 13.3136 36.1066 13.3136H35.917V13.3164Z" fill="white"/>
<path d="M38.9467 13.796C38.8851 13.864 38.804 13.9153 38.7068 13.95C38.6071 13.9851 38.5004 14.003 38.3927 14.0026C38.2857 14.0039 38.1792 13.9884 38.0784 13.957C37.9879 13.9286 37.9052 13.8842 37.8355 13.8266C37.7667 13.769 37.7126 13.6995 37.6768 13.6226C37.6382 13.5384 37.619 13.4484 37.6202 13.3578C37.6202 13.2678 37.6379 13.1845 37.6752 13.1055C37.7108 13.0263 37.7626 12.9585 37.8275 12.9015C37.8923 12.8433 37.9699 12.799 38.0575 12.7643C38.1497 12.7291 38.2497 12.7116 38.3506 12.713C38.4655 12.713 38.5725 12.7255 38.6697 12.7503C38.7669 12.7753 38.8495 12.817 38.9174 12.8753L38.7992 13.0486C38.7421 13.0038 38.6748 12.9697 38.6016 12.9486C38.532 12.9292 38.4593 12.9194 38.3862 12.9196C38.3215 12.9196 38.2599 12.9306 38.1999 12.9515C38.141 12.972 38.0871 13.0022 38.0413 13.0403C37.9947 13.0797 37.9578 13.1269 37.9327 13.179C37.9052 13.233 37.8923 13.2926 37.8923 13.3591C37.8923 13.4271 37.9068 13.4881 37.9343 13.5408C37.9618 13.595 37.9991 13.6408 38.0461 13.6795C38.0931 13.7185 38.1481 13.7475 38.2112 13.767C38.2746 13.7863 38.341 13.7975 38.4122 13.7975C38.4996 13.7975 38.5773 13.7821 38.647 13.753C38.7143 13.7248 38.7748 13.6858 38.8252 13.638L38.9467 13.796ZM39.0777 12.7393H40.3913V12.9585H39.8632V13.9735H39.6074V12.9585H39.0795V12.7393H39.0777Z" fill="white"/>
<path fill-rule="evenodd" clip-rule="evenodd" d="M40.9269 12.7389H40.6709V14.5222H40.9269V13.9162C40.9787 13.9454 41.0402 13.9662 41.1115 13.98C41.1827 13.9939 41.2572 14.0007 41.3334 14.0007C41.4467 14.0007 41.5487 13.9827 41.6411 13.9495C41.7297 13.9167 41.81 13.8691 41.8775 13.8095C41.9439 13.7497 41.9941 13.6804 42.0297 13.5985C42.0653 13.5169 42.0832 13.4294 42.0832 13.3365C42.0832 13.2449 42.0671 13.1604 42.0363 13.084C42.0073 13.0115 41.9622 12.9447 41.9035 12.8872C41.8459 12.8311 41.7744 12.787 41.6944 12.7582C41.607 12.7257 41.5126 12.7096 41.4175 12.711C41.3172 12.711 41.2233 12.7277 41.1342 12.761C41.0451 12.7944 40.9754 12.8344 40.9269 12.8844V12.7389ZM41.1051 12.9677C41.1781 12.9344 41.2573 12.9177 41.3432 12.9177C41.4177 12.9177 41.4841 12.9274 41.5441 12.9482C41.6024 12.969 41.6509 12.9982 41.6916 13.037C41.732 13.0759 41.7628 13.1204 41.7822 13.1729C41.8032 13.2255 41.813 13.2825 41.813 13.3449C41.813 13.4115 41.7999 13.471 41.7774 13.5265C41.7562 13.5791 41.7225 13.6273 41.6785 13.668C41.6343 13.7082 41.5807 13.7399 41.5214 13.7609C41.4553 13.7848 41.3841 13.7967 41.3124 13.7955C41.2429 13.7955 41.1781 13.7887 41.1165 13.7749C41.049 13.759 40.9851 13.7336 40.9271 13.6999V13.0882C40.9723 13.0412 41.0324 13.001 41.1051 12.9677ZM44.0462 12.7387H43.7902V13.973H44.0462V12.7387ZM42.4508 12.7387H42.7068V13.109H42.9432C43.055 13.109 43.1457 13.1215 43.2186 13.145C43.2915 13.1687 43.3499 13.2005 43.3936 13.2394C43.4372 13.2782 43.468 13.324 43.4858 13.3752C43.5036 13.4265 43.5133 13.4792 43.5133 13.5347C43.5133 13.5902 43.5037 13.643 43.4827 13.6957C43.4632 13.7484 43.4292 13.794 43.3837 13.8357C43.3385 13.8774 43.2769 13.9107 43.1992 13.9357C43.1214 13.9605 43.0275 13.9744 42.9141 13.9744H42.4493V12.7387H42.4508ZM42.7086 13.3155V13.7677H42.8949C43.0227 13.7677 43.1135 13.7484 43.1653 13.7094C43.2171 13.6705 43.243 13.6152 43.243 13.5417C43.243 13.4667 43.2155 13.41 43.1637 13.371C43.1102 13.3322 43.0211 13.3127 42.8981 13.3127H42.7086V13.3155Z" fill="white"/>
<path d="M45.2741 13.3333L45.8215 13.9726H45.5073L45.0845 13.4733L44.6553 13.9726H44.3573L44.9015 13.3443L44.3897 12.7383H44.704L45.0943 13.2043L45.491 12.7383H45.7891L45.2741 13.3333ZM22.7905 15.4981H22.005V16.5271H21.749V15.2929H23.0463V16.5271H22.7905V15.4981ZM24.499 15.5119H23.9938L23.9774 15.7199C23.9597 15.8961 23.9355 16.0376 23.9014 16.1456C23.8673 16.2539 23.8252 16.3371 23.7767 16.3953C23.7282 16.4536 23.6714 16.4938 23.6065 16.5133C23.5396 16.5343 23.4689 16.5446 23.3977 16.5438L23.3783 16.3301C23.4058 16.3314 23.4381 16.3259 23.4737 16.3121C23.5095 16.2983 23.5451 16.2678 23.579 16.2221C23.6131 16.1748 23.6439 16.1083 23.6714 16.0223C23.6989 15.9349 23.7168 15.8213 23.7264 15.6783L23.7524 15.2941H24.755V16.5284H24.499V15.5118V15.5119Z" fill="white"/>
<path fill-rule="evenodd" clip-rule="evenodd" d="M25.4443 15.2961C25.3616 15.3155 25.2871 15.3431 25.224 15.3778L25.2921 15.5526C25.3504 15.5276 25.4087 15.5068 25.4669 15.4888C25.5252 15.4708 25.5999 15.4625 25.6888 15.4625C25.7602 15.4625 25.8168 15.4721 25.8605 15.4915C25.9044 15.5096 25.9367 15.5373 25.9594 15.5706C25.9819 15.604 25.9965 15.6456 26.0046 15.694C26.0127 15.7426 26.016 15.7953 26.016 15.8521C25.9636 15.8206 25.9039 15.7993 25.841 15.7898C25.7802 15.7793 25.7184 15.7737 25.6564 15.7731C25.5804 15.7731 25.509 15.7828 25.4411 15.7995C25.3729 15.8161 25.3146 15.8411 25.2677 15.8745C25.2197 15.9077 25.181 15.9499 25.1543 15.9978C25.1258 16.0503 25.1115 16.1077 25.1123 16.1656C25.1123 16.2861 25.1528 16.3806 25.2338 16.4471C25.3146 16.5136 25.4216 16.547 25.5544 16.547C25.6743 16.547 25.7698 16.529 25.8428 16.4928C25.9155 16.4568 25.9738 16.4151 26.016 16.368V16.5275H26.2558V15.7703C26.2558 15.6095 26.2152 15.4846 26.1326 15.3973C26.0516 15.3098 25.9074 15.2656 25.7034 15.2656C25.6159 15.2657 25.5288 15.2761 25.4443 15.2961ZM25.8736 16.2958C25.8154 16.332 25.7392 16.3486 25.6453 16.3486C25.561 16.3486 25.4979 16.3306 25.4526 16.2958C25.4072 16.2598 25.3845 16.2126 25.3845 16.1545C25.3845 16.1198 25.3926 16.0906 25.4105 16.0643C25.4282 16.038 25.4526 16.0171 25.4801 16.0005C25.5077 15.9838 25.5415 15.9713 25.5789 15.963C25.6159 15.9547 25.654 15.9505 25.6922 15.9506C25.8185 15.9506 25.9271 15.977 26.0162 16.0323V16.189C25.9741 16.2297 25.9262 16.2656 25.8736 16.2958Z" fill="white"/>
<path d="M26.5068 15.293H27.8204V15.512H27.2923V16.5271H27.0365V15.5121H26.5086V15.293H26.5068Z" fill="white"/>
<path fill-rule="evenodd" clip-rule="evenodd" d="M29.0158 16.5148C29.113 16.4884 29.1955 16.4481 29.2668 16.3928L29.189 16.2208C29.142 16.2569 29.0789 16.2874 29.0027 16.3124C28.9267 16.3374 28.8408 16.3498 28.7469 16.3498C28.606 16.3498 28.4894 16.3179 28.397 16.2528C28.3046 16.1876 28.2546 16.0961 28.2432 15.9794H29.3511C29.3622 15.9366 29.3672 15.8879 29.3672 15.8311C29.3672 15.7466 29.3493 15.6703 29.3137 15.6009C29.2806 15.5336 29.232 15.4728 29.1711 15.4221C29.1095 15.3717 29.0369 15.3325 28.9575 15.3069C28.8743 15.279 28.7858 15.2649 28.6967 15.2653C28.5768 15.2653 28.4715 15.2833 28.3793 15.3166C28.2921 15.3483 28.2132 15.395 28.1476 15.4539C28.0837 15.5125 28.0347 15.5819 28.0034 15.6578C27.9693 15.7386 27.9523 15.8241 27.9532 15.9101C27.9532 16.0073 27.9726 16.0959 28.0082 16.1751C28.044 16.2541 28.0973 16.3221 28.1637 16.3789C28.2301 16.4358 28.3112 16.4788 28.4068 16.5093C28.5091 16.5408 28.6171 16.5563 28.7257 16.5551C28.8214 16.5551 28.9186 16.5411 29.0158 16.5148ZM28.3664 15.5634C28.4457 15.5011 28.551 15.4706 28.6838 15.4706C28.8102 15.4706 28.909 15.5011 28.9819 15.5579C29.0547 15.6163 29.0935 15.6966 29.1001 15.7993H28.2255C28.2378 15.7085 28.2879 15.6246 28.3664 15.5634ZM29.4919 15.2931H29.8159L30.3097 15.8881L29.7818 16.5273H29.4677L30.0214 15.8879L29.4919 15.2931ZM30.3729 15.2931H30.6289V16.5273H30.3729V15.2931ZM31.5439 16.5273L30.9803 15.8879L31.5067 15.2929H31.1891L30.692 15.8879L31.2265 16.5273H31.5439ZM32.7133 16.5148C32.8105 16.4884 32.8931 16.4481 32.9643 16.3928L32.8865 16.2208C32.8396 16.2569 32.7764 16.2874 32.7004 16.3124C32.6242 16.3374 32.5383 16.3498 32.4444 16.3498C32.3035 16.3498 32.1869 16.3179 32.0945 16.2528C32.0023 16.1876 31.9521 16.0961 31.9407 15.9794H33.0486C33.0599 15.9366 33.0647 15.8879 33.0647 15.8311C33.0647 15.7466 33.047 15.6703 33.0112 15.6009C32.9781 15.5337 32.9296 15.4729 32.8688 15.4221C32.8072 15.3717 32.7345 15.3325 32.655 15.3069C32.5718 15.279 32.4834 15.2649 32.3942 15.2653C32.2745 15.2653 32.1692 15.2833 32.0768 15.3166C31.9897 15.3483 31.9109 15.3951 31.8453 15.4539C31.7813 15.5124 31.7322 15.5819 31.7011 15.6578C31.6669 15.7386 31.6499 15.8241 31.6509 15.9101C31.6509 16.0073 31.6703 16.0959 31.7059 16.1751C31.7415 16.2541 31.795 16.3221 31.8614 16.3789C31.9278 16.4358 32.0087 16.4788 32.1043 16.5093C32.2067 16.5408 32.3148 16.5563 32.4234 16.5551C32.5219 16.5545 32.6196 16.5409 32.7133 16.5148ZM32.0639 15.5634C32.1434 15.5011 32.2487 15.4706 32.3815 15.4706C32.5062 15.4706 32.6065 15.5011 32.6794 15.5579C32.7524 15.6163 32.7912 15.6966 32.7976 15.7993H31.923C31.9354 15.7085 31.9854 15.6246 32.0639 15.5634ZM34.1031 14.8784C33.9524 14.8784 33.8698 14.8063 33.8569 14.6621H33.6156C33.6156 14.7174 33.6269 14.7674 33.6479 14.8146C33.6691 14.8618 33.6999 14.9019 33.7403 14.9353C33.7807 14.9686 33.8327 14.9949 33.8925 15.0156C33.9524 15.0364 34.0221 15.0461 34.1014 15.0461C34.1743 15.0461 34.2392 15.0364 34.2975 15.0156C34.3558 14.9963 34.4043 14.9686 34.4465 14.9353C34.4869 14.9019 34.5194 14.8618 34.5419 14.8146C34.5646 14.7674 34.576 14.7174 34.576 14.6621H34.3364C34.325 14.8063 34.2455 14.8784 34.1031 14.8784ZM33.4114 15.2929V16.5273H33.6674L34.4998 15.6078V16.5273H34.7558V15.2929H34.4998L33.6674 16.2124V15.2929H33.4114Z" fill="white"/>
</g>
<defs>
<clipPath id="clip0_2365_137789">
<rect width="46" height="20" fill="white"/>
</clipPath>
</defs>
</svg>
