<svg width="56" height="20" viewBox="0 0 56 20" fill="none" xmlns="http://www.w3.org/2000/svg">
<g id="tbank_russia 1" clip-path="url(#clip0_2297_183723)">
<path id="Vector" d="M27.8221 9.24447C27.4365 9.09611 26.9322 9.0517 26.3833 9.0517H23.3276V8.10235H28.5786V6.4707H21.1768V13.5313H26.1905C26.8877 13.5313 27.4067 13.4721 27.7925 13.3236C28.6083 13.0121 29.1572 12.2556 29.1572 11.2618C29.1572 10.2532 28.638 9.556 27.8221 9.24447ZM26.7541 11.692C26.6355 11.7365 26.4723 11.7513 26.2646 11.7513H23.3276V10.6239H26.2646C26.502 10.6239 26.6948 10.6389 26.8432 10.713C27.0211 10.802 27.1102 10.9652 27.1102 11.1728C27.1102 11.3805 27.0063 11.603 26.7541 11.692Z" fill="white"/>
<path id="Vector_2" d="M35.1876 6.4707H32.0429L29.1504 13.5313H31.5831L31.9836 12.5078H35.2469L35.6623 13.5313H38.0802L35.1876 6.4707ZM32.5175 10.9503L33.5412 8.10235H33.7043L34.7277 10.9503H32.5175Z" fill="white"/>
<path id="Vector_3" d="M40.849 10.9059V13.5314H38.6982V6.4707H40.849V9.05176H44.3052V6.4707H46.4561V13.5314H44.3052V10.9059H40.849Z" fill="white"/>
<path id="Vector_4" d="M49.8599 10.8615V13.5314H47.709V6.4707H49.8599V9.12594H50.4532L53.049 6.4707H55.7486L52.3073 9.8527L55.8822 13.5314H53.0193L50.4532 10.8615H49.8599Z" fill="white"/>
<path id="Vector_5" d="M0 2.35254H17.0588V10.3437C17.0588 12.543 15.8855 14.5754 13.9809 15.6752L8.52947 18.8231L3.07792 15.6752C1.17328 14.5754 1.95516e-06 12.543 1.95516e-06 10.3437L0 2.35254Z" fill="#FFDD2D"/>
<path id="Vector_6" fill-rule="evenodd" clip-rule="evenodd" d="M4.70605 6.4707V9.12229C5.06864 8.71282 5.72791 8.43576 6.4817 8.43576H7.30082V11.5182C7.30082 12.3382 7.078 13.1412 6.74741 13.5361H10.3105C9.98064 13.1408 9.75835 12.3388 9.75835 11.5198V8.43576H10.5775C11.3313 8.43576 11.9905 8.71282 12.3531 9.12229V6.4707H4.70605Z" fill="#333333"/>
</g>
<defs>
<clipPath id="clip0_2297_183723">
<rect width="55.8824" height="20" fill="white"/>
</clipPath>
</defs>
</svg>
