<svg width="65" height="65" viewBox="0 0 65 65" fill="none" xmlns="http://www.w3.org/2000/svg">
<g id="icon/BigFlat/checkmark">
<g id="Vector" filter="url(#filter0_di_1085_211555)">
<path fill-rule="evenodd" clip-rule="evenodd" d="M12.2812 28.1853C12.2812 17.1396 21.2355 8.1853 32.2812 8.1853C37.5856 8.1853 42.6726 10.2924 46.4234 14.0432C50.174 17.7939 52.2812 22.881 52.2812 28.1853C52.2812 39.2309 43.3268 48.1853 32.2812 48.1853C21.2355 48.1853 12.2812 39.2309 12.2812 28.1853ZM29.7013 35.6053L41.7012 23.6053C42.4854 22.8211 42.4854 21.5495 41.7012 20.7653C40.917 19.9811 39.6455 19.9811 38.8612 20.7653L28.2812 31.3653L25.7012 28.7653C25.1939 28.2579 24.4545 28.0599 23.7615 28.2455C23.0685 28.4313 22.5272 28.9725 22.3415 29.6655C22.1558 30.3585 22.3539 31.0979 22.8612 31.6053L26.8612 35.6053C27.2368 35.9839 27.748 36.1969 28.2812 36.1969C28.8144 36.1969 29.3256 35.9839 29.7013 35.6053Z" fill="url(#paint0_radial_1085_211555)"/>
<path d="M38.5074 20.4121L28.2823 30.6565L26.0562 28.4131L26.0548 28.4118C25.4211 27.778 24.4976 27.5307 23.6321 27.7625L23.632 27.7626C22.7666 27.9946 22.0905 28.6705 21.8585 29.5361L22.3415 29.6655L21.8585 29.5361C21.6266 30.4017 21.8741 31.3251 22.5077 31.9588L22.5077 31.9589L26.5063 35.9574C26.5066 35.9577 26.5068 35.958 26.5071 35.9583C26.9765 36.431 27.615 36.6969 28.2812 36.6969C28.9474 36.6969 29.5861 36.4309 30.0555 35.9582C30.0557 35.958 30.056 35.9577 30.0562 35.9574L42.0548 23.9589L41.7012 23.6053L42.0548 23.9588C43.0343 22.9793 43.0343 21.3913 42.0548 20.4118C41.0753 19.4322 39.4872 19.4322 38.5077 20.4118L38.5074 20.4121ZM12.7812 28.1853C12.7812 17.4157 21.5117 8.6853 32.2812 8.6853C37.453 8.6853 42.4129 10.7398 46.0699 14.3967C49.7267 18.0537 51.7812 23.0136 51.7812 28.1853C51.7812 38.9548 43.0507 47.6853 32.2812 47.6853C21.5117 47.6853 12.7812 38.9548 12.7812 28.1853Z" stroke="url(#paint1_linear_1085_211555)" stroke-opacity="0.25"/>
</g>
</g>
<defs>
<filter id="filter0_di_1085_211555" x="0.28125" y="0.185303" width="64" height="64" filterUnits="userSpaceOnUse" color-interpolation-filters="sRGB">
<feFlood flood-opacity="0" result="BackgroundImageFix"/>
<feColorMatrix in="SourceAlpha" type="matrix" values="0 0 0 0 0 0 0 0 0 0 0 0 0 0 0 0 0 0 127 0" result="hardAlpha"/>
<feOffset dy="4"/>
<feGaussianBlur stdDeviation="6"/>
<feComposite in2="hardAlpha" operator="out"/>
<feColorMatrix type="matrix" values="0 0 0 0 0.13434 0 0 0 0 0.608333 0 0 0 0 0.316038 0 0 0 0.25 0"/>
<feBlend mode="normal" in2="BackgroundImageFix" result="effect1_dropShadow_1085_211555"/>
<feBlend mode="normal" in="SourceGraphic" in2="effect1_dropShadow_1085_211555" result="shape"/>
<feColorMatrix in="SourceAlpha" type="matrix" values="0 0 0 0 0 0 0 0 0 0 0 0 0 0 0 0 0 0 127 0" result="hardAlpha"/>
<feOffset dy="2"/>
<feGaussianBlur stdDeviation="2"/>
<feComposite in2="hardAlpha" operator="arithmetic" k2="-1" k3="1"/>
<feColorMatrix type="matrix" values="0 0 0 0 0 0 0 0 0 0 0 0 0 0 0 0 0 0 0.35 0"/>
<feBlend mode="normal" in2="shape" result="effect2_innerShadow_1085_211555"/>
</filter>
<radialGradient id="paint0_radial_1085_211555" cx="0" cy="0" r="1" gradientUnits="userSpaceOnUse" gradientTransform="translate(36.6607 -0.984317) rotate(96.2409) scale(46.7277 94.9104)">
<stop stop-color="#30EF80"/>
<stop offset="1" stop-color="#74F069"/>
</radialGradient>
<linearGradient id="paint1_linear_1085_211555" x1="32.2812" y1="8.1853" x2="32.2812" y2="48.1853" gradientUnits="userSpaceOnUse">
<stop stop-color="white"/>
<stop offset="1"/>
</linearGradient>
</defs>
</svg>
