<svg width="56" height="65" viewBox="0 0 56 65" fill="none" xmlns="http://www.w3.org/2000/svg">
<g id="icon/BigFlat/notification">
<g id="Vector" filter="url(#filter0_di_1085_211501)">
<path fill-rule="evenodd" clip-rule="evenodd" d="M43.4612 32.0904C41.7754 28.3825 41.8192 26.9873 41.8968 24.4517C41.9167 23.8527 41.9366 23.2018 41.9366 22.4555C41.9366 16.5304 37.6993 8.18506 28.2812 8.18506C18.8631 8.18506 14.6257 16.5304 14.6257 22.4555C14.6257 23.1998 14.6456 23.8527 14.6656 24.4517C14.7432 26.9873 14.785 28.3825 13.0813 32.1402C12.3528 34.019 12.4404 35.6411 13.346 36.9627C15.5194 40.1432 21.8087 40.581 28.2812 40.581C34.7537 40.581 41.043 40.1432 43.2164 36.9627C44.124 35.6411 44.2115 34.019 43.4612 32.0904Z" fill="url(#paint0_radial_1085_211501)"/>
<path fill-rule="evenodd" clip-rule="evenodd" d="M33.6501 42.5963C30.4039 42.9566 26.8851 42.9546 22.8845 42.5923C22.2854 42.5446 21.6923 42.861 21.4176 43.4084C21.141 43.9577 21.2286 44.6165 21.6366 45.0742C23.4278 47.0785 25.7844 48.1851 28.2723 48.1851H28.2763C30.7701 48.1851 33.1326 47.0804 34.9279 45.0742C35.3398 44.6145 35.4254 43.9457 35.1428 43.3944C34.8582 42.8471 34.273 42.5406 33.6501 42.5963Z" fill="url(#paint1_radial_1085_211501)"/>
<path d="M22.8423 43.0906C26.8652 43.4547 30.4156 43.4578 33.6993 43.0939C34.128 43.0573 34.5124 43.2671 34.6985 43.6238C34.8863 43.9915 34.8283 44.4361 34.5555 44.7406L34.5552 44.7408C32.8464 46.6505 30.6157 47.6851 28.2763 47.6851H28.2723C25.9395 47.6851 23.7147 46.6491 22.0094 44.7411C21.7381 44.4363 21.6801 43.9988 21.8642 43.6333L21.8645 43.6326C22.0438 43.2753 22.4385 43.0594 22.8423 43.0906ZM22.8423 43.0906C22.8413 43.0905 22.8403 43.0904 22.8394 43.0903L22.8845 42.5923M22.8423 43.0906C22.8431 43.0906 22.8439 43.0907 22.8447 43.0908L22.8845 42.5923M22.8845 42.5923C22.2854 42.5446 21.6923 42.861 21.4176 43.4084L33.6501 42.5963C30.4039 42.9566 26.8851 42.9546 22.8845 42.5923ZM41.5247 27.9144C41.7241 29.0995 42.1513 30.4157 43.0002 32.2845C43.7037 34.1007 43.5906 35.5346 42.8042 36.6796L42.8036 36.6806C41.8343 38.099 39.8916 38.9719 37.2671 39.4734C34.6639 39.9709 31.514 40.081 28.2812 40.081C25.0484 40.081 21.8985 39.9709 19.2953 39.4734C16.6708 38.9719 14.7281 38.099 13.7588 36.6806L13.7584 36.68C12.9724 35.533 12.8617 34.098 13.5425 32.3337C14.4 30.4407 14.8321 29.1124 15.0344 27.9214C15.2357 26.7356 15.2043 25.7089 15.1659 24.4558L15.1653 24.4364L15.1653 24.4351C15.1454 23.8369 15.1257 23.1911 15.1257 22.4555C15.1257 19.5986 16.1512 16.142 18.3138 13.4086C20.4647 10.69 23.7391 8.68506 28.2812 8.68506C32.8233 8.68506 36.0977 10.69 38.2486 13.4086C40.4111 16.142 41.4366 19.5986 41.4366 22.4555C41.4366 23.193 41.417 23.8369 41.3971 24.4351L41.3971 24.4364L41.3962 24.464C41.358 25.713 41.3266 26.7376 41.5247 27.9144Z" stroke="url(#paint2_linear_1085_211501)" stroke-opacity="0.25"/>
</g>
</g>
<defs>
<filter id="filter0_di_1085_211501" x="0.59375" y="0.185059" width="55.375" height="64" filterUnits="userSpaceOnUse" color-interpolation-filters="sRGB">
<feFlood flood-opacity="0" result="BackgroundImageFix"/>
<feColorMatrix in="SourceAlpha" type="matrix" values="0 0 0 0 0 0 0 0 0 0 0 0 0 0 0 0 0 0 127 0" result="hardAlpha"/>
<feOffset dy="4"/>
<feGaussianBlur stdDeviation="6"/>
<feComposite in2="hardAlpha" operator="out"/>
<feColorMatrix type="matrix" values="0 0 0 0 0.608333 0 0 0 0 0.316038 0 0 0 0 0.13434 0 0 0 0.25 0"/>
<feBlend mode="normal" in2="BackgroundImageFix" result="effect1_dropShadow_1085_211501"/>
<feBlend mode="normal" in="SourceGraphic" in2="effect1_dropShadow_1085_211501" result="shape"/>
<feColorMatrix in="SourceAlpha" type="matrix" values="0 0 0 0 0 0 0 0 0 0 0 0 0 0 0 0 0 0 127 0" result="hardAlpha"/>
<feOffset dy="2"/>
<feGaussianBlur stdDeviation="2"/>
<feComposite in2="hardAlpha" operator="arithmetic" k2="-1" k3="1"/>
<feColorMatrix type="matrix" values="0 0 0 0 0 0 0 0 0 0 0 0 0 0 0 0 0 0 0.35 0"/>
<feBlend mode="normal" in2="shape" result="effect2_innerShadow_1085_211501"/>
</filter>
<radialGradient id="paint0_radial_1085_211501" cx="0" cy="0" r="1" gradientUnits="userSpaceOnUse" gradientTransform="translate(31.7152 -0.984561) rotate(94.9024) scale(46.6214 74.6105)">
<stop stop-color="#FFBD61"/>
<stop offset="1" stop-color="#FFB938"/>
</radialGradient>
<radialGradient id="paint1_radial_1085_211501" cx="0" cy="0" r="1" gradientUnits="userSpaceOnUse" gradientTransform="translate(31.7152 -0.984561) rotate(94.9024) scale(46.6214 74.6105)">
<stop stop-color="#FFBD61"/>
<stop offset="1" stop-color="#FFB938"/>
</radialGradient>
<linearGradient id="paint2_linear_1085_211501" x1="28.2803" y1="8.18506" x2="28.2803" y2="48.1851" gradientUnits="userSpaceOnUse">
<stop stop-color="white"/>
<stop offset="1"/>
</linearGradient>
</defs>
</svg>
