<svg width="12" height="13" viewBox="0 0 12 13" fill="none" xmlns="http://www.w3.org/2000/svg">
<path fill-rule="evenodd" clip-rule="evenodd" d="M0 6.33594C0 3.02223 2.68629 0.335938 6 0.335938C7.59132 0.335938 9.11742 0.968079 10.2427 2.0933C11.3678 3.21852 12 4.74464 12 6.33594C12 9.64962 9.31368 12.3359 6 12.3359C2.68629 12.3359 0 9.64962 0 6.33594ZM5.226 8.56194L8.826 4.96194C9.06126 4.72667 9.06126 4.34521 8.826 4.10994C8.59074 3.87467 8.20926 3.87467 7.974 4.10994L4.8 7.28994L4.026 6.50994C3.8738 6.35772 3.65198 6.29832 3.44407 6.354C3.23617 6.40974 3.07378 6.5721 3.01807 6.78C2.96237 6.9879 3.0218 7.20972 3.174 7.36194L4.374 8.56194C4.48666 8.67552 4.64002 8.73942 4.8 8.73942C4.95996 8.73942 5.11332 8.67552 5.226 8.56194Z" fill="#9E90CF"/>
</svg>
