<svg width="24" height="24" viewBox="0 0 24 24" fill="none" xmlns="http://www.w3.org/2000/svg">
<g clip-path="url(#clip0_12028_15832)">
<path d="M2.16968 7.29576V16.7038C2.16968 17.3086 2.48648 17.8558 3.01448 18.163L11.1649 22.867C11.6833 23.1646 12.3265 23.1646 12.8449 22.867L20.9953 18.163C21.5137 17.8654 21.8401 17.3086 21.8401 16.7038V7.29576C21.8401 6.69096 21.5233 6.14376 20.9953 5.83656L12.8449 1.13256C12.3265 0.834963 11.6833 0.834963 11.1649 1.13256L3.01448 5.83656C2.49608 6.13416 2.17928 6.69096 2.17928 7.29576H2.16968Z" fill="#213147"/>
<path d="M13.777 13.8217L12.6154 17.0089C12.5865 17.0953 12.5865 17.1913 12.6154 17.2873L14.6122 22.7689L16.9258 21.4345L14.1514 13.8217C14.0842 13.6489 13.8442 13.6489 13.777 13.8217Z" fill="#12AAFF"/>
<path d="M16.1084 8.46627C16.0412 8.29347 15.8012 8.29347 15.734 8.46627L14.5724 11.6535C14.5436 11.7399 14.5436 11.8359 14.5724 11.9319L17.846 20.9079L20.1596 19.5735L16.1084 8.47587V8.46627Z" fill="#12AAFF"/>
<path d="M12.0001 1.488C12.0577 1.488 12.1153 1.5072 12.1633 1.536L20.9761 6.624C21.0817 6.6816 21.1393 6.7968 21.1393 6.912V17.088C21.1393 17.2032 21.0721 17.3184 20.9761 17.376L12.1633 22.464C12.1153 22.4928 12.0577 22.512 12.0001 22.512C11.9425 22.512 11.8849 22.4928 11.8369 22.464L3.02408 17.376C2.91848 17.3184 2.86088 17.2032 2.86088 17.088V6.9024C2.86088 6.7872 2.92808 6.672 3.02408 6.6144L11.8369 1.5264C11.8849 1.4976 11.9425 1.4784 12.0001 1.4784V1.488ZM12.0001 0C11.6833 0 11.3761 0.0768 11.0881 0.24L2.27528 5.328C1.70888 5.6544 1.36328 6.2496 1.36328 6.9024V17.0784C1.36328 17.7312 1.70888 18.3264 2.27528 18.6528L11.0881 23.7408C11.3665 23.904 11.6833 23.9808 12.0001 23.9808C12.3169 23.9808 12.6241 23.904 12.9121 23.7408L21.7249 18.6528C22.2913 18.3264 22.6369 17.7312 22.6369 17.0784V6.9024C22.6369 6.2496 22.2913 5.6544 21.7249 5.328L12.9025 0.24C12.6241 0.0768 12.3073 0 11.9905 0H12.0001Z" fill="#9DCCED"/>
<path d="M6.16382 20.9186L6.97982 18.6914L8.61182 20.045L7.08542 21.4466L6.16382 20.9186Z" fill="#213147"/>
<path d="M11.251 6.18263H9.01416C8.85097 6.18263 8.69736 6.28823 8.63976 6.44183L3.84937 19.5746L6.16297 20.909L11.443 6.44183C11.491 6.30743 11.395 6.17303 11.2606 6.17303L11.251 6.18263Z" fill="white"/>
<path d="M15.1669 6.18263H12.9301C12.7669 6.18263 12.6133 6.28823 12.5557 6.44183L7.08374 21.437L9.39734 22.7714L15.3493 6.44183C15.3973 6.30743 15.3013 6.17303 15.1669 6.17303V6.18263Z" fill="white"/>
</g>
<defs>
<clipPath id="clip0_12028_15832">
<rect width="24" height="24" fill="white"/>
</clipPath>
</defs>
</svg>
