<svg width="20" height="20" viewBox="0 0 20 20" fill="none" xmlns="http://www.w3.org/2000/svg">
<circle cx="10" cy="10" r="10" fill="#8DC351"/>
<path d="M10.1299 5.57446C11.5689 5.32571 12.7583 5.3883 13.2588 6.63208C13.634 7.56473 13.3834 8.18702 12.7578 8.80884C13.884 8.74665 14.698 9.18189 14.9482 10.55C15.2608 12.291 14.1344 13.0991 12.3828 13.7209L12.8828 15.4622L11.8193 15.7737L11.3193 14.0325C11.0065 14.1568 10.7562 14.2193 10.4434 14.2815L10.9434 16.0227L9.87988 16.3333L9.37988 14.592C9.12965 14.6542 8.87914 14.7164 8.62891 14.7786L7.25195 15.1516L7.12695 13.8459L7.87793 13.5969C8.19039 13.4727 8.19043 13.2244 8.19043 13.0999L7.37793 10.301L7.50293 10.2385H7.37793L6.81445 8.24829C6.68932 7.99968 6.50127 7.81341 6.06348 7.93774C6.12604 7.93774 5.3125 8.18677 5.3125 8.18677L5 7.06665L6.43945 6.56958C6.68942 6.50745 6.87697 6.44519 7.12695 6.38306L6.62695 4.64185L7.69043 4.33032L8.19043 6.07251C8.5031 6.01035 8.81621 5.88571 9.06641 5.82349L8.56641 4.1438L9.62988 3.83325L10.1299 5.57446ZM12.8828 10.8606C12.4447 9.49278 10.2557 10.3634 9.50488 10.55L10.1934 12.9133C10.9444 12.6645 13.2582 12.1664 12.8828 10.8606ZM11.3818 7.68872C11.0688 6.44541 9.19214 7.19156 8.56641 7.37817L9.19238 9.49243C9.81854 9.30579 11.7571 8.87002 11.3818 7.68872Z" fill="white"/>
</svg>
