<svg width="20" height="20" viewBox="0 0 20 20" fill="none" xmlns="http://www.w3.org/2000/svg">
<circle cx="10" cy="10" r="10" fill="#988430"/>
<circle cx="9.99999" cy="9.99999" r="9.67968" fill="#7A6A2A"/>
<circle cx="10.0001" cy="9.9999" r="9.47573" fill="#BA9F33"/>
<path fill-rule="evenodd" clip-rule="evenodd" d="M4.37217 8.93214C4.31553 8.88041 4.25569 8.82857 4.20065 8.77683C4.14561 8.7251 4.08908 8.67326 4.03244 8.62153L3.86412 8.46153C3.8366 8.43401 3.80748 8.40979 3.77996 8.38217C3.75244 8.35795 3.72012 8.33043 3.6926 8.30611C3.46924 8.09417 3.2446 7.88222 3.02433 7.67017C3.25249 7.87891 3.47585 8.08617 3.70401 8.29801L3.78327 8.37737C3.81079 8.40478 3.83991 8.4291 3.86743 8.45662L4.03564 8.61193C4.09228 8.66366 4.14732 8.7155 4.20396 8.77193C4.2606 8.82835 4.31564 8.8803 4.37228 8.93193L4.37217 8.93214ZM1.4078 8.90015C1.4078 8.90015 2.22006 8.9842 2.61654 9.04084C2.9838 9.09268 4.1327 9.269 4.1327 9.269L1.4078 8.90015ZM1.40782 8.90014C1.63598 8.91955 1.86414 8.94377 2.0923 8.96809C2.20878 8.97939 2.32046 8.9923 2.43214 9.00361L2.60355 9.02313C2.66019 9.03113 2.71523 9.03923 2.77187 9.04734L3.45155 9.15571L3.79129 9.21235C3.90297 9.23177 4.01465 9.25289 4.13113 9.2723C4.01945 9.26099 3.90297 9.24478 3.79129 9.22857L3.45155 9.18003L2.77187 9.07977C2.71523 9.07166 2.66019 9.06025 2.60355 9.05225L2.43203 9.03251C2.32035 9.02121 2.20387 9.00499 2.09219 8.99198C1.86403 8.96457 1.63587 8.93534 1.40771 8.89982L1.40782 8.90014ZM4.05187 9.48063C4.05187 9.48063 3.18457 9.70079 2.89166 9.78495C2.60366 9.8642 1.73145 10.1296 1.73145 10.1296L4.05177 9.48074L4.05187 9.48063Z" fill="#CFB66C"/>
<path fill-rule="evenodd" clip-rule="evenodd" d="M4.05161 9.48047C3.85907 9.53711 3.66761 9.59215 3.4723 9.64399L2.89299 9.7993C2.70046 9.85594 2.50899 9.91098 2.31699 9.96762L2.02899 10.0469C1.93353 10.0744 1.83646 10.0986 1.73779 10.1262C1.83315 10.0942 1.93033 10.0615 2.02579 10.034L2.31379 9.9418C2.50633 9.88186 2.69779 9.82522 2.88979 9.76538C3.08553 9.71684 3.27817 9.665 3.4739 9.61807C3.65993 9.57114 3.85577 9.52431 4.05161 9.48058V9.48047ZM1.85286 10.6635C1.94822 10.6279 3.0486 10.115 3.30428 9.99522C3.43228 9.93528 3.80433 9.80322 3.80433 9.80322L1.85286 10.6635Z" fill="#CFB66C"/>
<path fill-rule="evenodd" clip-rule="evenodd" d="M1.85265 10.6636C1.9367 10.6316 2.01606 10.5924 2.09691 10.5552L2.33638 10.4435L2.81702 10.2122C2.97702 10.1361 3.13254 10.0522 3.29755 9.98071C3.38171 9.94519 3.46587 9.91607 3.54993 9.88855L3.67793 9.84813C3.72155 9.83682 3.76209 9.82381 3.80593 9.8125C3.64593 9.88855 3.4775 9.9533 3.31729 10.0276C3.15729 10.107 2.99366 10.1718 2.82854 10.2429L2.3399 10.458C2.17585 10.5245 2.01585 10.5956 1.85254 10.6636H1.85265ZM1.95947 11.1115C1.95947 11.1115 2.95617 10.5274 3.29921 10.3396C3.47883 10.2394 4.05974 9.95125 4.05974 9.95125L1.95947 11.1115Z" fill="#CFB66C"/>
<path fill-rule="evenodd" clip-rule="evenodd" d="M1.95947 11.1117C2.12769 11.0081 2.29921 10.9029 2.47073 10.7961L2.72673 10.6407C2.81409 10.589 2.89825 10.5405 2.98731 10.4887C3.07467 10.4369 3.15883 10.3851 3.24779 10.3366C3.29014 10.3105 3.33451 10.2877 3.38049 10.2687L3.51638 10.2007C3.69601 10.1134 3.87563 10.0243 4.06497 9.94824C3.89345 10.0567 3.71702 10.149 3.5407 10.2443C3.45334 10.2929 3.36427 10.3366 3.27691 10.3851C3.18955 10.4337 3.10539 10.4855 3.01633 10.5325C2.92897 10.5842 2.84481 10.6327 2.75585 10.6797L2.49206 10.8237L1.95969 11.1117H1.95947ZM4.05173 10.0793C4.05173 10.0793 3.432 10.555 3.23136 10.7071C3.03072 10.8592 2.4401 11.2864 2.4401 11.2864L4.05173 10.0793Z" fill="#CFB66C"/>
<path fill-rule="evenodd" clip-rule="evenodd" d="M7.60862 13.9159L7.2915 13.3156L7.47593 12.5647L8.79145 12.0567L8.23156 10.9079L8.50825 9.74768L9.02772 8.70875L10.6329 8.45637L11.8125 7.33179L14.3595 7.52432L14.8594 10.2476L13.8966 13.6764L13.3481 15.4516L11.1248 15.5357L10.0925 14.8205L8.88372 14.3156L7.60862 13.9159Z" fill="#E2CC85"/>
<path fill-rule="evenodd" clip-rule="evenodd" d="M11.508 13.8964C11.508 13.8964 11.2005 14.0372 10.676 14.0048C10.5242 13.8009 9.46118 13.7055 9.46118 13.7055C9.46118 13.7055 9.32849 13.665 9.09382 13.7621C8.85766 13.8581 8.6343 13.8463 8.42556 13.898C8.21681 13.9497 8.00956 13.678 7.84956 13.6213C7.68956 13.5615 7.4774 13.4175 7.4774 13.4175L7.0294 13.3737L6.12977 12.9935L4.70054 11.5696L4.31217 12.1776L4.19238 12.93L4.62449 13.8216L5.7879 14.8815L8.05649 15.4575L9.40113 15.0613L11.0856 14.3493L11.508 13.8963V13.8964Z" fill="#F1D789"/>
<path fill-rule="evenodd" clip-rule="evenodd" d="M3.44798 8.864L3.73598 7.99189L4.07913 7.42869L5.18419 7.33643L4.85246 8.30411L3.92862 9.94816L4.31209 11.4158L3.63251 11.7555L3.42366 11.4352L3.25545 10.7006L3.24414 9.87531L3.44798 8.864Z" fill="#F4ECB4"/>
<path fill-rule="evenodd" clip-rule="evenodd" d="M4.68793 13.8366L4.47598 13.5405C4.47598 13.5405 4.41934 13.3997 4.45177 13.2767C4.48377 13.1521 4.47918 13.144 4.46308 13.0971C4.44697 13.0501 4.31097 12.8883 4.31908 12.7491C4.32708 12.6083 4.30777 12.5614 4.41124 12.4498C4.51961 12.3414 4.48729 12.1537 4.48729 12.1537L4.62809 12.2411L4.66009 12.1925C4.66009 12.1925 4.71182 12.233 4.71182 12.2961C4.72313 12.2087 4.6762 11.8042 4.78297 11.712C4.88974 11.6198 5.07908 12.144 5.07908 12.144L4.9626 11.3835L4.66319 10.6036L4.13081 9.89162L4.09881 9.10677V9.03882C4.09881 9.03882 3.85444 9.41429 3.78649 9.71082C3.73796 9.91466 3.85444 10.1622 3.83022 10.4551C3.8107 10.7464 3.78649 10.7237 3.85764 10.8391C3.92878 10.9546 4.10201 11.1919 4.03406 11.3634C3.97422 11.5107 3.77028 11.4071 3.77028 11.4071C3.77028 11.4071 3.72985 11.5268 3.67481 11.5706C3.6554 11.4994 3.63438 11.4541 3.59556 11.4106C3.59225 11.4381 3.58425 11.4753 3.58425 11.4753C3.58425 11.4753 3.54862 11.3636 3.513 11.2228C3.46457 11.0352 3.41273 10.7876 3.3658 10.6549C3.34638 10.731 3.29785 10.9623 3.29785 10.9623L3.32537 11.3184L3.45806 11.807L3.58606 12.127L3.71065 12.5186L3.81892 12.7816L3.90628 12.9823L3.98233 13.4338L4.34958 13.8221L4.54542 13.9095L4.68772 13.8367L4.68793 13.8366Z" fill="#F3E19D"/>
<path fill-rule="evenodd" clip-rule="evenodd" d="M3.64072 8.15199C3.64072 8.15199 3.37693 8.59999 3.30098 9.05162C3.22504 9.50324 3.15698 9.98047 3.20498 10.5953C3.25352 11.2151 3.34578 11.5953 3.42024 11.8672C3.54824 12.3187 3.87976 12.9466 3.87976 12.9466L3.89106 12.9222C3.83534 12.8166 3.79086 12.7054 3.75837 12.5905C3.71464 12.419 3.69842 12.2151 3.658 12.1229C3.62237 12.0307 3.56253 11.9514 3.53341 11.8381C3.50589 11.7297 3.50141 11.5582 3.41693 11.4304C3.3813 11.3786 3.33757 11.2427 3.32466 11.1068C3.30845 10.9028 3.33277 10.6747 3.31336 10.487C3.27773 10.1747 3.25352 9.96276 3.28584 9.79924C3.31816 9.63572 3.48658 9.17151 3.59016 8.80255C3.6581 8.56628 3.61757 8.36724 3.74216 8.1617C3.86674 7.95786 3.9429 7.77823 3.97032 7.65364C4.00232 7.54036 3.64029 8.15199 3.64029 8.15199H3.64072Z" fill="#F2E8B0"/>
<path fill-rule="evenodd" clip-rule="evenodd" d="M4.89156 7.97241C4.89156 7.97241 4.75566 8.01295 4.69092 8.08409C4.62617 8.15204 4.59865 8.20868 4.51129 8.32356C4.42393 8.43844 4.41902 8.53231 4.34777 8.67631C4.27662 8.81711 4.11961 9.02905 4.1002 9.10511C4.08078 9.18116 4.04846 9.53711 4.00804 9.70543C3.97241 9.87375 4.04846 10.0809 4.04846 10.0809L4.14062 10.0614C4.14062 10.0614 4.14062 10.1812 4.23289 10.2621C4.32505 10.3414 4.34126 9.99343 4.34126 9.99343L4.6859 8.83001L5.20526 8.47727L5.2619 8.19247L4.89134 7.97241H4.89156Z" fill="#F5EEC0"/>
<path fill-rule="evenodd" clip-rule="evenodd" d="M5.14404 8.50001C5.14404 8.50001 4.89967 8.51612 4.77999 8.60358C4.73145 8.6391 4.71204 8.66822 4.66031 8.71196C4.56484 8.79121 4.46767 8.86406 4.42084 8.96796C4.369 9.07142 4.31236 9.22844 4.27353 9.52454C4.25732 9.64913 4.25732 9.76401 4.24601 9.86438C4.2298 10.0003 4.20559 10.1086 4.21849 10.1844C4.23471 10.3397 4.39492 10.4206 4.41049 10.597L4.74223 10.4288L5.05455 9.19729L5.71801 8.78129L5.34255 8.3606L5.14361 8.49926L5.14404 8.50001Z" fill="#E6DB9D"/>
<path fill-rule="evenodd" clip-rule="evenodd" d="M3.39366 16.7924C3.39505 16.7802 3.39643 16.768 3.39782 16.7556C3.44625 16.3396 3.45446 16.0243 3.48998 15.8268C3.54171 15.5469 3.57734 15.4428 3.56923 15.3381C3.55793 15.1699 3.54502 15.0469 3.56123 14.9174C3.58545 14.7459 3.75377 14.542 3.74897 14.4012C3.74566 14.2895 3.68902 14.2168 3.64049 14.1488C3.59195 14.0809 3.55313 14.0243 3.55313 14.0243C3.55313 14.0243 3.88486 13.7961 3.88166 12.877C3.88844 12.8789 3.89495 12.8816 3.90107 12.8851L4.06449 13.3494L4.17617 13.4853L4.60497 14.2846L5.15675 14.8203L5.97222 15.3688L6.48358 15.9253L6.53531 17.4091L5.86705 18.2764L5.75761 18.4746C4.88814 18.0381 4.09083 17.4707 3.39355 16.7923L3.39366 16.7924Z" fill="#E5CB7A"/>
<path fill-rule="evenodd" clip-rule="evenodd" d="M5.43555 18.212C5.43555 18.212 5.44685 18.0275 5.59896 17.9077C5.62328 17.9482 5.63939 17.9871 5.63459 18.0161C5.66211 17.9677 5.85464 17.657 6.28995 17.576C6.72525 17.4968 6.83043 17.1796 6.83043 17.1796L7.75427 16.3398L8.81091 15.3674L10.0957 14.9158L10.6961 14.7685C10.6961 14.7685 10.7074 14.8123 10.6848 14.9093C10.7964 14.9013 11.044 14.8447 11.3013 14.754C11.4048 14.7136 11.502 14.6974 11.5537 14.7508C11.6298 14.822 11.6411 14.9903 11.6459 15.0906C11.7705 15.063 11.9145 14.9434 12.0299 14.9547C12.2144 14.9741 12.3778 15.1909 12.5656 15.1909C12.8131 15.1909 12.9247 15.0388 13.0979 14.919C13.2015 14.8479 13.3503 14.759 13.4345 14.699C13.6351 14.5517 15.7581 13.9028 15.7581 13.9028L16.5024 13.9514L16.6222 14.7507L16.5582 16.8403C16.5503 16.8479 16.5424 16.8558 16.5344 16.8634L13.1501 18.6309L8.45891 19.3501C7.40806 19.1784 6.39398 18.8296 5.45987 18.3185L5.43587 18.2118L5.43555 18.212Z" fill="#D8C173"/>
<path fill-rule="evenodd" clip-rule="evenodd" d="M3.67822 17.0582C3.74489 16.9188 3.80484 16.8022 3.8154 16.7605C3.82372 16.8446 3.83897 17.029 3.86969 17.225C3.80519 17.1702 3.74137 17.1146 3.67822 17.0581V17.0582Z" fill="#F1D789"/>
<path fill-rule="evenodd" clip-rule="evenodd" d="M7.10524 19.0248L7.71196 18.8561L7.76369 18.8723C7.76369 18.8723 7.79121 18.8885 7.79121 18.9434C7.86727 18.8998 7.93201 18.9078 7.97895 18.8788C8.00316 18.9305 8.02737 19.1021 8.13425 19.1231C8.24583 19.1474 8.36561 19.0745 8.487 18.9824C8.60668 18.8869 8.743 18.7671 8.84615 18.7186C8.88399 18.7882 8.91751 18.86 8.94652 18.9337C9.08241 18.8254 9.31868 18.3853 9.65521 18.3933C9.75248 18.1634 9.91498 17.9671 10.1226 17.8286C10.4349 17.6166 10.6307 17.6004 10.8751 17.6198C10.9721 17.4937 11.0917 17.3867 11.2278 17.3043C11.2682 17.3205 11.3799 17.3885 11.5191 17.3237C11.6599 17.2591 11.8184 17.0082 12.0272 16.9759C12.1396 16.9604 12.254 16.9844 12.3508 17.0438C12.3508 17.0438 12.9588 16.4402 13.3783 16.2395C13.3621 16.191 13.3298 16.0082 13.8216 15.6036C13.8491 15.6279 13.8297 15.6959 13.8491 15.6996C13.8571 15.6996 13.9771 15.6479 14.129 15.5313C14.3168 15.3906 14.5416 15.2433 14.6775 15.2029C14.9335 15.1268 15.2051 15.2821 15.2051 15.2821C15.2282 15.2659 15.2539 15.2539 15.2811 15.2465C15.3458 15.2352 15.3927 15.2271 15.4283 15.2145C15.4251 15.2986 15.4721 15.4426 15.4283 15.5672C15.479 15.5957 15.5327 15.6185 15.5883 15.6352C15.5609 15.695 15.501 15.8471 15.4007 15.92C15.4848 15.9604 15.4961 16.0073 15.6159 16.048C15.5673 16.1159 15.4879 16.2325 15.4524 16.304C15.4168 16.38 15.2889 16.6955 15.2323 16.8152C15.1724 16.935 15.0916 17.1551 15.0527 17.1992C15.0137 17.2434 14.873 17.4306 14.7647 17.5227C14.8607 17.4871 15.2534 17.3674 15.42 17.3221C15.3704 17.3949 15.119 17.7679 14.8773 18.1266C12.5361 19.5298 9.70433 19.8576 7.10449 19.0264L7.10524 19.0248Z" fill="#E0CD81"/>
<path fill-rule="evenodd" clip-rule="evenodd" d="M5.18393 8.45637C5.18393 8.45637 5.04323 8.45637 5.01571 8.47579C4.98819 8.4952 5.15651 8.53573 5.20825 8.55515C5.25998 8.57456 5.37166 8.66352 5.40078 8.73477C5.4283 8.80272 6.41209 9.19909 6.41209 9.19909L7.10787 9.16347L7.34777 8.83205L6.89145 8.43237L7.21145 7.48901L6.78755 7.55696L5.76814 8.16496L5.25678 8.3608L5.18393 8.45637Z" fill="#DFC57C"/>
<path fill-rule="evenodd" clip-rule="evenodd" d="M6.71209 8.76875C6.73257 8.8019 6.76915 8.82161 6.80809 8.82048C6.95209 8.82048 7.08468 8.85611 7.13972 8.92886C7.23199 9.04545 7.48767 9.41761 7.48767 9.41761L8.09929 9.63766L8.13876 8.91745L7.47049 8.45312L6.70996 8.73302V8.76865H6.71167L6.71209 8.76875Z" fill="#E5CC7C"/>
<path fill-rule="evenodd" clip-rule="evenodd" d="M6.59185 9.03566C6.59185 9.03566 6.70342 9.04377 6.84422 8.99193C6.98502 8.94009 7.21638 8.82852 7.31675 8.87225C7.45745 8.93209 7.42833 9.11982 7.58054 9.28825C7.6727 9.39182 7.84102 9.38862 7.93649 9.5003C8.03195 9.61198 8.36038 9.56014 8.36038 9.56014L8.48497 10.2321L7.98502 10.873L7.8215 11.6691H7.14545L6.52785 11.424L6.22363 10.688L6.37574 9.94372L6.59185 9.03566Z" fill="#D2C281"/>
<path fill-rule="evenodd" clip-rule="evenodd" d="M7.89954 9.06789C7.91631 9.07306 7.93373 9.07579 7.95128 9.076C7.93186 9.09221 7.89133 9.12773 7.90754 9.22C7.92376 9.31227 7.97549 9.42875 7.93186 9.49989C7.96669 9.53797 7.99266 9.58329 8.00792 9.63259C8.03544 9.71195 8.04354 9.78469 8.22306 9.79611C8.19715 9.81206 8.17327 9.83107 8.15192 9.85275C8.15192 9.85275 8.2765 9.96112 8.33965 10.0614C8.40429 10.0586 8.57581 10.0053 8.57581 10.0053L8.61144 10.0296L8.68749 9.9976C8.68749 9.9976 8.61634 9.97008 8.66808 9.79696C8.71661 9.64485 8.76034 9.65296 8.76408 9.64165C8.76781 9.63035 8.7997 9.47013 8.7997 9.40539C8.82392 9.32133 8.84333 9.06565 8.84333 9.06565L8.7916 8.50096L8.5004 8.32453L8.2636 8.09595L8.04024 8.51664L7.89314 8.66331L7.88184 9.02736L7.89954 9.06789Z" fill="#E2C270"/>
<path fill-rule="evenodd" clip-rule="evenodd" d="M8.60059 8.59551C8.60059 8.59551 8.65232 8.74271 8.67184 8.85599C8.67872 8.83397 8.68252 8.8111 8.68315 8.78804C8.68315 8.78804 8.72357 9.0114 8.73157 9.10367C8.74779 9.10036 8.76357 9.09556 8.7672 9.11167C8.77083 9.12778 8.80773 9.30751 8.7992 9.40778C8.86658 9.29661 8.95982 9.20337 9.07099 9.13599C9.13573 9.09546 9.21179 9.05183 9.29115 9.04852C9.41573 9.04532 9.50629 9.12788 9.6552 9.12788C10.0143 9.12788 10.3397 8.8641 10.5791 8.78324C10.7555 8.7233 10.9076 8.67967 11.0143 8.5825C11.0662 8.53887 11.1585 8.4418 11.2425 8.2977C11.3542 8.1057 11.4707 7.93855 11.5873 7.91754C11.5345 7.92723 11.4808 7.93102 11.4273 7.92884C11.4273 7.92884 11.4629 7.89322 11.5233 7.84468C11.5836 7.79615 11.6559 7.73631 11.7594 7.73631C11.9439 7.73631 12.0361 7.76372 12.1397 7.76372C12.2433 7.76052 12.3031 7.73631 12.3031 7.73631C12.3031 7.73631 12.4116 7.81236 12.6558 7.81236C12.9002 7.81556 13.0636 7.83658 13.1915 7.84799C13.3194 7.8594 13.7481 7.81236 13.8711 7.81599C13.9513 7.81908 14.03 7.83835 14.1026 7.87263L13.7061 6.72063L12.2819 5.47583L11.434 6.07615L10.1297 7.38036L8.86757 7.84799L8.60379 8.1441V8.59551H8.60059Z" fill="#CCB360"/>
<path fill-rule="evenodd" clip-rule="evenodd" d="M11.4318 7.93511C11.4318 7.93511 11.4675 7.89959 11.5272 7.85106C11.5869 7.80253 11.66 7.74258 11.7635 7.74258C11.9479 7.74258 12.0402 7.7701 12.1437 7.7701C12.2473 7.7669 12.3072 7.74258 12.3072 7.74258C12.3072 7.74258 12.4157 7.81853 12.6599 7.81853C12.9043 7.82173 13.0677 7.84274 13.1956 7.85405C13.3235 7.86535 13.7522 7.81853 13.8752 7.82205C13.9553 7.82507 14.034 7.84434 14.1065 7.87869L13.9269 7.35922L13.7182 6.96285L13.1227 6.31069C13.1227 6.31069 12.4081 5.88999 12.4026 5.88679C12.3994 5.88359 12.155 5.81885 12.155 5.81885L11.5078 6.21042L10.9205 7.72989L10.9092 8.04989L11.2893 8.22951C11.3848 8.06951 11.4901 7.94151 11.5888 7.9253C11.4997 7.93501 11.4317 7.93501 11.4317 7.93501L11.4318 7.93511Z" fill="#D5B457"/>
<path fill-rule="evenodd" clip-rule="evenodd" d="M11.4239 8.04381C11.3672 8.04701 11.3204 8.0357 11.3074 7.99527C11.2589 7.85938 11.22 7.83997 11.1794 7.83997C11.1388 7.83997 11.0839 7.92733 11.0514 7.93533C11.0189 7.94333 10.9803 7.83506 10.9803 7.83506L10.9446 7.81885C10.9446 7.81885 10.7359 7.95474 10.5887 8.11495C10.4415 8.27517 10.2003 8.54706 10.0919 8.59549C9.98357 8.64391 9.6113 8.66023 9.48394 8.68775C9.35658 8.71527 9.21536 8.80754 9.19594 8.82855C9.17653 8.84957 9.25269 8.87218 9.264 8.89319C9.2753 8.91261 9.1393 8.9045 9.128 8.92519C9.12 8.94141 9.16 9.03357 9.17984 9.0805C9.21455 9.06324 9.25265 9.05384 9.29141 9.05298C9.416 9.04978 9.50666 9.13234 9.65546 9.13234C10.0147 9.13234 10.3399 8.86855 10.5794 8.78759C10.7558 8.72775 10.9079 8.68402 11.0147 8.58695C11.0664 8.54333 11.1587 8.44615 11.2429 8.30215C11.3043 8.20349 11.3643 8.11122 11.4242 8.04327L11.4239 8.04381Z" fill="#D2B257"/>
<path fill-rule="evenodd" clip-rule="evenodd" d="M6.27194 16.0518C6.27194 16.0518 6.23994 15.932 5.94341 15.623C5.85925 15.5356 5.80752 15.463 5.75087 15.411C5.61007 15.2782 5.52752 15.2427 5.42725 15.1667C5.2072 15.0033 4.96773 15.0033 4.7833 14.8026C4.59888 14.602 4.38394 14.2186 4.23461 13.8268C4.08741 13.4353 4.04688 13.3107 4.04688 13.2994C4.04688 13.2881 4.08741 13.212 4.13914 13.2233C4.19088 13.2346 4.19088 13.3349 4.20389 13.3592C4.22966 13.3989 4.2589 13.4362 4.29125 13.4708C4.3673 13.5582 4.47567 13.6628 4.53071 13.8187C4.51941 13.686 4.47408 13.5388 4.47408 13.5388C4.47408 13.5388 4.75888 13.7185 5.00154 13.9061C5.24592 14.0938 5.34618 14.1586 5.41754 14.2782C5.4889 14.3979 5.65701 14.7136 5.73754 14.8058C5.81808 14.8981 6.92154 15.2459 6.92154 15.2459L7.44645 15.6373L7.70704 16.2085L7.50309 16.5285L7.11152 16.6126L6.47557 16.3278L6.27194 16.0517V16.0518Z" fill="#D2B159"/>
<path fill-rule="evenodd" clip-rule="evenodd" d="M4.85938 14.0841C4.85938 14.0841 4.99207 14.2961 5.3157 14.4967C5.607 14.6731 6.06812 14.8334 6.47922 14.9288C6.71538 14.9855 6.95164 15.0291 7.16359 15.0324C7.73479 15.0404 8.12796 14.8771 8.61511 14.8236C8.8789 14.7961 9.20252 14.7751 9.53905 14.6956C9.97106 14.5921 10.2267 14.4755 10.5747 14.3116C10.8271 14.1952 11.0585 14.1078 11.2461 13.9961C11.5099 13.8408 11.7025 13.6677 11.9258 13.616C11.8983 13.692 11.8692 13.8279 11.6491 13.9687C11.7656 13.9654 11.9258 13.9574 11.9258 13.9574C11.9258 13.9574 11.7705 14.0496 11.497 14.2567C11.3287 14.3847 11.1055 14.6014 10.8773 14.7454C10.73 14.8376 10.5698 14.9054 10.4646 14.9606C10.2086 15.1014 10.1053 15.1726 9.93714 15.3446C9.99698 15.3414 10.0019 15.3446 10.0019 15.3446C10.0019 15.3446 9.78983 15.3721 9.63783 15.453C9.60583 15.453 9.55036 15.4417 9.4533 15.4692C9.37724 15.4934 9.27687 15.5486 9.1734 15.5776C9.02609 15.6213 8.97767 15.6019 8.97767 15.6019L9.00188 15.6504C9.00188 15.6504 8.80988 15.6471 8.74588 15.6536C8.75719 15.6568 8.75399 15.6617 8.75399 15.6617C8.74275 15.6636 8.73192 15.6674 8.72199 15.673C8.69119 15.693 8.65731 15.7077 8.62172 15.7167C8.60231 15.7199 8.5861 15.7199 8.56177 15.7248C8.56988 15.7442 8.63303 15.8528 8.66215 15.9168C8.63794 15.933 8.27378 16.2081 8.27378 16.2081C8.28507 16.2258 8.2943 16.2448 8.3013 16.2647C8.3126 16.3002 8.31751 16.3521 8.32882 16.3763C8.35623 16.4248 8.37244 16.4329 8.37244 16.4329C8.37244 16.4329 8.32882 16.441 8.25266 16.4604C8.18802 16.4767 8.10866 16.5041 7.99666 16.5203C7.96229 16.5248 7.92772 16.5275 7.89308 16.5284C7.9093 16.564 7.98044 16.6999 7.84935 16.8568C7.71826 17.0137 7.67783 17.0366 7.6374 17.1368C7.61705 17.1214 7.59539 17.1079 7.57266 17.0963C7.52903 17.0769 7.46908 17.0479 7.44807 17.0089C7.43582 17.0608 7.41959 17.1117 7.39954 17.161C7.35911 17.2694 7.29927 17.3763 7.28796 17.4571C7.24423 17.4086 7.16338 17.3131 7.0517 17.3326C6.94002 17.352 6.85106 17.5041 6.83164 17.5478C6.83164 17.5203 6.81223 17.4993 6.80743 17.5316C6.80412 17.5672 6.74268 17.9393 6.39964 18.2403C6.39644 18.1642 6.39644 17.9959 6.38834 17.941C6.35634 17.973 6.31719 18.0202 6.08412 18.1206C5.85596 18.2209 5.89212 18.3212 5.89212 18.3212C5.89212 18.3212 5.87271 18.1612 5.9957 17.9927C6.12028 17.8245 6.19634 17.7451 6.19634 17.7322C6.19432 17.7191 6.18871 17.7068 6.18012 17.6966C6.16391 17.6804 6.13159 17.661 6.13159 17.6481C6.151 17.6401 6.34354 17.5478 6.33223 17.3568C6.32092 17.1854 6.24818 17.0963 6.19634 17.0332C6.18834 17.0251 6.2725 16.9653 6.26108 16.9459C6.25298 16.9346 6.14951 16.8584 6.1365 16.8179C6.13955 16.7937 6.14498 16.7699 6.15271 16.7467C6.16402 16.7111 6.17212 16.6868 6.16892 16.6626C6.16082 16.6222 6.11708 16.5105 6.10418 16.4992C6.11548 16.5024 6.19634 16.4992 6.19634 16.4992C6.19634 16.4992 6.1317 16.3956 6.12028 16.3471C6.10887 16.2985 6.08466 16.1706 6.07175 16.1464C6.09927 16.1496 6.16722 16.1544 6.16722 16.1464C6.17052 16.1221 6.10738 16.0817 6.13522 16.0504C6.15463 16.0536 6.19186 16.0698 6.22738 16.1152C6.20796 16.0633 6.17564 15.9631 6.10759 15.9226C6.13959 15.9113 6.24839 15.8821 6.34386 15.9387C6.43932 15.9954 6.47186 16.0746 6.47186 16.0746C6.47186 16.0746 6.5285 16.1184 6.61596 16.1831C6.71623 16.2624 6.84402 16.3751 7.04796 16.4549C7.0917 16.4792 7.20327 16.4792 7.28423 16.463C7.31948 16.4546 7.35328 16.441 7.3845 16.4226C7.39577 16.4159 7.40771 16.4105 7.42012 16.4064C7.40273 16.3715 7.38272 16.3379 7.36028 16.306C7.3878 16.306 7.42012 16.3093 7.42012 16.3093C7.42012 16.3093 7.43954 16.2656 7.35218 16.1813C7.37159 16.1619 7.39591 16.1493 7.39591 16.1166C7.36839 16.1134 7.31985 16.0729 7.30855 16.0567C7.32466 16.0454 7.34898 16.0082 7.3765 15.9969C7.35218 15.9775 7.29234 15.8965 7.26482 15.8885C7.2911 15.8787 7.31654 15.8668 7.34087 15.8529C7.34087 15.8529 7.20498 15.8172 7.16124 15.7881C7.11751 15.7561 7.05287 15.7008 7.01404 15.6846C6.97351 15.6683 6.90236 15.6603 6.87324 15.6279C6.90066 15.636 6.94439 15.6279 6.97682 15.6279C7.00103 15.6279 7.01244 15.6311 7.02044 15.6311C7.01724 15.6198 7.01724 15.5955 7.08039 15.5875C7.11076 15.5829 7.14024 15.5736 7.16775 15.56C7.16775 15.56 7.1078 15.5568 7.03975 15.492C6.9717 15.4273 6.91516 15.3755 6.87634 15.3674C6.83591 15.3593 6.75986 15.395 6.71292 15.3916C6.64818 15.3836 6.62066 15.3512 6.62066 15.3512C6.62066 15.3512 6.40551 15.3706 5.92817 15.0794C5.51548 14.827 5.33586 14.6037 5.33586 14.6037C5.29723 14.5897 5.2599 14.5723 5.22428 14.5519C5.06898 14.471 4.85372 14.3027 4.86023 14.0825L4.85938 14.0841Z" fill="#C2A44D"/>
<path fill-rule="evenodd" clip-rule="evenodd" d="M10.8124 4.37218C10.8498 4.38434 10.8831 4.40678 10.9084 4.43693C10.9844 4.52429 11.033 4.6893 10.8598 4.86573C10.9278 4.88994 10.9558 4.89773 11.0151 4.88994C10.9553 4.9612 10.8194 5.1133 10.8113 5.246C10.8032 5.35437 10.8711 5.3868 10.8711 5.3868C10.8711 5.3868 10.7676 5.50648 10.7628 5.7068C10.8117 5.65164 10.8652 5.60075 10.9228 5.55469C11.0426 5.45922 11.2076 5.35085 11.3192 5.2829C11.3177 5.31138 11.3216 5.33989 11.3306 5.36696C11.3306 5.36696 11.5392 5.19544 11.7146 5.2716C11.7938 5.30722 11.7582 5.4188 11.7582 5.4188C11.7582 5.4188 11.8667 5.37837 11.9427 5.45442C12.0188 5.53048 12.1263 5.72664 12.1814 5.80269C12.2056 5.83832 12.2688 5.90626 12.3334 6.01144C12.4217 6.15868 12.4955 6.31419 12.5536 6.47576C12.5568 6.3916 12.5778 6.26061 12.8174 6.34306C13.0568 6.42722 13.3286 6.60365 13.5568 6.95106C13.785 7.29848 13.8415 7.69069 13.9564 7.84002C14.0728 7.98402 14.1926 8.22349 14.2007 8.32386C14.2088 8.42424 14.1651 8.74776 14.4046 9.62317C14.4725 9.35138 14.5761 8.74776 14.5761 8.74776L14.6327 8.21538L14.6975 6.56813L12.9774 5.13912L11.6327 4.16333L10.7573 4.24749L10.8123 4.37208L10.8124 4.37218Z" fill="#CAA13E"/>
<path fill-rule="evenodd" clip-rule="evenodd" d="M14.0082 6.82356C14.0082 6.82356 13.9839 6.66356 13.5794 6.39156C13.1748 6.12297 12.8593 6.12297 12.5681 5.89481C12.3447 5.71519 12.1118 5.30249 11.9601 5.1666C11.8128 5.03231 11.7886 4.64393 11.7886 4.64393L12.2853 4.22793L13.0241 3.16009L13.6486 2.47241L13.9479 2.88841L14.3639 3.37705L14.5953 4.35764L14.6795 5.79295L14.0075 6.82367L14.0082 6.82356Z" fill="#B59544"/>
<path fill-rule="evenodd" clip-rule="evenodd" d="M14.508 8.54388C14.5202 8.32622 14.4933 8.10812 14.4286 7.89994C14.3219 7.5682 14.0889 6.97919 13.9806 6.7586C13.9369 6.51423 13.9693 6.49482 14.0162 6.4673C14.0632 6.43978 14.2396 6.3393 14.3362 5.98676C14.4329 5.63423 14.7327 5.62271 14.7327 5.62271L14.9171 5.48682L15.1971 6.1874L15.4414 6.82015L15.5174 7.30399L15.5741 7.71658L15.4414 8.58879L14.7861 9.181L14.5078 8.54388H14.508Z" fill="#C89D3A"/>
<path fill-rule="evenodd" clip-rule="evenodd" d="M5.36426 18.2656V18.2477C5.37787 18.2392 5.3899 18.2284 5.39978 18.2157C5.41108 18.1995 5.4193 18.1801 5.4273 18.1753C5.44351 18.1672 5.51956 18.1433 5.55999 18.151C5.60042 18.1586 5.7073 18.2027 5.76394 18.1995C5.88042 18.1963 6.01631 18.1072 6.23156 18.1478C6.55519 18.2076 6.63124 18.4277 6.81898 18.5522C6.94698 18.6397 7.07946 18.6008 7.09887 18.6008H7.1425C7.1506 18.6008 7.21044 18.5328 7.24287 18.5361C7.30762 18.5393 7.31402 18.5928 7.35444 18.596C7.44991 18.6073 7.63444 18.5474 7.72671 18.5718C7.78224 18.5892 7.82575 18.6326 7.84319 18.6881C7.8626 18.748 7.84639 18.824 7.79946 18.8678C7.69919 18.9599 7.60372 19.0474 7.58431 19.1238C7.609 19.1426 7.63271 19.1627 7.65535 19.1839C6.85473 18.9799 6.08442 18.6715 5.36426 18.2666V18.2656Z" fill="#CEB052"/>
<path fill-rule="evenodd" clip-rule="evenodd" d="M13.9805 15.0323C13.9805 15.0323 14.2328 14.6958 14.3203 14.5291C14.4077 14.3572 14.0436 12.1812 14.0436 12.1812L14.775 9.78484L14.7555 9.00489C14.7555 9.00489 14.7911 8.28479 14.8753 7.97247C14.9757 8.15209 15.288 8.36895 15.3559 8.48383C15.3879 8.26367 15.4966 7.79935 15.4805 7.3042C15.5404 7.39636 15.6844 8.32361 15.6844 8.32361L15.8284 8.94815L16.0161 9.61161L16.2248 10.3123L16.3494 10.7961L16.4206 10.9126L16.4805 11.1165L16.5372 11.3366L16.7006 11.8528L16.7966 12.2767L16.8726 13.0453C16.8892 13.1042 16.9011 13.1642 16.9083 13.2249C16.9115 13.3091 16.8969 13.3576 16.8969 13.3723C16.8969 13.3869 16.9245 13.5567 16.9132 13.6846C16.8969 13.8126 16.8969 13.9127 16.7966 14.0046C16.6962 14.0964 16.6332 14.6453 16.6332 14.6453L16.4535 14.5256C16.4535 14.5256 16.4892 14.3621 16.405 14.2133C16.3208 14.0645 16.1574 14.0337 16.0652 14.058C15.973 14.0774 15.7886 14.1064 15.7286 14.1583C15.672 14.21 15.5329 14.3702 15.405 14.4431C15.245 14.5391 14.9843 14.5467 14.8452 14.579C14.7044 14.611 14.5491 14.707 14.3856 14.8184C14.2574 14.9014 14.122 14.9728 13.9811 15.0318L13.9805 15.0323Z" fill="#CCA847"/>
<path fill-rule="evenodd" clip-rule="evenodd" d="M13.9805 18.5681C13.9805 18.5681 13.9911 18.575 14.0117 18.5863C15.1613 18.0477 16.1914 17.2842 17.0411 16.341C17.0318 16.0135 17.0197 15.6778 17.0065 15.5534C16.9791 15.2897 16.9985 15.0211 16.9904 14.8658C16.9823 14.7105 16.8949 14.0777 16.8545 13.9143C16.8108 13.7509 16.7265 13.6699 16.7137 13.6699C16.7024 13.6732 16.6343 13.9774 16.6343 14.0539C16.6343 14.1304 16.6181 14.3145 16.6181 14.3614C16.6068 14.3581 16.602 14.3294 16.602 14.3177C16.5858 14.3581 16.5664 14.4294 16.5583 14.4375C16.5502 14.4456 16.5696 14.3695 16.5583 14.3533C16.547 14.3371 16.5263 14.3452 16.5308 14.3048C16.5327 14.2808 16.5365 14.257 16.5421 14.2337C16.5421 14.2337 16.4935 14.3048 16.458 14.486C16.4224 14.6657 16.4224 14.6706 16.4095 14.6867C16.3982 14.7062 16.3334 14.7708 16.3301 14.7951C16.3269 14.8388 16.3901 14.8825 16.3949 14.9067C16.3981 14.9473 16.3382 15.1349 16.3188 15.2267C16.2994 15.3186 16.3075 15.4985 16.2868 15.5908C16.2706 15.6749 16.2548 15.7235 16.1995 15.759C16.2399 15.7671 16.2787 15.7784 16.2787 15.7784C16.2787 15.7784 16.3353 16.0179 16.1913 16.2218C16.1396 16.293 16.1267 16.3254 16.0717 16.3901C15.9632 16.5098 15.879 16.6461 15.8709 16.7348C15.8653 16.7086 15.8615 16.6821 15.8596 16.6554C15.8596 16.6554 15.6914 16.8513 15.6201 16.9629C15.528 17.1069 15.4001 17.0988 15.3641 17.1345C15.3282 17.1701 15.3204 17.2347 15.3321 17.2866C15.3001 17.2946 15.24 17.306 15.1995 17.4306C15.18 17.4952 15.1315 17.5586 15.0555 17.6021C14.9794 17.6456 14.8871 17.6587 14.8402 17.67C14.8806 17.6813 14.8968 17.6813 14.9163 17.6942C14.892 17.7347 14.7804 17.7978 14.6558 17.8788C14.5312 17.9548 14.4712 18.0664 14.4405 18.1393C14.4085 18.2072 14.3613 18.2509 14.2852 18.259C14.3172 18.2785 14.3646 18.3237 14.3888 18.3383C14.3532 18.3464 14.2928 18.3464 14.1849 18.4387C14.0717 18.5325 14.0328 18.5601 13.981 18.5682L13.9805 18.5681Z" fill="#C39D3C"/>
<path fill-rule="evenodd" clip-rule="evenodd" d="M11.729 19.3178C11.791 19.2743 11.8581 19.2388 11.9288 19.2118C12.1812 19.1116 12.4482 19.0922 12.5534 19.0598C12.6537 19.0278 12.733 18.9837 12.8576 18.9595C12.8543 18.9878 12.8515 19.0145 12.8485 19.0397C12.4812 19.1552 12.1072 19.248 11.7285 19.3178H11.729Z" fill="#D2BA6B"/>
<path fill-rule="evenodd" clip-rule="evenodd" d="M16.3837 12.6797C16.3837 12.6797 16.332 12.9596 16.2397 13.136C16.1475 13.3124 16.0477 13.5567 16.0477 13.5567C16.0483 13.5016 16.0548 13.4468 16.0671 13.3932C15.9507 13.4611 15.6675 13.6246 15.5871 13.6974C15.5111 13.7653 15.3832 13.8851 15.3509 13.9418C15.4269 13.7185 15.5062 13.5179 15.5192 13.4256C15.4027 13.5098 14.8589 13.958 14.5758 14.2541L13.6939 14.9677C13.5921 15.0226 13.4873 15.0717 13.38 15.1147C13.228 15.1793 13.0484 15.2343 12.9157 15.2862C12.9513 15.1907 13.0078 15.1064 13.0872 15.0256C13.1713 14.9463 13.4237 14.6728 13.4625 14.5456C13.4982 14.4129 13.5063 14.3336 13.4593 14.222C13.4156 14.2333 13.3153 14.2382 13.2474 14.2576C13.1795 14.277 13.1066 14.3498 13.1066 14.3498C13.1066 14.3498 13.1583 14.0536 13.27 13.7738C13.1859 13.777 13.0419 13.8012 13.0419 13.8012C13.0419 13.8012 13.2425 13.4646 13.5859 13.2301C13.4807 13.2525 13.3778 13.2844 13.2784 13.3254C13.0778 13.4096 12.8577 13.5342 12.6943 13.6021C12.7865 13.4741 13.4337 12.5504 13.8189 11.6895C14.2029 10.8303 14.3464 10.6102 14.4305 10.1491C14.4742 9.92095 14.4625 9.58378 14.4742 9.28181C14.4855 8.98239 14.5227 8.71381 14.4985 8.53418C14.5988 8.65877 14.9742 9.00991 14.9871 9.79477C14.9984 10.5795 14.628 11.6395 14.2347 12.2106C14.3307 12.2381 14.5795 12.2705 14.835 11.8266C15.0906 11.3826 15.0875 11.2587 15.1798 11.0741C15.1911 11.1664 15.1878 11.1987 15.1878 11.1987C15.1878 11.1987 15.56 10.7473 15.7364 10.1793C15.772 10.4237 15.8772 10.6389 15.712 11.0871C15.5648 11.4916 15.3723 11.5904 15.3723 11.5904C15.3723 11.5904 15.4678 11.5742 15.6085 11.49C15.6328 11.5499 15.628 11.618 15.6684 11.6421C15.7088 11.6662 15.7639 11.7069 15.772 11.7457C15.8156 11.681 15.8836 11.5984 15.9047 11.537C15.8885 11.665 15.8772 12.2246 15.9367 12.5094C16.0614 12.4981 16.1892 12.49 16.2765 12.2651C16.2167 12.4852 16.2167 12.6178 16.2571 12.8055C16.3235 12.7603 16.3833 12.6794 16.3833 12.6794L16.3837 12.6797Z" fill="#C0993A"/>
<path fill-rule="evenodd" clip-rule="evenodd" d="M12.1796 3.76062C12.1796 3.76062 12.055 3.81236 11.843 3.81236C11.6586 3.81236 11.7103 3.74121 11.4223 3.74121C10.979 3.74121 9.43043 3.99721 9.15854 3.99358C8.98211 3.99038 9.75395 4.06964 9.75395 4.06964L11.7265 4.09716L12.1229 4.06516L12.2702 3.76542L12.1796 3.76062Z" fill="#A88F33"/>
<path fill-rule="evenodd" clip-rule="evenodd" d="M7.06495 7.61652C7.06495 7.61652 6.81247 7.80905 6.7057 7.95636C6.59893 8.10367 6.54229 8.20063 6.4209 8.32041C6.44939 8.3215 6.47786 8.31768 6.50506 8.30911C6.50506 8.30911 6.50506 8.34111 6.48565 8.34953C6.51962 8.34573 6.5535 8.35749 6.57781 8.38153C6.54218 8.40095 6.44511 8.49812 6.52117 8.613C6.57781 8.70036 6.69759 8.70836 6.69759 8.70836C6.69759 8.70836 6.67007 8.78772 6.78495 8.77961C7.03253 8.76831 7.30922 8.65983 7.43701 8.68735C7.56501 8.71935 7.63775 8.73108 7.72831 8.88809C7.82431 9.0434 7.90794 9.06772 7.90794 9.06772C7.90794 9.06772 7.96458 8.92361 7.95167 8.70847C7.99811 8.5925 8.02385 8.46928 8.02773 8.34441L7.94357 7.72468L7.57631 7.26025L7.10058 7.52404L7.06495 7.6162V7.61652Z" fill="#E3C571"/>
<path fill-rule="evenodd" clip-rule="evenodd" d="M7.51611 7.52416C7.51611 7.52416 7.55174 7.60832 7.70065 7.61632C7.68443 7.65195 7.68443 7.65686 7.68934 7.68427C7.69254 7.71179 7.69734 7.75222 7.69734 7.75222C7.71373 7.74428 7.72855 7.73344 7.74107 7.72022C7.74918 7.75584 7.73297 7.81238 7.74107 7.85291C7.74608 7.87756 7.75421 7.90147 7.76529 7.92406C7.76765 7.91852 7.77035 7.91314 7.77339 7.90795C7.77659 7.89984 7.80539 7.99531 7.88507 8.06795C7.885 8.05678 7.88776 8.04577 7.89307 8.03595C7.8943 8.05624 7.90101 8.07582 7.91249 8.09259C7.90652 8.08975 7.90108 8.08593 7.89638 8.08128C7.89638 8.08128 7.90438 8.33728 7.94811 8.46966C7.95542 8.4611 7.96192 8.45189 7.96753 8.44214C7.96753 8.43414 7.96433 8.51339 7.95622 8.57014C7.94491 8.62678 7.95302 8.70603 7.95302 8.70603C7.98219 8.68306 8.01425 8.66402 8.04838 8.64939C8.09691 8.62987 8.17638 8.57003 8.22481 8.43734C8.2529 8.36219 8.27456 8.28479 8.28955 8.20598C8.3052 8.2361 8.316 8.26849 8.32155 8.30198C8.32486 8.3424 8.40091 8.32139 8.40091 8.32139L8.41713 8.14496L8.51313 7.74528L8.60049 7.49771L9.02118 6.84246L9.78129 6.25707L10.4448 6.40918L11.0045 5.64864L10.0402 5.06934L9.12753 5.1648L8.29926 6.312L7.6359 7.35254L7.51611 7.52406L7.51611 7.52416Z" fill="#D8B65B"/>
<path fill-rule="evenodd" clip-rule="evenodd" d="M12.2963 5.86415C12.2963 5.86415 12.2396 5.87546 12.0762 5.96015C11.9128 6.04485 11.7995 6.07173 11.7364 6.19631C11.6732 6.3209 11.6684 6.41967 11.6684 6.41967C11.6684 6.41967 11.7801 6.37114 11.8448 6.35493C11.9128 6.33882 11.9888 6.34362 11.9807 6.37114C11.973 6.39001 11.9621 6.40749 11.9487 6.42287C11.9487 6.42287 12.0767 6.41967 12.0733 6.48282C12.0699 6.54597 12.0491 6.61551 12.0249 6.64623C12.0006 6.67823 11.9003 6.72559 11.889 6.76282C11.8615 6.83887 11.9003 6.84207 11.8857 6.90351C11.8744 6.96346 11.8211 7.07994 11.6462 7.28378C11.4666 7.48773 11.3902 7.63173 11.3902 7.63173C11.3902 7.63173 11.3029 7.46831 11.2575 7.32751C11.2255 7.34362 11.0537 7.43909 11.0537 7.43909L10.6556 6.05242L10.6636 5.96015C10.6636 5.96015 10.6992 5.91653 10.7073 5.83557C10.6475 5.81615 10.6394 5.79994 10.56 5.72399C10.4807 5.64805 10.416 5.55567 10.2835 5.49253C10.264 5.4569 10.2397 5.40847 10.1427 5.38895C10.0456 5.36943 9.98735 5.35343 9.98735 5.35343C9.98735 5.35343 10.0391 5.33391 10.0634 5.29349C10.0035 5.30159 9.95503 5.32101 9.82393 5.31781C9.69124 5.3145 9.67663 5.3097 9.60388 5.32101C9.53113 5.33231 9.44388 5.36474 9.41135 5.25306C9.37572 5.22554 9.29967 5.24986 9.23492 5.34522C9.17017 5.44058 9.14756 5.51674 9.02297 5.55397C9.01421 5.60889 8.99498 5.66161 8.96633 5.70927C8.93071 5.76922 8.87407 5.82906 8.79801 5.91802C8.67823 6.05882 8.69764 6.29018 8.50671 6.46661C8.31417 6.64293 8.53871 5.97786 8.53871 5.97786L8.84612 5.24186L9.72153 4.38586L11.0808 4.2937L11.2135 4.9977L11.8769 5.22586L12.296 5.86501L12.2963 5.86415Z" fill="#D3AE4D"/>
<path fill-rule="evenodd" clip-rule="evenodd" d="M12.5112 6.01934L11.94 5.19577L11.5403 4.88825C11.5403 4.88825 11.2555 4.36409 11.2361 4.34788C11.2199 4.33657 10.9513 4.30745 10.7798 4.29614L10.8118 4.3754C10.8492 4.38756 10.8825 4.40999 10.9078 4.44014C10.9839 4.5275 11.0324 4.69252 10.8593 4.86894C10.9272 4.89316 10.9553 4.90094 11.0146 4.89316C10.9547 4.96441 10.8188 5.11652 10.8107 5.24921C10.8026 5.35758 10.8706 5.3899 10.8706 5.3899C10.8706 5.3899 10.767 5.50969 10.7622 5.7099C10.8111 5.65474 10.8646 5.60386 10.9222 5.5578C11.042 5.4618 11.207 5.35385 11.3187 5.2859C11.3172 5.31442 11.321 5.34296 11.33 5.37006C11.33 5.37006 11.5386 5.19854 11.714 5.2746C11.7932 5.31022 11.7576 5.4219 11.7576 5.4219C11.7576 5.4219 11.8661 5.38148 11.9422 5.45753C12.0182 5.53358 12.1266 5.72932 12.1816 5.80548C12.2058 5.8411 12.269 5.90905 12.3336 6.01412C12.4219 6.16139 12.4957 6.31694 12.5538 6.47854C12.557 6.4138 12.57 6.32324 12.6818 6.32324L12.5119 6.01902L12.5112 6.01934Z" fill="#CAA13E"/>
<path fill-rule="evenodd" clip-rule="evenodd" d="M3.94814 8.35928C3.94814 8.35928 3.90772 8.25891 3.94814 8.06317C3.98857 7.86744 4.05172 7.77517 4.07273 7.48717C4.09374 7.19917 4.28148 6.83992 4.28148 6.83992L4.80084 6.60376L5.1682 6.70403L5.27657 7.19597L4.81214 7.45197C4.81214 7.45197 4.78793 7.56035 4.65684 7.64771C4.52574 7.73507 4.34452 7.80301 4.30089 7.89208C4.27481 7.94662 4.25578 8.00425 4.24425 8.0636C4.24425 8.0636 4.11156 8.03608 4.0323 8.12344C3.94814 8.21251 3.95134 8.29176 3.94814 8.35971V8.35928Z" fill="#F4EFC8"/>
<path fill-rule="evenodd" clip-rule="evenodd" d="M4.9966 8.22814C4.9966 8.22814 4.95287 8.25566 4.92055 8.32414C4.88855 8.27241 4.81207 7.96488 4.80887 7.68819C4.80567 7.4115 4.78913 7.34291 4.85313 7.24755C4.91713 7.15219 5.16812 7.05171 5.13249 6.87998C5.09687 6.71657 4.94796 6.64862 4.76513 6.69555C4.63713 6.72755 4.54188 6.99977 4.40919 7.13566C4.30881 7.23923 4.18913 7.22302 4.15681 7.27966C4.11308 7.35571 4.15351 7.43177 4.1406 7.4803C4.13729 7.49651 4.09687 7.58387 4.02401 7.68904C3.87681 7.90099 3.62764 8.20041 3.59521 8.46899C3.60652 8.31688 3.59852 8.31369 3.63895 8.14537L3.61463 8.10494L3.77463 7.58067L3.8782 7.14867L4.10967 6.42526L4.51735 5.68584L4.91383 5.24243L5.32641 5.26995L5.37495 5.88968L5.61121 7.05321L6.10796 7.66483L5.3118 8.20062L4.99628 8.22814H4.9966Z" fill="#EBCC73"/>
<path fill-rule="evenodd" clip-rule="evenodd" d="M5.24453 8.44803C5.24453 8.44803 5.17658 8.46424 5.15226 8.45134C5.12794 8.43843 5.10383 8.42382 5.11183 8.4076C5.11983 8.39139 5.16357 8.36398 5.16357 8.35096C5.16543 8.32652 5.14752 8.30501 5.12314 8.30243C5.08591 8.29763 5.07461 8.32184 5.07461 8.32184C5.07461 8.32184 5.03898 8.29443 5.00997 8.28984C5.02713 8.28774 5.0444 8.28664 5.0617 8.28654C5.01698 8.26628 4.96955 8.25266 4.9209 8.24611C4.96133 8.2219 5.04069 8.15064 5.09242 8.15064C5.14415 8.15064 5.17658 8.14264 5.16847 8.11512C5.16037 8.0876 5.11994 8.04718 5.07631 8.03096C5.09242 8.01155 5.10383 7.98243 5.06501 7.90296C5.02447 7.82371 5.04069 7.77027 5.0537 7.75096C5.06501 7.72664 5.10543 7.68302 5.12485 7.6555C5.14426 7.62798 5.16047 7.59075 5.19279 7.57134C5.20901 7.56003 5.26074 7.53934 5.31258 7.5196C5.36922 7.50019 5.41615 7.47587 5.44847 7.50019C5.4841 7.5244 5.46789 7.55683 5.46789 7.55683C5.46789 7.55683 5.57957 7.5163 5.67983 7.56814C5.78021 7.61656 6.02458 7.64739 6.02458 7.64739L6.11215 7.82382L5.53285 8.32056L5.29338 8.44035L5.24485 8.44835L5.24453 8.44803Z" fill="#E5C66B"/>
<path fill-rule="evenodd" clip-rule="evenodd" d="M6.04838 7.63593C6.04838 7.63593 5.86876 7.75571 5.82833 7.79934C5.85254 7.80265 5.89297 7.81886 5.87676 7.84307C5.85734 7.86729 5.74086 7.95145 5.67612 8.03081C5.60817 8.11006 5.54342 8.21043 5.52081 8.25897C5.4966 8.30259 5.31206 8.43049 5.24902 8.44659C5.38172 8.44659 5.6487 8.28318 5.74897 8.28318C5.74577 8.33171 5.77649 8.38675 5.83313 8.39155C5.88977 8.39635 6.05318 8.42718 6.27324 8.29129C6.49329 8.15859 6.42054 8.05982 6.5127 7.99518C6.68913 7.87859 6.76028 7.77502 6.85734 7.71038C6.95441 7.64574 7.00465 7.63102 7.00465 7.63102C7.00465 7.63102 7.00785 7.58249 7.03665 7.58739C7.05272 7.58923 7.06644 7.59983 7.07228 7.61491C7.07228 7.61491 7.2406 7.49513 7.45628 7.46281C7.45125 7.46056 7.44722 7.45653 7.44497 7.4515C7.44497 7.4515 7.46108 7.44339 7.46438 7.43529C7.46438 7.43529 7.47569 7.41907 7.4838 7.42718C7.4919 7.43529 7.50321 7.49513 7.51942 7.51945C7.55505 7.50323 7.623 7.35113 7.623 7.35113L7.78652 6.8835V6.4563L7.65852 6.48062L6.69852 6.8883L6.1159 7.49193L6.04796 7.63593H6.04838Z" fill="#E6BD62"/>
<path fill-rule="evenodd" clip-rule="evenodd" d="M8.81217 5.54051C8.8641 5.52791 8.91388 5.50771 8.9599 5.48056C8.94049 5.5324 8.94049 5.58904 8.85633 5.71203C8.77217 5.83502 8.76897 5.85283 8.70102 5.98062C8.63308 6.11331 8.62497 6.30424 8.56022 6.3883C8.58924 6.3742 8.62037 6.36494 8.65238 6.36088C8.65238 6.36088 8.58774 6.41752 8.56022 6.47736C8.5327 6.5372 8.48417 6.66179 8.36449 6.73795C8.24481 6.81411 8.0926 6.86254 7.92918 7.04216C7.76566 7.21848 7.59745 7.44184 7.51318 7.52216C7.55692 7.44611 7.61676 7.294 7.63297 7.19374C7.64918 7.09347 7.62966 6.97358 7.65718 6.84099C7.6847 6.7084 7.6847 6.61283 7.81718 6.38136C7.94966 6.1499 8.17644 5.34574 8.17644 5.34574L8.66508 5.19043L8.81238 5.53998L8.81217 5.54051Z" fill="#B6933F"/>
<path fill-rule="evenodd" clip-rule="evenodd" d="M8.45941 5.24434C8.45941 5.24434 8.31221 5.45628 8.27178 5.64402C8.23135 5.83175 8.26847 5.81554 8.24426 5.9078C8.22978 5.96406 8.22978 6.02307 8.24426 6.07932C8.29524 5.9972 8.36504 5.92838 8.44789 5.87858C8.58709 5.79452 8.70037 5.73458 8.76789 5.66343C8.83583 5.58738 8.89247 5.46279 9.03967 5.36732C8.97983 5.35922 8.89567 5.3317 8.87967 5.33532C8.93962 5.26738 9.11914 5.1638 9.30037 5.03922C9.47999 4.91122 9.46869 4.85959 9.75999 4.7318C9.66453 4.74802 9.61919 4.7237 9.53983 4.7318C9.57183 4.66386 9.68383 4.63143 9.79583 4.51986C9.90783 4.40828 9.72469 4.24316 9.72469 4.24316L8.87135 4.75932L8.45877 5.24476L8.45941 5.24434Z" fill="#C49937"/>
<path fill-rule="evenodd" clip-rule="evenodd" d="M6.14404 4.85929L6.16346 4.70398L6.40783 4.31241L6.66351 3.62473V2.68457L6.6441 2.14089L6.68452 1.78484L6.71524 1.67166L6.74767 1.62793L6.95631 1.7363L7.24442 2.12788L7.27194 2.88361L6.99194 4.07614L6.19258 4.94836L6.14404 4.85929Z" fill="#DFC068"/>
<path fill-rule="evenodd" clip-rule="evenodd" d="M6.78009 1.58409C6.78009 1.58409 6.65209 1.5874 6.62479 2.11977C6.59748 2.65214 6.58425 2.93204 6.56484 3.19582C6.54543 3.45961 6.5002 3.61972 6.47748 3.77513C6.45476 3.93054 6.44185 4.14238 6.36911 4.27188C6.33711 4.33172 6.26873 4.51945 6.10852 4.66025C5.92889 4.81556 5.66052 4.92404 5.61988 4.93214C5.54863 4.94825 5.18777 4.98388 5.04057 5.06484C4.98884 5.09236 4.89977 5.12468 4.80111 5.21694C4.60527 5.39326 4.34479 5.70878 4.15705 6.08905C3.86905 6.65705 3.58105 8.26057 3.58105 8.26057L3.6458 8.1522C3.6458 8.1522 3.65391 8.0082 3.79791 7.75572C3.93871 7.50334 3.89828 7.22014 4.09401 6.7363C4.17007 6.55188 4.26553 6.31241 4.38201 6.10846C4.56655 5.77673 4.7898 5.49193 5.01476 5.33662C5.38201 5.08425 5.7866 5.02921 5.7866 5.02921L6.22191 4.74121C6.22191 4.74121 6.29796 4.59401 6.39833 4.42569C6.53903 4.18953 6.71833 3.92574 6.75748 3.54228C6.81743 2.97428 6.67332 2.60212 6.68143 2.26558C6.68953 1.92905 6.69273 1.68148 6.76079 1.62153C6.82884 1.56158 6.7802 1.5843 6.7802 1.5843L6.78009 1.58409Z" fill="#A88F33"/>
<path fill-rule="evenodd" clip-rule="evenodd" d="M6.78 4.12463C6.78 4.12463 6.972 3.65209 7.05989 3.233C7.0761 3.14884 7.10842 3.06479 7.11653 2.99684C7.15696 2.60036 7.16826 2.43695 7.11653 2.22009C7.0761 2.06009 6.9208 1.91588 6.83984 1.80409C6.76058 1.68751 6.72336 1.64409 6.73957 1.61956C6.75578 1.59503 6.81882 1.55492 6.88026 1.55972C7.01225 1.56356 7.13687 1.6214 7.22501 1.71972C7.3496 1.86372 7.44826 2.35247 7.44826 2.35247L7.55205 2.99737L7.81584 3.80964L6.78021 4.12527L6.78 4.12463Z" fill="#C99E3D"/>
<path fill-rule="evenodd" clip-rule="evenodd" d="M8.58408 3.63268C8.58408 3.63268 8.54845 3.64878 8.48381 3.63268C8.48943 3.68653 8.46443 3.739 8.41907 3.76857C8.35112 3.74105 7.71507 3.79609 7.71507 3.79609C7.71507 3.79609 7.41896 3.74425 7.32669 3.35267C7.26205 3.09209 7.37523 2.73294 7.338 2.49668C7.28136 2.14873 7.20211 2.08068 7.194 1.97241C7.18589 1.86414 7.17779 1.83652 7.17779 1.76857C7.14216 1.76046 7.12115 1.74916 7.08563 1.74916C7.07752 1.71716 7.09363 1.68921 7.05811 1.63257C7.07752 1.64068 7.21021 1.65689 7.36552 1.80409C7.49352 1.92388 7.49352 1.9675 7.51283 1.99182C7.53704 2.01604 7.73288 2.18382 7.81704 2.35108C7.9012 2.51833 8.06461 3.05166 8.10184 3.13902C8.11315 3.17465 8.13747 3.21028 8.19784 3.29113C8.29171 3.40772 8.4292 3.60046 8.58451 3.63246L8.58408 3.63268Z" fill="#B58634"/>
<path fill-rule="evenodd" clip-rule="evenodd" d="M7.53564 2C7.63367 2.15835 7.72173 2.32265 7.79932 2.49195C7.89479 2.70709 7.95143 2.88352 8.07122 3.02752C8.00647 2.83989 7.89159 2.47093 7.82364 2.33984C7.74759 2.20117 7.59228 2.05184 7.53564 2.00011V2Z" fill="#A88F33"/>
<path fill-rule="evenodd" clip-rule="evenodd" d="M6.4352 4.66026C6.4352 4.66026 6.27179 4.70069 5.96757 4.8609C5.8672 4.91264 5.77184 4.95626 5.67957 4.9968C5.43989 5.10517 5.18283 5.20533 4.97888 5.26058C4.99509 5.28 5.00309 5.288 5.00309 5.288C5.00309 5.288 5.00309 5.36736 5.04683 5.41258C5.02261 5.4369 4.69888 5.65696 4.79445 6.39317C4.85909 6.36896 4.93515 6.33653 4.94645 6.33653C4.96597 6.33984 4.97077 6.39317 4.99499 6.39317C5.0192 6.39317 5.09856 6.36117 5.18272 6.25237C5.17952 6.2961 5.13099 6.73621 5.39147 7.03232C5.44 6.97568 5.56299 6.78794 5.56299 6.78794L5.56619 6.7281C5.56619 6.7281 5.57749 6.51936 5.64555 6.32842C5.7136 6.13749 5.84619 5.99669 5.84619 5.99669L6.53856 5.008L6.43499 4.66016L6.4352 4.66026Z" fill="#E6C367"/>
<path fill-rule="evenodd" clip-rule="evenodd" d="M5.78804 6.11212C5.75634 6.13452 5.72141 6.15196 5.68446 6.16385C5.67316 6.12342 5.65694 5.98422 5.75241 5.84833C5.86409 5.68481 6.10836 5.47286 6.1763 5.30433C6.22004 5.19585 6.20062 4.92406 6.589 4.57612C6.97737 4.22817 7.12937 4.10849 7.12937 4.10849L7.75721 3.79297L8.52905 4.09718L8.14558 5.60012L7.84788 6.30412L6.66388 6.08086L5.78793 6.11212H5.78804Z" fill="#DCBA5A"/>
<path fill-rule="evenodd" clip-rule="evenodd" d="M6.24023 5.70394L6.38754 5.51951V5.38842C6.38754 5.38842 6.55095 5.34469 6.72727 5.16506C6.90359 4.98543 7.14797 4.64079 7.36322 4.66181C7.57847 4.68613 7.59949 5.12943 7.60759 5.25413C7.6157 5.37882 7.64322 5.66181 7.68685 5.81402C7.73538 5.96613 7.16258 6.54213 7.16258 6.54213L6.77357 6.83823L6.24023 5.70394Z" fill="#E9CE77"/>
<path fill-rule="evenodd" clip-rule="evenodd" d="M6.6958 7.23951C6.6958 7.23951 6.81559 7.05177 6.7278 7.01135C6.77953 6.89487 6.875 6.77188 6.875 6.77188C6.875 6.77188 6.94295 6.60367 7.163 6.39652C7.38305 6.18937 7.51905 6.05177 7.55468 5.91268C7.57664 5.82203 7.58859 5.72924 7.59031 5.63599C7.6141 5.65542 7.63955 5.67273 7.66636 5.68772C7.70199 5.70393 7.8702 5.84303 7.84599 6.12303C7.82177 6.40303 7.71799 6.51951 7.71799 6.51951C7.71799 6.51951 7.61772 6.61977 7.54657 6.67161C7.47041 6.72335 7.443 6.78319 7.31511 6.78809C7.32825 6.77764 7.34303 6.76943 7.35884 6.76377C7.35884 6.76377 7.22615 6.74767 7.15489 6.81231C7.08364 6.87695 6.93217 7.07609 6.85612 7.13604C6.78007 7.18457 6.69612 7.23961 6.69612 7.23961L6.6958 7.23951Z" fill="#CDAE50"/>
<path fill-rule="evenodd" clip-rule="evenodd" d="M12.076 4.09208C11.8848 4.0224 11.6839 3.9831 11.4806 3.9756C11.1408 3.96429 10.644 3.9837 10.157 3.9869C9.63271 3.9901 9.15697 3.80728 8.49681 3.77496C8.38844 3.71021 8.11281 3.42701 7.25244 4.02733C7.30417 4.02413 7.87708 3.89464 8.07601 4.14392C8.27665 4.39149 8.22001 4.81218 8.1926 4.91245C8.14076 5.13581 7.97244 5.46104 7.9046 5.6892C7.83676 5.91736 7.85276 6.03725 7.80423 6.19725C7.75569 6.35725 7.64892 6.43672 7.71196 6.62114C7.79612 6.56941 7.83996 6.56941 7.98055 6.25389C8.12113 5.93837 8.09223 5.71341 8.32529 5.44642C8.55345 5.17784 8.93329 4.81048 9.07772 4.71821C9.22215 4.62594 10.3689 4.03053 11.5697 4.59853C11.8593 4.56781 12.0761 4.09197 12.0761 4.09197L12.076 4.09208Z" fill="#D2A83E"/>
<path fill-rule="evenodd" clip-rule="evenodd" d="M7.73629 3.87202C7.7351 3.85986 7.73241 3.84789 7.72829 3.83639C7.71706 3.81273 7.70232 3.7909 7.68456 3.77165C7.68456 3.77165 7.39976 3.71991 7.25576 3.73602C7.00328 3.76354 6.77512 4.07586 6.66834 4.23607C6.56157 4.39629 6.42888 4.64375 6.28488 4.77165C6.28645 4.75919 6.28358 4.74657 6.27677 4.73602C6.27677 4.73602 6.28488 4.74733 6.26877 4.76354C6.25266 4.77975 6.25256 4.78775 6.26066 4.79554L6.28498 4.81975C6.29298 4.81975 6.51634 4.71938 6.82056 4.43575C7.14418 4.13965 7.39176 3.98775 7.52125 3.9357C7.59031 3.90635 7.66249 3.88499 7.7364 3.87202H7.73629Z" fill="#C29637"/>
<path fill-rule="evenodd" clip-rule="evenodd" d="M13.2605 2.65527C13.2605 2.65527 13.2086 2.71991 13.1439 2.79117C12.9999 2.94327 12.8121 3.11469 12.6519 3.29111C12.4999 3.45943 12.3284 3.59053 12.1358 3.81058C11.9431 4.03063 11.7198 4.2749 11.6632 4.34615C11.6115 4.41741 11.5711 4.53389 11.5711 4.59373C11.5436 4.57431 11.5112 4.5533 11.5112 4.5533C11.5248 4.5787 11.5411 4.60259 11.5598 4.62455C11.6002 4.68119 11.6632 4.75255 11.6957 4.79607C11.7354 4.85148 11.764 4.91413 11.7797 4.9805C11.7991 4.9837 11.9237 5.00802 12.0791 4.75234C12.2345 4.49666 12.4383 4.21677 12.4383 4.21677L12.7619 3.73613L12.9658 3.32845L13.2218 2.87213L13.2608 2.65527H13.2605Z" fill="#AC8132"/>
<path fill-rule="evenodd" clip-rule="evenodd" d="M13.5923 2.32861C13.5923 2.32861 13.3965 2.48861 13.3205 2.58461C13.2444 2.68061 13.0645 2.93256 13.0645 2.93256L13.1292 2.92445L13.4577 2.63325L13.5857 2.40509L13.5922 2.32904L13.5923 2.32861Z" fill="#A88F33"/>
<path fill-rule="evenodd" clip-rule="evenodd" d="M13.5321 15.1879C13.5321 15.1879 13.5289 15.0552 13.6034 14.9759C13.6794 14.8966 13.8719 14.7801 14.0597 14.3432C14.2474 13.9063 14.2683 13.8076 14.2683 13.8076C14.2683 13.8076 13.9318 14.0956 13.7243 14.1635C13.7729 14.0632 13.8004 13.992 13.8247 13.9402C13.7972 13.916 13.6807 13.8884 13.6694 13.8755C13.734 13.8108 13.7696 13.6522 13.9007 13.547C14.0691 13.419 14.3765 13.1991 14.6154 13.003C14.8543 12.807 15.3241 12.351 15.3841 12.2183C15.4197 12.27 15.4277 12.3023 15.4277 12.3023C15.4277 12.3023 15.1915 12.6098 15.0685 12.8056C14.96 12.9739 14.9682 13.0694 14.9682 13.0694L15.1915 12.9734C15.1915 12.9734 15.2562 13.2128 14.9634 13.577C15.0914 13.5284 15.143 13.5576 15.2157 13.517C15.0959 13.5932 14.9309 13.6968 14.7756 13.9815C14.6235 14.2663 14.4164 14.598 14.0669 14.805C13.7271 15.0235 13.5312 15.1869 13.5312 15.1869L13.5321 15.1879Z" fill="#A67A2E"/>
<path fill-rule="evenodd" clip-rule="evenodd" d="M12.6553 4.26055C12.6553 4.26055 12.5226 4.53714 12.5032 4.75239C12.5 4.80423 12.487 4.84466 12.487 4.9045C12.4838 5.09703 12.4983 5.31228 12.455 5.41255C12.4388 5.37212 12.4307 5.3446 12.4145 5.3285C12.3903 5.39644 12.3465 5.60839 12.3109 5.68764C12.2948 5.63591 12.2592 5.45628 12.2625 5.24434C12.2658 5.03239 12.2705 4.99186 12.2705 4.94823C12.2625 5.01287 12.2187 5.10034 12.2025 5.15207C12.1783 5.10844 12.1508 5.0518 12.1184 5.00487C12.0989 5.03687 12.0747 5.08412 12.0537 5.10844C12.0504 5.08903 12.0424 5.03719 12.0375 4.96444C12.0343 4.88028 12.0294 4.77191 12.0343 4.74919C12.0423 4.70556 12.1104 4.53404 12.2544 4.37703C12.4259 4.1893 12.6023 3.82855 12.654 3.71687C12.7058 3.60519 12.9258 3.14087 12.9258 3.14087H13.0941L12.8498 3.69746C12.8498 3.69746 12.7026 4.00167 12.6265 4.11346C12.5505 4.22524 12.3903 4.54556 12.319 4.67015C12.3707 4.6022 12.4145 4.56658 12.4663 4.50183C12.5164 4.4565 12.6555 4.26076 12.6555 4.26076L12.6553 4.26055Z" fill="#8C6228"/>
<path fill-rule="evenodd" clip-rule="evenodd" d="M13.5953 2.30737C13.5678 2.39199 13.5244 2.47057 13.4673 2.53884C13.367 2.65863 13.1517 2.81873 13.0466 2.94652C12.9506 3.07111 12.7586 3.41095 12.8459 3.81383C12.8779 3.72647 12.9382 3.55335 13.0984 3.35751C13.2586 3.16167 13.4301 2.93681 13.5144 2.76209C13.5984 2.58567 13.6097 2.44657 13.6097 2.44657L13.6417 2.40615L13.6223 2.31388L13.5948 2.30737L13.5953 2.30737Z" fill="#CBA94C"/>
<path fill-rule="evenodd" clip-rule="evenodd" d="M16.872 13.0403C16.872 13.0403 16.8073 12.864 16.7878 12.7038C16.7684 12.5436 16.8198 12.5118 16.7603 12.3284C16.7247 12.2168 16.6601 12.2324 16.6438 12.2168C16.6276 12.2011 16.6163 12.0323 16.6195 11.9401C16.6227 11.8478 16.6163 11.7281 16.6001 11.6763C16.5759 11.6569 16.5597 11.6407 16.5241 11.521C16.4836 11.4012 16.4642 11.3414 16.4448 11.3058C16.4254 11.2703 16.3686 11.2379 16.3686 11.2023C16.3686 11.131 16.4334 11.0939 16.4334 11.0743C16.4302 11.0338 16.3817 11.0663 16.3686 11.0548C16.3525 11.0354 16.4092 10.919 16.3882 10.9027C16.3801 10.8947 16.3234 10.9627 16.3088 10.9433C16.2926 10.9238 16.2732 10.7312 16.2441 10.6034C16.2166 10.4788 16.1874 10.3883 16.1842 10.3511C16.181 10.3154 15.9609 9.68759 15.9075 9.53549C15.8645 9.40696 15.8284 9.27625 15.7991 9.14391C15.7829 9.06786 15.7716 8.91245 15.7635 8.92866C15.7554 8.94487 15.7603 9.02413 15.7473 9.02093C15.736 9.01762 15.6956 8.74103 15.6827 8.6973C15.6714 8.65357 15.6033 8.5053 15.5867 8.39799C15.5705 8.28951 15.5349 8.00631 15.5106 7.81378C15.4863 7.62125 15.475 7.54199 15.475 7.49378C15.479 7.37585 15.4725 7.25781 15.4556 7.14103C15.4236 6.93709 15.3596 6.68951 15.3035 6.54562C15.1951 6.27373 14.907 5.57794 14.8555 5.40482C14.8555 5.36109 14.9121 5.38541 14.9121 5.38541C14.9121 5.38541 15.0528 5.73815 15.1564 6.00994C15.2567 6.28183 15.3522 6.5213 15.3765 6.54562C15.3959 6.56983 15.5481 6.83682 15.616 7.27373C15.6839 7.71063 15.7082 8.11351 15.7487 8.3821C15.7681 8.5101 15.7843 8.64589 15.8247 8.78178C15.8684 8.92909 15.9363 9.08119 16.0254 9.31415C16.1014 9.50999 16.1581 9.67341 16.1888 9.81421C16.2244 9.99383 16.2244 10.1297 16.2454 10.2188C16.265 10.2948 16.294 10.4468 16.362 10.6668C16.4301 10.8867 16.5302 11.17 16.5982 11.3464C16.731 11.6991 16.7902 11.9936 16.8102 12.1506C16.8279 12.3124 16.8879 12.8723 16.8717 13.0406L16.872 13.0403Z" fill="#A88F33"/>
<path fill-rule="evenodd" clip-rule="evenodd" d="M13.6034 2.28797L13.5953 2.30739C13.5953 2.30739 13.6195 2.31549 13.6147 2.34792C13.615 2.39228 13.6123 2.43662 13.6066 2.48061C13.5986 2.53725 13.5824 2.58088 13.5792 2.61651C13.5792 2.69256 13.5905 2.77992 13.4832 2.99677C13.4512 3.05661 13.4314 3.10835 13.4152 3.14397C13.3748 3.23133 13.3667 3.24435 13.3311 3.28477C13.3877 3.25277 13.5916 3.12477 13.6951 3.14397C13.624 3.1844 13.5155 3.26376 13.4475 3.36733C13.4637 3.37053 13.5317 3.38355 13.6395 3.36733C13.8192 3.33981 14.0198 3.27507 14.1961 3.28797C14.3888 3.29928 14.3127 3.05661 14.3127 3.05661L14.0904 2.56797L13.6697 2.27197L13.6034 2.28808V2.28797Z" fill="#BE9C44"/>
<path fill-rule="evenodd" clip-rule="evenodd" d="M14.7009 5.94836C14.7009 5.94836 14.5132 5.76063 14.4371 5.11636C14.3611 4.46911 14.3773 3.51636 14.3773 3.51636L14.2252 3.1442C14.2252 3.1442 14.1932 2.89663 14.1135 2.80447C14.0338 2.71231 13.8774 2.5569 13.8061 2.48084C13.7349 2.40479 13.654 2.30122 13.6055 2.285C13.6297 2.24458 13.7382 2.01642 14.1539 2.01322C14.5697 2.01002 14.6979 2.24138 14.7414 2.32554C14.7848 2.4097 14.9808 2.77354 15.0536 3.46687C15.1215 4.15935 15.1248 4.21119 15.1135 4.45066C15.1054 4.58335 15.0617 4.89076 14.9855 5.21919C14.916 5.49759 14.8399 5.80831 14.7007 5.949L14.7009 5.94836Z" fill="#A17C34"/>
<path fill-rule="evenodd" clip-rule="evenodd" d="M14.112 6.50013C14.1746 6.50465 14.2371 6.49054 14.2916 6.4596C14.3515 6.4564 14.5683 6.48392 14.7349 6.27197C14.7463 6.3204 14.7755 6.4516 14.6993 6.56808C14.7399 6.52755 14.7997 6.51144 14.8078 6.50013C14.811 6.55997 14.8676 6.7444 14.6282 7.19261C14.6928 7.12147 14.7689 7.12467 14.8368 7.11656C14.8401 7.20072 14.8853 7.48381 14.7657 7.63603C14.6864 7.7396 14.5569 7.70717 14.5569 7.70717C14.5588 7.68456 14.5588 7.66184 14.5569 7.63923C14.5537 7.59549 14.5375 7.55187 14.5489 7.52275C14.4864 7.49416 14.4294 7.45469 14.3806 7.40616C14.2398 7.27347 14.057 7.04701 14.0441 6.87869C14.0279 6.69096 14.1962 6.65053 14.1962 6.65053C14.1821 6.63792 14.1701 6.62316 14.1605 6.6068C14.1524 6.57939 14.1443 6.53565 14.112 6.50013Z" fill="#8C6228"/>
<path fill-rule="evenodd" clip-rule="evenodd" d="M12.8642 4.46444C12.8642 4.46444 12.8561 4.45313 12.8125 4.50486C12.8206 4.45313 12.8287 4.40449 12.8319 4.35756C12.8526 4.3141 12.8793 4.27381 12.9113 4.23788C12.887 4.2863 12.8707 4.33004 12.8707 4.33004C12.8707 4.33004 12.9307 4.21836 13.018 4.15041C13.0779 4.10188 13.1539 4.07926 13.1863 4.03393C13.2219 3.9854 13.2138 3.97729 13.2219 3.96918C13.2219 3.96918 13.3012 3.91745 13.4226 3.76524C13.4387 3.74582 13.4631 3.72481 13.4793 3.7054C13.5067 3.69409 13.5714 3.66497 13.6475 3.62604C13.7268 3.58241 13.8158 3.52257 13.8708 3.49804C13.9792 3.4495 14.0942 3.45441 14.1475 3.37825C14.188 3.36694 14.2316 3.24556 14.2236 3.14209C14.2834 3.1663 14.5908 3.35724 14.6961 3.77473C14.7722 4.07084 14.6362 4.52716 14.5795 4.74732C14.5229 4.96748 14.5149 5.13078 14.4355 5.23105C14.3352 5.36385 14.0116 5.55105 13.9323 5.64374C13.8643 5.7198 13.6605 5.91233 13.6685 6.05142C13.6766 6.155 13.8044 6.21142 13.832 6.23105C13.8596 6.25068 13.8594 6.27478 13.9113 6.26305C13.9631 6.25132 13.9824 6.22742 14.0035 6.22742C14.0278 6.23062 14.0278 6.23553 14.0391 6.23553C14.0473 6.23529 14.0554 6.23418 14.0634 6.23222C14.0634 6.23222 14.0553 6.37953 13.7106 6.42422C13.6863 6.42753 13.6621 6.43553 13.6313 6.44044C13.6718 6.42102 13.696 6.42102 13.7398 6.36118C13.6912 6.35308 13.552 6.34497 13.5164 6.33366C13.5277 6.31425 13.5649 6.26241 13.5956 6.2382C13.6232 6.21398 13.5924 6.2062 13.5682 6.21878C13.5265 6.24715 13.4865 6.27792 13.4484 6.31094C13.408 6.34657 13.3724 6.3951 13.3076 6.43894C13.2882 6.3742 13.2914 6.25121 13.3676 6.16225C13.3481 6.16545 13.3108 6.22209 13.2753 6.21078C13.2689 6.15176 13.2727 6.09207 13.2866 6.03436C13.306 5.9615 13.4112 5.83372 13.4112 5.83372L13.9193 4.92588L14.0276 4.2382L12.8642 4.46422V4.46444Z" fill="#92723A"/>
<path fill-rule="evenodd" clip-rule="evenodd" d="M12.8364 4.50327C12.8364 4.50327 12.8089 4.52268 12.864 4.55991C12.8559 4.57121 12.8364 4.61164 12.8121 4.63916C12.7847 4.67116 12.7555 4.691 12.7442 4.71852C12.72 4.77516 12.7005 4.81399 12.7005 4.83831C12.7005 4.86263 12.6924 5.01793 12.6245 5.1182C12.6002 5.15383 12.5727 5.21367 12.5532 5.25409C12.5128 5.32524 12.4772 5.38209 12.4691 5.41409C12.453 5.47073 12.4417 5.62604 12.4417 5.62604C12.4417 5.62604 12.4773 5.58231 12.4902 5.5662C12.4707 5.60663 12.4497 5.65025 12.4189 5.68268C12.4384 5.66647 12.495 5.62604 12.5905 5.54188C12.7232 5.43031 12.9303 5.24257 13.1828 5.09388C13.1066 5.1214 13.042 5.1214 12.9903 5.12951C13.0307 5.08908 13.3947 4.66188 13.5857 4.62145C13.5973 4.60675 13.603 4.5883 13.6019 4.56961L13.4384 4.55351L13.1066 4.62465L13.0582 4.36865L12.8364 4.50295V4.50327Z" fill="#B18E3E"/>
<path fill-rule="evenodd" clip-rule="evenodd" d="M13.3641 5.95954C13.3641 5.95954 13.3204 6.00317 13.2799 6.11165C13.2488 6.07915 13.2221 6.04267 13.2006 6.00317C13.1407 5.9029 13.0486 5.77501 12.8333 5.84786C12.8301 5.77991 12.8252 5.74429 12.8333 5.69575C12.869 5.68775 12.9773 5.60039 13.0857 5.4725C13.1619 5.38514 13.233 5.28477 13.2815 5.15698C13.3135 5.13266 13.3689 5.09223 13.4415 5.0453C13.5451 4.97415 13.6697 4.87698 13.6891 4.76861C13.6406 4.78802 13.537 4.83655 13.3816 4.82855C13.4415 4.80103 13.5337 4.77191 13.5224 4.65213C13.5467 4.63591 13.5661 4.62461 13.5661 4.62461C13.5479 4.61852 13.5287 4.61578 13.5095 4.6165C13.5062 4.60519 13.5014 4.58909 13.4739 4.59709C13.4463 4.60509 13.4419 4.60519 13.4382 4.6165C13.4269 4.61981 13.3897 4.6165 13.3622 4.63602C13.3347 4.65554 13.2586 4.72007 13.2295 4.73138C13.2408 4.71197 13.2569 4.68295 13.2569 4.68295C13.2569 4.68295 13.1776 4.69095 13.121 4.71495C13.0174 4.75058 12.8978 4.81533 12.7764 4.87837C12.7877 4.85895 12.7926 4.84637 12.8006 4.84274C12.8086 4.83911 12.8281 4.83474 12.8281 4.83143C12.8281 4.82813 12.8201 4.79943 12.8249 4.78781C12.8612 4.71093 12.904 4.6373 12.9529 4.56775C13.0095 4.49159 13.0208 4.38322 13.0208 4.38322L13.2684 4.25863L13.9642 4.09863L14.4157 4.12615L14.3591 4.43847L14.0924 4.98375L13.8643 5.4805L13.6037 5.78482L13.3642 5.95954H13.3641Z" fill="#543E26"/>
<path fill-rule="evenodd" clip-rule="evenodd" d="M14.4921 4.60792C14.4921 4.60792 14.2202 4.94445 14.1442 4.99629C14.1927 4.89272 14.4921 4.27619 14.6005 4.10467C14.5763 4.08525 14.5439 4.08525 14.6199 3.78467C14.5553 3.93667 14.5326 4.01603 14.4792 4.05645C14.4259 4.09688 14.4193 4.08397 14.3832 4.08397C14.39 4.07166 14.3928 4.05753 14.3912 4.04355C14.3912 4.04355 14.1631 4.01603 14.0072 4.01603C13.8514 4.01603 13.5429 4.10019 13.3713 4.16813C13.2354 4.22477 13.1593 4.22477 13.1108 4.26029C13.0623 4.30072 13.0348 4.34445 13.0104 4.35576C12.991 4.36707 12.8989 4.39619 12.8777 4.42691C12.8583 4.45891 12.826 4.49485 12.826 4.50296C12.826 4.51107 12.8179 4.52248 12.8422 4.51427C12.8502 4.51107 12.9102 4.47864 12.9781 4.43821C13.0703 4.38648 13.182 4.32664 13.2629 4.29101C13.4943 4.19875 13.5671 4.21496 13.6706 4.19555C13.779 4.17613 13.9344 4.1308 14.0378 4.1308C14.1414 4.1276 14.3373 4.1308 14.3826 4.13891C14.3632 4.15512 14.347 4.17453 14.3551 4.24248C14.3551 4.26189 14.3389 4.28291 14.3231 4.32984C14.2746 4.46253 14.1824 4.68259 14.1311 4.79427C14.0599 4.94627 13.9791 5.07416 13.9391 5.15341C13.8991 5.23267 13.8111 5.44141 13.7239 5.55309C13.6368 5.66477 13.5912 5.73272 13.5639 5.75704C13.5366 5.78136 13.3406 5.92525 13.3552 5.97709C13.3908 5.96579 13.6158 5.88109 13.7791 5.6972C13.9424 5.51331 13.9749 5.40109 14.1027 5.30072C14.2305 5.20035 14.3309 5.03213 14.3907 4.89304C14.4408 4.76355 14.4295 4.72312 14.4926 4.60824L14.4921 4.60792Z" fill="#806031"/>
<path fill-rule="evenodd" clip-rule="evenodd" d="M8.6327 7.1198C8.6327 7.1198 8.59707 7.267 8.51611 7.33986C8.43686 7.41111 8.29606 7.47255 8.27995 7.59234C8.26054 7.71202 8.42075 7.77196 8.42075 7.77196C8.42075 7.77196 8.33329 7.91596 8.33329 8.02434C8.33329 8.13602 8.33009 8.15703 8.34139 8.2638C8.32856 8.27206 8.31765 8.28297 8.30939 8.2958C8.30939 8.2958 8.31739 8.39938 8.39675 8.46402C8.47611 8.52866 8.54395 8.56759 8.58438 8.55138C8.59055 8.56457 8.59597 8.5781 8.60059 8.59191C8.60059 8.59191 8.66054 8.4398 8.70097 8.30711C8.74139 8.17122 8.77702 8.19052 8.79313 8.0077C8.80923 7.82487 8.98513 7.51095 8.98513 7.51095L9.10513 7.24268L8.90939 7.09058L8.6327 7.1197V7.1198Z" fill="#B6903C"/>
<path fill-rule="evenodd" clip-rule="evenodd" d="M8.99696 7.38354C8.9566 7.42498 8.91934 7.46933 8.88549 7.51624C8.83376 7.58749 8.79333 7.65213 8.71728 7.67976C8.64123 7.70738 8.59269 7.70717 8.59749 7.78333C8.60229 7.85949 8.67355 7.8917 8.71397 7.93053C8.75771 7.97096 8.79333 8.0389 8.77392 8.11506C8.79813 8.10376 8.84187 8.09074 8.88229 8.00338C8.92272 7.91602 9.20549 7.38365 9.20549 7.38365H8.99696V7.38354Z" fill="#685026"/>
<path fill-rule="evenodd" clip-rule="evenodd" d="M10.112 6.15526C10.112 6.15526 10.1363 6.09062 10.112 6.04369C10.0877 5.99515 9.94052 5.97894 9.86767 5.9239C9.79161 5.86726 9.69935 5.8279 9.62329 5.85275C9.6346 5.82523 9.67993 5.76529 9.64271 5.75238C9.60708 5.74107 9.47449 5.80091 9.43887 5.82843C9.40324 5.85595 9.32228 5.88827 9.30617 5.90779C9.29007 5.92731 9.26244 5.96443 9.24623 5.94822C9.23001 5.93691 9.22201 5.90779 9.19449 5.9239C9.16697 5.94001 9.03449 6.04849 9.01007 6.11163C8.98564 6.17478 8.93071 6.31558 8.76569 6.47569C8.60068 6.63579 8.52943 6.73947 8.57796 6.79931C8.62649 6.85915 8.64921 6.81553 8.65732 6.86726C8.66356 6.91805 8.66081 6.96953 8.64921 7.01937C8.6298 7.10353 8.59748 7.18278 8.64111 7.19899C8.75279 7.23462 8.86127 7.16699 8.88548 7.18769C8.93401 7.23131 8.85796 7.38833 8.97284 7.41905C9.08943 7.45105 9.20431 7.39153 9.20431 7.39153L9.6282 7.16337L10.036 6.94822L10.2446 6.53553L10.1327 6.19089L10.1114 6.15526H10.112Z" fill="#D4B968"/>
<path fill-rule="evenodd" clip-rule="evenodd" d="M9.71193 7.1409C9.71193 7.1409 9.64068 7.03253 9.72814 6.93695C9.81561 6.84138 9.94009 6.80106 9.98862 6.74122C9.97938 6.72982 9.96699 6.7214 9.953 6.71701C9.98521 6.65936 10.0344 6.613 10.0938 6.58421C10.0696 6.55999 10.0372 6.54058 10.0016 6.54058C9.92228 6.54058 9.87364 6.58911 9.80089 6.58911C9.72974 6.58911 9.72164 6.55349 9.72164 6.55349C9.72164 6.55349 9.84142 6.54218 9.83001 6.48874C9.8187 6.4321 9.79801 6.4321 9.79801 6.4321C9.79801 6.4321 10.0294 6.3361 10.0698 6.2849C10.1102 6.2337 10.1054 6.17322 10.1135 6.14901C10.1409 6.14901 10.3012 6.06485 10.3659 6.10047C10.4307 6.1361 10.3853 6.23317 10.3853 6.23317C10.3853 6.23317 10.5813 6.08586 10.6811 5.94143C10.7685 5.94954 10.8091 5.88159 10.8731 5.88159C10.9525 5.88159 11.0771 5.98997 11.1013 6.22133C11.1175 6.35402 11.1417 6.43007 11.1175 6.66474C11.1062 6.79743 11.1094 7.08074 11.1495 7.22133C11.1769 7.33301 11.2416 7.3217 11.2416 7.3217C11.2317 7.35573 11.212 7.3861 11.185 7.40906C11.1413 7.44949 11.1365 7.55637 11.1413 7.59679C11.1477 7.62635 11.1558 7.65552 11.1656 7.68415C11.1656 7.68415 11.1139 7.74399 11.1008 7.78453C11.0895 7.82495 11.0362 7.85247 10.9973 7.85247C10.9583 7.85247 10.9779 7.84917 10.9261 7.85247C10.8744 7.85578 10.8582 7.86378 10.8257 7.85247C10.7933 7.84117 10.7691 7.82815 10.7821 7.72447C10.7934 7.6209 10.3824 7.37983 10.3824 7.37983L9.71044 7.14037L9.71193 7.1409Z" fill="#CCA849"/>
<path fill-rule="evenodd" clip-rule="evenodd" d="M8.93999 8.16354C8.93999 8.16354 9.08719 8.35938 9.69241 8.35938C9.98041 8.35938 10.0808 8.33186 10.1404 8.31564C10.2052 8.29943 10.4478 8.20407 10.6922 7.91596C10.9123 7.65548 10.8637 7.54871 10.8637 7.54871L10.7357 7.5293L10.3197 7.58594L9.08879 8.1102L8.93945 8.16354H8.93999Z" fill="#585136"/>
<path fill-rule="evenodd" clip-rule="evenodd" d="M9.39145 8.21196C9.39145 8.21196 8.86719 8.32855 8.86719 7.99681C8.86719 7.67319 9.19081 7.33335 9.27177 7.27351C9.35593 7.21356 9.55657 7.14551 9.55657 7.14551H10.0404L10.1326 7.38988L10.0921 7.91735L9.39145 8.21185V8.21196Z" fill="#252211"/>
<path fill-rule="evenodd" clip-rule="evenodd" d="M9.87548 7.24437C9.87548 7.24437 9.77521 7.15211 9.54705 7.27637C9.31889 7.40064 9.13436 7.66037 9.12305 7.89621C9.11175 8.10485 9.29457 8.26027 9.57937 8.26837C9.79132 8.27637 9.91921 8.25216 9.98396 8.23637C9.96775 8.21696 9.88359 8.11179 9.88359 8.11179L9.87559 7.24448L9.87548 7.24437Z" fill="#C3B378"/>
<path fill-rule="evenodd" clip-rule="evenodd" d="M9.77695 7.29587C9.77695 7.29587 9.75273 7.27646 9.68095 7.31528C9.62111 7.34728 9.53375 7.43187 9.4658 7.49171C9.42207 7.52734 9.39455 7.54344 9.3698 7.57096C9.26943 7.69075 9.18527 7.88659 9.23391 7.98366C9.28255 8.08072 9.44265 8.1924 9.85044 8.11635L9.77577 7.29598L9.77695 7.29587Z" fill="#E6D89C"/>
<path fill-rule="evenodd" clip-rule="evenodd" d="M9.64416 7.49684C9.64416 7.49684 9.57941 7.59722 9.57941 7.75743C9.57941 7.92084 9.67168 8.18132 10.0115 8.20074C10.272 8.21695 10.4467 7.82538 10.636 7.67327C10.78 7.55679 10.8674 7.55348 10.8674 7.55348C10.8674 7.55348 10.7202 7.39348 10.327 7.18623C9.93866 6.97748 9.50336 6.94996 9.26709 7.27039C9.37877 7.26228 9.73962 7.17002 9.73962 7.17002L9.91605 7.22666L9.64416 7.49695V7.49684Z" fill="#252211"/>
<path fill-rule="evenodd" clip-rule="evenodd" d="M10.1524 7.70866C10.1411 7.68444 10.1329 7.65202 10.1799 7.64402C10.2268 7.63602 10.2478 7.64071 10.264 7.67602C10.2803 7.71132 10.296 7.74076 10.272 7.75538C10.2478 7.76828 10.1847 7.75538 10.1523 7.70844L10.1524 7.70866ZM10.0763 7.48048C10.0763 7.48048 10.0601 7.49179 10.0682 7.46918C10.0714 7.44176 10.0925 7.39312 10.1442 7.40454C10.196 7.41595 10.1848 7.47248 10.1762 7.4887C10.1677 7.50491 10.1245 7.53232 10.0921 7.5207C10.0837 7.51856 10.0769 7.51258 10.0737 7.5046C10.0705 7.49661 10.0713 7.48757 10.0759 7.48027L10.0763 7.48048Z" fill="#6F674D"/>
<path fill-rule="evenodd" clip-rule="evenodd" d="M5.6958 7.58395C5.6958 7.58395 5.8238 7.67995 5.97249 7.67621C6.11969 7.67291 6.30903 7.52091 6.39639 7.42373C6.44812 7.36709 6.49239 7.30725 6.54039 7.26032C6.58092 7.21989 6.60833 7.20048 6.62775 7.17296C6.65527 7.14096 6.68439 7.0808 6.699 7.06128C6.66337 7.0888 6.61164 7.13744 6.5582 7.16976C6.50647 7.20176 6.39479 7.26192 6.34945 7.27813C6.30583 7.29435 5.85271 7.53413 5.85271 7.53413L5.6958 7.58395Z" fill="#AC924C"/>
<path fill-rule="evenodd" clip-rule="evenodd" d="M5.8916 6.38844C5.8916 6.38844 5.96275 6.33991 6.10035 6.30908C6.23304 6.27708 6.50003 6.25244 6.50003 6.25244L6.72008 6.34844L6.80744 6.68017L6.64744 7.02492L6.4436 7.15292L6.21213 6.78076L5.89213 6.38908L5.8916 6.38844Z" fill="#9F8E57"/>
<path fill-rule="evenodd" clip-rule="evenodd" d="M5.6035 6.68438L5.52734 6.74123C5.52734 6.74123 5.54686 6.70561 5.56297 6.59723C5.57908 6.48886 5.66334 6.22507 5.78633 6.07297C5.90932 5.92086 5.90612 5.92897 5.90612 5.92897C5.88322 5.92478 5.85963 5.93065 5.84137 5.94507C5.85758 5.90923 5.96116 5.78123 6.06473 5.71723C6.1683 5.65323 6.20873 5.63307 6.3171 5.68523C6.42548 5.73739 6.453 5.76449 6.53236 5.76129C6.61172 5.75809 6.67956 5.67393 6.67956 5.67393C6.67956 5.67393 6.69577 5.72566 6.63593 5.84545C6.57609 5.96523 6.33982 6.2095 6.33982 6.2095L5.84788 6.54603L5.6035 6.6847V6.68438Z" fill="#EAC970"/>
<path fill-rule="evenodd" clip-rule="evenodd" d="M5.96771 6.34787C5.96771 6.34787 6.32377 6.3964 6.43214 6.29613C6.43534 6.30744 6.44835 6.30744 6.44835 6.31555C6.44748 6.32166 6.44463 6.32731 6.44025 6.33165C6.45203 6.32977 6.46394 6.3287 6.47587 6.32845C6.49012 6.33269 6.50478 6.33541 6.51961 6.33656C6.53154 6.3363 6.54345 6.3352 6.55523 6.33325C6.55296 6.3495 6.54418 6.36413 6.53091 6.37379C6.54713 6.37379 6.56291 6.37699 6.56291 6.38989C6.56291 6.4028 6.56611 6.44173 6.5467 6.44984C6.53062 6.45429 6.5135 6.45312 6.49817 6.44653C6.49945 6.47717 6.50777 6.5071 6.52249 6.534C6.55449 6.59384 6.62275 6.662 6.71449 6.64237C6.71449 6.64237 6.76291 6.75885 6.55907 7.01773C6.53166 7.05336 6.50243 7.10189 6.46691 7.14232C6.45288 7.17291 6.44215 7.20491 6.43491 7.23779C6.43491 7.23779 6.77966 7.10509 6.87833 6.80248C6.9787 6.49827 6.99811 6.19896 6.9787 5.91907C6.97539 5.83971 6.96249 5.78317 6.94307 5.74264C6.89454 5.64227 6.75854 5.65848 6.70361 5.71512C6.62425 5.79448 6.49155 5.99181 6.30713 6.12771C6.11939 6.2636 6.11139 6.28771 5.96729 6.34787H5.96771Z" fill="#D7BC6B"/>
<path fill-rule="evenodd" clip-rule="evenodd" d="M5.54037 6.78479C5.54037 6.78479 5.47243 6.82522 5.4368 6.97679C5.40117 7.1321 5.4688 7.32143 5.50795 7.38127C5.54709 7.44111 5.63595 7.60463 5.82027 7.61274C5.86589 7.6125 5.911 7.60314 5.95296 7.58522C6.0173 7.55571 6.07766 7.51819 6.13259 7.47354C6.21195 7.4137 6.27659 7.36197 6.26848 7.35706C6.24907 7.34895 5.77984 6.96058 5.77984 6.96058L5.60341 6.76367L5.54027 6.78501L5.54037 6.78479Z" fill="#585136"/>
<path fill-rule="evenodd" clip-rule="evenodd" d="M5.98383 7.42868C5.98383 7.42868 6.07929 7.42068 6.13593 7.38505C6.19257 7.34942 5.8042 6.96436 5.8042 6.96436L5.83172 7.38036L5.98383 7.42868Z" fill="#453A25"/>
<path fill-rule="evenodd" clip-rule="evenodd" d="M5.57113 6.75553C5.57113 6.75553 5.5226 6.8478 5.5226 6.87212C5.51449 6.95137 5.53881 7.20055 5.55822 7.2798C5.57764 7.36396 5.68281 7.49175 5.81881 7.49175C5.90286 7.49175 6.01945 7.44001 6.01945 7.42711C6.01945 7.41089 5.89966 7.39511 5.86734 7.33484C5.84793 7.30284 5.83982 7.22327 5.83534 7.14284C5.83214 7.09111 5.83214 7.03447 5.85156 7.01484C5.89529 6.96631 5.90329 6.82711 5.90329 6.82711L6.0586 6.53857H5.85433L5.60996 6.69068L5.57113 6.75553Z" fill="#84754B"/>
<path fill-rule="evenodd" clip-rule="evenodd" d="M5.51123 6.84478C5.51123 6.84478 5.67123 6.63284 5.81544 6.5842C5.95966 6.53556 6.02419 6.56478 6.02419 6.56478L5.94003 6.78004L5.82024 6.91273L5.82835 6.98068C5.82835 6.98068 5.80883 7.1603 5.92862 7.28489C6.0484 7.40948 6.13736 7.40468 6.1892 7.40468C6.24104 7.40468 6.38984 7.36094 6.4659 7.18132C6.53384 7.0131 6.59048 6.79732 6.45459 6.581C6.32179 6.36574 6.08723 6.35742 6.0419 6.35742C5.99656 6.35742 5.64062 6.37524 5.51123 6.84446V6.84478Z" fill="#252211"/>
<path fill-rule="evenodd" clip-rule="evenodd" d="M9.6197 7.56461C9.55986 7.53709 9.6165 7.36888 9.67634 7.31704C9.73618 7.2652 9.81224 7.20546 9.94504 7.19725C9.99346 7.19405 10.0404 7.22477 10.0324 7.2572C10.0211 7.31704 9.93693 7.4012 9.86088 7.46104C9.7557 7.5436 9.68765 7.59533 9.6197 7.56461Z" fill="#F7F7E7"/>
<path fill-rule="evenodd" clip-rule="evenodd" d="M6.38336 6.64717C6.42709 6.64397 6.48373 6.67917 6.49504 6.72653C6.50635 6.77827 6.46752 6.88184 6.38336 6.88184C6.31541 6.88184 6.27979 6.79768 6.27979 6.77347C6.28055 6.75356 6.28611 6.73413 6.296 6.71683C6.2992 6.71192 6.30731 6.65528 6.38336 6.64717Z" fill="#F8F6DE"/>
<path fill-rule="evenodd" clip-rule="evenodd" d="M5.75241 6.68457C5.75241 6.68457 5.64073 6.7363 5.589 6.84457C5.55204 6.92452 5.54085 7.01398 5.557 7.10057C5.56511 7.141 5.60553 7.24126 5.63305 7.27689C5.66057 7.31252 5.6978 7.33684 5.72532 7.33353C5.75284 7.33022 5.80937 7.25748 5.80937 7.21385C5.80937 7.17022 5.81268 6.98569 5.86601 6.88532C5.91295 6.78505 5.75273 6.68468 5.75273 6.68468L5.75241 6.68457Z" fill="#D4C38B"/>
<path fill-rule="evenodd" clip-rule="evenodd" d="M5.76861 6.67637C5.7492 6.68767 5.71688 6.70389 5.72488 6.7249C5.73299 6.74431 5.80093 6.7569 5.82525 6.80426C5.85277 6.85279 5.85277 6.90453 5.84467 6.92885C5.8658 6.91881 5.88498 6.90508 5.90131 6.88831C5.93693 6.84789 5.98056 6.79295 6.01779 6.79295C6.04211 6.79295 6.06632 6.80426 6.08904 6.80426C6.12467 6.80426 6.16019 6.79295 6.16509 6.75573C6.17309 6.70719 6.09715 6.66346 6.05341 6.67157C6.06152 6.63957 6.07283 6.59231 6.0372 6.55989C6.00157 6.52746 5.89 6.58421 5.86568 6.60042C5.84136 6.61663 5.76861 6.67647 5.76861 6.67647V6.67637Z" fill="#E2D59D"/>
<path fill-rule="evenodd" clip-rule="evenodd" d="M8.33998 10.0761L8.57945 10.0054L8.64739 10.0539C8.64739 10.0539 8.69582 10.1575 8.77198 10.1704C8.74766 10.2221 8.68451 10.2664 8.68782 10.3031C8.69112 10.3398 8.72344 10.3678 8.72344 10.3678C8.72344 10.3678 8.50819 10.7238 8.93219 11.0825C8.83182 11.1229 8.70403 11.1785 8.63608 11.2105C8.68451 11.2218 8.78808 11.2425 8.83182 11.2817C8.87555 11.321 8.87555 11.3335 8.91598 11.3578C8.95641 11.3821 8.98062 11.4144 8.97262 11.4289C8.9451 11.4127 8.85283 11.3643 8.83672 11.4095C8.82062 11.4548 8.43704 11.4371 8.43704 11.4371L7.78979 11.5616C7.78979 11.5616 7.814 11.4969 7.74606 11.4371C7.6668 11.3659 7.56974 11.4403 7.46616 11.361C7.33027 11.2574 7.32536 11.1376 7.28174 11.0924C7.32536 11.0649 7.41443 11.0245 7.62638 10.9964C7.61827 10.9802 7.59075 10.9317 7.60696 10.888C7.62638 10.8314 7.70723 10.7958 7.68302 10.728C7.71864 10.7199 7.73475 10.7199 7.82382 10.6083C7.90798 10.4966 7.95971 10.4724 8.02446 10.4643C8.0892 10.4561 8.12803 10.4643 8.24782 10.3526C8.33187 10.2733 8.30446 10.2054 8.30446 10.2054C8.30446 10.2054 8.35939 10.1876 8.34009 10.0759L8.33998 10.0761Z" fill="#CBAC5A"/>
<path fill-rule="evenodd" clip-rule="evenodd" d="M7.6327 10.112C7.6359 10.0958 7.64891 10.0877 7.73627 10.0958C7.82363 10.1039 8.37702 10.044 8.52753 10.0359C8.67963 10.0246 9.21521 10.0326 9.47579 10.0877C9.73638 10.1427 10.0001 10.2074 10.1278 10.2398C10.2558 10.2754 10.2962 10.2882 10.2913 10.3044C10.2881 10.3206 10.2593 10.3364 10.2427 10.3319C10.2266 10.3287 9.80262 10.1992 9.67163 10.1719C9.54065 10.1446 9.08742 10.0715 8.83963 10.0759C8.60827 10.0792 8.51601 10.0727 8.32027 10.0953C8.12443 10.1197 7.80081 10.152 7.70374 10.1391C7.60774 10.1278 7.62758 10.1278 7.63249 10.1115L7.6327 10.112Z" fill="#D6BC6F"/>
<path fill-rule="evenodd" clip-rule="evenodd" d="M8.93547 11.3802C8.93547 11.3802 9.26721 11.5598 9.38699 11.7799C9.47435 11.9433 9.33526 12.0242 9.33526 12.0242C9.33526 12.0242 9.52299 12.0242 9.49867 12.1278C9.48737 12.1925 9.17505 12.3672 8.9663 12.4594C8.75435 12.5517 8.76246 12.5469 8.65889 12.563C8.55851 12.5792 8.28342 12.531 8.22678 12.6116C8.17014 12.6921 8.19478 12.7751 8.21057 12.788C8.22678 12.7993 8.35787 12.8155 8.35787 12.8155C8.35787 12.8155 8.33035 12.8916 8.05857 12.8997C7.78678 12.9078 7.71873 12.9271 7.70251 12.9563C7.6863 12.9837 7.75425 12.9676 7.87894 12.9883C8.00353 13.0077 8.17825 13.0203 8.17825 13.0203C8.17825 13.0203 8.12161 13.0688 7.97441 13.1077C7.80609 13.1513 7.5423 13.1918 7.46305 13.2404C7.50347 13.2679 7.56342 13.3083 7.59105 13.3115C7.5231 13.3277 7.42753 13.3633 7.41142 13.3763C7.43563 13.3925 7.46806 13.4119 7.46806 13.4119C7.46806 13.4119 7.33206 13.5753 7.25281 13.6158C7.17355 13.6564 6.71723 13.8682 6.56022 13.8278C6.16865 13.7242 6.12011 13.2954 6.02465 13.2631C5.88065 13.2145 5.8127 13.3115 5.68481 13.2436C5.74145 13.2031 5.77227 13.1789 5.83211 13.1514C5.76737 13.1194 5.43243 12.907 5.43243 12.907C5.39741 12.8307 5.35853 12.7562 5.31595 12.6838C5.25121 12.5721 5.15595 12.4232 5.08449 12.2921C4.92918 12.0041 4.92107 11.8714 4.78027 11.708C4.80459 11.676 4.88865 11.6805 4.88865 11.6805L6.06838 12.0688L8.16022 12.1294L8.70422 11.3528L8.93558 11.3803L8.93547 11.3802Z" fill="#DFC677"/>
<path fill-rule="evenodd" clip-rule="evenodd" d="M5.83643 12.5647C5.84905 12.5787 5.86376 12.5907 5.88005 12.6003C5.92059 12.6278 5.98043 12.6602 6.02085 12.7087C6.03707 12.6845 6.07749 12.6407 6.14885 12.7087C6.22021 12.7766 6.30885 12.7282 6.364 12.7443C6.42064 12.7638 6.42384 12.7718 6.42384 12.7718C6.42384 12.7718 6.45584 12.7443 6.52741 12.7152C6.57115 12.699 6.62288 12.6877 6.67952 12.6715C6.73125 12.6602 6.78789 12.644 6.82683 12.644C6.86245 12.6682 6.99024 12.804 7.5032 12.6036C7.98704 12.4159 8.09861 12.3949 8.17957 12.4239C8.18768 12.4045 8.19579 12.3672 8.32037 12.3721C8.32037 12.3204 8.2168 12.144 8.2168 12.144L7.6456 11.9482H7.33317L6.39632 12.1198L5.87717 12.416L5.83675 12.5653L5.83643 12.5647Z" fill="#C4A859"/>
<path fill-rule="evenodd" clip-rule="evenodd" d="M5.52441 12.2364C5.52441 12.2364 5.53572 12.3237 5.66521 12.416C5.79321 12.5082 5.83343 12.5632 5.83343 12.5632C5.83343 12.5632 5.85775 12.5312 5.87716 12.4986C5.89657 12.4629 5.91279 12.4225 5.94511 12.4112C6.00985 12.3837 6.15705 12.4354 6.18948 12.4273C6.217 12.4193 6.20889 12.3627 6.23801 12.3627C6.30596 12.3594 6.34959 12.4063 6.37391 12.4063C6.39823 12.4063 6.45796 12.4031 6.46607 12.3902C6.47417 12.3773 6.47737 12.2429 6.56964 12.1781C6.67001 12.107 6.793 12.1377 6.82564 12.1539C6.82564 12.1781 6.82884 12.2381 6.89359 12.2413C6.95833 12.2445 6.96473 12.2332 7.02159 12.2526C7.07844 12.272 7.14617 12.2494 7.17689 12.3447C7.20441 12.3367 7.26916 12.3286 7.25295 12.2364C7.28495 12.2122 7.31289 12.1959 7.38095 12.1005C7.39716 12.0763 7.42457 12.0487 7.44569 12.0131C7.50233 12.0131 7.57028 12.0018 7.66084 12.0811C7.63332 12.1005 7.61711 12.1131 7.60911 12.1328C7.63279 12.1562 7.65442 12.1817 7.67375 12.2088C7.69807 12.2408 7.71428 12.2801 7.745 12.2882C7.81295 12.3076 7.92463 12.2801 8.04921 12.2882C8.169 12.2963 8.26927 12.3399 8.313 12.3675C8.32921 12.3595 8.32921 12.3562 8.36964 12.3643C8.41007 12.3724 8.44079 12.3756 8.39716 12.3238C8.42137 12.3351 8.44889 12.3595 8.47321 12.3351C8.49753 12.3108 8.51684 12.2753 8.58479 12.2672C8.65273 12.2591 8.67705 12.2704 8.70457 12.1992C8.7402 12.1119 8.61721 12.1119 8.61721 12.1119C8.61721 12.1119 8.67385 12.06 8.737 11.9921C8.81305 11.921 8.90041 11.8287 8.92143 11.7154C8.95705 11.5067 8.75321 11.4792 8.75321 11.4792L7.76452 11.7835L6.55577 11.7235L5.52505 12.2365L5.52441 12.2364Z" fill="#927D49"/>
<path fill-rule="evenodd" clip-rule="evenodd" d="M4.63605 9.38015C4.63605 9.38015 4.60405 9.42058 4.58432 9.51605C4.56458 9.61151 4.57301 9.60021 4.5568 9.66815C4.54058 9.7361 4.34144 10.4125 4.4161 10.6406C4.49077 10.8688 4.62005 10.953 4.7009 11.1374C4.71712 11.1778 4.7329 11.2021 4.74133 11.2378C4.76885 11.3574 4.74464 11.4497 4.77696 11.5695C4.78826 11.6099 4.81749 11.6568 4.86112 11.7054C4.95712 11.8056 5.1136 11.9011 5.18112 11.9691C5.27648 12.0694 5.41248 12.2734 5.5856 12.2927C5.67786 12.304 5.80896 12.2652 5.91733 12.2005C6.01333 12.1406 6.07264 12.0565 6.17333 12.0085C6.24448 11.9729 6.32053 11.96 6.38848 11.9438C6.52928 11.9163 6.65717 11.9118 6.73322 11.9276C6.8497 11.9519 7.1248 12.036 7.27722 12.036C7.39633 12.0341 7.51477 12.0178 7.62997 11.9875C7.86133 11.9196 8.14122 11.803 8.32576 11.7512C8.43413 11.7192 8.52149 11.7108 8.61056 11.6914C8.76266 11.6558 8.89045 11.6072 8.9633 11.515C8.91477 11.4583 8.85493 11.371 8.5312 11.3742C8.16394 11.3823 7.73994 11.5861 7.5312 11.6186C7.32245 11.651 7.23189 11.6784 6.99882 11.5942C6.77034 11.5092 6.76277 11.453 6.76277 11.453C6.76277 11.453 6.52288 11.2852 6.4225 10.8575C6.32213 10.4298 6.4225 10.1181 6.68309 9.82186C6.75104 9.74581 6.73482 9.67786 6.73482 9.67786C6.73482 9.67786 6.90634 9.4465 6.85941 9.22986C6.80768 9.01461 6.47594 9.05834 6.47594 9.05834L4.63616 9.38015H4.63605Z" fill="#6E6342"/>
<path fill-rule="evenodd" clip-rule="evenodd" d="M4.9127 10.1003C4.89844 10.1272 4.89173 10.1574 4.89329 10.1877C4.89649 10.2313 4.9095 10.288 5.04049 10.4159C5.15217 10.5274 5.12785 10.652 5.12785 10.652C5.12785 10.652 5.18406 10.6633 5.3366 10.592C5.45638 10.5353 5.4966 10.6357 5.4966 10.6357C5.53146 10.6174 5.56926 10.6054 5.60828 10.6001C5.64362 10.5968 5.67784 10.5859 5.70854 10.5681C5.70854 10.5681 5.84934 10.7121 5.97233 10.78C6.08401 10.84 6.14876 10.8804 6.2038 10.84C6.25553 10.8043 6.25553 10.7315 6.25222 10.6992C6.23939 10.6693 6.22314 10.6411 6.2038 10.615C6.16817 10.5633 6.11153 10.5033 6.1078 10.455C6.09969 10.3434 6.19196 10.2106 6.17244 10.1783C6.15292 10.146 6.08028 10.1379 5.90065 10.2026C5.71462 10.2641 4.91196 10.1007 4.91196 10.1007L4.9127 10.1003Z" fill="#39331F"/>
<path fill-rule="evenodd" clip-rule="evenodd" d="M5.33673 10.8237C5.33673 10.8237 5.24457 10.7363 5.27689 10.3123C5.31602 10.3117 5.35509 10.3155 5.39337 10.3236C5.39337 10.3236 5.44361 10.6522 5.33673 10.8237Z" fill="#292311"/>
<path fill-rule="evenodd" clip-rule="evenodd" d="M4.67981 9.05662C4.69267 9.04711 4.7046 9.03639 4.71543 9.02462C4.68343 9.08446 4.5357 9.32393 4.65549 9.701C4.77527 10.0764 5.07618 10.3563 5.44674 10.3693C5.8173 10.3823 6.01207 10.2009 6.23479 9.92916C6.32215 9.82078 6.42253 9.68478 6.51149 9.59262C6.64418 9.44852 6.74776 9.40809 6.74776 9.269C6.74776 8.9842 6.45645 8.8563 6.02765 8.72852C5.59885 8.60073 5.21207 8.61652 5.01143 8.70398C4.8157 8.79934 4.73154 8.89972 4.6797 9.05673L4.67981 9.05662Z" fill="#252211"/>
<path fill-rule="evenodd" clip-rule="evenodd" d="M6.05647 10.9514L6.08847 10.9352C6.08847 10.9352 6.09647 10.8072 6.14831 10.8106C6.20005 10.8187 6.22437 10.8868 6.21946 10.911C6.21626 10.9352 6.20335 10.9757 6.15151 10.9708C6.08357 10.9724 6.05615 10.9514 6.05615 10.9514H6.05647Z" fill="#3F3824"/>
<path fill-rule="evenodd" clip-rule="evenodd" d="M5.9126 10.4078C5.9126 10.4078 5.9446 10.3965 5.98374 10.4353C6.01574 10.4353 6.15526 10.4191 6.199 10.4466C6.24273 10.4741 6.25564 10.4983 6.25564 10.4983C6.25564 10.4983 6.09222 10.534 6.00316 10.4983C5.9126 10.4676 5.9126 10.4078 5.9126 10.4078H5.9126Z" fill="#2D2815"/>
<path fill-rule="evenodd" clip-rule="evenodd" d="M6.63297 10.4321C6.63297 10.424 6.54561 10.3641 6.45335 10.3446C6.43713 10.3414 6.43383 10.3527 6.42135 10.3527C6.41324 10.3495 6.41004 10.3252 6.41004 10.3252L6.35756 10.3528C6.35756 10.3528 6.34945 10.3641 6.37697 10.3848C6.40119 10.4042 6.44172 10.4204 6.45303 10.4528C6.46433 10.4851 6.46433 10.4964 6.46924 10.5013C6.47244 10.5045 6.52908 10.5013 6.5566 10.4851C6.58412 10.4689 6.63596 10.4424 6.63265 10.4318L6.63297 10.4321Z" fill="#82764F"/>
<path fill-rule="evenodd" clip-rule="evenodd" d="M5.81543 10.7605C5.81543 10.7605 5.83154 10.6489 5.94002 10.644C6.05159 10.6359 6.07271 10.7443 6.07271 10.7443L6.00796 10.809C6.00796 10.8074 5.95943 10.7395 5.81596 10.7605H5.81543Z" fill="#2D2816"/>
<path fill-rule="evenodd" clip-rule="evenodd" d="M6.5193 10.28C6.5193 10.28 6.45935 10.3447 6.32676 10.3641C6.31546 10.3479 6.29114 10.3156 6.32676 10.2639C6.36239 10.2121 6.40282 10.1959 6.44324 10.212C6.47966 10.2179 6.50934 10.2444 6.5193 10.28Z" fill="#574F35"/>
<path fill-rule="evenodd" clip-rule="evenodd" d="M6.76374 10.3592C6.76705 10.343 6.75574 10.3398 6.76374 10.3317C6.77174 10.3235 6.81558 10.3074 6.82369 10.3154C6.82689 10.3187 6.82369 10.3317 6.82369 10.3474C6.82369 10.3632 6.82369 10.3794 6.81558 10.3911C6.80427 10.4073 6.77195 10.4154 6.75574 10.4106C6.73953 10.4058 6.73633 10.3831 6.73633 10.3786C6.74433 10.3754 6.76374 10.3673 6.76374 10.3592ZM7.04004 10.1845C7.04004 10.1764 7.06756 10.1602 7.08377 10.1602C7.10799 10.1602 7.10799 10.1796 7.11129 10.1845C7.11929 10.1877 7.11929 10.1812 7.1274 10.1958C7.13551 10.2104 7.14692 10.2362 7.13871 10.2524C7.13049 10.2686 7.09828 10.2798 7.09028 10.2766C7.07897 10.2685 7.04335 10.1958 7.04004 10.1845Z" fill="#82764F"/>
<path fill-rule="evenodd" clip-rule="evenodd" d="M6.48389 10.3966C6.48389 10.3966 6.51951 10.4046 6.56805 10.4451C6.55183 10.4564 6.52751 10.4693 6.52751 10.4693C6.52751 10.4693 6.52431 10.4321 6.48389 10.3965V10.3966Z" fill="#6E6342"/>
<path fill-rule="evenodd" clip-rule="evenodd" d="M6.4046 10.0405C6.39649 10.0325 6.42881 10.0131 6.44823 10.0163C6.46764 10.0195 6.47575 10.0325 6.49676 10.0357C6.51777 10.0389 6.52108 10.0276 6.52876 10.0195C6.53644 10.0114 6.56439 10.0163 6.56919 10.0195C6.57218 10.023 6.57489 10.0268 6.57729 10.0308C6.57798 10.0183 6.58381 10.0067 6.5934 9.99877C6.60597 9.98953 6.62208 9.98654 6.63713 9.99066C6.64033 10.002 6.65655 10.0424 6.65335 10.0505C6.65015 10.0586 6.60161 10.07 6.5934 10.0618C6.60151 10.0813 6.63713 10.1218 6.64193 10.1298C6.64673 10.1378 6.60631 10.1573 6.5902 10.1541C6.56759 10.1525 6.42839 10.0715 6.40417 10.0408L6.4046 10.0405ZM6.61659 9.7719C6.61359 9.76375 6.60786 9.75689 6.60037 9.75249C6.58907 9.74929 6.55184 9.75249 6.55184 9.7719C6.55184 9.79131 6.58384 9.8999 6.61979 9.95643C6.66032 10.0131 6.68773 10.0599 6.71525 10.0729C6.73318 10.0811 6.75437 10.074 6.76379 10.0567C6.76699 10.0486 6.77509 9.98875 6.77189 9.84795C6.76869 9.70715 6.76379 9.57126 6.75568 9.56315C6.74757 9.55505 6.71525 9.55515 6.70395 9.57126C6.69264 9.58737 6.61979 9.74769 6.61648 9.7719H6.61659Z" fill="#585136"/>
<path fill-rule="evenodd" clip-rule="evenodd" d="M6.47275 10.6004C6.47275 10.6004 6.41611 10.5647 6.36107 10.5891C6.30934 10.6134 6.31254 10.7088 6.31254 10.7088C6.33617 10.7181 6.36284 10.7151 6.38379 10.7007C6.41942 10.6765 6.46465 10.6361 6.47275 10.6005V10.6004Z" fill="#574F35"/>
<path fill-rule="evenodd" clip-rule="evenodd" d="M6.57936 10.7281C6.57616 10.6961 6.54736 10.6961 6.54736 10.6795C6.55144 10.6633 6.56612 10.6519 6.58288 10.652C6.5991 10.652 6.61488 10.6714 6.63472 10.684C6.65414 10.6953 6.68326 10.716 6.68646 10.7407C6.68966 10.7653 6.65446 10.8328 6.61531 10.8328C6.57616 10.8328 6.58779 10.76 6.57968 10.7276L6.57936 10.7281ZM6.89166 10.6844C6.89166 10.6844 6.82692 10.7038 6.83172 10.6844C6.83652 10.6649 6.85124 10.6601 6.87225 10.6601C6.88293 10.649 6.89729 10.642 6.91268 10.6406C6.92148 10.6402 6.93012 10.6431 6.93689 10.6487C6.93689 10.6487 6.98062 10.6293 6.99353 10.6406C7.00644 10.6519 6.99684 10.6519 7.00484 10.6649C7.01502 10.6794 7.02171 10.696 7.02436 10.7135C7.02436 10.7264 6.97582 10.7539 6.93689 10.7491C6.89166 10.7394 6.89966 10.6925 6.89166 10.6844ZM7.26867 10.6115C7.26867 10.6115 7.28809 10.6228 7.27198 10.6358C7.26067 10.6471 7.20403 10.6678 7.15539 10.6714C7.10686 10.6714 7.06323 10.6794 7.06323 10.6633C7.06323 10.6472 7.10366 10.6148 7.12787 10.6067C7.13771 10.5944 7.15264 10.5872 7.16841 10.5873C7.18782 10.5873 7.26377 10.5792 7.28489 10.576C7.3043 10.5727 7.32051 10.584 7.3091 10.6002C7.3043 10.6115 7.26867 10.6115 7.26867 10.6115ZM7.38033 10.1119C7.38033 10.1119 7.35601 10.1636 7.32859 10.1636C7.30107 10.1604 7.30107 10.1523 7.30107 10.1442C7.30107 10.1329 7.32859 10.1038 7.32529 10.0956C7.31729 10.0956 7.29777 10.0956 7.30107 10.0762C7.30107 10.06 7.32859 10.0406 7.35281 10.0442C7.3711 10.0292 7.39388 10.0207 7.41755 10.02C7.44507 10.02 7.46929 10.028 7.46929 10.0442C7.46929 10.0604 7.43729 10.096 7.42555 10.1042C7.41265 10.1171 7.39643 10.1255 7.38033 10.1122V10.1119ZM7.01133 11.0681C7.01133 11.0681 6.97933 11.0714 6.97933 11.0876C6.97933 11.0957 6.98733 11.0957 6.99874 11.0909C7.00532 11.0905 7.01183 11.0894 7.01816 11.0876C7.02136 11.0909 7.02136 11.107 7.04568 11.107C7.06565 11.1043 7.08489 11.0977 7.10232 11.0876C7.12173 11.0796 7.13794 11.0713 7.13794 11.0556C7.12984 11.028 7.11362 11.015 7.08941 11.015C7.077 11.0142 7.06463 11.0171 7.05378 11.0231C7.05378 11.0231 7.04568 11.0069 7.01816 11.0231C6.99064 11.0393 6.99384 11.0393 7.00194 11.0474C7.01645 11.0604 7.01165 11.0688 7.01165 11.0688L7.01133 11.0681ZM6.82856 11.2364C6.82856 11.2283 6.86898 11.2121 6.88029 11.217C6.8916 11.2202 6.92392 11.2817 6.92392 11.2882C6.92392 11.2963 6.88349 11.3157 6.86728 11.3157C6.85106 11.3157 6.82365 11.2882 6.82365 11.2837C6.82365 11.2805 6.84306 11.2757 6.84306 11.2724C6.84786 11.2644 6.82856 11.2449 6.82856 11.2367V11.2364ZM6.70054 11.0002C6.70865 10.997 6.70865 10.9889 6.71996 10.9808C6.72713 10.976 6.73611 10.9748 6.74428 10.9776C6.75005 10.9673 6.76016 10.9601 6.7718 10.9581C6.79121 10.9549 6.80742 10.9581 6.8038 10.9662C6.8038 10.9905 6.82001 11.0066 6.82001 11.026C6.82001 11.0454 6.8087 11.0697 6.76828 11.0859C6.72785 11.0973 6.67281 11.0973 6.6647 11.0941C6.6566 11.0909 6.64849 11.0584 6.6566 11.0422C6.6647 11.026 6.68732 11.0083 6.70033 11.0002H6.70054Z" fill="#82764F"/>
<path fill-rule="evenodd" clip-rule="evenodd" d="M6.75197 11.0112C6.75197 11.0112 6.72445 11.0274 6.72445 11.0356C6.72201 11.0434 6.72092 11.0516 6.72125 11.0598C6.72125 11.0646 6.75687 11.0566 6.76167 11.0517C6.76327 11.0485 6.75197 11.0197 6.75197 11.0112Z" fill="#6E6342"/>
<path fill-rule="evenodd" clip-rule="evenodd" d="M6.51136 10.9352C6.52747 10.9385 6.55499 10.9352 6.576 10.9433C6.59222 10.9514 6.60352 10.9676 6.58731 10.9871C6.5711 11.0065 6.55531 11.0356 6.51936 11.0307C6.47894 11.0275 6.44011 11.0065 6.44011 10.9903C6.43874 10.9695 6.44573 10.9491 6.45952 10.9336C6.47574 10.9207 6.48374 10.9288 6.51126 10.9352H6.51136Z" fill="#585136"/>
<path fill-rule="evenodd" clip-rule="evenodd" d="M6.49207 10.9514C6.49207 10.9514 6.44034 10.9918 6.42733 11.0114C6.41111 11.0308 6.33186 11.131 6.30765 11.1521C6.31569 11.1379 6.32486 11.1243 6.33506 11.1116C6.30306 11.1321 6.27907 11.1629 6.26711 11.199C6.2477 11.2589 6.37559 11.2913 6.45965 11.3156C6.5437 11.3399 6.57623 11.3476 6.57623 11.3476C6.54529 11.3011 6.51872 11.2518 6.49687 11.2004C6.46487 11.1243 6.44834 11.1162 6.46935 11.0806C6.48557 11.045 6.50989 11.0207 6.50989 10.9932C6.50018 10.9676 6.49207 10.9514 6.49207 10.9514Z" fill="#574F35"/>
<path fill-rule="evenodd" clip-rule="evenodd" d="M4.64719 11.0794C4.65896 11.0816 4.67104 11.0816 4.68281 11.0794C4.70703 11.0761 4.95951 10.9834 5.22329 11C5.42077 11.012 5.61649 11.0441 5.8074 11.096C6.13913 11.1834 6.55172 11.3565 6.81871 11.4553C6.88985 11.4827 6.95951 11.5314 7.01071 11.5507C7.21465 11.63 7.22265 11.63 7.34244 11.651C7.48324 11.6704 7.62724 11.6235 7.77775 11.5912C7.96217 11.5507 8.27769 11.5312 8.55439 11.4908C8.64386 11.4784 8.73211 11.4584 8.81817 11.431C8.81817 11.431 8.59812 11.651 8.07055 11.7303C7.8573 11.7627 7.6406 11.7654 7.4266 11.7384C7.25828 11.7222 7.14671 11.6979 7.06255 11.6736C6.96708 11.6461 6.77124 11.5733 6.53017 11.5136C6.36185 11.4699 6.17412 11.4376 5.95897 11.3972C5.4282 11.3 4.8522 11.1884 4.64697 11.08L4.64719 11.0794Z" fill="#252211"/>
<path fill-rule="evenodd" clip-rule="evenodd" d="M4.0517 10.0793C3.9237 10.1877 3.78791 10.2913 3.65533 10.3916L3.25565 10.6987C3.11975 10.7989 2.98706 10.9025 2.85106 11.0029C2.71506 11.1032 2.57927 11.1986 2.43506 11.2909C2.56306 11.1825 2.69885 11.0821 2.83474 10.9835C2.97063 10.8848 3.11154 10.788 3.24263 10.688L3.64231 10.3805C3.77981 10.2802 3.9125 10.1766 4.0517 10.0796V10.0793ZM3.34459 11.212C3.34459 11.212 3.48859 11.0922 3.66822 10.924C3.89147 10.7154 4.16496 10.4483 4.25232 10.3999L3.34448 11.2121L3.34459 11.212Z" fill="#CFB66C"/>
<path fill-rule="evenodd" clip-rule="evenodd" d="M3.34473 11.2121C3.41598 11.1409 3.49203 11.0714 3.56809 11.0033L3.68457 10.903C3.72019 10.871 3.76073 10.8351 3.79625 10.7995C3.86739 10.7283 3.93705 10.6522 4.00819 10.5794C4.04346 10.5428 4.08074 10.5083 4.11987 10.4758C4.13944 10.4585 4.16116 10.4438 4.18451 10.4321C4.20403 10.4208 4.22505 10.4001 4.25246 10.3965C4.23635 10.4208 4.21694 10.4321 4.20073 10.4531C4.18131 10.4693 4.1651 10.4888 4.14899 10.5049C4.11337 10.5405 4.07294 10.5728 4.03731 10.6052C3.96126 10.67 3.88201 10.7332 3.80595 10.801C3.7299 10.8687 3.65875 10.9418 3.58259 11.0097C3.50014 11.0794 3.42409 11.1473 3.34473 11.2124V11.2121ZM4.3123 10.5647C4.3123 10.5647 3.78483 11.081 3.67635 11.165L4.3123 10.5647Z" fill="#CFB66C"/>
<path fill-rule="evenodd" clip-rule="evenodd" d="M4.31222 10.5647C4.26477 10.6196 4.21389 10.6715 4.1599 10.72L3.9999 10.8721C3.94816 10.9238 3.89952 10.9757 3.84459 11.0274C3.78795 11.076 3.73622 11.1234 3.67627 11.1682L3.83158 11.0161C3.88342 10.9644 3.94006 10.9208 3.9951 10.8689L4.1504 10.7168C4.20374 10.6635 4.25558 10.6116 4.31222 10.5647ZM4.33649 10.8446C4.28787 10.9803 4.23057 11.1127 4.16497 11.2411C4.02907 11.513 3.82523 11.8527 3.73617 12.0259L4.33649 10.8446Z" fill="#CFB66C"/>
<path fill-rule="evenodd" clip-rule="evenodd" d="M4.33651 10.8447C4.33651 10.9046 4.3203 10.9564 4.30089 11.0081C4.28196 11.0599 4.26039 11.1107 4.23625 11.1602C4.21193 11.2088 4.18441 11.2606 4.15689 11.3076C4.12937 11.3545 4.09705 11.4029 4.07273 11.4516L3.90931 11.7396C3.85267 11.8356 3.79763 11.9321 3.73779 12.0244C3.77822 11.9208 3.83326 11.8237 3.8851 11.7282C3.94174 11.6322 3.99347 11.5362 4.0451 11.4369C4.07031 11.3875 4.09298 11.3367 4.11305 11.2849C4.13726 11.2331 4.16147 11.1846 4.18099 11.1376C4.20521 11.0859 4.22462 11.0373 4.24894 10.9904C4.27635 10.9402 4.29907 10.8917 4.3363 10.8447L4.33651 10.8447Z" fill="#CFB66C"/>
<path fill-rule="evenodd" clip-rule="evenodd" d="M4.9127 12.1714C4.9127 12.1714 4.7527 12.3833 4.7687 12.6519C4.81233 12.5112 4.86737 12.296 4.9127 12.1714ZM5.06476 12.384C5.06476 12.384 5.00812 12.96 4.96118 13.2432C5.02753 12.9158 5.04044 12.9434 5.06476 12.384ZM6.12458 13.2772C6.12458 13.2772 5.88512 13.9812 5.88021 14.1769C5.93205 13.9757 6.03232 13.5647 6.12458 13.2767V13.2772Z" fill="#DEC270"/>
<path fill-rule="evenodd" clip-rule="evenodd" d="M6.68457 12.1279C6.68457 12.1279 7.07294 12.7687 7.36425 13.3156C7.28542 13.0404 7.10409 12.5356 6.68457 12.1279Z" fill="#CBAF59"/>
<path fill-rule="evenodd" clip-rule="evenodd" d="M7.72803 13.0713C7.94126 13.4482 8.13355 13.8366 8.30403 14.2347C8.27171 13.9596 8.18424 13.4888 7.72803 13.0713Z" fill="#E3C677"/>
<path fill-rule="evenodd" clip-rule="evenodd" d="M10.7963 14.0161C10.8609 13.9756 10.9888 13.7555 11.1005 13.7005C11.2121 13.6439 11.2962 13.6326 11.3966 13.5209C11.4969 13.4043 11.5246 13.3332 11.7444 13.241C12.052 13.1082 11.8404 12.9367 11.8404 12.9367C11.8743 12.9034 11.9105 12.8726 11.9488 12.8445C12.0282 12.7847 12.1203 12.7118 12.1123 12.5839C12.101 12.3688 12.0606 12.0565 11.8842 11.8753C12.0557 11.8396 12.3841 11.8154 12.5882 11.7637C12.8243 11.7037 12.9328 11.6196 12.9328 11.6196C12.9328 11.6196 12.7969 11.3882 13.017 11.1553C13.237 10.9223 13.4167 10.7831 13.5493 10.5225C13.3972 10.5031 13.1653 10.4222 12.5736 10.6471C12.6055 10.6621 12.6363 10.6794 12.6658 10.6988C12.6658 10.6988 12.3018 10.7992 12.1691 10.9109C11.9376 11.1066 11.9085 11.2668 11.6577 11.3866C11.4069 11.5064 11.1545 11.474 10.9458 11.571C10.7372 11.6681 10.7064 11.7507 10.6302 11.7863C10.6464 11.8057 10.627 11.838 10.6577 11.8655C10.6383 11.8931 10.525 12.0775 10.4101 12.0775C10.4215 12.1212 10.5185 12.1535 10.5185 12.1535C10.5185 12.1535 10.4474 12.2054 10.2661 12.2183C10.3583 12.3143 10.4458 12.4189 10.6868 12.571C10.6674 12.6115 10.5865 12.6714 10.6189 12.7475C10.6545 12.8235 10.7469 12.9271 11.1156 13.0113C10.9279 13.0193 10.708 13.063 10.4116 13.0226C10.1155 12.9869 10.067 12.9659 9.88417 13.0113C9.90359 13.0307 9.95532 13.0307 10.0007 13.0824C9.95212 13.0856 9.64791 13.0468 9.54433 13.1828C9.43596 13.3235 9.38903 13.5549 9.39713 13.7102C9.34049 13.7378 9.28545 13.7863 9.31297 13.8867C9.34049 13.987 9.48449 14.0194 9.57676 14.0824C9.66892 14.1503 9.67703 14.1746 9.76449 14.1585C9.85665 14.139 9.99255 14.0469 10.0719 14.0469C10.1513 14.0469 10.2078 14.1067 10.2078 14.1067C10.2078 14.1067 10.4231 14.0031 10.4441 14.0226C10.4635 14.042 10.4473 14.1666 10.4683 14.186C10.4896 14.2006 10.7321 14.0566 10.7968 14.0161H10.7963Z" fill="#ECD592"/>
</svg>
