<svg width="21" height="20" viewBox="0 0 21 20" fill="none" xmlns="http://www.w3.org/2000/svg">
<path d="M19.7106 12.4128C18.3762 17.7666 12.9536 21.0359 7.5899 19.7007C2.23601 18.3622 -1.028 12.9396 0.306383 7.58577C1.64077 2.2319 7.06007 -1.03737 12.4107 0.297829C17.7777 1.61666 21.0417 7.05562 19.7106 12.4128Z" fill="#262C32"/>
<path d="M14.486 4.77783H16.2908L12.5308 8.57964C11.1688 9.95832 8.96292 9.95832 7.60096 8.57964L3.84093 4.77783H5.64574L8.50336 7.66888C9.34728 8.52951 10.7427 8.53786 11.6033 7.69394C11.6116 7.68559 11.62 7.67723 11.6284 7.66888L14.486 4.77783ZM5.62903 15.3477H3.82422L7.60931 11.5208C8.97128 10.1421 11.1772 10.1421 12.5391 11.5208L16.3242 15.3477H14.5194L11.6451 12.4399C10.8012 11.5793 9.40577 11.571 8.54514 12.4149C8.53678 12.4232 8.52843 12.4316 8.52007 12.4399L5.62903 15.3477Z" fill="white"/>
</svg>
