<svg width="21" height="20" viewBox="0 0 21 20" fill="none" xmlns="http://www.w3.org/2000/svg">
<path d="M19.7106 12.4128C18.3762 17.7666 12.9536 21.0359 7.5899 19.7007C2.23601 18.3622 -1.028 12.9396 0.306383 7.58577C1.64077 2.2319 7.06007 -1.03737 12.4107 0.297829C17.7777 1.61666 21.0417 7.05562 19.7106 12.4128Z" fill="#2775CA"/>
<path d="M4.18607 7.7916C2.97767 11 4.64437 14.625 7.89437 15.7916C8.01937 15.875 8.14437 16.0416 8.14437 16.1666V16.75C8.14437 16.8333 8.14437 16.875 8.10267 16.9166C8.06107 17.0833 7.89437 17.1666 7.72767 17.0833C5.39437 16.3333 3.60267 14.5416 2.85267 12.2083C1.60267 8.25 3.76937 4.0416 7.72767 2.7916C7.76937 2.75 7.85267 2.75 7.89437 2.75C8.06107 2.7916 8.14437 2.9166 8.14437 3.0833V3.6666C8.14437 3.875 8.06107 4 7.89437 4.0833C6.18607 4.7083 4.81107 6.0416 4.18607 7.7916Z" fill="white"/>
<path d="M11.9361 2.9583C11.9777 2.7916 12.1444 2.7083 12.3111 2.7916C14.6027 3.5416 16.4361 5.3333 17.1861 7.7083C18.4361 11.6666 16.2694 15.875 12.3111 17.125C12.2694 17.1666 12.1861 17.1666 12.1444 17.1666C11.9777 17.125 11.8944 17 11.8944 16.8333V16.25C11.8944 16.0416 11.9777 15.9166 12.1444 15.8333C13.8527 15.2083 15.2277 13.875 15.8527 12.125C17.0611 8.9166 15.3944 5.2916 12.1444 4.125C12.0194 4.0416 11.8944 3.875 11.8944 3.7083V3.125C11.8944 3.0416 11.8944 3 11.9361 2.9583Z" fill="white"/>
<path d="M10.1443 9.25002C11.8943 9.45832 12.7693 9.95832 12.7693 11.4166C12.7693 12.5416 11.936 13.4166 10.686 13.625V14.625C10.6443 14.8333 10.5193 14.9583 10.3526 14.9583H9.72763C9.51933 14.9166 9.39433 14.7916 9.39433 14.625V13.625C8.01933 13.4166 7.35263 12.6666 7.18603 11.625V11.5833C7.18603 11.4166 7.31104 11.2916 7.47763 11.2916H8.18603C8.31103 11.2916 8.43604 11.375 8.47763 11.5416C8.60263 12.1666 8.97763 12.625 10.061 12.625C10.8526 12.625 11.436 12.1667 11.436 11.5C11.436 10.8333 11.061 10.5833 9.89433 10.375C8.14433 10.1666 7.31103 9.62502 7.31103 8.25002C7.31103 7.20832 8.10263 6.37503 9.35263 6.20833V5.25003C9.39433 5.04163 9.51933 4.91663 9.68603 4.91663H10.311C10.5193 4.95833 10.6443 5.08333 10.6443 5.25003V6.25003C11.6026 6.33333 12.3526 7.04163 12.5193 7.95832V8.00002C12.5193 8.16663 12.3943 8.29163 12.2276 8.29163H11.561C11.436 8.29163 11.311 8.20832 11.2693 8.08332C11.061 7.45832 10.6443 7.20832 9.89433 7.20832C9.06103 7.20832 8.64433 7.58323 8.64433 8.16663C8.64433 8.75003 8.89433 9.08332 10.1443 9.25002Z" fill="white"/>
<g clip-path="url(#clip0_2739_882)">
<path d="M18.9138 4.72405C18.5134 6.33021 16.8867 7.31099 15.2776 6.91043C13.6714 6.50889 12.6922 4.88211 13.0925 3.27595C13.4928 1.66979 15.1186 0.68901 16.7238 1.08957C18.3339 1.48522 19.3131 3.11691 18.9138 4.72405Z" fill="#151515"/>
<path d="M17.8557 4.92615L17.2366 5.57293C17.2232 5.58697 17.2069 5.59818 17.1888 5.60583C17.1707 5.61349 17.1512 5.61744 17.1315 5.61742H14.1969C14.1829 5.61742 14.1692 5.61344 14.1575 5.60596C14.1457 5.59848 14.1365 5.58783 14.131 5.57532C14.1254 5.56281 14.1237 5.54898 14.126 5.53554C14.1284 5.52209 14.1348 5.50962 14.1443 5.49964L14.7638 4.85287C14.7773 4.83886 14.7935 4.82768 14.8115 4.82003C14.8296 4.81237 14.849 4.8084 14.8687 4.80837H17.8031C17.8171 4.80837 17.8308 4.81236 17.8425 4.81984C17.8542 4.82732 17.8635 4.83797 17.8691 4.85048C17.8746 4.86299 17.8763 4.87681 17.874 4.89026C17.8716 4.9037 17.8652 4.91618 17.8557 4.92615ZM17.2366 3.62373C17.2232 3.60968 17.2069 3.59848 17.1888 3.59082C17.1707 3.58317 17.1512 3.57922 17.1315 3.57924H14.1969C14.1829 3.57924 14.1692 3.58322 14.1575 3.5907C14.1457 3.59818 14.1365 3.60883 14.131 3.62134C14.1254 3.63385 14.1237 3.64768 14.126 3.66112C14.1284 3.67456 14.1348 3.68704 14.1443 3.69702L14.7638 4.34379C14.7773 4.3578 14.7935 4.36898 14.8115 4.37663C14.8296 4.38429 14.849 4.38826 14.8687 4.38829H17.8031C17.8171 4.38829 17.8308 4.3843 17.8425 4.37682C17.8542 4.36934 17.8635 4.35869 17.8691 4.34618C17.8746 4.33367 17.8763 4.31984 17.874 4.3064C17.8716 4.29296 17.8652 4.28048 17.8557 4.27051L17.2366 3.62373ZM14.1969 3.15915H17.1315C17.1512 3.15916 17.1707 3.15522 17.1888 3.14756C17.2069 3.1399 17.2232 3.1287 17.2366 3.11465L17.8557 2.46788C17.8652 2.4579 17.8716 2.44543 17.874 2.43199C17.8763 2.41854 17.8746 2.40472 17.8691 2.3922C17.8635 2.37969 17.8542 2.36904 17.8425 2.36156C17.8308 2.35408 17.8171 2.3501 17.8031 2.3501H14.8687C14.849 2.35013 14.8296 2.3541 14.8115 2.36175C14.7935 2.3694 14.7773 2.38058 14.7638 2.3946L14.1445 3.04137C14.1349 3.05133 14.1286 3.0638 14.1262 3.07722C14.1238 3.09065 14.1255 3.10447 14.1311 3.11697C14.1366 3.12948 14.1458 3.14013 14.1575 3.14762C14.1692 3.15511 14.1829 3.15912 14.1969 3.15915Z" fill="url(#paint0_linear_2739_882)"/>
</g>
<defs>
<linearGradient id="paint0_linear_2739_882" x1="14.4415" y1="5.69529" x2="17.4292" y2="2.23811" gradientUnits="userSpaceOnUse">
<stop offset="0.08" stop-color="#9945FF"/>
<stop offset="0.3" stop-color="#8752F3"/>
<stop offset="0.5" stop-color="#5497D5"/>
<stop offset="0.6" stop-color="#43B4CA"/>
<stop offset="0.72" stop-color="#28E0B9"/>
<stop offset="0.97" stop-color="#19FB9B"/>
</linearGradient>
<clipPath id="clip0_2739_882">
<rect width="6.3" height="6.00023" fill="white" transform="translate(13 1)"/>
</clipPath>
</defs>
</svg>
