<svg width="20" height="20" viewBox="0 0 20 20" fill="none" xmlns="http://www.w3.org/2000/svg">
<g clip-path="url(#clip0_2732_121433)">
<circle cx="10" cy="10" r="10" fill="#216C58"/>
<path d="M7.37516 4.35303C7.20499 4.35303 7.06445 4.52322 7.06445 4.72964V4.91849C7.06445 5.12492 7.20499 5.29401 7.37516 5.29401H13.2468C13.4169 5.29401 13.5575 5.12492 13.5575 4.91849V4.72964C13.5575 4.52322 13.4169 4.35303 13.2468 4.35303H7.37516ZM9.7653 5.53008V15.8117C9.7653 15.9808 9.63794 16.1224 9.48314 16.1224H9.34151C9.1867 16.1224 9.05935 15.9808 9.05935 15.8117V5.53008H9.7653ZM11.1772 5.53008V15.8117C11.1772 15.9808 11.0499 16.1224 10.8939 16.1224H10.7534C10.5975 16.1224 10.4713 15.9808 10.4713 15.8117V5.53008H11.1772Z" fill="white"/>
<path d="M9.3413 7.95796C9.6048 7.87012 9.88257 7.8284 10.1603 7.83609C10.65 7.83609 11.0167 7.92942 11.2758 8.0996C11.4505 8.20924 11.5829 8.37491 11.6513 8.56955C11.7227 8.7584 11.8961 8.93737 12.1366 8.93737H13.5617C13.8164 8.93737 14.0469 8.72546 14.0096 8.44767C13.9511 8.02896 13.7838 7.63294 13.5243 7.29917C13.195 6.87461 12.7433 6.54667 12.1695 6.31536C11.5953 6.08039 10.9267 5.9673 10.1746 5.9673C9.43023 5.96583 8.76344 6.08186 8.17423 6.31536C7.62729 6.51453 7.14124 6.85195 6.76342 7.29477C6.41758 7.7175 6.23313 8.25003 6.24521 8.79573C6.23378 9.11783 6.29957 9.43798 6.43709 9.72946C6.5746 10.0209 6.77985 10.2753 7.0357 10.4713C7.54403 10.8753 8.23132 11.1674 9.08768 11.3508L10.1691 11.5912C10.6588 11.6988 11.7413 11.8635 11.7413 12.5465C11.7413 13.3085 10.6961 13.4776 10.1318 13.4776C9.45878 13.4776 8.57936 13.2854 8.37734 12.541C8.32025 12.339 8.14129 12.1457 7.89646 12.1457H6.4615C6.39909 12.1443 6.33709 12.1562 6.27964 12.1806C6.22218 12.205 6.17059 12.2414 6.12831 12.2873C6.08602 12.3332 6.05401 12.3876 6.03441 12.4469C6.01481 12.5062 6.00808 12.5689 6.01465 12.631C6.07613 13.1581 6.2496 13.6093 6.54164 13.9958C6.92152 14.468 7.42765 14.8215 8.00076 15.017C8.61778 15.241 9.33618 15.3522 10.1559 15.3508C10.9794 15.3508 11.6897 15.241 12.287 15.0214C12.8304 14.8347 13.3113 14.4976 13.6747 14.0518C14.0063 13.6225 14.182 13.0933 14.1743 12.5509C14.1784 12.1948 14.0987 11.8427 13.9417 11.5231C13.7848 11.2034 13.5549 10.9251 13.2707 10.7106C12.9719 10.4784 12.6404 10.2915 12.287 10.1561C11.4537 9.82675 9.40278 9.83114 8.80552 8.99776C8.74027 8.90465 8.70995 8.79151 8.71989 8.67825V8.67276C8.71989 8.51904 8.7671 8.38179 8.8714 8.25881C8.99951 8.11974 9.16137 8.01611 9.3413 7.95796Z" fill="white"/>
<path d="M9.76504 7.35059H9.05908V8.43321H9.76504V7.35059ZM9.76504 11.2002H9.05908V12.2729H9.76504V11.2002ZM9.76504 14.4283H9.05908V15.5054H9.76504V14.4283ZM11.1769 7.35059H10.471V8.43321H11.1769V7.35059ZM11.1769 11.2002H10.471V12.2729H11.1769V11.2002ZM11.1769 14.4283H10.471V15.5054H11.1769V14.4283Z" fill="white"/>
<path d="M17.7686 10.4612C17.7088 10.4611 17.6512 10.4832 17.6068 10.5231C17.5624 10.5631 17.5344 10.6181 17.5281 10.6775C17.3554 12.5534 16.487 14.2968 15.0938 15.5647C13.7006 16.8326 11.8835 17.5333 9.99978 17.5289C6.04732 17.5289 2.81509 14.5226 2.47144 10.6775C2.46451 10.6183 2.43627 10.5638 2.39202 10.524C2.34776 10.4841 2.29052 10.4618 2.231 10.4612C2.19948 10.4611 2.16829 10.4675 2.13934 10.48C2.1104 10.4924 2.08432 10.5107 2.06271 10.5337C2.0411 10.5566 2.02443 10.5837 2.01372 10.6134C2.00301 10.643 1.99849 10.6746 2.00044 10.706C2.1815 12.7015 3.10301 14.5569 4.58353 15.9068C6.06404 17.2568 7.99628 18.0035 9.99978 18C14.1971 18 17.6412 14.7949 17.9991 10.706C18.0019 10.6744 17.998 10.6425 17.9876 10.6125C17.9772 10.5824 17.9606 10.555 17.9388 10.5318C17.917 10.5087 17.8906 10.4905 17.8612 10.4783C17.8319 10.4661 17.8003 10.4603 17.7686 10.4612ZM2.23649 9.53884C2.35836 9.53884 2.46705 9.44442 2.47583 9.32254C2.6485 7.44737 3.51625 5.70461 4.9085 4.43678C6.30076 3.16896 8.11684 2.46778 9.99978 2.47105C13.9522 2.47105 17.1845 5.47846 17.5281 9.32254C17.5344 9.38194 17.5624 9.43693 17.6068 9.47687C17.6512 9.51682 17.7088 9.5389 17.7686 9.53884C17.8001 9.5389 17.8313 9.5325 17.8602 9.52003C17.8892 9.50756 17.9152 9.48929 17.9369 9.46634C17.9585 9.4434 17.9751 9.41626 17.9858 9.38662C17.9966 9.35697 18.0011 9.32545 17.9991 9.29399C17.8181 7.29852 16.8966 5.44314 15.416 4.09317C13.9355 2.74321 12.0033 1.99648 9.99978 2.00001C7.99628 1.99648 6.06404 2.74321 4.58353 4.09317C3.10301 5.44314 2.1815 7.29852 2.00044 9.29399C1.99849 9.32545 2.00301 9.35697 2.01372 9.38662C2.02443 9.41626 2.0411 9.4434 2.06271 9.46634C2.08432 9.48929 2.1104 9.50756 2.13934 9.52003C2.16829 9.5325 2.19948 9.5389 2.231 9.53884H2.23649Z" fill="white"/>
<g clip-path="url(#clip1_2732_121433)">
<path d="M18.9108 4.72405C18.5105 6.33021 16.8837 7.31099 15.2746 6.91043C13.6685 6.50889 12.6893 4.88211 13.0896 3.27595C13.4899 1.66979 15.1157 0.68901 16.7209 1.08957C18.331 1.48522 19.3102 3.11691 18.9108 4.72405Z" fill="#FF060A"/>
<path d="M17.788 3.59261C17.6122 3.43031 17.3691 3.18246 17.171 3.00668L17.1593 2.99848C17.1398 2.98282 17.1178 2.97054 17.0943 2.96215C16.6168 2.87309 14.3943 2.45767 14.351 2.46294C14.3388 2.46464 14.3272 2.46905 14.317 2.47583L14.3059 2.48462C14.2922 2.49854 14.2817 2.51536 14.2754 2.53384L14.2725 2.54145V2.58306V2.5895C14.5227 3.28617 15.5105 5.56837 15.7051 6.10391C15.7168 6.14023 15.739 6.20937 15.7806 6.21289H15.79C15.8123 6.21289 15.9072 6.0875 15.9072 6.0875C15.9072 6.0875 17.604 4.02972 17.7757 3.81058C17.7979 3.78359 17.8176 3.75455 17.8343 3.72386C17.8386 3.69985 17.8366 3.67514 17.8285 3.65214C17.8204 3.62914 17.8064 3.60863 17.788 3.59261ZM16.3425 3.83226L17.0668 3.23168L17.4915 3.62308L16.3425 3.83226ZM16.0613 3.793L14.8144 2.77114L16.8318 3.1432L16.0613 3.793ZM16.1738 4.06077L17.4499 3.85511L15.991 5.6129L16.1738 4.06077ZM14.6451 2.87309L15.957 3.98636L15.7672 5.61407L14.6451 2.87309Z" fill="white"/>
</g>
</g>
<defs>
<clipPath id="clip0_2732_121433">
<rect width="20" height="20" fill="white"/>
</clipPath>
<clipPath id="clip1_2732_121433">
<rect width="6" height="6" fill="white" transform="translate(13 1)"/>
</clipPath>
</defs>
</svg>
