<svg width="20" height="20" viewBox="0 0 20 20" fill="none" xmlns="http://www.w3.org/2000/svg">
<g clip-path="url(#clip0_1537_238847)">
<path d="M19.7027 12.4135C18.3684 17.7674 12.9458 21.0366 7.58209 19.7014C2.2282 18.363 -1.03581 12.9404 0.29857 7.5865C1.63296 2.23263 7.05226 -1.03663 12.4029 0.298561C17.7699 1.61739 21.0339 7.05635 19.7027 12.4135Z" fill="#53AE94"/>
<path d="M11.3404 8.02983V6.43294H14.9925V4H5.0479V6.43294H8.70029V8.02837C5.7319 8.1648 3.5 8.75248 3.5 9.45648C3.5 10.1605 5.73307 10.7485 8.70029 10.8855V16H11.3413V10.8849C14.3044 10.7482 16.5316 10.1608 16.5316 9.45735C16.5316 8.75394 14.3041 8.16655 11.3413 8.02983M11.3413 10.4523V10.4508C11.2669 10.4555 10.8838 10.4785 10.0316 10.4785C9.35018 10.4785 8.87056 10.4593 8.70175 10.4505V10.4526C6.07915 10.3365 4.1219 9.87975 4.1219 9.33346C4.1219 8.78718 6.07974 8.33125 8.70175 8.21465V9.99752C8.87348 10.0092 9.36476 10.0383 10.0429 10.0383C10.8573 10.0383 11.2666 10.0045 11.3418 9.99752V8.21494C13.9592 8.33154 15.9121 8.78863 15.9121 9.33288C15.9121 9.87742 13.9583 10.3345 11.3418 10.4511" fill="white"/>
<path d="M18.9108 4.72405C18.5105 6.33021 16.8837 7.31099 15.2746 6.91043C13.6685 6.50889 12.6893 4.88211 13.0896 3.27595C13.4899 1.66979 15.1157 0.68901 16.7209 1.08957C18.331 1.48522 19.3102 3.11691 18.9108 4.72405Z" fill="#C8C8C8"/>
<path d="M16.0352 4.72761C16.0235 4.73157 16.0169 4.72143 16.0089 4.71677C15.6204 4.48747 15.2323 4.25801 14.8447 4.0284C14.8409 4.0265 14.837 4.0249 14.833 4.02362V4.01849L14.8399 4.01453C14.8496 4.01196 14.8593 4.00885 14.8687 4.0052L15.7842 3.58863C15.8658 3.55145 15.9474 3.51485 16.029 3.47802H16.0348C16.0348 3.48968 16.0348 3.50005 16.0348 3.51112C16.0351 3.91666 16.0352 4.32215 16.0352 4.72761Z" fill="#343535"/>
<path d="M16.0357 3.47831H16.0299C16.0299 3.46665 16.0311 3.45499 16.0311 3.44276C16.0311 2.98726 16.0311 2.53172 16.0311 2.07615C16.0297 2.06445 16.0305 2.0526 16.0334 2.04118H16.0359C16.0838 2.11193 16.1255 2.18653 16.1695 2.25961C16.5186 2.83857 16.8674 3.41746 17.2161 3.99628C17.2195 4.00199 17.2222 4.00793 17.2252 4.01423C17.2153 4.01212 17.2056 4.00927 17.1962 4.00572C17.1322 3.97681 17.0679 3.94744 17.0045 3.91795C16.9052 3.87249 16.8059 3.82712 16.7065 3.78181L16.2277 3.56491C16.1639 3.53553 16.0998 3.50698 16.0357 3.47831Z" fill="#2F3030"/>
<path d="M16.0338 2.04058C16.0309 2.052 16.0301 2.06384 16.0315 2.07555C16.0315 2.53104 16.0315 2.98658 16.0315 3.44215C16.0315 3.45381 16.0308 3.46546 16.0303 3.4777C15.9487 3.51453 15.8671 3.55113 15.7855 3.58831L14.87 4.00488C14.8606 4.00853 14.851 4.01164 14.8412 4.01421C14.8677 3.95919 14.902 3.90931 14.9334 3.85662C15.2967 3.25279 15.6602 2.64907 16.024 2.04547C16.0264 2.04213 16.029 2.03894 16.0318 2.03592L16.0338 2.04058Z" fill="#828384"/>
<path d="M16.0357 3.47831C16.0998 3.50698 16.164 3.53554 16.228 3.56445L16.7068 3.78136C16.8062 3.82658 16.9056 3.87196 17.0048 3.9175C17.0687 3.94675 17.133 3.97636 17.1964 4.00526C17.2059 4.00882 17.2156 4.01166 17.2254 4.01377C17.2371 4.02834 17.2198 4.02892 17.2146 4.03207C17.1152 4.09151 17.0153 4.15014 16.9156 4.20912C16.6296 4.37835 16.3437 4.54755 16.0578 4.71671C16.0506 4.72091 16.0427 4.724 16.0352 4.72761C16.0352 4.32223 16.0352 3.91687 16.0352 3.51142C16.0353 3.50034 16.0356 3.48938 16.0357 3.47831Z" fill="#131313"/>
<path d="M16.0311 4.95788L16.7799 4.51649C16.9229 4.4321 17.0658 4.34764 17.2086 4.2631L17.2216 4.25599C17.2228 4.26765 17.2148 4.27382 17.2099 4.28058C16.8835 4.74066 16.5572 5.20059 16.2308 5.66036C16.1691 5.74755 16.1074 5.83519 16.045 5.92168C16.0418 5.92622 16.0368 5.94755 16.0268 5.92494C16.0347 5.91818 16.0312 5.90909 16.0312 5.90163C16.0313 5.58693 16.0312 5.27235 16.0311 4.95788Z" fill="#2F3030"/>
<path d="M16.031 4.95794C16.031 5.27241 16.031 5.5868 16.031 5.90111C16.031 5.90915 16.0345 5.91824 16.0266 5.92442C16.0099 5.91439 16.0027 5.89644 15.9916 5.88164C15.6132 5.3486 15.235 4.81547 14.8569 4.28227C14.8522 4.27551 14.8477 4.26829 14.8428 4.26083C14.8526 4.25512 14.8579 4.26293 14.8636 4.26631C15.2463 4.49227 15.6289 4.71842 16.0114 4.94477C16.0185 4.9492 16.0246 4.95375 16.031 4.95794Z" fill="#828384"/>
<path d="M16.0339 2.04057L16.0311 2.03626C16.0362 2.033 16.0355 2.03777 16.0363 2.04022L16.0339 2.04057Z" fill="#393939"/>
</g>
<defs>
<clipPath id="clip0_1537_238847">
<rect width="20" height="20" fill="white"/>
</clipPath>
</defs>
</svg>
