<svg width="20" height="20" viewBox="0 0 20 20" fill="none" xmlns="http://www.w3.org/2000/svg">
<g clip-path="url(#clip0_2739_11027)">
<path d="M19.7027 12.4135C18.3684 17.7674 12.9458 21.0366 7.58209 19.7014C2.2282 18.363 -1.03581 12.9404 0.29857 7.5865C1.63296 2.23263 7.05226 -1.03663 12.4029 0.298561C17.7699 1.61739 21.0339 7.05635 19.7027 12.4135Z" fill="#53AE94"/>
<path d="M11.3404 8.02983V6.43294H14.9925V4H5.0479V6.43294H8.70029V8.02837C5.7319 8.1648 3.5 8.75248 3.5 9.45648C3.5 10.1605 5.73307 10.7485 8.70029 10.8855V16H11.3413V10.8849C14.3044 10.7482 16.5316 10.1608 16.5316 9.45735C16.5316 8.75394 14.3041 8.16655 11.3413 8.02983M11.3413 10.4523V10.4508C11.2669 10.4555 10.8838 10.4785 10.0316 10.4785C9.35018 10.4785 8.87056 10.4593 8.70175 10.4505V10.4526C6.07915 10.3365 4.1219 9.87975 4.1219 9.33346C4.1219 8.78718 6.07974 8.33125 8.70175 8.21465V9.99752C8.87348 10.0092 9.36476 10.0383 10.0429 10.0383C10.8573 10.0383 11.2666 10.0045 11.3418 9.99752V8.21494C13.9592 8.33154 15.9121 8.78863 15.9121 9.33288C15.9121 9.87742 13.9583 10.3345 11.3418 10.4511" fill="white"/>
<path d="M16 0.998779C17.6569 0.998779 19 2.34166 19 3.99825C19 5.65483 17.6569 6.99771 16 6.99771C14.3431 6.99771 13 5.65483 13 3.99825C13 2.34166 14.3431 0.998779 16 0.998779Z" fill="#F0B90B"/>
<path d="M15.2239 3.67598L15.6781 3.22338L15.774 3.12758L16.0009 2.90063L16.7739 3.67598L17.2239 3.22338L16.0009 1.99854L14.7739 3.22338L15.2239 3.67598Z" fill="white"/>
<path d="M16.0012 3.54555L15.5493 3.99731L16.0012 4.44908L16.453 3.99731L16.0012 3.54555Z" fill="white"/>
<path d="M16.7739 4.32129L16.0007 5.09443L15.7291 4.82292L15.6792 4.77299L15.2239 4.32129L14.7739 4.7712L16.0009 5.99596L17.2239 4.7712L16.7739 4.32129Z" fill="white"/>
<path d="M14.4518 3.54677L14 3.99854L14.4518 4.4503L14.9037 3.99854L14.4518 3.54677Z" fill="white"/>
<path d="M17.5485 3.54653L17.0967 3.99829L17.5485 4.45006L18.0004 3.99829L17.5485 3.54653Z" fill="white"/>
</g>
<defs>
<clipPath id="clip0_2739_11027">
<rect width="20" height="20" fill="white"/>
</clipPath>
</defs>
</svg>
