<svg width="20" height="20" viewBox="0 0 20 20" fill="none" xmlns="http://www.w3.org/2000/svg">
<g clip-path="url(#clip0_2732_121390)">
<path d="M19.7027 12.4135C18.3684 17.7674 12.9458 21.0366 7.58209 19.7014C2.2282 18.363 -1.03581 12.9404 0.29857 7.5865C1.63296 2.23263 7.05226 -1.03663 12.4029 0.298561C17.7699 1.61739 21.0339 7.05635 19.7027 12.4135Z" fill="#53AE94"/>
<path d="M11.3404 8.02983V6.43294H14.9925V4H5.0479V6.43294H8.70029V8.02837C5.7319 8.1648 3.5 8.75248 3.5 9.45648C3.5 10.1605 5.73307 10.7485 8.70029 10.8855V16H11.3413V10.8849C14.3044 10.7482 16.5316 10.1608 16.5316 9.45735C16.5316 8.75394 14.3041 8.16655 11.3413 8.02983M11.3413 10.4523V10.4508C11.2669 10.4555 10.8838 10.4785 10.0316 10.4785C9.35018 10.4785 8.87056 10.4593 8.70175 10.4505V10.4526C6.07915 10.3365 4.1219 9.87975 4.1219 9.33346C4.1219 8.78718 6.07974 8.33125 8.70175 8.21465V9.99752C8.87348 10.0092 9.36476 10.0383 10.0429 10.0383C10.8573 10.0383 11.2666 10.0045 11.3418 9.99752V8.21494C13.9592 8.33154 15.9121 8.78863 15.9121 9.33288C15.9121 9.87742 13.9583 10.3345 11.3418 10.4511" fill="white"/>
<path d="M18.9108 4.72405C18.5105 6.33021 16.8837 7.31099 15.2746 6.91043C13.6685 6.50889 12.6893 4.88211 13.0896 3.27595C13.4899 1.66979 15.1157 0.68901 16.7209 1.08957C18.331 1.48522 19.3102 3.11691 18.9108 4.72405Z" fill="#FF060A"/>
<path d="M17.788 3.59261C17.6122 3.43031 17.3691 3.18246 17.171 3.00668L17.1593 2.99848C17.1398 2.98282 17.1178 2.97054 17.0943 2.96215C16.6168 2.87309 14.3943 2.45767 14.351 2.46294C14.3388 2.46464 14.3272 2.46905 14.317 2.47583L14.3059 2.48462C14.2922 2.49854 14.2817 2.51536 14.2754 2.53384L14.2725 2.54145V2.58306V2.5895C14.5227 3.28617 15.5105 5.56837 15.7051 6.10391C15.7168 6.14023 15.739 6.20937 15.7806 6.21289H15.79C15.8123 6.21289 15.9072 6.0875 15.9072 6.0875C15.9072 6.0875 17.604 4.02972 17.7757 3.81058C17.7979 3.78359 17.8176 3.75455 17.8343 3.72386C17.8386 3.69985 17.8366 3.67514 17.8285 3.65214C17.8204 3.62914 17.8064 3.60863 17.788 3.59261ZM16.3425 3.83226L17.0668 3.23168L17.4915 3.62308L16.3425 3.83226ZM16.0613 3.793L14.8144 2.77114L16.8318 3.1432L16.0613 3.793ZM16.1738 4.06077L17.4499 3.85511L15.991 5.6129L16.1738 4.06077ZM14.6451 2.87309L15.957 3.98636L15.7672 5.61407L14.6451 2.87309Z" fill="white"/>
</g>
<defs>
<clipPath id="clip0_2732_121390">
<rect width="20" height="20" fill="white"/>
</clipPath>
</defs>
</svg>
