<svg width="25" height="21" viewBox="0 0 25 21" fill="none" xmlns="http://www.w3.org/2000/svg">
<path d="M24.3976 9.67956L15.7304 1.01212C15.483 0.76471 15.1532 0.628906 14.8016 0.628906C14.4496 0.628906 14.1201 0.764905 13.8727 1.01212L13.0857 1.79924C12.8385 2.04626 12.7023 2.37621 12.7023 2.72801C12.7023 3.07962 12.8385 3.42069 13.0857 3.66771L18.1421 8.73518H2.07782C1.35354 8.73518 0.78125 9.3022 0.78125 10.0267V11.1395C0.78125 11.8639 1.35354 12.4881 2.07782 12.4881H18.1994L13.0859 17.5839C12.8387 17.8313 12.7025 18.1523 12.7025 18.5041C12.7025 18.8555 12.8387 19.1811 13.0859 19.4284L13.8728 20.2129C14.1203 20.4604 14.4498 20.5952 14.8018 20.5952C15.1534 20.5952 15.4832 20.4586 15.7306 20.2112L24.3978 11.5439C24.6458 11.2957 24.7822 10.9644 24.7812 10.6122C24.782 10.2589 24.6458 9.92737 24.3976 9.67956Z" fill="#C5C0D8"/>
</svg>
