<svg width="37" height="41" viewBox="0 0 37 41" fill="none" xmlns="http://www.w3.org/2000/svg">
<path d="M27.9145 2.6393L24.2106 1.18164L23.9597 1.81489C17.0537 1.52813 9.75334 6.91674 6.39592 15.4358C3.02655 23.9548 4.67539 32.88 9.90867 37.3845L9.65776 38.0177L13.3617 39.4754C21.2235 42.5819 30.8657 36.8588 34.8803 26.6789C38.8948 16.5111 35.7764 5.74582 27.9145 2.62736V2.6393Z" fill="url(#paint0_linear_3241_203899)"/>
<path d="M31.1735 25.222C27.1589 35.3898 17.5168 41.1249 9.65493 38.0184C1.78111 34.9119 -1.33735 24.1467 2.68917 13.9669C6.70374 3.799 16.3459 -1.93611 24.2077 1.17041C32.0815 4.27692 35.2 15.0422 31.1735 25.222Z" fill="url(#paint1_linear_3241_203899)"/>
<path d="M27.072 23.5921C24.2164 30.8326 17.3462 34.9069 11.7426 32.6965C6.13888 30.4861 3.91653 22.8154 6.78408 15.5749C9.63968 8.33429 16.5099 4.25998 22.1016 6.47039C27.7052 8.68079 29.9276 16.3515 27.06 23.5921H27.072Z" fill="url(#paint2_linear_3241_203899)"/>
<path opacity="0.55" d="M32.0346 10.1744C30.7322 5.99257 28.0319 2.68295 24.2085 1.16554C16.3467 -1.94097 6.70454 3.78219 2.68997 13.962C0.861903 18.5859 0.515408 23.3174 1.41152 27.4156C7.39753 16.7339 19.9431 5.86114 32.0346 10.1744Z" fill="url(#paint3_linear_3241_203899)"/>
<path d="M26.3823 6.73744L26.6213 4.7182L24.9844 3.49949L27.0036 3.73846L28.2223 2.10156L27.9833 4.1208L29.6202 5.33951L27.601 5.10054L26.3823 6.73744Z" fill="url(#paint4_linear_3241_203899)"/>
<path d="M4.31385 12.5402L4.50501 10.963L3.22656 10.0072L4.80371 10.1984L5.74762 8.91992L5.55645 10.4971L6.8349 11.441L5.25775 11.2617L4.31385 12.5402Z" fill="url(#paint5_linear_3241_203899)"/>
<defs>
<linearGradient id="paint0_linear_3241_203899" x1="31.2716" y1="-5.62892" x2="8.07219" y2="52.4328" gradientUnits="userSpaceOnUse">
<stop stop-color="#FBCA32"/>
<stop offset="0.23" stop-color="#F9BF2A"/>
<stop offset="0.62" stop-color="#F4A417"/>
<stop offset="1" stop-color="#EF8400"/>
</linearGradient>
<linearGradient id="paint1_linear_3241_203899" x1="23.0078" y1="0.294343" x2="5.73042" y2="54.8755" gradientUnits="userSpaceOnUse">
<stop stop-color="#F9E94E"/>
<stop offset="0.2" stop-color="#F9DE44"/>
<stop offset="0.55" stop-color="#FBC32B"/>
<stop offset="1" stop-color="#FF9804"/>
</linearGradient>
<linearGradient id="paint2_linear_3241_203899" x1="24.4792" y1="-7.96636" x2="5.29788" y2="61.715" gradientUnits="userSpaceOnUse">
<stop stop-color="#FF9804"/>
<stop offset="0.45" stop-color="#FBC32B"/>
<stop offset="0.8" stop-color="#F9DE44"/>
<stop offset="1" stop-color="#F9E94E"/>
</linearGradient>
<linearGradient id="paint3_linear_3241_203899" x1="23.0484" y1="1.78251" x2="7.2262" y2="29.4862" gradientUnits="userSpaceOnUse">
<stop stop-color="#F7FC98"/>
<stop offset="1" stop-color="#F9E94E"/>
</linearGradient>
<linearGradient id="paint4_linear_3241_203899" x1="28.0752" y1="2.78291" x2="26.2523" y2="6.5206" gradientUnits="userSpaceOnUse">
<stop stop-color="#FBFCC8"/>
<stop offset="1" stop-color="#FFFDFF"/>
</linearGradient>
<linearGradient id="paint5_linear_3241_203899" x1="5.6174" y1="9.45376" x2="4.21019" y2="12.3665" gradientUnits="userSpaceOnUse">
<stop stop-color="#FBFCC8"/>
<stop offset="1" stop-color="#FFFDFF"/>
</linearGradient>
</defs>
</svg>
