<svg width="21" height="20" viewBox="0 0 21 20" fill="none" xmlns="http://www.w3.org/2000/svg">
<path d="M16.9205 10.0177V15.8028C16.9205 17.0153 15.938 17.9987 14.7255 17.9987H6.27583C5.0633 17.9987 4.07995 17.0153 4.07995 15.8028V10.0177M10.5008 17.9999V10.0865M10.501 5.99998H6.90138C5.79609 5.99998 4.90096 5.10485 4.90096 3.99956C4.90096 2.89599 5.79609 2 6.90138 2C9.70096 2 10.501 5.99998 10.501 5.99998ZM10.5029 5.99998H14.1021C15.2073 5.99998 16.1024 5.10485 16.1024 3.99956C16.1024 2.89599 15.2073 2 14.1021 2C11.3025 2 10.5029 5.99998 10.5029 5.99998ZM4.28195 6.02396H16.6235C17.5454 6.02396 18.2927 6.77121 18.2927 7.69314V8.41877C18.2927 9.28882 17.5869 9.9937 16.7178 9.9937H4.37621C3.45428 9.9937 2.70703 9.24642 2.70703 8.32535V7.59801C2.70703 6.72882 3.41189 6.02396 4.28195 6.02396Z" stroke="white" stroke-width="1.5" stroke-linecap="round" stroke-linejoin="round"/>
</svg>
