<svg width="24" height="24" viewBox="0 0 24 24" fill="none" xmlns="http://www.w3.org/2000/svg">
<path d="M19.7046 12.0197V18.9618C19.7046 20.4168 18.5257 21.5969 17.0706 21.5969H6.931C5.47596 21.5969 4.29594 20.4168 4.29594 18.9618V12.0197M12.0009 21.5983V12.1022M12.0012 7.19842H7.68165C6.35531 7.19842 5.28115 6.12425 5.28115 4.7979C5.28115 3.47363 6.35531 2.39844 7.68165 2.39844C11.0412 2.39844 12.0012 7.19842 12.0012 7.19842ZM12.0034 7.19842H16.3225C17.6488 7.19842 18.7229 6.12425 18.7229 4.7979C18.7229 3.47363 17.6488 2.39844 16.3225 2.39844C12.963 2.39844 12.0034 7.19842 12.0034 7.19842ZM4.53834 7.22719H19.3482C20.4545 7.22719 21.3513 8.12388 21.3513 9.23021V10.101C21.3513 11.145 20.5043 11.9909 19.4613 11.9909H4.65146C3.54513 11.9909 2.64844 11.0941 2.64844 9.98885V9.11605C2.64844 8.07302 3.49427 7.22719 4.53834 7.22719Z" stroke="#E3B075" stroke-width="1.5" stroke-linecap="round" stroke-linejoin="round"/>
</svg>
