<svg width="80" height="20" viewBox="0 0 80 20" fill="none" xmlns="http://www.w3.org/2000/svg">
<path d="M0 16.256H8.716V18.064H0V16.256ZM63.032 10.452L65.78 7.42005H63.732L61.48 9.94005V7.42005H59.848V13.792H61.488V11.108L63.896 13.792H66L63.032 10.452ZM9.676 10.872C9.632 12.072 9.48 12.3 8.816 12.3V13.7961H9.064C10.732 13.7961 11.128 12.936 11.188 11.02L11.26 8.90005H12.8V13.792H14.432V7.42005H9.788L9.676 10.872ZM2.592 11.968H6.032L6.604 13.792H8.512L5.94 6.12805C5.692 5.38805 5.404 4.80005 4.42 4.80005C3.436 4.80005 3.136 5.38805 2.872 6.12805L0.176 13.792H1.968L2.592 11.968ZM4.336 6.80005H4.38L5.532 10.432H3.108L4.336 6.80005ZM42.46 8.32405H40.64V6.52405H44.864V4.92405H38.928V13.792H42.46C44.416 13.792 45.54 12.816 45.54 11.032C45.54 9.34005 44.4 8.32405 42.46 8.32405ZM42.376 12.188H40.64V9.88405H42.376C43.28 9.88405 43.788 10.284 43.788 11.036C43.788 11.788 43.28 12.188 42.376 12.188ZM26.236 7.27205V4.91205H24.608V7.27205C23.7532 7.30025 22.9444 7.66657 22.3594 8.29053C21.7745 8.91453 21.461 9.74517 21.488 10.6C21.4589 11.4567 21.7712 12.2898 22.3563 12.9162C22.9414 13.5426 23.7514 13.9108 24.608 13.94V16.34H26.24V13.94C26.6643 13.9261 27.0818 13.8286 27.4683 13.6531C27.8549 13.4776 28.2031 13.2276 28.4929 12.9173C28.7827 12.607 29.0085 12.2427 29.1573 11.845C29.3061 11.4474 29.375 11.0243 29.36 10.6C29.3771 10.1755 29.3095 9.75177 29.1611 9.35365C29.0127 8.95549 28.7865 8.59089 28.4957 8.28109C28.2049 7.97133 27.8553 7.72253 27.4674 7.54929C27.0794 7.37605 26.6608 7.28181 26.236 7.27205ZM24.612 12.4C24.1801 12.3526 23.7841 12.1373 23.5095 11.8006C23.2349 11.4638 23.1036 11.0327 23.144 10.6C23.1088 10.1685 23.242 9.74005 23.5156 9.40453C23.7893 9.06897 24.1822 8.85237 24.612 8.80005V12.4ZM26.244 12.4V8.80005C26.6738 8.85237 27.0667 9.06897 27.3404 9.40453C27.614 9.74005 27.7472 10.1685 27.712 10.6C27.7503 11.0322 27.6182 11.4623 27.344 11.7986C27.0698 12.1348 26.6751 12.3506 26.244 12.4ZM35.476 11.836V9.68805C35.476 8.12005 34.48 7.14005 32.808 7.14005C31.136 7.14005 30.16 8.18005 30.08 9.26405H31.732C31.788 9.03205 32.036 8.62005 32.804 8.62005C32.9476 8.60157 33.0932 8.61669 33.2296 8.66429C33.3664 8.71189 33.49 8.79057 33.5908 8.89421C33.6916 8.99781 33.7672 9.12349 33.8112 9.26125C33.8552 9.39905 33.8664 9.54517 33.844 9.68805H32.244C30.796 9.68805 29.936 10.452 29.936 11.716C29.9247 12.0177 29.9769 12.3183 30.0891 12.5985C30.2014 12.8787 30.3712 13.1322 30.5877 13.3426C30.8041 13.553 31.0623 13.7156 31.3456 13.8199C31.6288 13.9242 31.9308 13.9678 32.232 13.948C32.572 13.9659 32.9112 13.8997 33.2196 13.7553C33.528 13.6109 33.796 13.3927 34 13.12C34.1328 13.3446 34.3264 13.527 34.5588 13.6459C34.7908 13.7648 35.052 13.8155 35.312 13.792H35.876V12.32C35.6 12.32 35.476 12.188 35.476 11.836ZM33.844 11.436C33.8508 11.5936 33.824 11.7508 33.7652 11.8972C33.7068 12.0437 33.618 12.1761 33.5048 12.2857C33.3912 12.3953 33.256 12.4796 33.1076 12.5331C32.9592 12.5866 32.8012 12.608 32.644 12.596C32.056 12.596 31.592 12.384 31.592 11.748C31.592 11.112 32.108 11.02 32.544 11.02H33.844V11.436ZM18.496 9.35605H17.324V7.42005H15.692V13.792H18.524C20.296 13.792 20.924 12.64 20.924 11.552C20.932 10.148 20.052 9.35605 18.496 9.35605ZM18.376 12.4H17.324V10.8H18.376C18.94 10.8 19.28 11.056 19.28 11.6C19.28 12.144 18.956 12.4 18.376 12.4ZM51.768 11.836V9.68805C51.768 8.12005 50.772 7.14005 49.1 7.14005C47.428 7.14005 46.452 8.18005 46.372 9.26405H48.024C48.08 9.03205 48.328 8.62005 49.096 8.62005C49.2396 8.60157 49.3852 8.61669 49.5216 8.66429C49.6584 8.71189 49.782 8.79057 49.8828 8.89421C49.9836 8.99781 50.0592 9.12349 50.1032 9.26125C50.1472 9.39905 50.1584 9.54517 50.136 9.68805H48.536C47.088 9.68805 46.228 10.452 46.228 11.716C46.2168 12.0177 46.2688 12.3183 46.3812 12.5985C46.4932 12.8787 46.6632 13.1322 46.8796 13.3426C47.096 13.553 47.3544 13.7156 47.6376 13.8199C47.9208 13.9242 48.2228 13.9678 48.524 13.948C48.8672 13.9693 49.2104 13.9047 49.5228 13.7602C49.8348 13.6156 50.106 13.3956 50.312 13.12C50.4428 13.3407 50.6328 13.5205 50.8604 13.6392C51.088 13.758 51.344 13.8109 51.6 13.792H52.164V12.32C51.88 12.32 51.768 12.188 51.768 11.836ZM50.144 11.436C50.15 11.5934 50.1228 11.7503 50.064 11.8965C50.0052 12.0426 49.9164 12.1748 49.8032 12.2842C49.69 12.3937 49.5548 12.478 49.4068 12.5318C49.2588 12.5855 49.1012 12.6074 48.944 12.596C48.356 12.596 47.892 12.384 47.892 11.748C47.892 11.112 48.408 11.02 48.844 11.02H50.144V11.436ZM56.98 9.79205H54.728V7.42005H53.096V13.7961H54.728V11.284H56.98V13.792H58.612V7.42005H56.98V9.79205Z" fill="#EF3124"/>
</svg>
