<svg width="80" height="20" viewBox="0 0 80 20" fill="none" xmlns="http://www.w3.org/2000/svg">
<path d="M6.14088 17.036H1.01972V14.872H6.12956V17.036H6.14088ZM7.17192 13.7843H0V19.2H1.01972V18.1124H7.14928V13.7843H7.17192ZM1.01972 4.05177L3.07044 1.88773V9.46753H1.01972V4.05177ZM0 10.5439H4.0788V0.800049H2.5606L0 3.50793V10.5439ZM6.14088 1.88773H8.19164V9.46753H6.14088V1.88773ZM5.1212 10.5439H9.2V0.800049H5.1212V10.5439ZM16.3493 10.5439H17.369V0.800049H15.8281V0.811381L14.2872 2.43158V0.800049H12.7463L10.2084 3.50793V10.5439H11.2281V4.05177L13.2788 1.88773V10.5439H14.2985V4.05177L16.3493 1.88773V10.5439ZM0 12.7079H17.3803V11.6202H0V12.7079ZM13.2902 14.872H16.3493V17.036H13.2902V14.872ZM12.2704 17.036H9.2V14.872H12.2704V17.036ZM13.2902 18.1124H17.3803V13.7843H8.19164V18.1124H12.2704V19.2H13.2902V18.1124ZM32.5852 10.3626H33.4804C33.8768 10.3626 34.1148 10.6458 34.1148 11.0311C34.1148 11.439 33.8768 11.6996 33.4804 11.6996H32.5852V10.3626ZM32.5852 9.51285V8.53849H34.7152V7.68873H31.6676V12.5606H33.5144C34.432 12.5606 35.01 11.9262 35.01 11.0424C35.01 10.1587 34.4432 9.52417 33.5144 9.52417C33.5256 9.51285 32.5852 9.51285 32.5852 9.51285ZM38.3296 10.8951H37.1852L37.7744 9.12765L38.3296 10.8951ZM38.8508 12.5606H39.7912L38.1256 7.68873H37.4232L35.7576 12.5606H36.698L36.9812 11.6996H38.6016L38.8508 12.5606ZM43.1788 12.5606H44.074V7.68873H43.1788V9.68281H41.6264V7.68873H40.7316V12.5606H41.6264V10.5212H43.1788V12.5606ZM47.3708 9.96605L48.912 7.68873H47.8468L46.374 10V7.68873H45.4788V12.5606H46.374V10.0114L47.9828 12.5606H49.0816L47.3708 9.96605Z" fill="white"/>
<path d="M25.3225 2.87341H24.5293V17.1266H25.3225V2.87341Z" fill="#99C45A"/>
</svg>
