<svg width="80" height="20" viewBox="0 0 80 20" fill="none" xmlns="http://www.w3.org/2000/svg">
<path fill-rule="evenodd" clip-rule="evenodd" d="M0.906802 6C0.598454 6 0.290194 6.05437 0 6.18136V10.6973C1.25137 11.2051 2.66603 10.5884 3.17381 9.3371C3.68158 8.08564 3.06497 6.67107 1.8136 6.18136C1.68219 6.13212 1.54705 6.09033 1.40979 6.05933C1.24411 6.02178 1.0755 6 0.906802 6ZM6.69218 6.01807C5.35013 6.01807 4.26197 7.10623 4.26197 8.44836C4.26197 9.79032 5.35013 10.8785 6.69218 10.8785C8.03423 10.8785 9.12239 9.79032 9.12239 8.44836C9.12239 7.10623 8.03423 6.01807 6.69218 6.01807ZM0 11.7855H13.4025V13.6171H0V11.7855ZM12.8862 6.03365C12.7511 6.01063 12.6144 6 12.4776 6C12.1693 6 11.861 6.07261 11.5527 6.18136C10.3013 6.68913 9.70278 8.10371 10.2106 9.35517C10.7184 10.6066 12.1331 11.2051 13.3844 10.6973V6.18136C13.2229 6.11069 13.0558 6.06252 12.8862 6.03365Z" fill="#FDA329"/>
<path fill-rule="evenodd" clip-rule="evenodd" d="M49.0399 12.9276C48.5321 12.3835 48.2782 11.7126 48.2782 10.8965C48.2782 10.0077 48.4232 9.30037 48.6772 8.82891C48.9492 8.3392 49.4752 7.8858 50.2913 7.48677C50.4001 7.4324 50.5815 7.34172 50.7991 7.25104L51.2343 7.03337C51.2854 7.013 51.3422 6.98112 51.408 6.94411C51.4591 6.91541 51.5156 6.88371 51.579 6.85201C51.9598 6.61628 52.0686 6.43492 52.2499 6.01782L53.3563 6.65258C53.2656 7.08792 53.0661 7.41433 52.7397 7.65007C52.4313 7.8858 51.9598 8.12153 51.3069 8.35744C50.4182 8.70192 50.0736 9.02833 49.8923 9.51804C50.2731 9.11901 50.7991 8.91959 51.4701 8.91959C52.0504 8.91959 52.5765 9.13726 53.0299 9.55435C53.4832 9.97144 53.719 10.5338 53.719 11.241C53.719 11.9664 53.4832 12.5468 52.9754 13.0183C52.4858 13.4899 51.851 13.7076 51.053 13.7076C50.2188 13.7256 49.5658 13.4717 49.0399 12.9276ZM50.1099 10.3342C49.8379 10.5518 49.7109 10.8419 49.7109 11.2047C49.7109 11.5674 49.8379 11.8757 50.0918 12.1115C50.3638 12.3474 50.6722 12.4742 51.053 12.4742C51.4338 12.4742 51.7422 12.3654 51.9961 12.1297C52.2318 11.894 52.3588 11.6037 52.3588 11.241C52.3588 10.5338 51.8147 10.0077 51.053 10.0077C50.6902 10.0077 50.382 10.1165 50.1099 10.3342ZM23.4318 7.17842C24.1572 7.90386 24.52 8.81067 24.52 9.89883C24.52 10.987 24.1572 11.8938 23.4318 12.6192C22.7064 13.3629 21.7996 13.7256 20.6932 13.7256C19.3512 13.7256 18.1724 13.0546 17.5376 11.9845L18.789 11.259C19.1335 11.8938 19.859 12.2928 20.6932 12.2928C21.8902 12.2928 22.7427 11.6218 22.9966 10.5518H19.7139V9.19163H22.9966C22.7427 8.12153 21.8902 7.45046 20.6932 7.45046C19.859 7.45046 19.1517 7.83143 18.789 8.50232L17.5376 7.77688C18.1724 6.70696 19.3694 6.03589 20.6932 6.03589C21.7996 6.07219 22.7064 6.43492 23.4318 7.17842ZM30.3235 13.5806H28.7456L26.8413 11.1866V13.5806H25.4811V8.32113H26.8413V10.6425L28.655 8.32113H30.269L28.1472 10.9146L30.3235 13.5806ZM30.3598 10.9509C30.3598 11.7307 30.6137 12.3837 31.1396 12.9278C31.6837 13.4718 32.3366 13.7256 33.1527 13.7256C34.1684 13.7256 35.057 13.1998 35.5286 12.3654L34.3497 11.6945C34.1321 12.1297 33.6787 12.3837 33.1346 12.3837C32.7175 12.3837 32.3911 12.2386 32.119 11.9846C31.8651 11.7126 31.72 11.368 31.72 10.9509C31.72 10.1167 32.3185 9.51822 33.1346 9.51822C33.6606 9.51822 34.114 9.79026 34.3316 10.2254L35.4923 9.53628C35.057 8.7021 34.1502 8.17608 33.1346 8.17608C32.3366 8.17608 31.6837 8.43006 31.1396 8.97414C30.6137 9.51822 30.3598 10.171 30.3598 10.9509ZM41.0781 13.5806H39.7179V9.59066H37.6323V13.5806H36.2721V8.32113H41.0781V13.5806ZM42.8374 12.9278C43.3814 13.4718 44.0344 13.7256 44.8142 13.7256C45.5941 13.7256 46.247 13.4718 46.7911 12.9278C47.3352 12.3837 47.6072 11.7126 47.6072 10.9509C47.6072 10.1891 47.3352 9.53628 46.7911 8.9922C46.247 8.44812 45.5941 8.17608 44.8142 8.17608C44.0344 8.17608 43.3814 8.44812 42.8374 8.9922C42.2933 9.51822 42.0394 10.171 42.0394 10.9509C42.0394 11.7307 42.2933 12.3837 42.8374 12.9278ZM45.8298 11.9846C45.5578 12.2567 45.2314 12.4017 44.8142 12.4017C44.3971 12.4017 44.0707 12.2567 43.7986 11.9846C43.5447 11.7126 43.3996 11.368 43.3996 10.9509C43.3996 10.5338 43.5447 10.1891 43.7986 9.91707C44.0707 9.64503 44.3971 9.49998 44.8142 9.49998C45.2132 9.49998 45.5578 9.64503 45.8298 9.91707C46.1019 10.1891 46.247 10.5338 46.247 10.9509C46.247 11.368 46.1019 11.7126 45.8298 11.9846ZM59.8852 8.32113H58.525V8.93783C58.1079 8.43006 57.5457 8.17608 56.8021 8.17608C56.0948 8.17608 55.4963 8.44812 54.9885 8.9922C54.4988 9.51822 54.2449 10.171 54.2449 10.9509C54.2449 11.7307 54.4988 12.3837 54.9885 12.9278C55.4963 13.4718 56.0948 13.7256 56.8021 13.7256C57.5457 13.7256 58.1079 13.4718 58.525 12.9641V13.5806H59.8852V8.32113ZM58.0898 12.021C57.8177 12.293 57.4731 12.438 57.056 12.438C56.6389 12.438 56.2942 12.293 56.0222 12.021C55.7502 11.7489 55.6051 11.3862 55.6051 10.9509C55.6051 10.5157 55.7502 10.153 56.0222 9.88094C56.2942 9.6089 56.6389 9.46367 57.056 9.46367C57.4731 9.46367 57.8177 9.59066 58.0898 9.88094C58.3618 10.171 58.5069 10.5157 58.5069 10.9509C58.5069 11.3862 58.3799 11.7307 58.0898 12.021ZM64.5643 8.32113H65.9245V13.5806H64.5643V11.5856H62.4787V13.5806H61.1185V8.32113H62.4787V10.3161H64.5643V8.32113ZM70.4223 13.5806H72.0001L69.8237 10.9146L71.9275 8.32113H70.3135L68.4999 10.6425V8.32113H67.1396V13.5806H68.4999V11.1866L70.4223 13.5806Z" fill="#2D9EC5"/>
</svg>
