<svg width="80" height="20" viewBox="0 0 80 20" fill="none" xmlns="http://www.w3.org/2000/svg">
<path fill-rule="evenodd" clip-rule="evenodd" d="M11.8315 6C12.6595 6 13.3755 6.16 13.9875 6.476C14.5955 6.792 15.0675 7.24 15.3995 7.812C15.7315 8.384 15.8955 9.064 15.8955 9.848C15.8955 10.624 15.7315 11.304 15.3995 11.88C15.0675 12.46 14.5955 12.908 13.9875 13.224C13.3755 13.54 12.6595 13.7 11.8315 13.7C11.0035 13.7 10.2835 13.54 9.67148 13.224C9.05948 12.904 8.58748 12.456 8.25948 11.88C7.93148 11.304 7.76748 10.624 7.76748 9.848C7.76748 9.064 7.93148 8.384 8.25948 7.812C8.58748 7.24 9.05948 6.792 9.67148 6.476C10.2835 6.16 11.0035 6 11.8315 6ZM12.9995 11.908C13.3155 11.728 13.5555 11.464 13.7115 11.12C13.8675 10.772 13.9475 10.352 13.9515 9.852C13.9515 9.352 13.8715 8.932 13.7155 8.588C13.5595 8.244 13.3195 7.98 13.0035 7.8C12.6835 7.62 12.2955 7.528 11.8315 7.528C11.3675 7.528 10.9835 7.616 10.6715 7.796C10.3595 7.976 10.1235 8.24 9.96348 8.584C9.80348 8.932 9.72348 9.352 9.72348 9.852C9.72348 10.352 9.80348 10.776 9.96348 11.12C10.1235 11.468 10.3555 11.728 10.6675 11.908C10.9755 12.088 11.3635 12.176 11.8275 12.176C12.2915 12.176 12.6835 12.088 12.9995 11.908ZM7.51951 6.10391H5.42351L3.85151 8.51591L2.19551 6.10391H0.0115117L2.62351 9.73191L-0.000488281 13.5919H2.10751L3.70351 11.1079L5.39151 13.5919H7.57151L4.91951 9.83991L7.51951 6.10391ZM42.8315 8.87991C43.3235 8.87991 43.7555 8.97591 44.1315 9.16791C44.5035 9.35991 44.7955 9.63191 45.0075 9.97991C45.2195 10.3279 45.3235 10.7439 45.3235 11.2199C45.3235 11.6999 45.2195 12.1159 45.0075 12.4679C44.7955 12.8199 44.5075 13.0959 44.1355 13.2919C43.7635 13.4879 43.3275 13.5919 42.8195 13.5919H38.5315V6.10391H44.7675V7.62791H40.3835V8.87991H42.8315ZM42.5875 12.1079C42.8635 12.1079 43.0795 12.0319 43.2275 11.8839C43.3755 11.7359 43.4515 11.5199 43.4515 11.2319C43.4515 11.0399 43.4195 10.8799 43.3515 10.7519C43.2835 10.6239 43.1835 10.5239 43.0515 10.4519C42.9195 10.3799 42.7675 10.3439 42.5875 10.3439H40.3835V12.1079H42.5875ZM45.6995 13.5919L48.9435 6.10391H50.8795L54.1275 13.5919H52.1275L51.5195 12.0879H48.2275L47.6155 13.5919H45.6995ZM49.8835 8.05191L48.8355 10.6119H50.9235L49.8835 8.05191ZM60.6995 8.96791H57.1275V6.10391H55.2235V13.5919H57.1275V10.5079H60.6995V13.5919H62.5955V6.10391H60.6995V8.96791ZM68.3235 9.60391L71.9995 13.5919H69.5715L66.4595 10.2159V13.5919H64.6075V6.10391H66.4595V9.31191L69.5715 6.10391H71.8635L68.3235 9.60391ZM19.9315 9.67591L18.1075 6.10391H15.9715L18.9115 11.5719L17.8835 13.5919H19.9275L23.7155 6.10391H21.6915L19.9315 9.67591ZM29.1075 10.5399L31.4955 6.10391H33.5395V13.5919H31.8155V8.71591L29.9115 12.2679H28.2635L26.3195 8.73991V13.5919H24.5955V6.10391H26.6715L29.1075 10.5399Z" fill="#E1192F"/>
</svg>
