<svg width="80" height="20" viewBox="0 0 80 20" fill="none" xmlns="http://www.w3.org/2000/svg">
<path d="M0 11.012C0 12.9 1.06 14.8 3.428 14.8C5.796 14.8 6.856 12.9 6.856 11.012C6.856 9.72395 6.42 8.23995 5.696 7.04395C4.992 5.88795 4.144 5.19995 3.428 5.19995C2.712 5.19995 1.864 5.88795 1.164 7.04395C0.436 8.24395 0 9.72395 0 11.012ZM24.344 8.02795H21.944V5.71595H29.316V8.03195H26.916V14.288H24.344V8.02795ZM34.8 8.02795H38.572V5.71595H34.8C31.336 5.71595 29.484 7.43995 29.484 9.99995C29.484 12.564 31.336 14.284 34.8 14.284H38.572V11.968H34.8C33.196 11.968 32.14 11.396 32.14 9.99595C32.14 8.59995 33.196 8.02795 34.8 8.02795ZM15.34 10.832L16.712 5.71595H21.256V14.288H18.684V7.30795L16.816 14.284H13.868L12 7.31195V14.284H9.428V5.71595H13.972L15.34 10.832ZM44.976 8.19995H44.068V9.03995H44.976C45.204 9.03995 45.344 8.91995 45.344 8.70395V8.54795C45.34 8.32395 45.224 8.19995 44.976 8.19995ZM45.204 9.99995H42.856V5.71595H46.308V6.73995H44.064V7.29995H45.2C46.152 7.29995 46.612 7.77195 46.612 8.60395C46.616 9.47995 46.156 9.99995 45.204 9.99995ZM49.408 8.24795H48.452L48.932 6.66395L49.408 8.24795ZM51.248 9.99995L49.924 5.71595H48.124L46.8 9.99995H47.932L48.176 9.17995H49.692L49.94 9.99995H51.248ZM54.308 9.99995V8.33995H52.924V9.99995H51.684V5.71595H52.924V7.28795H54.308V5.71595H55.552V9.99995H54.308ZM57.756 7.28395H57.54V5.71595H56.3V9.99995H57.54V8.33995H57.72L58.868 9.99995H60.304L58.752 7.75595L60.18 5.71195H58.868L57.756 7.28395Z" fill="#E30600"/>
</svg>
