<svg width="80" height="21" viewBox="0 0 80 21" fill="none" xmlns="http://www.w3.org/2000/svg">
<path d="M0 0.800049H20V20.8H0V0.800049Z" fill="#15008F"/>
<path d="M21.2812 0.800049H41.2812V20.8H21.2812V0.800049Z" fill="#DD002E"/>
<path d="M6.08935 7.26123C6.33127 7.72241 6.69564 8.10796 7.14242 8.37551C7.23797 8.43555 7.30846 8.52825 7.34074 8.63637C7.37303 8.74449 7.3649 8.86066 7.31792 8.96327C7.20364 9.25306 6.97915 9.67347 7.08935 9.84898C7.23764 9.95559 7.41225 10.0196 7.59429 10.0339C7.77633 10.0483 7.95882 10.0126 8.12201 9.93061C8.19005 10.079 8.26637 10.2234 8.35058 10.3633C8.31266 10.406 8.2618 10.4351 8.2058 10.4461C8.14976 10.4572 8.09168 10.4496 8.04037 10.4245C8.09245 10.47 8.1247 10.5341 8.13025 10.6031C8.13576 10.672 8.11413 10.7405 8.06992 10.7937C8.02572 10.8469 7.9625 10.8808 7.89368 10.8881C7.82486 10.8953 7.75597 10.8755 7.7016 10.8327C7.66344 10.8032 7.63515 10.7628 7.62058 10.7169C7.60597 10.6709 7.60576 10.6216 7.61997 10.5755C7.54564 10.6912 7.43727 10.7811 7.30976 10.8327C7.24164 10.7815 7.19123 10.7103 7.16564 10.6291C7.14001 10.5478 7.14045 10.4606 7.1669 10.3796C7.11037 10.4793 7.0316 10.5647 6.93678 10.6291C6.84193 10.6935 6.73352 10.7352 6.61997 10.751C6.55037 10.6476 6.5185 10.5235 6.52964 10.3993C6.54078 10.2752 6.59429 10.1587 6.68119 10.0694C6.59633 10.1328 6.4967 10.1735 6.39176 10.1878C6.28678 10.2021 6.17993 10.1894 6.08119 10.151C6.08119 10.151 6.01997 9.9551 6.37099 9.66531C6.25556 9.66119 6.14299 9.628 6.0438 9.56878C5.94462 9.50955 5.86201 9.42621 5.80364 9.32653C5.88625 9.25768 5.98217 9.20657 6.08539 9.17637C6.18862 9.14617 6.29695 9.13755 6.40364 9.15102C6.28066 9.11249 6.1705 9.04123 6.08495 8.9449C5.9994 8.84853 5.94164 8.73074 5.91792 8.60408C6.0345 8.55151 6.16393 8.53433 6.29017 8.55462C6.41642 8.57494 6.53392 8.63188 6.62813 8.71837C6.5536 8.61241 6.46731 8.51519 6.37099 8.42857C6.23135 8.27074 6.13295 8.08078 6.08454 7.87568C6.03609 7.67057 6.03915 7.4567 6.09344 7.25306L6.08935 7.26123ZM7.69343 11.9388C7.63054 11.8733 7.58188 11.7954 7.55058 11.7102C7.6118 12.2776 7.63221 12.649 7.95874 13.0204C8.07923 12.7652 8.10107 12.4744 8.01997 12.2041C7.96352 12.1727 7.90486 12.1454 7.84446 12.1225C7.88617 12.2808 7.89727 12.4457 7.87711 12.6082C7.78491 12.3981 7.72572 12.1751 7.7016 11.9469L7.69343 11.9388ZM7.18731 11.8857C7.12441 11.8202 7.07576 11.7424 7.04446 11.6571C7.0118 11.9959 6.93017 12.8531 7.21997 13.1143C7.21997 13.1143 7.41588 12.9714 7.47711 11.7102C7.41588 11.7714 7.39548 11.8531 7.33425 11.9061C7.36352 12.1366 7.33547 12.3707 7.25262 12.5878C7.25262 12.5878 7.10976 12.5143 7.1914 11.8857H7.18731ZM6.5016 12.5469C6.75874 12.2571 6.8118 11.3796 6.8118 11.3796L6.92609 11.298L6.95874 11.2653V11.3469C6.95829 11.8042 6.88103 12.2581 6.73017 12.6898C6.61384 12.86 6.4585 13 6.27711 13.098C5.98731 12.6122 6.33833 11.951 6.61588 11.4653L6.73017 11.4041C6.61588 11.8122 6.41997 12.2204 6.5016 12.551V12.5469ZM5.81997 11.0327C5.81568 11.0736 5.82739 11.1145 5.85262 11.1469V11.1796C5.57919 11.4639 5.33066 11.7711 5.10976 12.098C5.00519 12.2373 4.87205 12.3527 4.71931 12.4364C4.56658 12.5202 4.39772 12.5704 4.22405 12.5837C4.26086 12.1999 4.41964 11.838 4.67711 11.551C4.9578 11.2439 5.27278 10.97 5.61588 10.7347C5.70641 10.7767 5.80809 10.7881 5.90568 10.7673H5.93833C5.90025 10.8053 5.87829 10.8565 5.87711 10.9102C5.4418 11.11 5.06927 11.4247 4.79956 11.8204C4.7465 11.8612 5.13833 11.7469 5.79956 11.0367L5.81997 11.0327ZM5.36691 10.5837L5.39956 10.551L5.43221 10.5184C5.20364 10.6 4.39956 10.9265 4.14242 11.0327C3.94221 11.1439 3.76666 11.2945 3.62637 11.4756C3.48605 11.6565 3.38388 11.8641 3.32609 12.0857C3.50046 12.1007 3.67609 12.0809 3.84278 12.0277C4.00952 11.9745 4.16405 11.8887 4.29752 11.7755C4.75058 11.4041 5.26895 10.8898 5.46486 10.7225L5.40364 10.6612C5.02764 10.9673 4.61658 11.2276 4.17915 11.4367C4.27478 11.2591 4.4156 11.1099 4.58731 11.0041C4.8336 10.8216 5.10984 10.6834 5.40364 10.5959L5.36691 10.5837ZM4.89752 10.1878L4.93017 10.1265C4.67303 10.1878 4.0118 10.2694 3.70568 10.3551C3.46127 10.4203 3.23311 10.5356 3.03568 10.6937C2.83821 10.8518 2.6758 11.0493 2.55874 11.2735C2.55874 11.2735 3.0118 11.4163 3.9016 11.0163C4.32127 10.7956 4.75972 10.6125 5.2118 10.4694C5.10952 10.4694 5.00923 10.4411 4.92201 10.3878C4.5185 10.5843 4.08021 10.6994 3.63221 10.7265C3.77103 10.6264 3.92184 10.5441 4.08119 10.4816C4.33792 10.3453 4.61282 10.2464 4.89752 10.1878ZM4.89752 9.77959C4.97915 9.81441 5.06609 9.8351 5.15466 9.84082C5.08903 9.87894 5.0298 9.92715 4.97915 9.98368C4.41739 10.1247 3.84327 10.2109 3.26486 10.2408C2.82711 10.3026 2.38135 10.2748 1.95466 10.1592C2.30258 9.96053 2.67813 9.8147 3.06895 9.72653C3.37915 9.66531 4.23629 9.66531 4.63629 9.61225C4.67188 9.64282 4.71013 9.67013 4.75058 9.69388C4.29352 9.69666 3.83997 9.77384 3.40772 9.92245C3.90886 9.97959 4.41637 9.93094 4.89752 9.77959ZM4.84446 9.26531C4.9009 9.23392 4.95956 9.20662 5.01997 9.18368C4.39331 8.96702 3.74197 8.82992 3.08119 8.77551C2.61299 8.71866 2.13858 8.73935 1.67711 8.83674C2.07241 9.09645 2.50833 9.28821 2.9669 9.40408C3.51617 9.49139 4.07393 9.51196 4.62813 9.46531C4.65976 9.41286 4.69817 9.36482 4.74241 9.32245C4.21188 9.31939 3.68437 9.24245 3.17507 9.09388C3.73813 9.05008 4.30454 9.10535 4.84854 9.25715L4.84446 9.26531ZM4.84854 8.75102C4.90597 8.9249 5.02699 9.0707 5.18731 9.15919C4.55874 8.90204 3.35874 8.72653 2.7016 8.47755C1.81588 8.10612 1.66895 7.66123 1.66895 7.66123C2.30046 7.66612 2.92727 7.77082 3.52609 7.97143C4.09343 8.14694 4.93017 8.45715 5.24037 8.6C5.11805 8.60029 4.99911 8.64041 4.9016 8.71429C4.59139 8.57143 4.24037 8.48572 3.93017 8.37551C3.70139 8.29747 3.46168 8.25613 3.21997 8.25306C3.43474 8.38184 3.66339 8.48592 3.9016 8.56327C4.21997 8.6449 4.53017 8.70613 4.85262 8.77143L4.84854 8.75102ZM4.81997 8.11021C4.85262 8.17143 4.9016 8.25306 4.93425 8.30612C4.01801 8.11155 3.18907 7.62625 2.57099 6.92245C2.36654 6.57727 2.28593 6.1727 2.34242 5.77551C2.79339 5.98004 3.19976 6.27127 3.53833 6.63266C3.88119 6.99653 4.25393 7.33102 4.65262 7.63266L4.7669 7.97143C4.4567 7.71429 4.0567 7.42449 3.82813 7.22857C3.60066 7.05225 3.35086 6.90678 3.08527 6.79592C3.22286 6.96988 3.37437 7.13233 3.53833 7.28164C3.74972 7.45637 3.97809 7.60951 4.21997 7.73878C4.40135 7.89143 4.60686 8.01282 4.82813 8.09796" fill="white"/>
<path d="M7.57511 10.7999L7.65674 10.7183C7.77103 10.8611 7.85266 11.0081 7.94654 11.1509C8.00442 11.3193 8.05213 11.4911 8.0894 11.6652C8.11997 11.8359 8.17931 12.0002 8.26491 12.1509C8.18829 12.1524 8.11229 12.1375 8.04188 12.1072C7.97152 12.0769 7.90838 12.032 7.85674 11.9754C7.72066 11.801 7.63209 11.5943 7.5996 11.3754C7.54381 11.1874 7.53262 10.9889 7.56695 10.7958L7.57511 10.7999ZM7.15878 10.8285L7.24042 10.9101L7.27307 10.9428H7.30572L7.38735 10.9101C7.4247 10.9807 7.44564 11.0589 7.44858 11.1387C7.4794 11.2813 7.4794 11.4288 7.44858 11.5713C7.41001 11.6978 7.34299 11.8136 7.25266 11.9101C7.16976 11.8189 7.10348 11.714 7.05674 11.5999C6.9947 11.444 6.9947 11.2702 7.05674 11.1142C7.09756 10.9918 7.13021 10.906 7.15878 10.8244V10.8285ZM6.6445 10.8448C6.7774 10.8254 6.90429 10.7767 7.01593 10.702C7.03629 10.736 7.04968 10.7737 7.05527 10.8129C7.06091 10.8522 7.05862 10.8922 7.04858 10.9305C7.00976 11.0485 6.9425 11.155 6.85266 11.2407C6.77066 11.3116 6.6754 11.3654 6.57238 11.399C6.46936 11.4327 6.36066 11.4455 6.25266 11.4367C6.21184 11.4571 6.15878 11.2816 6.66082 10.8489L6.6445 10.8448ZM6.4649 10.5387C6.47678 10.6338 6.51658 10.7233 6.57919 10.7958C6.5087 10.9105 6.40744 11.003 6.28695 11.0629C6.16642 11.1228 6.03152 11.1477 5.89756 11.1346C5.86572 11.0538 5.86621 10.9638 5.89887 10.8832C5.93156 10.8027 5.99393 10.7378 6.07307 10.702C6.20776 10.6489 6.32205 10.5877 6.48123 10.5387" fill="white"/>
<path d="M6.53058 10.253C6.38801 10.2839 6.2405 10.2839 6.09793 10.253H6.03671V10.1877C5.80813 10.3632 5.58364 10.3837 5.48977 10.5592C5.53528 10.6229 5.59736 10.673 5.66932 10.7039C5.74128 10.7349 5.82034 10.7455 5.89793 10.7347C6.02034 10.7244 6.13936 10.6891 6.24752 10.6308C6.35564 10.5725 6.45062 10.4926 6.5265 10.3959C6.51434 10.3741 6.50797 10.3494 6.50797 10.3245C6.50797 10.2995 6.51434 10.2749 6.5265 10.253H6.53058ZM6.04079 9.9959C6.06948 9.90941 6.11846 9.83104 6.18364 9.76733C5.99581 9.73643 5.80413 9.73643 5.6163 9.76733C5.46846 9.76618 5.32417 9.81284 5.20503 9.90039C5.08589 9.9879 4.99817 10.1116 4.95507 10.253C5.09132 10.334 5.25221 10.363 5.40813 10.3347C5.53075 10.3252 5.65001 10.2901 5.75826 10.2318C5.8665 10.1734 5.96136 10.0931 6.03671 9.9959H6.04079ZM5.92242 9.58773C5.85891 9.51553 5.8003 9.43916 5.74691 9.35916L5.71426 9.31426C5.50221 9.21112 5.25969 9.18933 5.03262 9.25304C4.89242 9.2952 4.77213 9.38647 4.69385 9.51018C4.85393 9.63137 5.04209 9.71002 5.24079 9.73875C5.47662 9.76973 5.71609 9.72243 5.92242 9.60406V9.58773ZM5.98364 9.13875C6.0163 9.1061 6.06528 9.1061 6.1265 9.1061C6.00785 8.98863 5.92809 8.83765 5.89793 8.67345C5.74711 8.7088 5.58907 8.69741 5.44487 8.64079C5.36487 8.61157 5.27907 8.6019 5.19458 8.61255C5.11009 8.6232 5.0294 8.65386 4.95915 8.70202C4.98887 8.79843 5.04528 8.88451 5.12185 8.95022C5.19838 9.01594 5.29201 9.05867 5.39181 9.07345C5.47817 9.12884 5.57634 9.1632 5.67842 9.17386C5.78046 9.18447 5.8836 9.17108 5.97956 9.13467L5.98364 9.13875ZM5.85303 8.55508L5.91425 8.52243C5.98487 8.48508 6.06299 8.46414 6.14283 8.4612C5.95544 8.30026 5.75471 8.15549 5.54283 8.02855C5.30071 7.88814 5.03948 7.78365 4.76732 7.71835C4.84409 7.95231 4.97083 8.16679 5.13875 8.34692C5.22356 8.44761 5.33613 8.52104 5.46246 8.55806C5.58879 8.59508 5.72324 8.59406 5.84895 8.55508H5.85303ZM6.22038 8.35916C6.12597 8.22247 6.0594 8.06851 6.02446 7.9061C5.96324 7.71018 5.91017 7.47345 5.82854 7.27753C5.68621 7.01733 5.44956 6.82161 5.16732 6.73059C5.10434 7.00431 5.13303 7.29112 5.24895 7.54692C5.50111 7.89439 5.83466 8.17467 6.22038 8.36324V8.35916ZM8.44895 10.4041C8.49981 10.4528 8.55932 10.4916 8.62446 10.5183C8.6625 10.6057 8.6794 10.7007 8.67373 10.7957C8.66805 10.8908 8.63997 10.9832 8.59181 11.0653C8.45315 11.3118 8.33964 11.5716 8.25303 11.8408C8.25303 11.8408 8.1714 11.8408 8.07752 11.3551C8.04891 11.1748 7.96964 11.0063 7.84895 10.8694C7.90197 10.903 7.96201 10.9239 8.02446 10.9306H8.08568L8.11834 10.8694C8.16895 10.7817 8.19038 10.6802 8.17956 10.5796V10.4979C8.22875 10.5081 8.27981 10.5048 8.32724 10.4883C8.37466 10.4717 8.41674 10.4426 8.44895 10.4041Z" fill="white"/>
<path d="M5.05666 6.92237V7.17951C4.82809 6.88972 4.54237 6.51829 4.24033 6.17951C4.0996 5.99192 3.92853 5.82914 3.73421 5.69788C3.84968 6.05743 4.05641 6.38086 4.33421 6.63665C4.55625 6.86221 4.79356 7.07225 5.04441 7.26523L5.07706 7.34686C5.10972 7.42849 5.13829 7.52237 5.1587 7.57543C5.22037 7.68878 5.29727 7.79314 5.38727 7.88563C5.30564 7.85298 5.21176 7.804 5.13013 7.77135H5.05666C4.34074 7.36543 3.74829 6.77298 3.34237 6.05706C3.14098 5.55963 3.11364 5.00874 3.26482 4.4938C3.63547 4.82996 3.97058 5.20335 4.26482 5.60808C4.56588 6.02274 4.83078 6.46241 5.05666 6.92237ZM15.1383 9.26523C15.0818 9.23384 15.0232 9.20653 14.9628 9.18359C15.5894 8.96694 16.2408 8.82984 16.9016 8.77543C17.3698 8.71857 17.8442 8.73927 18.3056 8.83665C17.9103 9.09637 17.4744 9.28812 17.0158 9.404C16.4666 9.49131 15.9088 9.51188 15.3546 9.46523C15.323 9.41278 15.2846 9.36474 15.2403 9.32237C15.7709 9.31931 16.2984 9.24237 16.8077 9.0938C16.2446 9.05 15.6782 9.10527 15.1342 9.25706L15.1383 9.26523ZM15.1342 8.75094C15.0768 8.92482 14.9558 9.07061 14.7954 9.1591C15.424 8.90196 16.624 8.72645 17.2811 8.47747C18.1669 8.10604 18.3138 7.66114 18.3138 7.66114C17.6823 7.66604 17.0555 7.77074 16.4567 7.97135C15.8893 8.14686 15.0526 8.45706 14.7424 8.59992C14.8647 8.60021 14.9836 8.64033 15.0811 8.7142C15.3913 8.57135 15.7424 8.48563 16.0526 8.37543C16.283 8.30506 16.5219 8.26661 16.7628 8.26114C16.548 8.38992 16.3194 8.494 16.0811 8.57135C15.7628 8.64482 15.4526 8.70604 15.1301 8.76727L15.1342 8.75094ZM15.1914 8.10604C15.1587 8.16727 15.1097 8.2489 15.0771 8.30196C16.0002 8.11261 16.8367 7.62845 17.4607 6.92237C17.6652 6.57718 17.7458 6.17261 17.6893 5.77543C17.2383 5.97996 16.832 6.27118 16.4934 6.63257C16.153 6.99898 15.78 7.33367 15.3791 7.63257L15.2648 7.97135C15.575 7.71421 15.975 7.42441 16.2036 7.22849C16.4311 7.05216 16.6809 6.90669 16.9465 6.79584C16.8089 6.9698 16.6574 7.13221 16.4934 7.28155C16.2807 7.45649 16.051 7.60963 15.8077 7.73869C15.6167 7.87731 15.4131 7.99755 15.1995 8.09788L15.1914 8.10604ZM14.9424 6.92237V7.17951C15.1709 6.88972 15.4567 6.51829 15.7587 6.17951C15.8994 5.99192 16.0705 5.82914 16.2648 5.69788C16.1494 6.05743 15.9426 6.38086 15.6648 6.63665C15.4428 6.86221 15.2055 7.07225 14.9546 7.26523L14.922 7.34686C14.8893 7.42849 14.8607 7.52237 14.8403 7.57543C14.7787 7.68878 14.7018 7.79314 14.6118 7.88563C14.6934 7.85298 14.7873 7.804 14.8689 7.77135L14.9505 7.73869C15.6665 7.33278 16.2589 6.74033 16.6648 6.02441C16.8607 5.52972 16.8851 4.98359 16.7342 4.47339C16.3636 4.80955 16.0285 5.18294 15.7342 5.58767C15.4262 6.00527 15.1531 6.44759 14.9179 6.91012L14.9424 6.92237ZM5.93829 11.253C5.64849 11.5428 5.01992 12.2244 5.08115 12.9346C5.41204 12.8302 5.69906 12.6193 5.89747 12.3346C6.04053 12.0517 6.20282 11.779 6.38319 11.5183H6.12605C5.96013 11.856 5.71678 12.1497 5.41584 12.3754C5.41584 12.3754 5.35462 12.0367 6.12605 11.2938C6.12605 11.2611 6.1587 11.2326 6.18727 11.2122C6.10405 11.2376 6.01706 11.2486 5.93013 11.2448L5.93829 11.253ZM13.8975 7.25298C13.6556 7.71416 13.2912 8.09972 12.8444 8.36727C12.7545 8.43421 12.6918 8.53135 12.6678 8.64082C12.6438 8.75033 12.6602 8.86478 12.7138 8.96318C12.8281 9.25298 13.0526 9.67339 12.9424 9.8489C12.8322 10.0244 12.2811 10.106 11.8607 9.93053C11.7927 10.0789 11.7164 10.2233 11.6322 10.3632C11.6701 10.4059 11.7209 10.435 11.7769 10.446C11.833 10.4571 11.8911 10.4495 11.9424 10.4244C11.917 10.4947 11.9068 10.5697 11.9125 10.6442C11.9181 10.7188 11.9394 10.7913 11.975 10.8571C12.0597 10.8405 12.1399 10.8061 12.2103 10.7561C12.2807 10.7061 12.3396 10.6418 12.3832 10.5673C12.4575 10.683 12.5659 10.7728 12.6934 10.8244C12.7615 10.7732 12.8119 10.702 12.8375 10.6208C12.8631 10.5396 12.8627 10.4523 12.8362 10.3713C12.8928 10.4711 12.9716 10.5565 13.0664 10.6209C13.1612 10.6853 13.2696 10.727 13.3832 10.7428C13.4528 10.6394 13.4847 10.5152 13.4735 10.3911C13.4624 10.267 13.4089 10.1505 13.322 10.0611C13.4068 10.1245 13.5065 10.1653 13.6114 10.1796C13.7164 10.1938 13.8232 10.1812 13.922 10.1428C13.922 10.1428 13.9832 9.94686 13.6322 9.65706C13.7476 9.65294 13.8602 9.61976 13.9594 9.56053C14.0585 9.50131 14.1411 9.41796 14.1995 9.31829C14.1169 9.24943 14.021 9.19833 13.9178 9.16812C13.8145 9.13792 13.7062 9.12931 13.5995 9.14278C13.7214 9.10792 13.8298 9.03702 13.9107 8.93943C13.9916 8.84184 14.041 8.72204 14.0526 8.59584C13.936 8.54327 13.8066 8.52608 13.6803 8.54637C13.5541 8.56669 13.4366 8.62363 13.3424 8.71012C13.4169 8.60416 13.5032 8.50694 13.5995 8.42033C13.7523 8.2698 13.8645 8.08314 13.9259 7.87763C13.9873 7.67212 13.9958 7.45445 13.9505 7.24482L13.8975 7.25298ZM12.3179 11.9305C12.3764 11.8617 12.4245 11.7847 12.4607 11.702C12.3995 12.2693 12.3791 12.6407 12.0526 13.0122C11.9321 12.7569 11.9102 12.4662 11.9914 12.1958C12.0478 12.1645 12.1065 12.1371 12.1669 12.1142C12.1251 12.2726 12.114 12.4374 12.1342 12.5999C12.2264 12.3898 12.2856 12.1668 12.3097 11.9387L12.3179 11.9305ZM12.824 11.8775C12.8869 11.812 12.9356 11.7341 12.9669 11.6489C12.9995 11.9877 13.0811 12.8448 12.7913 13.106C12.7913 13.106 12.5954 12.9632 12.5342 11.702C12.5954 11.7632 12.6158 11.8448 12.6771 11.8979C12.6478 12.1283 12.6758 12.3625 12.7587 12.5795C12.7587 12.5795 12.9016 12.506 12.8199 11.8775H12.824ZM13.5016 12.5387C13.2444 12.2489 13.1914 11.3713 13.1914 11.3713C13.1597 11.3361 13.1207 11.3082 13.0771 11.2897L13.0607 11.2652V11.3469C13.0612 11.8041 13.1385 12.258 13.2893 12.6897C13.3977 12.8667 13.5551 13.0085 13.7424 13.0979C14.0322 12.6122 13.6811 11.9509 13.4036 11.4652C13.36 11.4575 13.3199 11.436 13.2893 11.404C13.4036 11.8122 13.6077 12.2203 13.5179 12.5509L13.5016 12.5387ZM14.2077 11.0326C14.212 11.0735 14.2003 11.1144 14.175 11.1469V11.1795C14.4485 11.4638 14.697 11.7711 14.9179 12.0979C15.0225 12.2372 15.1556 12.3526 15.3083 12.4363C15.4611 12.5201 15.6299 12.5703 15.8036 12.5836C15.7668 12.1998 15.608 11.8379 15.3505 11.5509C15.0698 11.2438 14.7549 10.9699 14.4118 10.7346C14.3212 10.7766 14.2196 10.788 14.122 10.7673H14.0893C14.1274 10.8052 14.1494 10.8564 14.1505 10.9101C14.5754 11.1142 14.9376 11.4285 15.1995 11.8203C15.2526 11.8611 14.8485 11.7469 14.1995 11.0367L14.2077 11.0326ZM14.6077 10.5836V10.5224L14.575 10.4897C14.8036 10.5713 15.6077 10.8979 15.8648 11.004C16.065 11.1152 16.2406 11.2659 16.3809 11.4469C16.5212 11.6279 16.6234 11.8355 16.6811 12.0571C16.5068 12.072 16.3311 12.0523 16.1644 11.999C15.9977 11.9458 15.8432 11.8601 15.7097 11.7469C15.2771 11.3754 14.7383 10.8611 14.5424 10.6938L14.6036 10.6326C14.9796 10.9387 15.3907 11.199 15.8281 11.4081C15.7325 11.2305 15.5916 11.0812 15.4199 10.9754C15.1682 10.8018 14.8935 10.6645 14.6036 10.5673L14.6077 10.5836ZM15.1016 10.1877C15.1016 10.155 15.0689 10.155 15.0689 10.1265C15.326 10.1877 15.9873 10.2693 16.2934 10.355C16.5378 10.4202 16.766 10.5356 16.9634 10.6936C17.1609 10.8518 17.3233 11.0492 17.4403 11.2734C17.4403 11.2734 16.9873 11.4162 16.0975 11.0162C15.6778 10.7955 15.2394 10.6125 14.7873 10.4693C14.8896 10.4693 14.9898 10.4411 15.0771 10.3877C15.4806 10.5842 15.9189 10.6993 16.3669 10.7264C16.228 10.6263 16.0772 10.544 15.9179 10.4816C15.6578 10.3529 15.3839 10.2543 15.1016 10.1877ZM15.1016 9.77951C15.0199 9.81433 14.933 9.83502 14.8444 9.84074C14.91 9.87886 14.9693 9.92706 15.0199 9.98359C15.5817 10.1247 16.1558 10.2108 16.7342 10.2407C17.172 10.3025 17.6177 10.2747 18.0444 10.1591C17.6965 9.96045 17.3209 9.81461 16.9301 9.72645C16.6199 9.66523 15.7628 9.66523 15.3628 9.61216C15.3272 9.64274 15.2889 9.67004 15.2485 9.6938C15.7056 9.69657 16.1591 9.77376 16.5914 9.92237C16.0902 9.97857 15.5829 9.92992 15.1016 9.77951Z" fill="white"/>
<path d="M12.4244 10.8L12.3427 10.7184C12.2384 10.8507 12.1519 10.9962 12.0856 11.1511C12.0277 11.3195 11.98 11.4912 11.9427 11.6653C11.8981 11.8319 11.8394 11.9944 11.7672 12.1511C11.8474 12.1518 11.9268 12.1366 12.0011 12.1065C12.0753 12.0764 12.1429 12.0319 12.1999 11.9756C12.336 11.8011 12.4245 11.5944 12.457 11.3756C12.4953 11.1827 12.484 10.9833 12.4244 10.796V10.8ZM12.8325 10.8286L12.7509 10.9102L12.7183 10.9429H12.6856L12.5713 10.9102C12.534 10.9809 12.513 11.059 12.5101 11.1388C12.4793 11.2814 12.4793 11.4289 12.5101 11.5715C12.5487 11.6979 12.6157 11.8138 12.706 11.9102C12.7889 11.8191 12.8552 11.7141 12.9019 11.6C12.964 11.4441 12.964 11.2703 12.9019 11.1143C12.9025 11.0131 12.8772 10.9133 12.8285 10.8245L12.8325 10.8286ZM13.3427 10.8449C13.2098 10.8256 13.0829 10.7768 12.9713 10.7021C12.9509 10.7361 12.9376 10.7738 12.9319 10.8131C12.9263 10.8523 12.9286 10.8923 12.9387 10.9307C12.9775 11.0486 13.0448 11.1551 13.1346 11.2409C13.2166 11.3117 13.3118 11.3655 13.4149 11.3991C13.5179 11.4328 13.6266 11.4456 13.7346 11.4368C13.7672 11.4572 13.8285 11.2817 13.3264 10.849L13.3427 10.8449ZM13.5223 10.5388C13.5105 10.6339 13.4707 10.7234 13.408 10.796C13.4785 10.9106 13.5798 11.0031 13.7003 11.0631C13.8208 11.1229 13.9557 11.1478 14.0897 11.1347C14.1215 11.0539 14.121 10.9639 14.0884 10.8833C14.0557 10.8028 13.9933 10.7379 13.9142 10.7021C13.7795 10.649 13.6652 10.5878 13.506 10.5388H13.5223ZM13.4693 10.2531C13.6118 10.2839 13.7594 10.2839 13.9019 10.2531H13.9631V10.1878C14.1917 10.3633 14.4162 10.3837 14.5305 10.5592C14.4896 10.6187 14.4337 10.6663 14.3685 10.6971C14.3032 10.728 14.231 10.7409 14.1591 10.7347C14.0366 10.7245 13.9176 10.6891 13.8095 10.6309C13.7014 10.5725 13.6064 10.4926 13.5305 10.396C13.492 10.3583 13.47 10.3069 13.4693 10.2531ZM13.955 9.99596C13.9263 9.90947 13.8773 9.8311 13.8121 9.76739C14 9.73649 14.1916 9.73649 14.3795 9.76739C14.5273 9.76624 14.6716 9.8129 14.7907 9.90045C14.9099 9.98796 14.9976 10.1117 15.0407 10.2531C14.9045 10.334 14.7436 10.3631 14.5876 10.3347C14.464 10.3296 14.3432 10.2964 14.2343 10.2377C14.1254 10.179 14.0313 10.0964 13.9591 9.99596H13.955ZM14.0734 9.5878C14.1431 9.52094 14.2023 9.44384 14.2489 9.35922L14.2815 9.298C14.4936 9.19486 14.7361 9.17306 14.9632 9.23678C15.1034 9.27894 15.2236 9.3702 15.3019 9.49392C15.1418 9.6151 14.9537 9.69376 14.755 9.72249C14.521 9.7238 14.2892 9.678 14.0734 9.5878ZM13.9795 9.12249C13.9468 9.08984 13.8978 9.08984 13.8366 9.08984C13.9539 8.96686 14.0418 8.81894 14.0938 8.65718C14.2446 8.69253 14.4026 8.68114 14.5468 8.62453C14.6268 8.59531 14.7126 8.58563 14.7971 8.59629C14.8816 8.60694 14.9623 8.63759 15.0325 8.68575C15.0028 8.78216 14.9464 8.86824 14.8698 8.93396C14.7933 8.99967 14.6997 9.04241 14.5999 9.05718C14.5078 9.11363 14.4042 9.14845 14.2967 9.15906C14.1893 9.16967 14.0808 9.15575 13.9795 9.11841V9.12249ZM14.1387 8.55514H14.0774C14.0068 8.5178 13.9287 8.49686 13.8489 8.49392C14.0363 8.33298 14.237 8.1882 14.4489 8.06127C14.6845 7.90792 14.948 7.80249 15.2244 7.75106C15.1356 7.97939 15.0101 8.19171 14.8529 8.37963C14.7688 8.48118 14.6563 8.55531 14.5297 8.59237C14.4031 8.62947 14.2684 8.62788 14.1427 8.5878L14.1387 8.55514ZM13.7713 8.39188C13.8657 8.25518 13.9323 8.10122 13.9672 7.93882C14.0285 7.7429 14.0815 7.50616 14.1631 7.31024C14.3055 7.05004 14.5421 6.85433 14.8244 6.76331C14.8874 7.03702 14.8587 7.32384 14.7427 7.57963C14.4931 7.92947 14.1589 8.21033 13.7713 8.39596V8.39188ZM11.5427 10.4368C11.4919 10.4855 11.4324 10.5243 11.3672 10.5511C11.3292 10.6384 11.3123 10.7334 11.318 10.8284C11.3236 10.9235 11.3517 11.0159 11.3999 11.098C11.5385 11.3445 11.652 11.6043 11.7387 11.8735C11.7387 11.8735 11.8203 11.8735 11.9142 11.3878C11.9428 11.2075 12.022 11.0391 12.1427 10.9021C12.0897 10.9357 12.0297 10.9567 11.9672 10.9633H11.906L11.8734 10.9021C11.8227 10.8144 11.8013 10.7129 11.8121 10.6123V10.5307C11.7629 10.5392 11.7124 10.535 11.6653 10.5186C11.6181 10.5022 11.576 10.474 11.5427 10.4368Z" fill="white"/>
<path d="M14.0242 11.253C14.314 11.5428 14.9425 12.2244 14.8813 12.9346C14.5504 12.8302 14.2634 12.6193 14.065 12.3346C13.9219 12.0517 13.7596 11.779 13.5793 11.5183H13.8364C14.0023 11.856 14.2457 12.1497 14.5466 12.3754C14.5466 12.3754 14.6079 12.0367 13.8364 11.2938C13.8364 11.2611 13.8038 11.2326 13.7752 11.2122C13.8584 11.2376 13.9454 11.2486 14.0323 11.2448L14.0242 11.253ZM7.99561 6.03257C8.17965 5.97065 8.37891 5.97065 8.56296 6.03257C8.37736 6.08429 8.1812 6.08429 7.99561 6.03257ZM10.0813 5.69788C10.0813 5.7591 10.0487 5.77951 9.99969 5.77951C9.98883 5.78008 9.97793 5.77841 9.96777 5.77449C9.95761 5.77061 9.94834 5.76461 9.94067 5.7569C9.93295 5.74923 9.92695 5.73996 9.92308 5.7298C9.91916 5.71963 9.91749 5.70874 9.91806 5.69788C9.91806 5.63665 9.95071 5.61625 9.99969 5.61625C10.0105 5.61567 10.0214 5.61735 10.0316 5.62127C10.0418 5.62514 10.051 5.63114 10.0587 5.63886C10.0664 5.64653 10.0724 5.6558 10.0763 5.66596C10.0802 5.67612 10.0819 5.68702 10.0813 5.69788ZM9.51397 5.38767C9.40108 5.16167 9.31479 4.92335 9.25683 4.67747C9.28948 4.61625 9.31806 4.56318 9.39969 4.56318C9.48132 4.56318 9.51397 4.53053 9.54254 4.56318C9.6432 4.79892 9.70254 5.0502 9.71805 5.30604C9.64634 5.32686 9.57663 5.35416 9.50989 5.38767H9.51397ZM9.78744 5.32645H9.90173C9.87222 5.11323 9.82442 4.9029 9.75887 4.69788C9.75145 4.64907 9.73185 4.60292 9.70189 4.56369C9.67193 4.52445 9.63259 4.4934 9.58744 4.47339C9.6201 4.58767 9.66907 4.70196 9.70173 4.81216C9.74246 4.98584 9.77381 5.16163 9.79561 5.33869L9.78744 5.32645ZM9.56704 5.93869C9.41798 6.01878 9.25046 6.05821 9.08132 6.05298C9.14663 5.94004 9.2341 5.84147 9.33846 5.76318C9.48181 5.66894 9.65385 5.62845 9.82418 5.6489C9.76059 5.76306 9.67283 5.86196 9.56704 5.93869ZM9.30989 5.97135C9.43822 5.92094 9.55389 5.84294 9.64867 5.74278C9.50993 5.7711 9.3881 5.85331 9.30989 5.97135Z" fill="white"/>
<path d="M7.94665 6.08567C8.12988 6.14445 8.32163 6.17204 8.514 6.16731C8.85073 6.17004 9.18657 6.13167 9.514 6.05302C9.50098 6.0942 9.4782 6.13163 9.44767 6.1622C9.4171 6.19273 9.37967 6.21551 9.33849 6.22853C9.39224 6.22971 9.44343 6.25167 9.48135 6.28975C9.46355 6.32441 9.43877 6.35498 9.40857 6.37959C9.37836 6.40416 9.34339 6.42225 9.30584 6.43261C9.42686 6.55257 9.58861 6.62253 9.7589 6.62853C9.71343 6.66882 9.65873 6.69731 9.59967 6.71155C9.54061 6.72576 9.47898 6.72531 9.42012 6.71016C9.27314 6.68041 9.14151 6.59939 9.04869 6.48159C9.07453 6.53629 9.08575 6.59678 9.08135 6.6571C9.04273 6.652 9.00555 6.63922 8.97192 6.61963C8.93829 6.6 8.90889 6.57388 8.88543 6.54282C8.9222 6.60184 8.94326 6.66927 8.94665 6.73873C8.8831 6.73755 8.82163 6.71612 8.77114 6.67751C8.79636 6.72069 8.80775 6.77053 8.80379 6.82037C8.64959 6.76482 8.50396 6.68788 8.37114 6.5918V6.73465C8.40379 6.76731 7.96298 6.702 7.96298 6.07343L7.94665 6.08567ZM8.70584 6.33057H8.20379C8.2089 6.36918 8.22167 6.40637 8.24126 6.44C8.2609 6.47363 8.28702 6.50302 8.31808 6.52649C8.31808 6.33057 8.68951 6.33057 8.68951 6.33057H8.70584ZM7.87318 6.13465C7.87555 6.26265 7.9033 6.3889 7.95481 6.50608C7.86783 6.45151 7.79951 6.3718 7.7589 6.27751C7.72624 6.13465 7.72624 6.06935 7.87318 6.13465ZM7.96706 6.54282L8.19563 6.71833C8.11147 6.75016 8.02563 6.77743 7.93849 6.79996C7.8542 6.72992 7.74808 6.69159 7.63849 6.69159C7.52889 6.69159 7.42277 6.72992 7.33849 6.79996C7.29665 6.77792 7.26 6.74718 7.23106 6.70976C7.20212 6.67237 7.18151 6.62918 7.17069 6.58314C7.15984 6.5371 7.15902 6.48927 7.16824 6.4429C7.17751 6.39649 7.19657 6.35261 7.2242 6.31424C7.27461 6.25886 7.34143 6.2211 7.4149 6.20641C7.48832 6.19171 7.56453 6.2009 7.63236 6.23261C7.66387 6.30522 7.71032 6.37037 7.76869 6.42384C7.82706 6.47727 7.89604 6.5178 7.97114 6.54282H7.96706ZM7.56298 6.60404C7.5751 6.60404 7.58694 6.60045 7.59698 6.59371C7.60706 6.58698 7.6149 6.57743 7.61955 6.56625C7.62416 6.55506 7.62539 6.54273 7.62302 6.53086C7.62065 6.51898 7.61481 6.50808 7.60628 6.49951C7.59771 6.49098 7.58682 6.48514 7.57494 6.48278C7.56306 6.48041 7.55073 6.48163 7.53955 6.48625C7.52837 6.4909 7.51881 6.49873 7.51208 6.50882C7.50534 6.51886 7.50175 6.53069 7.50175 6.54282C7.50175 6.57547 7.50175 6.60404 7.56298 6.60404ZM8.21196 6.76731C8.27241 6.84751 8.33788 6.92384 8.40787 6.99588C8.28653 6.99159 8.16681 7.02502 8.06522 7.09151C7.96363 7.15804 7.88514 7.25437 7.84053 7.36731C7.79963 7.30816 7.77506 7.23931 7.7693 7.16763C7.76359 7.09596 7.77689 7.02404 7.80787 6.95914C7.85849 6.89984 7.92094 6.85176 7.99122 6.81804C8.06155 6.78429 8.13812 6.76563 8.21604 6.76322L8.21196 6.76731ZM8.70991 6.8571L8.90583 6.91833V6.80404C8.96706 6.80404 8.98747 6.83669 9.04869 6.83669C9.09836 7.01457 9.17996 7.18192 9.28951 7.33057C9.28286 7.39302 9.26192 7.45306 9.22828 7.50608C9.15922 7.38849 9.0829 7.27535 8.99971 7.16731C8.92608 7.04808 8.81788 6.95412 8.68951 6.89792L8.70991 6.8571ZM8.31808 6.83669C8.46432 6.86784 8.60302 6.92747 8.72624 7.0122C8.79563 7.05551 8.85294 7.11559 8.8929 7.18694C8.93286 7.25833 8.95416 7.33857 8.95482 7.42037C8.89228 7.33163 8.81498 7.25433 8.72624 7.1918C8.55971 7.11576 8.41816 6.99404 8.31808 6.84078V6.83669ZM8.31808 5.38363C8.3793 5.38363 8.43237 5.41629 8.43237 5.46527C8.39767 5.57412 8.34967 5.67833 8.28951 5.77547C8.22355 5.68155 8.17518 5.57645 8.14665 5.46527C8.16539 5.43665 8.19175 5.41388 8.22277 5.39947C8.25379 5.38502 8.2882 5.37955 8.32216 5.38363H8.31808ZM8.22829 5.93057C8.20429 5.79094 8.166 5.65416 8.114 5.52241C8.06098 5.48878 8.00094 5.46784 7.93849 5.46118C7.91747 5.46302 7.89775 5.4722 7.88281 5.48714C7.86787 5.50208 7.85869 5.5218 7.85686 5.54282V5.57547C7.92547 5.7038 8.00179 5.82784 8.08543 5.9469C8.13073 5.92882 8.17971 5.9218 8.22829 5.92649V5.93057ZM8.37114 5.92649C8.39514 5.78686 8.43343 5.65008 8.48543 5.51833C8.53845 5.48469 8.59849 5.46376 8.66094 5.4571C8.68196 5.45894 8.70167 5.46812 8.71661 5.48306C8.73155 5.498 8.74073 5.51771 8.74257 5.53873V5.57139C8.68106 5.70367 8.60437 5.82833 8.514 5.94282C8.4689 5.92392 8.41971 5.91686 8.37114 5.92241V5.92649ZM8.514 5.03669H8.33849V4.88159H8.25686V5.02445H8.08135V5.13873H8.25686V5.28976H8.33849V5.12649H8.514V5.03669ZM6.77114 6.0571V5.77955C6.70155 5.80253 6.63775 5.84033 6.5842 5.89037C6.53061 5.94041 6.48857 6.00147 6.46094 6.06935C6.46094 6.06935 6.68951 5.92649 6.77114 6.06935V6.0571ZM6.96706 6.44078C6.99971 6.32649 7.02828 6.18363 7.04869 6.06935C7.07755 5.98449 7.08702 5.89424 7.07645 5.80527C7.06583 5.71624 7.03543 5.63078 6.98747 5.55506C6.92698 5.42784 6.89894 5.28759 6.90583 5.1469L6.70992 5.22853C6.71877 5.37114 6.75771 5.51025 6.8242 5.63669C6.86522 5.74465 6.87649 5.86167 6.85686 5.97547C6.8411 6.05669 6.84314 6.14033 6.86285 6.22069C6.88261 6.30102 6.91955 6.37612 6.97114 6.44078H6.96706ZM6.97114 5.21629V5.13465C7.07767 5.01482 7.22147 4.93429 7.3793 4.90608C7.46094 4.87343 7.52216 4.90608 7.60788 4.96731C7.55412 4.96849 7.50294 4.99045 7.46502 5.02853C7.37771 5.10661 7.2802 5.17253 7.17522 5.22445C7.11 5.21959 7.04453 5.21959 6.9793 5.22445" fill="white"/>
<path d="M7.59576 4.93877C7.66548 4.99869 7.71527 5.07845 7.73862 5.16735C7.71311 5.28837 7.66462 5.40339 7.59576 5.50612C7.52634 5.58722 7.48613 5.68926 7.48148 5.79592C7.48148 5.85714 7.5427 5.9102 7.56311 5.97143C7.50213 5.95424 7.44519 5.92522 7.39544 5.886C7.34572 5.84677 7.30421 5.79812 7.27331 5.74286C7.2578 5.68857 7.25723 5.63114 7.27156 5.57657C7.28593 5.52196 7.31474 5.47228 7.35495 5.43265C7.40552 5.32065 7.47148 5.21624 7.55087 5.12245C7.58323 5.06547 7.59748 4.99996 7.59168 4.93469L7.59576 4.93877ZM9.11005 6.73877C9.1585 6.91233 9.23576 7.07653 9.33862 7.22449C9.4098 7.34902 9.44907 7.48926 9.45291 7.63265C9.51225 7.49669 9.5334 7.3471 9.51413 7.2C9.44172 7.00192 9.29544 6.83955 9.10597 6.74694L9.11005 6.73877ZM9.39576 6.8C9.48433 6.80571 9.57127 6.82641 9.65291 6.86122C9.78442 6.96241 9.87556 7.1071 9.91005 7.26939C9.81927 7.24388 9.73266 7.20539 9.65291 7.1551C9.53703 7.06351 9.44813 6.9422 9.39576 6.80408V6.8ZM8.47739 7.1551C8.41617 7.1551 8.36311 7.18775 8.30188 7.18775C8.38201 7.21739 8.45866 7.25571 8.53046 7.30204C8.57274 7.33808 8.60723 7.38237 8.63176 7.4322C8.65634 7.48204 8.6705 7.53637 8.67331 7.59184C8.71299 7.74951 8.77193 7.90167 8.84882 8.0449C8.85099 7.89041 8.87858 7.73735 8.93046 7.59184C8.86482 7.55375 8.8056 7.50551 8.75495 7.44898C8.6996 7.32261 8.60123 7.21996 8.47739 7.15918V7.1551ZM9.29372 7.56735C9.35825 7.69939 9.39042 7.8449 9.3876 7.99184C9.32127 8.14673 9.23479 8.2922 9.13046 8.42449C9.09495 8.25518 9.07446 8.0831 9.06923 7.9102C9.06638 7.83514 9.08434 7.76073 9.12103 7.69518C9.15776 7.62967 9.21189 7.57555 9.2774 7.53877L9.29372 7.56735ZM9.5876 7.53877C9.67568 7.69204 9.74552 7.85502 9.79576 8.02449C9.80989 8.07743 9.81172 8.13294 9.80111 8.18669C9.7905 8.24045 9.76772 8.2911 9.73454 8.33469C9.65291 8.44898 9.55903 8.56326 9.4774 8.67347C9.42299 8.60657 9.38397 8.52853 9.36311 8.4449C9.35605 8.33139 9.36429 8.21743 9.3876 8.10612C9.47687 7.9249 9.54662 7.73473 9.59576 7.53877H9.5876ZM9.71005 8.65306C9.5998 8.76559 9.50262 8.8902 9.42025 9.02449C9.38989 9.07053 9.37368 9.12445 9.37368 9.17959C9.37368 9.23473 9.38989 9.28865 9.42025 9.33469C9.51013 9.46073 9.62556 9.56645 9.75903 9.6449C9.67854 9.52445 9.6385 9.38147 9.64474 9.23673C9.67556 9.13743 9.71377 9.04053 9.75903 8.94694C9.76405 8.8449 9.74589 8.74302 9.70597 8.64898L9.71005 8.65306ZM9.2978 8.50612C9.35335 8.58012 9.38217 8.67077 9.37944 8.76326C9.37393 8.87837 9.35336 8.99228 9.31821 9.10204C9.25666 9.27045 9.18017 9.43298 9.08964 9.58775C9.03054 9.50894 8.98246 9.42245 8.94678 9.33061C9.02842 9.21632 9.08964 9.10204 9.17536 8.99184C9.22821 8.83322 9.26915 8.67086 9.2978 8.50612ZM9.23658 8.42449C9.17809 8.72882 9.06319 9.01955 8.89781 9.28163C8.8514 9.36759 8.78679 9.44241 8.70858 9.5009C8.63034 9.55939 8.5403 9.60016 8.44474 9.62041C8.36046 9.61641 8.27952 9.58641 8.21299 9.53449C8.1465 9.48261 8.09768 9.41139 8.07331 9.33061C8.04446 9.25608 8.0349 9.17543 8.04564 9.0962C8.05633 9.01698 8.08691 8.94175 8.13454 8.87755C8.15246 8.94963 8.1885 9.01596 8.23919 9.07024C8.28993 9.12453 8.35364 9.16498 8.42433 9.18775C8.64066 9.16735 8.93046 8.9102 9.24066 8.42449" fill="white"/>
<path d="M8.97941 8.22858C9.00778 8.33556 9.00778 8.44813 8.97941 8.55511C8.96847 8.61429 8.94545 8.67062 8.91174 8.7205C8.87802 8.77034 8.83435 8.8127 8.78349 8.84491C8.71721 8.88344 8.63913 8.89638 8.56394 8.88136C8.4888 8.86629 8.4217 8.82434 8.37533 8.76327L8.34268 8.73062C8.48558 8.71617 8.62137 8.66123 8.73415 8.57234C8.84692 8.4834 8.93202 8.36417 8.97941 8.22858ZM9.68145 10.1878C9.79047 10.3243 9.87725 10.4772 9.9386 10.6408C9.933 10.8527 9.87251 11.0594 9.76309 11.2408C9.63264 11.1323 9.53276 10.9916 9.47329 10.8327C9.45811 10.7165 9.46888 10.5983 9.50488 10.4868C9.54088 10.3753 9.60121 10.2732 9.68145 10.1878ZM9.4039 10.3837C9.45358 10.2454 9.53137 10.1189 9.63247 10.0123C9.66251 9.89013 9.65019 9.76148 9.59753 9.64727C9.54488 9.53307 9.45504 9.44013 9.34268 9.38368C9.23839 9.51883 9.1608 9.67258 9.11411 9.83674C9.08145 10.0735 9.31003 10.1878 9.4039 10.3837ZM8.88962 9.41225C8.82709 9.50099 8.74978 9.57829 8.66105 9.64083V9.93062C8.7057 10.0972 8.76443 10.2597 8.83656 10.4163C8.92549 10.3065 8.99206 10.1803 9.03247 10.0449C9.05602 9.93356 9.06696 9.81993 9.06513 9.70613C9.01435 9.60507 8.95566 9.50817 8.88962 9.41634V9.41225ZM8.4039 10.2327C8.28223 10.0594 8.20007 9.86156 8.16309 9.65307C8.22472 9.68764 8.29313 9.70846 8.36358 9.71409C8.43407 9.71972 8.50488 9.71005 8.57125 9.68572C8.60219 9.8076 8.60219 9.93527 8.57125 10.0572C8.5177 10.1267 8.459 10.1922 8.39574 10.2531L8.4039 10.2327ZM8.42839 10.3143L8.57125 10.1878C8.6039 10.1551 8.71411 10.4449 8.74676 10.5265C8.68554 10.5265 8.63247 10.5265 8.6039 10.4939C8.55088 10.4338 8.49211 10.3792 8.42839 10.3306V10.3143ZM9.08145 10.1878C8.99468 10.3305 8.89782 10.4669 8.79166 10.5959C8.82247 10.6952 8.86068 10.7921 8.90594 10.8857C8.97492 11.0104 9.06153 11.1245 9.16308 11.2245C9.2328 11.1178 9.29157 11.0043 9.3386 10.8857C9.38611 10.7971 9.40329 10.6953 9.38758 10.5959C9.32635 10.4531 9.159 10.3061 9.09778 10.1633L9.08145 10.1878ZM9.38758 10.9633C9.48227 11.0881 9.55921 11.2255 9.61615 11.3714C9.63615 11.4583 9.62456 11.5495 9.5835 11.6286C9.55084 11.6898 9.46921 11.8245 9.40799 11.9388C9.29284 11.8516 9.20386 11.7344 9.15084 11.6C9.13333 11.5442 9.12721 11.4855 9.1328 11.4273C9.13843 11.3691 9.15566 11.3127 9.18349 11.2612C9.24472 11.1796 9.35901 11.098 9.39166 10.9714L9.38758 10.9633ZM8.81206 10.951C8.89243 11.0545 8.95835 11.1685 9.00798 11.2898C9.03811 11.3412 9.05402 11.3996 9.05402 11.4592C9.05402 11.5187 9.03811 11.5772 9.00798 11.6286C8.94676 11.7429 8.8937 11.8245 8.86513 11.8857C8.78223 11.7945 8.71594 11.6896 8.66921 11.5755C8.6386 11.4647 8.6386 11.3476 8.66921 11.2367C8.73696 11.1514 8.78566 11.0526 8.81206 10.9469V10.951ZM9.62839 11.7633C9.51166 11.9182 9.42953 12.0963 9.38758 12.2857C9.43219 12.4616 9.49088 12.6336 9.56309 12.8C9.64574 12.7163 9.71219 12.6181 9.75901 12.5102C9.82978 12.4002 9.85872 12.2684 9.84064 12.1388C9.84415 12.0685 9.83125 11.9983 9.80292 11.9338C9.77456 11.8693 9.73158 11.8123 9.67737 11.7674L9.62839 11.7633ZM9.13043 11.7347C9.21815 11.8625 9.2677 12.0125 9.27329 12.1674C9.21215 12.3113 9.13554 12.4482 9.04472 12.5755C8.98427 12.4685 8.93635 12.3548 8.90186 12.2367C8.89929 12.1424 8.91859 12.0487 8.95827 11.963C8.9979 11.8774 9.05684 11.802 9.13043 11.7429V11.7347ZM12.0202 6.02858C11.8362 5.96666 11.6369 5.96666 11.4529 6.02858C11.6385 6.08029 11.8346 6.08029 12.0202 6.02858ZM9.99982 5.11429C10.0723 4.93674 10.131 4.75391 10.1753 4.56736C10.1753 4.52081 10.1568 4.47617 10.1239 4.44325C10.091 4.41034 10.0464 4.39185 9.99982 4.39185C9.95329 4.39185 9.90864 4.41034 9.8757 4.44325C9.8428 4.47617 9.82431 4.52081 9.82431 4.56736C9.86411 4.75515 9.92292 4.93842 9.99982 5.11429ZM10.4855 5.40409C10.5984 5.17809 10.6847 4.93976 10.7427 4.69389C10.71 4.63266 10.6815 4.5796 10.6284 4.5796C10.5753 4.5796 10.5141 4.54695 10.4855 4.5796C10.3849 4.81534 10.3255 5.06662 10.31 5.32246C10.3427 5.34287 10.4243 5.37552 10.4855 5.40409ZM10.2039 5.33878H10.0815C10.111 5.12556 10.1588 4.91523 10.2243 4.71021C10.2241 4.65652 10.2417 4.60427 10.2741 4.56149C10.3066 4.51872 10.3521 4.4878 10.4039 4.47348C10.3712 4.58776 10.3223 4.70205 10.2896 4.81225C10.257 4.98776 10.2284 5.16327 10.1957 5.32654L10.2039 5.33878ZM10.2284 5.64491C10.3975 5.63968 10.565 5.67911 10.7141 5.75919C10.8253 5.82976 10.9144 5.93017 10.9712 6.04899C10.8021 6.05421 10.6346 6.01478 10.4855 5.9347C10.422 5.91148 10.3653 5.87283 10.3204 5.82225C10.2755 5.77168 10.2439 5.71074 10.2284 5.64491ZM10.3427 5.72654C10.4374 5.82678 10.553 5.90483 10.6815 5.95511C10.645 5.8947 10.5958 5.84295 10.5373 5.80348C10.4788 5.76397 10.4123 5.73772 10.3427 5.72654ZM11.5998 6.75919V6.61634C11.475 6.71103 11.3376 6.78797 11.1917 6.84491C11.1877 6.79507 11.1991 6.74523 11.2243 6.70205C11.1713 6.73568 11.1112 6.75662 11.0488 6.76327C11.0815 6.70205 11.0815 6.62042 11.1304 6.56736C11.1077 6.59911 11.0784 6.62572 11.0447 6.64544C11.0109 6.66511 10.9734 6.67748 10.9345 6.68164C10.9301 6.62132 10.9413 6.56083 10.9672 6.50613C10.8871 6.62234 10.7661 6.70397 10.6284 6.7347C10.5695 6.74985 10.5079 6.75029 10.4488 6.73609C10.3898 6.72185 10.3351 6.69336 10.2896 6.65307C10.4604 6.64911 10.6228 6.57887 10.7427 6.45715C10.677 6.41903 10.6178 6.37083 10.5672 6.31429C10.6051 6.27621 10.6563 6.25425 10.71 6.25307C10.6688 6.24005 10.6314 6.21727 10.6008 6.18674C10.5703 6.15617 10.5475 6.11874 10.5345 6.07756C10.8617 6.15793 11.1977 6.19634 11.5345 6.19185C11.7266 6.19225 11.9177 6.16474 12.1019 6.11021C12.0202 6.71021 11.5957 6.77144 11.5957 6.77144L11.5998 6.75919ZM11.6774 6.51429C11.7091 6.49152 11.7357 6.46229 11.7555 6.42854C11.7751 6.39478 11.7875 6.35723 11.7917 6.31838C11.6196 6.32283 11.4475 6.31189 11.2774 6.28572V6.31838C11.31 6.33878 11.6855 6.33878 11.6855 6.51429H11.6774ZM12.1386 6.14287C12.1362 6.27087 12.1085 6.39711 12.057 6.51429C12.1439 6.45972 12.2123 6.38001 12.2529 6.28572C12.2855 6.16327 12.2855 6.07756 12.1386 6.14287ZM12.4284 6.27756C12.4962 6.24585 12.5724 6.23666 12.6459 6.25136C12.7193 6.26605 12.7861 6.30385 12.8366 6.35919C12.8739 6.4414 12.883 6.53364 12.8623 6.62156C12.8416 6.70944 12.7924 6.78801 12.7223 6.84491C12.638 6.77487 12.5319 6.73654 12.4223 6.73654C12.3127 6.73654 12.2066 6.77487 12.1223 6.84491C12.0417 6.80364 11.9548 6.77605 11.8651 6.76327C11.9292 6.6905 12.0068 6.63087 12.0937 6.58776C12.2401 6.52817 12.3602 6.41813 12.4325 6.27756H12.4284ZM12.5468 6.59593C12.5468 6.5838 12.5432 6.57197 12.5364 6.56193C12.5297 6.55185 12.5201 6.54401 12.509 6.53936C12.4978 6.53474 12.4855 6.53352 12.4736 6.53589C12.4617 6.53825 12.4508 6.54409 12.4422 6.55262C12.4337 6.56119 12.4279 6.57209 12.4255 6.58397C12.4231 6.59585 12.4244 6.60817 12.429 6.61936C12.4336 6.63054 12.4415 6.64009 12.4515 6.64683C12.4616 6.65356 12.4734 6.65715 12.4855 6.65715C12.5182 6.65715 12.5468 6.6245 12.5468 6.59593ZM11.8039 6.79185C11.7435 6.87205 11.678 6.94838 11.608 7.02042C11.7293 7.01613 11.849 7.04956 11.9506 7.11605C12.0522 7.18258 12.1307 7.27891 12.1753 7.39185C12.2162 7.3327 12.2408 7.26385 12.2466 7.19217C12.2523 7.1205 12.239 7.04858 12.208 6.98368C12.159 6.9225 12.0969 6.87311 12.0262 6.83923C11.9556 6.80532 11.8782 6.78772 11.7998 6.78776" fill="white"/>
<path d="M11.3102 6.88974L11.1143 6.95097V6.83668C11.053 6.83668 11.0326 6.86933 10.9714 6.86933C10.912 7.03717 10.8236 7.19329 10.7102 7.33056C10.7168 7.39301 10.7378 7.45305 10.7714 7.50607C10.8405 7.38848 10.9168 7.27533 11 7.16729C11.0797 7.05333 11.1862 6.9608 11.3102 6.8979V6.88974ZM11.6816 6.83668C11.5354 6.86782 11.3967 6.92746 11.2735 7.01219C11.2041 7.0555 11.1468 7.11558 11.1068 7.18692C11.0668 7.25831 11.0455 7.3386 11.0449 7.42035C11.1074 7.33162 11.1847 7.25431 11.2735 7.19178C11.4339 7.10652 11.5733 6.9866 11.6816 6.84076V6.83668ZM11.6816 5.38362C11.6204 5.38362 11.5673 5.41627 11.5673 5.46525C11.602 5.57411 11.65 5.67831 11.7102 5.77546C11.7761 5.68154 11.8245 5.57643 11.853 5.46525C11.8064 5.41754 11.744 5.38852 11.6775 5.38362H11.6816ZM11.7592 5.93056C11.768 5.78794 11.807 5.64884 11.8734 5.52239C11.9265 5.48876 11.9865 5.46782 12.049 5.46117C12.0816 5.46117 12.1306 5.49382 12.1102 5.5428V5.57546C12.0416 5.70378 11.9652 5.82782 11.8816 5.94688C11.8816 5.92648 11.8204 5.92648 11.7592 5.92648V5.93056ZM11.6245 5.92648C11.6005 5.78684 11.5622 5.65011 11.5102 5.51831C11.4572 5.48468 11.3971 5.46374 11.3347 5.45709C11.3137 5.45892 11.2939 5.46811 11.279 5.48305C11.2641 5.49799 11.2549 5.5177 11.253 5.53872V5.57137C11.3217 5.6997 11.398 5.82374 11.4816 5.9428C11.5267 5.9239 11.5759 5.91684 11.6245 5.92239V5.92648ZM11.4816 5.03668H11.6449V4.88158H11.7592V5.02444H11.902V5.13872H11.7592V5.28974H11.6449V5.12648H11.4816V5.03668ZM9.7959 4.11423H9.93875V3.93872H10.053V4.11423H10.2041V4.19586H10.0612V4.40403H9.94692V4.19586H9.7959V4.11423ZM13.2326 6.05301V5.77546C13.3022 5.79843 13.366 5.83623 13.4196 5.88627C13.4732 5.93631 13.5152 5.99737 13.5428 6.06525C13.5428 6.06525 13.3143 5.92239 13.2326 6.06525V6.05301ZM13.0245 6.43668C12.9918 6.32239 12.9632 6.17954 12.9428 6.06525C12.8909 5.89554 12.9025 5.71272 12.9755 5.55097C13.0509 5.42913 13.0799 5.28423 13.0571 5.1428L13.253 5.22443C13.2442 5.36705 13.2052 5.50615 13.1388 5.6326C13.0977 5.74056 13.0865 5.85758 13.1061 5.97137C13.1376 6.04876 13.1466 6.13346 13.1321 6.21574C13.1177 6.29807 13.0804 6.3746 13.0245 6.43668ZM13.0245 5.21219V5.13056C12.9179 5.01072 12.7741 4.93019 12.6163 4.90199C12.5347 4.86933 12.4734 4.90199 12.3877 4.96321C12.4415 4.96439 12.4927 4.98635 12.5306 5.02444C12.6179 5.10252 12.7154 5.16843 12.8204 5.22035C12.8857 5.21664 12.951 5.21664 13.0163 5.22035" fill="white"/>
<path d="M12.3957 4.93877C12.326 4.99869 12.2762 5.07845 12.2529 5.16735C12.2784 5.28837 12.3269 5.40339 12.3957 5.50612C12.4652 5.58722 12.5054 5.68926 12.51 5.79592C12.51 5.85714 12.4488 5.9102 12.4284 5.97143C12.4893 5.95424 12.5463 5.92522 12.5961 5.886C12.6458 5.84677 12.6873 5.79812 12.7182 5.74286C12.7337 5.68857 12.7343 5.63114 12.7199 5.57657C12.7056 5.52196 12.6768 5.47228 12.6366 5.43265C12.586 5.32065 12.52 5.21624 12.4406 5.12245C12.4083 5.06547 12.394 4.99996 12.3998 4.93469L12.3957 4.93877ZM10.8937 6.73877C10.8452 6.91233 10.768 7.07653 10.6651 7.22449C10.5856 7.35445 10.5458 7.50486 10.5508 7.65714C10.4915 7.52118 10.4703 7.37159 10.4896 7.22449C10.5118 7.11596 10.5608 7.01465 10.6321 6.92984C10.7033 6.84502 10.7947 6.77935 10.8978 6.73877H10.8937ZM10.608 6.79184C10.5194 6.79755 10.4325 6.81824 10.3508 6.85306C10.2193 6.95424 10.1282 7.09894 10.0937 7.26122C10.1845 7.23571 10.2711 7.19722 10.3508 7.14694C10.4643 7.05302 10.5526 6.93241 10.608 6.79592V6.79184ZM11.5263 7.14694C11.5876 7.14694 11.6406 7.17959 11.7019 7.17959C11.6217 7.20922 11.5451 7.24755 11.4733 7.29388C11.431 7.32992 11.3965 7.3742 11.372 7.42404C11.3474 7.47388 11.3333 7.5282 11.3304 7.58367C11.2908 7.74135 11.2318 7.89351 11.1549 8.03673C11.1528 7.88224 11.1252 7.72918 11.0733 7.58367C11.1389 7.54559 11.1981 7.49735 11.2488 7.44081C11.2731 7.37624 11.3102 7.3173 11.3579 7.26747C11.4056 7.21767 11.4629 7.17804 11.5263 7.15102V7.14694ZM10.71 7.55918C10.6428 7.69335 10.6092 7.84184 10.6121 7.99184C10.6784 8.14673 10.7649 8.2922 10.8692 8.42449C10.9047 8.25518 10.9252 8.0831 10.9304 7.9102C10.9292 7.83592 10.9095 7.76306 10.8732 7.69824C10.8368 7.63343 10.785 7.57861 10.7223 7.53877L10.71 7.55918ZM9.99982 8.05306C9.99982 7.93877 10.257 7.68163 10.257 7.53877C10.2369 7.47894 10.2032 7.42461 10.1586 7.38C10.114 7.33539 10.0597 7.30171 9.99982 7.28163C9.89035 7.33975 9.8008 7.4293 9.74268 7.53877C9.74268 7.68163 9.99982 7.97143 9.99982 8.05306ZM10.408 7.53877C10.3213 7.6922 10.2528 7.85522 10.2039 8.02449C10.1898 8.07743 10.1879 8.13294 10.1986 8.18669C10.2092 8.24045 10.2319 8.2911 10.2651 8.33469C10.3468 8.44898 10.4406 8.56326 10.5223 8.67347C10.5767 8.60657 10.6157 8.52853 10.6366 8.4449C10.6436 8.33139 10.6354 8.21743 10.6121 8.10612C10.5183 7.9269 10.4483 7.73616 10.4039 7.53877H10.408ZM9.99574 8.88163C10.0745 8.82339 10.1353 8.7442 10.1712 8.65306C10.189 8.616 10.1953 8.57449 10.1895 8.53384C10.1837 8.49314 10.166 8.4551 10.1386 8.42449C10.069 8.35294 10.0197 8.2642 9.99574 8.16735C9.96006 8.25918 9.91198 8.34567 9.85288 8.42449C9.825 8.45486 9.80696 8.4929 9.80112 8.53371C9.79529 8.57453 9.80194 8.61612 9.82022 8.65306C9.85884 8.74265 9.91916 8.82118 9.99574 8.88163ZM10.2855 8.65306C10.3958 8.76559 10.493 8.8902 10.5753 9.02449C10.6057 9.07053 10.6219 9.12445 10.6219 9.17959C10.6219 9.23473 10.6057 9.28865 10.5753 9.33469C10.4855 9.46073 10.37 9.56645 10.2366 9.6449C10.317 9.52445 10.3571 9.38147 10.3508 9.23673C10.32 9.13743 10.2818 9.04053 10.2366 8.94694C10.2315 8.8449 10.2497 8.74302 10.2896 8.64898L10.2855 8.65306ZM10.6978 8.50612C10.6422 8.58012 10.6134 8.67077 10.6161 8.76326C10.6217 8.87837 10.6422 8.99228 10.6774 9.10204C10.7389 9.27045 10.8154 9.43298 10.9059 9.58775C10.965 9.50894 11.0131 9.42245 11.0488 9.33061C10.9672 9.21632 10.9059 9.10204 10.8202 8.99184C10.7345 8.88163 10.7263 8.65306 10.6978 8.50612ZM10.7917 8.42449C10.8501 8.72882 10.965 9.01955 11.1304 9.28163C11.1768 9.36759 11.2414 9.44241 11.3197 9.5009C11.3979 9.55939 11.4879 9.60016 11.5835 9.62041C11.6678 9.61641 11.7487 9.58641 11.8152 9.53449C11.8817 9.48261 11.9306 9.41139 11.9549 9.33061C11.9838 9.25608 11.9933 9.17543 11.9826 9.0962C11.9719 9.01698 11.9413 8.94175 11.8937 8.87755C11.8758 8.94963 11.8397 9.01596 11.789 9.07024C11.7383 9.12453 11.6746 9.16498 11.6039 9.18775C11.3876 9.16735 11.0978 8.9102 10.7876 8.42449" fill="white"/>
<path d="M11.0202 8.22864C10.9918 8.33562 10.9918 8.44819 11.0202 8.55517C11.0311 8.61435 11.0541 8.67068 11.0878 8.72056C11.1216 8.77039 11.1652 8.81276 11.2161 8.84496C11.2824 8.88349 11.3604 8.89643 11.4356 8.88141C11.5108 8.86635 11.5779 8.82439 11.6242 8.76333L11.6569 8.73068C11.5136 8.7177 11.377 8.66333 11.264 8.57419C11.1509 8.48505 11.0662 8.36501 11.0202 8.22864ZM9.99976 9.65313C10.074 9.62896 10.1365 9.57803 10.1753 9.51027C10.231 9.40619 10.2591 9.28954 10.2569 9.17149C10.2258 9.07762 10.1773 8.99039 10.114 8.91435C10.0824 8.94962 10.0434 8.97749 9.99976 8.99598C9.96416 8.96541 9.92592 8.93811 9.88547 8.91435C9.82637 8.99317 9.77829 9.07966 9.74261 9.17149C9.73037 9.23047 9.73135 9.29145 9.74547 9.35002C9.75955 9.4086 9.78649 9.46333 9.82425 9.51027C9.8569 9.60415 9.91812 9.62456 9.99976 9.65313ZM9.99976 10.5103C10.0324 10.3674 10.2896 10.1388 10.2896 9.99598C10.2896 9.85313 10.114 9.82047 9.99976 9.73884C9.88547 9.82047 9.77119 9.80007 9.70996 9.99598C9.70996 10.1103 9.9671 10.3674 9.99976 10.5103ZM10.31 10.2001C10.2009 10.3366 10.1142 10.4895 10.0528 10.6531C10.0584 10.8649 10.1189 11.0717 10.2283 11.2531C10.3588 11.1446 10.4587 11.0039 10.5181 10.845C10.5378 10.7268 10.5291 10.6056 10.4929 10.4914C10.4567 10.3772 10.394 10.2732 10.31 10.1878V10.2001ZM10.5998 10.3837C10.5501 10.2455 10.4723 10.119 10.3712 10.0123C10.3411 9.89019 10.3535 9.76154 10.4061 9.64733C10.4588 9.53313 10.5486 9.44019 10.661 9.38374C10.7534 9.52603 10.83 9.6779 10.8896 9.8368C10.91 10.0735 10.6814 10.1878 10.5998 10.3837ZM11.114 9.41231C11.1766 9.50105 11.2539 9.57835 11.3426 9.64088V9.93068C11.298 10.0972 11.2392 10.2597 11.1671 10.4164C11.0782 10.3066 11.0116 10.1804 10.9712 10.045C10.9476 9.93362 10.9367 9.81998 10.9385 9.70619C10.9712 9.67354 11.0528 9.49803 11.114 9.41639V9.41231ZM11.5998 10.2327C11.72 10.0591 11.8008 9.86125 11.8365 9.65313C11.7749 9.6877 11.7064 9.70852 11.636 9.71415C11.5655 9.71978 11.4947 9.71011 11.4283 9.68578C11.3974 9.80766 11.3974 9.93533 11.4283 10.0572C11.4789 10.1292 11.5378 10.195 11.6038 10.2531L11.5998 10.2327ZM11.5712 10.3144C11.51 10.2531 11.4569 10.2327 11.4283 10.1715C11.3671 10.2858 11.314 10.4001 11.2528 10.5103C11.314 10.5103 11.3671 10.5103 11.3957 10.4776C11.4487 10.4176 11.5075 10.3629 11.5712 10.3144ZM10.9059 10.1878C10.9927 10.3306 11.0895 10.467 11.1957 10.596C11.1649 10.6953 11.1267 10.7922 11.0814 10.8858C11.0124 11.0105 10.9258 11.1246 10.8242 11.2246C10.7545 11.1178 10.6957 11.0043 10.6487 10.8858C10.6054 10.7957 10.5925 10.694 10.612 10.596C10.6732 10.4531 10.8487 10.3062 10.9018 10.1633L10.9059 10.1878ZM9.99976 11.996C10.0735 11.8866 10.1416 11.7735 10.2038 11.6572C10.2315 11.5779 10.2315 11.4916 10.2038 11.4123C10.1712 11.3307 10.0283 11.1225 10.0079 11.0735C9.92882 11.181 9.85788 11.2943 9.79567 11.4123C9.76506 11.4953 9.76506 11.5865 9.79567 11.6695C9.84874 11.845 9.99159 11.9266 9.99159 12.0082L9.99976 11.996ZM10.5589 10.9756C10.4642 11.1004 10.3873 11.2378 10.3304 11.3837C10.3104 11.4706 10.322 11.5617 10.363 11.6409C10.3957 11.7021 10.4773 11.8368 10.5385 11.9511C10.6537 11.8639 10.7427 11.7467 10.7957 11.6123C10.8132 11.5565 10.8193 11.4978 10.8137 11.4396C10.8081 11.3814 10.7909 11.3249 10.763 11.2735C10.7304 11.1919 10.6202 11.1103 10.5549 10.9837L10.5589 10.9756ZM11.1549 10.9633C11.0745 11.0668 11.0086 11.1808 10.9589 11.3021C10.9288 11.3535 10.9129 11.4119 10.9129 11.4715C10.9129 11.531 10.9288 11.5895 10.9589 11.6409C11.0202 11.7552 11.0732 11.8368 11.1018 11.898C11.1847 11.8068 11.251 11.7019 11.2977 11.5878C11.3283 11.477 11.3283 11.3599 11.2977 11.249C11.2379 11.159 11.1898 11.0616 11.1549 10.9592V10.9633ZM9.99976 13.6572C10.1137 13.4114 10.1907 13.1501 10.2283 12.8817C10.1981 12.6834 10.1196 12.4956 9.99976 12.3348C9.86625 12.4875 9.786 12.6794 9.77119 12.8817C9.79964 13.1519 9.8771 13.4147 9.99976 13.6572ZM10.3385 11.7674C10.4664 11.9182 10.5598 12.0951 10.612 12.2858C10.5674 12.4616 10.5087 12.6336 10.4365 12.8001C10.3538 12.7164 10.2874 12.6181 10.2406 12.5103C10.2011 12.4579 10.1734 12.3975 10.1593 12.3335C10.1452 12.2694 10.1451 12.203 10.1589 12.1388C10.1514 12.0681 10.1625 11.9966 10.1911 11.9314C10.2198 11.8662 10.265 11.8097 10.3222 11.7674H10.3385ZM10.8691 11.7348C10.7814 11.8625 10.7319 12.0126 10.7263 12.1674C10.7874 12.3114 10.864 12.4482 10.9549 12.5756C11.0153 12.4685 11.0632 12.3548 11.0977 12.2368C11.1003 12.1424 11.081 12.0488 11.0413 11.9631C11.0017 11.8774 10.9427 11.8021 10.8691 11.7429" fill="white"/>
<path d="M10.2037 14.2244C10.2407 14.0267 10.3067 13.8355 10.3996 13.6571C10.4174 13.5727 10.4163 13.4855 10.3966 13.4015C10.3768 13.3176 10.3388 13.239 10.2853 13.1714C10.2075 13.4259 10.1106 13.6742 9.99553 13.9142C9.88475 13.6724 9.78802 13.4244 9.70573 13.1714C9.65222 13.239 9.61422 13.3176 9.59451 13.4015C9.57475 13.4855 9.57369 13.5727 9.59145 13.6571C9.67639 13.8397 9.74471 14.0296 9.79553 14.2244C9.79153 14.3087 9.76153 14.3897 9.70961 14.4562C9.65773 14.5227 9.58651 14.5715 9.50573 14.5959C9.57692 14.6239 9.65533 14.6279 9.729 14.6073C9.80271 14.5866 9.86761 14.5425 9.9139 14.4816C9.94916 14.4499 9.97704 14.4109 9.99553 14.3673C10.0261 14.4029 10.0534 14.4411 10.0772 14.4816C10.123 14.5431 10.1879 14.5876 10.2618 14.6083C10.3356 14.629 10.4142 14.6246 10.4853 14.5959C10.4178 14.5552 10.3592 14.5013 10.3129 14.4375C10.2666 14.3737 10.2337 14.3013 10.2159 14.2244H10.2037ZM9.27716 12.4285C9.30982 12.5102 9.39145 12.7183 9.42002 12.7673C9.43112 12.842 9.41806 12.9183 9.38284 12.9851C9.34761 13.0519 9.29202 13.1057 9.2241 13.1387C9.14737 13.0924 9.08622 13.0242 9.04859 12.9428C9.02973 12.906 9.02276 12.8643 9.02859 12.8233C9.03447 12.7824 9.05284 12.7443 9.08124 12.7142C9.12553 12.605 9.19227 12.5062 9.27716 12.4244V12.4285ZM9.68533 12.8326C9.67186 13.0086 9.63337 13.1817 9.57104 13.3469C9.52765 13.4384 9.46451 13.5192 9.38618 13.5834C9.30786 13.6477 9.21622 13.6937 9.11798 13.7183C9.02402 13.7024 8.93561 13.6631 8.86084 13.604C8.86806 13.5511 8.89035 13.5014 8.92512 13.4609C8.95986 13.4203 9.00557 13.3907 9.05676 13.3755C9.31651 13.2605 9.53557 13.0699 9.68533 12.8285V12.8326ZM9.13839 13.2367C9.1028 13.2061 9.06455 13.1788 9.0241 13.1551C8.92267 13.1922 8.82549 13.24 8.73431 13.2979C8.61598 13.3852 8.51141 13.4898 8.4241 13.6081C8.52516 13.6393 8.63325 13.6393 8.73431 13.6081C8.75655 13.5026 8.81965 13.4101 8.90982 13.351C8.97798 13.2986 9.05557 13.2597 9.13839 13.2367ZM8.9792 13.0816C8.92365 13.0076 8.89484 12.9169 8.89757 12.8244L8.5588 13.053C8.44965 13.1362 8.35218 13.2337 8.269 13.3428C8.38002 13.3082 8.49316 13.2809 8.60777 13.2612C8.75063 13.1999 8.86492 13.1469 8.9792 13.0857V13.0816ZM8.52614 13.3755C8.3299 13.4377 8.12937 13.4855 7.92614 13.5183C7.78651 13.5786 7.66027 13.6659 7.55471 13.7755L7.86492 13.8571C7.97088 13.7804 8.08439 13.7148 8.20369 13.6612C8.3279 13.5865 8.4361 13.488 8.52206 13.3714L8.52614 13.3755ZM8.23226 14.3102C8.29349 14.2775 8.29349 14.2285 8.26492 14.1673C8.2172 14.0993 8.1483 14.0491 8.069 14.0244C7.89349 13.9632 7.69757 13.9102 7.52206 13.8489C7.49149 13.8845 7.46418 13.9228 7.44043 13.9632C7.44043 13.9959 7.44043 14.0244 7.50165 14.0244H7.87308C7.8932 14.0415 7.90724 14.0647 7.91312 14.0904C7.91904 14.1162 7.91643 14.1431 7.90574 14.1673C7.95876 14.1337 8.0188 14.1127 8.08125 14.1061C8.12043 14.1277 8.15455 14.1575 8.18128 14.1934C8.20802 14.2293 8.2268 14.2705 8.23635 14.3142L8.23226 14.3102ZM7.94655 13.8612C8.04761 13.8868 8.145 13.9252 8.23635 13.9755C8.269 13.9428 8.29757 13.9428 8.31798 13.9142C8.37165 13.8184 8.45076 13.7393 8.54655 13.6857C8.49671 13.6896 8.44688 13.6782 8.40369 13.653C8.34247 13.6857 8.28941 13.6857 8.22818 13.7142C8.12884 13.7472 8.03521 13.7954 7.95063 13.8571L7.94655 13.8612ZM8.76696 13.6612C8.73431 13.6938 8.68533 13.6938 8.6241 13.6938C8.47181 13.7846 8.36063 13.9309 8.3139 14.102C8.29525 14.1513 8.29676 14.2059 8.31818 14.2541C8.33957 14.3022 8.37912 14.3399 8.42818 14.3591C8.48876 14.3857 8.55704 14.3888 8.61969 14.3676C8.68239 14.3465 8.73492 14.3027 8.76696 14.2448C8.76696 14.2122 8.79961 14.2122 8.79961 14.1836C8.77871 14.2005 8.75467 14.2131 8.72892 14.2207C8.70312 14.2283 8.6761 14.2308 8.64941 14.2279C8.62267 14.2251 8.5968 14.217 8.57316 14.2042C8.54957 14.1913 8.52876 14.1739 8.51186 14.153C8.47778 14.1108 8.46182 14.0568 8.46757 14.0028C8.47333 13.9488 8.50027 13.8993 8.54247 13.8653C8.57512 13.8653 8.57512 13.8326 8.60369 13.8326C8.69586 13.7733 8.80447 13.7447 8.9139 13.751C8.85267 13.7183 8.79961 13.6693 8.77104 13.6693" fill="white"/>
<path d="M6.91383 15.902C6.94893 15.7619 6.99677 15.6253 7.05669 15.4939C7.19954 15.2041 7.48934 14.4939 8.13832 14.3796C8.19954 14.3796 8.07709 14.2041 7.99546 14.2367C7.91264 14.2598 7.83505 14.2986 7.76689 14.351V14.1755C7.76689 14.1428 7.73424 14.1428 7.70567 14.1428C7.62562 14.1443 7.54714 14.1653 7.47709 14.2041C7.25497 14.5068 7.07383 14.8376 6.93832 15.1877C6.79546 15.5265 6.70975 15.6408 6.53016 15.5959C6.35056 15.551 6.30158 15.3673 6.01587 15.4204C5.9046 15.4503 5.80412 15.5111 5.72607 15.5959C5.74048 15.6285 5.7662 15.6547 5.79848 15.6697C5.83077 15.6847 5.86742 15.6875 5.90158 15.6775C6.07314 15.6821 6.24057 15.7314 6.3873 15.8204C6.56105 15.8608 6.73681 15.8921 6.91383 15.9143V15.902ZM9.51383 13.6653C9.53346 13.7794 9.58273 13.8864 9.65669 13.9755C9.65669 13.9755 9.46077 14.8939 8.73832 14.9755C8.76906 14.8378 8.85069 14.7168 8.96689 14.6367C9.19546 14.4939 9.51383 14.2653 9.48118 13.9265C9.41555 13.9646 9.35632 14.0128 9.30567 14.0694C9.19138 14.2122 8.99546 14.5837 8.62403 14.5837C8.65795 14.4692 8.72636 14.368 8.81995 14.2939C8.98873 14.2019 9.1362 14.0754 9.2526 13.9224C9.30477 13.8087 9.39599 13.7174 9.50975 13.6653H9.51383ZM9.17097 17.0285L9.60363 17.6571L9.9424 17.0571L9.82812 16.8612L9.59954 17.2939L9.30975 16.8612L9.16689 17.0245" fill="white"/>
<path d="M9.06136 16.5061L8.06136 15.0857L8.23687 14.9714L7.72258 14.7755V15.3428L7.89809 15.2L8.95116 16.6857L9.06544 16.5102L9.06136 16.5061ZM5.46544 13.1469C5.6083 13.0041 5.80422 13.1143 6.03279 13.3428C6.26136 13.5714 6.40422 13.751 6.26136 13.8898C6.1185 14.0286 5.92258 13.9224 5.69401 13.7143C5.46544 13.5061 5.35524 13.3061 5.46544 13.1469Z" fill="white"/>
<path d="M5.83213 15.6489C5.76724 15.5933 5.71585 15.5235 5.68189 15.445C5.64797 15.3665 5.63234 15.2813 5.63622 15.1959C5.6294 15.1132 5.63977 15.03 5.66671 14.9515C5.69364 14.8731 5.73658 14.8011 5.79279 14.74C5.84895 14.679 5.9172 14.6303 5.9932 14.5969C6.06915 14.5636 6.15124 14.5464 6.23417 14.5464C6.31715 14.5464 6.3992 14.5636 6.47515 14.5969C6.55115 14.6303 6.6194 14.679 6.67556 14.74C6.73177 14.8011 6.7747 14.8731 6.80164 14.9515C6.82858 15.03 6.83895 15.1132 6.83213 15.1959V15.3102C6.87168 15.2032 6.91948 15.0995 6.97499 14.9999C6.92042 14.8046 6.79185 14.6381 6.61658 14.536C6.44128 14.4339 6.23311 14.4041 6.03622 14.453C5.82699 14.52 5.65254 14.6666 5.5505 14.8612C5.58421 14.6083 5.69217 14.3711 5.86071 14.1795C5.96226 14.1013 6.07699 14.0418 6.19948 14.004C6.09495 14.0043 5.99169 13.9814 5.89711 13.9369C5.80254 13.8925 5.71899 13.8275 5.65254 13.7469C5.49026 13.6311 5.37911 13.4571 5.34234 13.2612C5.36768 13.4149 5.34634 13.5727 5.28111 13.7142C5.11381 14.0311 5.04556 14.3908 5.08519 14.7469C5.16287 15.0875 5.34222 15.3964 5.59948 15.6326C5.62777 15.6633 5.64956 15.6993 5.66356 15.7386C5.6776 15.7778 5.68356 15.8195 5.68111 15.8612H6.22805C6.22805 15.8612 6.34234 15.8612 6.34234 15.7795C6.34234 15.6979 6.28111 15.6979 6.22805 15.6979C6.09062 15.7124 5.95173 15.6985 5.81989 15.6571L5.83213 15.6489ZM8.18316 15.7795C7.91528 15.8614 7.64267 15.9268 7.36683 15.9755C7.20622 16.0008 7.04368 16.0117 6.88111 16.0081V16.0897C6.89209 16.1002 6.90066 16.1129 6.9063 16.127C6.91193 16.1411 6.91446 16.1562 6.91377 16.1714C7.08581 16.1758 7.25793 16.1649 7.42805 16.1387C7.73425 16.1017 8.03377 16.0221 8.31785 15.902L8.1954 15.7673L8.18316 15.7795ZM8.66071 15.7673C9.09997 15.5413 9.4654 15.1943 9.71377 14.7673L9.77499 14.6857C9.74462 14.7011 9.71107 14.7091 9.67703 14.7091C9.64299 14.7091 9.60944 14.7011 9.57907 14.6857L9.54642 14.7469C9.29352 15.1228 8.96034 15.4378 8.57091 15.6693L8.65254 15.7714L8.66071 15.7673ZM6.20356 15.9346H5.89336C5.87299 15.9285 5.85156 15.9266 5.83046 15.9292C5.80932 15.9317 5.78895 15.9385 5.77054 15.9492C5.75217 15.9599 5.73622 15.9743 5.72364 15.9915C5.71107 16.0086 5.70213 16.0282 5.69744 16.0489C5.66479 16.1102 5.69744 16.1632 5.75866 16.2244C5.81989 16.2857 5.87295 16.2571 5.90152 16.2244C6.01875 16.1669 6.13193 16.1014 6.2403 16.0285C6.26071 15.9673 6.29336 15.9061 6.19948 15.9346H6.20356ZM6.45662 16.0775C6.41242 16.0551 6.36336 16.0438 6.31377 16.0448C6.20042 16.1065 6.09605 16.1834 6.00356 16.2734C5.97091 16.3346 6.00356 16.3551 6.06479 16.3877C6.09724 16.4129 6.13817 16.4246 6.17907 16.4204C6.23283 16.4192 6.28401 16.3972 6.32193 16.3591C6.35458 16.3265 6.46479 16.1836 6.49744 16.1632C6.49017 16.1333 6.47622 16.1054 6.45662 16.0816V16.0775ZM6.48928 16.2244C6.45662 16.2571 6.34642 16.3999 6.34642 16.3999C6.34642 16.3999 6.34642 16.4326 6.37907 16.4612H6.41173C6.51401 16.4612 6.6143 16.4329 6.70152 16.3795C6.7954 16.3265 6.87703 16.1836 6.78316 16.151C6.7596 16.1357 6.73316 16.1255 6.70544 16.121C6.67777 16.1164 6.64944 16.1177 6.62226 16.1246C6.59507 16.1315 6.56956 16.1439 6.5474 16.1611C6.52523 16.1782 6.50683 16.1998 6.49336 16.2244H6.48928ZM6.55458 15.853C6.52789 15.8376 6.49764 15.8295 6.46683 15.8295C6.43601 15.8295 6.40577 15.8376 6.37907 15.853C6.34642 15.9142 6.37907 15.9673 6.46071 15.9959C6.50687 16.0237 6.55854 16.0411 6.61218 16.0468C6.66577 16.0524 6.71997 16.0462 6.77091 16.0285C6.81172 15.9959 6.7505 15.9061 6.55458 15.853ZM10.775 12.4285C10.7423 12.5102 10.6607 12.7183 10.6321 12.7673C10.6211 12.842 10.6341 12.9183 10.6693 12.9851C10.7045 13.0519 10.7601 13.1057 10.8281 13.1387C10.9048 13.0924 10.9659 13.0242 11.0036 12.9428C11.0224 12.906 11.0294 12.8643 11.0236 12.8233C11.0177 12.7824 10.9993 12.7443 10.9709 12.7142C10.8893 12.5918 10.8281 12.5061 10.775 12.4244V12.4285ZM10.3423 12.8326C10.3516 13.0124 10.4003 13.188 10.4852 13.3469C10.5286 13.4384 10.5917 13.5192 10.6701 13.5834C10.7484 13.6477 10.84 13.6937 10.9383 13.7183C11.0322 13.7024 11.1206 13.6631 11.1954 13.604C11.1906 13.5528 11.1716 13.5039 11.1406 13.4628C11.1096 13.4217 11.0678 13.3901 11.0199 13.3714C10.7507 13.2577 10.5208 13.0675 10.3587 12.8244" fill="white"/>
<path d="M10.8569 13.2244C10.8925 13.1938 10.9308 13.1665 10.9712 13.1428C11.0726 13.1799 11.1698 13.2277 11.261 13.2856C11.3793 13.3729 11.4839 13.4775 11.5712 13.5958C11.4702 13.627 11.3621 13.627 11.261 13.5958C11.2388 13.4903 11.1757 13.3978 11.0855 13.3387C11.0529 13.2856 10.9712 13.2571 10.8569 13.2244ZM11.0324 13.0815C11.0919 12.9971 11.1207 12.8949 11.1141 12.7917L11.4528 13.0203C11.562 13.1035 11.6595 13.201 11.7426 13.3101C11.6316 13.2755 11.5185 13.2482 11.4039 13.2285C11.2775 13.1931 11.1605 13.1304 11.061 13.0448L11.0324 13.0815ZM11.4692 13.3632C11.6654 13.4254 11.866 13.4732 12.0692 13.506C12.2088 13.5663 12.3351 13.6537 12.4406 13.7632L12.1304 13.8448C12.0244 13.7682 11.9109 13.7025 11.7916 13.6489C11.6653 13.5771 11.5566 13.4781 11.4733 13.3591L11.4692 13.3632ZM11.7508 14.2979C11.6896 14.2652 11.6896 14.2162 11.7182 14.155C11.7659 14.0871 11.8348 14.0368 11.9141 14.0122C12.0896 13.9509 12.2855 13.8979 12.461 13.8366C12.4916 13.8722 12.5189 13.9105 12.5426 13.9509C12.5426 13.9836 12.5426 14.0122 12.4814 14.0122H12.11C12.0899 14.0293 12.0758 14.0524 12.07 14.0782C12.064 14.1039 12.0666 14.1309 12.0773 14.155C12.0243 14.1214 11.9643 14.1004 11.9018 14.0938C11.8254 14.1408 11.7699 14.2153 11.7467 14.302L11.7508 14.2979ZM12.0528 13.8611C11.9518 13.8867 11.8544 13.9251 11.7631 13.9754C11.7471 13.9744 11.7321 13.9677 11.7208 13.9564C11.7095 13.9451 11.7028 13.9301 11.7018 13.9142C11.6482 13.8184 11.5691 13.7393 11.4733 13.6856C11.5231 13.6896 11.5729 13.6782 11.6161 13.653C11.6773 13.6856 11.7304 13.6856 11.7916 13.7142C11.8826 13.7517 11.9689 13.7996 12.0488 13.8571L12.0528 13.8611ZM11.2324 13.6611C11.2651 13.6938 11.3141 13.6938 11.3753 13.6938C11.5276 13.7846 11.6388 13.9309 11.6855 14.102C11.7042 14.1512 11.7026 14.2059 11.6812 14.254C11.6598 14.3022 11.6203 14.34 11.5712 14.3591C11.5106 14.3857 11.4424 14.3887 11.3797 14.3676C11.317 14.3464 11.2645 14.3026 11.2324 14.2448C11.2324 14.2122 11.1998 14.2122 11.1998 14.1836C11.242 14.2177 11.296 14.2336 11.35 14.2279C11.404 14.2222 11.4535 14.1952 11.4875 14.153C11.5216 14.1108 11.5376 14.0567 11.5318 14.0028C11.5261 13.9488 11.4991 13.8993 11.4569 13.8652C11.4243 13.8652 11.4243 13.8326 11.3957 13.8326C11.3035 13.7733 11.1949 13.7446 11.0855 13.7509C11.1467 13.7183 11.1998 13.6693 11.2284 13.6693L11.2324 13.6611ZM13.1182 15.902C13.0817 15.7617 13.0325 15.6251 12.9712 15.4938C12.8284 15.204 12.5386 14.4938 11.8896 14.3795C11.8284 14.3795 11.9508 14.204 12.0324 14.2366C12.1153 14.2597 12.1928 14.2985 12.261 14.3509V14.1754C12.261 14.1428 12.2937 14.1428 12.3222 14.1428C12.3625 14.1361 12.4037 14.138 12.4432 14.1486C12.4826 14.1592 12.5193 14.1781 12.5508 14.204C12.7771 14.5113 12.961 14.8477 13.0977 15.204C13.2406 15.5428 13.3263 15.6571 13.5059 15.6122C13.6855 15.5673 13.7631 15.3836 14.0202 15.4366C14.1315 15.4665 14.232 15.5274 14.31 15.6122C14.2956 15.6447 14.2699 15.6709 14.2376 15.686C14.2053 15.701 14.1686 15.7037 14.1345 15.6938C13.9629 15.6984 13.7955 15.7476 13.6488 15.8366C13.4637 15.8775 13.2882 15.9088 13.1222 15.9305L13.1182 15.902ZM10.4855 13.6571C10.4659 13.7712 10.4166 13.8782 10.3426 13.9673C10.3426 13.9673 10.5386 14.8856 11.261 14.9673C11.2303 14.8295 11.1486 14.7085 11.0324 14.6285C10.8039 14.4856 10.4855 14.2571 10.5182 13.9183C10.5838 13.9564 10.643 14.0046 10.6937 14.0611C10.808 14.204 11.0039 14.5754 11.3753 14.5754C11.3414 14.461 11.273 14.3597 11.1794 14.2856C11.0106 14.1937 10.8631 14.0671 10.7467 13.9142C10.6915 13.8026 10.6012 13.7122 10.4896 13.6571H10.4855ZM9.99979 14.5346C10.1153 14.7625 10.2608 14.974 10.4324 15.1632C10.5467 15.2775 10.8406 15.5713 10.9998 15.7101C10.7491 15.6525 10.5155 15.5364 10.3182 15.3713C10.2225 15.4279 10.1174 15.4666 10.008 15.4856C9.89738 15.4709 9.79142 15.4319 9.69775 15.3713C9.50424 15.5422 9.26913 15.659 9.01611 15.7101C9.15897 15.5673 9.46918 15.2775 9.58346 15.1632C9.76979 14.9909 9.91008 14.7749 9.99163 14.5346" fill="white"/>
<path d="M9.99982 15.5673C10.0884 15.5616 10.1753 15.5409 10.257 15.5061C10.2039 15.6405 10.115 15.7577 9.99982 15.8449C9.89145 15.7511 9.80386 15.6357 9.74268 15.5061C9.82431 15.5409 9.91125 15.5616 9.99982 15.5673Z" fill="white"/>
<path d="M10.371 17.6531L12.1139 15.2286L12.2894 15.3714V14.8041L11.7751 15L11.9506 15.1143L10.4118 17.2816L9.59552 15.8571L9.51388 16L8.83225 17.0531L8.65674 16.9388V17.5061L9.20368 17.3102L9.02817 17.1959L9.62817 16.2775L10.371 17.649" fill="white"/>
<path d="M10.6815 16.6815L10.3917 16.2285C10.359 16.3101 10.2488 16.4571 10.1631 16.6611L10.0488 16.4326L10.3876 15.8326L10.4692 15.9754L10.7794 16.5224L10.6774 16.6775L10.6815 16.6815ZM11.0488 16.8203L11.1631 17.0162L11.3386 16.902V17.4693L10.7917 17.2734L10.9672 17.1591L10.8856 17.0448L11.0488 16.8162V16.8203ZM14.5386 13.1428C14.3958 12.9999 14.1998 13.1101 13.9713 13.3387C13.7427 13.5673 13.5998 13.7469 13.7427 13.8856C13.8856 14.0244 14.0815 13.9183 14.3101 13.7101C14.5386 13.502 14.6488 13.302 14.5386 13.1428Z" fill="white"/>
<path d="M14.2 15.649C14.2649 15.5934 14.3163 15.5236 14.3502 15.4451C14.3842 15.3666 14.3998 15.2814 14.3959 15.196C14.3835 15.0459 14.3151 14.906 14.2044 14.804C14.0936 14.702 13.9485 14.6454 13.798 14.6454C13.6474 14.6454 13.5023 14.702 13.3916 14.804C13.2808 14.906 13.2124 15.0459 13.2 15.196V15.3103C13.1674 15.249 13.0571 15.0205 13.0571 15.0001C13.1117 14.8047 13.2403 14.6383 13.4156 14.5361C13.5909 14.434 13.799 14.4042 13.9959 14.4531C14.2051 14.5201 14.3796 14.6668 14.4816 14.8613C14.4479 14.6084 14.34 14.3712 14.1714 14.1797C14.0699 14.1014 13.9551 14.0419 13.8327 14.0041C13.9372 14.0044 14.0405 13.9815 14.135 13.937C14.2296 13.8926 14.3132 13.8277 14.3796 13.747C14.5443 13.631 14.6571 13.4552 14.6939 13.2572C14.6685 13.411 14.6899 13.5688 14.7551 13.7103C14.9224 14.0271 14.9907 14.3868 14.951 14.7429C14.8734 15.0835 14.694 15.3924 14.4367 15.6286C14.4085 15.6593 14.3867 15.6953 14.3727 15.7346C14.3586 15.7739 14.3527 15.8156 14.3551 15.8572H13.7959C13.7959 15.8572 13.6816 15.8572 13.6816 15.7756C13.6816 15.6939 13.7429 15.6939 13.7959 15.6939C13.9333 15.7052 14.0716 15.6913 14.2041 15.6531L14.2 15.649ZM11.3755 15.7756C10.9428 15.5405 10.5796 15.1956 10.3225 14.7756L10.2612 14.6939C10.2916 14.7094 10.3251 14.7174 10.3592 14.7174C10.3932 14.7174 10.4268 14.7094 10.4572 14.6939L10.4898 14.7552C10.742 15.1291 11.0737 15.4427 11.4612 15.6735L11.3796 15.7756H11.3755ZM11.7878 15.7756C12.0556 15.8574 12.3283 15.9228 12.6041 15.9715C12.7647 15.9969 12.9272 16.0078 13.0898 16.0041V16.0858C13.0788 16.0963 13.0703 16.109 13.0646 16.123C13.059 16.1371 13.0565 16.1523 13.0571 16.1674C12.8851 16.1719 12.713 16.1609 12.5429 16.1348C12.2438 16.0972 11.9513 16.019 11.6735 15.9021L11.7959 15.7674L11.7878 15.7756ZM13.7674 15.9307H14.0776C14.1612 15.9287 14.2426 15.9578 14.3061 16.0123C14.3067 16.0488 14.2998 16.0851 14.2858 16.1188C14.2717 16.1525 14.2509 16.183 14.2245 16.2082C14.1633 16.2409 14.1102 16.2409 14.0816 16.2082C13.9644 16.1507 13.8512 16.0852 13.7429 16.0123C13.7225 15.9919 13.6898 15.898 13.7755 15.9307H13.7674ZM13.5184 16.0735C13.5731 16.0477 13.6336 16.0365 13.6939 16.0409C13.8072 16.1025 13.9116 16.1794 14.0041 16.2694C14.0367 16.3307 14.0041 16.3511 13.9429 16.3837C13.9104 16.409 13.8695 16.4207 13.8286 16.4164C13.7748 16.4152 13.7236 16.3932 13.6857 16.3552C13.6531 16.3225 13.5429 16.1797 13.5102 16.1592C13.5158 16.1323 13.5158 16.1045 13.5102 16.0776L13.5184 16.0735ZM13.4694 16.2286C13.502 16.2613 13.6123 16.4041 13.6123 16.4041C13.6123 16.4041 13.6122 16.4368 13.5796 16.4654H13.5469C13.4447 16.4654 13.3444 16.4371 13.2572 16.3837C13.1755 16.3225 13.0816 16.1878 13.1755 16.1552C13.1987 16.1386 13.2251 16.1274 13.2531 16.1221C13.2811 16.1169 13.3098 16.1178 13.3374 16.1248C13.365 16.1317 13.3907 16.1447 13.4128 16.1626C13.4349 16.1805 13.4528 16.2031 13.4653 16.2286H13.4694ZM13.4041 15.8572C13.4308 15.8418 13.461 15.8337 13.4918 15.8337C13.5227 15.8337 13.5529 15.8418 13.5796 15.8572C13.6122 15.9184 13.5796 15.9715 13.498 16.0001C13.4522 16.0288 13.4004 16.0466 13.3467 16.0523C13.2929 16.0579 13.2385 16.0512 13.1878 16.0327C13.1469 16.0001 13.2082 15.9103 13.4041 15.8572Z" fill="white"/>
<path d="M39.0485 6.79589C38.9668 6.02038 38.5954 5.62854 37.7383 5.62854H36.6566L36.5138 10.0041H37.3301C37.3301 10.0041 37.4117 7.96324 37.4117 7.88977H38.4117C38.4117 7.9714 38.5873 10.0041 38.5873 10.0041H39.4036C39.3709 9.9714 39.0852 6.9714 39.0526 6.79589H39.0485ZM37.4199 7.14691C37.4199 7.06528 37.4526 6.43671 37.4526 6.33058H37.5954C38.1628 6.33058 38.277 6.44487 38.3383 7.14691H37.4199ZM29.4199 12.8041C29.3383 12.0285 28.9668 11.6367 28.1097 11.6367H27.0281L26.8852 16.0122H27.7015C27.7015 16.0122 27.7832 13.9714 27.7832 13.8979H28.7832C28.7832 13.9796 28.9587 16.0122 28.9587 16.0122H29.775C29.7424 15.9714 29.4566 12.9673 29.424 12.8041H29.4199ZM27.7913 13.1428C27.7913 13.0612 27.824 12.4326 27.824 12.3265H27.9668C28.5342 12.3265 28.6485 12.4408 28.7097 13.1428H27.7913ZM23.4771 5.62854V9.99589H24.2934V6.32242H25.2648V9.99589H26.0811V5.62854H23.4771ZM31.9709 7.14691H31.5383C31.3934 7.15316 31.2505 7.11311 31.1301 7.03262C31.1019 7.00197 31.0799 6.96593 31.066 6.92667C31.0522 6.88736 31.046 6.84569 31.0485 6.80405V5.62854H30.2322V6.88569C30.2277 7.02258 30.2558 7.15854 30.3146 7.28218C30.3738 7.40581 30.4615 7.5134 30.5709 7.59589C30.7987 7.78871 31.0889 7.89177 31.3873 7.88569H31.9546V9.99997H32.7709V5.62854H31.9546V7.14691H31.9709ZM33.6485 5.62854V6.33875H34.3097V10.0122H35.126V6.33875H35.7873V5.62854H33.6485ZM32.473 11.5918V12.9959H31.3587V11.5959H30.5628V15.9714H31.3587V13.7428H32.473V15.9714H33.2893V11.5959L32.473 11.5918ZM24.6526 13.0449H24.2811V12.3469H25.7138V11.6367H23.4852V16.0122H24.7097C24.9024 16.0149 25.093 15.9777 25.2705 15.903C25.4481 15.8283 25.6081 15.7177 25.7407 15.5782C25.8734 15.4386 25.9758 15.2732 26.0411 15.0922C26.1068 14.9112 26.1342 14.7186 26.1219 14.5265C26.0893 14.0326 25.926 13.0612 24.6648 13.0612L24.6526 13.0449ZM24.5505 15.3102C24.4689 15.3102 24.2607 15.2775 24.2607 15.2775V13.7428H24.4036C24.8117 13.7428 25.2893 13.7102 25.2893 14.5183C25.2893 15.2612 24.775 15.3143 24.5464 15.3143L24.5505 15.3102ZM29.6566 7.65711C29.6624 7.17369 29.5636 6.69471 29.3668 6.25303C29.2771 6.03185 29.1228 5.84275 28.924 5.7103C28.7252 5.57785 28.4913 5.50813 28.2526 5.51018H28.2199C27.9819 5.51242 27.7501 5.58385 27.5522 5.71577C27.3542 5.84769 27.1991 6.03438 27.1056 6.25303C26.9109 6.69532 26.8122 7.17385 26.8158 7.65711V7.79997C26.8056 8.15642 26.8538 8.51218 26.9587 8.85303C27.1873 9.73875 27.6689 10.049 28.2158 10.0775H28.2485C28.7954 10.0775 29.2811 9.76732 29.5056 8.85303C29.5938 8.50866 29.6415 8.15532 29.6485 7.79997V7.65711H29.6566ZM27.6077 7.79997C27.6077 6.63262 27.8975 6.23262 28.2077 6.23262C28.5179 6.23262 28.8077 6.64079 28.8077 7.79997C28.8077 8.95915 28.5179 9.33875 28.2077 9.33875C27.8975 9.33875 27.6403 8.93058 27.6077 7.79997ZM37.2362 15.9632L36.2648 13.3918C36.4954 13.2169 36.6607 12.9697 36.7342 12.6898C36.7954 12.4 36.8771 11.6081 36.8771 11.6081H36.0607C36.0607 11.6898 36.0281 11.9469 35.9995 12.2367C35.9668 12.6694 35.824 13.053 35.4322 13.053H35.1424V11.6163H34.326V15.9714H35.1424V13.7428H35.6281L36.4444 15.9714L37.2362 15.9632Z" fill="white"/>
</svg>
