<svg width="80" height="20" viewBox="0 0 80 20" fill="none" xmlns="http://www.w3.org/2000/svg">
<path d="M16.5598 5.57604H15.0278C15.1358 5.70004 15.1518 5.81204 15.1518 6.08004V9.20004C15.1762 9.37768 15.1318 9.55796 15.0278 9.70404H16.1798C16.0718 9.57604 16.0558 9.47204 16.0558 9.20004V8.40004H16.5758C17.6398 8.40004 18.3038 7.86004 18.3038 6.94004C18.3038 6.02004 17.6558 5.57604 16.5598 5.57604ZM16.4158 7.89604H16.0158V6.04404H16.4158C16.5427 6.02704 16.6717 6.03852 16.7935 6.07772C16.9154 6.11688 17.0269 6.18276 17.12 6.27052C17.2132 6.35828 17.2855 6.46572 17.3318 6.585C17.3782 6.70432 17.3973 6.83244 17.3878 6.96004C17.3968 7.0884 17.3774 7.21712 17.3312 7.3372C17.285 7.45724 17.213 7.56572 17.1204 7.65496C17.0277 7.7442 16.9166 7.81204 16.7948 7.85368C16.6731 7.89536 16.5438 7.9098 16.4158 7.89604ZM20.0878 9.62404L18.8158 6.74804C18.7334 6.5302 18.6113 6.32948 18.4558 6.15604H19.7158C19.6757 6.24676 19.655 6.34484 19.655 6.44404C19.655 6.54324 19.6757 6.64132 19.7158 6.73204L20.5158 8.60404L21.2198 6.69604C21.2554 6.61044 21.2737 6.51872 21.2737 6.42604C21.2737 6.33336 21.2554 6.2416 21.2198 6.15604H22.1038C21.9582 6.29936 21.8533 6.4788 21.7998 6.67604L20.8078 9.28804C20.5398 9.99204 20.2118 10.62 19.3678 10.62C19.009 10.633 18.6596 10.5036 18.3958 10.26L18.6318 9.75604C18.7076 9.8824 18.8158 9.9862 18.9452 10.0566C19.0747 10.1269 19.2206 10.1612 19.3678 10.156C19.7078 10.184 19.9438 10 20.1038 9.62804L20.0878 9.62404ZM23.8158 9.75204C22.8798 9.75204 22.1238 9.16004 22.1238 7.91604C22.1156 7.66564 22.1597 7.41624 22.2534 7.18384C22.347 6.95148 22.4882 6.7412 22.6678 6.56648C22.8474 6.39176 23.0615 6.25648 23.2964 6.16928C23.5312 6.08208 23.7818 6.04488 24.0318 6.06004C24.4998 6.06004 24.7718 6.16804 25.0038 6.16804C25.1098 6.17168 25.2148 6.14684 25.3078 6.09604L24.9678 6.89604C24.8569 6.772 24.7214 6.67236 24.5699 6.60352C24.4184 6.53464 24.2542 6.49804 24.0878 6.49604C23.4238 6.49604 23.0238 7.07204 23.0238 7.93604C23.0238 8.80004 23.3318 9.28804 24.0318 9.28804C24.2472 9.29196 24.4604 9.24508 24.6543 9.15128C24.8482 9.05748 25.0173 8.91932 25.1478 8.74804L25.3078 9.14804C25.1195 9.35464 24.8876 9.51676 24.6288 9.62264C24.37 9.72848 24.091 9.7754 23.8118 9.76004L23.8158 9.75204ZM27.1798 9.75204C26.2438 9.75204 25.4878 9.16004 25.4878 7.91604C25.4796 7.66564 25.5237 7.41624 25.6174 7.18384C25.711 6.95148 25.8522 6.7412 26.0318 6.56648C26.2114 6.39176 26.4255 6.25648 26.6604 6.16928C26.8952 6.08208 27.1458 6.04488 27.3958 6.06004C27.8638 6.06004 28.1358 6.16804 28.3678 6.16804C28.4738 6.17168 28.5788 6.14684 28.6718 6.09604L28.3478 6.89604C28.2369 6.772 28.1014 6.67236 27.9499 6.60352C27.7984 6.53464 27.6342 6.49804 27.4678 6.49604C26.8158 6.49204 26.4158 7.07204 26.4158 7.93204C26.4158 8.79204 26.7198 9.28404 27.4238 9.28404C27.6392 9.28796 27.8524 9.24108 28.0463 9.14728C28.2402 9.05348 28.4093 8.91532 28.5398 8.74404L28.6998 9.14404C28.5096 9.34468 28.279 9.50268 28.0232 9.60748C27.7673 9.71228 27.4922 9.76156 27.2158 9.75204H27.1798ZM30.0958 7.88004L31.3198 6.60004C31.5358 6.38404 31.5558 6.29204 31.5558 6.13204H32.6558C32.4244 6.2834 32.2099 6.45908 32.0158 6.65604L30.9558 7.71604L32.1078 9.12004C32.2804 9.35004 32.4948 9.54548 32.7398 9.69604H31.3558C31.3612 9.6216 31.3497 9.54688 31.322 9.4776C31.2942 9.40828 31.2511 9.3462 31.1958 9.29604L30.0958 7.95204V9.20004C30.0689 9.37784 30.1135 9.55904 30.2198 9.70404H29.1038C29.2036 9.55628 29.2437 9.37616 29.2158 9.20004V6.64004C29.2428 6.46224 29.1982 6.28104 29.0918 6.13604H30.2078C30.1038 6.28212 30.0595 6.46236 30.0838 6.64004V7.88004H30.0958ZM35.4958 6.64004C35.5228 6.46224 35.4782 6.28104 35.3718 6.13604H36.4878C36.3838 6.28212 36.3394 6.46236 36.3638 6.64004V9.20004C36.337 9.37784 36.3814 9.55904 36.4878 9.70404H35.3678C35.4733 9.55852 35.519 9.3782 35.4958 9.20004V7.46404L33.9838 9.06404V9.20004C33.9569 9.37784 34.0015 9.55904 34.1078 9.70404H32.9918C33.0973 9.55852 33.143 9.3782 33.1198 9.20004V6.64004C33.1468 6.46224 33.1022 6.28104 32.9958 6.13604H34.1118C34.0078 6.28212 33.9635 6.46236 33.9878 6.64004V8.36804L35.4998 6.76804L35.4958 6.64004ZM39.6158 6.64004C39.6426 6.46224 39.5982 6.28104 39.4918 6.13604H40.6078C40.5038 6.28212 40.4594 6.46236 40.4838 6.64004V9.20004C40.457 9.37784 40.5014 9.55904 40.6078 9.70404H39.4918C39.5958 9.55796 39.6402 9.37768 39.6158 9.20004V7.46404L38.1038 9.06404V9.20004C38.077 9.37784 38.1214 9.55904 38.2278 9.70404H37.1118C37.2158 9.55796 37.2602 9.37768 37.2358 9.20004V6.64004C37.2626 6.46224 37.2182 6.28104 37.1118 6.13604H38.2278C38.1238 6.28212 38.0794 6.46236 38.1038 6.64004V8.36804L39.6158 6.76804V6.64004ZM38.6798 5.09204C38.6182 5.17648 38.581 5.27604 38.5718 5.38004C38.5718 5.48804 38.6438 5.59604 38.8758 5.59604C39.1078 5.59604 39.1798 5.47204 39.1798 5.38004C39.1766 5.27472 39.1386 5.17344 39.0718 5.09204H39.4118C39.4846 5.19128 39.5274 5.30924 39.5358 5.43204C39.5358 5.72004 39.2638 5.88404 38.8518 5.88404C38.4398 5.88404 38.1678 5.72404 38.1678 5.43604C38.1702 5.37148 38.1854 5.30804 38.213 5.2496C38.2402 5.19112 38.2794 5.13888 38.3278 5.09604H38.6718L38.6798 5.09204ZM46.0398 6.44404C45.9058 6.29588 45.7422 6.17764 45.5598 6.097C45.377 6.01636 45.1794 5.97516 44.9798 5.97604C44.1518 5.97604 43.6638 6.62404 43.6638 7.65204C43.6638 8.68004 44.0238 9.29204 44.9958 9.29204C45.2246 9.28308 45.449 9.22736 45.6554 9.12828C45.8618 9.0292 46.0458 8.88892 46.1958 8.71604L46.4278 9.11604C46.2106 9.33716 45.949 9.50936 45.6598 9.62112C45.3706 9.73288 45.061 9.7816 44.7518 9.76404C43.4918 9.76404 42.6998 9.00804 42.6998 7.67604C42.6918 7.388 42.7434 7.1014 42.8514 6.83436C42.9598 6.56728 43.1222 6.32556 43.3286 6.12448C43.535 5.92336 43.7806 5.76724 44.0506 5.66596C44.3202 5.56468 44.6082 5.52044 44.8958 5.53604C45.4718 5.53604 45.6958 5.64404 46.0678 5.64404C46.2282 5.6546 46.3874 5.61092 46.5198 5.52004L46.0398 6.44404Z" fill="#E2E2E2"/>
<path d="M47.156 6.59997C46.8768 6.56973 46.5952 6.63301 46.356 6.77997L46.644 6.15197H49.864L49.588 6.79997C49.5224 6.73445 49.4436 6.68433 49.3564 6.65321C49.2692 6.62205 49.176 6.61073 49.084 6.61997H48.508V9.19597C48.4824 9.37429 48.5284 9.55557 48.636 9.69997H47.52C47.6256 9.55445 47.6712 9.37413 47.648 9.19597V6.59997H47.156ZM53.296 9.69597C53.1304 9.55101 53.006 9.36465 52.936 9.15597L51.656 6.14797H50.648C50.7576 6.24465 50.8496 6.35973 50.92 6.48797L49.768 9.15197C49.682 9.34789 49.5676 9.52989 49.428 9.69197H50.292C50.184 9.47597 50.22 9.38397 50.292 9.11597L50.364 8.89997H51.932L52.004 9.11597C52.076 9.38797 52.132 9.47597 52.004 9.69197L53.296 9.69597ZM50.56 8.47197L51.188 6.97997L51.764 8.47197H50.56ZM56.088 8.07197H54.576V9.17197C54.5504 9.35029 54.5964 9.53157 54.704 9.67597H53.588C53.6936 9.53045 53.7392 9.35017 53.716 9.17197V6.61997C53.7416 6.44165 53.6956 6.26037 53.588 6.11597H54.704C54.5984 6.26149 54.5528 6.44181 54.576 6.61997V7.59997H56.088V6.61997C56.1136 6.44165 56.0676 6.26037 55.96 6.11597H57.076C56.9704 6.26149 56.9248 6.44181 56.948 6.61997V9.17597C56.9224 9.35429 56.9684 9.53557 57.076 9.67997H55.96C56.0656 9.53445 56.1112 9.35417 56.088 9.17597V8.07197ZM60.624 8.87197V6.65997C60.6008 6.48181 60.6464 6.30149 60.752 6.15597H57.952C58.06 6.28397 58.08 6.38797 58.08 6.65997V8.06397C58.08 8.71197 57.972 9.21597 57.324 9.45197V10.08C57.5792 9.84617 57.9136 9.71757 58.26 9.71997H60.112C60.4568 9.72605 60.788 9.85353 61.048 10.08V9.44797C60.918 9.42265 60.802 9.34941 60.7236 9.24269C60.6452 9.13601 60.6096 9.00365 60.624 8.87197ZM59.796 9.06797C59.796 9.11573 59.7772 9.16149 59.7432 9.19525C59.7096 9.22901 59.6636 9.24797 59.616 9.24797H58.416C58.6328 8.90525 58.7272 8.49921 58.684 8.09597V6.76397C58.6808 6.73957 58.6832 6.71469 58.6908 6.69137C58.6988 6.66801 58.712 6.64681 58.7296 6.62941C58.7468 6.61197 58.768 6.59881 58.7912 6.59093C58.8148 6.58305 58.8396 6.58065 58.864 6.58397H59.8L59.796 9.06797ZM65.196 9.69597C65.0304 9.55101 64.906 9.36465 64.836 9.15597L63.556 6.15197H62.548C62.6576 6.24865 62.7496 6.36373 62.82 6.49197L61.668 9.15597C61.582 9.35189 61.4676 9.53389 61.328 9.69597H62.192C62.084 9.47997 62.12 9.38797 62.192 9.11997L62.264 8.90397H63.796L63.904 9.11997C63.976 9.39197 64.032 9.47997 63.904 9.69597H65.196ZM62.444 8.47197L63.072 6.97997L63.648 8.47197H62.444ZM66.844 6.15197H65.404C65.512 6.27997 65.532 6.38397 65.532 6.65597V9.21197C65.5552 9.39017 65.5096 9.57045 65.404 9.71597H66.52C66.412 9.58797 66.392 9.48397 66.392 9.21197V8.63597H66.816C67.804 8.63597 68.416 8.13197 68.416 7.35597C68.416 6.57997 67.896 6.15197 66.816 6.15197H66.844ZM66.716 8.20397H66.416V6.60397H66.724C67.3 6.60397 67.588 6.83597 67.588 7.40397C67.588 7.97197 67.28 8.20397 66.708 8.20397H66.716ZM16.34 12.884H16.016V11.912H16.88C16.9709 11.9007 17.0632 11.9095 17.1503 11.9378C17.2374 11.9661 17.3172 12.0133 17.384 12.076L17.652 11.484H15.048C15.156 11.612 15.172 11.716 15.172 11.988V14.544C15.1964 14.7217 15.152 14.9019 15.048 15.048H16.364C17.192 15.048 17.82 14.78 17.82 13.984C17.82 13.188 17.188 12.884 16.34 12.884ZM16.248 14.592H15.98V13.28H16.248C16.7 13.28 16.984 13.46 16.984 13.928C16.984 14.396 16.684 14.592 16.252 14.592H16.248ZM21.9 15.044C21.7343 14.899 21.6101 14.7126 21.54 14.504L20.264 11.496H19.26C19.3701 11.5939 19.4621 11.7103 19.532 11.84L18.376 14.504C18.284 14.7012 18.1626 14.8833 18.016 15.044H18.88C18.772 14.828 18.808 14.74 18.88 14.468L18.952 14.252H20.484L20.592 14.468C20.664 14.74 20.716 14.828 20.592 15.044H21.9ZM19.164 13.82L19.76 12.328L20.352 13.82H19.164ZM24.764 13.42H23.272V14.52C23.2451 14.6978 23.2896 14.879 23.396 15.024H22.284C22.3908 14.8791 22.4381 14.6987 22.416 14.52V11.968C22.4429 11.7902 22.3984 11.609 22.292 11.464H23.408C23.304 11.6101 23.2596 11.7903 23.284 11.968V12.96H24.796V11.968C24.8229 11.7902 24.7784 11.609 24.672 11.464H25.776C25.672 11.6101 25.6276 11.7903 25.652 11.968V14.524C25.6251 14.7018 25.6696 14.883 25.776 15.028H24.66C24.764 14.8819 24.8084 14.7017 24.784 14.524L24.764 13.42ZM27.464 13.224L28.688 11.948C28.904 11.732 28.924 11.64 28.924 11.48H30.024C29.8026 11.6317 29.5975 11.8059 29.412 12L28.332 13.064L29.484 14.468C29.6566 14.698 29.871 14.8934 30.116 15.044H28.728C28.7334 14.9695 28.7218 14.8948 28.6941 14.8255C28.6664 14.7562 28.6233 14.6941 28.568 14.644L27.468 13.312V14.56C27.4411 14.7378 27.4856 14.919 27.592 15.064H26.476C26.58 14.9179 26.6244 14.7377 26.6 14.56V12C26.6269 11.8222 26.5824 11.641 26.476 11.496H27.592C27.488 11.6421 27.4436 11.8223 27.468 12L27.484 13.228L27.464 13.224ZM69.316 6.59997C69.0368 6.56973 68.7552 6.63301 68.516 6.77997L68.804 6.15197H72.004L71.728 6.79997C71.6624 6.73137 71.5824 6.67793 71.494 6.64337C71.4056 6.60885 71.3108 6.59401 71.216 6.59997H70.64V9.17597C70.6144 9.35429 70.6604 9.53557 70.768 9.67997H69.668C69.7736 9.53445 69.8192 9.35417 69.796 9.17597V6.59997H69.316ZM6.624 3.19997C5.3164 3.19681 4.03724 3.58167 2.94844 4.30585C1.85964 5.03001 1.0102 6.06093 0.5076 7.26809C0.00500779 8.47525 -0.128136 9.80441 0.12504 11.0873C0.3782 12.3702 1.00628 13.5491 1.92976 14.4748C2.85328 15.4006 4.03068 16.0315 5.31296 16.2878C6.5952 16.5441 7.92468 16.4142 9.13308 15.9145C10.3414 15.4148 11.3744 14.5679 12.1012 13.4809C12.828 12.3938 13.216 11.1156 13.216 9.80797C13.217 8.94125 13.0474 8.08281 12.7167 7.28165C12.386 6.48049 11.9007 5.75233 11.2886 5.13873C10.6764 4.52513 9.94944 4.03809 9.14912 3.70543C8.34876 3.37277 7.49072 3.20102 6.624 3.19997ZM6.624 15.728C5.45472 15.7264 4.31216 15.3781 3.34084 14.7272C2.36948 14.0763 1.61296 13.1519 1.16696 12.071C0.72096 10.9901 0.60552 9.80125 0.83516 8.65477C1.06484 7.50825 1.62932 6.45561 2.45724 5.62989C3.28516 4.80421 4.33936 4.24257 5.48648 4.01601C6.6336 3.78945 7.82216 3.90814 8.9018 4.35705C9.98148 4.80601 10.9038 5.56501 11.5521 6.53809C12.2004 7.51121 12.5456 8.65469 12.544 9.82397C12.543 10.6003 12.389 11.3689 12.0909 12.0858C11.7928 12.8027 11.3565 13.4538 10.8068 14.0021C10.257 14.5503 9.60472 14.9849 8.88704 15.281C8.16936 15.5771 7.40036 15.729 6.624 15.728Z" fill="#E2E2E2"/>
<path d="M8.08013 12.148C8.62013 12.74 8.54813 13.84 8.36813 14.344C8.36457 14.3661 8.35633 14.3872 8.34389 14.4058C8.33149 14.4245 8.31517 14.4402 8.29613 14.452C7.98813 14.56 7.61213 14.632 7.43213 14.684C7.78237 14.3753 8.03153 13.9682 8.14709 13.5159C8.26269 13.0636 8.23933 12.5869 8.08013 12.148ZM11.1761 11.444C10.4758 10.837 9.63393 10.416 8.72813 10.22C9.63821 10.6722 10.3726 11.4136 10.8161 12.328C10.972 12.0732 11.1058 11.8056 11.2161 11.528C11.2161 11.496 11.2161 11.48 11.1761 11.444ZM11.5521 9.82401C11.5607 9.80077 11.5607 9.77525 11.5521 9.75201C11.2834 9.63613 11.0067 9.53985 10.7241 9.46401C10.847 9.39501 10.9428 9.28645 10.9961 9.15601C10.704 9.29657 10.3843 9.37037 10.0601 9.37201C10.6102 9.58973 11.1252 9.88761 11.5881 10.256C11.55 10.1154 11.5378 9.96901 11.5521 9.82401Z" fill="#E2E2E2"/>
<path d="M8.8721 11.572C9.06446 11.6347 9.27174 11.6347 9.4641 11.572C8.6641 11.356 8.2041 10.224 6.36809 10.06C6.29609 10.06 6.1001 10.06 6.2041 9.89603C6.45738 9.63671 6.73614 9.40355 7.0361 9.20003C6.9081 9.20003 6.28009 9.25203 6.10009 9.27203C5.92009 9.29203 5.86809 9.27203 5.86809 9.10803C5.86809 9.10803 5.5081 9.45203 5.6881 9.63203C5.75874 9.65183 5.83345 9.65183 5.90409 9.63203C5.97609 9.63203 6.1361 9.56003 6.2481 9.52403C6.17478 9.61831 6.11425 9.72187 6.06809 9.83203C6.06809 9.94003 6.0161 9.99603 6.1961 10.048C6.7403 10.2119 7.25873 10.4516 7.73609 10.76C8.26006 11.0811 8.69034 11.5344 8.98382 12.0742C9.27726 12.6142 9.42358 13.2217 9.4081 13.836C9.65482 13.6592 9.88994 13.4668 10.1121 13.26V13.152C9.83234 12.533 9.4069 11.9909 8.8721 11.572Z" fill="#E2E2E2"/>
<path d="M10.9242 7.60004C10.8162 7.52804 10.2922 7.20004 10.1682 7.13204C10.0593 7.08064 9.96747 6.99904 9.90363 6.89692C9.83979 6.7948 9.80671 6.67648 9.80823 6.55604C9.80823 6.21604 9.62823 5.75604 8.98023 5.20804C8.97087 5.26096 8.97087 5.31512 8.98023 5.36804C8.78815 5.19348 8.55135 5.0758 8.29623 5.02804C8.29623 5.02804 8.34823 4.81204 8.36823 4.68804C8.38823 4.56404 8.29623 4.45204 8.09623 4.56404C7.29623 4.90404 6.00823 4.90404 4.65623 6.20004C4.83615 5.76556 5.12055 5.3822 5.48423 5.08404C5.14135 5.15792 4.80835 5.27204 4.49223 5.42404C4.39543 5.4718 4.31479 5.54692 4.26023 5.64004C3.76719 6.39736 3.43623 7.24856 3.28823 8.14004C3.20375 7.50016 3.20375 6.85192 3.28823 6.21204C3.02311 6.44476 2.78191 6.70336 2.56823 6.98404C2.48375 7.07664 2.43919 7.1988 2.44423 7.32404C2.44783 8.26576 2.64387 9.1968 3.02023 10.06C2.51339 9.55492 2.13131 8.9386 1.90423 8.26004C1.77031 8.66932 1.68047 9.09168 1.63623 9.52004C1.63863 9.70016 1.69431 9.87552 1.79623 10.024C2.33599 10.9492 3.11359 11.7129 4.04823 12.236C3.50823 12.184 2.35623 11.552 1.80023 11.084C1.90335 11.5027 2.06071 11.9061 2.26823 12.284C2.34023 12.448 2.42823 12.516 2.66823 12.644C3.58507 13.1561 4.62739 13.4 5.67623 13.348C4.87847 13.6322 4.01499 13.6766 3.19223 13.476C3.33607 13.623 3.49271 13.7568 3.66023 13.876C4.02947 14.1486 4.45891 14.3284 4.91223 14.4C5.97623 14.616 7.28823 13.86 6.96423 12.436C6.90735 12.5597 6.82535 12.6702 6.72343 12.7604C6.62151 12.8506 6.50187 12.9186 6.37223 12.96C6.89623 12.436 6.84023 11.608 5.92423 11.504C5.54071 11.4766 5.15575 11.4766 4.77223 11.504C4.66347 11.5178 4.55303 11.5054 4.45003 11.4678C4.34707 11.4302 4.25455 11.3686 4.18023 11.288C4.35491 11.2749 4.52855 11.2508 4.70023 11.216C4.99547 11.102 5.30507 11.0293 5.62023 11C5.62023 10.948 5.49223 10.784 5.08023 10.948C5.00819 10.9617 4.93383 10.9572 4.86399 10.9348C4.79411 10.9125 4.73095 10.873 4.68023 10.82C5.08023 10.928 5.25623 10.46 5.65223 10.712C5.72423 10.764 5.86823 10.764 5.81623 10.66C5.78495 10.592 5.73383 10.535 5.66963 10.4964C5.60539 10.4579 5.53099 10.4396 5.45623 10.444C5.06927 10.3829 4.67311 10.42 4.30423 10.552C4.14027 10.6316 3.98923 10.7354 3.85623 10.86C3.82743 10.4972 3.93751 10.1368 4.16423 9.85204C4.55295 9.6108 4.98991 9.45784 5.44423 9.40404C5.42511 9.36196 5.41523 9.31628 5.41523 9.27004C5.41523 9.2238 5.42511 9.17812 5.44423 9.13604C5.57223 8.97204 5.96823 8.68804 8.28823 8.68804L8.10823 8.86804C8.60495 8.9066 9.09447 9.01012 9.56423 9.17604C9.61623 9.17604 9.74423 9.22804 9.90823 8.96004C9.96023 8.88804 9.90823 8.88804 9.78023 8.80004C9.78711 8.75764 9.78711 8.71444 9.78023 8.67204C9.78023 8.60004 9.72823 8.62004 9.70823 8.67204C9.68823 8.72404 9.47623 8.72404 9.43623 8.67204C9.39299 8.58756 9.32939 8.5152 9.25115 8.4614C9.17295 8.40764 9.08259 8.3742 8.98823 8.36404C9.06355 8.29236 9.15695 8.2426 9.25847 8.22004C9.35995 8.19748 9.46567 8.203 9.56423 8.23604C9.56423 8.23604 9.56423 8.34404 9.67223 8.30804C9.78023 8.27204 9.80023 8.20004 9.85223 8.30804C9.86119 8.35024 9.86119 8.39384 9.85223 8.43604C9.85223 8.48804 9.85223 8.50804 9.92423 8.43604L10.0522 8.30804C10.1521 8.34188 10.2604 8.34188 10.3602 8.30804C10.4527 8.26916 10.5341 8.2078 10.597 8.1296C10.6598 8.0514 10.7022 7.95876 10.7202 7.86004C10.8722 7.78804 10.9802 7.62804 10.9242 7.60004ZM6.47623 7.49204C6.57591 7.448 6.67887 7.41188 6.78423 7.38404C6.89223 7.38404 6.96423 7.38404 6.89223 7.45604C6.66023 7.79604 6.66023 8.44404 7.00023 8.57204C6.78979 8.5708 6.57963 8.5882 6.37223 8.62404C6.35583 8.31556 6.38007 8.00624 6.44423 7.70404L6.08423 7.86404C6.10683 7.46072 6.23083 7.06964 6.44483 6.72704C6.65879 6.3844 6.95575 6.10132 7.30823 5.90404C6.84939 6.31312 6.55391 6.87424 6.47623 7.48404V7.49204ZM7.96823 4.93604C7.89623 5.04404 7.69623 5.27604 7.75223 5.44004C7.63539 5.47504 7.52055 5.51644 7.40823 5.56404C7.33623 5.62004 7.30023 5.56404 7.33623 5.49204C7.45159 5.25348 7.63359 5.0534 7.86023 4.91604C8.01623 4.82004 8.01623 4.89204 7.97223 4.92804L7.96823 4.93604ZM9.46023 6.73604C9.46023 6.84404 9.46023 6.86404 9.33223 6.84404C9.28347 6.81968 9.23055 6.80472 9.17623 6.80004H9.12423C9.18311 6.91036 9.20815 7.03556 9.19623 7.16004C9.08315 6.92192 8.92411 6.70848 8.72823 6.53204C8.90463 6.51588 9.08247 6.53352 9.25223 6.58404C9.32423 6.58404 9.41623 6.58404 9.46823 6.27604C9.52383 6.42184 9.52239 6.58324 9.46423 6.72804L9.46023 6.73604Z" fill="#E2E2E2"/>
</svg>
