<svg width="80" height="20" viewBox="0 0 80 20" fill="none" xmlns="http://www.w3.org/2000/svg">
<path fill-rule="evenodd" clip-rule="evenodd" d="M7.23706 11.2255L9.18205 9.32011V8.02198L7.23706 9.92297V11.2255ZM7.23706 6.39382L9.18205 4.47964V3.26072L7.23706 5.1573V6.38942V6.39382ZM7.23706 7.99118L9.18205 6.08579V4.86247L7.23706 6.76346V7.99118ZM6.68261 3.27392L6.41858 3.0275V0H6.12815V2.73707L5.87293 2.48624V0H5.5781V2.20021L5.31847 1.94499V0H5.02805V2.88668L6.98184 4.79207V0H6.68701V3.27392H6.68261ZM7.23706 9.58854L9.18205 7.68315V6.45983L7.23706 8.36082V9.58854ZM5.02365 9.32011L6.97744 11.2255V9.92297L5.02365 8.02198V9.32011ZM8.89162 1.94499L8.632 2.20021V0H8.34157V2.49064L8.07754 2.73707V0H7.78712V3.02309L7.53189 3.27392V0H7.23706V4.79647L9.18205 2.88668V0H8.89162V1.94499ZM5.02365 4.47964L6.97744 6.39382V5.1617L5.02365 3.25632V4.47524V4.47964ZM5.02365 6.08579L6.97744 7.99118V6.75906L5.02365 4.86687V6.08579ZM5.02365 7.68315L6.97744 9.58854V8.36082L5.02365 6.46423V7.68315ZM16.6276 8.69085H11.8927C11.9961 8.53086 12.0511 8.34446 12.0511 8.154C12.0487 7.59793 11.5819 7.13509 11.0258 7.1375C10.4731 7.13987 10.0117 7.60129 10.0093 8.154C10.0093 8.37402 10.0797 8.57644 10.1986 8.74365C10.11 8.8026 10.0542 8.90568 10.0533 9.01208C10.0533 9.12649 10.1149 9.2277 10.1986 9.28491C10.0759 9.45713 10.0098 9.66316 10.0093 9.87456C10.0093 10.4282 10.4722 10.8911 11.0258 10.8911C11.5819 10.8935 12.0487 10.4306 12.0511 9.87456C12.0511 9.67654 11.9939 9.49173 11.8927 9.33771H15.4175V9.55333H15.0654V9.85256H15.4175V10.1606H15.0654V10.7326H15.4175V10.4774H15.9323V10.7326H16.2799V10.1606H15.9323V9.85256H16.2799V9.55333H15.9323V9.33331H16.6276C16.7618 9.33331 16.874 9.22111 16.874 9.08689V8.93727C16.8717 8.80399 16.7609 8.69317 16.6276 8.69085ZM11.5539 9.87896C11.5539 10.1666 11.3134 10.407 11.0258 10.407C10.7382 10.407 10.4978 10.1666 10.4978 9.87896C10.4978 9.6769 10.6352 9.50721 10.7354 9.34211C10.6402 9.26078 10.5842 9.13731 10.5858 9.01208C10.5858 8.88007 10.643 8.76565 10.731 8.68645C10.6362 8.52061 10.499 8.34888 10.5022 8.1496C10.5022 7.86198 10.7426 7.62154 11.0302 7.62154C11.3178 7.62154 11.5583 7.86198 11.5583 8.1496C11.5583 8.36522 11.3119 8.87567 11.3119 8.87567V9.14849C11.3075 9.15289 11.5539 9.66334 11.5539 9.87896ZM3.25467 8.07039V9.34211C3.25467 10.5522 3.78272 11.3355 4.09075 11.6347L6.10615 13.6149C6.66941 14.165 6.76622 14.3454 6.89383 14.6578V13.2497C6.89383 12.1037 6.36096 11.6015 6.01802 11.2784C5.41892 10.7138 4.83119 10.1353 4.24917 9.55333C3.80887 9.14137 3.46869 8.6341 3.25467 8.07039ZM4.24917 12.6952C3.83973 12.3242 3.50385 11.8793 3.25907 11.3839V12.4796C3.24592 13.3239 3.54169 14.1439 4.09075 14.7854L6.10615 16.7524C6.64969 17.2832 6.75887 17.5477 6.88052 17.8423L6.89383 17.8745V16.3916C6.89383 15.2435 6.35909 14.7408 6.01885 14.4209L6.01865 14.4207L6.01812 14.4202C5.42017 13.8579 4.82995 13.276 4.24917 12.6952ZM9.94373 2.34976C9.80426 2.34976 9.66479 2.34984 9.52532 2.35856V2.94822C12.8842 2.69062 16.136 4.60272 17.5437 7.66325C18.005 8.66613 18.2575 9.75236 18.2859 10.8559C18.3429 13.0698 17.4715 15.2534 15.9059 16.8199C14.3404 18.3864 12.1573 19.259 9.94336 19.2034C7.78505 19.2057 5.71415 18.3509 4.18593 16.8268C2.65771 15.3027 1.79727 13.2341 1.79377 11.0758C1.79377 8.58077 2.91588 6.35415 4.68925 4.85801V4.10113C3.60524 4.91222 2.72537 5.96499 2.1196 7.17577C1.51383 8.38655 1.19885 9.72195 1.19971 11.0758C1.19971 15.8943 5.11609 19.8019 9.94776 19.8019C12.2636 19.803 14.4852 18.8845 16.124 17.2482C17.7628 15.6118 18.6847 13.3917 18.687 11.0758C18.687 6.25746 14.7708 2.34996 9.94373 2.34976ZM16.5132 15.0626C16.3944 15.2606 16.2624 15.4542 16.1304 15.6347V13.8921H16.5132V15.0626ZM17.2849 13.348C17.2727 13.3881 17.2604 13.4286 17.2481 13.4696C17.0369 13.254 16.6584 13.2584 16.3196 13.2672H16.1304V12.9592H17.3977C17.3639 13.0875 17.325 13.2157 17.2849 13.348ZM8.46041 12.9108H8.80365V12.9152V16.3915H8.46041V12.9108ZM7.6683 12.246H8.80361C9.09844 12.246 9.30526 12.3076 9.41967 12.422C9.53848 12.532 9.59569 12.7388 9.59569 13.0293V16.2856C9.59569 16.576 9.54288 16.7784 9.41967 16.8928C9.24365 17.0733 8.90922 17.0733 8.63639 17.0733L8.46038 17.0689V18.609L8.80361 18.6706V17.4033C9.33166 17.4033 9.6705 17.2273 9.83331 16.8664V18.7542H9.94772L10.1677 18.7498V13.0865C10.1677 12.7872 10.2249 12.576 10.3438 12.4572C10.4538 12.3384 10.6606 12.2812 10.9466 12.2812C10.9871 12.2812 11.0301 12.2804 11.0749 12.2795C11.3559 12.2741 11.7035 12.2674 11.8971 12.4572C12.0115 12.576 12.0643 12.7916 12.0643 13.0865V14.7586H11.2855V12.9721H10.9466V18.6882C11.061 18.675 11.1666 18.6574 11.2855 18.6354V15.0931H12.0643V18.455C12.2227 18.411 12.3812 18.3626 12.5396 18.3054V15.2251C12.5396 14.873 12.6232 14.609 12.9796 14.4902L12.5836 12.3472H13.3757L13.5077 14.6838H13.6045L13.7365 12.3472H14.5638L14.1193 14.4902C14.489 14.6222 14.5638 14.8466 14.5638 15.2207V17.2141C14.7946 17.041 15.015 16.8543 15.2238 16.6552V12.3296H17.5341L17.5781 12.0128H12.1699L12.2447 12.4044C12.0775 12.0876 11.7519 11.9292 11.2767 11.9292H10.9378C10.3658 11.9292 10.0137 12.158 9.88171 12.6112C9.7629 12.136 9.39767 11.8983 8.79921 11.8983H7.32067V18.2878C7.43508 18.3274 7.54949 18.367 7.6639 18.3978V12.2504L7.6683 12.246ZM14.8366 14.7014L14.4626 14.3494L14.8366 12.4264V14.7014ZM13.4315 17.9177C13.4114 17.9281 13.3913 17.9385 13.3713 17.9489V17.9445V15.1282H13.7233V17.7597C13.6318 17.8145 13.5312 17.8664 13.4315 17.9177Z" fill="#42AB44"/>
<path fill-rule="evenodd" clip-rule="evenodd" d="M66.4539 7.6041L66.3553 6.85779C66.0377 6.92951 65.7122 6.96268 65.3908 7.01268C64.7198 7.11293 64.0604 7.38544 63.6588 7.95614C63.2366 8.57227 63.1659 9.36338 63.1659 10.0895C63.1659 11.276 63.6208 12.4199 64.9331 12.4199C66.0029 12.4199 66.6581 11.5383 66.6581 10.5401C66.6581 9.5557 66.1199 8.73061 65.0669 8.73061C64.7222 8.73061 64.3771 8.83998 64.0882 9.02632C64.1539 8.5851 64.3041 8.28001 64.5388 8.08287C64.7988 7.85411 65.1609 7.76985 65.4964 7.73083C65.8167 7.69651 66.1376 7.66736 66.4539 7.6041ZM64.0601 9.77263C64.2726 9.54944 64.6115 9.4558 64.912 9.4558C65.5242 9.4558 65.7921 9.99008 65.7921 10.5401C65.7921 11.0817 65.5587 11.6807 64.9331 11.6807C64.4277 11.6807 64.1611 11.2834 64.0882 10.8217C64.0363 10.4928 64.0086 10.107 64.0601 9.77263ZM68.8372 11.7228C69.1001 11.7228 69.2995 11.7088 69.4357 11.6806V10.7371C69.1845 10.6618 68.9048 10.6581 68.6471 10.6949C68.3774 10.7354 68.1331 10.8889 68.1331 11.1877C68.1331 11.6041 68.4727 11.7228 68.8372 11.7228ZM68.7668 8.54748C69.7025 8.54748 70.2594 9.06401 70.2594 10.0049V12.2368C69.5923 12.3798 68.8346 12.4908 68.1613 12.3354C67.5978 12.2053 67.2812 11.7827 67.2812 11.2089C67.2812 10.6338 67.6747 10.2374 68.2247 10.1246C68.6225 10.0351 69.0396 10.0436 69.4357 10.1387C69.4357 9.62971 69.2493 9.26563 68.6823 9.26563C68.3673 9.26563 68.0369 9.29807 67.7389 9.40645L67.6332 8.71646C67.9915 8.59186 68.3897 8.54748 68.7668 8.54748ZM73.5417 12.3213H74.3936V8.63902H73.5417V10.0753H72.1546V8.63902H71.3027V12.3213H72.1546V10.7794H73.5417V12.3213ZM76.3282 10.1176V8.63902H75.4763V12.3213H76.3282V10.6667C76.9117 11.099 77.4265 11.7099 77.8138 12.3213H78.7995C78.3827 11.5755 77.778 10.8634 77.1238 10.3147C77.6636 9.77492 78.2006 9.22197 78.6938 8.63902H77.6941C77.2631 9.1508 76.8012 9.64455 76.3282 10.1176ZM59.6103 8.75193C59.98 8.60974 60.4063 8.55479 60.8002 8.55479C61.4552 8.55479 62.3069 8.79053 62.3069 9.58977C62.3069 9.94218 62.0878 10.245 61.7718 10.3924C62.1873 10.5494 62.4266 10.8913 62.4266 11.3359C62.4266 12.1673 61.5318 12.4131 60.8354 12.4131C60.4027 12.4131 59.9186 12.367 59.5188 12.1878L59.6666 11.4978C60.0212 11.6471 60.411 11.702 60.7932 11.702C61.3095 11.702 61.5676 11.5518 61.5676 11.2514C61.5676 10.8523 61.1568 10.7515 60.8213 10.7515H60.1173V10.1178H60.8143C61.0981 10.1178 61.4479 10.0318 61.4479 9.68834C61.4479 9.34686 61.0328 9.25886 60.765 9.25886C60.4416 9.25886 60.0637 9.30928 59.7652 9.44192L59.6103 8.75193ZM58.9978 10.4766C58.9978 9.44092 58.3157 8.54748 57.2305 8.54748C56.1435 8.54748 55.4633 9.4414 55.4633 10.4766C55.4633 11.5141 56.1383 12.4199 57.2305 12.4199C58.3285 12.4199 58.9978 11.5191 58.9978 10.4766ZM58.1247 10.4766C58.1247 11.0361 57.8824 11.6806 57.2305 11.6806C56.5728 11.6806 56.3364 11.0406 56.3364 10.4766C56.3364 9.9157 56.5797 9.28676 57.2305 9.28676C57.8755 9.28676 58.1247 9.92015 58.1247 10.4766ZM53.3883 9.84297L54.1698 8.63902H55.064L53.853 10.3781C54.3261 10.9914 54.8037 11.6287 55.1555 12.3213H54.2332C54.0028 11.8351 53.679 11.3727 53.3601 10.9413C53.0262 11.3706 52.7393 11.8399 52.4871 12.3213H51.614C51.9556 11.6381 52.4199 11.0058 52.8884 10.4062L51.6704 8.63902H52.6068L53.3883 9.84297ZM49.3622 9.94858C49.2261 9.96267 49.1228 9.97909 49.0524 9.99787V8.63902H48.2005V12.2298C48.6932 12.3435 49.1945 12.3987 49.7001 12.3987C50.5019 12.3987 51.2913 12.0783 51.2913 11.1666C51.2913 10.105 50.2287 9.85894 49.3622 9.94858ZM49.3199 11.7228C49.2026 11.7135 49.1134 11.7041 49.0524 11.6947V10.6456C49.1228 10.6268 49.212 10.6151 49.3199 10.6104C49.7266 10.5751 50.4394 10.5815 50.4394 11.1525C50.4394 11.7648 49.767 11.74 49.3199 11.7228ZM45.3259 9.34309C45.3112 9.98737 45.3049 10.6548 45.0724 11.2652C44.8185 11.9317 44.2283 12.3231 43.5305 12.3917L43.4108 11.6806C43.9803 11.5689 44.2949 11.1905 44.3965 10.6315C44.4668 10.3002 44.4932 9.95582 44.5021 9.61767C44.5107 9.2915 44.5092 8.96527 44.5092 8.63902H47.1142V12.3213H46.2623V9.34309H45.3259ZM39.6562 10.4978C39.6562 11.6439 40.3954 12.4128 41.5501 12.4128C41.9333 12.4128 42.3914 12.3689 42.74 12.1946L42.6273 11.4975C42.3262 11.6266 41.9807 11.6735 41.6557 11.6735C41.0548 11.6735 40.5863 11.3747 40.5362 10.7442H42.9653C42.9757 10.6399 42.9794 10.5322 42.9794 10.4273C42.9794 9.40906 42.4685 8.54748 41.367 8.54748C40.2896 8.54748 39.6562 9.49791 39.6562 10.4978ZM42.1274 10.1176H40.5433C40.602 9.66729 40.8797 9.25859 41.3741 9.25859C41.8523 9.25859 42.1274 9.67112 42.1274 10.1176ZM36.3352 10.4837C36.3352 9.42148 37.0631 8.54748 38.1587 8.54748C38.5061 8.54748 38.8347 8.61085 39.1444 8.73758L38.9614 9.43461C38.7316 9.33614 38.4787 9.28676 38.2292 9.28676C37.5316 9.28676 37.2083 9.84044 37.2083 10.4837C37.2083 11.1813 37.5544 11.6735 38.2855 11.6735C38.5539 11.6735 38.8318 11.6277 39.0811 11.5257L39.2008 12.2298C38.9015 12.3794 38.5158 12.4128 38.1869 12.4128C37.0347 12.4128 36.3352 11.6114 36.3352 10.4837ZM33.0143 10.4837C33.0143 11.6114 33.7137 12.4128 34.866 12.4128C35.1949 12.4128 35.5805 12.3794 35.8798 12.2298L35.7601 11.5257C35.5109 11.6277 35.233 11.6735 34.9645 11.6735C34.2334 11.6735 33.8873 11.1813 33.8873 10.4837C33.8873 9.84044 34.2107 9.28676 34.9082 9.28676C35.1578 9.28676 35.4107 9.33614 35.6404 9.43461L35.8235 8.73758C35.5137 8.61085 35.1851 8.54748 34.8378 8.54748C33.7422 8.54748 33.0143 9.42148 33.0143 10.4837ZM32.3408 10.4766C32.3408 11.5191 31.6715 12.4199 30.5736 12.4199C29.4814 12.4199 28.8064 11.5141 28.8064 10.4766C28.8064 9.4414 29.4865 8.54748 30.5736 8.54748C31.6587 8.54748 32.3408 9.44092 32.3408 10.4766ZM31.4677 10.4766C31.4677 9.92016 31.2185 9.28676 30.5736 9.28676C29.9227 9.28676 29.6794 9.9157 29.6794 10.4766C29.6794 11.0406 29.9158 11.6806 30.5736 11.6806C31.2254 11.6806 31.4677 11.0361 31.4677 10.4766ZM27.6724 7.78004C27.2969 7.52188 26.7548 7.3928 26.046 7.3928C25.588 7.3928 25.1139 7.4107 24.666 7.51249V12.3213H25.5531V10.6034H25.9967C26.3534 10.6034 26.6703 10.5728 26.9472 10.5118C27.7286 10.3397 28.2427 9.81341 28.2427 8.99104C28.2427 8.44186 28.0526 8.0382 27.6724 7.78004ZM25.5531 8.18136C25.6986 8.16728 25.8841 8.16024 26.1094 8.16024C26.6672 8.16024 27.3133 8.3098 27.3133 8.984C27.3133 9.73502 26.5933 9.84296 25.9826 9.84296H25.5531V8.18136Z" fill="white"/>
</svg>
