<svg width="80" height="20" viewBox="0 0 80 20" fill="none" xmlns="http://www.w3.org/2000/svg">
<path d="M36.2002 7.80018L37.7202 6.68018H32.6802V13.3202H37.7202V12.2002H34.1202V10.5202H37.1602V9.40018H34.1202V7.80018H36.2002ZM29.9202 7.80018L31.4402 6.68018H25.6802V13.3202H28.6802C30.3602 13.3202 31.3202 12.5602 31.3202 11.2402C31.3202 9.96018 30.4402 9.28018 28.8402 9.28018H27.0802V7.80018H29.9202ZM28.6402 10.3602C29.5602 10.3602 29.9602 10.6802 29.9602 11.2802C29.9602 11.8802 29.5202 12.2002 28.6402 12.2002H27.1202V10.3602H28.6402ZM41.7602 6.68018H39.0402V13.3202H40.4802V11.4402H41.8002C43.5602 11.4402 44.6402 10.5202 44.6402 9.04018C44.6402 7.56018 43.5202 6.68018 41.7602 6.68018ZM41.7602 10.3202H40.4802V7.76018H41.7602C42.6802 7.76018 43.2002 8.20018 43.2002 9.04018C43.1602 9.88018 42.6802 10.3202 41.7602 10.3202ZM23.2402 11.8802C22.8402 12.0802 22.4402 12.2002 22.0002 12.2002C20.7202 12.2002 19.7602 11.2802 19.7602 10.0002C19.7602 8.72018 20.6802 7.80018 22.0002 7.80018C22.4802 7.80018 22.9202 7.96018 23.3202 8.20018L24.3602 7.44018L24.2802 7.36018C23.6802 6.84018 22.8802 6.56018 21.9602 6.56018C20.9602 6.56018 20.0802 6.88018 19.4002 7.52018C18.7602 8.16018 18.3602 9.04018 18.4002 9.96018C18.4002 10.8802 18.7602 11.7602 19.4002 12.4402C20.0802 13.0802 21.0002 13.4402 21.9202 13.4002C22.9602 13.4002 23.8402 13.0402 24.4802 12.4002L23.5602 11.7202L23.2402 11.8802ZM66.4002 9.40018H63.3202V6.68018H61.8802V13.3202H63.3202V10.6002H66.4002V13.3202H67.8402V6.68018H66.4002V9.40018ZM56.6802 6.68018L53.8002 13.3202H55.2402L55.8002 12.0002H58.8402L59.4002 13.3202H60.9202L58.1202 6.68018H56.6802ZM56.2802 10.8802L57.4002 8.20018L58.4402 10.8802H56.2802ZM73.0402 9.88018L75.6402 6.68018H74.0002L71.8402 9.52018H71.0402V6.68018H69.6002V13.3202H71.0402V10.6402H71.9602L74.1602 13.3202H76.0002L73.0402 9.88018ZM50.8002 9.28018H49.0402V7.80018H52.8002V6.68018H47.6002V13.3202H50.6002C52.2802 13.3202 53.2402 12.5602 53.2402 11.2402C53.2802 9.96018 52.4002 9.28018 50.8002 9.28018ZM50.5602 12.2402H49.0402V10.4002H50.5602C51.4802 10.4002 51.8802 10.7202 51.8802 11.3202C51.9202 11.9202 51.4402 12.2402 50.5602 12.2402Z" fill="#21A038"/>
<path d="M13.7923 6.55249C14.052 6.89274 14.2718 7.2624 14.4474 7.65403L9.46781 11.3741L7.38672 10.052V8.46148L9.46781 9.78358L13.7923 6.55249Z" fill="#21A038"/>
<path d="M5.26292 9.9397C5.26292 9.86833 5.26463 9.79743 5.26807 9.72694L4.00687 9.66431C4.00258 9.75567 4 9.8479 4 9.94099C3.99946 10.6683 4.14063 11.3886 4.4154 12.0605C4.69017 12.7324 5.09314 13.3427 5.60118 13.8564L6.49578 12.9502C6.10471 12.5555 5.79447 12.0863 5.58289 11.5697C5.37131 11.053 5.26257 10.4991 5.26292 9.9397Z" fill="url(#paint0_linear_2729_8728)"/>
<path d="M9.46668 5.67968C9.53707 5.67968 9.60702 5.68229 9.67656 5.68577L9.73967 4.40716C9.64926 4.40281 9.55824 4.40064 9.46668 4.40064C8.74865 4.39975 8.03757 4.54261 7.3742 4.82101C6.71082 5.09941 6.10825 5.50787 5.60107 6.02294L6.49568 6.92958C6.88519 6.53311 7.34819 6.21858 7.85807 6.00408C8.36794 5.78957 8.9146 5.67933 9.46668 5.67968Z" fill="url(#paint1_linear_2729_8728)"/>
<path d="M9.46679 14.2004C9.3964 14.2004 9.32642 14.2004 9.25647 14.1947L9.19336 15.4729C9.28407 15.4775 9.37523 15.4799 9.46679 15.4799C10.1845 15.4806 10.8953 15.3377 11.5583 15.0592C12.2213 14.7807 12.8235 14.3722 13.3303 13.8571L12.4374 12.9509C12.0478 13.3472 11.5848 13.6615 11.0751 13.876C10.5653 14.0904 10.0187 14.2006 9.46679 14.2004Z" fill="url(#paint2_linear_2729_8728)"/>
<path d="M11.8362 6.42301L12.899 5.62904C11.9276 4.8318 10.7149 4.39781 9.46484 4.40003V5.67951C10.3113 5.67845 11.1382 5.9377 11.8362 6.42301Z" fill="url(#paint3_linear_2729_8728)"/>
<path d="M14.933 9.94005C14.9337 9.6072 14.9049 9.27493 14.8471 8.94727L13.6705 9.82606C13.6705 9.86393 13.6705 9.90177 13.6705 9.94005C13.6708 10.5353 13.5477 11.124 13.3091 11.668C13.0705 12.2119 12.7218 12.699 12.2856 13.0976L13.1343 14.0482C13.7014 13.5294 14.1546 12.8956 14.4644 12.1879C14.7743 11.4801 14.9339 10.7143 14.933 9.94005Z" fill="#21A038"/>
<path d="M9.4667 14.2006C8.87929 14.2008 8.29839 14.076 7.76158 13.8342C7.22481 13.5924 6.7441 13.2391 6.35061 12.7971L5.41309 13.6568C5.92497 14.2316 6.55036 14.6909 7.24869 15.005C7.94701 15.3191 8.70267 15.481 9.4667 15.48V14.2006Z" fill="url(#paint4_linear_2729_8728)"/>
<path d="M6.64775 6.78225L5.79951 5.83167C5.23226 6.35041 4.77893 6.98419 4.46892 7.69191C4.15891 8.39963 3.99915 9.16549 4 9.93982H5.26292C5.26266 9.34458 5.3858 8.75589 5.62436 8.21194C5.86292 7.668 6.21158 7.18091 6.64775 6.78225Z" fill="url(#paint5_linear_2729_8728)"/>
<defs>
<linearGradient id="paint0_linear_2729_8728" x1="5.8566" y1="13.6968" x2="4.44363" y2="9.66641" gradientUnits="userSpaceOnUse">
<stop offset="0.14" stop-color="#F1E813"/>
<stop offset="0.3" stop-color="#E6E418"/>
<stop offset="0.58" stop-color="#C9DA26"/>
<stop offset="0.89" stop-color="#A2CC39"/>
</linearGradient>
<linearGradient id="paint1_linear_2729_8728" x1="5.96166" y1="6.24916" x2="9.52752" y2="4.90831" gradientUnits="userSpaceOnUse">
<stop offset="0.06" stop-color="#0FA7DF"/>
<stop offset="0.54" stop-color="#0098F8"/>
<stop offset="0.92" stop-color="#0290EA"/>
</linearGradient>
<linearGradient id="paint2_linear_2729_8728" x1="9.1101" y1="14.7076" x2="13.1341" y2="13.8107" gradientUnits="userSpaceOnUse">
<stop offset="0.12" stop-color="#A2CC39"/>
<stop offset="0.28" stop-color="#86C239"/>
<stop offset="0.87" stop-color="#219F38"/>
</linearGradient>
<linearGradient id="paint3_linear_2729_8728" x1="9.20215" y1="4.82856" x2="12.6459" y2="5.87718" gradientUnits="userSpaceOnUse">
<stop offset="0.06" stop-color="#0290EA"/>
<stop offset="0.79" stop-color="#0C89CA"/>
</linearGradient>
<linearGradient id="paint4_linear_2729_8728" x1="5.72989" y1="13.501" x2="9.48184" y2="14.8846" gradientUnits="userSpaceOnUse">
<stop offset="0.13" stop-color="#F1E813"/>
<stop offset="0.3" stop-color="#EAE616"/>
<stop offset="0.53" stop-color="#D8DF1F"/>
<stop offset="0.8" stop-color="#BAD52D"/>
<stop offset="0.98" stop-color="#A2CC39"/>
</linearGradient>
<linearGradient id="paint5_linear_2729_8728" x1="4.47048" y1="10.0947" x2="6.00696" y2="6.15083" gradientUnits="userSpaceOnUse">
<stop offset="0.07" stop-color="#A2CC39"/>
<stop offset="0.26" stop-color="#81C45E"/>
<stop offset="0.92" stop-color="#0FA7DF"/>
</linearGradient>
</defs>
</svg>
