<svg width="80" height="20" viewBox="0 0 80 20" fill="none" xmlns="http://www.w3.org/2000/svg">
<path d="M4.9304 13.0792C3.2404 13.0792 1.8636 11.7232 1.8636 10.0584C1.8636 8.39355 3.24 7.03715 4.9296 7.03715H5.1216V5.19995H4.93C2.2128 5.19995 0 7.38035 0 10.058C0 12.7532 2.2128 14.9336 4.9304 14.9336H5.122V13.08H4.9304V13.0792Z" fill="#FF4B5F"/>
<path fill-rule="evenodd" clip-rule="evenodd" d="M5.92314 7.82739V5.30396C8.18828 5.75005 9.87793 7.70708 9.87793 10.0586C9.87793 12.4282 8.1875 14.3844 5.92314 14.8141V12.2907H4.92988C3.67588 12.2907 2.66553 11.2946 2.66553 10.0594C2.66553 8.82349 3.67588 7.82739 4.93037 7.82739H5.92314ZM15.4355 12.2555C15.9491 12.2571 16.4471 12.0813 16.8463 11.7579L17.6303 12.5313C17.0555 13.0454 16.2891 13.3547 15.4355 13.3547C13.5887 13.3547 12.1079 11.861 12.1079 10.0586C12.1079 8.2563 13.5887 6.77974 15.4355 6.77974C16.2651 6.77739 17.0659 7.08364 17.6827 7.63833L16.8987 8.41021C16.4943 8.05474 15.9739 7.85942 15.4355 7.86177C14.1979 7.86177 13.2055 8.83989 13.2055 10.0586C13.2055 11.2774 14.1983 12.2555 15.4355 12.2555ZM49.8436 9.95552L52.2999 7.03755H53.2755V13.0797H52.2999V8.71958L49.8436 11.5688L47.3523 8.65083V13.0805H46.3591V7.03755H47.3523V7.07192L47.3695 7.03755L49.8436 9.95552ZM21.7419 13.3375C23.5711 13.3375 25.0695 11.8782 25.0695 10.0586C25.0695 8.2563 23.5711 6.77974 21.7419 6.77974C19.9127 6.77974 18.4147 8.2563 18.4147 10.0586C18.4147 11.861 19.8955 13.3375 21.7419 13.3375ZM21.7247 7.86177C22.9619 7.86177 23.9547 8.83989 23.9547 10.0586C23.9547 11.2774 22.9619 12.2555 21.7247 12.2555C20.4875 12.2555 19.4947 11.2774 19.4947 10.0586C19.4947 8.83989 20.4875 7.86177 21.7247 7.86177ZM42.0211 13.3375C43.8503 13.3375 45.3487 11.8782 45.3487 10.0586C45.3487 8.2563 43.8675 6.77974 42.0211 6.77974C40.1919 6.77974 38.6936 8.2563 38.6936 10.0586C38.6936 11.861 40.1743 13.3375 42.0211 13.3375ZM42.0211 7.86177C43.2583 7.86177 44.2511 8.83989 44.2511 10.0586C44.2511 11.2774 43.2403 12.2555 42.0211 12.2555C40.7839 12.2555 39.7911 11.2774 39.7911 10.0586C39.7911 8.83989 40.7839 7.86177 42.0211 7.86177ZM37.3343 7.03755H38.6763L35.6447 10.0758L38.6411 13.0805H37.3171L34.7907 10.5563H33.7807V13.0805H32.8051V7.03755H33.7807V9.57817H34.8087L37.3343 7.03755ZM78.6767 7.03755H79.9999L76.9859 10.0758L79.9651 13.0805H78.6411L76.1327 10.5563H75.1047V13.0805H74.1291V7.03755H75.1047V9.57817H76.1327L78.6767 7.03755ZM66.6555 13.0797H65.5747L64.9831 11.7758H61.8119L61.2199 13.0805H60.1399L62.8399 7.03755H63.9547L66.6555 13.0797ZM63.3976 8.27349L62.248 10.8141H64.5476L63.3976 8.27349ZM30.9931 10.0586C31.3483 10.3852 31.5507 10.8461 31.5507 11.329C31.5507 12.2899 30.7667 13.0805 29.7907 13.0977H26.2023V7.03755H29.7907C30.7599 7.03599 31.5475 7.81958 31.5507 8.78833C31.5507 9.28599 31.3239 9.73286 30.9931 10.0586ZM29.7735 8.01646H27.1951V9.5602H29.7735C30.2091 9.5602 30.5571 9.21724 30.5571 8.78833C30.5571 8.35864 30.2091 8.01646 29.7735 8.01646ZM27.1951 12.1188H29.7735C30.2095 12.1188 30.5575 11.7579 30.5747 11.3297C30.5747 11.1258 30.4894 10.9344 30.3503 10.793C30.2084 10.6493 30.0106 10.5571 29.7907 10.5571H27.1951V12.1188ZM71.9167 9.57817V7.05474H72.9099V13.0625H71.9167V10.5555H68.3455V13.0625H67.3527V7.05474H68.3455V9.57817H71.9167ZM58.0139 9.57817C58.9896 9.57817 59.7911 10.3672 59.7911 11.329C59.7911 12.2899 58.9899 13.0805 58.0135 13.0969H54.4423V7.03755H59.1987V8.01567H55.4355V9.57817H58.0139ZM55.4359 12.1188H58.0144C58.4499 12.1188 58.7983 11.7579 58.7983 11.3297C58.7983 10.9172 58.4499 10.5571 58.0144 10.5571H55.4359V12.1188Z" fill="#003791"/>
</svg>
