<svg width="80" height="20" viewBox="0 0 80 20" fill="none" xmlns="http://www.w3.org/2000/svg">
<path d="M26.6984 8.20996C25.8653 8.20996 25.2421 8.51828 24.9339 9.0282H24.8672V8.36664H23.3442V15.3742H24.8672V13.1528H24.9339C25.2404 13.6627 25.8653 13.971 26.6984 13.971C28.2614 13.971 29.501 12.6944 29.501 11.0896C29.501 9.48651 28.2614 8.20996 26.6984 8.20996ZM26.3902 12.5845C25.5404 12.5845 24.8672 11.9229 24.8672 11.0896C24.8672 10.2481 25.5404 9.59482 26.3902 9.59482C27.265 9.59482 27.9298 10.2481 27.9298 11.0896C27.9298 11.9312 27.2566 12.5845 26.3902 12.5845Z" fill="#7A3CB2"/>
<path d="M60.7618 8.6213C59.8903 8.6213 59.2085 8.9513 58.7936 9.52455H58.7254C58.8386 8.48801 59.4255 7.98471 60.6882 7.80475L62.8993 7.48477V6.08325L60.5419 6.41825C58.3642 6.72153 57.3193 7.87471 57.3193 9.95285C57.3193 11.456 57.4157 11.931 57.6839 12.4992C58.1056 13.4108 59.1504 13.9707 60.4136 13.9707C62.1145 13.9707 63.4276 12.7642 63.4276 11.1844C63.4261 9.66453 62.3411 8.6213 60.7618 8.6213ZM60.3967 12.5776C59.5305 12.5776 58.8905 11.986 58.8905 11.1844C58.8905 10.3745 59.5218 9.78286 60.3967 9.78286C61.2546 9.78286 61.8879 10.3745 61.8879 11.1844C61.8879 11.986 61.2464 12.5776 60.3967 12.5776Z" fill="#7A3CB2"/>
<path d="M21.7473 6.72125L20.0328 10.1776L17.6967 6.72125H15.8755L19.2663 11.724L19.173 11.914C19.0263 12.2173 18.8331 12.3806 18.3865 12.3806H17.1868V13.8205H18.5565C19.6012 13.8205 20.0228 13.5555 20.4593 12.6839L23.4569 6.7196H21.7473V6.72125Z" fill="#7A3CB2"/>
<path d="M38.2984 8.37256L38.0385 11.7589C37.9985 12.2888 37.8201 12.4821 37.3986 12.4821H37.0254V13.8603H37.9335C38.9549 13.8603 39.4081 13.3937 39.4814 12.4205L39.6814 9.78908H41.5542V13.8137H43.0938V8.37256H38.2984Z" fill="#7A3CB2"/>
<path d="M47.0633 9.61063C47.6865 9.61063 48.1814 9.96059 48.4163 10.4289L49.7777 9.91561C49.3976 8.88071 48.3197 8.21082 47.0317 8.21082C45.3055 8.21082 44.0024 9.45565 44.0024 11.0921C44.0024 12.727 45.3071 13.9735 47.0317 13.9735C48.3197 13.9735 49.3976 13.3036 49.7777 12.2687L48.4163 11.7554C48.1814 12.222 47.6865 12.5736 47.0633 12.5736C46.1969 12.5736 45.5721 11.9587 45.5721 11.0938C45.5721 10.2256 46.1969 9.61063 47.0633 9.61063Z" fill="#7A3CB2"/>
<path d="M54.5866 8.36499L52.2219 11.8246V8.36499H50.6992V13.8144H52.3836L54.7333 10.3798V13.8144H56.256V8.36499H54.5866Z" fill="#7A3CB2"/>
<path d="M34.7315 9.02649H34.6648C34.3582 8.51657 33.7334 8.20825 32.9002 8.20825C31.3373 8.20825 30.0977 9.4848 30.0977 11.0896C30.0977 12.6927 31.3373 13.9709 32.9002 13.9709C33.7334 13.9709 34.3566 13.6627 34.6648 13.1527H34.7315V13.8143H36.2544V8.36493H34.7315V9.02649ZM33.2102 12.5844C32.3437 12.5844 31.6706 11.9312 31.6706 11.0896C31.6706 10.248 32.3354 9.59476 33.2102 9.59476C34.06 9.59476 34.7332 10.248 34.7332 11.0896C34.7315 11.9228 34.06 12.5844 33.2102 12.5844Z" fill="#7A3CB2"/>
<path fill-rule="evenodd" clip-rule="evenodd" d="M6.06885 4.00615C6.1464 4.00993 6.22701 4.01513 6.31117 4.02175V5.17306C6.31117 10.2459 6.50455 12.4389 7.25444 15.8204C6.29628 16.0602 5.27996 16.0602 4.32345 15.8186C5.0783 12.4124 5.2731 10.2194 5.2731 5.17306V4.02175C5.37405 4.01371 5.46932 4.00804 5.56057 4.00473C5.64119 4.00142 5.71826 4 5.7932 4C5.88162 4 5.97287 4.00189 6.06885 4.00615ZM11.5826 10.4294C11.5826 8.45631 10.5079 6.72154 8.89323 5.73335L8.91498 7.07284C9.8748 7.89791 10.4828 9.09792 10.4828 10.4294C10.4828 10.6511 10.4656 10.8691 10.4325 11.0823C10.3748 11.454 10.2696 11.811 10.1247 12.1476C9.42988 11.4875 8.93484 10.7112 8.6268 9.79438C8.25516 8.68468 8.1684 7.46954 8.15516 5.98489L8.15682 5.34659C8.05682 5.30356 7.9554 5.26337 7.8528 5.22554C7.61355 5.13807 7.36816 5.06573 7.11875 5.00994L7.1204 5.983C7.15539 11.1093 8.04358 13.2223 9.36487 14.8105C10.7162 13.7906 11.5826 12.2076 11.5826 10.4294ZM4.46387 5.98394L4.46553 5.01088C4.27451 5.05391 4.08586 5.10639 3.90075 5.16786C3.74023 5.22082 3.5823 5.28086 3.42746 5.34753L3.42911 5.98584C3.41422 7.46906 3.32911 8.68563 2.95748 9.79533C2.65109 10.7121 2.15439 11.4871 1.45959 12.1485C1.36999 11.94 1.29552 11.724 1.23807 11.5017C1.14942 11.1585 1.10143 10.7996 1.10143 10.4303C1.10143 9.09698 1.70782 7.89886 2.66929 7.07379L2.69104 5.7343C1.07471 6.72059 0 8.45536 0 10.4303C0 12.2086 0.868094 13.7916 2.21775 14.8115C3.54235 13.2251 4.42888 11.1102 4.46387 5.98394Z" fill="#7A3CB2"/>
</svg>
