<svg width="80" height="20" viewBox="0 0 80 20" fill="none" xmlns="http://www.w3.org/2000/svg">
<path d="M2.76188 2.80005L2.0707 4.69595H11.6455L12.3366 2.80005H2.76188ZM1.72552 5.6431L1.03435 7.5386H10.6091L11.3003 5.6431H1.72552ZM0.691173 8.48615L0 10.3812H9.57475L10.2651 8.48575C10.2655 8.48615 0.691173 8.48615 0.691173 8.48615Z" fill="#009FDF"/>
<path d="M20.1289 10.9761V11.0155C20.5589 11.1734 20.97 11.4499 21.1849 11.6275C21.8496 12.1805 22.1433 12.9106 22.1433 13.8582C22.1433 15.4185 21.322 16.5433 19.9722 16.8989C19.5611 17.0175 19.1311 17.0568 18.3294 17.0568H14.2427V5.64526H17.8609C18.6043 5.64526 19.1122 5.68464 19.5619 5.80279C20.8723 6.15842 21.7331 7.06659 21.7331 8.5076C21.7331 9.27794 21.4594 9.92973 21.0097 10.3637C20.814 10.561 20.5404 10.7981 20.1297 10.9757L20.1289 10.9761ZM16.5111 12.1805V15.1814H18.0759C18.5448 15.1814 18.9756 15.1421 19.2882 14.8459C19.6013 14.5497 19.7379 14.1744 19.7379 13.6809C19.7379 13.3064 19.6398 12.9508 19.4446 12.694C19.1122 12.2793 18.7011 12.1805 17.9975 12.1805H16.5107H16.5111ZM16.491 10.2058H17.7624C18.1534 10.2058 18.3491 10.2058 18.5444 10.1467C19.0728 9.9884 19.4052 9.51543 19.4052 8.86364C19.4052 8.0937 19.0532 7.75776 18.5444 7.60024C18.329 7.54076 18.1144 7.52148 17.6841 7.52148H16.491V10.2062V10.2058ZM25.5462 17.0572V7.56045H22.2804V5.64567H31.3552L30.7099 7.56045H27.815V17.0572H25.5462ZM32.0592 17.0572V5.64567H39.413L38.7676 7.56045H34.3088V10.0881H36.1279C37.5947 10.0881 38.3574 10.4437 38.8858 10.8974C39.2969 11.253 40.0005 12.0422 40.0005 13.6026C40.0005 15.1425 39.2772 15.9912 38.6704 16.4259C37.9664 16.919 37.2234 17.0576 35.7168 17.0576H32.0597H32.0592V17.0572ZM34.3084 15.1417H36.0098C36.6551 15.1417 37.0461 14.9837 37.3198 14.6281C37.4564 14.4509 37.6521 14.1342 37.6521 13.5423C37.6521 12.9504 37.4564 12.5353 37.0654 12.2391C36.8312 12.0619 36.5177 11.9635 35.9897 11.9635H34.3076V15.1417H34.3084Z" fill="#0A2973"/>
</svg>
