<svg width="80" height="20" viewBox="0 0 80 20" fill="none" xmlns="http://www.w3.org/2000/svg">
<path fill-rule="evenodd" clip-rule="evenodd" d="M1.54 5.62395C2.09578 5.35053 2.7087 5.21341 3.328 5.22395C4.1 5.22395 4.876 5.22395 5.652 5.22395V13.6679H4.18C4.18 11.2279 4.18 8.78662 4.18 6.34395C3.592 6.34395 2.98 6.29595 2.424 6.57995C2.2275 6.68965 2.0598 6.84436 1.93465 7.0314C1.8095 7.21844 1.73045 7.43246 1.704 7.65595C1.66063 7.92761 1.67376 8.2053 1.74258 8.47166C1.81141 8.73801 1.93445 8.98732 2.104 9.20396C2.59491 9.6908 3.14604 10.1129 3.744 10.46C3.028 11.528 2.32 12.604 1.6 13.66C1.068 13.66 0.54 13.66 0 13.66L1.92 10.7919C1.19707 10.3462 0.63625 9.68019 0.320001 8.89195C0.189147 8.4822 0.148918 8.04891 0.2021 7.62207C0.255281 7.19524 0.400604 6.78506 0.628003 6.41995C0.853962 6.09036 1.15221 5.81674 1.5 5.61995L1.54 5.62395ZM37.476 5.30396C37.5763 5.27011 37.6824 5.25651 37.788 5.26396C39.324 5.26396 40.868 5.26396 42.404 5.26396C42.404 5.63196 42.404 5.99595 42.404 6.35995C41.248 6.35995 40.096 6.35995 38.944 6.35995C38.944 7.11195 38.944 7.86396 38.944 8.61596C39.432 8.63996 39.92 8.61596 40.412 8.61596C41.0993 8.64204 41.76 8.8889 42.296 9.31995C42.5764 9.60098 42.7707 9.95625 42.856 10.3439C42.9053 10.6453 42.9227 10.951 42.908 11.2559C42.8828 11.4123 42.8654 11.5699 42.856 11.728C42.7657 12.1664 42.5439 12.5669 42.22 12.876C41.618 13.3452 40.8792 13.605 40.116 13.616H38.032C37.8477 13.63 37.6624 13.6219 37.48 13.5919C37.48 13.3039 37.48 13.012 37.48 12.724C37.4596 12.3242 37.4596 11.9237 37.48 11.524C37.456 10.932 37.48 10.3239 37.48 9.74395C37.46 8.89195 37.48 8.03996 37.48 7.18796C37.512 6.65196 37.456 6.11596 37.48 5.58796C37.48 5.47596 37.48 5.36795 37.48 5.25995L37.476 5.30396ZM38.948 9.74795C38.92 10.668 38.948 11.592 38.948 12.512C39.4579 12.5654 39.9729 12.5425 40.476 12.4439C40.6703 12.4078 40.8526 12.3243 41.0068 12.2008C41.161 12.0773 41.2823 11.9176 41.36 11.736C41.4506 11.4916 41.4854 11.2301 41.4618 10.9705C41.4383 10.711 41.3571 10.46 41.224 10.236C41.0449 10.0501 40.8256 9.90768 40.5829 9.81963C40.3402 9.73158 40.0807 9.70023 39.824 9.72796C39.5359 9.71854 39.2474 9.72521 38.96 9.74795H38.948ZM30.928 7.85196C31.6002 7.45978 32.3894 7.31809 33.156 7.45196C33.4721 7.48361 33.7805 7.56883 34.068 7.70396C34.068 8.10396 34.068 8.50395 34.068 8.93195C33.5908 8.67173 33.0509 8.54853 32.508 8.57596C32.2882 8.59387 32.0765 8.66708 31.8926 8.78876C31.7086 8.91045 31.5585 9.07666 31.456 9.27195C31.2559 9.71157 31.1679 10.194 31.2 10.676C31.1694 11.2546 31.3531 11.8242 31.716 12.276C31.8627 12.4047 32.0342 12.502 32.22 12.5618C32.4057 12.6217 32.6018 12.6428 32.796 12.624C33.2502 12.6189 33.6927 12.4797 34.068 12.224C34.068 12.624 34.068 13.024 34.068 13.424C33.3906 13.7949 32.6002 13.9031 31.848 13.728C31.5011 13.6817 31.1691 13.5576 30.8768 13.3651C30.5845 13.1725 30.3395 12.9165 30.16 12.616C29.7607 11.8373 29.6099 10.955 29.728 10.088C29.7507 9.65317 29.8703 9.22895 30.0779 8.84626C30.2855 8.46356 30.5759 8.13206 30.928 7.87596V7.85196ZM19.196 8.36396C19.3896 8.09768 19.6386 7.87649 19.9259 7.7156C20.2131 7.55472 20.5318 7.45795 20.86 7.43195C21.2174 7.38611 21.5805 7.41661 21.9252 7.52141C22.27 7.62622 22.5886 7.80296 22.86 8.03996C23.2092 8.41735 23.4279 8.89688 23.484 9.40795C23.554 9.97308 23.578 10.5429 23.556 11.112H20.064C20.0538 11.3654 20.104 11.6175 20.2104 11.8477C20.3168 12.0779 20.4764 12.2796 20.676 12.436C21.0771 12.6212 21.5262 12.6758 21.96 12.5919C22.5078 12.5347 23.0343 12.3483 23.496 12.048C23.496 12.448 23.496 12.848 23.496 13.228C22.7842 13.6583 21.9511 13.8437 21.124 13.7559C20.7202 13.7453 20.3244 13.6412 19.9676 13.4517C19.6109 13.2622 19.3029 12.9926 19.068 12.664C18.6383 11.8927 18.4713 11.0025 18.592 10.128C18.6208 9.49806 18.8214 8.88803 19.172 8.36396H19.196ZM20.612 8.70396C20.188 8.99996 20.108 9.56395 20.084 10.0439H22.084C22.1109 9.65774 22.0349 9.27131 21.864 8.92395C21.7178 8.73497 21.5062 8.60757 21.2707 8.56685C21.0353 8.52613 20.7932 8.57505 20.592 8.70396H20.612ZM6.864 7.53595C7.348 7.53595 7.832 7.53595 8.316 7.53595C8.316 8.33595 8.316 9.13595 8.316 9.95595H10.252V7.54795H11.7V13.6679H10.252V11.112H8.32V13.6679H6.872C6.872 11.6279 6.872 9.59196 6.872 7.55196L6.864 7.53595ZM13.368 7.53595H17.588C17.588 9.19195 17.588 10.852 17.588 12.512H18.236V15.052H16.896C16.896 14.588 16.896 14.124 16.896 13.66C15.812 13.66 14.724 13.66 13.64 13.66C13.64 14.124 13.64 14.588 13.64 15.052H12.32V12.512H12.768C12.928 12.168 13.0436 11.8051 13.112 11.4319C13.3291 10.1452 13.4188 8.84027 13.38 7.53595H13.368ZM14.608 8.67995C14.588 9.96795 14.556 11.292 14.096 12.512H16.144C16.144 11.232 16.144 9.95595 16.144 8.67995H14.608ZM24.552 7.53595V13.6559C25.032 13.6559 25.512 13.6559 25.996 13.6559C25.996 12.6719 25.996 11.688 25.996 10.708C26.72 11.684 27.42 12.676 28.14 13.652H29.78L27.456 10.4C28.132 9.44395 28.82 8.49195 29.496 7.53195H28.044C27.356 8.48395 26.684 9.44395 25.996 10.396C25.996 9.44395 25.996 8.48795 25.996 7.53595H24.552ZM44.12 8.04795C44.7652 7.69136 45.4908 7.50548 46.228 7.50795C46.7985 7.47518 47.3657 7.61454 47.856 7.90795C48.1489 8.11671 48.3552 8.42548 48.436 8.77596C48.4828 8.9714 48.5096 9.17109 48.516 9.37195C48.516 10.304 48.516 11.232 48.516 12.172C48.5138 12.6675 48.5379 13.1629 48.588 13.6559C48.128 13.6559 47.668 13.6559 47.204 13.6559C47.1617 13.5104 47.1296 13.362 47.108 13.212H46.992C46.7598 13.4343 46.4749 13.594 46.164 13.676C45.8512 13.7576 45.5244 13.7706 45.2061 13.7139C44.8878 13.6573 44.5855 13.5325 44.32 13.348C44.1377 13.2016 43.987 13.0198 43.877 12.8136C43.767 12.6073 43.7 12.3809 43.68 12.148C43.6264 11.8679 43.6421 11.5789 43.7257 11.3063C43.8094 11.0337 43.9585 10.7857 44.16 10.584C44.6915 10.1451 45.3549 9.89718 46.044 9.87995C46.388 9.81995 46.736 9.87996 47.084 9.82796C47.1203 9.65841 47.1194 9.48301 47.0815 9.31383C47.0435 9.14466 46.9693 8.98571 46.864 8.84795C46.6716 8.73128 46.4574 8.65513 46.2346 8.62417C46.0117 8.59322 45.7849 8.60811 45.568 8.66795C45.0528 8.74759 44.5566 8.92114 44.104 9.17995C44.104 8.80395 44.104 8.43195 44.104 8.05595L44.12 8.04795ZM45.98 10.9319C45.7942 10.9439 45.6158 11.0096 45.4667 11.1211C45.3175 11.2326 45.204 11.3851 45.14 11.56C45.0932 11.7449 45.1033 11.9397 45.1689 12.1188C45.2346 12.2979 45.3528 12.4531 45.508 12.564C45.7753 12.6995 46.0815 12.7374 46.3737 12.6709C46.666 12.6044 46.9257 12.4378 47.108 12.2C47.108 11.76 47.108 11.316 47.108 10.876C46.7354 10.8364 46.3588 10.8553 45.992 10.9319H45.98ZM49.708 7.59995C50.18 7.55595 50.656 7.59995 51.132 7.57995C51.132 8.37995 51.132 9.17995 51.132 9.97995C51.732 10.0039 52.332 9.97995 52.932 9.97995L53.084 9.94395C53.084 9.14395 53.084 8.37595 53.084 7.59195C53.556 7.57195 54.028 7.59195 54.5 7.59195C54.5 9.61328 54.5 11.6346 54.5 13.6559C54.028 13.6559 53.556 13.6559 53.084 13.6559C53.084 12.8119 53.084 11.968 53.084 11.124C52.428 11.124 51.768 11.096 51.116 11.124C51.116 11.9693 51.116 12.8133 51.116 13.6559C50.644 13.6559 50.168 13.6559 49.7 13.6559C49.7 11.6559 49.7 9.63596 49.7 7.62796L49.708 7.59995ZM55.768 7.59995C56.236 7.59995 56.708 7.59995 57.18 7.59995C57.18 8.53195 57.18 9.45995 57.18 10.4H57.3C57.936 9.47195 58.604 8.57196 59.236 7.63996C59.716 7.61996 60.192 7.63996 60.672 7.63996C60.032 8.54396 59.392 9.45196 58.748 10.352C58.708 10.42 58.612 10.512 58.696 10.588L60.956 13.6919C60.424 13.6919 59.892 13.6919 59.356 13.6919C58.648 12.7719 57.972 11.8239 57.28 10.8919L57.176 10.86C57.176 11.8093 57.176 12.7573 57.176 13.704C56.704 13.704 56.232 13.704 55.764 13.704L55.768 7.59995Z" fill="white"/>
</svg>
