<svg xmlns="http://www.w3.org/2000/svg" width="61" height="68" viewBox="0 0 61 68" fill="none">
<path d="M11.0384 65.7296C15.8384 64.6296 20.7384 63.5296 25.4384 62.0296C25.8384 61.9296 25.4384 58.8296 25.3384 58.8296C20.4384 59.4296 15.7384 60.4296 10.9384 61.4296C8.93836 61.8296 5.53836 63.1296 2.93836 62.8296C3.83836 61.5296 4.83835 60.2296 5.83835 58.9296C5.93835 60.2296 6.23836 61.8296 6.23836 61.8296C21.5384 56.4296 35.8384 47.5296 46.3384 35.0296C54.4384 25.5296 62.5375 15.5942 59.7384 0.129608C59.7384 0.129608 59.0627 6.05063 58.1085 9.84619C57.1542 13.6418 54.7384 18.2296 51.3384 23.3296C47.8384 28.6296 43.6384 33.3296 38.9384 37.6296C29.8383 45.8296 18.9384 51.7296 7.73836 56.5296C9.13836 54.7296 10.5384 53.0296 12.0384 51.3296C12.8384 50.3296 11.3384 47.4296 11.9384 46.7296C7.73836 51.4296 4.03836 56.3296 0.538358 61.5296C0.138357 62.2296 0.138356 65.5296 0.638356 66.1296C2.63836 68.8296 8.33836 66.3296 11.0384 65.7296Z" fill="#D9CEFF"/>
</svg>