<svg width="22" height="90" viewBox="0 0 22 90" fill="none" xmlns="http://www.w3.org/2000/svg">
<path d="M11.3201 82.5806C14.4726 78.7975 17.7046 74.9537 20.5352 70.913C20.7928 70.5911 18.5965 68.3671 18.517 68.4276C14.982 71.8735 11.8485 75.5165 8.63551 79.2201C7.28664 80.75 5.36919 83.8441 3.11889 85.1805C3.04735 83.601 3.05537 81.9609 3.06339 80.3208C3.93053 81.2945 5.13853 82.3857 5.13853 82.3857C14.0397 68.8203 20.0249 53.0762 20.8058 36.7701C21.4948 24.3047 21.9193 11.4934 10.3235 0.885668C10.3235 0.885668 13.373 6.00573 14.9133 9.60358C16.4535 13.2014 17.3109 18.3151 17.6956 24.4325C18.1219 30.7695 17.6278 37.0533 16.4935 43.3218C14.2214 55.3587 9.12376 66.6562 3.12104 77.2603C3.14439 74.9801 3.22832 72.7794 3.39182 70.5182C3.42247 69.2379 0.472175 67.8394 0.525453 66.919C0.0313307 73.2028 0.0561767 79.3428 0.421883 85.6003C0.527721 86.3995 2.52695 89.025 3.28824 89.1994C6.51517 90.1359 9.5355 84.6937 11.3201 82.5806Z" fill="#D9CEFF"/>
</svg>
