<svg width="61" height="68" viewBox="0 0 61 68" fill="none" xmlns="http://www.w3.org/2000/svg">
<path d="M49.4089 65.6007C44.6089 64.5007 39.7089 63.4007 35.0089 61.9007C34.6089 61.8007 35.0089 58.7007 35.1089 58.7007C40.0089 59.3007 44.7089 60.3007 49.5089 61.3007C51.5089 61.7007 54.9089 63.0007 57.5089 62.7007C56.6089 61.4007 55.6089 60.1007 54.6089 58.8007C54.5089 60.1007 54.2089 61.7007 54.2089 61.7007C38.9089 56.3007 24.6089 47.4007 14.1089 34.9007C6.0089 25.4007 -2.09028 15.4653 0.708897 0.000701904C0.708897 0.000701904 1.38454 5.92172 2.33879 9.71729C3.29304 13.5128 5.7089 18.1007 9.1089 23.2007C12.6089 28.5007 16.8089 33.2007 21.5089 37.5007C30.6089 45.7007 41.5089 51.6007 52.7089 56.4007C51.3089 54.6007 49.9089 52.9007 48.4089 51.2007C47.6089 50.2007 49.1089 47.3007 48.5089 46.6007C52.7089 51.3007 56.4089 56.2007 59.9089 61.4007C60.3089 62.1007 60.3089 65.4007 59.8089 66.0007C57.8089 68.7007 52.1089 66.2007 49.4089 65.6007Z" fill="#D9CEFF"/>
</svg>
