<svg xmlns="http://www.w3.org/2000/svg" width="61" height="68" viewBox="0 0 61 68" fill="none">
  <path d="M49.2649 65.6007C44.4649 64.5007 39.5649 63.4007 34.8649 61.9007C34.4649 61.8007 34.8649 58.7007 34.9649 58.7007C39.8649 59.3007 44.5649 60.3007 49.3649 61.3007C51.3649 61.7007 54.7649 63.0007 57.3649 62.7007C56.4649 61.4007 55.4649 60.1007 54.4649 58.8007C54.3649 60.1007 54.0649 61.7007 54.0649 61.7007C38.7649 56.3007 24.4649 47.4007 13.9649 34.9007C5.86485 25.4007 -2.23433 15.4653 0.564848 0.000701855C0.564848 0.000701855 1.24049 5.92172 2.19474 9.71728C3.149 13.5128 5.56485 18.1007 8.96485 23.2007C12.4649 28.5007 16.6649 33.2007 21.3649 37.5007C30.4649 45.7007 41.3649 51.6007 52.5649 56.4007C51.1649 54.6007 49.7649 52.9007 48.2649 51.2007C47.4649 50.2007 48.9649 47.3007 48.3649 46.6007C52.5649 51.3007 56.2649 56.2007 59.7649 61.4007C60.1649 62.1007 60.1649 65.4007 59.6649 66.0007C57.6649 68.7007 51.9649 66.2007 49.2649 65.6007Z" fill="#D9CEFF"/>
</svg>