<svg width="22" height="90" viewBox="0 0 22 90" fill="none" xmlns="http://www.w3.org/2000/svg">
<path d="M10.1765 82.479C7.024 78.6959 3.79199 74.8522 0.961422 70.8114C0.703766 70.4895 2.90007 68.2655 2.97963 68.3261C6.51456 71.772 9.64803 75.415 12.8611 79.1185C14.2099 80.6484 16.1274 83.7425 18.3777 85.079C18.4492 83.4995 18.4412 81.8594 18.4332 80.2193C17.5661 81.193 16.3581 82.2842 16.3581 82.2842C7.45688 68.7188 1.4717 52.9747 0.690765 36.6685C0.00177888 24.2031 -0.422744 11.3918 11.1731 0.784105C11.1731 0.784105 8.12354 5.90417 6.58329 9.50202C5.04304 13.0999 4.18563 18.2135 3.80095 24.3309C3.37466 30.668 3.86879 36.9517 5.00304 43.2202C7.2752 55.2571 12.3728 66.5546 18.3755 77.1588C18.3522 74.8785 18.2683 72.6779 18.1048 70.4166C18.0741 69.1363 21.0244 67.7378 20.9711 66.8174C21.4653 73.1012 21.4404 79.2412 21.0747 85.4987C20.9689 86.2979 18.9696 88.9234 18.2083 89.0979C14.9814 90.0343 11.9611 84.5921 10.1765 82.479Z" fill="#D9CEFF"/>
</svg>
