<svg xmlns="http://www.w3.org/2000/svg" width="134" height="173" viewBox="0 0 134 173" fill="none">
  <g clip-path="url(#clip0_1890_269396)">
    <path d="M133.463 59.3749C133.463 59.3749 133.151 61.1302 132.606 64.2317C130.54 75.7595 125.297 104.179 119.761 127.449C119.196 129.809 118.319 132.091 117.208 134.295C117.091 134.53 116.974 134.744 116.838 134.978C116.545 135.544 116.233 136.109 115.902 136.656C108.223 149.549 92.3569 159.789 81.0522 165.836C74.2109 169.503 68.8898 171.727 67.9153 172.117V172.273C67.9153 172.273 66.5898 171.746 64.3679 170.751C53.6479 165.934 20.9615 149.607 15.4456 127.566C8.01958 97.8592 0.963867 59.5113 0.963867 59.5113C0.963867 59.4334 0.983358 59.3552 1.00285 59.2773C3.82904 41.3908 13.3991 36.6509 13.3991 36.6509C13.8668 37.0994 32.6756 54.3229 38.5617 44.258C42.1482 38.1723 42.0703 30.37 41.3687 24.8305C41.3687 24.811 41.3687 24.7915 41.3687 24.7525C41.2712 23.9527 41.1543 23.192 41.0177 22.5093C40.5498 19.7591 40.0238 18.0036 40.0238 18.0036L40.6474 17.594L66.7651 0.487598V0.156006L93.8965 17.867C93.8965 17.867 93.8965 17.867 93.8965 17.8865C93.7993 18.1986 93.0779 20.8514 92.6491 24.5964C92.0059 30.1555 92.0256 37.9968 95.6702 44.1019C101.751 54.2644 120.775 36.4752 120.775 36.4752C120.775 36.4752 130.481 41.2738 133.463 59.3552V59.3749Z" fill="url(#paint0_linear_1890_269396)"/>
    <path d="M116.718 73.2822C116.718 73.2822 110.773 99.7123 106.212 121.617C102.47 139.679 74.3836 153.021 68.7509 155.537C68.3221 155.732 68.0101 155.869 67.8542 155.927V156.044C67.8542 156.044 66.4509 155.459 64.2093 154.386C60.0968 152.416 53.0996 148.769 46.3946 143.873C44.2118 142.273 42.0677 140.537 40.0405 138.684C34.7585 133.808 30.3926 128.054 29.0087 121.714C25.6953 106.617 22.7132 89.0428 21.1345 79.4264C20.7836 77.2614 20.5108 75.5255 20.3159 74.3356C20.1404 73.1846 20.043 72.5606 20.043 72.5606C20.043 72.5021 20.043 72.4436 20.082 72.4046C22.5183 60.0576 28.1123 61.462 28.1123 61.462C28.4242 61.7545 42.75 68.9521 47.0575 62.0275C49.6497 57.8535 49.6691 52.5478 49.2403 48.8223C49.2403 48.8223 49.2403 48.8029 49.2403 48.7832C49.1625 48.2371 49.104 47.7495 49.0065 47.2813C48.7143 45.4478 48.3633 44.2776 48.3633 44.2776L48.7921 44.024L67.0356 32.6914V32.4768C67.0356 32.4768 67.9517 33.1008 69.3744 34.0567C74.2082 37.3336 84.7335 44.4725 84.7335 44.4922C84.675 44.7068 83.9343 48.9978 83.9343 48.9978C83.5445 52.7233 83.6224 58.0289 86.2927 62.203C88.8459 66.2018 95.9407 64.7584 101.651 62.7494C105.998 61.2277 109.506 59.3942 109.506 59.3942C109.506 59.3942 111.163 59.9209 113.034 62.9834C114.32 65.0508 115.704 68.3278 116.699 73.3213L116.718 73.2822Z" fill="url(#paint1_linear_1890_269396)"/>
    <path d="M64.7373 51.9236C64.0162 51.7482 63.4317 51.6509 63.0029 51.6509C63.6071 51.5336 64.0553 51.4948 64.3669 51.5533C64.5035 51.5727 64.6204 51.7093 64.7373 51.9433V51.9236Z" fill="url(#paint2_linear_1890_269396)"/>
    <path d="M63.0226 51.6311C62.8473 51.6508 62.6525 51.6896 62.4575 51.7481C62.516 51.6896 62.5744 51.6508 62.6329 51.6508C62.7498 51.6508 62.8667 51.6311 63.0226 51.6508V51.6311Z" fill="url(#paint3_linear_1890_269396)"/>
    <path style="mix-blend-mode:multiply" opacity="0.4" d="M116.717 73.2819C116.717 73.2819 110.772 99.712 106.212 121.617C106.133 122.046 106.017 122.475 105.9 122.885C101.144 140.303 74.2464 153.079 68.75 155.517L67.5024 153.04L67.3467 152.747L81.1655 113.912L89.7611 101.058L82.6664 80.031L109.486 59.2966C109.486 59.2966 111.143 59.8231 113.014 62.8855C114.3 64.9532 115.684 68.2299 116.678 73.2234L116.717 73.2819Z" fill="url(#paint4_linear_1890_269396)"/>
    <path style="mix-blend-mode:multiply" opacity="0.4" d="M81.1855 113.951L67.5029 153.06L67.152 154.074L64.1893 154.386C55.3015 150.134 32.5167 137.826 28.9887 121.714C24.9152 103.165 21.3289 80.8307 20.2959 74.3159L23.0441 71.468L49.7857 104.296L81.1855 113.931V113.951Z" fill="url(#paint5_linear_1890_269396)"/>
    <path style="mix-blend-mode:multiply" opacity="0.4" d="M113.057 62.9443L82.7097 80.0896L69.9819 82.8595L49.2827 103.262L68.4617 83.2886L69.3778 34.0176C74.2116 37.2946 84.7365 44.4337 84.7365 44.4531C84.6781 44.6677 83.9374 48.959 83.9374 48.959C83.5476 52.6845 83.6257 57.9899 86.2958 62.1642C90.7399 69.1667 109.509 59.3554 109.509 59.3554C109.509 59.3554 111.166 59.8819 113.037 62.9443H113.057Z" fill="url(#paint6_linear_1890_269396)"/>
    <g style="mix-blend-mode:soft-light">
      <path d="M50.2144 104.362L81.6141 114.017L90.2097 101.163L83.505 79.9998L69.9978 83.1986L50.2144 104.362Z" fill="#DBF2FF"/>
    </g>
    <path d="M64.6021 88.321C70.0012 83.3278 85.4963 88.5553 85.4963 88.5553L83.0797 79.9338L68.9292 82.8402L64.6021 88.321Z" fill="white"/>
    <path d="M75.5938 112.274C79.4334 108.255 83.6046 110.401 83.6046 110.401L81.2461 114.127L75.6131 112.274H75.5938Z" fill="white"/>
    <path style="mix-blend-mode:multiply" opacity="0.4" d="M105.904 122.904C101.148 140.322 74.2506 153.099 68.7542 155.537L67.5068 153.06L81.2285 114.127L89.785 101.097C89.785 101.097 100.895 115.746 105.884 122.904H105.904Z" fill="url(#paint7_linear_1890_269396)"/>
    <path style="mix-blend-mode:multiply" opacity="0.4" d="M28.3458 119.666C28.1508 119.159 49.7857 104.296 49.7857 104.296L22.5179 70.3564L20.2959 74.3159L28.3261 119.666H28.3458Z" fill="url(#paint8_linear_1890_269396)"/>
    <path style="mix-blend-mode:multiply" opacity="0.4" d="M35.7544 115.473C58.3639 106.52 71.2279 123.294 67.6999 133.886C64.3281 144.009 79.6479 123.314 77.4063 117.17C75.1066 110.869 53.0037 105.466 48.9888 106.344C44.9929 107.222 35.7544 115.473 35.7544 115.473Z" fill="url(#paint9_linear_1890_269396)"/>
    <path style="mix-blend-mode:multiply" opacity="0.4" d="M102.028 69.9666C84.8957 78.7635 97.214 106.422 95.3037 105.896C93.3938 105.369 85.1489 87.8531 84.9345 82.7038C84.7007 77.4567 102.048 69.9666 102.048 69.9666H102.028Z" fill="url(#paint10_linear_1890_269396)"/>
    <path style="mix-blend-mode:multiply" opacity="0.4" d="M81.19 46.5403C70.7235 77.2808 86.0629 69.9662 85.1662 64.9145C84.2501 59.7649 81.19 46.5403 81.19 46.5403Z" fill="url(#paint11_linear_1890_269396)"/>
    <path style="mix-blend-mode:multiply" opacity="0.4" d="M43.3947 110.343C29.6537 122.144 36.1052 133.574 36.1052 133.574C36.1052 133.574 30.1994 128.658 30.7451 122.163C31.3105 115.492 43.3947 110.362 43.3947 110.362V110.343Z" fill="url(#paint12_linear_1890_269396)"/>
    <path style="mix-blend-mode:multiply" opacity="0.4" d="M98.1245 109.562C102.646 115.862 107.441 108.782 107.441 108.782C107.441 108.782 107.363 119.373 104.927 118.749C102.49 118.125 98.1245 109.562 98.1245 109.562Z" fill="url(#paint13_linear_1890_269396)"/>
    <path d="M83.4313 81.8257C85.575 77.7296 101.187 66.1042 101.187 66.1042L79.377 81.9233L83.4506 81.8257H83.4313Z" fill="white"/>
    <g style="mix-blend-mode:soft-light">
      <path d="M53.1008 62.9053C34.5844 82.7035 46.2789 99.3418 48.7736 100.297C51.2684 101.234 66.5689 86.429 66.257 78.6268C65.9451 70.5711 53.1008 62.9053 53.1008 62.9053Z" fill="#DBF2FF"/>
    </g>
    <g style="mix-blend-mode:soft-light">
      <path d="M60.0604 73.2822C53.9598 87.092 64.4069 85.1804 65.0307 80.0896C65.674 74.8815 60.0604 73.2822 60.0604 73.2822Z" fill="#DBF2FF"/>
    </g>
    <path d="M93.8943 17.867C93.8943 17.867 93.8943 17.8865 93.8943 17.906C93.5824 20.2077 93.1733 22.4508 92.6469 24.6159C92.6469 24.6159 92.6469 24.6159 92.6469 24.6354C86.3707 51.0459 67.4646 67.7036 67.4646 67.7036C67.4646 67.7036 45.5177 49.0757 41.3859 24.85C41.3859 24.8305 41.3859 24.811 41.3859 24.7915C41.2493 24.0503 41.1324 23.2896 41.0543 22.5483C40.8596 20.9294 40.723 19.2909 40.6646 17.6525L66.7629 0.487598V0.156006L93.8943 17.867Z" fill="url(#paint14_linear_1890_269396)"/>
    <path d="M42.8706 20.5006C63.4142 45.4481 65.0513 4.64258 62.1471 4.64258C59.2429 4.64258 42.208 18.5695 42.208 18.5695L42.8706 20.5006Z" fill="white"/>
    <path style="mix-blend-mode:multiply" opacity="0.4" d="M9.51855 82.801C21.0767 89.6474 22.4995 101.994 22.4995 101.994C22.4995 101.994 29.7112 129.361 27.2358 130.082C24.7604 130.804 14.9565 123.548 12.91 111.981C10.766 99.8487 9.51855 82.801 9.51855 82.801Z" fill="url(#paint15_linear_1890_269396)"/>
    <path style="mix-blend-mode:multiply" opacity="0.4" d="M23.4972 130.96C36.1078 133.574 57.5089 153.625 58.4641 156.2C59.3995 158.755 57.4308 165.602 57.4308 165.602C57.4308 165.602 40.3959 159.789 30.2607 147.715C19.56 134.958 19.5405 130.472 19.5405 130.472L23.4972 130.94V130.96Z" fill="url(#paint16_linear_1890_269396)"/>
    <path style="mix-blend-mode:multiply" opacity="0.4" d="M116.719 73.2821C116.719 73.2821 110.774 99.7119 106.214 121.617C102.471 139.679 74.3848 153.021 68.7521 155.537C68.3233 155.732 68.0114 155.868 67.8555 155.927V156.044C67.8555 156.044 66.4521 155.459 64.2106 154.386C60.0981 152.416 53.1009 148.768 46.3959 143.873L40.0418 138.684C34.7598 133.808 30.3939 128.054 29.0102 121.714C25.6966 106.617 22.7145 89.0424 21.1357 79.4264L22.2078 79.8946C40.003 96.318 27.8991 114.283 34.526 128.658C40.7825 142.214 66.6081 149.354 71.0325 148.768C75.4569 148.183 101.887 135.758 104.888 121.5C108.085 106.344 101.945 82.2157 105.609 72.9894C109.391 63.4318 109.079 60.5061 109.079 60.5061L100.795 63.627L101.653 62.7296C105.999 61.2083 109.508 59.3748 109.508 59.3748C109.508 59.3748 111.164 59.9012 113.035 62.9636C114.322 65.0314 115.706 68.3081 116.7 73.3016L116.719 73.2821Z" fill="url(#paint17_linear_1890_269396)"/>
    <path style="mix-blend-mode:multiply" opacity="0.4" d="M42.359 91.3247C11.9725 93.8213 4.09821 65.4798 4.09821 65.4798C4.09821 65.4798 1.99319 28.5951 17.9368 43.4386C33.0811 57.5412 42.359 91.3053 42.359 91.3053V91.3247Z" fill="url(#paint18_linear_1890_269396)"/>
    <path d="M40.2556 82.2743C40.2556 82.2743 15.9505 84.6149 2.52123 62.6712C2.09243 61.969 1.68312 61.2669 1.27381 60.5062L0.981445 59.2773C3.80762 41.3907 13.3777 36.6509 13.3777 36.6509L21.7588 50.9095L40.2166 82.2743H40.2556Z" fill="url(#paint19_linear_1890_269396)"/>
    <path style="mix-blend-mode:multiply" opacity="0.4" d="M40.2544 82.2741C40.2544 82.2741 15.9493 84.6149 2.52002 62.671L2.92932 60.7205C19.8864 74.9207 25.227 61.9688 24.7202 59.004C24.3109 56.6438 22.5372 52.6061 21.7771 50.9287L40.235 82.2741H40.2544Z" fill="url(#paint20_linear_1890_269396)"/>
    <path d="M8.99072 65.0702C15.6761 63.1391 16.982 67.6838 16.982 67.6838C16.982 67.6838 14.3897 67.918 12.1093 67.2159C9.80934 66.5331 8.99072 65.0702 8.99072 65.0702Z" fill="white"/>
    <path style="mix-blend-mode:multiply" opacity="0.4" d="M68.1673 78.4706C48.5398 53.8741 42.6343 31.2671 42.6343 31.2671L65.731 46.54L68.713 46.6961L78.5366 42.6972L92.5311 26.6833C92.5311 26.6833 87.1709 46.3645 83.4092 56.0976C79.784 65.4994 68.1673 78.4509 68.1673 78.4509V78.4706Z" fill="url(#paint21_linear_1890_269396)"/>
    <path style="mix-blend-mode:multiply" opacity="0.4" d="M132.606 64.2122C130.54 75.7399 125.297 104.159 119.762 127.429C119.197 129.79 118.32 132.072 117.209 134.276C113.992 131.74 112.55 129.887 107.385 129.77L121.653 63.627L133.133 58.2043L132.606 64.2316V64.2122Z" fill="url(#paint22_linear_1890_269396)"/>
    <path d="M17.0586 40.8835C43.1959 70.1224 39.0834 45.2333 39.0834 45.2333C39.0834 45.2333 36.9003 49.5244 30.7023 47.8663C24.4846 46.2086 17.0586 40.8835 17.0586 40.8835Z" fill="url(#paint23_linear_1890_269396)"/>
    <path d="M74.8364 7.88037C88.4215 18.2768 82.7497 36.807 83.1786 36.6315C83.5877 36.456 90.9162 28.8293 91.4035 26.8787C91.8908 24.9282 92.729 18.0817 92.729 18.0817L74.8558 7.88037H74.8364Z" fill="url(#paint24_linear_1890_269396)"/>
    <path d="M95.6123 48.3542C101.206 63.822 112.335 45.2136 112.335 45.2136C112.335 45.2136 105.884 48.3542 101.284 48.3542H95.6123Z" fill="url(#paint25_linear_1890_269396)"/>
    <path style="mix-blend-mode:multiply" opacity="0.4" d="M92.0801 91.968C122.466 94.4649 129.97 66.2013 129.97 66.2013C129.97 66.2013 131.627 29.4138 115.878 44.2186C100.929 58.282 92.0801 91.968 92.0801 91.968Z" fill="url(#paint26_linear_1890_269396)"/>
    <path d="M94.0669 82.937C94.0669 82.937 118.372 85.2778 131.509 63.3924C131.918 62.6902 132.327 61.988 132.717 61.2467L132.99 60.0181C129.95 42.1704 120.341 37.4502 120.341 37.4502L112.135 51.6697L94.0669 82.9564V82.937Z" fill="url(#paint27_linear_1890_269396)"/>
    <path style="mix-blend-mode:multiply" opacity="0.4" d="M94.0692 82.9374C94.0692 82.9374 118.375 85.2782 131.511 63.3928L131.063 61.4423C114.301 75.6228 108.804 62.6906 109.272 59.7258C109.643 57.3656 111.377 53.3279 112.118 51.6702L94.0498 82.9374H94.0692Z" fill="url(#paint28_linear_1890_269396)"/>
    <path d="M125.098 65.7919C118.393 63.8608 117.146 68.4055 117.146 68.4055C117.146 68.4055 119.738 68.6397 122.018 67.9569C124.299 67.2742 125.098 65.8113 125.098 65.8113V65.7919Z" fill="white"/>
    <path style="mix-blend-mode:multiply" opacity="0.4" d="M81.0504 165.836C74.2091 169.503 68.8881 171.727 67.9136 172.117V172.273C67.9136 172.273 66.5883 171.746 64.3662 170.751L61.0723 160.101L70.6033 143.112C78.1269 151.694 80.4657 160.121 81.0504 165.836Z" fill="url(#paint29_linear_1890_269396)"/>
    <path d="M63.5281 170.693C48.4809 163.593 63.8788 144.458 63.8788 144.458L70.5838 143.112C70.5838 143.112 77.4835 157.663 77.0744 163.183C76.6843 168.567 67.894 172.273 67.894 172.273L63.5087 170.693H63.5281Z" fill="url(#paint30_linear_1890_269396)"/>
    <path style="mix-blend-mode:multiply" opacity="0.4" d="M58.7915 160.726C66.6073 157.215 75.5342 161.974 75.5342 161.974C75.5342 161.974 71.0708 173.19 65.8666 170.615C60.604 168.001 58.7915 160.726 58.7915 160.726Z" fill="url(#paint31_linear_1890_269396)"/>
    <path style="mix-blend-mode:multiply" opacity="0.4" d="M67.0952 46.8718L67.4852 67.6841C67.4852 67.6841 75.9246 59.2966 77.562 54.6935C79.2382 49.9927 78.5365 42.7366 78.5365 42.7366L67.0952 46.8912V46.8718Z" fill="url(#paint32_linear_1890_269396)"/>
    <path style="mix-blend-mode:multiply" opacity="0.4" d="M36.9031 139.737C46.4147 146.623 45.5962 150.173 42.848 150.173C40.0998 150.173 31.5432 143.17 33.3754 140.771C35.2269 138.353 36.9031 139.737 36.9031 139.737Z" fill="url(#paint33_linear_1890_269396)"/>
    <path style="mix-blend-mode:multiply" opacity="0.4" d="M116.836 134.959C116.544 135.524 116.232 136.09 115.9 136.636C110.93 136.285 101.185 136.636 91.751 142.917C91.751 142.917 102.179 129.653 107.987 130.609C111.378 131.175 114.692 133.301 116.836 134.959Z" fill="url(#paint34_linear_1890_269396)"/>
  </g>
  <defs>
    <linearGradient id="paint0_linear_1890_269396" x1="109.598" y1="176.574" x2="31.7683" y2="-5.23807" gradientUnits="userSpaceOnUse">
      <stop stop-color="#F0E6DD"/>
      <stop offset="1" stop-color="#96A5D8"/>
    </linearGradient>
    <linearGradient id="paint1_linear_1890_269396" x1="53.4893" y1="117.93" x2="127.061" y2="-43.9435" gradientUnits="userSpaceOnUse">
      <stop stop-color="#3DFFFF"/>
      <stop offset="0.32" stop-color="#4A9EFF"/>
      <stop offset="1" stop-color="#6540FF"/>
    </linearGradient>
    <linearGradient id="paint2_linear_1890_269396" x1="63.8797" y1="51.8066" x2="63.9579" y2="51.4363" gradientUnits="userSpaceOnUse">
      <stop stop-color="#54D9FF"/>
      <stop offset="1" stop-color="#0063FF"/>
    </linearGradient>
    <linearGradient id="paint3_linear_1890_269396" x1="62.711" y1="51.8066" x2="62.7498" y2="51.5726" gradientUnits="userSpaceOnUse">
      <stop stop-color="#54D9FF"/>
      <stop offset="1" stop-color="#0063FF"/>
    </linearGradient>
    <linearGradient id="paint4_linear_1890_269396" x1="50.8378" y1="48.5295" x2="111.635" y2="140.495" gradientUnits="userSpaceOnUse">
      <stop stop-color="white"/>
      <stop offset="0.98" stop-color="#720090"/>
    </linearGradient>
    <linearGradient id="paint5_linear_1890_269396" x1="8.97166" y1="114.068" x2="178.504" y2="108.556" gradientUnits="userSpaceOnUse">
      <stop stop-color="white"/>
      <stop offset="0.98" stop-color="#720090"/>
    </linearGradient>
    <linearGradient id="paint6_linear_1890_269396" x1="34.3722" y1="69.4397" x2="219.575" y2="63.4215" gradientUnits="userSpaceOnUse">
      <stop stop-color="white"/>
      <stop offset="0.98" stop-color="#720090"/>
    </linearGradient>
    <linearGradient id="paint7_linear_1890_269396" x1="74.621" y1="84.3808" x2="87.113" y2="139.733" gradientUnits="userSpaceOnUse">
      <stop stop-color="white"/>
      <stop offset="0.98" stop-color="#720090"/>
    </linearGradient>
    <linearGradient id="paint8_linear_1890_269396" x1="19.4188" y1="98.6004" x2="68.9255" y2="69.238" gradientUnits="userSpaceOnUse">
      <stop stop-color="white"/>
      <stop offset="0.98" stop-color="#720090"/>
    </linearGradient>
    <linearGradient id="paint9_linear_1890_269396" x1="47.7023" y1="127.605" x2="113.685" y2="88.4619" gradientUnits="userSpaceOnUse">
      <stop stop-color="white"/>
      <stop offset="0.98" stop-color="#720090"/>
    </linearGradient>
    <linearGradient id="paint10_linear_1890_269396" x1="114.112" y1="103.887" x2="71.4141" y2="60.0506" gradientUnits="userSpaceOnUse">
      <stop stop-color="white"/>
      <stop offset="0.98" stop-color="#720090"/>
    </linearGradient>
    <linearGradient id="paint11_linear_1890_269396" x1="112.746" y1="65.2654" x2="78.0104" y2="57.3771" gradientUnits="userSpaceOnUse">
      <stop stop-color="white"/>
      <stop offset="0.98" stop-color="#720090"/>
    </linearGradient>
    <linearGradient id="paint12_linear_1890_269396" x1="70.0585" y1="128.834" x2="31.0151" y2="119.991" gradientUnits="userSpaceOnUse">
      <stop stop-color="white"/>
      <stop offset="0.98" stop-color="#720090"/>
    </linearGradient>
    <linearGradient id="paint13_linear_1890_269396" x1="136.794" y1="120.719" x2="97.4394" y2="111.798" gradientUnits="userSpaceOnUse">
      <stop stop-color="white"/>
      <stop offset="0.98" stop-color="#720090"/>
    </linearGradient>
    <linearGradient id="paint14_linear_1890_269396" x1="84.8228" y1="-4.98152" x2="58.3613" y2="82.2112" gradientUnits="userSpaceOnUse">
      <stop stop-color="#BCC9F9"/>
      <stop offset="0.489872" stop-color="#E0BFEF"/>
      <stop offset="1" stop-color="#F1D7D7"/>
    </linearGradient>
    <linearGradient id="paint15_linear_1890_269396" x1="20.453" y1="77.0274" x2="11.5713" y2="217.622" gradientUnits="userSpaceOnUse">
      <stop stop-color="white"/>
      <stop offset="0.98" stop-color="#720090"/>
    </linearGradient>
    <linearGradient id="paint16_linear_1890_269396" x1="42.8322" y1="85.7264" x2="35.3559" y2="203.988" gradientUnits="userSpaceOnUse">
      <stop stop-color="white"/>
      <stop offset="0.98" stop-color="#720090"/>
    </linearGradient>
    <linearGradient id="paint17_linear_1890_269396" x1="66.8031" y1="55.3956" x2="70.7069" y2="93.8402" gradientUnits="userSpaceOnUse">
      <stop stop-color="white"/>
      <stop offset="0.98" stop-color="#720090"/>
    </linearGradient>
    <linearGradient id="paint18_linear_1890_269396" x1="13.6488" y1="25.279" x2="21.4174" y2="68.2672" gradientUnits="userSpaceOnUse">
      <stop stop-color="white"/>
      <stop offset="0.98" stop-color="#720090"/>
    </linearGradient>
    <linearGradient id="paint19_linear_1890_269396" x1="33.5626" y1="33.1754" x2="16.9258" y2="92.9643" gradientUnits="userSpaceOnUse">
      <stop stop-color="#BCC9F9"/>
      <stop offset="0.489872" stop-color="#E0BFEF"/>
      <stop offset="1" stop-color="#F1D7D7"/>
    </linearGradient>
    <linearGradient id="paint20_linear_1890_269396" x1="26.8252" y1="42.6779" x2="17.2218" y2="95.1843" gradientUnits="userSpaceOnUse">
      <stop stop-color="white"/>
      <stop offset="0.98" stop-color="#720090"/>
    </linearGradient>
    <linearGradient id="paint21_linear_1890_269396" x1="67.992" y1="11.0789" x2="66.5474" y2="72.2482" gradientUnits="userSpaceOnUse">
      <stop stop-color="white"/>
      <stop offset="0.98" stop-color="#720090"/>
    </linearGradient>
    <linearGradient id="paint22_linear_1890_269396" x1="87.2899" y1="17.4769" x2="157.956" y2="181.265" gradientUnits="userSpaceOnUse">
      <stop stop-color="white"/>
      <stop offset="0.98" stop-color="#720090"/>
    </linearGradient>
    <linearGradient id="paint23_linear_1890_269396" x1="35.5253" y1="39.8013" x2="32.5297" y2="59.3998" gradientUnits="userSpaceOnUse">
      <stop stop-color="#9CAEEF"/>
      <stop offset="1" stop-color="#E8CCCC"/>
    </linearGradient>
    <linearGradient id="paint24_linear_1890_269396" x1="89.6797" y1="5.69352" x2="76.1071" y2="41.0103" gradientUnits="userSpaceOnUse">
      <stop stop-color="#BCC9F9"/>
      <stop offset="0.489872" stop-color="#E0BFEF"/>
      <stop offset="1" stop-color="#F1D7D7"/>
    </linearGradient>
    <linearGradient id="paint25_linear_1890_269396" x1="109.485" y1="44.5076" x2="107.777" y2="57.3709" gradientUnits="userSpaceOnUse">
      <stop stop-color="#9CAEEF"/>
      <stop offset="1" stop-color="#E8CCCC"/>
    </linearGradient>
    <linearGradient id="paint26_linear_1890_269396" x1="120.576" y1="26.215" x2="112.846" y2="69.008" gradientUnits="userSpaceOnUse">
      <stop stop-color="white"/>
      <stop offset="0.98" stop-color="#720090"/>
    </linearGradient>
    <linearGradient id="paint27_linear_1890_269396" x1="126.357" y1="33.985" x2="109.685" y2="93.5443" gradientUnits="userSpaceOnUse">
      <stop stop-color="#BCC9F9"/>
      <stop offset="0.489872" stop-color="#E0BFEF"/>
      <stop offset="1" stop-color="#F1D7D7"/>
    </linearGradient>
    <linearGradient id="paint28_linear_1890_269396" x1="107.362" y1="43.3803" x2="116.965" y2="95.8867" gradientUnits="userSpaceOnUse">
      <stop stop-color="white"/>
      <stop offset="0.98" stop-color="#720090"/>
    </linearGradient>
    <linearGradient id="paint29_linear_1890_269396" x1="47.3116" y1="123.314" x2="64.7361" y2="151.722" gradientUnits="userSpaceOnUse">
      <stop stop-color="white"/>
      <stop offset="0.98" stop-color="#720090"/>
    </linearGradient>
    <linearGradient id="paint30_linear_1890_269396" x1="73.6558" y1="140.894" x2="60.9557" y2="177.61" gradientUnits="userSpaceOnUse">
      <stop stop-color="#BCC9F9"/>
      <stop offset="0.489872" stop-color="#E0BFEF"/>
      <stop offset="1" stop-color="#F1D7D7"/>
    </linearGradient>
    <linearGradient id="paint31_linear_1890_269396" x1="60.994" y1="147.247" x2="75.6111" y2="181.16" gradientUnits="userSpaceOnUse">
      <stop stop-color="white"/>
      <stop offset="0.98" stop-color="#720090"/>
    </linearGradient>
    <linearGradient id="paint32_linear_1890_269396" x1="38.4436" y1="77.3784" x2="78.7316" y2="49.3382" gradientUnits="userSpaceOnUse">
      <stop stop-color="white"/>
      <stop offset="0.98" stop-color="#720090"/>
    </linearGradient>
    <linearGradient id="paint33_linear_1890_269396" x1="29.3795" y1="151.655" x2="40.807" y2="143.705" gradientUnits="userSpaceOnUse">
      <stop stop-color="white"/>
      <stop offset="0.98" stop-color="#720090"/>
    </linearGradient>
    <linearGradient id="paint34_linear_1890_269396" x1="72.1731" y1="123.944" x2="74.4316" y2="155.34" gradientUnits="userSpaceOnUse">
      <stop stop-color="white"/>
      <stop offset="0.98" stop-color="#720090"/>
    </linearGradient>
    <clipPath id="clip0_1890_269396">
      <rect width="132.964" height="172.429" fill="white" transform="translate(0.732422)"/>
    </clipPath>
  </defs>
</svg>