<svg width="68" height="64" viewBox="0 0 68 64" fill="none" xmlns="http://www.w3.org/2000/svg">
<path d="M74.3909 46.5506C69.387 66.6276 49.0523 78.8874 28.9384 73.8804C8.86135 68.8611 -3.37869 48.5264 1.62525 28.4494C6.6292 8.37236 26.9516 -3.88738 47.0164 1.1196C67.1426 6.06523 79.3826 26.4613 74.3909 46.5506Z" fill="#ECEFF0"/>
<path d="M38.4441 46.5969C38.2984 46.6464 38.2154 46.5196 38.1163 46.4613C33.2598 43.5951 28.4087 40.7268 23.5629 37.8567C23.516 37.833 23.4673 37.813 23.4172 37.7969V37.7328L23.5032 37.6833C23.6253 37.6513 23.7454 37.6123 23.8631 37.5667L35.3073 32.3597C36.3272 31.8949 37.347 31.4374 38.3669 30.977H38.4397C38.4397 31.1227 38.4397 31.2524 38.4397 31.3908C38.4436 36.46 38.4451 41.5287 38.4441 46.5969Z" fill="#343535"/>
<path d="M38.4513 30.9805H38.3785C38.3785 30.8349 38.3931 30.6892 38.3931 30.5362C38.3931 24.8425 38.3931 19.1483 38.3931 13.4536C38.3763 13.3073 38.3862 13.1592 38.4222 13.0165H38.4528C39.0516 13.9009 39.5732 14.8333 40.1239 15.7468C44.487 22.9839 48.8476 30.22 53.2058 37.4552C53.248 37.5266 53.2815 37.6009 53.3194 37.6796C53.196 37.6532 53.0747 37.6176 52.9566 37.5732C52.1568 37.2119 51.354 36.8447 50.5614 36.4761C49.3201 35.9079 48.0783 35.3407 46.836 34.7744L40.8509 32.0631C40.054 31.6959 39.2527 31.339 38.4513 30.9805Z" fill="#2F3030"/>
<path d="M38.427 13.009C38.391 13.1517 38.3811 13.2998 38.3979 13.4461C38.3979 19.1398 38.3979 24.834 38.3979 30.5287C38.3979 30.6743 38.3891 30.82 38.3833 30.973C37.3634 31.4334 36.3436 31.8909 35.3237 32.3557L23.8795 37.5628C23.7618 37.6083 23.6417 37.6473 23.5196 37.6793C23.8503 36.9916 24.2801 36.3681 24.672 35.7095C29.2128 28.1616 33.757 20.6152 38.3046 13.0702C38.3347 13.0284 38.3673 12.9885 38.4022 12.9507L38.427 13.009Z" fill="#828384"/>
<path d="M38.4513 30.9805C39.2527 31.339 40.0542 31.696 40.8541 32.0574L46.8392 34.7687C48.0824 35.334 49.3243 35.9012 50.5646 36.4704C51.363 36.8361 52.1672 37.2062 52.9598 37.5675C53.0779 37.6119 53.1992 37.6475 53.3226 37.6739C53.4683 37.856 53.2526 37.8633 53.1871 37.9026C51.9443 38.6456 50.6957 39.3785 49.45 40.1157C45.8747 42.2312 42.3003 44.3461 38.727 46.4607C38.6366 46.5131 38.5388 46.5517 38.4441 46.5969C38.4441 41.5296 38.4443 36.4626 38.4443 31.3944C38.4458 31.256 38.4499 31.119 38.4513 30.9805Z" fill="#131313"/>
<path d="M38.3929 49.4753L47.7538 43.9579C49.5409 42.903 51.3271 41.8472 53.1124 40.7905L53.2741 40.7016C53.2901 40.8473 53.1896 40.9245 53.1284 41.009C49.049 46.76 44.9695 52.5091 40.8901 58.2563C40.1179 59.346 39.3472 60.4417 38.5678 61.5227C38.527 61.5795 38.4643 61.8462 38.339 61.5635C38.4381 61.479 38.3944 61.3654 38.3944 61.2721C38.3954 57.3384 38.3949 53.4061 38.3929 49.4753Z" fill="#2F3030"/>
<path d="M38.3921 49.476C38.3921 53.4068 38.3921 57.3367 38.3921 61.2656C38.3921 61.3661 38.4358 61.4797 38.3368 61.557C38.1284 61.4317 38.0381 61.2073 37.8997 61.0223C33.1695 54.3592 28.4417 47.6952 23.7164 41.0302C23.6566 40.9457 23.6013 40.8553 23.5401 40.7621C23.6625 40.6907 23.728 40.7883 23.7994 40.8306C28.583 43.6551 33.3657 46.482 38.1474 49.3114C38.2362 49.3668 38.312 49.4236 38.3921 49.476Z" fill="#828384"/>
<path d="M38.4281 13.0089L38.3931 12.955C38.4572 12.9142 38.4485 12.9739 38.4587 13.0045L38.4281 13.0089Z" fill="#393939"/>
</svg>
