<svg width="25" height="25" viewBox="0 0 25 25" fill="none" xmlns="http://www.w3.org/2000/svg">
<g clip-path="url(#clip0_12028_39528)">
<rect width="25" height="25" rx="12.5" fill="white"/>
<path fill-rule="evenodd" clip-rule="evenodd" d="M-5.00146 16.667H29.9985V25.0003H-5.00146V16.667Z" fill="#249F58"/>
<path fill-rule="evenodd" clip-rule="evenodd" d="M14.9493 12.0002C14.9826 12.1618 14.9993 12.3285 14.9993 12.5002C14.9993 13.8802 13.8793 15.0002 12.4993 15.0002C11.1193 15.0002 9.99927 13.8802 9.99927 12.5002C9.99927 12.3285 10.0159 12.1618 10.0493 12.0002C10.2826 12.7602 11.2893 13.3335 12.4993 13.3335C13.7093 13.3335 14.7159 12.7602 14.9493 12.0002ZM12.4993 11.6668C12.9593 11.6668 13.3326 11.2935 13.3326 10.8335C13.3326 10.3735 12.9593 10.0002 12.4993 10.0002C12.0393 10.0002 11.6659 10.3735 11.6659 10.8335C11.6659 11.2935 12.0393 11.6668 12.4993 11.6668Z" fill="#FFDA2C"/>
<path fill-rule="evenodd" clip-rule="evenodd" d="M-5.00146 0H29.9985V8.33333H-5.00146V0Z" fill="#AF010D"/>
</g>
<defs>
<clipPath id="clip0_12028_39528">
<rect width="25" height="25" rx="12.5" fill="white"/>
</clipPath>
</defs>
</svg>
