<svg width="44" height="52" viewBox="0 0 44 52" fill="none" xmlns="http://www.w3.org/2000/svg">
<g clip-path="url(#clip0_12012_94519)">
<path d="M2.6712 10.3164H48.96C50.4214 10.3164 51.6051 11.4243 51.6051 12.7922V38.788C51.6051 40.1559 50.4214 41.2638 48.96 41.2638H2.6712C1.20979 41.2638 0.026123 40.1559 0.026123 38.788V12.7922C0.026123 11.4243 1.20979 10.3164 2.6712 10.3164Z" fill="white"/>
<path d="M36.324 25.1507V32.4979H40.4057V28.144H45.0318C46.9774 28.1304 48.6305 26.8854 49.2564 25.1507H36.324Z" fill="#37A72E"/>
<path d="M35.7827 19.0937C36.0208 22.0938 38.8645 24.468 42.334 24.468C42.3476 24.468 49.4294 24.468 49.4294 24.468C49.4839 24.1959 49.5111 23.9102 49.5111 23.6177C49.5111 21.1278 47.5042 19.1141 45.0211 19.0937H35.7827Z" fill="url(#paint0_linear_12012_94519)"/>
<path d="M29.7451 24.3932C29.7927 24.3116 29.8676 24.2639 29.9628 24.2639C30.0989 24.2639 30.2009 24.3728 30.2077 24.502V32.4275H34.2895V19.0937H30.2077C29.6907 19.1141 29.1056 19.4883 28.8879 19.9577L25.6429 26.9239C25.6361 26.9511 25.6225 26.9783 25.6089 27.0055C25.5613 27.0736 25.4797 27.1212 25.3844 27.1212C25.2347 27.1212 25.1123 26.9987 25.1123 26.8491V19.0937H21.0305V32.4275H25.1123C25.6225 32.4003 26.194 32.0261 26.4117 31.5635L29.7451 24.4136C29.7383 24.4068 29.7451 24.4 29.7451 24.3932Z" fill="#37A72E"/>
<path d="M14.4932 24.6266L12.1054 32.4296H9.16653L6.7855 24.6198C6.76509 24.4973 6.65624 24.4021 6.52018 24.4021C6.37052 24.4021 6.25487 24.5245 6.25487 24.6674V32.4227H2.1731V19.089H5.67662H6.71747C7.46579 19.089 8.25494 19.674 8.47263 20.3883L10.4591 26.8851C10.5611 27.2117 10.7176 27.2049 10.8197 26.8851L12.8061 20.3883C13.0238 19.6672 13.813 19.089 14.5613 19.089H15.6021H19.1056V32.4227H15.0239V24.6674C15.0239 24.6674 15.0239 24.6674 15.0239 24.6606C15.0239 24.5109 14.9014 24.3953 14.7586 24.3953C14.6225 24.4021 14.5137 24.4973 14.4932 24.6266Z" fill="#37A72E"/>
</g>
<defs>
<linearGradient id="paint0_linear_12012_94519" x1="35.7844" y1="21.7809" x2="49.5102" y2="21.7809" gradientUnits="userSpaceOnUse">
<stop stop-color="#00A0E5"/>
<stop offset="1" stop-color="#0077C3"/>
</linearGradient>
<clipPath id="clip0_12012_94519">
<rect width="51.5789" height="51.5789" fill="white"/>
</clipPath>
</defs>
</svg>
