<svg width="29" height="18" viewBox="0 0 29 18" fill="none" xmlns="http://www.w3.org/2000/svg">
<path d="M1.92871 0.516138H26.679C27.4604 0.516138 28.0933 1.10853 28.0933 1.83993V15.7397C28.0933 16.4711 27.4604 17.0635 26.679 17.0635H1.92871C1.14731 17.0635 0.514404 16.4711 0.514404 15.7397V1.83993C0.514404 1.10853 1.14731 0.516138 1.92871 0.516138Z" fill="white"/>
<path d="M19.9216 8.44806V12.3766H22.1041V10.0486H24.5776C25.618 10.0413 26.5019 9.37563 26.8365 8.44806H19.9216Z" fill="#37A72E"/>
<path d="M19.6289 5.20942C19.7562 6.81356 21.2767 8.08305 23.1318 8.08305C23.1391 8.08305 26.9257 8.08305 26.9257 8.08305C26.9548 7.93755 26.9694 7.78477 26.9694 7.62836C26.9694 6.29704 25.8963 5.22034 24.5686 5.20942H19.6289Z" fill="url(#paint0_linear_12012_94489)"/>
<path d="M16.404 8.04304C16.4295 7.99939 16.4695 7.97392 16.5204 7.97392C16.5932 7.97392 16.6477 8.03212 16.6514 8.10124V12.3389H18.8339V5.20942H16.6514C16.3749 5.22034 16.0621 5.4204 15.9457 5.67139L14.2106 9.39618C14.207 9.41073 14.1997 9.42528 14.1924 9.43983C14.167 9.47621 14.1233 9.50167 14.0724 9.50167C13.9924 9.50167 13.9269 9.4362 13.9269 9.35617V5.20942H11.7444V12.3389H13.9269C14.1997 12.3244 14.5052 12.1243 14.6216 11.877L16.404 8.05395C16.4004 8.05031 16.404 8.04667 16.404 8.04304Z" fill="#37A72E"/>
<path d="M8.24888 8.16782L6.97212 12.34H5.40072L4.1276 8.16419C4.11669 8.09871 4.05849 8.04779 3.98574 8.04779C3.90571 8.04779 3.84388 8.11326 3.84388 8.18965V12.3364H1.66138V5.2069H3.53469H4.09123C4.49135 5.2069 4.9133 5.51972 5.0297 5.90166L6.09185 9.37547C6.14641 9.55007 6.23007 9.54643 6.28464 9.37547L7.34679 5.90166C7.46318 5.51609 7.88513 5.2069 8.28526 5.2069H8.8418H10.7151V12.3364H8.53261V8.18965C8.53261 8.18965 8.53261 8.18965 8.53261 8.18601C8.53261 8.10599 8.46713 8.04415 8.39075 8.04415C8.318 8.04779 8.2598 8.09871 8.24888 8.16782Z" fill="#37A72E"/>
<defs>
<linearGradient id="paint0_linear_12012_94489" x1="19.6298" y1="6.64624" x2="26.9689" y2="6.64624" gradientUnits="userSpaceOnUse">
<stop stop-color="#00A0E5"/>
<stop offset="1" stop-color="#0077C3"/>
</linearGradient>
</defs>
</svg>
