<svg width="20" height="20" viewBox="0 0 20 20" fill="none" xmlns="http://www.w3.org/2000/svg">
<path d="M1.89062 4.35352L4.31263 8.68268V11.3233L1.89346 15.644L1.89062 4.35352Z" fill="#5B57A2"/>
<path d="M11.1875 7.10627L13.457 5.71527L18.1017 5.71094L11.1875 9.9466V7.10627Z" fill="#D90751"/>
<path d="M11.1805 4.32783L11.1933 10.0595L8.76562 8.56783V0L11.1805 4.32783Z" fill="#FAB718"/>
<path d="M18.1075 5.71183L13.4626 5.71617L11.1805 4.32783L8.76562 0L18.1075 5.71183Z" fill="#ED6F26"/>
<path d="M11.1933 15.668V12.8872L8.76562 11.4238L8.76696 20.0002L11.1933 15.668Z" fill="#63B22F"/>
<path d="M13.454 14.2897L4.31246 8.68268L1.89062 4.35352L18.0945 14.284L13.454 14.2897Z" fill="#1487C9"/>
<path d="M8.76562 19.9994L11.1916 15.6672L13.4555 14.2889L18.096 14.2832L8.76562 19.9994Z" fill="#017F36"/>
<path d="M1.89062 15.643L8.77946 11.423L6.46346 10.002L4.30979 11.3223L1.89062 15.643Z" fill="#984995"/>
</svg>
