<svg width="68" height="64" viewBox="0 0 68 64" fill="none" xmlns="http://www.w3.org/2000/svg">
<path d="M73.8934 46.5506C68.8894 66.6276 48.5548 78.8874 28.4409 73.8804C8.36379 68.8611 -3.87625 48.5264 1.1277 28.4494C6.13164 8.37236 26.454 -3.88738 46.5188 1.1196C66.645 6.06523 78.885 26.4613 73.8934 46.5506Z" fill="#009393"/>
<path fill-rule="evenodd" clip-rule="evenodd" d="M20.0414 16.4883H55.6994C56.5502 16.4883 57.3362 16.9291 57.7605 17.6444L68.1493 35.1564C68.6878 36.0646 68.528 37.2108 67.7595 37.9472L39.1644 65.3513C38.2381 66.239 36.748 66.239 35.8217 65.3513L7.26548 37.9842C6.47918 37.2307 6.33194 36.051 6.91015 35.1372L18.0147 17.5882C18.4472 16.9048 19.2147 16.4883 20.0414 16.4883ZM51.0953 24.3068V29.2203H40.9378V32.6271C48.0717 32.9911 53.424 34.4864 53.4638 36.2786L53.4635 40.0148C53.4238 41.807 48.0717 43.3022 40.9378 43.6663V52.0268H34.1931V43.6663C27.0591 43.3022 21.7068 41.807 21.667 40.0148L21.6673 36.2786C21.707 34.4864 27.0591 32.9911 34.1931 32.6271V29.2203H24.0355V24.3068H51.0953ZM37.5654 41.0995C45.1786 41.0995 51.5419 39.8351 53.0992 38.1467C51.7786 36.7149 47.002 35.588 40.9378 35.2786V38.8454C39.8508 38.9009 38.7226 38.9301 37.5654 38.9301C36.4082 38.9301 35.2799 38.9009 34.1931 38.8454V35.2786C28.1288 35.588 23.3522 36.7149 22.0316 38.1467C23.5889 39.8351 29.9522 41.0995 37.5654 41.0995Z" fill="white"/>
</svg>
