<svg width="68" height="64" viewBox="0 0 68 64" fill="none" xmlns="http://www.w3.org/2000/svg">
<path d="M73.8909 46.5506C68.887 66.6276 48.5523 78.8874 28.4384 73.8804C8.36135 68.8611 -3.87869 48.5264 1.12525 28.4494C6.1292 8.37236 26.4516 -3.88738 46.5164 1.1196C66.6426 6.06523 78.8826 26.4613 73.8909 46.5506Z" fill="#0088CC"/>
<path fill-rule="evenodd" clip-rule="evenodd" d="M22.9233 18.8409H52.9678C53.9726 18.8409 54.9663 18.8409 56.306 19.5108C57.6458 20.1807 58.3045 21.1855 58.9744 21.8443C58.9744 21.8443 58.9744 21.8443 58.9744 22.1792C59.6443 23.184 59.9793 24.1777 59.9793 25.5175C59.9793 26.5223 59.6443 27.8509 58.9744 28.8558L39.9496 61.2448C39.6147 61.9147 38.6099 62.2496 37.9511 62.2496C37.2813 62.2496 36.2876 61.9147 35.9526 61.2448L17.2516 28.8558C16.9167 28.1859 16.2468 27.1922 15.9119 25.5175C15.9119 24.1777 16.2468 22.8491 16.5818 21.8443C17.2516 20.8394 18.2453 19.8458 19.2501 19.1759C20.9249 18.8409 22.2535 18.8409 22.9233 18.8409ZM35.6065 23.519H22.9233C22.2535 23.519 21.9185 23.519 21.5836 23.519C21.2486 23.519 20.9137 23.8539 20.9137 24.1889C20.5787 24.5238 20.5787 24.8588 20.5787 25.1937C20.5787 25.5286 20.5787 25.5286 21.2486 26.5335L35.6065 51.5761V23.519ZM40.2846 23.519V51.5649L54.9774 26.5223C54.9774 26.1874 55.3124 25.8524 55.3124 25.1825C55.3124 24.8476 55.3124 24.5127 54.9774 24.1777C54.6425 23.8428 54.6425 23.8428 54.6425 23.8428C54.6425 23.8428 54.6425 23.8428 54.3075 23.8428C53.9726 23.8428 53.6377 23.5078 52.9678 23.5078H40.2846V23.519Z" fill="white"/>
</svg>
