<svg width="68" height="69" viewBox="0 0 68 69" fill="none" xmlns="http://www.w3.org/2000/svg">
<g filter="url(#filter0_di_6041_7437)">
<path fill-rule="evenodd" clip-rule="evenodd" d="M47.0734 10.1434L47.6183 10.2118C49.0586 10.4106 50.9647 10.6777 52.0438 11.7589C52.9285 12.6415 53.2683 14.0775 53.4713 15.3596L53.591 16.1845C53.8602 18.1291 53.9307 20.6763 53.4713 23.5055C52.5652 29.0893 49.5928 35.7522 42.1286 40.9107C42.088 41.3124 42.0858 41.7184 42.0944 42.1244L42.1158 42.7313C42.1499 43.6651 42.1841 44.599 41.9234 45.505C41.5174 46.9154 40.0707 47.8449 38.7181 48.5116L38.0556 48.8258L37.2009 49.2019C35.6025 49.8814 33.4442 50.578 32.0915 49.2232C31.2795 48.4133 30.9461 47.2252 30.6747 46.0435L30.5743 45.6012C30.4595 45.0431 30.3169 44.4911 30.1469 43.9472C30.0401 43.6338 29.9247 43.3168 29.8008 42.9963C29.6643 43.1637 29.5196 43.3242 29.367 43.4771C28.6297 44.2143 27.5292 44.7293 26.6232 45.0904C25.6338 45.4815 24.514 45.8234 23.4776 46.1055L22.9456 46.2465L21.9262 46.5008L21.0031 46.7145L19.8983 46.9496L19.2081 47.0842C18.8639 47.1479 18.5093 47.127 18.175 47.0231C17.8406 46.9193 17.5366 46.7357 17.289 46.4881C17.0415 46.2406 16.8579 45.9365 16.754 45.6022C16.6502 45.2678 16.6292 44.9133 16.693 44.569L16.8767 43.648L17.2058 42.1565L17.4708 41.0666L17.6717 40.2974C17.9537 39.2631 18.2956 38.1434 18.6888 37.1561C19.0478 36.2479 19.5628 35.1474 20.3001 34.4102L20.471 34.2456L20.3343 34.1901C19.969 34.0514 19.5991 33.9252 19.2252 33.8118L18.6333 33.6302C17.1503 33.1815 15.5647 32.6985 14.5796 31.7113C13.3829 30.5167 13.7868 28.6982 14.3637 27.1853L14.5988 26.5998L14.977 25.745L15.2911 25.0826C15.9579 23.732 16.8874 22.2854 18.2978 21.8793C19.0457 21.6657 19.8235 21.6528 20.6056 21.6742L21.0758 21.6892C21.6869 21.7105 22.2959 21.734 22.8921 21.6763C28.0506 14.21 34.7135 11.2375 40.2972 10.3315C42.5372 9.96411 44.8165 9.90085 47.0734 10.1434ZM26.106 37.2288C25.7698 36.9796 25.3679 36.8346 24.95 36.8118C24.5321 36.789 24.1168 36.8894 23.7554 37.1005L23.5204 37.2587L23.3216 37.436L23.0545 37.7737C22.4989 38.5771 22.1827 39.6883 21.9369 40.7269L21.7061 41.7269L21.5972 42.1821L22.0053 42.0838L22.8985 41.8787C24.1337 41.5902 25.5034 41.2162 26.3454 40.4576C26.7115 40.0917 26.9323 39.6054 26.9669 39.089C27.0015 38.5726 26.8474 38.0612 26.5334 37.6497L26.3582 37.4489L26.3069 37.3997L26.106 37.2288ZM41.4555 22.326C41.0586 21.929 40.5875 21.6141 40.069 21.3992C39.5506 21.1844 38.9948 21.0737 38.4335 21.0736C37.8723 21.0735 37.3165 21.184 36.7979 21.3987C36.2794 21.6134 35.8081 21.9281 35.4112 22.3249C35.0143 22.7217 34.6994 23.1928 34.4845 23.7113C34.2696 24.2298 34.159 24.7855 34.1589 25.3468C34.1588 25.9081 34.2692 26.4638 34.4839 26.9824C34.6986 27.501 35.0133 27.9722 35.4101 28.3691C36.2115 29.1708 37.2985 29.6213 38.432 29.6215C39.5656 29.6217 40.6527 29.1716 41.4544 28.3702C42.256 27.5688 42.7065 26.4818 42.7067 25.3483C42.7069 24.2148 42.2568 23.1276 41.4555 22.326Z" fill="url(#paint0_radial_6041_7437)"/>
<path d="M40.3896 10.8955C42.5788 10.5364 44.807 10.4748 47.0127 10.7119V10.7109L47.5469 10.7793C48.2706 10.8792 49.0655 10.9909 49.8096 11.2041C50.4649 11.3919 51.0367 11.6462 51.4648 12.0029L51.6396 12.1631H51.6406C52.2871 12.808 52.6153 13.8522 52.8242 14.9678L52.9072 15.4492L53.0254 16.2666C53.2708 18.0412 53.3469 20.3389 52.9854 22.8984L52.9072 23.4141C52.0224 28.867 49.1222 35.3826 41.8037 40.4404L41.5869 40.5908L41.5596 40.8535C41.5376 41.0714 41.5263 41.2886 41.5215 41.5029L41.5234 42.1367V42.1445L41.5449 42.751V42.752C41.5753 43.5829 41.5988 44.3313 41.4492 45.0439L41.374 45.3467C41.2126 45.9074 40.8358 46.4028 40.3066 46.8506C39.7791 47.297 39.13 47.6711 38.4736 47.9951L37.8252 48.3027L36.9775 48.6758C36.1887 49.0112 35.3158 49.3264 34.498 49.4072C33.7417 49.482 33.0949 49.3525 32.5938 48.9121L32.4961 48.8193L32.4951 48.8184L32.3721 48.6875C31.7761 48.0106 31.4886 47.0363 31.2314 45.917H31.2324L31.1318 45.4746H31.1309C31.0126 44.9018 30.8668 44.3346 30.6924 43.7764L30.6904 43.7695L30.6875 43.7627L30.5176 43.2793C30.4585 43.117 30.3973 42.9539 30.334 42.79L29.9785 41.873L29.3574 42.6357C29.2954 42.7118 29.2317 42.7865 29.166 42.8594L28.9629 43.0732C28.3152 43.7208 27.3122 44.2001 26.4131 44.5586C25.4526 44.9382 24.3568 45.2735 23.3311 45.5527L22.7988 45.6943L21.7881 45.9463L20.8838 46.1553L19.7812 46.3896L19.1016 46.5225C18.8493 46.5688 18.5897 46.5536 18.3447 46.4775C18.1604 46.4203 17.9881 46.3302 17.8369 46.2119L17.6934 46.084C17.5568 45.9475 17.4469 45.7874 17.3682 45.6123L17.2998 45.4326C17.2235 45.1868 17.208 44.9259 17.2549 44.6729L17.2539 44.6719L17.4375 43.7598L17.4365 43.7588L17.7637 42.2793L17.7627 42.2783L18.0264 41.2012L18.0254 41.2002L18.2246 40.4414L18.2236 40.4404C18.4678 39.5456 18.7562 38.5972 19.0791 37.7334L19.2197 37.3672L19.2207 37.3662C19.5752 36.4695 20.0525 35.4703 20.6963 34.8223L20.8672 34.6572L21.501 34.0469L20.6865 33.7158L20.5498 33.6611L20.3584 34.1289L20.5498 33.6602L20.5371 33.6562L19.9678 33.4502C19.7767 33.385 19.5839 33.3232 19.3906 33.2646H19.3896L18.8008 33.084L18.7988 33.083L18.2412 32.9131C17.6875 32.7413 17.1471 32.5611 16.6436 32.3467C16.0562 32.0965 15.5478 31.8105 15.1484 31.4609L14.9844 31.3076L14.9834 31.3066L14.8252 31.1299C14.4873 30.7038 14.3603 30.1831 14.3779 29.585C14.3985 28.8904 14.6147 28.1314 14.8936 27.3984L15.1211 26.8311L15.5 25.9766L15.499 25.9756L15.8037 25.3359C16.1286 24.6777 16.5039 24.0257 16.9521 23.4961C17.3999 22.9671 17.8953 22.5901 18.4561 22.4287L18.4551 22.4277C19.1127 22.24 19.8153 22.2231 20.5879 22.2441V22.2451L21.0576 22.2607V22.2598C21.6593 22.2808 22.3072 22.3071 22.9473 22.2451L23.2109 22.2197L23.3623 22.001C28.2622 14.909 34.5304 11.9657 39.875 10.9844L40.3887 10.8955H40.3896ZM24.9814 36.2412C24.4518 36.2123 23.9247 36.3398 23.4668 36.6074L23.4512 36.6162L23.4365 36.626L23.2012 36.7842L23.1689 36.8066L23.1396 36.832L22.9414 37.0098L22.9043 37.043L22.873 37.0811L22.6064 37.4189L22.5947 37.4336L22.585 37.4482C22.0392 38.2376 21.7143 39.2628 21.4775 40.2002L21.3809 40.5957L21.3799 40.5986L21.1504 41.5938L21.041 42.0488L20.8242 42.9561L21.7314 42.7373L22.1387 42.6396L22.1377 42.6387L23.0264 42.4355H23.0283C24.1634 42.1704 25.5704 41.804 26.54 41.04L26.7275 40.8818L26.7393 40.8721L26.749 40.8613C27.1548 40.4557 27.4204 39.9337 27.5098 39.3711L27.5371 39.127C27.5809 38.4725 27.3852 37.8241 26.9873 37.3027L26.9766 37.2881L26.9639 37.2744L26.7891 37.0732L26.7725 37.0537L26.7539 37.0361L26.7021 36.9873L26.6904 36.9756L26.6777 36.9648L26.4766 36.7939L26.4619 36.7812L26.4463 36.7695L26.2832 36.6572C25.9487 36.4453 25.5715 36.3092 25.1787 36.2588L24.9814 36.2412ZM38.4336 20.502C37.8768 20.5019 37.3249 20.5981 36.8018 20.7852L36.5791 20.8711C36.0647 21.0841 35.5914 21.3838 35.1797 21.7568L35.0068 21.9209C34.6133 22.3144 34.2913 22.7725 34.0537 23.2744L33.957 23.4922C33.7134 24.08 33.588 24.7104 33.5879 25.3467L33.5928 25.585C33.6161 26.0606 33.7098 26.5301 33.8701 26.9785L33.9561 27.2012C34.169 27.7156 34.4688 28.1889 34.8418 28.6006L35.0059 28.7734C35.8575 29.6254 36.994 30.1268 38.1914 30.1865L38.4316 30.1934C39.6364 30.1936 40.7956 29.7451 41.6846 28.9404L41.8584 28.7744C42.7672 27.8659 43.278 26.6336 43.2783 25.3486C43.2785 24.1438 42.8301 22.9847 42.0254 22.0957L41.8594 21.9219C41.4658 21.5282 41.0079 21.2054 40.5059 20.9678L40.2881 20.8711C39.7003 20.6275 39.0699 20.5021 38.4336 20.502Z" stroke="url(#paint1_linear_6041_7437)" stroke-opacity="0.25" stroke-width="1.14286"/>
</g>
<defs>
<filter id="filter0_di_6041_7437" x="0.0904026" y="0.856167" width="67.4286" height="67.4276" filterUnits="userSpaceOnUse" color-interpolation-filters="sRGB">
<feFlood flood-opacity="0" result="BackgroundImageFix"/>
<feColorMatrix in="SourceAlpha" type="matrix" values="0 0 0 0 0 0 0 0 0 0 0 0 0 0 0 0 0 0 127 0" result="hardAlpha"/>
<feOffset dy="4.57143"/>
<feGaussianBlur stdDeviation="6.85714"/>
<feComposite in2="hardAlpha" operator="out"/>
<feColorMatrix type="matrix" values="0 0 0 0 0.612917 0 0 0 0 0.604133 0 0 0 0 0.616987 0 0 0 0.25 0"/>
<feBlend mode="normal" in2="BackgroundImageFix" result="effect1_dropShadow_6041_7437"/>
<feBlend mode="normal" in="SourceGraphic" in2="effect1_dropShadow_6041_7437" result="shape"/>
<feColorMatrix in="SourceAlpha" type="matrix" values="0 0 0 0 0 0 0 0 0 0 0 0 0 0 0 0 0 0 127 0" result="hardAlpha"/>
<feOffset dy="2.28571"/>
<feGaussianBlur stdDeviation="2.28571"/>
<feComposite in2="hardAlpha" operator="arithmetic" k2="-1" k3="1"/>
<feColorMatrix type="matrix" values="0 0 0 0 0 0 0 0 0 0 0 0 0 0 0 0 0 0 0.35 0"/>
<feBlend mode="normal" in2="shape" result="effect2_innerShadow_6041_7437"/>
</filter>
<radialGradient id="paint0_radial_6041_7437" cx="0" cy="0" r="1" gradientUnits="userSpaceOnUse" gradientTransform="translate(38.1841 0.829659) rotate(96.2411) scale(46.7264 94.9104)">
<stop stop-color="#DDD8DA"/>
<stop offset="1" stop-color="#7E7C7F"/>
</radialGradient>
<linearGradient id="paint1_linear_6041_7437" x1="33.8047" y1="9.99902" x2="33.8047" y2="49.9979" gradientUnits="userSpaceOnUse">
<stop stop-color="white"/>
<stop offset="1"/>
</linearGradient>
</defs>
</svg>
