<svg width="17" height="16" viewBox="0 0 17 16" fill="none" xmlns="http://www.w3.org/2000/svg">
<rect x="0.5" width="16" height="16" rx="8" fill="#6C6395"/>
<path d="M3.64 7.896H5.232V6.304H6.048V7.896H7.64V8.712H6.048V10.312H5.232V8.712H3.64V7.896ZM8.61725 9.344C8.61725 8.648 9.00925 8.088 9.61725 7.856C9.10525 7.624 8.82525 7.184 8.82525 6.616C8.82525 5.688 9.64925 5.048 10.8573 5.048C12.0573 5.048 12.8653 5.68 12.8653 6.632C12.8653 7.2 12.5773 7.64 12.0573 7.856C12.6733 8.072 13.0733 8.64 13.0733 9.344C13.0733 10.4 12.2013 11.096 10.8413 11.096C9.48925 11.096 8.61725 10.408 8.61725 9.344ZM9.75325 6.704C9.75325 7.192 10.1773 7.504 10.8413 7.504C11.4973 7.504 11.9133 7.2 11.9133 6.712C11.9133 6.224 11.4973 5.92 10.8413 5.92C10.1773 5.92 9.75325 6.224 9.75325 6.704ZM9.61725 9.272C9.61725 9.84 10.0893 10.192 10.8493 10.192C11.5933 10.192 12.0653 9.84 12.0653 9.272C12.0653 8.704 11.5933 8.352 10.8413 8.352C10.0893 8.352 9.61725 8.704 9.61725 9.272Z" fill="#D9CEFF"/>
</svg>
