<svg width="400" height="69" viewBox="0 0 400 69" fill="none" xmlns="http://www.w3.org/2000/svg">
<path d="M43.7656 0.273437H52.0385C52.7905 0.273437 55.0468 0.0234775 56.0495 3.52291C56.8016 5.77254 57.8044 9.27197 59.3085 14.5211H59.8099C61.3141 9.02201 62.5676 5.27262 63.0689 3.52291C64.0717 0.0234775 66.5786 0.273437 67.5814 0.273437H75.3529V24.2695H67.3307V10.0219H66.8293L62.5676 24.2695H56.5509L52.2892 10.0219H51.5371V24.2695H43.7656M78.6119 0.273437H86.634V14.5211H87.3861L92.6506 2.77303C93.6534 0.523396 95.9096 0.273437 95.9096 0.273437H103.43V24.2695H95.4082V10.0219H94.9069L89.6423 21.7699C88.6396 24.0196 86.1326 24.2695 86.1326 24.2695H78.6119M114.21 17.0207V24.2695H106.689V11.7716H131.257C130.254 14.7711 126.745 17.0207 122.734 17.0207" fill="#0F754E"/>
<path d="M131.758 10.2699C132.761 5.77059 129.753 0.271484 123.235 0.271484H106.188C106.689 5.52063 111.201 10.2699 115.965 10.2699" fill="url(#paint0_linear_2591_155433)"/>
<path d="M197.572 22.5218V22.4588C197.572 22.4447 197.572 22.43 197.568 22.4158V22.4122C197.51 21.9665 197.146 21.623 196.698 21.591H196.582C196.227 21.5679 195.887 21.7389 195.694 22.0372C195.516 21.7488 195.196 21.5784 194.857 21.591C194.554 21.5648 194.261 21.7058 194.092 21.9581V21.6597H194.083V21.6518H193.539V24.1956H194.096V24.1877H194.104V22.7976C194.076 22.484 194.297 22.2029 194.608 22.1557H194.724C195.087 22.1557 195.273 22.3954 195.273 22.8285V24.2448H195.806V24.206H195.829V22.7876C195.786 22.4851 195.997 22.205 196.301 22.1626C196.316 22.1605 196.333 22.1589 196.349 22.1578H196.457C196.836 22.1578 197.014 22.3975 197.014 22.8306V24.2469H197.57V22.5553C197.57 22.5485 197.572 22.5317 197.572 22.5212L197.572 22.5218Z" fill="white"/>
<path d="M202.621 22.6439H202.358C202.119 22.6129 201.925 22.5668 201.925 22.3964C201.925 22.3413 201.945 22.2878 201.982 22.2464C202.062 22.1767 202.197 22.1337 202.374 22.1337C202.645 22.1394 202.912 22.2144 203.147 22.3502L203.167 22.3135L203.178 22.3193L203.426 21.8709C203.112 21.6858 202.752 21.5951 202.389 21.6088C202.173 21.6046 201.959 21.6539 201.766 21.7524C201.471 21.8846 201.298 22.1279 201.298 22.4514C201.298 22.9538 201.607 23.1242 202.172 23.2243H202.434C202.736 23.2632 202.883 23.3481 202.883 23.4865C202.883 23.5662 202.817 23.6554 202.69 23.7178C202.575 23.7524 202.455 23.7681 202.334 23.765C202.032 23.7734 201.735 23.6811 201.491 23.5028L201.468 23.5395L201.46 23.5337L201.227 23.9349C201.548 24.1614 201.935 24.2783 202.329 24.2673C203.064 24.2673 203.49 23.9197 203.49 23.4404C203.491 23.3423 203.473 23.2448 203.437 23.1541C203.326 22.8573 203.029 22.7288 202.621 22.6439H202.621Z" fill="white"/>
<path d="M205.298 23.7438C205.036 23.7438 204.934 23.5739 204.934 23.3185V22.1586H205.871V21.6563H204.919V20.8828H204.362V21.6557H203.859V22.1581H204.376V23.3259C204.376 23.921 204.608 24.2703 205.258 24.2703C205.503 24.2723 205.743 24.2052 205.95 24.0768L205.788 23.6048C205.639 23.6919 205.47 23.7401 205.298 23.7443V23.7438Z" fill="white"/>
<path d="M213.122 23.5057L213.099 23.4669C212.909 23.6168 212.676 23.7013 212.434 23.7065C211.998 23.6871 211.661 23.318 211.68 22.8827C211.698 22.4742 212.025 22.1476 212.434 22.1292C212.675 22.1323 212.909 22.2136 213.099 22.361L213.393 21.866C213.138 21.6562 212.781 21.565 212.448 21.5645C211.74 21.5645 211.136 22.0642 211.094 22.771V22.9645C211.086 23.6682 211.649 24.2456 212.354 24.255H212.47C212.801 24.2686 213.125 24.1611 213.383 23.9535L213.121 23.5052L213.122 23.5062V23.5057Z" fill="white"/>
<path d="M218.199 21.586C217.933 21.5844 217.684 21.7202 217.542 21.9451V21.663H217.534V21.6478H216.984V24.1842H216.992V24.1994H217.542V22.7763C217.542 22.3568 217.727 22.1271 218.075 22.1271C218.191 22.1255 218.307 22.1465 218.416 22.189H218.423L218.594 21.6557C218.467 21.6101 218.333 21.5865 218.199 21.586Z" fill="white"/>
<path d="M200.105 21.64V21.9352C199.908 21.7129 199.628 21.5834 199.331 21.5781C198.598 21.6342 198.049 22.2734 198.106 23.006C198.134 23.4019 198.331 23.7663 198.646 24.0086C198.846 24.1659 199.092 24.2335 199.362 24.2545C199.647 24.2577 199.918 24.1355 200.104 23.9205V24.1926H200.684V21.6636H200.653L200.104 21.6405L200.105 21.64ZM199.441 23.705H199.41C198.983 23.705 198.637 23.3589 198.637 22.9321C198.635 22.909 198.635 22.8854 198.637 22.8623C198.658 22.436 199.021 22.1072 199.448 22.1287C199.874 22.1502 200.203 22.5131 200.182 22.9394C200.159 23.3505 199.851 23.705 199.441 23.705Z" fill="white"/>
<path d="M220.854 20.6113V21.9417C220.668 21.7041 220.382 21.5667 220.08 21.5704C219.347 21.627 218.799 22.2662 218.856 22.9988C218.906 23.6527 219.426 24.1723 220.08 24.2227C220.382 24.2269 220.668 24.09 220.854 23.853V24.1624H221.387V20.6113H220.854ZM220.854 22.9464C220.833 23.3575 220.477 23.7041 220.082 23.7041C219.655 23.7041 219.308 23.358 219.308 22.9311C219.307 22.9107 219.307 22.8897 219.308 22.8693C219.327 22.4424 219.688 22.1121 220.115 22.1304C220.515 22.1477 220.835 22.4671 220.854 22.8667C220.856 22.8939 220.856 22.9207 220.854 22.9479V22.9464H220.854Z" fill="white"/>
<path d="M215.714 21.9419C215.531 21.7007 215.243 21.5628 214.941 21.5706C214.242 21.6016 213.713 22.2051 213.711 22.8931C213.71 22.9387 213.711 22.9843 213.715 23.0294C213.767 23.6838 214.284 24.2255 214.941 24.2544C215.243 24.2622 215.531 24.1238 215.714 23.8831V24.1925H216.263V21.633H215.714V21.9424V21.9419ZM215.751 22.9476C215.74 23.3671 215.399 23.7022 214.98 23.7053C214.552 23.7053 214.206 23.3236 214.206 22.8705C214.206 22.4437 214.59 22.1364 215.017 22.1364C215.429 22.137 215.751 22.5208 215.751 22.9476Z" fill="white"/>
<path d="M207.713 21.6041C207.67 21.5999 207.626 21.5978 207.583 21.5978C207.537 21.5941 207.492 21.5931 207.446 21.5941C206.712 21.5952 206.117 22.1914 206.117 22.9255C206.118 23.6208 206.655 24.1982 207.349 24.2501C207.387 24.2532 207.426 24.2543 207.466 24.2537C207.505 24.2532 207.544 24.2537 207.583 24.2501H207.66C208.015 24.2496 208.36 24.1268 208.635 23.9024L208.373 23.4929L208.352 23.5086L208.342 23.4929C208.123 23.6675 207.849 23.7603 207.568 23.7551C207.549 23.7551 207.529 23.7582 207.509 23.7587C207.159 23.7504 206.868 23.485 206.827 23.1368H208.717L208.794 22.9271C208.861 22.2643 208.378 21.6723 207.715 21.6051C207.714 21.6051 207.714 21.6051 207.713 21.6051L207.713 21.6041ZM206.894 22.7058C206.911 22.3581 207.199 22.0849 207.547 22.0876C207.888 22.086 208.168 22.3571 208.177 22.6979V22.7058H206.894H206.894Z" fill="white"/>
<path d="M209.854 21.9337V21.6636H209.838V21.6484H209.289V24.1848H209.304V24.2H209.854V22.7763C209.854 22.3595 210.039 22.1277 210.386 22.1272C210.501 22.1266 210.614 22.1476 210.72 22.189V22.1838L210.734 22.189L210.904 21.6558C210.778 21.6101 210.644 21.5865 210.51 21.586C210.246 21.5823 209.998 21.7134 209.854 21.9337Z" fill="white"/>
<path d="M211.599 2.31445H203.227V17.3466H211.599V2.31445Z" fill="#E7621D"/>
<path d="M207.417 17.3455C203.264 20.6066 197.252 19.8846 193.989 15.7336C190.726 11.5827 191.448 5.57393 195.601 2.31339C199.069 -0.40915 203.95 -0.40915 207.417 2.31339C203.263 5.57445 202.541 11.5827 205.804 15.7336C206.275 16.3335 206.817 16.8747 207.417 17.3455H207.417Z" fill="#E11622"/>
<path d="M222.887 9.83064C222.887 15.1095 218.606 19.3889 213.324 19.3894C211.181 19.3894 209.099 18.67 207.414 17.3465C211.568 14.0854 212.29 8.07714 209.027 3.92622C208.556 3.32633 208.014 2.78518 207.414 2.3143C211.566 -0.948342 217.579 -0.229429 220.844 3.91992C222.17 5.60525 222.89 7.68701 222.889 9.83064H222.887Z" fill="#F49B21"/>
<path d="M221.781 15.3848V15.4466H221.92V15.756H221.973V15.4466H222.112V15.3848H221.781ZM222.493 15.3848L222.385 15.647L222.277 15.3848H222.192V15.756H222.261V15.4776L222.362 15.7172H222.432L222.533 15.4776V15.756H222.585V15.3848H222.493Z" fill="#F49B21"/>
<path d="M314.678 23.8672H308.695L312.434 0.679688H318.419L314.678 23.8672Z" fill="#188BEB"/>
<path d="M303.663 0.686682L297.959 16.6349L297.284 13.2013L295.266 2.76999C295.266 2.76999 295.028 0.685547 292.431 0.685547H283.003L282.891 1.07815C282.891 1.07815 285.775 1.68181 289.151 3.72881L294.349 23.872H300.583L310.104 0.686682H303.663Z" fill="#188BEB"/>
<path d="M350.734 23.8705H356.227L351.435 0.6875H346.626C344.403 0.6875 343.862 2.41451 343.862 2.41451L334.938 23.8705H341.171L342.418 20.4267H350.025L350.734 23.8705ZM344.147 15.6701L347.291 6.99075L349.059 15.6701H344.147Z" fill="#188BEB"/>
<path d="M335.404 6.2596L336.258 1.28055C336.258 1.28055 333.621 0.269531 330.877 0.269531C327.906 0.269531 320.854 1.57897 320.854 7.94576C320.854 13.937 329.131 14.0119 329.131 17.155C329.131 20.2981 321.705 19.7387 319.256 17.7541L318.367 22.959C318.367 22.959 321.038 24.2695 325.118 24.2695C329.198 24.2695 335.363 22.1352 335.363 16.3323C335.363 10.5295 327.012 9.74086 327.012 7.12084C327.012 4.50082 332.844 4.83442 335.404 6.25847V6.2596Z" fill="#188BEB"/>
<path d="M297.283 13.1718L295.274 2.76885C295.274 2.76885 295.032 0.685547 292.443 0.685547H283.034L282.922 1.07815C282.922 1.07815 287.448 2.02336 291.78 5.56702C295.932 8.95182 297.282 13.1718 297.282 13.1718H297.283Z" fill="#F6A335"/>
<path d="M115.638 59.1726C114.036 65.6013 107.524 69.5131 101.095 67.9104C94.6683 66.3076 90.7562 59.7961 92.3593 53.368C93.9614 46.9386 100.472 43.0259 106.9 44.6286C113.329 46.2314 117.241 52.7436 115.638 59.1726H115.638Z" fill="#F7931A"/>
<path d="M109.286 54.5605C109.525 52.9639 108.309 52.1055 106.647 51.5329L107.186 49.3699L105.869 49.0417L105.344 51.1477C104.999 51.0613 104.643 50.9802 104.29 50.8993L104.818 48.7794L103.502 48.4512L102.963 50.6135C102.676 50.5483 102.395 50.4838 102.122 50.416L102.123 50.4092L100.308 49.9559L99.9576 51.3621C99.9576 51.3621 100.934 51.586 100.914 51.5997C101.447 51.7327 101.544 52.0856 101.527 52.3656L100.911 54.8392L100.05 58.2911C99.9846 58.4531 99.819 58.6962 99.4465 58.604C99.4596 58.6232 98.4897 58.3651 98.4897 58.3651L97.8359 59.8727L99.5495 60.3C99.8683 60.3798 100.18 60.4636 100.488 60.5421L99.9429 62.7302L101.258 63.0584L101.798 60.8941C102.157 60.9915 102.505 61.0815 102.847 61.1662L102.309 63.3204L103.626 63.6486L104.17 61.4651C106.416 61.89 108.104 61.7186 108.814 59.6882C109.387 58.0532 108.786 57.11 107.604 56.4947C108.465 56.2956 109.113 55.7298 109.285 54.5608L109.286 54.5605ZM106.278 58.779C105.871 60.414 103.118 59.5305 102.225 59.3086L102.948 56.4103C103.841 56.6332 106.702 57.0742 106.278 58.7793L106.278 58.779ZM106.685 54.537C106.314 56.0245 104.022 55.2687 103.279 55.0836L103.934 52.4549C104.678 52.6397 107.072 52.9854 106.685 54.537Z" fill="white"/>
<path d="M168 44.2695C174.628 44.2695 180 49.642 180 56.2695C180 62.8971 174.628 68.2695 168 68.2695C161.372 68.2695 156 62.8971 156 56.2695C156 49.642 161.372 44.2695 168 44.2695Z" fill="#F0B90B"/>
<path d="M164.894 54.9805L166.711 53.1698L167.094 52.7865L168.002 51.8786L171.094 54.9805L172.894 53.1698L168.002 48.2695L163.094 53.1698L164.894 54.9805Z" fill="white"/>
<path d="M168.003 54.4582L166.195 56.2656L168.003 58.073L169.81 56.2656L168.003 54.4582Z" fill="white"/>
<path d="M171.094 57.5625L168.001 60.6556L166.915 59.5694L166.715 59.3696L164.894 57.5625L163.094 59.3624L168.002 64.2624L172.894 59.3624L171.094 57.5625Z" fill="white"/>
<path d="M161.807 54.4622L160 56.2695L161.807 58.0769L163.615 56.2695L161.807 54.4622Z" fill="white"/>
<path d="M174.19 54.4622L172.383 56.2695L174.19 58.0769L175.998 56.2695L174.19 54.4622Z" fill="white"/>
<path d="M232 44.2695C238.627 44.2695 244 49.6423 244 56.2695C244 62.8967 238.627 68.2695 232 68.2695C225.373 68.2695 220 62.898 220 56.2695C220 49.641 225.372 44.2695 232 44.2695Z" fill="#53AE94"/>
<path d="M233.483 54.6713V52.886H237.565V50.166H226.449V52.886H230.532V54.6696C227.214 54.8222 224.719 55.4792 224.719 56.2662C224.719 57.0533 227.215 57.7106 230.532 57.8638V63.5817H233.484V57.8631C236.796 57.7103 239.285 57.0536 239.285 56.2672C239.285 55.4808 236.795 54.8241 233.484 54.6713M233.484 57.3795V57.3779C233.4 57.3831 232.972 57.4088 232.02 57.4088C231.258 57.4088 230.722 57.3873 230.533 57.3776V57.3798C227.602 57.2501 225.414 56.7394 225.414 56.1287C225.414 55.518 227.602 55.0083 230.533 54.8779V56.8711C230.725 56.8841 231.274 56.9167 232.032 56.9167C232.943 56.9167 233.4 56.8789 233.484 56.8711V54.8782C236.41 55.0086 238.593 55.5196 238.593 56.128C238.593 56.7368 236.409 57.2478 233.484 57.3782" fill="white"/>
<path fill-rule="evenodd" clip-rule="evenodd" d="M296 44.2712C302.625 44.2751 307.995 49.6446 308 56.2695C307.996 62.8954 302.626 68.2656 296 68.2695C289.374 68.2656 284.004 62.8954 284 56.2695C284.024 49.6466 289.377 44.2695 296 44.2695V44.2712Z" fill="#B8B9BB"/>
<path fill-rule="evenodd" clip-rule="evenodd" d="M293.926 49.623L292.044 56.6619L290.553 57.2482L290.016 59.2524L291.531 58.7391L290.529 62.8941L301.38 62.9182L302.04 60.2543H295.441L296.296 57.0523L298.081 56.2946L298.594 54.3395L296.859 54.9258L298.227 49.6957L293.926 49.623Z" fill="white"/>
<defs>
<linearGradient id="paint0_linear_2591_155433" x1="128.75" y1="-2.97799" x2="108.694" y2="-2.97799" gradientUnits="userSpaceOnUse">
<stop stop-color="#1F5CD7"/>
<stop offset="1" stop-color="#02AEFF"/>
</linearGradient>
</defs>
</svg>
