<svg width="12" height="12" viewBox="0 0 12 12" fill="none" xmlns="http://www.w3.org/2000/svg">
<g clip-path="url(#clip0_8070_93495)">
<path d="M5.99935 11.8346C2.77769 11.8346 0.166016 9.22294 0.166016 6.0013C0.166016 2.77964 2.77769 0.167969 5.99935 0.167969C9.22098 0.167969 11.8327 2.77964 11.8327 6.0013C11.8327 9.22294 9.22098 11.8346 5.99935 11.8346ZM5.90234 7.50098C5.48813 7.50098 5.15234 7.83676 5.15234 8.25098C5.15234 8.66519 5.48813 9.00098 5.90234 9.00098H6.08984C6.50406 9.00098 6.83984 8.66519 6.83984 8.25098C6.83984 7.83676 6.50406 7.50098 6.08984 7.50098H5.90234ZM5.99609 3.00098C5.5301 3.00098 5.15234 3.37874 5.15234 3.84473V6.15723C5.15234 6.62322 5.5301 7.00098 5.99609 7.00098C6.46208 7.00098 6.83984 6.62322 6.83984 6.15723L6.83984 3.84473C6.83984 3.37874 6.46208 3.00098 5.99609 3.00098Z" fill="#9E90CF"/>
</g>
<defs>
<clipPath id="clip0_8070_93495">
<rect width="12" height="12" fill="white"/>
</clipPath>
</defs>
</svg>
