<svg width="40" height="41" viewBox="0 0 40 41" fill="none" xmlns="http://www.w3.org/2000/svg">
<g clip-path="url(#clip0_489_96197)">
<path d="M20 40.1973C31.0457 40.1973 40 31.243 40 20.1973C40 9.15157 31.0457 0.197266 20 0.197266C8.9543 0.197266 0 9.15157 0 20.1973C0 31.243 8.9543 40.1973 20 40.1973Z" fill="url(#paint0_linear_489_96197)"/>
<path fill-rule="evenodd" clip-rule="evenodd" d="M9.0537 19.9862C14.8841 17.446 18.772 15.7713 20.7172 14.9622C26.2714 12.6521 27.4256 12.2507 28.1778 12.2374C28.3432 12.2346 28.7132 12.2756 28.9528 12.47C29.3082 12.7585 29.3103 13.3846 29.2708 13.7989C28.9698 16.9614 27.6675 24.6359 27.0049 28.1779C26.7245 29.6767 26.1725 30.1792 25.6381 30.2284C24.4767 30.3353 23.5947 29.4608 22.4698 28.7235C20.7096 27.5696 19.7151 26.8513 18.0064 25.7253C16.0318 24.4241 17.3119 23.7089 18.4372 22.5401C18.7317 22.2342 23.849 17.5796 23.9481 17.1574C23.9605 17.1046 23.972 16.9077 23.855 16.8038C23.7381 16.6999 23.5655 16.7353 23.441 16.7636C23.2644 16.8037 20.4524 18.6624 15.0049 22.3396C14.2067 22.8877 13.4837 23.1547 12.836 23.1407C12.1218 23.1253 10.7482 22.737 9.72706 22.405C8.47456 21.9979 7.47909 21.7826 7.56581 21.0912C7.61097 20.731 8.10691 20.3627 9.0537 19.9862Z" fill="white"/>
</g>
<defs>
<linearGradient id="paint0_linear_489_96197" x1="20" y1="0.197266" x2="20" y2="39.8848" gradientUnits="userSpaceOnUse">
<stop stop-color="#2AABEE"/>
<stop offset="1" stop-color="#229ED9"/>
</linearGradient>
<clipPath id="clip0_489_96197">
<rect width="40" height="40" fill="white" transform="translate(0 0.197266)"/>
</clipPath>
</defs>
</svg>
