<svg width="12" height="12" viewBox="0 0 12 12" fill="none" xmlns="http://www.w3.org/2000/svg">
<path d="M6 2.42383C3.70727 2.42383 1.62811 3.6782 0.0938938 5.71564C-0.0312979 5.88256 -0.0312979 6.11576 0.0938938 6.28268C1.62811 8.32257 3.70727 9.57694 6 9.57694C8.29273 9.57694 10.3719 8.32257 11.9061 6.28514C12.0313 6.11821 12.0313 5.88501 11.9061 5.71809C10.3719 3.6782 8.29273 2.42383 6 2.42383ZM6.16447 8.51895C4.64253 8.61468 3.3857 7.36031 3.48144 5.83592C3.55999 4.57909 4.57871 3.56037 5.83553 3.48182C7.35747 3.38609 8.6143 4.64046 8.51856 6.16485C8.43756 7.41923 7.41884 8.43794 6.16447 8.51895ZM6.08837 7.3554C5.26849 7.40695 4.59098 6.7319 4.64498 5.91201C4.68671 5.23451 5.23658 4.6871 5.91408 4.64291C6.73397 4.59136 7.41148 5.26642 7.35747 6.0863C7.31329 6.76626 6.76342 7.31367 6.08837 7.3554Z" fill="#9E90CF"/>
</svg>
