<svg width="13" height="12" viewBox="0 0 13 12" fill="none" xmlns="http://www.w3.org/2000/svg">
<path d="M2.30392 1.81764L2.30228 1.81577C2.26072 1.77455 2.21146 1.74193 2.1573 1.71975C2.10314 1.69758 2.04514 1.68629 1.98662 1.68653C1.9281 1.68677 1.87019 1.69853 1.81621 1.72115C1.76224 1.74377 1.71324 1.77679 1.67203 1.81834C1.63082 1.8599 1.59819 1.90916 1.57602 1.96332C1.55384 2.01748 1.54255 2.07548 1.54279 2.134C1.54327 2.2522 1.59069 2.36536 1.67461 2.44859L2.34657 3.12056C1.53166 3.67867 0.830225 4.38655 0.279583 5.20653C0.189664 5.33929 0.141602 5.49596 0.141602 5.6563C0.141602 5.81665 0.189664 5.97332 0.279583 6.10608C1.68516 8.18643 3.9134 9.4052 6.14164 9.38996C6.86341 9.39258 7.58036 9.27243 8.26184 9.03465L9.34959 10.1224C9.4334 10.2035 9.54568 10.2485 9.6623 10.2477C9.77892 10.2469 9.89058 10.2004 9.97328 10.1182C10.056 10.0359 10.1031 9.92452 10.1046 9.8079C10.106 9.69129 10.0616 9.57876 9.98101 9.4945L2.30392 1.81764ZM6.14164 8.18033C5.71948 8.18018 5.30408 8.07422 4.93342 7.87215C4.56276 7.67008 4.24865 7.37833 4.0198 7.02358C3.79095 6.66882 3.65466 6.26237 3.62338 5.84137C3.5921 5.42036 3.66683 4.99823 3.84074 4.61355L4.54271 5.31552C4.48616 5.58196 4.49709 5.8583 4.57449 6.11945C4.65189 6.38059 4.79332 6.61826 4.98591 6.81086C5.17851 7.00346 5.41618 7.14488 5.67732 7.22228C5.93847 7.29968 6.21482 7.31061 6.48126 7.25407L7.18322 7.95603C6.85605 8.10438 6.50088 8.18086 6.14164 8.18033Z" fill="#9E90CF"/>
<path d="M12.0037 5.20536C10.5981 3.12384 8.36988 1.90506 6.14164 1.9203C5.41988 1.91769 4.70292 2.03784 4.02145 2.27562L5.09959 3.35376C5.56743 3.14204 6.08869 3.07793 6.59389 3.16998C7.09909 3.26202 7.56424 3.50584 7.92735 3.86896C8.29046 4.23207 8.53428 4.69722 8.62633 5.20242C8.71837 5.70762 8.65426 6.22887 8.44254 6.69671L9.93647 8.19065C10.7515 7.63262 11.4531 6.92473 12.0037 6.10467C12.0936 5.97193 12.1416 5.81531 12.1416 5.65501C12.1416 5.49472 12.0936 5.3381 12.0037 5.20536Z" fill="#9E90CF"/>
<path d="M6.14164 4.02057C6.0275 4.02059 5.91368 4.03253 5.80203 4.0562L7.74058 5.99451C7.79113 5.75636 7.78784 5.50993 7.73095 5.27321C7.67407 5.03649 7.56502 4.81547 7.41178 4.62629C7.25854 4.43711 7.06498 4.28455 6.84523 4.17975C6.62548 4.07496 6.3851 4.02057 6.14164 4.02057Z" fill="#9E90CF"/>
</svg>
