<svg width="40" height="41" viewBox="0 0 40 41" fill="none" xmlns="http://www.w3.org/2000/svg">
<g clip-path="url(#clip0_489_96198)">
<path d="M19.9766 40.1505C31.0094 40.1505 39.9533 31.2067 39.9533 20.1739C39.9533 9.14111 31.0094 0.197266 19.9766 0.197266C8.94384 0.197266 0 9.14111 0 20.1739C0 31.2067 8.94384 40.1505 19.9766 40.1505Z" fill="#FC3F1D"/>
<path d="M18.0438 32.5266V30.043C18.0438 26.6724 17.6524 25.0048 16.3005 22.0955L9.71875 7.86792H14.2726L19.8583 20.0376C21.4949 23.5856 22.2064 25.4306 22.2064 29.5108V32.5266H18.0438Z" fill="white"/>
<path d="M20.7129 19.7892L25.9071 7.86792H30.2832L25.0177 19.7892H20.7129Z" fill="white"/>
</g>
<defs>
<clipPath id="clip0_489_96198">
<rect width="40" height="40" fill="white" transform="translate(0 0.197266)"/>
</clipPath>
</defs>
</svg>
