<svg width="64" height="64" viewBox="0 0 64 64" fill="none" xmlns="http://www.w3.org/2000/svg">
<g filter="url(#filter0_di_5007_97787)">
<path fill-rule="evenodd" clip-rule="evenodd" d="M32 48C20.9531 48 12 39.0461 12 28C12 16.9539 20.9539 8 32 8C43.0461 8 52 16.9539 52 28C52 39.0461 43.0461 48 32 48ZM23.4094 26.0664C20.8672 26.0664 20.8672 29.9352 23.4094 29.9352H40.5898C43.132 29.9352 43.132 26.0664 40.5898 26.0664H23.4094Z" fill="url(#paint0_radial_5007_97787)"/>
<path d="M32 8.5C42.77 8.5 51.5 17.23 51.5 28C51.5 38.77 42.77 47.5 32 47.5C21.2293 47.5 12.5 38.77 12.5 28L12.5068 27.4971C12.7694 17.1267 21.1267 8.76935 31.4971 8.50684L32 8.5ZM23.4092 25.5664C22.6355 25.5665 22.02 25.8665 21.6035 26.3418C21.1956 26.8074 21.0029 27.4128 21.0029 28.001C21.003 28.5891 21.1956 29.1946 21.6035 29.6602C22.02 30.1354 22.6356 30.4355 23.4092 30.4355H40.5898C41.3635 30.4355 41.979 30.1354 42.3955 29.6602C42.8034 29.1946 42.9961 28.5891 42.9961 28.001C42.9961 27.4128 42.8035 26.8074 42.3955 26.3418C41.979 25.8664 41.3636 25.5664 40.5898 25.5664H23.4092Z" stroke="url(#paint1_linear_5007_97787)" stroke-opacity="0.25"/>
</g>
<defs>
<filter id="filter0_di_5007_97787" x="0" y="0" width="64" height="64" filterUnits="userSpaceOnUse" color-interpolation-filters="sRGB">
<feFlood flood-opacity="0" result="BackgroundImageFix"/>
<feColorMatrix in="SourceAlpha" type="matrix" values="0 0 0 0 0 0 0 0 0 0 0 0 0 0 0 0 0 0 127 0" result="hardAlpha"/>
<feOffset dy="4"/>
<feGaussianBlur stdDeviation="6"/>
<feComposite in2="hardAlpha" operator="out"/>
<feColorMatrix type="matrix" values="0 0 0 0 0.622639 0 0 0 0 0.129167 0 0 0 0 1 0 0 0 0.25 0"/>
<feBlend mode="normal" in2="BackgroundImageFix" result="effect1_dropShadow_5007_97787"/>
<feBlend mode="normal" in="SourceGraphic" in2="effect1_dropShadow_5007_97787" result="shape"/>
<feColorMatrix in="SourceAlpha" type="matrix" values="0 0 0 0 0 0 0 0 0 0 0 0 0 0 0 0 0 0 127 0" result="hardAlpha"/>
<feOffset dy="2"/>
<feGaussianBlur stdDeviation="2"/>
<feComposite in2="hardAlpha" operator="arithmetic" k2="-1" k3="1"/>
<feColorMatrix type="matrix" values="0 0 0 0 0 0 0 0 0 0 0 0 0 0 0 0 0 0 0.35 0"/>
<feBlend mode="normal" in2="shape" result="effect2_innerShadow_5007_97787"/>
</filter>
<radialGradient id="paint0_radial_5007_97787" cx="0" cy="0" r="1" gradientUnits="userSpaceOnUse" gradientTransform="translate(36.3795 -1.16962) rotate(96.2409) scale(46.7277 94.9104)">
<stop stop-color="#A236EB"/>
<stop offset="1" stop-color="#8F49F1"/>
</radialGradient>
<linearGradient id="paint1_linear_5007_97787" x1="32" y1="8" x2="32" y2="48" gradientUnits="userSpaceOnUse">
<stop stop-color="white"/>
<stop offset="1"/>
</linearGradient>
</defs>
</svg>
