<svg width="22" height="22" viewBox="0 0 22 22" fill="none" xmlns="http://www.w3.org/2000/svg">
<path d="M10.725 0.337891C9.31643 0.337399 7.92158 0.614472 6.62014 1.15328C5.3187 1.69209 4.13619 2.48207 3.14018 3.47807C2.14417 4.47408 1.3542 5.65659 0.815389 6.95803C0.276582 8.25947 -0.000492108 9.65433 6.56114e-07 11.0629C-0.000492108 12.4715 0.276582 13.8663 0.815389 15.1678C1.3542 16.4692 2.14417 17.6517 3.14018 18.6477C4.13619 19.6437 5.3187 20.4337 6.62014 20.9725C7.92158 21.5113 9.31643 21.7884 10.725 21.7879C12.1336 21.7884 13.5284 21.5113 14.8299 20.9725C16.1313 20.4337 17.3138 19.6437 18.3098 18.6477C19.3058 17.6517 20.0958 16.4692 20.6346 15.1678C21.1734 13.8663 21.4505 12.4715 21.45 11.0629C21.4505 9.65433 21.1734 8.25947 20.6346 6.95803C20.0958 5.65659 19.3058 4.47408 18.3098 3.47807C17.3138 2.48207 16.1313 1.69209 14.8299 1.15328C13.5284 0.614472 12.1336 0.337399 10.725 0.337891ZM10.725 18.7879C10.4043 18.7886 10.0905 18.6942 9.82357 18.5164C9.55659 18.3387 9.34837 18.0857 9.22529 17.7896C9.10221 17.4934 9.06981 17.1674 9.1322 16.8528C9.19459 16.5382 9.34896 16.2492 9.57574 16.0224C9.80253 15.7956 10.0915 15.6412 10.4061 15.5788C10.7207 15.5165 11.0468 15.5489 11.3429 15.6719C11.6391 15.795 11.8921 16.0032 12.0698 16.2702C12.2475 16.5372 12.342 16.8509 12.3413 17.1716C12.3403 17.6 12.1697 18.0105 11.8668 18.3134C11.5639 18.6163 11.1534 18.7869 10.725 18.7879ZM12.6863 5.43789L12.075 13.6879C12.0712 13.7449 12.0458 13.7984 12.004 13.8374C11.9622 13.8764 11.9072 13.898 11.85 13.8979H9.6C9.54284 13.898 9.48777 13.8764 9.44598 13.8374C9.40419 13.7984 9.37881 13.7449 9.375 13.6879L8.76375 5.43789C8.74719 5.17014 8.78562 4.90182 8.87669 4.64949C8.96776 4.39715 9.10954 4.16613 9.29328 3.97067C9.47702 3.77521 9.69884 3.61944 9.94508 3.51296C10.1913 3.40648 10.4567 3.35155 10.725 3.35155C10.9933 3.35155 11.2587 3.40648 11.5049 3.51296C11.7512 3.61944 11.973 3.77521 12.1567 3.97067C12.3405 4.16613 12.4822 4.39715 12.5733 4.64949C12.6644 4.90182 12.7028 5.17014 12.6863 5.43789Z" fill="#E3B075"/>
</svg>
