<svg width="12" height="12" viewBox="0 0 12 12" fill="none" xmlns="http://www.w3.org/2000/svg">
<path fill-rule="evenodd" clip-rule="evenodd" d="M1.00977 8.15364C1.00977 8.74348 1.48789 9.2216 2.07773 9.2216L6.24981 9.2216C6.28545 9.2216 6.30329 9.26472 6.27805 9.28992L5.40553 10.1612C4.98449 10.5816 4.98425 11.2638 5.40497 11.6846C5.82037 12.1 6.49201 12.1058 6.91453 11.6977L10.8455 7.90084C11.1522 7.6046 10.9425 7.08568 10.5161 7.08568L2.07773 7.08568C1.48789 7.08568 1.00977 7.56384 1.00977 8.15364Z" fill="#9E90CF"/>
<path fill-rule="evenodd" clip-rule="evenodd" d="M10.9912 3.7852C10.9912 3.20476 10.5207 2.7342 9.94021 2.7342L5.75229 2.7342C5.71645 2.7342 5.69869 2.69076 5.72425 2.66568L6.59541 1.8096C7.01649 1.39584 7.01673 0.72444 6.59597 0.310384C6.18061 -0.0983919 5.50897 -0.104128 5.08641 0.297496L1.15545 4.034C0.848772 4.32548 1.05845 4.83616 1.48485 4.83616L9.94021 4.8362C10.5207 4.8362 10.9912 4.36564 10.9912 3.7852Z" fill="#9E90CF"/>
</svg>
