<svg width="13" height="13" viewBox="0 0 13 13" fill="none" xmlns="http://www.w3.org/2000/svg">
<path fill-rule="evenodd" clip-rule="evenodd" d="M10.2947 3.77273C10.5676 3.47015 10.7727 3.07458 10.7727 2.5641C10.79 2.03551 10.5972 1.5216 10.2365 1.13478C9.87588 0.747967 9.3767 0.519731 8.8482 0.5C7.98052 0.5 7.27208 1.20306 6.94821 2.40041C6.9392 2.37611 6.93013 2.35184 6.92099 2.32759C6.56995 1.56908 6.08896 0.530358 5.07049 0.500533C4.58628 0.509883 4.1248 0.707656 3.78409 1.05183C3.58024 1.2477 3.41785 1.48256 3.30658 1.74244C3.19531 2.00232 3.13742 2.28192 3.13636 2.56462C3.14022 2.86891 3.22644 3.32896 3.62019 3.77273H2.86364C2.50198 3.77273 2.15513 3.9164 1.8994 4.17213C1.64367 4.42786 1.5 4.7747 1.5 5.13636V11.1364C1.5 11.498 1.64367 11.8449 1.8994 12.1006C2.15513 12.3563 2.50198 12.5 2.86364 12.5H11.0455C11.2245 12.5 11.4019 12.4647 11.5673 12.3962C11.7328 12.3277 11.8831 12.2272 12.0097 12.1006C12.1363 11.974 12.2368 11.8237 12.3053 11.6582C12.3738 11.4928 12.4091 11.3154 12.4091 11.1364V5.13636C12.4091 4.95729 12.3738 4.77996 12.3053 4.61451C12.2368 4.44907 12.1363 4.29874 12.0097 4.17211C11.8831 4.04548 11.7328 3.94504 11.5673 3.87651C11.4019 3.80799 11.2245 3.77272 11.0455 3.77273H10.2947ZM8.8482 1.59091C8.31233 1.59091 8.03587 2.55557 8.00604 2.66531C7.91495 3.02752 7.81535 3.39027 7.70829 3.75035C8.02206 3.73908 8.33259 3.68275 8.63034 3.58309C9.15448 3.35458 9.68183 3.05788 9.68183 2.5641C9.69857 2.3249 9.6205 2.08872 9.46451 1.90662C9.30852 1.72451 9.08713 1.6111 8.8482 1.59091ZM4.549 1.82954C4.67332 1.6931 4.84409 1.608 5.02787 1.5909L5.03853 1.59144C5.3826 1.60101 5.68673 2.25767 5.9312 2.78552L5.93182 2.78674C6.05621 3.10073 6.1596 3.42264 6.2413 3.75034C5.90469 3.73219 5.5721 3.66839 5.25266 3.56071C4.78871 3.37961 4.23367 3.05734 4.22727 2.55077C4.23079 2.41529 4.26102 2.28184 4.31623 2.15808C4.37144 2.03431 4.45054 1.92266 4.549 1.82954ZM9.05207 8.53455C9.18517 8.40134 9.28704 8.24025 9.35034 8.0629C9.41365 7.88555 9.4368 7.69636 9.41814 7.50898C9.39948 7.3216 9.33946 7.1407 9.24242 6.97932C9.14538 6.81795 9.01373 6.68012 8.85698 6.57577C8.60369 6.41456 8.30247 6.34582 8.00432 6.3812C7.70617 6.41658 7.4294 6.55391 7.22088 6.76993L6.95455 7.0363L6.68821 6.76994C6.47968 6.55393 6.20293 6.41661 5.90478 6.38122C5.60664 6.34582 5.30542 6.41453 5.05211 6.57571C4.89536 6.68006 4.76372 6.8179 4.66668 6.97928C4.56964 7.14067 4.50962 7.32157 4.49096 7.50896C4.4723 7.69634 4.49545 7.88553 4.55875 8.06288C4.62206 8.24023 4.72393 8.40133 4.85702 8.53455L6.64109 10.3185C6.68227 10.3597 6.73115 10.3924 6.78495 10.4146C6.83875 10.4369 6.89641 10.4484 6.95464 10.4484C7.01287 10.4484 7.07053 10.4369 7.12433 10.4146C7.17813 10.3924 7.22701 10.3597 7.26818 10.3185L9.05207 8.53455Z" fill="#9E90CF"/>
</svg>
