<svg width="13" height="13" viewBox="0 0 13 13" fill="none" xmlns="http://www.w3.org/2000/svg">
<path fill-rule="evenodd" clip-rule="evenodd" d="M0.453125 6.5C0.453125 3.18629 3.13942 0.5 6.45312 0.5C8.04445 0.5 9.57055 1.13214 10.6958 2.25736C11.821 3.38258 12.4531 4.9087 12.4531 6.5C12.4531 9.81368 9.7668 12.5 6.45312 12.5C3.13942 12.5 0.453125 9.81368 0.453125 6.5ZM5.67912 8.726L9.27912 5.126C9.51438 4.89073 9.51438 4.50927 9.27912 4.274C9.04386 4.03873 8.66238 4.03873 8.42713 4.274L5.25313 7.454L4.47913 6.674C4.32693 6.52178 4.1051 6.46238 3.8972 6.51806C3.6893 6.5738 3.52691 6.73616 3.4712 6.94406C3.41549 7.15196 3.47493 7.37378 3.62712 7.526L4.82713 8.726C4.93979 8.83958 5.09314 8.90348 5.25313 8.90348C5.41308 8.90348 5.56644 8.83958 5.67912 8.726Z" fill="#9E90CF"/>
</svg>
