<svg width="13" height="13" viewBox="0 0 13 13" fill="none" xmlns="http://www.w3.org/2000/svg">
<path d="M5.2153 4.17969C5.85598 4.17971 6.46208 4.39555 6.95295 4.79326C7.44388 4.39552 8.04997 4.17969 8.69061 4.17969C10.218 4.17971 11.4606 5.42232 11.4606 6.94972C11.4607 7.62779 11.2237 8.34416 10.7563 9.0789C10.3949 9.64707 9.89405 10.2299 9.26757 10.8111C8.21187 11.7906 7.17148 12.4247 7.12773 12.4512C7.02031 12.5163 6.88564 12.5163 6.77823 12.4512C6.73445 12.4247 5.69405 11.7906 4.63838 10.8111C4.0119 10.2299 3.51102 9.64707 3.14963 9.0789C2.68229 8.34416 2.44531 7.62779 2.44531 6.94972C2.44527 5.42232 3.6879 4.17971 5.2153 4.17969Z" fill="#9E90CF"/>
<path d="M3.55761 1.64802L3.84828 3.82812L3.55761 1.64802Z" fill="#9E90CF"/>
<path d="M6.95295 3.94102C7.47695 3.63584 8.06877 3.47656 8.69061 3.47656C9.17919 3.47656 9.6444 3.57819 10.0666 3.76105L10.3483 1.64802C10.3898 1.33707 10.0341 1.13164 9.78547 1.32289L8.53665 2.28352L7.22846 0.633172C7.08772 0.455609 6.81821 0.455609 6.67745 0.633172L5.36924 2.28352L4.12044 1.32289C3.87179 1.13162 3.51615 1.33707 3.55761 1.64802L3.78521 3.78484C4.22155 3.58688 4.70577 3.47656 5.2153 3.47656C5.83721 3.47659 6.42901 3.63584 6.95295 3.94102Z" fill="#9E90CF"/>
</svg>
