<svg width="12" height="13" viewBox="0 0 12 13" fill="none" xmlns="http://www.w3.org/2000/svg">
<path d="M11.6409 6.32541L6.54411 1.22999C6.28178 0.967723 5.92575 0.836591 5.55099 0.867813L1.50358 1.23623C0.903958 1.29243 0.429261 1.767 0.373047 2.36647L0.00453249 6.41283C-0.0266976 6.78125 0.104469 7.14967 0.366801 7.41193L5.4573 12.5011C5.7009 12.7446 6.01944 12.8633 6.33799 12.8633C6.65654 12.8633 6.97508 12.7446 7.21868 12.5011L11.6346 8.08632C12.1218 7.59926 12.1218 6.80623 11.6346 6.31916L11.6409 6.32541ZM3.68968 4.55825C3.51479 4.73309 3.27744 4.833 3.0276 4.833C2.77776 4.833 2.54041 4.73309 2.36553 4.55825C2.00326 4.19607 2.00326 3.59661 2.36553 3.23444C2.54041 3.05959 2.77776 2.95968 3.0276 2.95968C3.27744 2.95968 3.51479 3.05959 3.68968 3.23444C4.05195 3.60285 4.05195 4.19607 3.68968 4.55825Z" fill="#9E90CF"/>
</svg>
