<svg width="12" height="12" viewBox="0 0 12 12" fill="none" xmlns="http://www.w3.org/2000/svg">
<path d="M11.9644 4.89411C12.0101 4.53652 12.0101 4.18463 11.9672 3.8442C11.8528 2.88011 11.4008 2.03618 10.6713 1.5241C10.5626 1.44686 10.4453 1.38106 10.3251 1.31812L9.74152 1.04062L9.71291 1.1007C8.89758 0.914748 8.01646 1.10356 7.24404 1.5899C6.9551 1.77013 6.68047 1.99327 6.43158 2.2536C6.08542 2.61406 5.78218 3.04318 5.55045 3.53237C5.31587 4.02157 5.17283 4.52793 5.10989 5.02285C5.06412 5.38045 5.06412 5.73233 5.10703 6.07276C5.21574 6.97963 5.62197 7.78351 6.27996 8.30132L6.25135 8.36139L6.83495 8.63889C6.95796 8.69325 7.08384 8.74188 7.21257 8.77907C8.07081 9.0251 9.00915 8.84487 9.8302 8.32707C10.1191 8.14684 10.3938 7.92369 10.6427 7.66336C10.9888 7.3029 11.2921 6.87378 11.5238 6.38458C11.7584 5.89539 11.9014 5.38903 11.9644 4.89411Z" fill="url(#paint0_linear_1748_79044)"/>
<path d="M10.964 6.11519C10.7294 6.60439 10.4291 7.03637 10.0829 7.39397C9.83402 7.6543 9.55938 7.87745 9.27044 8.05767C8.44939 8.57548 7.50819 8.75571 6.65281 8.50968C6.50977 8.46963 6.36959 8.41527 6.23228 8.34947C6.09496 8.28367 5.96622 8.2093 5.84321 8.12347C5.11084 7.61425 4.6617 6.76746 4.54727 5.80337C4.50722 5.4658 4.50722 5.11106 4.55013 4.75346C4.61021 4.25854 4.75611 3.75218 4.99069 3.26298C5.22528 2.77379 5.52566 2.34181 5.87182 1.98421C6.1207 1.72388 6.39534 1.50074 6.68428 1.32051C7.50533 0.802704 8.44653 0.622473 9.30477 0.868501C9.44781 0.908552 9.58799 0.962907 9.72531 1.02871C9.86262 1.0945 9.99136 1.16888 10.1144 1.25471C10.8467 1.76393 11.2959 2.61073 11.4103 3.57481C11.4504 3.91239 11.4504 4.26712 11.4075 4.62472C11.3474 5.11964 11.2015 5.626 10.9697 6.11519H10.964Z" fill="url(#paint1_linear_1748_79044)"/>
<path d="M10.1086 1.25737L9.12166 2.93665L8.61816 2.69635L9.30189 0.874023C9.44493 0.914075 9.58511 0.968429 9.72243 1.03423C9.85975 1.10003 9.98848 1.17441 10.1115 1.26023L10.1086 1.25737Z" fill="white"/>
<path d="M7.3511 2.91091L6.84474 3.32573L5.87207 1.98401C6.12096 1.72368 6.3956 1.50054 6.68454 1.32031L7.3511 2.90805V2.91091Z" fill="white"/>
<path d="M6.20081 5.32302L4.54727 5.80363C4.50722 5.46606 4.50722 5.11132 4.55013 4.75372L6.20367 4.66504V5.32016L6.20081 5.32302Z" fill="white"/>
<path d="M6.64945 8.50885C6.50641 8.4688 6.36623 8.41444 6.22891 8.34864C6.09159 8.28285 5.96286 8.20847 5.83984 8.12264L6.82682 6.44336L7.33032 6.68366L6.64659 8.50599L6.64945 8.50885Z" fill="white"/>
<path d="M10.0796 7.39354C9.83073 7.65387 9.55609 7.87701 9.26715 8.05724L8.60059 6.4695L9.10695 6.05469L10.0796 7.3964V7.39354Z" fill="white"/>
<path d="M11.4006 4.6242L9.74707 4.71288V4.05776L11.4063 3.57715C11.4464 3.91472 11.4464 4.26946 11.4035 4.62706L11.4006 4.6242Z" fill="white"/>
<path d="M10.1551 5.72877C9.4513 7.20208 7.90648 7.93158 6.70208 7.35942C5.49769 6.7844 5.09432 5.12514 5.79521 3.65183C6.49897 2.17852 8.04379 1.44902 9.24819 2.02118C10.4526 2.5962 10.856 4.25546 10.1551 5.72877Z" fill="url(#paint2_linear_1748_79044)"/>
<path d="M7.19677 6.11593C7.13384 5.76119 7.02799 5.42362 6.88781 5.11465C6.49016 4.22781 5.80929 3.55552 4.95963 3.28661C4.83376 3.24656 4.70216 3.21509 4.56771 3.19506L3.92975 3.10352L3.92117 3.16932C3.08581 3.23512 2.30196 3.67568 1.70977 4.37085C1.48663 4.62832 1.2921 4.92298 1.13189 5.24625C0.908751 5.69254 0.748547 6.19317 0.671305 6.731C0.594064 7.26883 0.605507 7.79522 0.697053 8.28441C0.75999 8.63915 0.865839 8.97672 1.00602 9.28569C1.38078 10.121 2.0073 10.7676 2.78829 11.0622L2.77971 11.128L3.41767 11.2196C3.55212 11.2368 3.68658 11.2425 3.81818 11.2396C4.71075 11.2196 5.55468 10.7676 6.18405 10.0295C6.4072 9.77203 6.60173 9.47737 6.76193 9.1541C6.98508 8.70781 7.14528 8.20717 7.22252 7.66934C7.29976 7.13151 7.28832 6.60799 7.19677 6.11593Z" fill="url(#paint3_linear_1748_79044)"/>
<path d="M6.60433 7.58036C6.52709 8.11819 6.36688 8.61883 6.14374 9.06511C5.98354 9.38552 5.78614 9.68018 5.56586 9.94052C4.93649 10.6786 4.09255 11.1335 3.19998 11.1506C3.05122 11.1535 2.90246 11.1449 2.75084 11.122C2.60208 11.0991 2.45332 11.0677 2.31314 11.0219C1.46348 10.753 0.782614 10.0778 0.384964 9.19385C0.244785 8.88202 0.141797 8.54731 0.0759984 8.19257C-0.0126862 7.70051 -0.0269901 7.17699 0.0502513 6.63916C0.127493 6.10133 0.287697 5.60069 0.510839 5.15441C0.671043 4.83114 0.868438 4.53934 1.08872 4.279C1.71809 3.54092 2.56203 3.08605 3.45459 3.06889C3.60336 3.06603 3.75212 3.07461 3.90088 3.0975C4.0525 3.12039 4.1984 3.15185 4.33858 3.19763C5.18824 3.46654 5.8691 4.14169 6.26675 5.02567C6.40693 5.33464 6.50992 5.67221 6.57572 6.02695C6.6644 6.51901 6.67871 7.04253 6.60147 7.58036H6.60433Z" fill="url(#paint4_linear_1748_79044)"/>
<path d="M4.34419 3.19477L3.90077 5.09147L3.34863 5.01137L3.45734 3.06889C3.6061 3.06603 3.75487 3.07461 3.90363 3.0975C4.05525 3.12039 4.20115 3.15185 4.34133 3.19763L4.34419 3.19477Z" fill="white"/>
<path d="M2.20056 5.5991L1.8401 6.14551L0.512695 5.15568C0.6729 4.83241 0.870294 4.54061 1.09058 4.28027L2.20056 5.5991Z" fill="white"/>
<path d="M1.82126 8.24084L0.385138 9.19349C0.244959 8.88166 0.14197 8.54695 0.0761719 8.19221L1.62958 7.61719L1.82126 8.2437V8.24084Z" fill="white"/>
<path d="M3.19935 11.1514C3.05058 11.1543 2.90182 11.1457 2.7502 11.1228C2.60144 11.0999 2.45268 11.0685 2.3125 11.0227L2.75592 9.12598L3.30806 9.20608L3.19935 11.1486V11.1514Z" fill="white"/>
<path d="M6.14392 9.066C5.98372 9.38641 5.78632 9.68108 5.56604 9.94141L4.45605 8.62258L4.81651 8.07617L6.14392 9.066Z" fill="white"/>
<path d="M6.582 6.0266L5.02859 6.60162L4.83691 5.97511L6.27303 5.02246C6.41321 5.33143 6.5162 5.669 6.582 6.02374V6.0266Z" fill="white"/>
<path d="M5.71679 7.45115C5.48506 9.0675 4.22632 10.2233 2.90463 10.0344C1.5858 9.84564 0.704679 8.38091 0.936403 6.7617C1.16813 5.14535 2.42688 3.98959 3.74856 4.17841C5.06739 4.36722 5.95137 5.83194 5.71679 7.45115Z" fill="url(#paint5_linear_1748_79044)"/>
<defs>
<linearGradient id="paint0_linear_1748_79044" x1="5.57228" y1="3.54575" x2="11.5473" y2="6.39568" gradientUnits="userSpaceOnUse">
<stop stop-color="#E270B2"/>
<stop offset="1" stop-color="#ED217D"/>
</linearGradient>
<linearGradient id="paint1_linear_1748_79044" x1="5.01291" y1="3.27802" x2="10.9879" y2="6.12795" gradientUnits="userSpaceOnUse">
<stop stop-color="#ED217D"/>
<stop offset="1" stop-color="#E270B2"/>
</linearGradient>
<linearGradient id="paint2_linear_1748_79044" x1="5.82175" y1="3.66329" x2="10.1804" y2="5.74223" gradientUnits="userSpaceOnUse">
<stop stop-color="#E270B2"/>
<stop offset="1" stop-color="#ED217D"/>
</linearGradient>
<linearGradient id="paint3_linear_1748_79044" x1="0.66472" y1="6.72242" x2="7.21708" y2="7.66546" gradientUnits="userSpaceOnUse">
<stop stop-color="#F7E262"/>
<stop offset="1" stop-color="#FBB03B"/>
</linearGradient>
<linearGradient id="paint4_linear_1748_79044" x1="0.0471653" y1="6.63328" x2="6.59953" y2="7.57632" gradientUnits="userSpaceOnUse">
<stop stop-color="#FBB03B"/>
<stop offset="1" stop-color="#F7E262"/>
</linearGradient>
<linearGradient id="paint5_linear_1748_79044" x1="0.932767" y1="6.76037" x2="5.71253" y2="7.44829" gradientUnits="userSpaceOnUse">
<stop stop-color="#F7E262"/>
<stop offset="1" stop-color="#FBB03B"/>
</linearGradient>
</defs>
</svg>
