<svg width="18" height="18" viewBox="0 0 18 18" fill="none" xmlns="http://www.w3.org/2000/svg">
<path d="M15.0185 9.0166V14.4401C15.0185 15.5769 14.0974 16.4988 12.9607 16.4988H5.03911C3.90236 16.4988 2.98047 15.5769 2.98047 14.4401V9.0166M9 16.4999V9.08105M9.00017 5.24998H5.62556C4.58935 5.24998 3.75017 4.41079 3.75017 3.37458C3.75017 2.33999 4.58935 1.5 5.62556 1.5C8.25017 1.5 9.00017 5.24998 9.00017 5.24998ZM9.00195 5.24998H12.3762C13.4124 5.24998 14.2515 4.41079 14.2515 3.37458C14.2515 2.33999 13.4124 1.5 12.3762 1.5C9.75162 1.5 9.00195 5.24998 9.00195 5.24998ZM3.16984 5.27246H14.74C15.6043 5.27246 16.3049 5.973 16.3049 6.83732V7.51759C16.3049 8.33326 15.6433 8.99409 14.8284 8.99409H3.25822C2.3939 8.99409 1.69336 8.29351 1.69336 7.43001V6.74814C1.69336 5.93327 2.35417 5.27246 3.16984 5.27246Z" stroke="#9E90CF" stroke-width="1.5" stroke-linecap="round" stroke-linejoin="round"/>
</svg>
