<svg width="12" height="12" viewBox="0 0 12 12" fill="none" xmlns="http://www.w3.org/2000/svg">
<path fill-rule="evenodd" clip-rule="evenodd" d="M10.2838 1.59167C12.2089 3.05367 12.5776 6.14916 11.0641 8.77305C9.54636 11.3969 6.68236 12.6231 4.45289 11.6885C3.87408 11.4441 3.35529 11.1868 2.74219 10.831L5.71338 5.68613L8.68459 0.54126C9.29769 0.897113 9.78645 1.21438 10.2838 1.59596V1.59167Z" fill="url(#paint0_linear_2001_139227)"/>
<path style="mix-blend-mode:screen" fill-rule="evenodd" clip-rule="evenodd" d="M10.2201 2.29084C11.5492 3.30266 11.9994 5.54496 11.2105 7.5043C10.4216 9.46364 8.67232 10.4369 7.18457 9.81949C6.7987 9.66086 6.44713 9.48508 6.03125 9.24498L7.57901 5.40777L9.12678 1.57056C9.54267 1.81065 9.87708 2.02931 10.2201 2.29084Z" fill="url(#paint1_radial_2001_139227)"/>
<path style="mix-blend-mode:multiply" fill-rule="evenodd" clip-rule="evenodd" d="M10.4124 2.17942C12.0502 3.42705 12.4147 6.11953 11.1842 8.42615C10.0394 10.5698 7.8957 11.676 6.08211 11.1872C4.93736 11.5045 3.75402 11.4102 2.74219 10.8271C3.35529 11.1829 3.87837 11.4445 4.45289 11.6846C6.68236 12.6192 9.54636 11.393 11.0641 8.76914C12.5819 6.14526 12.2089 3.04977 10.2838 1.58777C9.78645 1.21048 9.30198 0.893207 8.69316 0.537354C9.29769 0.888919 9.78218 1.38197 10.1337 1.96934C10.2281 2.03794 10.3181 2.10225 10.4124 2.17514V2.17942Z" fill="url(#paint2_radial_2001_139227)"/>
<g style="mix-blend-mode:screen" opacity="0.5">
<path fill-rule="evenodd" clip-rule="evenodd" d="M9.02069 0.777257C11.203 2.03775 11.6875 5.28759 10.0968 8.04009C8.50619 10.7926 5.44925 11.9974 3.26694 10.7369C1.08463 9.47637 0.600158 6.22653 2.1908 3.47403C3.77715 0.721521 6.83838 -0.483236 9.02069 0.777257Z" fill="#DE8D00"/>
</g>
<path fill-rule="evenodd" clip-rule="evenodd" d="M8.68422 0.537339C10.9909 1.87072 11.5311 5.25347 9.89326 8.09601C8.25117 10.9385 5.05274 12.1605 2.74181 10.8314C0.435169 9.49798 -0.105052 6.11523 1.53275 3.2727C3.17484 0.430156 6.37328 -0.791752 8.68422 0.537339Z" fill="url(#paint3_radial_2001_139227)"/>
<g style="mix-blend-mode:screen" opacity="0.65">
<path fill-rule="evenodd" clip-rule="evenodd" d="M6.30386 9.84157C6.27384 9.97019 6.1538 10.0859 5.99088 10.1331C5.84939 10.1717 5.7122 10.146 5.61788 10.0731C4.9276 10.236 4.22874 10.1888 3.5942 9.89301C1.76346 9.03982 1.16751 6.43738 2.26509 4.07931C2.86533 2.7931 3.84715 1.84558 4.91044 1.39112C4.91901 1.24106 5.04764 1.09529 5.23629 1.04384C5.40778 0.996679 5.57929 1.04384 5.66932 1.15531C5.91371 1.10815 6.16237 1.08243 6.40247 1.091C6.45392 1.00525 6.57397 0.958093 6.7026 0.983817C6.8055 1.00525 6.88695 1.06957 6.92125 1.14674C7.1442 1.18961 7.36286 1.2625 7.57295 1.36111C9.40369 2.2143 9.99963 4.81674 8.90204 7.17481C8.31038 8.43959 7.34999 9.37853 6.30386 9.84157Z" fill="#DB8900"/>
</g>
<path fill-rule="evenodd" clip-rule="evenodd" d="M7.89642 1.58866C9.62425 2.58333 9.98439 5.19006 8.70244 7.41093C7.4205 9.6318 4.98524 10.6222 3.2574 9.62322C1.52956 8.62855 1.16941 6.02181 2.45136 3.80095C3.7333 1.58008 6.16858 0.589694 7.89642 1.58866Z" fill="url(#paint4_radial_2001_139227)"/>
<path style="mix-blend-mode:multiply" opacity="0.5" fill-rule="evenodd" clip-rule="evenodd" d="M3.3946 4.6797C4.60795 2.57888 6.91459 1.63994 8.5481 2.58316C8.78391 2.72036 8.98971 2.88328 9.16979 3.07622C8.90825 2.44597 8.47951 1.92291 7.89642 1.5842C6.16858 0.589528 3.7333 1.57992 2.45136 3.7965C1.16941 6.01736 1.52956 8.62409 3.2574 9.61877C3.38174 9.69165 3.51036 9.75168 3.64327 9.80313C2.46422 8.67983 2.31845 6.53185 3.3946 4.67541V4.6797Z" fill="url(#paint5_radial_2001_139227)"/>
<path fill-rule="evenodd" clip-rule="evenodd" d="M3.02158 4.13053C4.19634 2.09831 6.33578 1.09506 8.01217 1.70387C8.06362 1.7253 8.11936 1.74245 8.1708 1.76818C8.12364 1.73388 8.08077 1.70387 8.0336 1.66957C7.99073 1.63956 7.94358 1.61383 7.89642 1.58811C6.16858 0.593435 3.7333 1.58382 2.45136 3.8004C1.16941 6.02127 1.52956 8.628 3.2574 9.62268C3.30456 9.6484 3.35172 9.67412 3.39888 9.69985C3.45033 9.72557 3.50178 9.7513 3.55323 9.77273C3.50607 9.73843 3.4632 9.70414 3.42032 9.66555C2.05263 8.51653 1.85111 6.16275 3.02587 4.13053H3.02158Z" fill="url(#paint6_linear_2001_139227)"/>
<path style="mix-blend-mode:multiply" fill-rule="evenodd" clip-rule="evenodd" d="M6.8074 1.53237C7.22328 1.51093 7.63059 1.56667 8.01217 1.70387C8.06362 1.7253 8.11936 1.74245 8.1708 1.76818C8.12364 1.73388 8.08077 1.70387 8.0336 1.66957C7.99073 1.63956 7.94358 1.61383 7.89642 1.58811C6.16858 0.593435 3.7333 1.58382 2.45136 3.8004C1.16941 6.02127 1.52956 8.628 3.2574 9.62268C3.30456 9.6484 3.35172 9.67412 3.39888 9.69985C3.45033 9.72557 3.50178 9.7513 3.55323 9.77273C3.50607 9.73843 3.4632 9.70414 3.42032 9.66555C3.21024 9.48977 3.02588 9.28397 2.87153 9.05245C1.59816 7.98489 1.38807 5.78546 2.45136 3.88186C3.46319 2.0683 5.29394 1.12936 6.81169 1.53237H6.8074Z" fill="url(#paint7_radial_2001_139227)"/>
<path style="mix-blend-mode:screen" fill-rule="evenodd" clip-rule="evenodd" d="M8.27991 2.55207C5.22296 1.16296 2.36324 5.14594 2.78341 7.72266C4.47695 7.09242 7.28951 5.7033 8.27991 2.55207Z" fill="url(#paint8_radial_2001_139227)"/>
<defs>
<linearGradient id="paint0_linear_2001_139227" x1="5.41755" y1="12.3745" x2="11.3598" y2="2.08465" gradientUnits="userSpaceOnUse">
<stop stop-color="#824B00"/>
<stop offset="0.61" stop-color="#9C5E0F"/>
<stop offset="1" stop-color="#824B00"/>
</linearGradient>
<radialGradient id="paint1_radial_2001_139227" cx="0" cy="0" r="1" gradientUnits="userSpaceOnUse" gradientTransform="translate(7.59188 5.50638) scale(5.58225 5.58218)">
<stop stop-color="#9E5E00"/>
<stop offset="1" stop-color="#080800"/>
</radialGradient>
<radialGradient id="paint2_radial_2001_139227" cx="0" cy="0" r="1" gradientUnits="userSpaceOnUse" gradientTransform="translate(4.66725 5.12486) scale(8.09898 8.09888)">
<stop offset="0.64" stop-color="#FFFAE1"/>
<stop offset="0.79" stop-color="#C2C2C6"/>
<stop offset="1" stop-color="#6970A0"/>
</radialGradient>
<radialGradient id="paint3_radial_2001_139227" cx="0" cy="0" r="1" gradientUnits="userSpaceOnUse" gradientTransform="translate(3.9766 0.468741) scale(11.0187 11.0186)">
<stop stop-color="#FFCC5A"/>
<stop offset="1" stop-color="#823C00"/>
</radialGradient>
<radialGradient id="paint4_radial_2001_139227" cx="0" cy="0" r="1" gradientUnits="userSpaceOnUse" gradientTransform="translate(3.07304 1.37857) scale(10.9673 10.9671)">
<stop stop-color="#FFCC5A"/>
<stop offset="0.91" stop-color="#823C00"/>
</radialGradient>
<radialGradient id="paint5_radial_2001_139227" cx="0" cy="0" r="1" gradientUnits="userSpaceOnUse" gradientTransform="translate(7.67347 6.57472) scale(7.33153 7.33143)">
<stop offset="0.51" stop-color="#FFFAE1"/>
<stop offset="0.68" stop-color="#FFDFA4"/>
<stop offset="1" stop-color="#FFA624"/>
</radialGradient>
<linearGradient id="paint6_linear_2001_139227" x1="1.83825" y1="8.80378" x2="6.40858" y2="0.889216" gradientUnits="userSpaceOnUse">
<stop stop-color="#BD7400"/>
<stop offset="1" stop-color="#94590C"/>
</linearGradient>
<radialGradient id="paint7_radial_2001_139227" cx="0" cy="0" r="1" gradientUnits="userSpaceOnUse" gradientTransform="translate(7.80209 6.88303) scale(7.10858 7.10849)">
<stop offset="0.51" stop-color="#FFFAE1"/>
<stop offset="0.67" stop-color="#E8DAA4"/>
<stop offset="1" stop-color="#B89620"/>
</radialGradient>
<radialGradient id="paint8_radial_2001_139227" cx="0" cy="0" r="1" gradientUnits="userSpaceOnUse" gradientTransform="translate(0.343849 -0.556286) scale(9.44953 9.4494)">
<stop stop-color="#B98936"/>
<stop offset="1" stop-color="#080800"/>
</radialGradient>
</defs>
</svg>
