<svg width="12" height="13" viewBox="0 0 12 13" fill="none" xmlns="http://www.w3.org/2000/svg">
<path d="M11.7396 6.02456C11.9758 5.79437 12.0592 5.45653 11.9573 5.14248C11.8552 4.82842 11.5892 4.60424 11.2624 4.55666L8.35684 4.13448C8.23309 4.11646 8.12617 4.03884 8.0709 3.92663L6.77192 1.29406C6.62606 0.998272 6.33003 0.814453 6.00012 0.814453C5.67045 0.814453 5.37442 0.998272 5.22856 1.29406L3.92934 3.92687C3.87407 4.03908 3.76691 4.1167 3.64316 4.13472L0.737627 4.5569C0.411079 4.60424 0.144842 4.82866 0.042721 5.14272C-0.0591601 5.45677 0.024219 5.79461 0.26042 6.0248L2.36268 8.07396C2.4523 8.16142 2.49339 8.28733 2.47225 8.41036L1.9763 11.3039C1.93233 11.5586 1.99913 11.8063 2.16396 12.0017C2.42011 12.3061 2.86728 12.3989 3.22482 12.211L5.82327 10.8447C5.93188 10.7877 6.0686 10.7882 6.17697 10.8447L8.77566 12.211C8.90205 12.2775 9.03685 12.3112 9.17597 12.3112C9.42996 12.3112 9.67072 12.1982 9.83628 12.0017C10.0014 11.8063 10.0679 11.5581 10.0239 11.3039L9.52775 8.41036C9.50661 8.28709 9.5477 8.16142 9.63732 8.07396L11.7396 6.02456Z" fill="#9E90CF"/>
</svg>
