<svg width="12" height="12" viewBox="0 0 12 12" fill="none" xmlns="http://www.w3.org/2000/svg">
<path d="M6.68093 4.91934L2.44008 4.57793L0 2.6332L1.55978 1.15039L6.63742 2.89094L6.68093 4.91934Z" fill="url(#paint0_linear_1748_79070)"/>
<path d="M12 6.74395L8.83691 6.77073L6.59766 2.87793L11.6753 4.61513L12 6.74395Z" fill="url(#paint1_linear_1748_79070)"/>
<path d="M9.47573 2.75422L4.39809 1.01367L1.51953 1.13752L3.71862 3.00191L8.79626 4.73912L11.6748 4.61527L9.47573 2.75422Z" fill="url(#paint2_linear_1748_79070)"/>
<path d="M8.83587 6.77091L2.43945 4.57849L3.71807 3.00195L8.79571 4.73915L8.83587 6.77091Z" fill="url(#paint3_linear_1748_79070)"/>
<path d="M3.72476 11.2558L2.43945 4.57812L8.83587 6.77055L3.72476 11.2558Z" fill="url(#paint4_linear_1748_79070)"/>
<path d="M3.72539 11.2562L0 2.63379L2.44008 4.57852L3.72539 11.2562Z" fill="url(#paint5_linear_1748_79070)"/>
<path d="M8.8367 6.77092L11.9998 6.74414L3.72559 11.2562L8.8367 6.77092Z" fill="url(#paint6_linear_1748_79070)"/>
<path d="M11.9994 6.74511L8.83634 6.72168C8.80956 6.72168 8.78613 6.74511 8.78613 6.77189C8.78613 6.79532 8.79952 6.81205 8.81961 6.81875C8.8263 6.81875 8.82964 6.81875 8.83634 6.81875C8.83634 6.81875 12.0028 6.75515 11.9994 6.74176V6.74511Z" fill="url(#paint7_linear_1748_79070)"/>
<path d="M8.88672 6.72154L8.84654 4.78685C9.22143 4.76677 11.6682 4.62953 11.6749 4.61614L8.80304 4.68978L3.74547 2.95593C3.74547 2.95593 1.64345 1.18191 1.56647 1.14844C1.56647 1.16183 3.37394 2.76179 3.65175 3.00614L2.43339 4.50903L0 2.63125L2.39657 4.6061L3.58481 10.7784C3.58481 10.7784 3.58481 10.7784 3.58481 10.785C3.61493 10.9658 3.6618 11.0896 3.72539 11.2604C3.74882 11.2537 2.64761 5.42952 2.50368 4.65966L8.73944 6.79518C8.15369 7.314 3.712 11.2436 3.72539 11.2604C3.73209 11.2704 4.11701 10.9825 4.12035 10.9792L8.85658 6.82196C8.85658 6.82196 11.9996 6.75166 11.9996 6.74497C11.5511 6.73158 9.24821 6.72154 8.88672 6.72154ZM3.73543 3.05969L8.74613 4.77681L8.7863 6.70146L2.52376 4.5559L3.73543 3.05969Z" fill="url(#paint8_linear_1748_79070)"/>
<path opacity="0.54" d="M2.0485 1.53809L0.579102 3.08115L1.1749 3.57988L2.62087 2.09372L2.0485 1.53809Z" fill="url(#paint9_linear_1748_79070)"/>
<path opacity="0.54" d="M3.1052 2.48438L1.82324 4.08769L2.11109 4.31864L3.39306 2.71199L3.1052 2.48438Z" fill="url(#paint10_linear_1748_79070)"/>
<path opacity="0.54" d="M3.34375 4.9082L3.72868 11.2579L4.10356 5.1492L3.34375 4.9082Z" fill="url(#paint11_linear_1748_79070)"/>
<path opacity="0.54" d="M3.34375 4.90966L4.42154 3.24609L5.10771 3.48374L4.10356 5.15066L3.34375 4.90966Z" fill="url(#paint12_linear_1748_79070)"/>
<path d="M3.99695 2.8789L4.17435 1.93164L3.73587 2.79187L3.16016 2.86216L3.57186 3.27052L3.39111 4.21778L3.83294 3.36089L4.4053 3.29061L3.99695 2.8789Z" fill="url(#paint13_linear_1748_79070)"/>
<path d="M4.07048 3.02923L4.73657 2.33301L3.89978 2.80831L3.37762 2.55727L3.49812 3.12295L2.83203 3.81917L3.66882 3.34052L4.18764 3.59491L4.07048 3.02923Z" fill="url(#paint14_linear_1748_79070)"/>
<path d="M1.41245 1.56504L1.43923 1.21024L1.15137 1.01275L1.49947 1.03618L1.69696 0.738281L1.67017 1.09309L1.96138 1.29057L1.60993 1.26714L1.41245 1.56504Z" fill="url(#paint15_linear_1748_79070)"/>
<defs>
<linearGradient id="paint0_linear_1748_79070" x1="1.13831" y1="1.16015" x2="5.4733" y2="4.43191" gradientUnits="userSpaceOnUse">
<stop stop-color="#3CD6F4"/>
<stop offset="0.16" stop-color="#37CBEF"/>
<stop offset="0.44" stop-color="#2BB0E3"/>
<stop offset="0.8" stop-color="#1884D0"/>
<stop offset="1" stop-color="#0C69C4"/>
</linearGradient>
<linearGradient id="paint1_linear_1748_79070" x1="8.7312" y1="4.87959" x2="12.2321" y2="5.08115" gradientUnits="userSpaceOnUse">
<stop stop-color="#3CD6F4"/>
<stop offset="0.16" stop-color="#37CBEF"/>
<stop offset="0.44" stop-color="#2BB0E3"/>
<stop offset="0.8" stop-color="#1884D0"/>
<stop offset="1" stop-color="#0C69C4"/>
</linearGradient>
<linearGradient id="paint2_linear_1748_79070" x1="5.88542" y1="0.16162" x2="7.52236" y2="6.36221" gradientUnits="userSpaceOnUse">
<stop stop-color="#3CD6F4"/>
<stop offset="0.16" stop-color="#37CBEF"/>
<stop offset="0.44" stop-color="#2BB0E3"/>
<stop offset="0.8" stop-color="#1884D0"/>
<stop offset="1" stop-color="#0C69C4"/>
</linearGradient>
<linearGradient id="paint3_linear_1748_79070" x1="3.93898" y1="3.06555" x2="11.5438" y2="10.282" gradientUnits="userSpaceOnUse">
<stop stop-color="#3CD6F4"/>
<stop offset="0.16" stop-color="#37CBEF"/>
<stop offset="0.44" stop-color="#2BB0E3"/>
<stop offset="0.8" stop-color="#1884D0"/>
<stop offset="1" stop-color="#0C69C4"/>
</linearGradient>
<linearGradient id="paint4_linear_1748_79070" x1="5.56905" y1="5.86345" x2="2.67702" y2="13.9871" gradientUnits="userSpaceOnUse">
<stop stop-color="#3CD6F4"/>
<stop offset="0.16" stop-color="#37CBEF"/>
<stop offset="0.44" stop-color="#2BB0E3"/>
<stop offset="0.8" stop-color="#1884D0"/>
<stop offset="1" stop-color="#0C69C4"/>
</linearGradient>
<linearGradient id="paint5_linear_1748_79070" x1="0.815207" y1="2.7236" x2="4.30271" y2="10.6797" gradientUnits="userSpaceOnUse">
<stop stop-color="#3CD6F4"/>
<stop offset="0.16" stop-color="#37CBEF"/>
<stop offset="0.44" stop-color="#2BB0E3"/>
<stop offset="0.8" stop-color="#1884D0"/>
<stop offset="1" stop-color="#0C69C4"/>
</linearGradient>
<linearGradient id="paint6_linear_1748_79070" x1="10.1353" y1="6.95659" x2="4.20582" y2="11.1382" gradientUnits="userSpaceOnUse">
<stop stop-color="#3CD6F4"/>
<stop offset="0.16" stop-color="#37CBEF"/>
<stop offset="0.44" stop-color="#2BB0E3"/>
<stop offset="0.8" stop-color="#1884D0"/>
<stop offset="1" stop-color="#0C69C4"/>
</linearGradient>
<linearGradient id="paint7_linear_1748_79070" x1="10.9205" y1="5.1604" x2="8.62236" y2="12.1994" gradientUnits="userSpaceOnUse">
<stop stop-color="#FFFAFF"/>
<stop offset="0.14" stop-color="#FEF2FE"/>
<stop offset="0.34" stop-color="#FDDCFD"/>
<stop offset="0.6" stop-color="#FBB8FA"/>
<stop offset="0.89" stop-color="#F888F7"/>
<stop offset="1" stop-color="#F774F6"/>
</linearGradient>
<linearGradient id="paint8_linear_1748_79070" x1="6.33808" y1="3.66465" x2="4.04304" y2="10.7048" gradientUnits="userSpaceOnUse">
<stop stop-color="#FFFAFF"/>
<stop offset="0.14" stop-color="#FEF2FE"/>
<stop offset="0.34" stop-color="#FDDCFD"/>
<stop offset="0.6" stop-color="#FBB8FA"/>
<stop offset="0.89" stop-color="#F888F7"/>
<stop offset="1" stop-color="#F774F6"/>
</linearGradient>
<linearGradient id="paint9_linear_1748_79070" x1="1.31939" y1="2.30761" x2="1.98047" y2="2.87727" gradientUnits="userSpaceOnUse">
<stop stop-color="#FFFAFF"/>
<stop offset="0.1" stop-color="#F7F8FE"/>
<stop offset="0.26" stop-color="#E1F4FD"/>
<stop offset="0.46" stop-color="#BDEDFB"/>
<stop offset="0.68" stop-color="#8CE3F8"/>
<stop offset="0.93" stop-color="#4ED7F4"/>
<stop offset="1" stop-color="#3AD4F3"/>
</linearGradient>
<linearGradient id="paint10_linear_1748_79070" x1="2.12049" y1="3.22891" x2="3.10528" y2="3.56626" gradientUnits="userSpaceOnUse">
<stop stop-color="#FFFAFF"/>
<stop offset="0.1" stop-color="#F7F8FE"/>
<stop offset="0.26" stop-color="#E1F4FD"/>
<stop offset="0.46" stop-color="#BDEDFB"/>
<stop offset="0.68" stop-color="#8CE3F8"/>
<stop offset="0.93" stop-color="#4ED7F4"/>
<stop offset="1" stop-color="#3AD4F3"/>
</linearGradient>
<linearGradient id="paint11_linear_1748_79070" x1="2.40097" y1="7.68062" x2="4.69037" y2="8.4649" gradientUnits="userSpaceOnUse">
<stop stop-color="#FFFAFF"/>
<stop offset="0.1" stop-color="#F7F8FE"/>
<stop offset="0.26" stop-color="#E1F4FD"/>
<stop offset="0.46" stop-color="#BDEDFB"/>
<stop offset="0.68" stop-color="#8CE3F8"/>
<stop offset="0.93" stop-color="#4ED7F4"/>
<stop offset="1" stop-color="#3AD4F3"/>
</linearGradient>
<linearGradient id="paint12_linear_1748_79070" x1="3.66255" y1="3.99937" x2="4.79933" y2="4.3888" gradientUnits="userSpaceOnUse">
<stop stop-color="#FFFAFF"/>
<stop offset="0.1" stop-color="#F7F8FE"/>
<stop offset="0.26" stop-color="#E1F4FD"/>
<stop offset="0.46" stop-color="#BDEDFB"/>
<stop offset="0.68" stop-color="#8CE3F8"/>
<stop offset="0.93" stop-color="#4ED7F4"/>
<stop offset="1" stop-color="#3AD4F3"/>
</linearGradient>
<linearGradient id="paint13_linear_1748_79070" x1="4.13898" y1="2.25653" x2="3.34562" y2="4.10764" gradientUnits="userSpaceOnUse">
<stop stop-color="white"/>
<stop offset="1" stop-color="#FFFDFF"/>
</linearGradient>
<linearGradient id="paint14_linear_1748_79070" x1="4.52861" y1="2.5999" x2="2.85066" y2="3.71412" gradientUnits="userSpaceOnUse">
<stop stop-color="white"/>
<stop offset="1" stop-color="#FFFDFF"/>
</linearGradient>
<linearGradient id="paint15_linear_1748_79070" x1="1.69018" y1="0.853288" x2="1.39987" y2="1.52515" gradientUnits="userSpaceOnUse">
<stop stop-color="white"/>
<stop offset="1" stop-color="#FFFDFF"/>
</linearGradient>
</defs>
</svg>
