<svg width="12" height="12" viewBox="0 0 12 12" fill="none" xmlns="http://www.w3.org/2000/svg">
<path fill-rule="evenodd" clip-rule="evenodd" d="M9.86583 1.59167C11.7909 3.05367 12.1596 6.14916 10.6461 8.77305C9.12839 11.3969 6.26437 12.6231 4.0349 11.6885C3.4561 11.4441 2.93732 11.1868 2.32422 10.831L5.29541 5.68613L8.26661 0.54126C8.87971 0.897113 9.36849 1.21438 9.86583 1.59596V1.59167Z" fill="url(#paint0_linear_2001_139212)"/>
<path style="mix-blend-mode:screen" fill-rule="evenodd" clip-rule="evenodd" d="M9.79821 2.29084C11.1273 3.30266 11.5775 5.54496 10.7886 7.5043C9.99972 9.46364 8.25044 10.4369 6.7627 9.81949C6.37683 9.66086 6.02526 9.48508 5.60938 9.24498L7.15715 5.40777L8.70491 1.57056C9.12079 1.81065 9.45522 2.02931 9.79821 2.29084Z" fill="url(#paint1_radial_2001_139212)"/>
<path style="mix-blend-mode:multiply" fill-rule="evenodd" clip-rule="evenodd" d="M9.99445 2.17942C11.6323 3.42705 11.9967 6.11953 10.7662 8.42615C9.62145 10.5698 7.47772 11.676 5.66413 11.1872C4.51938 11.5045 3.33606 11.4102 2.32422 10.8271C2.93732 11.1829 3.46039 11.4445 4.0349 11.6846C6.26437 12.6192 9.12839 11.393 10.6461 8.76914C12.1639 6.14526 11.7909 3.04977 9.86583 1.58777C9.36849 1.21048 8.88401 0.893207 8.27519 0.537354C8.87972 0.888919 9.3642 1.38197 9.71577 1.96934C9.81009 2.03794 9.90012 2.10225 9.99445 2.17514V2.17942Z" fill="url(#paint2_radial_2001_139212)"/>
<g style="mix-blend-mode:screen">
<path fill-rule="evenodd" clip-rule="evenodd" d="M8.60272 0.777257C10.785 2.03775 11.2695 5.28759 9.67887 8.04009C8.09252 10.7926 5.03129 11.9974 2.84898 10.7369C0.66667 9.47637 0.182185 6.22653 1.77283 3.47403C3.35918 0.721521 6.42041 -0.483236 8.60272 0.777257Z" fill="white"/>
</g>
<path fill-rule="evenodd" clip-rule="evenodd" d="M8.26623 0.537339C10.5729 1.87072 11.1131 5.25347 9.4753 8.09601C7.83321 10.9385 4.63478 12.1605 2.32384 10.8314C0.0172005 9.49798 -0.52302 6.11523 1.11478 3.2727C2.75687 0.430156 5.9553 -0.791752 8.26623 0.537339Z" fill="url(#paint3_radial_2001_139212)"/>
<g style="mix-blend-mode:screen">
<path fill-rule="evenodd" clip-rule="evenodd" d="M5.8859 9.84157C5.85589 9.97019 5.73583 10.0859 5.57291 10.1331C5.43143 10.1717 5.29423 10.146 5.19991 10.0731C4.50963 10.236 3.81077 10.1888 3.17623 9.89301C1.3455 9.03982 0.749538 6.43738 1.84712 4.07931C2.44737 2.7931 3.4292 1.84558 4.49248 1.39112C4.50106 1.24106 4.62967 1.09529 4.81832 1.04384C4.98982 0.996679 5.16132 1.04384 5.25135 1.15531C5.49574 1.10815 5.74441 1.08243 5.9845 1.091C6.03595 1.00525 6.15601 0.958093 6.28463 0.983817C6.38753 1.00525 6.46899 1.06957 6.50329 1.14674C6.72624 1.18961 6.94489 1.2625 7.15498 1.36111C8.98572 2.2143 9.58167 4.81674 8.48409 7.17481C7.89242 8.43959 6.93204 9.37853 5.8859 9.84157Z" fill="white"/>
</g>
<path fill-rule="evenodd" clip-rule="evenodd" d="M7.47845 1.58866C9.20629 2.58333 9.56643 5.19006 8.28449 7.41093C7.00254 9.6318 4.56727 10.6222 2.83943 9.62322C1.11159 8.62855 0.751444 6.02181 2.03339 3.80095C3.31533 1.58008 5.75061 0.589694 7.47845 1.58866Z" fill="url(#paint4_radial_2001_139212)"/>
<path style="mix-blend-mode:multiply" opacity="0.5" fill-rule="evenodd" clip-rule="evenodd" d="M2.97663 4.6797C4.18998 2.57888 6.49662 1.63994 8.13013 2.58316C8.36594 2.72036 8.57175 2.88328 8.75182 3.07622C8.49028 2.44597 8.06154 1.92291 7.47845 1.5842C5.75061 0.589528 3.31533 1.57992 2.03339 3.7965C0.751444 6.01736 1.11159 8.62409 2.83943 9.61877C2.96377 9.69165 3.09239 9.75168 3.2253 9.80313C2.04625 8.67983 1.90048 6.53185 2.97663 4.67541V4.6797Z" fill="url(#paint5_radial_2001_139212)"/>
<path fill-rule="evenodd" clip-rule="evenodd" d="M2.60363 4.13053C3.77839 2.09831 5.91781 1.09506 7.5942 1.70387C7.64565 1.7253 7.7014 1.74245 7.75285 1.76818C7.70569 1.73388 7.66281 1.70387 7.61565 1.66957C7.57277 1.63956 7.52561 1.61383 7.47845 1.58811C5.75061 0.593435 3.31533 1.58382 2.03339 3.8004C0.751444 6.02127 1.11159 8.628 2.83943 9.62268C2.88659 9.6484 2.93376 9.67412 2.98092 9.69985C3.03237 9.72557 3.08382 9.7513 3.13527 9.77273C3.0881 9.73843 3.04523 9.70414 3.00236 9.66555C1.63466 8.51653 1.43316 6.16275 2.60792 4.13053H2.60363Z" fill="url(#paint6_linear_2001_139212)"/>
<path style="mix-blend-mode:multiply" fill-rule="evenodd" clip-rule="evenodd" d="M6.38943 1.53237C6.80531 1.51093 7.21262 1.56667 7.5942 1.70387C7.64565 1.7253 7.7014 1.74245 7.75285 1.76818C7.70569 1.73388 7.66281 1.70387 7.61565 1.66957C7.57277 1.63956 7.52561 1.61383 7.47845 1.58811C5.75061 0.593435 3.31533 1.58382 2.03339 3.8004C0.751444 6.02127 1.11159 8.628 2.83943 9.62268C2.88659 9.6484 2.93376 9.67412 2.98092 9.69985C3.03237 9.72557 3.08382 9.7513 3.13527 9.77273C3.0881 9.73843 3.04523 9.70414 3.00236 9.66555C2.79227 9.48977 2.60791 9.28397 2.45356 9.05245C1.18019 7.98489 0.970103 5.78546 2.03339 3.88186C3.04523 2.0683 4.87597 1.12936 6.39372 1.53237H6.38943Z" fill="url(#paint7_radial_2001_139212)"/>
<path style="mix-blend-mode:screen" fill-rule="evenodd" clip-rule="evenodd" d="M7.86585 2.55207C4.8089 1.16296 1.94917 5.14594 2.36934 7.72266C4.06288 7.09242 6.87545 5.7033 7.86585 2.55207Z" fill="url(#paint8_radial_2001_139212)"/>
<defs>
<linearGradient id="paint0_linear_2001_139212" x1="4.99958" y1="12.3745" x2="10.9419" y2="2.08465" gradientUnits="userSpaceOnUse">
<stop stop-color="#546578"/>
<stop offset="0.64" stop-color="#8DA0B8"/>
<stop offset="1" stop-color="#546578"/>
</linearGradient>
<radialGradient id="paint1_radial_2001_139212" cx="0" cy="0" r="1" gradientUnits="userSpaceOnUse" gradientTransform="translate(7.17001 5.50638) scale(5.58226 5.58218)">
<stop stop-color="white"/>
<stop offset="0.09" stop-color="#F7F7F7"/>
<stop offset="0.22" stop-color="#E2E2E2"/>
<stop offset="0.38" stop-color="#BFBFBF"/>
<stop offset="0.56" stop-color="#8F8F8F"/>
<stop offset="0.76" stop-color="#525252"/>
<stop offset="0.98" stop-color="#080808"/>
<stop offset="1"/>
</radialGradient>
<radialGradient id="paint2_radial_2001_139212" cx="0" cy="0" r="1" gradientUnits="userSpaceOnUse" gradientTransform="translate(4.24928 5.12486) scale(8.09898 8.09888)">
<stop offset="0.51" stop-color="white"/>
<stop offset="0.77" stop-color="#C3CEDF"/>
<stop offset="1" stop-color="#8A9FC2"/>
</radialGradient>
<radialGradient id="paint3_radial_2001_139212" cx="0" cy="0" r="1" gradientUnits="userSpaceOnUse" gradientTransform="translate(1.53495 1.03896) scale(11.0916 11.0915)">
<stop stop-color="#EBF6FF"/>
<stop offset="1" stop-color="#6F7F8C"/>
</radialGradient>
<radialGradient id="paint4_radial_2001_139212" cx="0" cy="0" r="1" gradientUnits="userSpaceOnUse" gradientTransform="translate(1.61751 0.949834) scale(9.89114 9.89101)">
<stop stop-color="#EBF6FF"/>
<stop offset="1" stop-color="#647480"/>
</radialGradient>
<radialGradient id="paint5_radial_2001_139212" cx="0" cy="0" r="1" gradientUnits="userSpaceOnUse" gradientTransform="translate(7.2555 6.57472) scale(7.33153 7.33143)">
<stop offset="0.51" stop-color="white"/>
<stop offset="0.7" stop-color="#C2CBDA"/>
<stop offset="1" stop-color="#566D99"/>
</radialGradient>
<linearGradient id="paint6_linear_2001_139212" x1="1.42029" y1="8.80378" x2="5.99061" y2="0.889208" gradientUnits="userSpaceOnUse">
<stop stop-color="#8DA0B8"/>
<stop offset="1" stop-color="#546578"/>
</linearGradient>
<radialGradient id="paint7_radial_2001_139212" cx="0" cy="0" r="1" gradientUnits="userSpaceOnUse" gradientTransform="translate(7.38413 6.88303) scale(7.10859 7.10849)">
<stop offset="0.51" stop-color="white"/>
<stop offset="0.82" stop-color="#C3CCD8"/>
<stop offset="1" stop-color="#9DACBF"/>
</radialGradient>
<radialGradient id="paint8_radial_2001_139212" cx="0" cy="0" r="1" gradientUnits="userSpaceOnUse" gradientTransform="translate(-0.0659257 -0.556286) scale(9.44953 9.4494)">
<stop stop-color="white"/>
<stop offset="0.11" stop-color="#FAFAFA"/>
<stop offset="0.23" stop-color="#ECECEC"/>
<stop offset="0.36" stop-color="#D6D6D6"/>
<stop offset="0.5" stop-color="#B6B6B6"/>
<stop offset="0.64" stop-color="#8E8E8E"/>
<stop offset="0.78" stop-color="#5C5C5C"/>
<stop offset="0.92" stop-color="#222222"/>
<stop offset="1"/>
</radialGradient>
</defs>
</svg>
