<svg width="13" height="12" viewBox="0 0 13 12" fill="none" xmlns="http://www.w3.org/2000/svg">
<path fill-rule="evenodd" clip-rule="evenodd" d="M10.4518 1.59167C12.3768 3.05367 12.7456 6.14916 11.2321 8.77305C9.71433 11.3969 6.85032 12.6231 4.62085 11.6885C4.04204 11.4441 3.52326 11.1868 2.91016 10.831L5.88136 5.68613L8.85256 0.54126C9.46566 0.897113 9.95442 1.21438 10.4518 1.59596V1.59167Z" fill="url(#paint0_linear_2001_139198)"/>
<path style="mix-blend-mode:screen" fill-rule="evenodd" clip-rule="evenodd" d="M10.3841 2.29084C11.7133 3.30266 12.1634 5.54496 11.3745 7.5043C10.5857 9.46364 8.83638 10.4369 7.34864 9.81949C6.96277 9.66086 6.61119 9.48508 6.19531 9.24498L7.74308 5.40777L9.29085 1.57056C9.70674 1.81065 10.0412 2.02931 10.3841 2.29084Z" fill="url(#paint1_radial_2001_139198)"/>
<path style="mix-blend-mode:multiply" fill-rule="evenodd" clip-rule="evenodd" d="M10.5804 2.17942C12.2182 3.42705 12.5826 6.11953 11.3521 8.42615C10.2074 10.5698 8.06367 11.676 6.25008 11.1872C5.10533 11.5045 3.92199 11.4102 2.91016 10.8271C3.52326 11.1829 4.04633 11.4445 4.62085 11.6846C6.85032 12.6192 9.71433 11.393 11.2321 8.76914C12.7498 6.14526 12.3768 3.04977 10.4518 1.58777C9.95442 1.21048 9.46995 0.893207 8.86113 0.537354C9.46566 0.888919 9.95013 1.38197 10.3017 1.96934C10.396 2.03794 10.4861 2.10225 10.5804 2.17514V2.17942Z" fill="url(#paint2_radial_2001_139198)"/>
<g style="mix-blend-mode:screen">
<path fill-rule="evenodd" clip-rule="evenodd" d="M9.18867 0.777257C11.371 2.03775 11.8554 5.28759 10.2648 8.04009C8.67416 10.7926 5.61722 11.9974 3.43491 10.7369C1.2526 9.47637 0.768125 6.22653 2.35877 3.47403C3.94512 0.721521 7.00636 -0.483236 9.18867 0.777257Z" fill="#FCCE3A"/>
</g>
<path fill-rule="evenodd" clip-rule="evenodd" d="M8.85218 0.537339C11.1588 1.87072 11.699 5.25347 10.0612 8.09601C8.41914 10.9385 5.22071 12.1605 2.90978 10.8314C0.603134 9.49798 0.0629193 6.11523 1.70072 3.2727C3.34281 0.430156 6.54125 -0.791752 8.85218 0.537339Z" fill="url(#paint3_radial_2001_139198)"/>
<g style="mix-blend-mode:screen">
<path fill-rule="evenodd" clip-rule="evenodd" d="M6.47183 9.84157C6.44182 9.97019 6.32177 10.0859 6.15885 10.1331C6.01736 10.1717 5.88017 10.146 5.78584 10.0731C5.09557 10.236 4.39671 10.1888 3.76217 9.89301C1.93143 9.03982 1.33548 6.43738 2.43306 4.07931C3.0333 2.7931 4.01513 1.84558 5.07841 1.39112C5.08699 1.24106 5.21561 1.09529 5.40426 1.04384C5.57576 0.996679 5.74726 1.04384 5.83729 1.15531C6.08168 1.10815 6.33035 1.08243 6.57045 1.091C6.6219 1.00525 6.74194 0.958093 6.87057 0.983817C6.97347 1.00525 7.05492 1.06957 7.08922 1.14674C7.31217 1.18961 7.53083 1.2625 7.74092 1.36111C9.57166 2.2143 10.1676 4.81674 9.07002 7.17481C8.47835 8.43959 7.51797 9.37853 6.47183 9.84157Z" fill="#FFFCE4"/>
</g>
<path fill-rule="evenodd" clip-rule="evenodd" d="M8.06437 1.58866C9.79221 2.58333 10.1524 5.19006 8.87041 7.41093C7.58847 9.6318 5.1532 10.6222 3.42536 9.62322C1.69752 8.62855 1.33738 6.02181 2.61933 3.80095C3.90127 1.58008 6.33653 0.589694 8.06437 1.58866Z" fill="url(#paint4_radial_2001_139198)"/>
<path style="mix-blend-mode:multiply" opacity="0.5" fill-rule="evenodd" clip-rule="evenodd" d="M3.56257 4.6797C4.77591 2.57888 7.08256 1.63994 8.71607 2.58316C8.95188 2.72036 9.15767 2.88328 9.33774 3.07622C9.07621 2.44597 8.64747 1.92291 8.06437 1.5842C6.33653 0.589528 3.90127 1.57992 2.61933 3.7965C1.33738 6.01736 1.69752 8.62409 3.42536 9.61877C3.5497 9.69165 3.67833 9.75168 3.81124 9.80313C2.63219 8.67983 2.48642 6.53185 3.56257 4.67541V4.6797Z" fill="url(#paint5_radial_2001_139198)"/>
<path fill-rule="evenodd" clip-rule="evenodd" d="M3.18956 4.13053C4.36432 2.09831 6.50375 1.09506 8.18014 1.70387C8.23159 1.7253 8.28733 1.74245 8.33878 1.76818C8.29161 1.73388 8.24874 1.70387 8.20157 1.66957C8.1587 1.63956 8.11154 1.61383 8.06437 1.58811C6.33653 0.593435 3.90127 1.58382 2.61933 3.8004C1.33738 6.02127 1.69752 8.628 3.42536 9.62268C3.47253 9.6484 3.51969 9.67412 3.56685 9.69985C3.6183 9.72557 3.66975 9.7513 3.7212 9.77273C3.67404 9.73843 3.63116 9.70414 3.58829 9.66555C2.22059 8.51653 2.01909 6.16275 3.19384 4.13053H3.18956Z" fill="url(#paint6_linear_2001_139198)"/>
<path style="mix-blend-mode:multiply" fill-rule="evenodd" clip-rule="evenodd" d="M6.97537 1.53237C7.39125 1.51093 7.79856 1.56667 8.18014 1.70387C8.23159 1.7253 8.28733 1.74245 8.33878 1.76818C8.29161 1.73388 8.24874 1.70387 8.20157 1.66957C8.1587 1.63956 8.11154 1.61383 8.06437 1.58811C6.33653 0.593435 3.90127 1.58382 2.61933 3.8004C1.33738 6.02127 1.69752 8.628 3.42536 9.62268C3.47253 9.6484 3.51969 9.67412 3.56685 9.69985C3.6183 9.72557 3.66975 9.7513 3.7212 9.77273C3.67404 9.73843 3.63116 9.70414 3.58829 9.66555C3.3782 9.48977 3.19384 9.28397 3.0395 9.05245C1.76613 7.98489 1.55604 5.78546 2.61933 3.88186C3.63117 2.0683 5.4619 1.12936 6.97966 1.53237H6.97537Z" fill="url(#paint7_radial_2001_139198)"/>
<path style="mix-blend-mode:screen" fill-rule="evenodd" clip-rule="evenodd" d="M8.45179 2.55207C5.39484 1.16296 2.53511 5.14594 2.95528 7.72266C4.64882 7.09242 7.46139 5.7033 8.45179 2.55207Z" fill="url(#paint8_radial_2001_139198)"/>
<defs>
<linearGradient id="paint0_linear_2001_139198" x1="5.58552" y1="12.3745" x2="11.5278" y2="2.08465" gradientUnits="userSpaceOnUse">
<stop stop-color="#E86F0C"/>
<stop offset="0.69" stop-color="#FC940D"/>
<stop offset="1" stop-color="#E86F0C"/>
</linearGradient>
<radialGradient id="paint1_radial_2001_139198" cx="0" cy="0" r="1" gradientUnits="userSpaceOnUse" gradientTransform="translate(7.76023 5.50638) scale(5.58225 5.58218)">
<stop stop-color="#FFF369"/>
<stop offset="0.11" stop-color="#FAEE67"/>
<stop offset="0.23" stop-color="#ECE161"/>
<stop offset="0.36" stop-color="#D6CC58"/>
<stop offset="0.5" stop-color="#B6AE4B"/>
<stop offset="0.64" stop-color="#8E873A"/>
<stop offset="0.78" stop-color="#5C5826"/>
<stop offset="0.92" stop-color="#22210E"/>
<stop offset="1"/>
</radialGradient>
<radialGradient id="paint2_radial_2001_139198" cx="0" cy="0" r="1" gradientUnits="userSpaceOnUse" gradientTransform="translate(4.83522 5.12486) scale(8.09898 8.09888)">
<stop offset="0.51" stop-color="white"/>
<stop offset="0.68" stop-color="#E5DCC2"/>
<stop offset="1" stop-color="#B09444"/>
</radialGradient>
<radialGradient id="paint3_radial_2001_139198" cx="0" cy="0" r="1" gradientUnits="userSpaceOnUse" gradientTransform="translate(3.75012 0.327258) scale(10.3842 10.3841)">
<stop stop-color="#FCF80D"/>
<stop offset="1" stop-color="#FC9C0D"/>
</radialGradient>
<radialGradient id="paint4_radial_2001_139198" cx="0" cy="0" r="1" gradientUnits="userSpaceOnUse" gradientTransform="translate(0.767152 -0.700811) scale(12.6908 12.6907)">
<stop stop-color="#FCF80D"/>
<stop offset="1" stop-color="#F78A0C"/>
</radialGradient>
<radialGradient id="paint5_radial_2001_139198" cx="0" cy="0" r="1" gradientUnits="userSpaceOnUse" gradientTransform="translate(7.84143 6.57472) scale(7.33152 7.33143)">
<stop offset="0.51" stop-color="white"/>
<stop offset="0.69" stop-color="#FFE1C2"/>
<stop offset="1" stop-color="#FFA84B"/>
</radialGradient>
<linearGradient id="paint6_linear_2001_139198" x1="2.00622" y1="8.80378" x2="6.57655" y2="0.889214" gradientUnits="userSpaceOnUse">
<stop stop-color="#FC940D"/>
<stop offset="1" stop-color="#E86F0C"/>
</linearGradient>
<radialGradient id="paint7_radial_2001_139198" cx="0" cy="0" r="1" gradientUnits="userSpaceOnUse" gradientTransform="translate(7.97006 6.88303) scale(7.10858 7.10849)">
<stop offset="0.51" stop-color="white"/>
<stop offset="0.68" stop-color="#E5DCC2"/>
<stop offset="1" stop-color="#B09444"/>
</radialGradient>
<radialGradient id="paint8_radial_2001_139198" cx="0" cy="0" r="1" gradientUnits="userSpaceOnUse" gradientTransform="translate(0.520012 -0.556286) scale(9.44953 9.4494)">
<stop stop-color="#FFF369"/>
<stop offset="0.11" stop-color="#FAEE67"/>
<stop offset="0.23" stop-color="#ECE161"/>
<stop offset="0.36" stop-color="#D6CC58"/>
<stop offset="0.5" stop-color="#B6AE4B"/>
<stop offset="0.64" stop-color="#8E873A"/>
<stop offset="0.78" stop-color="#5C5826"/>
<stop offset="0.92" stop-color="#22210E"/>
<stop offset="1"/>
</radialGradient>
</defs>
</svg>
