<svg width="79" height="70" viewBox="0 0 79 70" fill="none" xmlns="http://www.w3.org/2000/svg">
<g filter="url(#filter0_dd_770_194413)">
<rect x="24" y="15" width="40" height="40" rx="15" fill="url(#paint0_radial_770_194413)" shape-rendering="crispEdges"/>
<rect x="24.4" y="15.4" width="39.2" height="39.2" rx="14.6" stroke="url(#paint1_linear_770_194413)" stroke-opacity="0.25" stroke-width="0.8" shape-rendering="crispEdges"/>
<path d="M44.801 43.123C44.5923 43.3575 44.3007 43.5018 43.9877 43.5254C43.3218 43.5234 42.7825 42.9841 42.7805 42.3182L42.7805 27.7809C42.8027 27.1125 43.3624 26.5887 44.0307 26.6109C44.6351 26.631 45.132 27.0938 45.1948 27.6953L45.1948 42.3183C45.1713 42.627 45.0304 42.915 44.801 43.123Z" fill="#97FFAA"/>
<path d="M52.0612 35.8629C51.8356 36.0865 51.5312 36.2126 51.2136 36.2139L36.6761 36.2139C36.0095 36.1623 35.5108 35.58 35.5624 34.9133C35.6084 34.3183 36.0811 33.8456 36.6761 33.7996L51.2563 33.7568C51.9247 33.7348 52.4843 34.2587 52.5063 34.927C52.5072 34.9536 52.5072 34.9802 52.5063 35.0068C52.483 35.3415 52.3218 35.6515 52.0612 35.8629Z" fill="#97FFAA"/>
</g>
<defs>
<filter id="filter0_dd_770_194413" x="-9.53674e-07" y="-9" width="78.4" height="78.4" filterUnits="userSpaceOnUse" color-interpolation-filters="sRGB">
<feFlood flood-opacity="0" result="BackgroundImageFix"/>
<feColorMatrix in="SourceAlpha" type="matrix" values="0 0 0 0 0 0 0 0 0 0 0 0 0 0 0 0 0 0 127 0" result="hardAlpha"/>
<feOffset dx="-4.8" dy="-4.8"/>
<feGaussianBlur stdDeviation="9.6"/>
<feComposite in2="hardAlpha" operator="out"/>
<feColorMatrix type="matrix" values="0 0 0 0 0.444236 0 0 0 0 1 0 0 0 0 0.370833 0 0 0 0.15 0"/>
<feBlend mode="normal" in2="BackgroundImageFix" result="effect1_dropShadow_770_194413"/>
<feColorMatrix in="SourceAlpha" type="matrix" values="0 0 0 0 0 0 0 0 0 0 0 0 0 0 0 0 0 0 127 0" result="hardAlpha"/>
<feOffset dx="4.8" dy="4.8"/>
<feGaussianBlur stdDeviation="4.8"/>
<feComposite in2="hardAlpha" operator="out"/>
<feColorMatrix type="matrix" values="0 0 0 0 0.0878206 0 0 0 0 0.0786632 0 0 0 0 0.0958333 0 0 0 0.5 0"/>
<feBlend mode="normal" in2="effect1_dropShadow_770_194413" result="effect2_dropShadow_770_194413"/>
<feBlend mode="normal" in="SourceGraphic" in2="effect2_dropShadow_770_194413" result="shape"/>
</filter>
<radialGradient id="paint0_radial_770_194413" cx="0" cy="0" r="1" gradientUnits="userSpaceOnUse" gradientTransform="translate(47.9815 -32.4967) rotate(92.1496) scale(106.148 36.2325)">
<stop stop-color="#43F45E"/>
<stop offset="1" stop-color="#107A27"/>
</radialGradient>
<linearGradient id="paint1_linear_770_194413" x1="44" y1="15" x2="44" y2="55" gradientUnits="userSpaceOnUse">
<stop stop-color="#C3A2F1"/>
<stop offset="1" stop-color="#664EAB"/>
</linearGradient>
</defs>
</svg>
