<svg width="16" height="16" viewBox="0 0 16 16" fill="none" xmlns="http://www.w3.org/2000/svg">
<g clip-path="url(#clip0_10746_8077)">
<path d="M8.00785 16.002C3.58955 16.002 0.0078125 12.4203 0.0078125 8.00193C0.0078125 3.58368 3.58955 0.00195312 8.00785 0.00195312C12.4261 0.00195312 16.0079 3.58368 16.0079 8.00193C16.0079 12.4203 12.4261 16.002 8.00785 16.002ZM8.00785 14.4019C11.5425 14.4019 14.4079 11.5366 14.4079 8.00193C14.4079 4.46734 11.5425 1.60196 8.00785 1.60196C4.4732 1.60196 1.60782 4.46734 1.60782 8.00193C1.60782 11.5366 4.4732 14.4019 8.00785 14.4019Z" fill="#9E90CF"/>
<path d="M5.71247 12.1086V3.99976H8.30184C9.34668 3.99976 10.1076 4.21176 10.5846 4.63575C11.0691 5.05974 11.3114 5.64273 11.3114 6.38471C11.3114 6.82384 11.213 7.23648 11.0161 7.62261C10.8193 8.00875 10.4899 8.31917 10.0281 8.55388C9.57382 8.78859 8.95297 8.90594 8.16556 8.90594H7.42736V12.1086H5.71247ZM4.80392 10.8934V9.79178H9.17632V10.8934H4.80392ZM4.80392 8.90594V7.49769H8.13149V8.90594H4.80392ZM7.99521 7.49769C8.32077 7.49769 8.60091 7.46362 8.83562 7.39547C9.07033 7.31976 9.25204 7.20241 9.38075 7.04341C9.50946 6.88441 9.57382 6.68378 9.57382 6.4415C9.57382 6.09322 9.46403 5.83579 9.24447 5.66923C9.0249 5.49509 8.68041 5.40802 8.21099 5.40802H7.42736V7.49769H7.99521Z" fill="#9E90CF"/>
</g>
<defs>
<clipPath id="clip0_10746_8077">
<rect width="16" height="16" fill="white"/>
</clipPath>
</defs>
</svg>
