<svg width="12" height="12" viewBox="0 0 12 12" fill="none" xmlns="http://www.w3.org/2000/svg">
<g clip-path="url(#clip0_10771_19952)">
<path d="M6.00003 12.0015C2.6863 12.0015 0 9.3152 0 6.00145C0 2.68776 2.6863 0.00146484 6.00003 0.00146484C9.31372 0.00146484 12 2.68776 12 6.00145C12 9.3152 9.31372 12.0015 6.00003 12.0015ZM6.00003 10.8015C8.65101 10.8015 10.8 8.65244 10.8 6.00145C10.8 3.35051 8.65101 1.20147 6.00003 1.20147C3.34904 1.20147 1.2 3.35051 1.2 6.00145C1.2 8.65244 3.34904 10.8015 6.00003 10.8015ZM3.90001 7.20145H7.20003C7.36569 7.20145 7.50003 7.06717 7.50003 6.90145C7.50003 6.73579 7.36569 6.60145 7.20003 6.60145H4.80002C3.97158 6.60145 3.30001 5.92993 3.30001 5.10145C3.30001 4.27304 3.97158 3.60147 4.80002 3.60147H5.40003V2.40147H6.60003V3.60147H8.10003V4.80145H4.80002C4.63433 4.80145 4.50001 4.93579 4.50001 5.10145C4.50001 5.26717 4.63433 5.40145 4.80002 5.40145H7.20003C8.02845 5.40145 8.70003 6.07303 8.70003 6.90145C8.70003 7.72993 8.02845 8.40146 7.20003 8.40146H6.60003V9.60146H5.40003V8.40146H3.90001V7.20145Z" fill="white"/>
</g>
<defs>
<clipPath id="clip0_10771_19952">
<rect width="12" height="12" fill="white"/>
</clipPath>
</defs>
</svg>
