<svg width="16" height="16" viewBox="0 0 16 16" fill="none" xmlns="http://www.w3.org/2000/svg">
<path d="M8.00002 6.10352e-05C3.5832 6.10352e-05 0 3.57874 0 7.99586C0 12.4172 3.5832 16.0001 7.99998 16.0001C12.4192 16.0001 15.9994 12.4172 15.9994 7.99586C15.9994 3.57874 12.4192 6.10352e-05 8.00002 6.10352e-05ZM8.5701 12.4473C8.3843 12.6126 8.16896 12.6957 7.92503 12.6957C7.67265 12.6957 7.4525 12.6141 7.26459 12.4506C7.07638 12.2873 6.98208 12.0588 6.98208 11.7651C6.98208 11.5046 7.07334 11.2854 7.25525 11.1077C7.43716 10.93 7.66031 10.8411 7.92503 10.8411C8.18553 10.8411 8.40478 10.93 8.58277 11.1077C8.76046 11.2854 8.8496 11.5046 8.8496 11.7651C8.84927 12.0546 8.7562 12.282 8.5701 12.4473ZM10.8869 6.70357C10.7442 6.96829 10.5746 7.19655 10.378 7.38902C10.1819 7.58146 9.82926 7.9049 9.32028 8.35964C9.17993 8.48795 9.06701 8.60058 8.98239 8.69754C8.89776 8.79483 8.83452 8.88364 8.79325 8.96437C8.75168 9.04506 8.71978 9.12579 8.69718 9.20648C8.67458 9.28688 8.64057 9.42874 8.59448 9.63141C8.51619 10.0615 8.27015 10.2765 7.85664 10.2765C7.6416 10.2765 7.46091 10.2063 7.31364 10.0657C7.16696 9.92502 7.09379 9.71632 7.09379 9.43927C7.09379 9.09204 7.1477 8.79116 7.25521 8.5367C7.36214 8.28221 7.50519 8.05906 7.68288 7.86663C7.86086 7.67419 8.10057 7.44589 8.40264 7.18117C8.66735 6.94958 8.8586 6.77493 8.97635 6.65715C9.09439 6.53911 9.19349 6.4078 9.27389 6.26324C9.35492 6.11837 9.39467 5.96147 9.39467 5.79193C9.39467 5.46097 9.27211 5.1821 9.02577 4.95472C8.77972 4.72735 8.46229 4.6135 8.07349 4.6135C7.61845 4.6135 7.28356 4.72824 7.06852 4.95772C6.85349 5.18721 6.67191 5.5251 6.52282 5.97173C6.38188 6.43915 6.11505 6.67282 5.72262 6.67282C5.49103 6.67282 5.29559 6.5912 5.13628 6.42796C4.97726 6.26472 4.89776 6.08796 4.89776 5.89763C4.89776 5.50491 5.02395 5.10677 5.27603 4.70353C5.52841 4.30028 5.89642 3.96628 6.38036 3.70186C6.86401 3.43714 7.42872 3.30461 8.07349 3.30461C8.6731 3.30461 9.20224 3.41543 9.66121 3.6368C10.1202 3.85784 10.4749 4.15872 10.7252 4.53936C10.9752 4.91971 11.1004 5.33322 11.1004 5.77985C11.101 6.13075 11.0297 6.43885 10.8869 6.70357Z" fill="#9E90CF"/>
</svg>
