<svg xmlns="http://www.w3.org/2000/svg" width="16" height="13" viewBox="0 0 16 13" fill="none">
  <path d="M15.3965 4.83301H14.9908L0.705974 6.08708L0.398438 6.41348L5.98723 8.73953C5.98723 8.73953 11.8597 8.56087 15.3938 4.83301H15.3965Z" fill="#404C29"/>
  <path d="M15.6609 2.60959C13.1767 5.8633 7.04964 6.62605 5.79826 6.41303C3.91323 6.09006 2.10508 4.81538 1.01277 3.91176C1.01277 3.91176 1.00746 3.91176 1.00481 3.90489C0.620384 3.58879 0.32875 3.3208 0.161722 3.15932C0.116651 3.11809 0.0795404 3.08029 0.053028 3.05624C0.0344693 3.03906 0.0185587 3.02189 0 3.00127C0.0530248 3.01501 0.103392 3.02532 0.159068 3.03563H0.161722C0.161722 3.03563 0.169675 3.03563 0.177628 3.03907C2.76258 3.48916 8.53699 0.5 8.53699 0.5C9.60013 1.16655 11.3473 1.68879 12.8479 2.04612C12.8479 2.04612 12.8426 2.05986 12.8373 2.08047C12.8293 2.11139 12.824 2.16293 12.8373 2.22134C12.8479 2.29349 12.885 2.37939 12.9752 2.46529C13.0467 2.53057 13.166 2.53056 13.2933 2.50307C13.4365 2.46872 13.5902 2.4 13.6989 2.3416C13.7626 2.31067 13.8103 2.28319 13.8342 2.26601C14.8947 2.48934 15.6609 2.60615 15.6609 2.60615V2.60959Z" fill="url(#paint0_linear_10023_20822)"/>
  <path d="M15.6595 2.60938L15.4288 4.35133C15.4288 4.35133 11.4573 8.41933 5.9639 8.11698L5.79688 6.41626C5.79688 6.41626 13.0586 5.9318 15.6595 2.61281V2.60938Z" fill="url(#paint1_linear_10023_20822)"/>
  <path d="M5.99219 8.73953C5.99219 8.73953 12.7873 7.01131 15.3988 4.83301L14.9958 9.96955C14.9958 9.96955 10.38 11.8215 6.1274 12.2784L5.99219 8.73953Z" fill="url(#paint2_linear_10023_20822)"/>
  <path d="M5.96263 8.11397C3.34851 7.78413 0.296937 5.83947 0.296937 5.83947L0.20148 4.92554L0 2.99805C0.0185587 3.01866 0.0344531 3.03584 0.0530118 3.05302C0.0874779 3.09082 0.124604 3.12861 0.161722 3.16297C0.426845 3.42409 0.710526 3.67147 1.00481 3.9051C1.00746 3.9051 1.01011 3.90854 1.01276 3.91197C3.11254 5.55429 5.79825 6.41325 5.79825 6.41325L5.96528 8.11397H5.96263Z" fill="url(#paint3_linear_10023_20822)"/>
  <path d="M5.98723 8.73913C5.98723 8.73913 2.21188 6.90784 0.398438 6.41309L0.987004 11.0583C0.987004 11.0583 4.75441 12.2574 6.12245 12.2815L5.98723 8.74257V8.73913Z" fill="url(#paint4_linear_10023_20822)"/>
  <path d="M5.48438 9.49924L6.02788 9.73975C6.02788 9.73975 11.3489 8.32763 15.2701 6.44824C15.2701 6.44824 10.6251 8.93577 6.01462 9.39273L5.48703 9.50268L5.48438 9.49924Z" fill="#404C29"/>
  <path d="M9.34521 4.02979C7.75181 4.81659 5.67059 3.61406 6.60913 2.99218C8.27676 1.88241 10.981 3.22237 9.34521 4.02979Z" fill="url(#paint5_linear_10023_20822)"/>
  <path d="M13.4853 3.57923C12.1782 3.28031 12.9232 2.72714 13.2944 2.50382C13.1672 2.5313 13.0478 2.53131 12.9763 2.46603C12.8861 2.38357 12.849 2.29767 12.8384 2.22208L9.34672 1.20508C8.79261 1.41123 8.32863 1.49712 7.97867 1.52461C7.50675 1.55897 7.24163 1.49369 7.24163 1.49369C6.44891 1.89224 2.38457 3.20472 2.38457 3.20472C3.66776 3.85753 1.99219 4.24234 1.99219 4.24234L4.56918 5.66477C6.78562 5.11847 7.11173 5.90527 7.11173 5.90527C10.0758 6.06332 13.6629 3.61359 13.6629 3.61359C13.5993 3.60328 13.541 3.58953 13.4853 3.57923ZM9.82394 4.25608C7.6128 5.33836 4.71235 3.67887 6.01146 2.80961C6.66631 2.36982 7.43517 2.2049 8.15101 2.21521C9.82394 2.24269 11.2079 3.24252 10.1925 4.03276C10.0944 4.10834 9.97241 4.18393 9.82659 4.25608H9.82394Z" fill="#D8EC38"/>
  <path d="M9.34521 4.02979C7.75181 4.81659 5.67059 3.61406 6.60913 2.99218C8.27676 1.88241 10.981 3.22237 9.34521 4.02979Z" fill="url(#paint6_linear_10023_20822)"/>
  <path d="M9.34521 4.02979C7.75181 4.81659 5.67059 3.61406 6.60913 2.99218C8.27676 1.88241 10.981 3.22237 9.34521 4.02979Z" fill="#D8EC38"/>
  <path d="M6.03125 9.73775C6.03125 9.73775 13.1551 8.18132 16.0026 6.44624L15.2947 6.1748L15.2735 6.44624C15.2735 6.44624 12.8661 8.00953 6.03125 9.73775Z" fill="url(#paint7_linear_10023_20822)"/>
  <g style="mix-blend-mode:multiply" opacity="0.3">
    <path d="M6.25886 11.6254C6.01495 11.5772 6.85275 9.57074 9.61534 8.52625C12.484 7.4371 14.9045 6.85645 14.9045 6.85645C14.9045 6.85645 15.0345 8.40599 13.6558 9.76314C12.3408 11.055 7.8284 11.9414 6.26152 11.6254H6.25886Z" fill="#91A674"/>
  </g>
  <g style="mix-blend-mode:multiply" opacity="0.3">
    <path d="M1.07573 10.2001C1.31169 10.8082 5.52186 12.241 5.82145 12.2616C6.12104 12.2822 5.93811 10.2516 5.94607 9.89086C5.95137 9.52667 1.20565 8.49936 1.04128 8.4169C0.876901 8.33444 5.66237 9.38924 5.83205 9.29304C6.00438 9.1934 3.83567 7.9084 2.46763 7.36898C1.07308 6.81925 0.476562 6.64746 0.476562 6.64746C0.476562 6.64746 0.778793 9.43047 1.07838 10.2001H1.07573Z" fill="#9193BA"/>
  </g>
  <g style="mix-blend-mode:multiply" opacity="0.5">
    <path d="M0.476562 4.28965C0.566705 3.50285 5.26204 6.29616 5.61201 6.53323C5.88509 6.71533 5.98318 8.04499 5.59345 8.01407C5.20372 7.97971 1.0943 7.40937 0.476562 4.29308V4.28965Z" fill="#9193BA"/>
  </g>
  <g style="mix-blend-mode:multiply" opacity="0.3">
    <path d="M6.93098 9.27444C6.82228 8.94804 13.5829 6.2681 14.601 5.5775C15.6429 4.86629 15.0013 6.44676 15.0013 6.44676C15.0013 6.44676 11.2737 8.5323 6.93098 9.27444Z" fill="#91A674"/>
  </g>
  <g style="mix-blend-mode:multiply" opacity="0.3">
    <path d="M6.22922 6.37598C6.22922 6.37598 8.32634 7.77779 10.2803 7.20058C12.274 6.61305 14.2519 5.79532 14.7105 4.99478C15.1824 4.17362 15.5059 2.80273 15.5059 2.80273C15.5059 2.80273 11.6722 6.41377 6.22656 6.37254L6.22922 6.37598Z" fill="#91A674"/>
  </g>
  <g style="mix-blend-mode:multiply" opacity="0.5">
    <path d="M4.20578 7.70215C4.20578 7.70215 5.80183 8.54392 6.04839 8.61951C6.29761 8.6951 8.42654 8.03199 8.42654 8.03199C8.42654 8.03199 6.2817 8.56454 4.20312 7.70215H4.20578Z" fill="#912774"/>
  </g>
  <g style="mix-blend-mode:multiply" opacity="0.5">
    <path d="M0.70663 6.08691C0.399087 6.41332 2.23375 7.06612 2.23375 7.06612L2.7799 7.14858L0.703977 6.08691H0.70663Z" fill="#912774"/>
  </g>
  <g style="mix-blend-mode:multiply" opacity="0.5">
    <path d="M0 2.99805C0.0503735 3.01179 0.103392 3.0221 0.159068 3.03241V3.1561V3.16297L0.20148 4.92554L0 2.99805Z" fill="#9193BA"/>
  </g>
  <g style="mix-blend-mode:multiply" opacity="0.5">
    <path d="M8.53639 0.5C8.53639 0.5 8.35346 0.936347 5.13751 2.28662C2.22645 3.50977 0.383833 3.0906 0.179688 3.03907C2.76464 3.48916 8.53903 0.5 8.53903 0.5H8.53639Z" fill="#9193BA"/>
  </g>
  <g style="mix-blend-mode:multiply" opacity="0.5">
    <path d="M15.001 2.99873C14.8578 3.13616 14.2533 3.3698 13.4792 3.57938C12.4611 3.85425 11.1461 4.09132 10.1837 4.02947C9.67996 3.99855 9.27432 3.88517 9.05692 3.6481C8.64597 3.20144 8.32782 2.68264 8.14224 2.21193C8.04679 1.96111 7.98581 1.72748 7.97255 1.52477C7.94869 1.20867 8.03619 0.975038 8.26154 0.892578C8.26154 0.892578 10.8624 1.50415 12.8376 2.08137C12.8296 2.11229 12.8243 2.16383 12.8376 2.22224C12.8482 2.29439 12.8853 2.38029 12.9755 2.46618C13.047 2.53146 13.1663 2.53146 13.2936 2.50397C13.4368 2.46961 13.5905 2.4009 13.6992 2.34249C14.5635 2.62423 15.1415 2.8716 15.0063 2.99873H15.001Z" fill="#91A674"/>
  </g>
  <g style="mix-blend-mode:multiply" opacity="0.5">
    <path d="M14.9934 9.96973C14.9934 9.96973 13.7314 10.2755 11.4116 10.9799C9.22695 11.643 6.125 12.2786 6.125 12.2786C6.125 12.2786 11.4354 11.478 14.9934 9.96973Z" fill="#912774"/>
  </g>
  <g style="mix-blend-mode:multiply" opacity="0.5">
    <path d="M0.992188 11.0596L6.12763 12.2827C6.12763 12.2827 3.65668 11.922 0.992188 11.0596Z" fill="#912774"/>
  </g>
  <g style="mix-blend-mode:multiply" opacity="0.5">
    <path d="M6.16672 9.74011C6.16672 9.74011 12.6728 8.29363 13.9667 8.1665C15.2658 8.03938 15.2127 7.1495 15.2127 7.1495L15.2551 6.85059C15.2551 6.85059 12.5933 8.16307 6.16406 9.74011H6.16672Z" fill="#655174"/>
  </g>
  <path d="M15.9984 6.44778V6.64705C15.9984 6.64705 12.4537 8.35465 8.02344 9.25827C8.02344 9.25827 13.1562 7.88051 15.9984 6.44434V6.44778Z" fill="url(#paint8_linear_10023_20822)"/>
  <g style="mix-blend-mode:multiply" opacity="0.5">
    <path d="M3.9375 2.43945C3.9375 2.43945 6.23613 5.10908 8.76275 5.91649C8.76275 5.91649 8.88735 8.29751 8.80251 11.8227C8.80251 11.8227 8.97749 6.8098 8.83433 5.67255C8.69116 4.5353 5.5415 2.46694 3.9375 2.43945Z" fill="#543404"/>
  </g>
  <path d="M7.96094 11.9983L9.11424 11.7646C9.11424 11.7646 8.92068 12.3419 8.57072 12.3797C8.22076 12.4175 7.96094 11.9983 7.96094 11.9983Z" fill="#6B3381"/>
  <path d="M11.2693 11.5513C11.2613 11.6131 11.2534 11.6612 11.2454 11.6887C11.2269 11.7609 11.1659 11.8296 11.0704 11.8914C10.9405 11.9773 10.7496 12.0529 10.5296 12.1182C10.5269 12.1182 10.5216 12.1182 10.519 12.1182C10.2989 12.1869 10.0471 12.2419 9.80315 12.2865C9.63347 12.3209 9.46909 12.3484 9.31797 12.369C8.9627 12.4205 8.67902 12.4515 8.61009 12.4583C8.59949 12.4583 8.59418 12.4583 8.59418 12.4583C8.59418 12.4583 8.76121 12.3553 8.85665 11.3623C8.95475 10.3659 9.04753 6.09864 8.88051 5.5489C8.31314 3.69013 4.02344 2.20243 4.02344 2.20243C4.02344 2.20243 4.24084 2.06843 4.5855 1.91382C4.96993 1.74203 5.51079 1.54275 6.08876 1.48778H6.09405C6.12322 1.48778 6.15769 1.4809 6.18686 1.4809C6.37244 1.46716 6.56068 1.47059 6.74626 1.49121C7.29507 1.55649 8.05333 1.88977 8.90437 2.28832C10.1107 2.84836 11.3939 3.56988 11.545 4.15397C11.7916 5.09538 11.4257 10.4862 11.2719 11.5444L11.2693 11.5513Z" fill="url(#paint9_linear_10023_20822)"/>
  <path d="M9.7906 12.2931C9.62092 12.3275 9.45654 12.355 9.30542 12.3756C9.6978 12.2622 9.70575 5.40778 9.5838 4.83399C9.46449 4.25678 5.80314 1.94791 4.57031 1.92386L5.02103 1.82422C5.02103 1.82422 9.3664 3.82386 9.90725 4.68282C10.4455 5.53834 9.86749 12.1626 9.79325 12.2931H9.7906Z" fill="url(#paint10_linear_10023_20822)"/>
  <path d="M11.0638 11.895C10.9339 11.9809 10.743 12.0564 10.5229 12.1217C10.5203 12.1217 10.515 12.1217 10.5123 12.1217C10.4991 12.1217 10.4911 12.1217 10.4911 12.1217C10.8862 12.0358 10.8941 5.1539 10.7748 4.57668C10.6529 3.99946 6.94641 1.59096 5.71094 1.56691L6.07946 1.48788H6.08477L6.16165 1.4707C6.16165 1.4707 6.16695 1.4707 6.17756 1.47758C6.47185 1.61844 10.5733 3.59747 11.0956 4.42551C11.6073 5.23979 11.1725 11.1941 11.0664 11.8881L11.0638 11.895Z" fill="url(#paint11_linear_10023_20822)"/>
  <path d="M3.94015 2.44013C3.94015 2.44013 7.55643 3.10324 8.83698 5.67322C8.83698 5.67322 8.96159 10.7617 8.80517 11.8233C8.64875 12.885 7.95942 11.9986 7.95942 11.9986L7.69961 12.0638C7.69961 12.0638 8.6196 12.8953 8.80253 12.2631C8.98812 11.6309 8.94834 6.48408 8.94038 5.63887C8.93243 4.79366 6.02668 2.48823 4.00909 2.2168L3.9375 2.44356L3.94015 2.44013Z" fill="#907A98"/>
  <g style="mix-blend-mode:multiply" opacity="0.5">
    <path d="M8.94735 5.6355C8.90228 4.69752 11.3335 4.18558 11.5403 4.48106C11.7471 4.77654 11.5217 11.15 11.1744 11.6894C10.8907 12.1326 9.11438 12.3766 8.94735 12.2563C8.71139 12.088 9.08521 8.5147 8.94735 5.63206V5.6355Z" fill="#925189"/>
  </g>
  <g style="mix-blend-mode:multiply" opacity="0.3">
    <path d="M9.01384 5.55804C8.8203 6.19711 9.96828 6.31392 10.7 5.59927C11.4318 4.88806 11.6783 4.49638 11.3443 4.40361C11.0076 4.31084 9.24185 4.81247 9.01649 5.55461L9.01384 5.55804Z" fill="#925189"/>
  </g>
  <g style="mix-blend-mode:multiply" opacity="0.2">
    <path d="M8.51871 2.12188C7.12416 1.55841 6.19357 2.21121 6.16441 2.60976C6.13524 3.00832 7.96989 4.05967 8.42325 4.6094C8.87926 5.16257 11.1249 3.98753 11.1381 3.8123C11.1514 3.63707 9.74092 2.61664 8.51605 2.12188H8.51871Z" fill="#D46BAA"/>
  </g>
  <g style="mix-blend-mode:multiply" opacity="0.8">
    <path d="M11.2661 11.5537C11.2581 11.6156 11.2502 11.6637 11.2422 11.6911C11.1176 12.2031 8.81896 12.4436 8.60156 12.4676C8.7792 12.4333 10.1393 12.2615 10.7994 11.9763C11.1441 11.8286 11.2528 11.5812 11.2634 11.5537H11.2661Z" fill="#925189"/>
  </g>
  <path d="M1.67969 4.39355C1.67969 4.39355 4.36009 5.86752 5.61148 6.17331C6.86551 6.4791 8.76911 5.9809 8.76911 5.9809C8.76911 5.9809 6.70114 6.53407 5.79972 6.41381C4.8983 6.29356 1.67969 4.39699 1.67969 4.39699V4.39355Z" fill="#C2E238"/>
  <path d="M5.21875 9.45463C5.21875 9.45463 5.81527 9.75699 6.02472 9.73981C6.23417 9.72606 7.82756 9.25879 7.82756 9.25879C7.82756 9.25879 6.08569 9.72606 5.22139 9.45119L5.21875 9.45463Z" fill="#A7B138"/>
  <path d="M12.4922 7.70212C12.4922 7.70212 13.4254 7.39633 14.0326 7.26233C14.6397 7.1249 15.9176 6.41369 15.9176 6.41369C15.9176 6.41369 15.4457 6.23159 15.3714 6.2041C15.2972 6.17662 15.276 6.44805 15.276 6.44805C15.276 6.44805 13.375 7.4891 12.4922 7.70212Z" fill="#C2D138"/>
  <path d="M0.703382 6.08691L0.101562 6.44768C0.101562 6.44768 1.96272 6.91494 3.3175 7.51965L0.671569 6.27245L0.706036 6.09035L0.703382 6.08691Z" fill="#91A622"/>
  <path d="M0.101562 6.44824L0.178443 6.78838C0.178443 6.78838 4.10757 7.692 5.98995 8.74336C5.98995 8.74336 2.63613 6.943 0.1042 6.45168L0.101562 6.44824Z" fill="url(#paint12_linear_10023_20822)"/>
  <g style="mix-blend-mode:multiply" opacity="0.5">
    <path d="M0.671875 8.16178C0.671875 8.16178 3.11632 8.9314 4.30142 9.05509C5.48652 9.17878 1.32938 8.04496 0.671875 8.16178Z" fill="#9193BA"/>
  </g>
  <path d="M12.8407 2.08496C12.8407 2.08496 12.9997 2.64156 13.4796 2.46977C13.4796 2.46977 12.7717 2.76869 12.8407 2.08496Z" fill="url(#paint13_linear_10023_20822)"/>
  <path d="M12.6963 4.75625C12.4471 4.78373 12.9826 4.30959 13.4201 4.39892C13.4201 4.39892 12.7944 4.74594 12.6963 4.75625Z" fill="#526800"/>
  <path d="M1.09375 3.96582C1.09375 3.96582 2.12242 4.01736 1.67966 4.3953L1.09375 3.96582Z" fill="#526800"/>
  <path d="M1.79237 3.65992C1.59087 3.8592 1.90902 3.8111 1.98856 3.72521C2.06809 3.63931 1.93288 3.52249 1.79237 3.65992Z" fill="#526800"/>
  <path d="M13.7266 7.59219C13.7266 7.59219 13.7637 7.34481 14.0739 7.19707C14.3841 7.0459 14.6969 7.19707 14.6969 7.19707C14.6969 7.19707 14.1534 7.51661 13.7266 7.59219Z" fill="#526100"/>
  <g style="mix-blend-mode:multiply" opacity="0.5">
    <path d="M4.88362 6.28361C4.5151 6.23207 5.69224 7.64076 5.82216 7.76788C5.95207 7.89501 5.88049 6.95015 5.6843 6.61688C5.48811 6.28361 4.88362 6.28361 4.88362 6.28361Z" fill="#9193BA"/>
  </g>
  <g style="mix-blend-mode:multiply" opacity="0.5">
    <path d="M3.88252 9.13435C3.37348 9.05877 4.92976 10.708 5.30888 11.0584C5.68801 11.4089 5.95315 10.2201 5.91603 9.97269C5.87891 9.72188 4.5904 9.23743 3.88252 9.13435Z" fill="#9193BA"/>
  </g>
  <g style="mix-blend-mode:multiply" opacity="0.5">
    <path d="M15.6636 2.60938C15.6636 2.60938 15.2182 3.18315 14.8152 3.4752C14.4123 3.7638 15.1413 3.5233 15.2951 3.56453C15.4489 3.60576 15.4303 4.35133 15.4303 4.35133C15.4303 4.35133 15.6133 3.17628 15.661 2.60938H15.6636Z" fill="#9193BA"/>
  </g>
  <defs>
    <linearGradient id="paint0_linear_10023_20822" x1="0.00265124" y1="3.47198" x2="15.6609" y2="3.47198" gradientUnits="userSpaceOnUse">
      <stop stop-color="#84A61D"/>
      <stop offset="1" stop-color="#B5CE45"/>
    </linearGradient>
    <linearGradient id="paint1_linear_10023_20822" x1="5.79688" y1="5.36833" x2="15.6595" y2="5.36833" gradientUnits="userSpaceOnUse">
      <stop stop-color="#848D04"/>
      <stop offset="1" stop-color="#829A45"/>
    </linearGradient>
    <linearGradient id="paint2_linear_10023_20822" x1="5.99219" y1="8.55399" x2="15.3988" y2="8.55399" gradientUnits="userSpaceOnUse">
      <stop stop-color="#848D04"/>
      <stop offset="1" stop-color="#829A45"/>
    </linearGradient>
    <linearGradient id="paint3_linear_10023_20822" x1="0" y1="5.55773" x2="5.96263" y2="5.55773" gradientUnits="userSpaceOnUse">
      <stop stop-color="#427038"/>
      <stop offset="0.99" stop-color="#635C06"/>
    </linearGradient>
    <linearGradient id="paint4_linear_10023_20822" x1="0.398438" y1="9.34727" x2="6.12245" y2="9.34727" gradientUnits="userSpaceOnUse">
      <stop stop-color="#427038"/>
      <stop offset="0.99" stop-color="#635C06"/>
    </linearGradient>
    <linearGradient id="paint5_linear_10023_20822" x1="6.37317" y1="3.42852" x2="9.85159" y2="3.42852" gradientUnits="userSpaceOnUse">
      <stop stop-color="#D8EC38"/>
      <stop offset="0.99" stop-color="#FFF47C"/>
    </linearGradient>
    <linearGradient id="paint6_linear_10023_20822" x1="6.37317" y1="3.42852" x2="9.85159" y2="3.42852" gradientUnits="userSpaceOnUse">
      <stop stop-color="#84A61D"/>
      <stop offset="1" stop-color="#B5CE45"/>
    </linearGradient>
    <linearGradient id="paint7_linear_10023_20822" x1="6.03125" y1="7.95456" x2="16.0026" y2="7.95456" gradientUnits="userSpaceOnUse">
      <stop stop-color="#84A61D"/>
      <stop offset="1" stop-color="#B5CE45"/>
    </linearGradient>
    <linearGradient id="paint8_linear_10023_20822" x1="8.02344" y1="7.85302" x2="15.9984" y2="7.85302" gradientUnits="userSpaceOnUse">
      <stop stop-color="#848D04"/>
      <stop offset="1" stop-color="#829A45"/>
    </linearGradient>
    <linearGradient id="paint9_linear_10023_20822" x1="7.82266" y1="12.4686" x2="7.82266" y2="1.47747" gradientUnits="userSpaceOnUse">
      <stop stop-color="#F8E1F2"/>
      <stop offset="1" stop-color="white"/>
    </linearGradient>
    <linearGradient id="paint10_linear_10023_20822" x1="7.35146" y1="12.3756" x2="7.35146" y2="1.82422" gradientUnits="userSpaceOnUse">
      <stop stop-color="#DE0086"/>
      <stop offset="1" stop-color="#FF003B"/>
    </linearGradient>
    <linearGradient id="paint11_linear_10023_20822" x1="8.52125" y1="12.1286" x2="8.52125" y2="1.47757" gradientUnits="userSpaceOnUse">
      <stop stop-color="#DE0086"/>
      <stop offset="1" stop-color="#FF003B"/>
    </linearGradient>
    <linearGradient id="paint12_linear_10023_20822" x1="0.101562" y1="7.59237" x2="5.9873" y2="7.59237" gradientUnits="userSpaceOnUse">
      <stop stop-color="#427038"/>
      <stop offset="0.99" stop-color="#635C06"/>
    </linearGradient>
    <linearGradient id="paint13_linear_10023_20822" x1="12.838" y1="2.30829" x2="13.4796" y2="2.30829" gradientUnits="userSpaceOnUse">
      <stop stop-color="#427038"/>
      <stop offset="0.99" stop-color="#635C06"/>
    </linearGradient>
  </defs>
</svg>